M48
;FILE_FORMAT=2:4
INCH,LZ
FMAT,2
ICI,OFF
;TYPE=PLATED
T1C.01
T2C.01575
T3C.0193
T4C.01969
T5C.02362
T6C.02756
T7C.0315
T8C.035
T9C.03543
T10C.03937
T11C.06299
%
M72
G90
G93X0Y0
T1C.01F095S3
X013465Y039055
X012677Y039055
X013071Y039055
X012279Y039056
X013465Y039449
X011299Y039449
X011299Y039843
X013465Y039843
X013465Y040236
X011299Y040236
X013071Y040236
X013465Y041024
X013071Y041024
X011496Y041811
X013071Y041811
X012283Y041811
X012283Y042598
X013071Y042598
X011496Y042598
X012283Y043386
X013071Y043386
X011496Y043386
X011496Y044173
X013071Y044173
X012283Y044173
X013071Y044961
X011496Y044961
X012283Y044961
X011496Y045748
X013071Y045748
X012283Y045748
X012283Y046535
X013071Y046535
X011496Y046535
X011496Y047323
X011496Y04811
X011102Y04811
X011496Y048504
X011102Y048504
X011496Y048898
X011102Y048898
X011102Y049291
X011496Y049291
X012826Y049371
X011496Y049685
X011102Y049685
X012835Y049695
X012838Y050035
X011496Y050866
X011102Y050866
X011102Y05126
X011496Y05126
X011496Y051654
X011102Y051654
X011102Y052047
X011102Y052441
X011102Y052835
X011102Y053228
X011102Y053622
X011102Y054016
X011496Y054016
X011102Y054409
X011496Y054409
X011102Y054803
X011102Y055197
X013071Y055197
X013465Y055197
X011102Y055591
X013071Y055591
X013465Y055591
X011102Y055984
X011102Y056378
X011496Y056378
X011102Y056772
X011496Y056772
X013465Y057165
X013071Y057165
X012677Y057165
X012283Y057165
X01189Y057165
X011102Y057165
X011496Y057165
X014646Y057165
X014252Y057165
X013858Y057165
X013858Y055591
X014646Y055591
X014252Y055591
X014252Y055197
X013858Y055197
X014252Y050079
X014252Y049685
X014646Y049291
X015039Y049291
X014252Y049291
X015906Y04874
X015118Y048228
X013858Y046535
X014646Y046535
X014646Y045748
X013858Y045748
X015615Y04566
X015386Y045439
X01501Y045198
X013858Y044961
X014646Y044961
X014646Y044173
X013858Y044173
X014646Y043386
X013858Y043386
X013858Y042598
X014646Y042598
X015433Y042531
X015452Y041815
X013858Y041811
X014646Y041811
X014252Y041024
X013858Y041024
X014646Y040236
X013858Y040236
X014252Y040236
X014646Y039646
X013858Y039055
X014252Y039055
X014646Y039055
X015827Y038268
X015827Y037087
X015827Y035906
X015827Y034724
X016011Y029009
X016009Y028749
X015827Y027638
X015827Y027244
X016614Y027244
X018583Y027244
X016614Y027638
X018583Y027638
X01714Y032253
X017504Y032607
X016614Y034331
X018346Y040827
X01622Y041838
X01857Y041891
X01622Y042598
X016311Y044385
X01622Y044961
X018571Y046037
X01702Y046154
X016224Y046159
X01622Y046535
X017008Y046535
X016629Y047008
X018301Y048254
X016417Y048307
X018111Y048582
X016417Y048701
X018111Y048962
X016418Y048985
X016614Y049291
X01781Y052934
X018291Y054617
X018838Y05433
X018793Y0484
X020551Y046142
X019037Y04566
X019299Y045439
X019027Y045206
X018688Y044552
X019882Y04
X020276Y038701
X019764Y038661
X018976Y038661
X019764Y038268
X018976Y038268
X020866Y038189
X018976Y037874
X019764Y037874
X018858Y037205
X019055Y036457
X019122Y03626
X020149Y034576
X020396Y028231
X02067Y028227
X01937Y027638
X01937Y027244
X021339Y027244
X022913Y027244
X022126Y027244
X021339Y027638
X022913Y027638
X022126Y027638
X022869Y029167
X022614Y029167
X023107Y02917
X021694Y029174
X021942Y029174
X021442Y029177
X023239Y031031
X022082Y031453
X022077Y031733
X022023Y033277
X022021Y033499
X022787Y034587
X022775Y034898
X022362Y034969
X021378Y035394
X022126Y035945
X023189Y03622
X022908Y036288
X022362Y036457
X022912Y036691
X022795Y03695
X02209Y037327
X023543Y04
X021706Y04077
X022835Y040787
X022244Y040787
X023307Y040787
X023071Y040984
X02252Y040984
X021969Y040984
X021465Y040998
X021105Y04174
X021103Y042376
X023307Y042598
X021969Y045
X021465Y045433
X021706Y045648
X02252Y045748
X021339Y046142
X022126Y046142
X021317Y047417
X022588Y049722
X022157Y049826
X023085Y049997
X022584Y050235
X023083Y050644
X022756Y055039
X023039Y055313
X023307Y055591
X02374Y056339
X024309Y056245
X025984Y055472
X025472Y055433
X024449Y055394
X024724Y055394
X025669Y053228
X025669Y052835
X025669Y05248
X025276Y050866
X025512Y050709
X025276Y050551
X025512Y050433
X025276Y049528
X025591Y049291
X025276Y049094
X025315Y047087
X025591Y046535
X02397Y045709
X025079Y045221
X024173Y045
X024409Y043701
X023858Y041102
X024567Y040984
X02607Y039452
X02607Y038914
X025618Y038769
X024685Y038248
X025632Y036131
X024213Y035709
X024449Y035433
X024685Y035276
X025431Y035104
X025591Y03437
X025297Y034365
X024599Y033375
X024583Y033136
X023907Y031067
X024147Y029196
X023663Y029191
X023903Y029188
X025669Y027638
X023701Y027638
X024488Y027638
X023701Y027244
X026063Y027244
X024488Y027244
X028425Y027244
X027638Y027244
X02685Y027244
X026457Y027638
X027244Y027638
X028031Y031575
X026697Y031752
X026567Y032914
X026457Y036457
X028071Y037364
X026302Y038449
X027618Y039802
X027156Y039817
X02742Y040731
X027617Y041047
X027248Y041062
X028425Y042598
X028425Y04378
X02685Y04378
X027638Y04378
X026941Y04425
X028453Y057397
X030439Y057395
X029213Y04378
X030787Y04378
X03Y04378
X030378Y043402
X029606Y043386
X028819Y043386
X029652Y042923
X029016Y042874
X029026Y042444
X029016Y041575
X030622Y041
X029993Y037438
X02871Y037425
X029289Y03742
X030152Y036616
X029808Y036614
X030971Y036498
X029408Y03532
X028967Y034449
X028858Y033189
X02878Y031811
X028972Y031351
X029117Y030932
X029331Y030787
X030843Y030088
X029212Y028682
X028819Y027638
X029213Y027244
X033543Y027244
X032756Y027244
X031969Y027244
X033076Y027668
X033583Y029488
X033583Y029843
X031575Y029921
X031213Y030093
X032402Y032992
X032002Y033223
X031102Y033701
X031102Y033976
X031879Y034449
X031378Y035551
X031654Y035561
X031117Y035582
X033543Y036299
X031397Y036478
X031989Y037487
X032402Y037992
X03315Y038268
X032402Y038937
X033308Y039137
X031374Y041389
X031689Y042456
X031179Y043391
X031635Y043657
X03248Y044252
X033293Y056363
X033417Y057395
X0358Y04431
X034329Y044175
X034324Y043802
X03501Y042926
X035827Y038701
X035787Y037992
X035118Y037087
X033933Y036309
X034331Y036299
X035118Y036299
X034721Y036297
X035118Y035512
X034816Y03476
X034664Y034492
X035206Y03183
X035215Y031518
X034724Y029213
X035118Y028819
X035906Y028819
X035512Y028425
X034724Y028425
X034331Y027244
X036693Y027241
X037483Y027243
X038268Y027244
X037874Y027638
X037087Y028425
X036299Y028425
X037874Y028425
X036693Y028819
X038268Y028819
X038268Y029606
X036441Y031067
X036868Y031071
X036142Y031102
X038218Y032204
X037874Y03748
X037387Y03765
X038268Y037874
X037201Y039852
X037221Y040695
X037874Y042992
X037487Y043249
X037874Y043386
X037874Y04378
X037874Y044173
X038007Y044551
X038007Y044956
X037874Y045354
X037874Y045748
X037874Y046142
X037874Y046535
X037874Y046929
X038661Y039449
X038661Y03748
X038715Y030745
X041024Y030394
X039449Y030394
X039449Y03
X041024Y03
X041024Y029606
X039449Y029606
X039049Y029595
X039055Y028819
X039843Y028819
X039843Y028425
X038661Y028425
X039449Y027638
X038661Y027638
X040236Y027638
X039055Y027244
X039843Y027244
X041811Y027244
X043386Y027244
X042598Y027244
X041811Y027638
X042598Y027638
X043386Y027638
X042205Y028031
X042205Y028819
X042992Y028819
X042205Y029606
X042992Y029606
X042598Y030394
X042992Y030394
X043386Y030394
X042205Y030394
X044961Y030394
X04378Y030394
X044173Y030394
X045354Y030394
X044567Y030394
X045748Y030394
X045748Y03
X04378Y029606
X045748Y029606
X045354Y029606
X045512Y029213
X044173Y028425
X044567Y028386
X044213Y028071
X04378Y028031
X04378Y027638
X046142Y03
X046535Y030394
X046929Y030394
X047323Y030394
X047717Y030394
X046142Y030394
X04811Y030394
X047717Y030787
X04811Y030787
X048504Y030827
X048504Y031181
X048504Y055
X04811Y055
X047323Y055
X047717Y055
X047717Y055394
X047323Y055394
X04811Y055394
X048504Y055394
X047717Y055787
X047323Y055787
X04811Y055787
X048504Y055787
X047717Y056181
X047323Y056181
X04811Y056181
X048504Y056772
X048506Y057165
X049291Y057165
X049685Y057165
X048898Y057165
X050079Y057165
X048701Y056969
X048898Y056772
X048898Y055394
X049291Y055197
X049685Y055197
X050079Y055197
X049291Y055
X048898Y055
X049685Y054803
X050079Y054803
X049685Y054409
X050079Y054409
X049685Y054016
X050079Y054016
X049685Y053622
X050079Y053622
X049685Y053228
X050079Y053228
X049685Y052835
X050079Y052835
X049685Y052441
X050079Y052441
X049685Y052047
X050079Y052047
X049685Y051654
X050079Y051654
X050079Y05126
X049685Y05126
X050079Y050866
X049685Y050866
X049292Y050474
X050079Y050472
X049685Y050472
X050079Y050079
X049685Y050079
X049291Y050079
X049685Y049685
X050079Y049685
X04929Y049293
X049685Y049291
X050079Y049291
X049685Y048898
X050079Y048898
X049685Y048504
X050079Y048504
X049685Y04811
X050079Y04811
X049685Y047717
X050079Y047717
X049685Y047323
X050079Y047323
X049685Y046929
X050079Y046929
X049685Y046535
X050079Y046535
X049685Y046142
X050079Y046142
X049685Y045748
X050079Y045748
X050079Y045354
X049685Y045354
X050079Y044961
X049685Y044961
X050079Y044173
X049685Y044173
X049685Y04378
X050079Y04378
X050079Y043386
X049685Y043386
X049685Y042992
X050079Y042992
X049685Y042205
X050079Y042205
X049685Y041811
X050079Y041811
X050079Y041417
X049685Y041417
X049685Y041024
X050079Y041024
X050079Y04063
X049685Y04063
X050079Y040236
X049685Y040236
X050079Y039843
X050079Y039449
X049685Y039449
X049685Y039055
X050079Y039055
X050079Y038661
X049685Y038661
X050079Y038268
X049685Y038268
X049685Y037874
X050079Y037874
X050079Y03748
X049685Y03748
X049685Y037087
X050079Y037087
X049685Y036693
X050079Y036693
X050079Y036299
X049685Y035906
X050079Y035906
X049685Y035512
X050079Y035512
X050079Y035118
X049685Y035118
X050079Y034724
X049685Y034724
X050079Y034331
X049685Y034331
X049685Y033937
X050079Y033937
X049807Y033559
X050079Y033543
X049685Y03315
X050079Y03315
X049685Y032756
X050079Y032756
X049685Y032362
X049291Y032362
X049291Y031969
X049646Y031969
X049291Y031575
X048898Y031575
X048819Y03126
T2C.01575F095S3
X01748Y042244
X022913Y045472
X019882Y050039
X020197Y050551
X030923Y056
X023701Y05498
X025982Y05498
X025Y036102
X02563Y035433
X031654Y029016
X031654Y029291
T3C.0193F095S3
X017063Y053715G85X016587Y053715
X017063Y052062G85X016587Y052062
T4C.01969F095S3
X029034Y041991
X019083Y032029G85X01926Y032029
X017608Y0274G85X017785Y0274
X02056Y027402G85X020737Y027402
T5C.02362F197S55
X017362Y030551
X023386Y033386
X011205Y050334
X018393Y053858
X026929Y056969
X026535Y056969
X027913Y056063
X02748Y056024
X02564Y049955
X02607Y049954
X0262Y040284
X026595Y031109
X024449Y029685
X034567Y033403
X034567Y033825
X030097Y036017
X029709Y036042
X030945Y036929
X030959Y038966
X034291Y040276
X036419Y032064
X036417Y031575
X027327Y032565G85X028069Y032663
T6C.02756F197S55
X047913Y051358
X047126Y051358
X046339Y051358
X047913Y052343
X047126Y052343
X046339Y052343
T7C.0315F197S55
X022911Y051277
X021169Y051988
X022911Y052064
X020356Y05257
X022911Y052852
X019542Y053151
X022911Y053639
X022911Y054426
X025273Y054426
X025273Y053639
X025273Y052852
X025273Y052064
X025273Y051277
T8C.035F197S55
X011654Y03874
X014581Y056496
X013961Y056496
X016181Y056496
X016801Y056496
X020129Y044606
X019726Y043665
X019337Y04276
X02801Y03394
X027062Y033822
X037047Y04811
X037047Y050079
X045853Y05689
X045233Y05689
X048073Y05689
X047453Y05689
X047883Y042539
X049851Y042539
T9C.03543F197S55
X045807Y044646
X049823Y044646
T10C.03937F197S55
X040237Y03002
X040237Y031398
X040925Y035847
X039693Y0424
X039705Y045551
X039705Y048346
X042657Y048346
X042657Y045551
X042449Y0424
X045164Y039865
X043279Y037132
X044263Y037132
X041909Y035847
X04383Y032898
X045799Y032898
X04483Y028886
X048091Y036299
X049469Y036299
X047045Y037851
X049469Y039843
X048091Y039843
T11C.06299F089S55
X030995Y05418
X028995Y05418
X032995Y05418
M30
