*
*
G04 PADS VX.2.4 Build Number: 11282995 generated Gerber (RS-274-X) file*
G04 PC Version=2.1*
*
%IN "XP02-主板-210422-1(1).p"*%
*
%MOIN*%
*
%FSLAX35Y35*%
*
*
*
*
G04 PC Standard Apertures*
*
*
G04 Thermal Relief Aperture macro.*
%AMTER*
1,1,$1,0,0*
1,0,$1-$2,0,0*
21,0,$3,$4,0,0,45*
21,0,$3,$4,0,0,135*
%
*
*
G04 Annular Aperture macro.*
%AMANN*
1,1,$1,0,0*
1,0,$2,0,0*
%
*
*
G04 Odd Aperture macro.*
%AMODD*
1,1,$1,0,0*
1,0,$1-0.005,0,0*
%
*
*
G04 PC Custom Aperture Macros*
*
*
*
*
*
*
G04 PC Aperture Table*
*
%ADD013C,0.01*%
%ADD028C,0.06*%
%ADD059R,0.06X0.06*%
%ADD101R,0.05X0.05*%
%ADD109C,0.001*%
%ADD399R,0.06X0.024*%
%ADD461R,0.032X0.032*%
%ADD464R,0.09449X0.07087*%
%ADD465R,0.07087X0.07874*%
%ADD466R,0.03543X0.03543*%
%ADD467R,0.0315X0.03543*%
%ADD470R,0.045X0.04*%
%ADD473R,0.04X0.045*%
%ADD474R,0.03543X0.0315*%
%ADD475R,0.05118X0.03346*%
%ADD477R,0.024X0.06*%
%ADD478O,0.04724X0.08268*%
%ADD480R,0.02362X0.01378*%
%ADD481R,0.06X0.012*%
%ADD483R,0.02362X0.04331*%
%ADD551R,0.05906X0.14173*%
%ADD555R,0.04724X0.02559*%
%ADD570R,0.07874X0.22835*%
%ADD577R,0.08X0.045*%
%ADD582R,0.106X0.19685*%
%ADD583R,0.06496X0.0378*%
%ADD584R,0.045X0.065*%
%ADD585R,0.118X0.065*%
*
*
*
*
G04 PC Circuitry*
G04 Layer Name XP02-主板-210422-1(1).p - circuitry*
%LPD*%
*
*
G04 PC Custom Flashes*
G04 Layer Name XP02-主板-210422-1(1).p - flashes*
%LPD*%
*
*
G04 PC Circuitry*
G04 Layer Name XP02-主板-210422-1(1).p - circuitry*
%LPD*%
*
G54D13*
G01X328106Y341472D02*
X326550Y339917D01*
X328106Y338361*
X329661Y339917*
X328106Y341472*
X327467Y339000D02*
X328745D01*
X326633Y340000D02*
X329578D01*
X327633Y341000D02*
X328578D01*
X327000Y339467D02*
Y340367D01*
X328000Y338467D02*
Y341367D01*
X329000Y339255D02*
Y340578D01*
X323863Y337230D02*
X322307Y335674D01*
X323863Y334118*
X325419Y335674*
X323863Y337230*
X322981Y335000D02*
X324745D01*
X322633Y336000D02*
X325093D01*
X323633Y337000D02*
X324093D01*
X323000Y334981D02*
Y336367D01*
X324000Y334255D02*
Y337093D01*
X325000Y335255D02*
Y336093D01*
X446605Y431522D02*
X443015Y437384D01*
X437824Y434205*
X441414Y428343*
X446605Y431522*
X441012Y429000D02*
X442487D01*
X440399Y430000D02*
X444120D01*
X439787Y431000D02*
X445753D01*
X439175Y432000D02*
X446312D01*
X438562Y433000D02*
X445699D01*
X437950Y434000D02*
X445087D01*
X439123Y435000D02*
X444475D01*
X440756Y436000D02*
X443862D01*
X442388Y437000D02*
X443250D01*
X438000Y433918D02*
Y434313D01*
X439000Y432285D02*
Y434925D01*
X440000Y430652D02*
Y435537D01*
X441000Y429019D02*
Y436150D01*
X442000Y428702D02*
Y436762D01*
X443000Y429314D02*
Y437374D01*
X444000Y429926D02*
Y435775D01*
X445000Y430539D02*
Y434142D01*
X446000Y431151D02*
Y432509D01*
X454829Y418092D02*
X451239Y423954D01*
X446049Y420775*
X449639Y414913*
X454829Y418092*
X449585Y415000D02*
X449781D01*
X448973Y416000D02*
X451414D01*
X448361Y417000D02*
X453047D01*
X447748Y418000D02*
X454680D01*
X447136Y419000D02*
X454273D01*
X446523Y420000D02*
X453661D01*
X446416Y421000D02*
X453048D01*
X448049Y422000D02*
X452436D01*
X449682Y423000D02*
X451823D01*
X447000Y419222D02*
Y421358D01*
X448000Y417589D02*
Y421970D01*
X449000Y415956D02*
Y422582D01*
X450000Y415134D02*
Y423195D01*
X451000Y415747D02*
Y423807D01*
X452000Y416359D02*
Y422712D01*
X453000Y416971D02*
Y421079D01*
X454000Y417584D02*
Y419446D01*
G54D28*
X239370Y418898D03*
X291732Y360630D03*
X168110Y550394D03*
X194882Y400000D03*
X248425Y430709D03*
X181890Y366929D03*
Y376772D03*
X202848Y480873D03*
X257319Y544252D03*
X169798Y504185D03*
X383858Y332677D03*
X224479Y544281D03*
X176115Y512046D03*
X224479Y536399D03*
Y528539D03*
Y520661D03*
Y512765D03*
X179566Y333757D03*
X255644Y320528D03*
X332710Y439559D03*
X359055Y422835D03*
X304724Y291732D03*
X370472Y382677D03*
X382677Y386614D03*
X135386Y486932D03*
X127448D03*
X143294D03*
X158491Y400597D03*
X166530D03*
X174391D03*
X377559Y354331D03*
X471260Y502362D03*
X279528Y431102D03*
X257319Y512744D03*
X139764Y396850D03*
X129921Y564961D03*
X181890Y386614D03*
Y357087D03*
Y520472D03*
X269714Y387463D03*
X383858Y279134D03*
X323349Y369630D03*
X237008Y347638D03*
X239370Y438976D03*
X280692Y278583D03*
X215748Y347638D03*
X255906Y296457D03*
X249657Y388608D03*
X282583Y381613D03*
G54D59*
X228346Y436634D03*
Y421634D03*
X185178Y303371D03*
Y288371D03*
G54D101*
X337295Y288235D03*
Y279035D03*
X321458Y421050D03*
Y430250D03*
X266142Y422592D03*
Y413392D03*
X331890Y313537D03*
Y304337D03*
X164542Y299009D03*
X173742D03*
X205849Y295937D03*
Y286737D03*
X215807Y324494D03*
Y315294D03*
X238869Y305617D03*
Y296417D03*
X165546Y495020D03*
X174746D03*
X443217Y361091D03*
Y351891D03*
X415469Y311626D03*
Y302426D03*
X375530Y301761D03*
Y292561D03*
X196677Y305432D03*
X205877D03*
X442187Y379921D03*
X432987D03*
X432087Y351886D03*
Y361086D03*
X388976Y312329D03*
Y321529D03*
X173742Y309756D03*
X164542D03*
X226164Y315186D03*
Y324386D03*
X205854Y324488D03*
Y315288D03*
X173742Y288486D03*
X164542D03*
X216718Y305429D03*
Y296229D03*
X248819Y296581D03*
Y305781D03*
X228324Y305391D03*
Y296191D03*
X375752Y312683D03*
Y321883D03*
X450000Y502487D03*
Y511687D03*
X305754Y360236D03*
X314954D03*
G54D109*
X485400Y296063D02*
G75*
G03X487336Y297673I-0J1969D01*
G01X508477Y313699D02*
G03X487338Y297682I-1784J-19605D01*
G01X508483Y313698D02*
X508482D01*
X508483D02*
G03X510630Y315658I178J1960D01*
G01Y573622*
G03X508661Y575591I-1969J0*
G01X449208*
G03X446424Y574437I-0J-3937*
G01X417673Y545687*
X413869*
X385118Y574437*
G03X382334Y575591I-2784J-2783*
G01X366136*
Y571285*
X348112*
Y575591*
X237351*
G03X234567Y574437I-0J-3937*
G01X205816Y545687*
X202012*
X173261Y574437*
G03X170477Y575591I-2784J-2783*
G01X111024*
G03X109055Y573622I-0J-1969*
G01Y384646*
G03X111024Y382677I1969J-0*
G01X154331*
Y322646*
X133531*
Y318833*
X125528*
Y334646*
X123559Y336614*
X113319*
X111350Y334646*
Y314848*
X113319Y312879*
X133528*
Y308857*
X154331*
Y270472*
G03X156299Y268504I1968J0*
G01X445669*
G03X447517Y269793I0J1968*
G01X485197Y296063D02*
G03X447509Y269772I-0J-40157D01*
G01X485197Y296063D02*
X485400D01*
X125394Y553937D02*
G03X125394I-4528J0D01*
G01X123228Y565748D02*
G03X123228I-2362J0D01*
G01X503346Y561811D02*
G03X503346I-4527J0D01*
G01X489370D02*
G03X489370I-2362J0D01*
G01X275000Y292126D02*
G03X275000I-4528J0D01*
G01X272835Y280315D02*
G03X272835I-2363J0D01*
G01X127699Y539764D02*
X161811D01*
Y517717*
X127699*
Y539764*
X464173Y547955D02*
X488798D01*
Y532896*
X464173*
Y547955*
X196510Y477041D02*
X205583Y469360D01*
X195970Y458051*
X186919Y465717*
X196510Y477043*
X196531Y477025*
X196510Y477041*
X337690Y357948D02*
X346103Y350824D01*
X336578Y339443*
X328165Y346567*
X337690Y357948*
X361909Y488510D02*
X381890D01*
X381890D02*
Y422129D01*
X391908Y400746*
Y338976*
X396281*
Y400875*
X385869Y424456*
Y504331*
X381890*
Y492913*
X361909*
Y488510*
X273597Y342591D02*
X276555Y342740D01*
X277064Y335478*
X274109Y335329*
X273597Y342591*
G54D399*
X252362Y492913D03*
Y487913D03*
Y482913D03*
Y477913D03*
X228740D03*
Y482913D03*
Y487913D03*
Y492913D03*
G54D461*
X389356Y303949D03*
X383356D03*
X347457Y308022D03*
Y314022D03*
X312205Y419835D03*
Y425835D03*
X274803Y422291D03*
Y416291D03*
X306449Y351575D03*
X312449D03*
X331102Y327409D03*
Y321409D03*
X201923Y364421D03*
X195923D03*
X250150Y364567D03*
X256150D03*
X198150Y351550D03*
Y357550D03*
X236867Y333749D03*
X242867D03*
X230522D03*
X224522D03*
X248934Y327613D03*
Y333613D03*
X376269Y468537D03*
X370269D03*
X376269Y461450D03*
X370269D03*
X124845Y400007D03*
X130845D03*
X124845Y393978D03*
X130845D03*
X168833Y486518D03*
X174833D03*
X256150Y357874D03*
X250150D03*
X297488Y291732D03*
X291488D03*
X118521Y400068D03*
Y394068D03*
X304724Y419835D03*
Y425835D03*
X204591Y357386D03*
Y351386D03*
X200312Y507291D03*
Y513291D03*
X202234Y487193D03*
Y493193D03*
X260411Y464098D03*
X266411D03*
X262571Y536298D03*
X268571D03*
X235433Y465598D03*
Y459598D03*
X266173Y457885D03*
X260173D03*
X262545Y528934D03*
X268545D03*
X170798Y333743D03*
X164798D03*
X248934Y320567D03*
Y314567D03*
X332642Y404466D03*
Y410466D03*
X332576Y416684D03*
Y422684D03*
X352756Y423079D03*
Y417079D03*
X376269Y447277D03*
X370269D03*
Y454364D03*
X376269D03*
X348003Y396906D03*
Y402906D03*
X362849Y394088D03*
X356849D03*
X365346Y423202D03*
X371346D03*
X371810Y394088D03*
X377810D03*
X352118Y382677D03*
X358118D03*
X359129Y356425D03*
X365129D03*
X298819Y334795D03*
Y340795D03*
X377865Y369151D03*
X383865D03*
X359129D03*
X365129D03*
Y375444D03*
X359129D03*
X309581Y398437D03*
Y404437D03*
X377865Y362699D03*
X383865D03*
X359129D03*
X365129D03*
X317825Y397020D03*
X323825D03*
X325839Y276680D03*
X319839D03*
X291957Y276314D03*
Y282314D03*
X311811Y285583D03*
Y291583D03*
X213142Y477953D03*
X219142D03*
X213142Y470079D03*
X219142D03*
G54D464*
X359007Y448965D03*
Y467075D03*
G54D465*
X343206Y410629D03*
Y426377D03*
X408995Y329720D03*
Y345469D03*
X476100Y311734D03*
Y327482D03*
G54D466*
X267454Y470438D03*
X259580D03*
X367668Y320619D03*
Y328493D03*
X257130Y422601D03*
Y414727D03*
X266210Y395999D03*
Y403873D03*
G54D467*
X278346Y355748D03*
Y362362D03*
X271260Y355748D03*
Y362362D03*
X193399Y408356D03*
Y414970D03*
X246850Y439606D03*
Y446220D03*
X290697Y381392D03*
Y388007D03*
X220472Y438819D03*
Y445433D03*
G54D470*
X194022Y493088D03*
Y485608D03*
X185922Y489348D03*
X251662Y466180D03*
Y458700D03*
X243562Y462440D03*
X369448Y439960D03*
Y432480D03*
X361348Y436220D03*
X124302Y507085D03*
Y499605D03*
X116202Y503345D03*
X434489Y496654D03*
Y504134D03*
X442589Y500394D03*
X320316Y284449D03*
Y291929D03*
X328416Y288189D03*
X299905Y275192D03*
Y282672D03*
X308005Y278932D03*
G54D473*
X193520Y508099D03*
X186040D03*
X189780Y516199D03*
X337599Y328897D03*
X345079D03*
X341339Y320797D03*
X163983Y326154D03*
X171463D03*
X167723Y318054D03*
X363589Y403380D03*
X356109D03*
X359849Y411480D03*
X344291Y382520D03*
X336811D03*
X340551Y390620D03*
X379625Y403463D03*
X372145D03*
X375885Y411563D03*
X353684Y328771D03*
X361164D03*
X357424Y320671D03*
X261892Y438032D03*
X254412D03*
X258152Y446132D03*
X353681Y346434D03*
X361161D03*
X357421Y338334D03*
X209264Y407271D03*
X201784D03*
X205524Y415371D03*
X324441Y404368D03*
X316961D03*
X320701Y412468D03*
G54D474*
X202655Y400003D03*
X209269D03*
X256142Y430315D03*
X262756D03*
X192501Y500365D03*
X185887D03*
G54D475*
X191224Y358068D03*
Y351375D03*
X239370Y432480D03*
Y425787D03*
G54D477*
X452967Y368913D03*
X457967D03*
X467967D03*
Y345291D03*
X462967D03*
X457967D03*
X452967D03*
G54D478*
X119587Y478308D03*
X127461D03*
X135335D03*
X143209D03*
X151083D03*
X158957D03*
X166831D03*
X174705D03*
X174311Y407836D03*
X166437D03*
X158563D03*
X150689D03*
X126437D03*
X118563D03*
G54D480*
X286012Y417354D03*
Y419913D03*
Y422472D03*
X294673D03*
Y419913D03*
Y417354D03*
G54D481*
X238108Y389581D03*
Y387081D03*
Y384581D03*
Y382081D03*
Y379581D03*
Y377081D03*
Y374581D03*
Y372081D03*
Y369581D03*
Y367081D03*
Y364581D03*
Y362081D03*
Y359581D03*
Y357081D03*
X214092D03*
Y359581D03*
Y362081D03*
Y364581D03*
Y367081D03*
Y369581D03*
Y372081D03*
Y374581D03*
Y377081D03*
Y379581D03*
Y382081D03*
Y384581D03*
Y387081D03*
Y389581D03*
G54D483*
X242764Y314068D03*
X239024D03*
X235283D03*
Y325092D03*
X242764D03*
X307087Y343307D03*
X310827D03*
X314567D03*
Y332283D03*
X307087D03*
G54D551*
X296608Y406159D03*
X284403D03*
G54D555*
X319007Y389252D03*
X300896D03*
X319007Y380197D03*
X300896D03*
G54D570*
X320472Y314567D03*
X300787D03*
G54D577*
X438976Y522179D03*
Y511679D03*
G54D582*
X121949Y528895D03*
G54D583*
X135316Y508502D03*
Y497722D03*
X148331Y508502D03*
Y497722D03*
G54D584*
X348103Y299188D03*
X357203D03*
X366303D03*
G54D585*
X357203Y274188D03*
G74*
X0Y0D02*
M02*
