*
*
G04 PADS VX.2.4 Build Number: 11282995 generated Gerber (RS-274-X) file*
G04 PC Version=2.1*
*
%IN "XP02-Ö÷°å-210422-1(1).p"*%
*
%MOIN*%
*
%FSLAX35Y35*%
*
*
*
*
G04 PC Standard Apertures*
*
*
G04 Thermal Relief Aperture macro.*
%AMTER*
1,1,$1,0,0*
1,0,$1-$2,0,0*
21,0,$3,$4,0,0,45*
21,0,$3,$4,0,0,135*
%
*
*
G04 Annular Aperture macro.*
%AMANN*
1,1,$1,0,0*
1,0,$2,0,0*
%
*
*
G04 Odd Aperture macro.*
%AMODD*
1,1,$1,0,0*
1,0,$1-0.005,0,0*
%
*
*
G04 PC Custom Aperture Macros*
*
*
*
*
*
*
G04 PC Aperture Table*
*
%ADD010C,0.006*%
%ADD012C,0.005*%
%ADD013C,0.01*%
%ADD015C,0.01181*%
%ADD017C,0.00787*%
%ADD018C,0.008*%
%ADD020C,0.00787*%
%ADD022C,0.004*%
%ADD109C,0.001*%
%ADD110C,0.012*%
%ADD151C,0.00039*%
%ADD440C,0.01575*%
%ADD487C,0.00591*%
%ADD488C,0.0059*%
%ADD491C,0.0005*%
%ADD492C,0.00606*%
*
*
*
*
G04 PC Circuitry*
G04 Layer Name XP02-Ö÷°å-210422-1(1).p - circuitry*
%LPD*%
*
G54D109*
G01X485934Y551569D02*
X485760Y551656D01*
X485734Y551689*
X485675Y551925*
X485674Y551929*
X485615Y552283*
X485614Y552291*
Y552655*
X485592*
X485537Y551874*
X485534Y551862*
X485416Y551508*
X485385Y551476*
X485207Y551417*
X485192Y551415*
X482121*
X482109Y551416*
X481872Y551475*
X481838Y551505*
X481720Y551800*
X481716Y551819*
Y553118*
X481766Y553168*
X484719*
X484769Y553118*
Y552897*
X484964Y552975*
Y554299*
X484979Y554335*
X485118Y554473*
X484846Y554700*
X484700Y554505*
X484660Y554485*
X483361*
X483311Y554535*
X483323Y554568*
X483677Y554981*
X483680Y554984*
X483975Y555279*
X483980Y555284*
X483980D02*
X484217Y555461D01*
X484235Y555470*
X484391Y555509*
X484071Y555875*
X483872Y555626*
X483833Y555607*
X482534*
X482484Y555657*
X482495Y555689*
X482731Y555984*
X482755Y556000*
X482841Y556029*
X482490Y556292*
X482105Y555632*
X482104Y555631*
X481690Y554981*
X481685Y554974*
X481154Y554384*
X481152Y554382*
X480771Y554001*
X481441Y554516*
X481521Y554476*
Y551480*
X481623Y551326*
X481725Y551276*
X481950Y551219*
X485303*
X485697Y551332*
X485934Y551569*
X484769Y554417D02*
Y553236D01*
X484719Y553186*
X483420*
X483370Y553236*
Y554417*
X483420Y554467*
X484719*
X484769Y554417*
X483175D02*
Y553236D01*
X483125Y553186*
X481766*
X481716Y553236*
Y554417*
X481766Y554467*
X483125*
X483175Y554417*
X483876Y555514D02*
X483286Y554510D01*
X483243Y554485*
X481825*
X481790Y554500*
X481672Y554618*
X481669Y554686*
X482024Y555100*
X482437Y555572*
X482475Y555589*
X483833*
X483876Y555514*
X479645Y551462D02*
X479598Y551556D01*
X479428Y551783*
X479198Y551956*
X478819Y552226*
X478819*
X479151Y551729*
X479152Y551726*
X479389Y551312*
X479393Y551303*
X479448Y551137*
X479484Y551101*
X479491*
X479536Y551190*
X479645Y551462*
X478286Y551467D02*
X478180Y551732D01*
X478012Y551900*
X477695Y552165*
X477692Y552162*
X477856Y551780*
X477858Y551774*
X477976Y551361*
X478028Y551205*
X478095Y551171*
X478182Y551258*
X478286Y551467*
X477051Y551456D02*
X476997Y551618D01*
X476827Y551845*
X476544Y552128*
X476675Y551777*
X476677Y551774*
X476795Y551360*
X476797Y551346*
Y551190*
X476865Y551122*
X476942Y551199*
X477051Y551417*
Y551456*
X475811Y552241D02*
X475780D01*
X475673Y551864*
X475669Y551856*
X475551Y551619*
X475545Y551610*
X475250Y551255*
X475247Y551252*
X475223Y551228*
X475291Y551160*
X475545*
X475702Y551317*
X475752Y551417*
Y551583*
X475753Y551592*
X475811Y551883*
Y552241*
X479824Y552519D02*
X479464Y552924D01*
X479147Y552554*
X479109Y552537*
X477573*
X477523Y552587*
Y553177*
X477573Y553227*
X479330*
X478993Y553522*
X478731Y553260*
X478696Y553245*
X477573*
X477523Y553295*
Y554063*
X477573Y554113*
X478991*
X479041Y554063*
Y553908*
X479295Y554035*
Y554650*
X479237Y555060*
X479236Y555067*
Y555539*
X479256Y555579*
X479446Y555722*
X479173Y555995*
X479031Y555805*
X478991Y555785*
X475920*
X475898Y555790*
X475616Y555931*
Y553849*
X475870Y553976*
Y554063*
X475920Y554113*
X477278*
X477328Y554063*
Y553295*
X477278Y553245*
X475420*
X475521Y553170*
X476033Y553227*
X476038*
X477278*
X477328Y553177*
Y552587*
X477278Y552537*
X474978*
X475053Y552462*
X475620Y552518*
X475625Y552519*
X479824*
X479041Y555717D02*
Y554181D01*
X478991Y554131*
X477573*
X477523Y554181*
Y555717*
X477573Y555767*
X478991*
X479041Y555717*
X477328D02*
Y554181D01*
X477278Y554131*
X475920*
X475870Y554181*
Y555717*
X475920Y555767*
X477278*
X477328Y555717*
X459959Y551971D02*
X459785Y552058D01*
X459759Y552090*
X459700Y552326*
X459699Y552330*
X459640Y552685*
X459639Y552693*
Y553056*
X459617*
X459562Y552276*
X459559Y552264*
X459441Y551909*
X459410Y551878*
X459232Y551819*
X459217Y551816*
X456146*
X456134Y551818*
X455897Y551877*
X455863Y551907*
X455745Y552202*
X455741Y552220*
Y553520*
X455791Y553570*
X458744*
X458794Y553520*
Y553298*
X458989Y553376*
Y554701*
X459004Y554736*
X459142Y554875*
X458871Y555101*
X458725Y554907*
X458685Y554887*
X457386*
X457336Y554937*
X457348Y554970*
X457702Y555383*
X457705Y555386*
X458000Y555681*
X458005Y555686*
X458242Y555863*
X458260Y555871*
X458416Y555911*
X458096Y556276*
X457897Y556028*
X457858Y556009*
X456559*
X456509Y556059*
X456520Y556090*
X456756Y556386*
X456779Y556402*
X456866Y556431*
X456515Y556694*
X456130Y556034*
X456129Y556032*
X455715Y555383*
X455710Y555376*
X455179Y554785*
X455177Y554784*
X454796Y554403*
X455466Y554918*
X455546Y554878*
Y551881*
X455648Y551728*
X455750Y551677*
X455975Y551621*
X459328*
X459722Y551733*
X459959Y551971*
X458794Y554819D02*
Y553638D01*
X458744Y553588*
X457445*
X457395Y553638*
Y554819*
X457445Y554869*
X458744*
X458794Y554819*
X457200D02*
Y553638D01*
X457150Y553588*
X455791*
X455741Y553638*
Y554819*
X455791Y554869*
X457150*
X457200Y554819*
X457901Y555916D02*
X457311Y554912D01*
X457268Y554887*
X455850*
X455815Y554902*
X455697Y555020*
X455694Y555088*
X456049Y555501*
X456462Y555974*
X456500Y555991*
X457858*
X457901Y555916*
X453969Y551857D02*
X453663Y552206D01*
X453346Y551890*
X453311Y551875*
X452484*
X452434Y551925*
Y555528*
X452484Y555578*
X453781*
X453429Y555929*
X453110Y555610*
X453075Y555596*
X451040*
X451140Y555520*
X451652Y555577*
X451657Y555578*
X452130*
X452180Y555528*
Y551925*
X452130Y551875*
X450656*
X450731Y551800*
X451298Y551857*
X451303*
X453969*
X450854Y552487D02*
X450371Y552349D01*
X449722Y552172*
X449721*
X449248Y552054*
X449246Y552053*
X449027Y552009*
X449243Y551707*
X449319Y551783*
X449335Y551794*
X449747Y551971*
X450336Y552265*
X450339Y552266*
X450854Y552487*
X451095Y555184D02*
X450788Y555448D01*
X450580Y555033*
X450579Y555030*
X450343Y554617*
X450302Y554592*
X449239Y554533*
X449186Y554583*
X449196Y554613*
X449726Y555319*
X450256Y556203*
X450271Y556219*
X450388Y556297*
X450087Y556512*
X449874Y555924*
X449871Y555917*
X449516Y555267*
X449515Y555266*
X449338Y554970*
X449335Y554966*
X449158Y554730*
X449153Y554724*
X448976Y554547*
X448941Y554533*
X448920*
X449124Y554246*
X449201Y554323*
X449224Y554336*
X449458Y554394*
X449458D02*
X449811Y554512D01*
X449820Y554514*
X450233Y554573*
X450290Y554524*
X450279Y554492*
X449984Y554138*
X449748Y553843*
X449571Y553608*
X449567Y553602*
X449213Y553248*
X449205Y553242*
X449067Y553150*
X449254Y552821*
X449506Y552972*
X449512Y552975*
X449925Y553152*
X449929Y553154*
X450461Y553331*
X450462*
X451017Y553498*
Y553517*
X449364Y553175*
X449304Y553224*
X449322Y553263*
X449673Y553555*
X450024Y553965*
X450437Y554496*
X450910Y555086*
X450926Y555100*
X451095Y555184*
X443316Y271558D02*
X443257Y272026D01*
X443024Y272376*
X442736Y272664*
X442335Y272721*
X441931Y272663*
X441701Y272491*
X441461Y272251*
X441376Y272286*
Y272290*
X441497Y273867*
X441547Y273913*
X443202*
X443246Y274177*
X441412*
X441296Y272143*
X441460Y272102*
X441563Y272309*
X441585Y272331*
X441828Y272452*
X441836Y272456*
X442261Y272577*
X442284Y272578*
X442587Y272517*
X442613Y272504*
X442856Y272261*
X442867Y272244*
X442988Y271941*
X442991Y271930*
X443052Y271505*
Y271498*
X443052*
Y271492*
X442991Y271007*
X442989Y270997*
X442868Y270634*
X442851Y270610*
X442548Y270368*
X442527Y270358*
X442224Y270297*
X442208*
X442208D02*
X441663Y270357D01*
X441633Y270371*
X441512Y270493*
X441500Y270512*
X441439Y270694*
X441436Y270710*
X441439Y270726*
X441499Y270906*
X441555Y271129*
X441508Y271221*
X441361Y271319*
X441361D02*
X441166Y271221D01*
X441166D02*
X441113Y271012D01*
X441169Y270735*
X441457Y270447*
X441746Y270273*
X442154Y270215*
X442678Y270273*
X443024Y270561*
X443257Y270968*
X443316Y271558*
X440406Y272358D02*
X437899D01*
Y272215*
X440406*
Y272358*
X437253Y271558D02*
X437194Y272026D01*
X436961Y272376*
X436673Y272664*
X436272Y272721*
X435868Y272663*
X435638Y272491*
X435398Y272251*
X435313Y272286*
Y272290*
X435434Y273867*
X435484Y273913*
X437139*
X437183Y274177*
X435349*
X435233Y272143*
X435397Y272102*
X435500Y272309*
X435522Y272331*
X435765Y272452*
X435773Y272456*
X436198Y272577*
X436221Y272578*
X436525Y272517*
X436550Y272504*
X436793Y272261*
X436804Y272244*
X436925Y271941*
X436928Y271930*
X436989Y271505*
Y271498*
X436989*
Y271492*
X436928Y271007*
X436926Y270997*
X436805Y270634*
X436788Y270610*
X436485Y270368*
X436464Y270358*
X436161Y270297*
X436145*
X436145D02*
X435600Y270357D01*
X435570Y270371*
X435449Y270493*
X435437Y270512*
X435376Y270694*
X435373Y270710*
X435376Y270726*
X435436Y270906*
X435492Y271129*
X435445Y271221*
X435299Y271319*
X435103Y271221*
X435050Y271012*
X435106Y270735*
X435394Y270447*
X435683Y270273*
X436091Y270215*
X436615Y270273*
X436961Y270561*
X437194Y270968*
X437253Y271558*
X434343Y272358D02*
X431836D01*
Y272215*
X434343*
Y272358*
X431184Y271145D02*
X431152D01*
X431044Y270875*
X430984Y270694*
X430964Y270668*
X430783Y270547*
X430771Y270541*
X430589Y270481*
X430573Y270478*
X429118*
X429068Y270528*
X429082Y270563*
X429263Y270744*
X429564Y271106*
X429565Y271107*
X429990Y271592*
X429992Y271594*
X430836Y272439*
X431013Y272733*
X431129Y273024*
Y273253*
X431071Y273664*
X430900Y273949*
X430555Y274178*
X430088Y274237*
X429679Y274178*
X429334Y274006*
X429103Y273660*
X428986Y273249*
Y273086*
X429031Y272996*
X429237Y272945*
X429381Y272993*
X429429Y273135*
X429375Y273298*
X429255Y273537*
X429250Y273560*
X429252Y273575*
X429313Y273757*
X429325Y273777*
X429507Y273959*
X429515Y273965*
X429696Y274086*
X429714Y274094*
X430017Y274154*
X430036Y274155*
X430399Y274094*
X430421Y274085*
X430664Y273903*
X430678Y273885*
X430800Y273643*
X430804Y273628*
X430865Y273265*
Y273256*
X430865*
Y273248*
X430804Y272884*
X430801Y272874*
X430680Y272571*
X430675Y272562*
X430433Y272198*
X430426Y272190*
X429640Y271404*
X429338Y271042*
X429097Y270740*
X428925Y270511*
Y270214*
X431074*
X431184Y271145*
X428152D02*
X428121D01*
X428013Y270875*
X427953Y270694*
X427933Y270668*
X427751Y270547*
X427739Y270541*
X427557Y270481*
X427541Y270478*
X426086*
X426036Y270528*
X426051Y270563*
X426231Y270744*
X426533Y271106*
X426534Y271107*
X426958Y271592*
X426960Y271594*
X427805Y272439*
X427982Y272733*
X428098Y273024*
Y273253*
X428039Y273664*
X427868Y273949*
X427524Y274178*
X427057Y274237*
X426647Y274178*
X426302Y274006*
X426072Y273660*
X425954Y273249*
Y273086*
X426000Y272996*
X426206Y272945*
X426350Y272993*
X426397Y273135*
X426343Y273298*
X426224Y273537*
X426218Y273560*
X426221Y273575*
X426281Y273757*
X426294Y273777*
X426475Y273959*
X426483Y273965*
X426665Y274086*
X426683Y274094*
X426986Y274154*
X427004Y274155*
X427368Y274094*
X427390Y274085*
X427632Y273903*
X427647Y273885*
X427768Y273643*
X427773Y273628*
X427833Y273265*
X427834Y273256*
X427834*
X427833Y273248*
X427773Y272884*
X427770Y272874*
X427649Y272571*
X427644Y272562*
X427401Y272198*
X427395Y272190*
X426608Y271404*
X426307Y271042*
X426065Y270740*
X425894Y270511*
Y270214*
X428043*
X428152Y271145*
X425187Y272226D02*
X425128Y273062D01*
X424830Y273716*
X424654Y273951*
X424484Y274121*
X424025Y274236*
X423565Y274121*
X423396Y273951*
X423219Y273716*
X422922Y273062*
X422862Y272226*
X422922Y271389*
X423219Y270736*
X423396Y270500*
X423570Y270327*
X423794Y270214*
X424256*
X424480Y270327*
X424654Y270500*
X424830Y270736*
X425128Y271389*
X425187Y272226*
X424863D02*
X424863D01*
Y272222*
X424802Y271434*
Y271428*
X424680Y270821*
X424676Y270809*
X424555Y270566*
X424545Y270553*
X424424Y270432*
X424416Y270426*
X424235Y270305*
X424207Y270296*
X423904*
X423876Y270305*
X423694Y270426*
X423686Y270432*
X423565Y270553*
X423556Y270566*
X423435Y270809*
X423431Y270817*
X423249Y271423*
X423248Y271434*
X423187Y272222*
Y272226*
X423187*
Y272230*
X423248Y273018*
X423249Y273028*
X423431Y273635*
X423438Y273648*
X423680Y274012*
X423706Y274031*
X423884Y274091*
X424003Y274150*
X424041Y274153*
X424405Y274031*
X424430Y274012*
X424673Y273648*
X424680Y273630*
X424802Y273024*
Y273018*
X424863Y272230*
Y272226*
X422089Y271145D02*
X422058D01*
X421950Y270875*
X421890Y270694*
X421870Y270668*
X421688Y270547*
X421676Y270541*
X421494Y270481*
X421478Y270478*
X420023*
X419973Y270528*
X419988Y270563*
X420168Y270744*
X420470Y271106*
X420471Y271107*
X420895Y271592*
X420897Y271594*
X421742Y272439*
X421919Y272733*
X422035Y273024*
Y273253*
X421976Y273664*
X421805Y273949*
X421461Y274178*
X420994Y274237*
X420584Y274178*
X420239Y274006*
X420009Y273660*
X419891Y273249*
Y273086*
X419937Y272996*
X420143Y272945*
X420287Y272993*
X420334Y273135*
X420280Y273298*
X420161Y273537*
X420155Y273560*
X420158Y273575*
X420218Y273757*
X420231Y273777*
X420412Y273959*
X420420Y273965*
X420602Y274086*
X420620Y274094*
X420923Y274154*
X420941Y274155*
X421305Y274094*
X421327Y274085*
X421569Y273903*
X421584Y273885*
X421705Y273643*
X421710Y273628*
X421770Y273265*
X421771Y273256*
X421771*
X421770Y273248*
X421710Y272884*
X421707Y272874*
X421586Y272571*
X421581Y272562*
X421338Y272198*
X421332Y272190*
X420545Y271404*
X420244Y271042*
X420002Y270740*
X419831Y270511*
Y270214*
X421980*
X422089Y271145*
X413183Y274177D02*
X412434D01*
Y274155*
X412566*
X412601Y274141*
X412662Y274080*
X412671Y274067*
X412732Y273946*
X412737Y273923*
X412735Y273908*
X412675Y273728*
X412008Y271001*
X411960Y270963*
X411899*
X411850Y271002*
X411183Y273851*
X411182Y273863*
X411185Y273879*
X411245Y274060*
X411270Y274089*
X411392Y274150*
X411414Y274155*
X411485*
Y274177*
X410554*
Y274155*
X410626*
X410642Y274153*
X410823Y274092*
X410857Y274054*
X410917Y273752*
X411757Y270214*
X411860*
X412760Y273754*
X412766Y273767*
X412947Y274070*
X412968Y274089*
X413089Y274150*
X413112Y274155*
X413183*
Y274177*
X410030Y271558D02*
X409971Y271970D01*
X409797Y272374*
X409453Y272604*
X408989Y272720*
X408762Y272663*
X408471Y272547*
X408299Y272375*
X408119Y272135*
X408029Y272165*
Y272711*
X408030Y272718*
X408090Y273142*
X408092Y273151*
X408214Y273515*
X408216Y273521*
X408338Y273764*
X408351Y273781*
X408654Y274023*
X408672Y274032*
X409096Y274153*
X409110Y274155*
X409231*
X409254Y274150*
X409375Y274089*
X409397Y274067*
X409458Y273946*
X409463Y273923*
Y273750*
X409513Y273599*
X409656Y273552*
X409796Y273598*
X409845Y273796*
X409794Y273898*
X409682Y274066*
X409457Y274179*
X409170Y274236*
X408817Y274178*
X408584Y274119*
X408298Y273948*
X407943Y273357*
X407824Y273000*
X407705Y272523*
Y272046*
X407765Y271267*
X408001Y270677*
X408232Y270446*
X408408Y270329*
X408637Y270214*
X408925*
X409331Y270272*
X409679Y270562*
X409971Y270971*
X410030Y271558*
X409766Y271559D02*
X409766D01*
Y271554*
X409705Y270948*
X409703Y270937*
X409582Y270573*
X409564Y270549*
X409322Y270367*
X409302Y270358*
X408999Y270297*
X408980*
X408617Y270358*
X408590Y270371*
X408286Y270675*
X408275Y270692*
X408093Y271177*
X408090Y271190*
X408030Y271796*
X408029Y271801*
X408035Y271824*
X408216Y272187*
X408231Y272205*
X408474Y272387*
X408481Y272392*
X408724Y272513*
X408734Y272517*
X408977Y272577*
X408999Y272578*
X409302Y272517*
X409322Y272508*
X409564Y272326*
X409581Y272305*
X409702Y272002*
X409705Y271990*
X409766Y271566*
Y271559*
X405422Y270629D02*
X405321Y270730D01*
X405108Y270836*
X404903Y270733*
X404801Y270528*
X404903Y270323*
X405108Y270220*
X405422Y270377*
Y270629*
X403967Y272226D02*
X403907Y273062D01*
X403610Y273716*
X403434Y273951*
X403264Y274121*
X402804Y274236*
X402345Y274121*
X402175Y273951*
X401999Y273716*
X401702Y273062*
X401642Y272226*
X401702Y271389*
X401999Y270736*
X402175Y270500*
X402349Y270327*
X402574Y270214*
X403035*
X403260Y270327*
X403434Y270500*
X403610Y270736*
X403907Y271389*
X403967Y272226*
X403643D02*
X403643D01*
Y272222*
X403582Y271434*
X403581Y271428*
X403460Y270821*
X403455Y270809*
X403334Y270566*
X403325Y270553*
X403204Y270432*
X403196Y270426*
X403014Y270305*
X402986Y270296*
X402683*
X402655Y270305*
X402474Y270426*
X402466Y270432*
X402345Y270553*
X402335Y270566*
X402214Y270809*
X402211Y270817*
X402029Y271423*
X402027Y271434*
X401966Y272222*
Y272226*
X401966*
Y272230*
X402027Y273018*
X402029Y273028*
X402211Y273635*
X402217Y273648*
X402460Y274012*
X402486Y274031*
X402486D02*
X402664Y274091D01*
X402782Y274150*
X402820Y274153*
X403184Y274031*
X403210Y274012*
X403452Y273648*
X403460Y273630*
X403581Y273024*
X403582Y273018*
X403643Y272230*
Y272226*
X400928Y269892D02*
X400117Y270240D01*
X400101Y270250*
X399738Y270614*
X399735Y270617*
X399431Y270981*
X399420Y271013*
X399425Y271035*
X399607Y271399*
X399608Y271402*
X399848Y271822*
X400029Y272363*
X400030Y272366*
X400272Y272972*
X400296Y272998*
X400477Y273088*
X400197Y273368*
X399990Y273160*
X399955Y273146*
X398257*
X398207Y273196*
Y274105*
X398245Y274154*
X398730Y274275*
X398735Y274276*
X399159Y274337*
X399520Y274397*
X399761Y274457*
X399766Y274458*
X400190Y274519*
X400197*
X400392*
X400123Y274833*
X399611Y274605*
X399607Y274603*
X399426Y274543*
X399125Y274423*
X399122Y274422*
X398758Y274300*
X398754Y274299*
X398269Y274178*
X398235Y274182*
X397943Y274327*
X397943D02*
Y272711D01*
Y272707*
X397883Y271858*
X397882Y271854*
X397761Y271067*
X397700Y270642*
X397696Y270627*
X397514Y270263*
X397507Y270254*
X396942Y269574*
X396974Y269558*
X397489Y270073*
X397788Y270611*
X398026Y271147*
X398086Y271806*
X398207Y273079*
X398257Y273125*
X398500*
X398549Y273085*
X398790Y271997*
X399153Y271031*
X399156Y271013*
X399144Y270981*
X398780Y270556*
X398775Y270551*
X398350Y270187*
X398343Y270182*
X397492Y269681*
X398355Y270087*
X398831Y270385*
X399189Y270803*
X399268Y270800*
X399569Y270379*
X399867Y270080*
X400226Y269781*
X400493Y269621*
X400647Y269775*
X400664Y269786*
X400928Y269892*
X400005Y273075D02*
X400003Y273060D01*
X399699Y272090*
X399697Y272084*
X399333Y271295*
X399244Y271293*
X398819Y272081*
X398815Y272092*
X398572Y273062*
X398571Y273075*
X398621Y273125*
X399955*
X400005Y273075*
X397603Y273488D02*
X397345Y273789D01*
X397080Y273524*
X397045Y273510*
X396802*
X396752Y273560*
Y274530*
X396767Y274565*
X396902Y274700*
X396488Y274930*
Y273560*
X396438Y273510*
X395589*
X395665Y273433*
X395881Y273487*
X395893Y273488*
X396438*
X396488Y273438*
X396488*
X396486Y273424*
X396062Y272029*
X396060Y272023*
X395547Y270885*
X396031Y271583*
X396392Y272427*
X396488Y272408*
Y269518*
X396752Y269650*
Y272650*
X396841Y272682*
X397144Y272318*
X397150Y272309*
X397332Y271945*
X397335Y271938*
X397391Y271768*
X397408Y271751*
X397484Y271826*
X397538Y272097*
X397430Y272314*
X397197Y272488*
X396773Y272791*
X396752Y272832*
Y273438*
X396802Y273488*
X397603*
X394802Y269911D02*
X394380Y270333D01*
X394051Y269950*
X394013Y269932*
X392376*
X392326Y269982*
Y271741*
X392376Y271791*
X394135*
X393774Y272152*
X393506Y271830*
X393467Y271812*
X392376*
X392326Y271862*
Y273438*
X392376Y273488*
X394549*
X394140Y273852*
X393870Y273528*
X393831Y273510*
X389950*
X390030Y273430*
X390552Y273488*
X390557*
X392012*
X392062Y273438*
Y271862*
X392012Y271812*
X390293*
X390396Y271675*
X390972Y271790*
X390982Y271791*
X392012*
X392062Y271741*
Y269982*
X392012Y269932*
X389587*
X389666Y269853*
X390249Y269911*
X390254*
X394802*
X392447Y274260D02*
X392288Y274367D01*
X392284Y274369*
X391984Y274609*
X391574Y274838*
X391931Y274378*
X391937Y274367*
X392117Y273947*
X392233Y273773*
X392255Y273752*
X392392Y273888*
X392447Y274111*
Y274260*
X388870Y272358D02*
X386363D01*
Y272215*
X388870*
Y272358*
X385711Y271145D02*
X385680D01*
X385572Y270875*
X385512Y270694*
X385492Y270668*
X385310Y270547*
X385298Y270541*
X385116Y270481*
X385101Y270478*
X383645*
X383595Y270528*
X383610Y270563*
X383790Y270744*
X384092Y271106*
X384093Y271107*
X384517Y271592*
X384520Y271594*
X384520D02*
X385364Y272439D01*
X385541Y272733*
X385657Y273024*
Y273253*
X385598Y273664*
X385427Y273949*
X385083Y274178*
X384616Y274237*
X384206Y274178*
X383862Y274006*
X383631Y273660*
X383514Y273249*
Y273086*
X383559Y272996*
X383765Y272945*
X383909Y272993*
X383956Y273135*
X383902Y273298*
X383783Y273537*
X383777Y273560*
X383780Y273575*
X383840Y273757*
X383853Y273777*
X384034Y273959*
X384042Y273965*
X384224Y274086*
X384242Y274094*
X384545Y274154*
X384563Y274155*
X384927Y274094*
X384949Y274085*
X385191Y273903*
X385206Y273885*
X385327Y273643*
X385332Y273628*
X385392Y273265*
X385393Y273256*
X385393*
X385392Y273248*
X385332Y272884*
X385329Y272874*
X385208Y272571*
X385203Y272562*
X384960Y272198*
X384954Y272190*
X384167Y271404*
X383866Y271042*
X383624Y270740*
X383453Y270511*
Y270214*
X385602*
X385711Y271145*
X382746Y272226D02*
X382687Y273062D01*
X382390Y273716*
X382213Y273951*
X382043Y274121*
X381584Y274236*
X381125Y274121*
X380955Y273951*
X380778Y273716*
X380481Y273062*
X380422Y272226*
X380481Y271389*
X380778Y270736*
X380955Y270500*
X381129Y270327*
X381353Y270214*
X381815*
X382039Y270327*
X382213Y270500*
X382390Y270736*
X382687Y271389*
X382746Y272226*
X382422D02*
X382422D01*
Y272222*
X382361Y271434*
Y271428*
X382239Y270821*
X382235Y270809*
X382114Y270566*
X382104Y270553*
X381983Y270432*
X381976Y270426*
X381794Y270305*
X381766Y270296*
X381463*
X381435Y270305*
X381253Y270426*
X381245Y270432*
X381124Y270553*
X381115Y270566*
X380994Y270809*
X380990Y270817*
X380809Y271423*
X380807Y271434*
X380746Y272222*
Y272226*
X380746*
Y272230*
X380807Y273018*
X380809Y273028*
X380990Y273635*
X380997Y273648*
X381239Y274012*
X381265Y274031*
X381444Y274091*
X381562Y274150*
X381600Y274153*
X381964Y274031*
X381989Y274012*
X382232Y273648*
X382239Y273630*
X382361Y273024*
Y273018*
X382422Y272230*
Y272226*
X379775Y273195D02*
X379718Y273600D01*
X379488Y273886*
X379141Y274118*
X378610Y274177*
X377269*
Y274155*
X377340*
X377356Y274153*
X377538Y274092*
X377567Y274067*
X377627Y273946*
X377632Y273923*
Y270467*
X377627Y270445*
X377567Y270324*
X377538Y270299*
X377356Y270238*
X377340Y270236*
X377269*
Y270214*
X378260*
Y270236*
X378189*
X378173Y270238*
X377991Y270299*
X377962Y270324*
X377901Y270445*
X377896Y270467*
Y272104*
X377946Y272154*
X378670*
X379080Y272213*
X379430Y272446*
X379718Y272734*
X379775Y273195*
X379512Y273196D02*
X379512D01*
Y273190*
X379451Y272705*
X379440Y272680*
X379198Y272376*
X379181Y272363*
X378939Y272242*
X378924Y272237*
X378561Y272176*
X378552*
X377946*
X377896Y272226*
Y273923*
X377901Y273946*
X377962Y274067*
X377991Y274092*
X378173Y274153*
X378189Y274155*
X378492*
X378499*
X378923Y274094*
X378942Y274087*
X379245Y273906*
X379262Y273888*
X379444Y273585*
X379451Y273568*
X379511Y273204*
X379512Y273196*
X376865Y270236D02*
X376855D01*
X376839Y270238*
X376657Y270299*
X376638Y270311*
X376456Y270493*
X376445Y270508*
X375657Y272327*
Y272368*
X376385Y273944*
X376395Y273959*
X376516Y274080*
X376529Y274089*
X376651Y274150*
X376673Y274155*
X376744*
Y274177*
X375935*
Y274155*
X376127*
X376163Y274141*
X376223Y274080*
X376238Y274045*
X376237Y274035*
X376176Y273732*
X376173Y273721*
X375627Y272508*
X375536Y272509*
X374990Y273782*
X374987Y273790*
X374927Y274032*
X374925Y274045*
X374940Y274080*
X375001Y274141*
X375036Y274155*
X375168*
Y274177*
X374298*
Y274155*
X374369*
X374391Y274150*
X374513Y274089*
X374526Y274080*
X374647Y273959*
X374657Y273943*
X375446Y272124*
X375450Y272104*
X375444Y272082*
X374656Y270506*
X374653Y270500*
X374532Y270318*
X374506Y270299*
X374324Y270238*
X374308Y270236*
X374237*
Y270214*
X375047*
Y270236*
X375036*
X375014Y270241*
X374892Y270301*
X374870Y270324*
X374809Y270445*
X374804Y270467*
Y270589*
X374812Y270616*
X374932Y270795*
X375476Y271944*
X375567Y271943*
X376173Y270548*
X376177Y270528*
Y270346*
X376150Y270301*
X376028Y270241*
X376006Y270236*
X375935*
Y270214*
X376865*
Y270236*
X170518Y549536D02*
X170344Y549623D01*
X170318Y549656*
X170259Y549892*
X170258Y549896*
X170199Y550250*
X170198Y550259*
Y550622*
X170176*
X170121Y549842*
X170118Y549829*
X170000Y549475*
X169969Y549443*
X169791Y549384*
X169776Y549382*
X166705*
X166693Y549383*
X166456Y549442*
X166422Y549472*
X166304Y549768*
X166300Y549786*
Y551085*
X166350Y551135*
X169303*
X169353Y551085*
Y550864*
X169548Y550942*
Y552266*
X169563Y552302*
X169702Y552440*
X169430Y552667*
X169284Y552473*
X169244Y552453*
X167945*
X167895Y552503*
X167907Y552535*
X168261Y552949*
X168264Y552951*
X168559Y553247*
X168564Y553251*
X168801Y553428*
X168819Y553437*
X168975Y553476*
X168655Y553842*
X168456Y553593*
X168417Y553575*
X167118*
X167068Y553625*
X167079Y553656*
X167315Y553951*
X167339Y553967*
X167425Y553996*
X167074Y554260*
X166689Y553599*
X166688Y553598*
X166274Y552948*
X166269Y552942*
X165738Y552351*
X165736Y552349*
X165355Y551968*
X166025Y552483*
X166105Y552444*
Y549447*
X166207Y549293*
X166309Y549243*
X166534Y549186*
X169887*
X170281Y549299*
X170518Y549536*
X169353Y552385D02*
Y551203D01*
X169303Y551153*
X168004*
X167954Y551203*
Y552385*
X168004Y552435*
X169303*
X169353Y552385*
X167759D02*
Y551203D01*
X167709Y551153*
X166350*
X166300Y551203*
Y552385*
X166350Y552435*
X167709*
X167759Y552385*
X168460Y553481D02*
X167870Y552477D01*
X167827Y552453*
X166409*
X166374Y552467*
X166256Y552585*
X166253Y552653*
X166608Y553067*
X167021Y553539*
X167059Y553557*
X168417*
X168460Y553481*
X164528Y549423D02*
X164222Y549772D01*
X163905Y549455*
X163870Y549441*
X163043*
X162993Y549491*
Y553093*
X163043Y553143*
X164340*
X163988Y553495*
X163669Y553176*
X163634Y553161*
X161599*
X161699Y553086*
X162211Y553143*
X162217*
X162689*
X162739Y553093*
Y549491*
X162689Y549441*
X161215*
X161290Y549366*
X161857Y549422*
X161862Y549423*
X164528*
X161413Y550053D02*
X160930Y549915D01*
X160281Y549738*
X160280*
X159807Y549619*
X159805*
X159586Y549575*
X159802Y549273*
X159878Y549349*
X159894Y549360*
X160306Y549536*
X160895Y549831*
X160898Y549832*
X161413Y550053*
X161654Y552750D02*
X161347Y553014D01*
X161139Y552598*
X161138Y552596*
X160902Y552183*
X160861Y552157*
X159798Y552098*
X159745Y552148*
X159755Y552178*
X160285Y552885*
X160815Y553769*
X160831Y553784*
X160947Y553862*
X160647Y554077*
X160433Y553489*
X160430Y553483*
X160075Y552833*
X160074Y552831*
X159897Y552536*
X159894Y552532*
X159717Y552295*
X159713Y552290*
X159535Y552113*
X159500Y552098*
X159479*
X159684Y551812*
X159760Y551888*
X159783Y551902*
X160018Y551960*
X160370Y552078*
X160379Y552080*
X160792Y552139*
X160849Y552089*
X160838Y552057*
X160543Y551703*
X160307Y551409*
X160131Y551173*
X160126Y551168*
X159772Y550814*
X159764Y550807*
X159626Y550715*
X159813Y550387*
X160065Y550538*
X160071Y550541*
X160484Y550718*
X160488Y550719*
X161020Y550897*
X161021*
X161576Y551063*
Y551083*
X159924Y550741*
X159863Y550790*
X159881Y550828*
X160232Y551121*
X160583Y551530*
X160996Y552061*
X161469Y552652*
X161486Y552665*
X161654Y552750*
X147493Y549408D02*
X147319Y549495D01*
X147293Y549527*
X147234Y549763*
X147233Y549767*
X147174Y550122*
X147173Y550130*
Y550493*
X147152*
X147096Y549713*
X147093Y549701*
X146975Y549346*
X146944Y549315*
X146766Y549256*
X146751Y549253*
X143680*
X143668Y549255*
X143431Y549314*
X143397Y549344*
X143279Y549639*
X143275Y549657*
Y550957*
X143325Y551007*
X146278*
X146328Y550957*
Y550735*
X146523Y550813*
Y552138*
X146538Y552173*
X146677Y552312*
X146405Y552538*
X146259Y552344*
X146219Y552324*
X144920*
X144870Y552374*
X144882Y552407*
X145236Y552820*
X145239Y552823*
X145534Y553118*
X145540Y553123*
X145776Y553300*
X145794Y553308*
X145950Y553348*
X145630Y553713*
X145431Y553465*
X145392Y553446*
X144093*
X144043Y553496*
X144054Y553527*
X144290Y553823*
X144314Y553839*
X144400Y553868*
X144049Y554131*
X143664Y553471*
X143663Y553469*
X143250Y552820*
X143245Y552813*
X142713Y552222*
X142711Y552221*
X142330Y551840*
X143000Y552355*
X143080Y552315*
Y549318*
X143183Y549165*
X143284Y549114*
X143509Y549058*
X146862*
X147256Y549171*
X147256D02*
X147493Y549408D01*
X146328Y552256D02*
Y551075D01*
X146278Y551025*
X144979*
X144929Y551075*
Y552256*
X144979Y552306*
X146278*
X146328Y552256*
X144734D02*
Y551075D01*
X144684Y551025*
X143325*
X143275Y551075*
Y552256*
X143325Y552306*
X144684*
X144734Y552256*
X145435Y553353D02*
X144845Y552349D01*
X144802Y552324*
X143385*
X143349Y552339*
X143231Y552457*
X143228Y552525*
X143583Y552938*
X143996Y553411*
X144034Y553428*
X145392*
X145435Y553353*
X141204Y549301D02*
X141157Y549395D01*
X140987Y549622*
X140757Y549794*
X140378Y550065*
Y550064*
X140710Y549567*
X140711Y549564*
X140948Y549151*
X140952Y549142*
X141007Y548976*
X141043Y548940*
X141050*
X141095Y549028*
X141204Y549301*
X139846Y549305D02*
X139740Y549570D01*
X139571Y549739*
X139254Y550003*
X139251Y550000*
X139415Y549618*
X139417Y549612*
X139535Y549200*
X139587Y549043*
X139654Y549010*
X139741Y549097*
X139846Y549305*
X138610Y549295D02*
X138556Y549457D01*
X138386Y549684*
X138103Y549967*
X138234Y549616*
X138236Y549612*
X138354Y549199*
X138356Y549185*
Y549029*
X138424Y548960*
X138501Y549037*
X138610Y549256*
Y549295*
X137370Y550080D02*
X137340D01*
X137232Y549703*
X137228Y549694*
X137110Y549458*
X137104Y549448*
X136809Y549094*
X136806Y549091*
X136782Y549067*
X136850Y548999*
X137104*
X137261Y549156*
X137311Y549256*
Y549421*
X137312Y549431*
X137370Y549721*
Y550080*
X141383Y550357D02*
X141023Y550763D01*
X140706Y550393*
X140668Y550375*
X139133*
X139083Y550425*
Y551016*
X139133Y551066*
X140889*
X140552Y551361*
X140290Y551099*
X140255Y551084*
X139133*
X139083Y551134*
Y551902*
X139133Y551952*
X140550*
X140600Y551902*
Y551746*
X140854Y551873*
Y552489*
X140796Y552898*
X140795Y552906*
Y553378*
X140815Y553418*
X141005Y553561*
X140732Y553833*
X140590Y553643*
X140550Y553623*
X137479*
X137457Y553629*
X137175Y553769*
Y551687*
X137429Y551814*
Y551902*
X137479Y551952*
X138837*
X138887Y551902*
Y551134*
X138837Y551084*
X136979*
X137080Y551009*
X137592Y551065*
X137597Y551066*
X138837*
X138887Y551016*
Y550425*
X138837Y550375*
X136537*
X136612Y550300*
X137179Y550357*
X137184*
X141383*
X140600Y553555D02*
Y552020D01*
X140550Y551970*
X139133*
X139083Y552020*
Y553555*
X139133Y553605*
X140550*
X140600Y553555*
X138887D02*
Y552020D01*
X138837Y551970*
X137479*
X137429Y552020*
Y553555*
X137479Y553605*
X138837*
X138887Y553555*
X136600Y550312D02*
Y550375D01*
X136700Y550309D02*
Y550375D01*
X136800Y549049D02*
Y549085D01*
Y550319D02*
Y550375D01*
X136900Y548999D02*
Y549203D01*
Y550329D02*
Y550375D01*
X137000Y548999D02*
Y549323D01*
Y550339D02*
Y550375D01*
Y551068D02*
Y551084D01*
X137100Y548999D02*
Y549443D01*
Y550349D02*
Y550375D01*
Y551011D02*
Y551084D01*
X137200Y549095D02*
Y549637D01*
Y550357D02*
Y550375D01*
Y551022D02*
Y551084D01*
Y551700D02*
Y553757D01*
X137300Y549234D02*
Y549941D01*
Y550357D02*
Y550375D01*
Y551033D02*
Y551084D01*
Y551750D02*
Y553707D01*
X137400Y550357D02*
Y550375D01*
Y551044D02*
Y551084D01*
Y551800D02*
Y553657D01*
X137500Y550357D02*
Y550375D01*
Y551055D02*
Y551084D01*
Y551952D02*
Y551970D01*
Y553605D02*
Y553623D01*
X137600Y550357D02*
Y550375D01*
Y551066D02*
Y551084D01*
Y551952D02*
Y551970D01*
Y553605D02*
Y553623D01*
X137700Y550357D02*
Y550375D01*
Y551066D02*
Y551084D01*
Y551952D02*
Y551970D01*
Y553605D02*
Y553623D01*
X137800Y550357D02*
Y550375D01*
Y551066D02*
Y551084D01*
Y551952D02*
Y551970D01*
Y553605D02*
Y553623D01*
X137900Y550357D02*
Y550375D01*
Y551066D02*
Y551084D01*
Y551952D02*
Y551970D01*
Y553605D02*
Y553623D01*
X138000Y550357D02*
Y550375D01*
Y551066D02*
Y551084D01*
Y551952D02*
Y551970D01*
Y553605D02*
Y553623D01*
X138100Y550357D02*
Y550375D01*
Y551066D02*
Y551084D01*
Y551952D02*
Y551970D01*
Y553605D02*
Y553623D01*
X138200Y549708D02*
Y549870D01*
Y550357D02*
Y550375D01*
Y551066D02*
Y551084D01*
Y551952D02*
Y551970D01*
Y553605D02*
Y553623D01*
X138300Y549387D02*
Y549770D01*
Y550357D02*
Y550375D01*
Y551066D02*
Y551084D01*
Y551952D02*
Y551970D01*
Y553605D02*
Y553623D01*
X138400Y548984D02*
Y549665D01*
Y550357D02*
Y550375D01*
Y551066D02*
Y551084D01*
Y551952D02*
Y551970D01*
Y553605D02*
Y553623D01*
X138500Y549037D02*
Y549532D01*
Y550357D02*
Y550375D01*
Y551066D02*
Y551084D01*
Y551952D02*
Y551970D01*
Y553605D02*
Y553623D01*
X138600Y549236D02*
Y549325D01*
Y550357D02*
Y550375D01*
Y551066D02*
Y551084D01*
Y551952D02*
Y551970D01*
Y553605D02*
Y553623D01*
X138700Y550357D02*
Y550375D01*
Y551066D02*
Y551084D01*
Y551952D02*
Y551970D01*
Y553605D02*
Y553623D01*
X138800Y550357D02*
Y550375D01*
Y551066D02*
Y551084D01*
Y551952D02*
Y551970D01*
Y553605D02*
Y553623D01*
X138900Y550357D02*
Y553623D01*
X139000Y550357D02*
Y553623D01*
X139100Y550357D02*
Y550387D01*
Y551054D02*
Y551096D01*
Y551940D02*
Y551982D01*
Y553593D02*
Y553623D01*
X139200Y550357D02*
Y550375D01*
Y551066D02*
Y551084D01*
Y551952D02*
Y551970D01*
Y553605D02*
Y553623D01*
X139300Y549886D02*
Y549965D01*
Y550357D02*
Y550375D01*
Y551066D02*
Y551084D01*
Y551952D02*
Y551970D01*
Y553605D02*
Y553623D01*
X139400Y549652D02*
Y549881D01*
Y550357D02*
Y550375D01*
Y551066D02*
Y551084D01*
Y551952D02*
Y551970D01*
Y553605D02*
Y553623D01*
X139500Y549321D02*
Y549798D01*
Y550357D02*
Y550375D01*
Y551066D02*
Y551084D01*
Y551952D02*
Y551970D01*
Y553605D02*
Y553623D01*
X139600Y549037D02*
Y549710D01*
Y550357D02*
Y550375D01*
Y551066D02*
Y551084D01*
Y551952D02*
Y551970D01*
Y553605D02*
Y553623D01*
X139700Y549055D02*
Y549610D01*
Y550357D02*
Y550375D01*
Y551066D02*
Y551084D01*
Y551952D02*
Y551970D01*
Y553605D02*
Y553623D01*
X139800Y549214D02*
Y549419D01*
Y550357D02*
Y550375D01*
Y551066D02*
Y551084D01*
Y551952D02*
Y551970D01*
Y553605D02*
Y553623D01*
X139900Y550357D02*
Y550375D01*
Y551066D02*
Y551084D01*
Y551952D02*
Y551970D01*
Y553605D02*
Y553623D01*
X140000Y550357D02*
Y550375D01*
Y551066D02*
Y551084D01*
Y551952D02*
Y551970D01*
Y553605D02*
Y553623D01*
X140100Y550357D02*
Y550375D01*
Y551066D02*
Y551084D01*
Y551952D02*
Y551970D01*
Y553605D02*
Y553623D01*
X140200Y550357D02*
Y550375D01*
Y551066D02*
Y551084D01*
Y551952D02*
Y551970D01*
Y553605D02*
Y553623D01*
X140300Y550357D02*
Y550375D01*
Y551066D02*
Y551109D01*
Y551952D02*
Y551970D01*
Y553605D02*
Y553623D01*
X140400Y550031D02*
Y550049D01*
Y550357D02*
Y550375D01*
Y551066D02*
Y551209D01*
Y551952D02*
Y551970D01*
Y553605D02*
Y553623D01*
X140500Y549881D02*
Y549978D01*
Y550357D02*
Y550375D01*
Y551066D02*
Y551309D01*
Y551952D02*
Y551970D01*
Y553605D02*
Y553623D01*
X140600Y549731D02*
Y549906D01*
Y550357D02*
Y550375D01*
Y551066D02*
Y551319D01*
Y551746D02*
Y553657D01*
X140700Y549581D02*
Y549835D01*
Y550357D02*
Y550387D01*
Y551066D02*
Y551231D01*
Y551796D02*
Y553790D01*
X140800Y549409D02*
Y549762D01*
Y550357D02*
Y550502D01*
Y551066D02*
Y551144D01*
Y551846D02*
Y552868D01*
Y553399D02*
Y553766D01*
X140900Y549234D02*
Y549687D01*
Y550357D02*
Y550619D01*
Y553482D02*
Y553666D01*
X141000Y548997D02*
Y549604D01*
Y550357D02*
Y550736D01*
Y553557D02*
Y553566D01*
X141100Y549041D02*
Y549471D01*
Y550357D02*
Y550676D01*
X141200Y549291D02*
Y549308D01*
Y550357D02*
Y550563D01*
X141300Y550357D02*
Y550451D01*
X142400Y551893D02*
Y551909D01*
X142500Y551970D02*
Y552009D01*
X142600Y552047D02*
Y552109D01*
X142700Y552124D02*
Y552209D01*
X142800Y552201D02*
Y552319D01*
X142900Y552278D02*
Y552430D01*
X143000Y552355D02*
Y552541D01*
X143100Y549289D02*
Y552652D01*
X143200Y549156D02*
Y552764D01*
X143300Y549110D02*
Y549587D01*
Y551000D02*
Y551032D01*
Y552299D02*
Y552388D01*
Y552608D02*
Y552899D01*
X143400Y549085D02*
Y549338D01*
Y551007D02*
Y551025D01*
Y552306D02*
Y552324D01*
Y552725D02*
Y553056D01*
X143500Y549060D02*
Y549297D01*
Y551007D02*
Y551025D01*
Y552306D02*
Y552324D01*
Y552841D02*
Y553213D01*
X143600Y549058D02*
Y549272D01*
Y551007D02*
Y551025D01*
Y552306D02*
Y552324D01*
Y552958D02*
Y553370D01*
X143700Y549058D02*
Y549253D01*
Y551007D02*
Y551025D01*
Y552306D02*
Y552324D01*
Y553072D02*
Y553533D01*
X143800Y549058D02*
Y549253D01*
Y551007D02*
Y551025D01*
Y552306D02*
Y552324D01*
Y553186D02*
Y553704D01*
X143900Y549058D02*
Y549253D01*
Y551007D02*
Y551025D01*
Y552306D02*
Y552324D01*
Y553301D02*
Y553876D01*
X144000Y549058D02*
Y549253D01*
Y551007D02*
Y551025D01*
Y552306D02*
Y552324D01*
Y553415D02*
Y554047D01*
X144100Y549058D02*
Y549253D01*
Y551007D02*
Y551025D01*
Y552306D02*
Y552324D01*
Y553428D02*
Y553446D01*
Y553585D02*
Y554093D01*
X144200Y549058D02*
Y549253D01*
Y551007D02*
Y551025D01*
Y552306D02*
Y552324D01*
Y553428D02*
Y553446D01*
Y553710D02*
Y554018D01*
X144300Y549058D02*
Y549253D01*
Y551007D02*
Y551025D01*
Y552306D02*
Y552324D01*
Y553428D02*
Y553446D01*
Y553832D02*
Y553943D01*
X144400Y549058D02*
Y549253D01*
Y551007D02*
Y551025D01*
Y552306D02*
Y552324D01*
Y553428D02*
Y553446D01*
Y553868D02*
X144400D01*
X144500Y549058D02*
Y549253D01*
Y551007D02*
Y551025D01*
Y552306D02*
Y552324D01*
Y553428D02*
Y553446D01*
X144600Y549058D02*
Y549253D01*
Y551007D02*
Y551025D01*
Y552306D02*
Y552324D01*
Y553428D02*
Y553446D01*
X144700Y549058D02*
Y549253D01*
Y551007D02*
Y551028D01*
Y552303D02*
Y552324D01*
Y553428D02*
Y553446D01*
X144800Y549058D02*
Y549253D01*
Y551007D02*
Y552324D01*
Y553428D02*
Y553446D01*
X144900Y549058D02*
Y549253D01*
Y551007D02*
Y552328D01*
Y552428D02*
Y552442D01*
Y553428D02*
Y553446D01*
X145000Y549058D02*
Y549253D01*
Y551007D02*
Y551025D01*
Y552306D02*
Y552324D01*
Y552544D02*
Y552612D01*
Y553428D02*
Y553446D01*
X145100Y549058D02*
Y549253D01*
Y551007D02*
Y551025D01*
Y552306D02*
Y552324D01*
Y552661D02*
Y552782D01*
Y553428D02*
Y553446D01*
X145200Y549058D02*
Y549253D01*
Y551007D02*
Y551025D01*
Y552306D02*
Y552324D01*
Y552778D02*
Y552952D01*
Y553428D02*
Y553446D01*
X145300Y549058D02*
Y549253D01*
Y551007D02*
Y551025D01*
Y552306D02*
Y552324D01*
Y552884D02*
Y553122D01*
Y553428D02*
Y553446D01*
X145400Y549058D02*
Y549253D01*
Y551007D02*
Y551025D01*
Y552306D02*
Y552324D01*
Y552984D02*
Y553292D01*
Y553427D02*
Y553447D01*
X145500Y549058D02*
Y549253D01*
Y551007D02*
Y551025D01*
Y552306D02*
Y552324D01*
Y553084D02*
Y553551D01*
X145600Y549058D02*
Y549253D01*
Y551007D02*
Y551025D01*
Y552306D02*
Y552324D01*
Y553168D02*
Y553676D01*
X145700Y549058D02*
Y549253D01*
Y551007D02*
Y551025D01*
Y552306D02*
Y552324D01*
Y553243D02*
Y553634D01*
X145800Y549058D02*
Y549253D01*
Y551007D02*
Y551025D01*
Y552306D02*
Y552324D01*
Y553310D02*
Y553520D01*
X145900Y549058D02*
Y549253D01*
Y551007D02*
Y551025D01*
Y552306D02*
Y552324D01*
Y553335D02*
Y553405D01*
X146000Y549058D02*
Y549253D01*
Y551007D02*
Y551025D01*
Y552306D02*
Y552324D01*
X146100Y549058D02*
Y549253D01*
Y551007D02*
Y551025D01*
Y552306D02*
Y552324D01*
X146200Y549058D02*
Y549253D01*
Y551007D02*
Y551025D01*
Y552306D02*
Y552324D01*
X146300Y549058D02*
Y549253D01*
Y551002D02*
Y551030D01*
Y552301D02*
Y552398D01*
X146400Y549058D02*
Y549253D01*
Y550764D02*
Y552532D01*
X146500Y549058D02*
Y549253D01*
Y550804D02*
Y552459D01*
X146600Y549058D02*
Y549253D01*
Y552235D02*
Y552375D01*
X146700Y549058D02*
Y549253D01*
X146800Y549058D02*
Y549267D01*
X146900Y549069D02*
Y549300D01*
X147000Y549097D02*
Y549421D01*
X147100Y549126D02*
Y549772D01*
X147200Y549155D02*
Y549964D01*
X147300Y549215D02*
Y549511D01*
X147400Y549315D02*
Y549454D01*
X159500Y552069D02*
Y552098D01*
X159600Y549555D02*
Y549578D01*
Y551929D02*
Y552178D01*
X159700Y549415D02*
Y549598D01*
Y550585D02*
Y550765D01*
Y551828D02*
Y552278D01*
X159800Y549275D02*
Y549618D01*
Y550410D02*
Y550842D01*
Y551906D02*
Y552098D01*
Y552238D02*
Y552406D01*
X159900Y549362D02*
Y549643D01*
Y550439D02*
Y550742D01*
Y550844D02*
Y550942D01*
Y551931D02*
Y552104D01*
Y552371D02*
Y552541D01*
X160000Y549405D02*
Y549668D01*
Y550499D02*
Y550757D01*
Y550927D02*
Y551042D01*
Y551956D02*
Y552110D01*
Y552505D02*
Y552707D01*
X160100Y549448D02*
Y549693D01*
Y550553D02*
Y550778D01*
Y551011D02*
Y551142D01*
Y551988D02*
Y552115D01*
Y552638D02*
Y552878D01*
X160200Y549491D02*
Y549718D01*
Y550596D02*
Y550798D01*
Y551094D02*
Y551266D01*
Y552021D02*
Y552121D01*
Y552771D02*
Y553061D01*
X160300Y549534D02*
Y549743D01*
Y550639D02*
Y550819D01*
Y551200D02*
Y551399D01*
Y552054D02*
Y552126D01*
Y552910D02*
Y553245D01*
X160400Y549583D02*
Y549770D01*
Y550682D02*
Y550840D01*
Y551316D02*
Y551525D01*
Y552083D02*
Y552132D01*
Y553076D02*
Y553428D01*
X160500Y549633D02*
Y549798D01*
Y550723D02*
Y550860D01*
Y551433D02*
Y551650D01*
Y552097D02*
Y552137D01*
Y553243D02*
Y553674D01*
X160600Y549683D02*
Y549825D01*
Y550757D02*
Y550881D01*
Y551552D02*
Y551772D01*
Y552111D02*
Y552143D01*
Y553410D02*
Y553949D01*
X160700Y549733D02*
Y549852D01*
Y550790D02*
Y550902D01*
Y551680D02*
Y551892D01*
Y552126D02*
Y552148D01*
Y553576D02*
Y554039D01*
X160800Y549783D02*
Y549879D01*
Y550823D02*
Y550922D01*
Y551809D02*
Y552012D01*
Y552139D02*
Y552154D01*
Y553743D02*
Y553968D01*
X160900Y549833D02*
Y549907D01*
Y550857D02*
Y550943D01*
Y551937D02*
Y552180D01*
Y553831D02*
Y553896D01*
X161000Y549876D02*
Y549935D01*
Y550890D02*
Y550964D01*
Y552066D02*
Y552355D01*
X161100Y549919D02*
Y549963D01*
Y550921D02*
Y550984D01*
Y552191D02*
Y552530D01*
X161200Y549962D02*
Y549992D01*
Y550951D02*
Y551005D01*
Y552316D02*
Y552720D01*
X161300Y549367D02*
Y549441D01*
Y550004D02*
Y550021D01*
Y550981D02*
Y551026D01*
Y552441D02*
Y552920D01*
X161400Y549377D02*
Y549441D01*
Y550047D02*
Y550049D01*
Y551011D02*
Y551047D01*
Y552566D02*
Y552968D01*
X161500Y549387D02*
Y549441D01*
Y551041D02*
Y551067D01*
Y552673D02*
Y552882D01*
X161600Y549397D02*
Y549441D01*
Y552723D02*
Y552796D01*
Y553160D02*
Y553161D01*
X161700Y549407D02*
Y549441D01*
Y553086D02*
Y553161D01*
X161800Y549417D02*
Y549441D01*
Y553097D02*
Y553161D01*
X161900Y549423D02*
Y549441D01*
Y553108D02*
Y553161D01*
X162000Y549423D02*
Y549441D01*
Y553119D02*
Y553161D01*
X162100Y549423D02*
Y549441D01*
Y553131D02*
Y553161D01*
X162200Y549423D02*
Y549441D01*
Y553142D02*
Y553161D01*
X162300Y549423D02*
Y549441D01*
Y553143D02*
Y553161D01*
X162400Y549423D02*
Y549441D01*
Y553143D02*
Y553161D01*
X162500Y549423D02*
Y549441D01*
Y553143D02*
Y553161D01*
X162600Y549423D02*
Y549441D01*
Y553143D02*
Y553161D01*
X162700Y549423D02*
Y549442D01*
Y553142D02*
Y553161D01*
X162800Y549423D02*
Y553161D01*
X162900Y549423D02*
Y553161D01*
X163000Y549423D02*
Y549466D01*
Y553118D02*
Y553161D01*
X163100Y549423D02*
Y549441D01*
Y553143D02*
Y553161D01*
X163200Y549423D02*
Y549441D01*
Y553143D02*
Y553161D01*
X163300Y549423D02*
Y549441D01*
Y553143D02*
Y553161D01*
X163400Y549423D02*
Y549441D01*
Y553143D02*
Y553161D01*
X163500Y549423D02*
Y549441D01*
Y553143D02*
Y553161D01*
X163600Y549423D02*
Y549441D01*
Y553143D02*
Y553161D01*
X163700Y549423D02*
Y549441D01*
Y553143D02*
Y553207D01*
X163800Y549423D02*
Y549441D01*
Y553143D02*
Y553307D01*
X163900Y549423D02*
Y549451D01*
Y553143D02*
Y553407D01*
X164000Y549423D02*
Y549550D01*
Y553143D02*
Y553483D01*
X164100Y549423D02*
Y549650D01*
Y553143D02*
Y553383D01*
X164200Y549423D02*
Y549750D01*
Y553143D02*
Y553283D01*
X164300Y549423D02*
Y549683D01*
Y553143D02*
Y553183D01*
X164400Y549423D02*
Y549569D01*
X164500Y549423D02*
Y549454D01*
X165400Y552003D02*
Y552013D01*
X165500Y552080D02*
Y552113D01*
X165600Y552157D02*
Y552213D01*
X165700Y552233D02*
Y552313D01*
X165800Y552310D02*
Y552420D01*
X165900Y552387D02*
Y552531D01*
X166000Y552464D02*
Y552642D01*
X166100Y552466D02*
Y552753D01*
X166200Y549305D02*
Y552864D01*
X166300Y549247D02*
Y552541D01*
Y552708D02*
Y552988D01*
X166400Y549220D02*
Y549527D01*
Y551135D02*
Y551153D01*
Y552435D02*
Y552454D01*
Y552824D02*
Y553145D01*
X166500Y549195D02*
Y549431D01*
Y551135D02*
Y551153D01*
Y552435D02*
Y552453D01*
Y552941D02*
Y553303D01*
X166600Y549186D02*
Y549406D01*
Y551135D02*
Y551153D01*
Y552435D02*
Y552453D01*
Y553058D02*
Y553460D01*
X166700Y549186D02*
Y549382D01*
Y551135D02*
Y551153D01*
Y552435D02*
Y552453D01*
Y553172D02*
Y553619D01*
X166800Y549186D02*
Y549382D01*
Y551135D02*
Y551153D01*
Y552435D02*
Y552453D01*
Y553286D02*
Y553790D01*
X166900Y549186D02*
Y549382D01*
Y551135D02*
Y551153D01*
Y552435D02*
Y552453D01*
Y553401D02*
Y553961D01*
X167000Y549186D02*
Y549382D01*
Y551135D02*
Y551153D01*
Y552435D02*
Y552453D01*
Y553515D02*
Y554133D01*
X167100Y549186D02*
Y549382D01*
Y551135D02*
Y551153D01*
Y552435D02*
Y552453D01*
Y553557D02*
Y553578D01*
Y553682D02*
Y554240D01*
X167200Y549186D02*
Y549382D01*
Y551135D02*
Y551153D01*
Y552435D02*
Y552453D01*
Y553557D02*
Y553575D01*
Y553807D02*
Y554165D01*
X167300Y549186D02*
Y549382D01*
Y551135D02*
Y551153D01*
Y552435D02*
Y552453D01*
Y553557D02*
Y553575D01*
Y553932D02*
Y554090D01*
X167400Y549186D02*
Y549382D01*
Y551135D02*
Y551153D01*
Y552435D02*
Y552453D01*
Y553557D02*
Y553575D01*
Y553988D02*
Y554015D01*
X167500Y549186D02*
Y549382D01*
Y551135D02*
Y551153D01*
Y552435D02*
Y552453D01*
Y553557D02*
Y553575D01*
X167600Y549186D02*
Y549382D01*
Y551135D02*
Y551153D01*
Y552435D02*
Y552453D01*
Y553557D02*
Y553575D01*
X167700Y549186D02*
Y549382D01*
Y551135D02*
Y551153D01*
Y552435D02*
Y552453D01*
Y553557D02*
Y553575D01*
X167800Y549186D02*
Y549382D01*
Y551135D02*
Y552453D01*
Y553557D02*
Y553575D01*
X167900Y549186D02*
Y549382D01*
Y551135D02*
Y552481D01*
Y552525D02*
Y552528D01*
Y553557D02*
Y553575D01*
X168000Y549186D02*
Y549382D01*
Y551135D02*
Y551154D01*
Y552434D02*
Y552453D01*
Y552644D02*
Y552698D01*
Y553557D02*
Y553575D01*
X168100Y549186D02*
Y549382D01*
Y551135D02*
Y551153D01*
Y552435D02*
Y552453D01*
Y552760D02*
Y552868D01*
Y553557D02*
Y553575D01*
X168200Y549186D02*
Y549382D01*
Y551135D02*
Y551153D01*
Y552435D02*
Y552453D01*
Y552877D02*
Y553038D01*
Y553557D02*
Y553575D01*
X168300Y549186D02*
Y549382D01*
Y551135D02*
Y551153D01*
Y552435D02*
Y552453D01*
Y552988D02*
Y553208D01*
Y553557D02*
Y553575D01*
X168400Y549186D02*
Y549382D01*
Y551135D02*
Y551153D01*
Y552435D02*
Y552453D01*
Y553088D02*
Y553378D01*
Y553557D02*
Y553575D01*
X168500Y549186D02*
Y549382D01*
Y551135D02*
Y551153D01*
Y552435D02*
Y552453D01*
Y553188D02*
Y553648D01*
X168600Y549186D02*
Y549382D01*
Y551135D02*
Y551153D01*
Y552435D02*
Y552453D01*
Y553278D02*
Y553773D01*
X168700Y549186D02*
Y549382D01*
Y551135D02*
Y551153D01*
Y552435D02*
Y552453D01*
Y553353D02*
Y553791D01*
X168800Y549186D02*
Y549382D01*
Y551135D02*
Y551153D01*
Y552435D02*
Y552453D01*
Y553428D02*
Y553677D01*
X168900Y549186D02*
Y549382D01*
Y551135D02*
Y551153D01*
Y552435D02*
Y552453D01*
Y553457D02*
Y553562D01*
X169000Y549186D02*
Y549382D01*
Y551135D02*
Y551153D01*
Y552435D02*
Y552453D01*
X169100Y549186D02*
Y549382D01*
Y551135D02*
Y551153D01*
Y552435D02*
Y552453D01*
X169200Y549186D02*
Y549382D01*
Y551135D02*
Y551153D01*
Y552435D02*
Y552453D01*
X169300Y549186D02*
Y549382D01*
Y551135D02*
Y551153D01*
Y552435D02*
Y552494D01*
X169400Y549186D02*
Y549382D01*
Y550883D02*
Y552627D01*
X169500Y549186D02*
Y549382D01*
Y550923D02*
Y552608D01*
X169600Y549186D02*
Y549382D01*
Y552339D02*
Y552525D01*
X169700Y549186D02*
Y549382D01*
Y552439D02*
Y552441D01*
X169800Y549186D02*
Y549387D01*
X169900Y549190D02*
Y549421D01*
X170000Y549219D02*
Y549474D01*
X170100Y549247D02*
Y549774D01*
X170200Y549276D02*
Y550243D01*
X170300Y549318D02*
Y549726D01*
X170400Y549418D02*
Y549595D01*
X170500Y549518D02*
Y549545D01*
X374300Y270214D02*
Y270236D01*
Y274155D02*
Y274177D01*
X374400Y270214D02*
Y270263D01*
Y274146D02*
Y274177D01*
X374500Y270214D02*
Y270297D01*
Y274096D02*
Y274177D01*
X374600Y270214D02*
Y270421D01*
Y274006D02*
Y274177D01*
X374700Y270214D02*
Y270593D01*
Y273845D02*
Y274177D01*
X374800Y270214D02*
Y270793D01*
Y273614D02*
Y274177D01*
X374900Y270214D02*
Y270298D01*
Y270748D02*
Y270993D01*
Y273383D02*
Y274177D01*
X375000Y270214D02*
Y270248D01*
Y270939D02*
Y271193D01*
Y273153D02*
Y273759D01*
Y274140D02*
Y274177D01*
X375100Y271151D02*
Y271393D01*
Y272922D02*
Y273526D01*
Y274155D02*
Y274177D01*
X375200Y271362D02*
Y271593D01*
Y272691D02*
Y273292D01*
X375300Y271573D02*
Y271793D01*
Y272460D02*
Y273059D01*
X375400Y271784D02*
Y271993D01*
Y272230D02*
Y272826D01*
X375500Y271968D02*
Y272592D01*
X375600Y271866D02*
Y272482D01*
X375700Y271636D02*
Y272228D01*
Y272460D02*
Y272670D01*
X375800Y271406D02*
Y271997D01*
Y272677D02*
Y272892D01*
X375900Y271176D02*
Y271766D01*
Y272893D02*
Y273115D01*
X376000Y270214D02*
Y270236D01*
Y270946D02*
Y271536D01*
Y273110D02*
Y273337D01*
Y274155D02*
Y274177D01*
X376100Y270214D02*
Y270277D01*
Y270716D02*
Y271305D01*
Y273327D02*
Y273559D01*
Y274155D02*
Y274177D01*
X376200Y270214D02*
Y271074D01*
Y273543D02*
Y273850D01*
Y274103D02*
Y274177D01*
X376300Y270214D02*
Y270843D01*
Y273760D02*
Y274177D01*
X376400Y270214D02*
Y270613D01*
Y273964D02*
Y274177D01*
X376500Y270214D02*
Y270448D01*
Y274064D02*
Y274177D01*
X376600Y270214D02*
Y270348D01*
Y274125D02*
Y274177D01*
X376700Y270214D02*
Y270284D01*
Y274155D02*
Y274177D01*
X376800Y270214D02*
Y270251D01*
X377300Y270214D02*
Y270236D01*
Y274155D02*
Y274177D01*
X377400Y270214D02*
Y270253D01*
Y274138D02*
Y274177D01*
X377500Y270214D02*
Y270286D01*
Y274105D02*
Y274177D01*
X377600Y270214D02*
Y270391D01*
Y274000D02*
Y274177D01*
X377700Y270214D02*
Y274177D01*
X377800Y270214D02*
Y274177D01*
X377900Y270214D02*
Y270448D01*
Y272124D02*
Y272207D01*
Y273942D02*
Y274177D01*
X378000Y270214D02*
Y270296D01*
Y272154D02*
Y272176D01*
Y274095D02*
Y274177D01*
X378100Y270214D02*
Y270262D01*
Y272154D02*
Y272176D01*
Y274128D02*
Y274177D01*
X378200Y270214D02*
Y270236D01*
Y272154D02*
Y272176D01*
Y274155D02*
Y274177D01*
X378300Y272154D02*
Y272176D01*
Y274155D02*
Y274177D01*
X378400Y272154D02*
Y272176D01*
Y274155D02*
Y274177D01*
X378500Y272154D02*
Y272176D01*
Y274155D02*
Y274177D01*
X378600Y272154D02*
Y272183D01*
Y274140D02*
Y274177D01*
X378700Y272159D02*
Y272200D01*
Y274126D02*
Y274167D01*
X378800Y272173D02*
Y272216D01*
Y274112D02*
Y274155D01*
X378900Y272187D02*
Y272233D01*
Y274097D02*
Y274144D01*
X379000Y272202D02*
Y272272D01*
Y274053D02*
Y274133D01*
X379100Y272226D02*
Y272322D01*
Y273993D02*
Y274122D01*
X379200Y272293D02*
Y272379D01*
Y273933D02*
Y274078D01*
X379300Y272360D02*
Y272504D01*
Y273826D02*
Y274012D01*
X379400Y272426D02*
Y272629D01*
Y273659D02*
Y273945D01*
X379500Y272516D02*
Y273097D01*
Y273272D02*
Y273872D01*
X379600Y272616D02*
Y273747D01*
X379700Y272716D02*
Y273622D01*
X380500Y271348D02*
Y273103D01*
X380600Y271128D02*
Y273323D01*
X380700Y270908D02*
Y273543D01*
X380800Y270707D02*
Y271519D01*
Y272932D02*
Y273745D01*
X380900Y270574D02*
Y271118D01*
Y273333D02*
Y273878D01*
X381000Y270455D02*
Y270796D01*
Y273653D02*
Y273996D01*
X381100Y270355D02*
Y270596D01*
Y273803D02*
Y274096D01*
X381200Y270291D02*
Y270478D01*
Y273953D02*
Y274140D01*
X381300Y270241D02*
Y270395D01*
Y274043D02*
Y274165D01*
X381400Y270214D02*
Y270328D01*
Y274076D02*
Y274190D01*
X381500Y270214D02*
Y270296D01*
Y274119D02*
Y274215D01*
X381600Y270214D02*
Y270296D01*
Y274153D02*
Y274232D01*
X381700Y270214D02*
Y270296D01*
Y274119D02*
Y274207D01*
X381800Y270214D02*
Y270309D01*
Y274086D02*
Y274182D01*
X381900Y270257D02*
Y270376D01*
Y274053D02*
Y274157D01*
X382000Y270307D02*
Y270449D01*
Y273996D02*
Y274132D01*
X382100Y270387D02*
Y270549D01*
Y273846D02*
Y274064D01*
X382200Y270487D02*
Y270739D01*
Y273696D02*
Y273964D01*
X382300Y270616D02*
Y271125D01*
Y273327D02*
Y273835D01*
X382400Y270759D02*
Y271935D01*
Y272516D02*
Y273693D01*
X382500Y270979D02*
Y273473D01*
X382600Y271199D02*
Y273253D01*
X382700Y271575D02*
Y272876D01*
X383500Y270214D02*
Y270574D01*
X383600Y270214D02*
Y270507D01*
Y270549D02*
Y270708D01*
Y272986D02*
Y273552D01*
X383700Y270214D02*
Y270478D01*
Y270653D02*
Y270835D01*
Y272961D02*
Y273764D01*
X383800Y270214D02*
Y270478D01*
Y270755D02*
Y270960D01*
Y272956D02*
Y273502D01*
Y273636D02*
Y273914D01*
X383900Y270214D02*
Y270478D01*
Y270875D02*
Y271083D01*
Y272990D02*
Y273302D01*
Y273824D02*
Y274025D01*
X384000Y270214D02*
Y270478D01*
Y270995D02*
Y271203D01*
Y273924D02*
Y274075D01*
X384100Y270214D02*
Y270478D01*
Y271115D02*
Y271323D01*
Y274004D02*
Y274125D01*
X384200Y270214D02*
Y270478D01*
Y271229D02*
Y271436D01*
Y274070D02*
Y274175D01*
X384300Y270214D02*
Y270478D01*
Y271343D02*
Y271536D01*
Y274105D02*
Y274192D01*
X384400Y270214D02*
Y270478D01*
Y271458D02*
Y271636D01*
Y274125D02*
Y274206D01*
X384500Y270214D02*
Y270478D01*
Y271572D02*
Y271736D01*
Y274145D02*
Y274220D01*
X384600Y270214D02*
Y270478D01*
Y271675D02*
Y271836D01*
Y274148D02*
Y274234D01*
X384700Y270214D02*
Y270478D01*
Y271775D02*
Y271936D01*
Y274132D02*
Y274226D01*
X384800Y270214D02*
Y270478D01*
Y271875D02*
Y272036D01*
Y274115D02*
Y274214D01*
X384900Y270214D02*
Y270478D01*
Y271975D02*
Y272136D01*
Y274098D02*
Y274201D01*
X385000Y270214D02*
Y270478D01*
Y272075D02*
Y272258D01*
Y274046D02*
Y274189D01*
X385100Y270214D02*
Y270478D01*
Y272175D02*
Y272408D01*
Y273971D02*
Y274167D01*
X385200Y270214D02*
Y270509D01*
Y272275D02*
Y272558D01*
Y273894D02*
Y274100D01*
X385300Y270214D02*
Y270542D01*
Y272375D02*
Y272802D01*
Y273697D02*
Y274033D01*
X385400Y270214D02*
Y270607D01*
Y272499D02*
Y273967D01*
X385500Y270214D02*
Y270675D01*
Y272665D02*
Y273827D01*
X385600Y270214D02*
Y270945D01*
Y272881D02*
Y273651D01*
X385700Y271050D02*
Y271145D01*
X386400Y272215D02*
Y272358D01*
X386500Y272215D02*
Y272358D01*
X386600Y272215D02*
Y272358D01*
X386700Y272215D02*
Y272358D01*
X386800Y272215D02*
Y272358D01*
X386900Y272215D02*
Y272358D01*
X387000Y272215D02*
Y272358D01*
X387100Y272215D02*
Y272358D01*
X387200Y272215D02*
Y272358D01*
X387300Y272215D02*
Y272358D01*
X387400Y272215D02*
Y272358D01*
X387500Y272215D02*
Y272358D01*
X387600Y272215D02*
Y272358D01*
X387700Y272215D02*
Y272358D01*
X387800Y272215D02*
Y272358D01*
X387900Y272215D02*
Y272358D01*
X388000Y272215D02*
Y272358D01*
X388100Y272215D02*
Y272358D01*
X388200Y272215D02*
Y272358D01*
X388300Y272215D02*
Y272358D01*
X388400Y272215D02*
Y272358D01*
X388500Y272215D02*
Y272358D01*
X388600Y272215D02*
Y272358D01*
X388700Y272215D02*
Y272358D01*
X388800Y272215D02*
Y272358D01*
X389600Y269919D02*
Y269932D01*
X389700Y269856D02*
Y269932D01*
X389800Y269866D02*
Y269932D01*
X389900Y269876D02*
Y269932D01*
X390000Y269886D02*
Y269932D01*
Y273460D02*
Y273510D01*
X390100Y269896D02*
Y269932D01*
Y273438D02*
Y273510D01*
X390200Y269906D02*
Y269932D01*
Y273449D02*
Y273510D01*
X390300Y269911D02*
Y269932D01*
Y271803D02*
Y271812D01*
Y273460D02*
Y273510D01*
X390400Y269911D02*
Y269932D01*
Y271675D02*
Y271812D01*
Y273471D02*
Y273510D01*
X390500Y269911D02*
Y269932D01*
Y271695D02*
Y271812D01*
Y273482D02*
Y273510D01*
X390600Y269911D02*
Y269932D01*
Y271715D02*
Y271812D01*
Y273488D02*
Y273510D01*
X390700Y269911D02*
Y269932D01*
Y271735D02*
Y271812D01*
Y273488D02*
Y273510D01*
X390800Y269911D02*
Y269932D01*
Y271755D02*
Y271812D01*
Y273488D02*
Y273510D01*
X390900Y269911D02*
Y269932D01*
Y271775D02*
Y271812D01*
Y273488D02*
Y273510D01*
X391000Y269911D02*
Y269932D01*
Y271791D02*
Y271812D01*
Y273488D02*
Y273510D01*
X391100Y269911D02*
Y269932D01*
Y271791D02*
Y271812D01*
Y273488D02*
Y273510D01*
X391200Y269911D02*
Y269932D01*
Y271791D02*
Y271812D01*
Y273488D02*
Y273510D01*
X391300Y269911D02*
Y269932D01*
Y271791D02*
Y271812D01*
Y273488D02*
Y273510D01*
X391400Y269911D02*
Y269932D01*
Y271791D02*
Y271812D01*
Y273488D02*
Y273510D01*
X391500Y269911D02*
Y269932D01*
Y271791D02*
Y271812D01*
Y273488D02*
Y273510D01*
X391600Y269911D02*
Y269932D01*
Y271791D02*
Y271812D01*
Y273488D02*
Y273510D01*
Y274803D02*
Y274823D01*
X391700Y269911D02*
Y269932D01*
Y271791D02*
Y271812D01*
Y273488D02*
Y273510D01*
Y274675D02*
Y274767D01*
X391800Y269911D02*
Y269932D01*
Y271791D02*
Y271812D01*
Y273488D02*
Y273510D01*
Y274546D02*
Y274712D01*
X391900Y269911D02*
Y269932D01*
Y271791D02*
Y271812D01*
Y273488D02*
Y273510D01*
Y274418D02*
Y274656D01*
X392000Y269911D02*
Y269932D01*
Y271791D02*
Y271812D01*
Y273488D02*
Y273510D01*
Y274221D02*
Y274597D01*
X392100Y269911D02*
Y273510D01*
Y273987D02*
Y274517D01*
X392200Y269911D02*
Y273510D01*
Y273823D02*
Y274437D01*
X392300Y269911D02*
Y273510D01*
Y273797D02*
Y274359D01*
X392400Y269911D02*
Y269932D01*
Y271791D02*
Y271812D01*
Y273488D02*
Y273510D01*
Y273922D02*
Y274292D01*
X392500Y269911D02*
Y269932D01*
Y271791D02*
Y271812D01*
Y273488D02*
Y273510D01*
X392600Y269911D02*
Y269932D01*
Y271791D02*
Y271812D01*
Y273488D02*
Y273510D01*
X392700Y269911D02*
Y269932D01*
Y271791D02*
Y271812D01*
Y273488D02*
Y273510D01*
X392800Y269911D02*
Y269932D01*
Y271791D02*
Y271812D01*
Y273488D02*
Y273510D01*
X392900Y269911D02*
Y269932D01*
Y271791D02*
Y271812D01*
Y273488D02*
Y273510D01*
X393000Y269911D02*
Y269932D01*
Y271791D02*
Y271812D01*
Y273488D02*
Y273510D01*
X393100Y269911D02*
Y269932D01*
Y271791D02*
Y271812D01*
Y273488D02*
Y273510D01*
X393200Y269911D02*
Y269932D01*
Y271791D02*
Y271812D01*
Y273488D02*
Y273510D01*
X393300Y269911D02*
Y269932D01*
Y271791D02*
Y271812D01*
Y273488D02*
Y273510D01*
X393400Y269911D02*
Y269932D01*
Y271791D02*
Y271812D01*
Y273488D02*
Y273510D01*
X393500Y269911D02*
Y269932D01*
Y271791D02*
Y271824D01*
Y273488D02*
Y273510D01*
X393600Y269911D02*
Y269932D01*
Y271791D02*
Y271943D01*
Y273488D02*
Y273510D01*
X393700Y269911D02*
Y269932D01*
Y271791D02*
Y272063D01*
Y273488D02*
Y273510D01*
X393800Y269911D02*
Y269932D01*
Y271791D02*
Y272126D01*
Y273488D02*
Y273510D01*
X393900Y269911D02*
Y269932D01*
Y271791D02*
Y272026D01*
Y273488D02*
Y273564D01*
X394000Y269911D02*
Y269932D01*
Y271791D02*
Y271926D01*
Y273488D02*
Y273684D01*
X394100Y269911D02*
Y270007D01*
Y271791D02*
Y271826D01*
Y273488D02*
Y273804D01*
X394200Y269911D02*
Y270124D01*
Y273488D02*
Y273798D01*
X394300Y269911D02*
Y270240D01*
Y273488D02*
Y273709D01*
X394400Y269911D02*
Y270313D01*
Y273488D02*
Y273620D01*
X394500Y269911D02*
Y270213D01*
Y273488D02*
Y273531D01*
X394600Y269911D02*
Y270113D01*
X394700Y269911D02*
Y270013D01*
X394800Y269911D02*
Y269913D01*
X395600Y270961D02*
Y271002D01*
Y273499D02*
Y273510D01*
X395700Y271106D02*
Y271224D01*
Y273442D02*
Y273510D01*
X395800Y271250D02*
Y271447D01*
Y273467D02*
Y273510D01*
X395900Y271395D02*
Y271669D01*
Y273488D02*
Y273510D01*
X396000Y271539D02*
Y271891D01*
Y273488D02*
Y273510D01*
X396100Y271745D02*
Y272155D01*
Y273488D02*
Y273510D01*
X396200Y271978D02*
Y272484D01*
Y273488D02*
Y273510D01*
X396300Y272212D02*
Y272812D01*
Y273488D02*
Y273510D01*
X396400Y272440D02*
Y273141D01*
Y273488D02*
Y273510D01*
X396500Y269523D02*
Y274923D01*
X396600Y269573D02*
Y274868D01*
X396700Y269623D02*
Y274812D01*
X396800Y272700D02*
Y272772D01*
Y273488D02*
Y273510D01*
Y274598D02*
Y274757D01*
X396900Y272611D02*
Y272701D01*
Y273488D02*
Y273510D01*
Y274698D02*
Y274701D01*
X397000Y269584D02*
Y269645D01*
Y272491D02*
Y272629D01*
Y273488D02*
Y273510D01*
X397100Y269684D02*
Y269765D01*
Y272371D02*
Y272558D01*
Y273488D02*
Y273544D01*
X397200Y269784D02*
Y269885D01*
Y272209D02*
Y272486D01*
Y273488D02*
Y273644D01*
X397300Y269884D02*
Y270005D01*
Y272009D02*
Y272411D01*
Y273488D02*
Y273744D01*
X397400Y269984D02*
Y270125D01*
Y271759D02*
Y272336D01*
Y273488D02*
Y273725D01*
X397500Y269685D02*
Y269686D01*
Y270093D02*
Y270245D01*
Y271908D02*
Y272173D01*
Y273488D02*
Y273608D01*
X397600Y269732D02*
Y269745D01*
Y270273D02*
Y270436D01*
Y273488D02*
Y273492D01*
X397700Y269779D02*
Y269803D01*
Y270453D02*
Y270640D01*
X397800Y269826D02*
Y269862D01*
Y270638D02*
Y271320D01*
X397900Y269873D02*
Y269921D01*
Y270863D02*
Y272101D01*
X398000Y269920D02*
Y269980D01*
Y271088D02*
Y274299D01*
X398100Y269967D02*
Y270039D01*
Y271951D02*
Y274249D01*
X398200Y270014D02*
Y270098D01*
Y273001D02*
Y274199D01*
X398300Y270061D02*
Y270156D01*
Y273125D02*
Y273146D01*
Y274167D02*
Y274186D01*
X398400Y270115D02*
Y270229D01*
Y273125D02*
Y273146D01*
Y274192D02*
Y274211D01*
X398500Y270178D02*
Y270315D01*
Y273125D02*
Y273146D01*
Y274217D02*
Y274236D01*
X398600Y270240D02*
Y270401D01*
Y272854D02*
Y272952D01*
Y273120D02*
Y273146D01*
Y274242D02*
Y274261D01*
X398700Y270303D02*
Y270487D01*
Y272404D02*
Y272552D01*
Y273125D02*
Y273146D01*
Y274267D02*
Y274286D01*
X398800Y270365D02*
Y270579D01*
Y271972D02*
Y272152D01*
Y273125D02*
Y273146D01*
Y274285D02*
Y274314D01*
X398900Y270466D02*
Y270696D01*
Y271705D02*
Y271931D01*
Y273125D02*
Y273146D01*
Y274300D02*
Y274348D01*
X399000Y270582D02*
Y270813D01*
Y271438D02*
Y271746D01*
Y273125D02*
Y273146D01*
Y274314D02*
Y274381D01*
X399100Y270699D02*
Y270929D01*
Y271172D02*
Y271560D01*
Y273125D02*
Y273146D01*
Y274328D02*
Y274414D01*
X399200Y270812D02*
Y271374D01*
Y273125D02*
Y273146D01*
Y274343D02*
Y274453D01*
X399300Y270755D02*
Y271268D01*
Y273125D02*
Y273146D01*
Y274360D02*
Y274493D01*
X399400Y270615D02*
Y271440D01*
Y273125D02*
Y273146D01*
Y274377D02*
Y274533D01*
X399500Y270475D02*
Y270899D01*
Y271185D02*
Y271656D01*
Y273125D02*
Y273146D01*
Y274393D02*
Y274568D01*
X399600Y270347D02*
Y270779D01*
Y271385D02*
Y271873D01*
Y273125D02*
Y273146D01*
Y274417D02*
Y274601D01*
X399700Y270247D02*
Y270659D01*
Y271562D02*
Y272091D01*
Y273125D02*
Y273146D01*
Y274442D02*
Y274645D01*
X399800Y270147D02*
Y270552D01*
Y271737D02*
Y272411D01*
Y273125D02*
Y273146D01*
Y274463D02*
Y274689D01*
X399900Y270053D02*
Y270452D01*
Y271977D02*
Y272731D01*
Y273125D02*
Y273146D01*
Y274477D02*
Y274734D01*
X400000Y269969D02*
Y270352D01*
Y272277D02*
Y273051D01*
Y273096D02*
Y273170D01*
Y274491D02*
Y274778D01*
X400100Y269886D02*
Y270252D01*
Y272541D02*
Y273270D01*
Y274506D02*
Y274822D01*
X400200Y269803D02*
Y270204D01*
Y272791D02*
Y273365D01*
Y274519D02*
Y274743D01*
X400300Y269737D02*
Y270161D01*
Y273000D02*
Y273265D01*
Y274519D02*
Y274626D01*
X400400Y269677D02*
Y270118D01*
Y273050D02*
Y273165D01*
X400500Y269628D02*
Y270075D01*
X400600Y269728D02*
Y270033D01*
X400700Y269801D02*
Y269990D01*
X400800Y269841D02*
Y269947D01*
X400900Y269881D02*
Y269904D01*
X401700Y271414D02*
Y273038D01*
X401800Y271173D02*
Y273278D01*
X401900Y270953D02*
Y273498D01*
X402000Y270734D02*
Y271785D01*
Y272666D02*
Y273717D01*
X402100Y270601D02*
Y271187D01*
Y273265D02*
Y273851D01*
X402200Y270476D02*
Y270853D01*
Y273598D02*
Y273976D01*
X402300Y270376D02*
Y270637D01*
Y273772D02*
Y274076D01*
X402400Y270301D02*
Y270498D01*
Y273922D02*
Y274134D01*
X402500Y270251D02*
Y270408D01*
Y274036D02*
Y274159D01*
X402600Y270214D02*
Y270342D01*
Y274070D02*
Y274184D01*
X402700Y270214D02*
Y270296D01*
Y274109D02*
Y274209D01*
X402800Y270214D02*
Y270296D01*
Y274155D02*
Y274234D01*
X402900Y270214D02*
Y270296D01*
Y274126D02*
Y274212D01*
X403000Y270214D02*
Y270298D01*
Y274093D02*
Y274187D01*
X403100Y270247D02*
Y270362D01*
Y274059D02*
Y274162D01*
X403200Y270297D02*
Y270429D01*
Y274023D02*
Y274137D01*
X403300Y270367D02*
Y270529D01*
Y273876D02*
Y274085D01*
X403400Y270467D02*
Y270698D01*
Y273726D02*
Y273985D01*
X403500Y270589D02*
Y271022D01*
Y273429D02*
Y273863D01*
X403600Y270722D02*
Y271669D01*
Y272782D02*
Y273729D01*
X403700Y270934D02*
Y273518D01*
X403800Y271154D02*
Y273298D01*
X403900Y271374D02*
Y273078D01*
X404900Y270329D02*
Y270727D01*
X405000Y270274D02*
Y270782D01*
X405100Y270224D02*
Y270832D01*
X405200Y270266D02*
Y270790D01*
X405300Y270316D02*
Y270740D01*
X405400Y270366D02*
Y270651D01*
X407800Y271179D02*
Y272903D01*
X407900Y270929D02*
Y273227D01*
X408000Y270679D02*
Y273452D01*
X408100Y270578D02*
Y271159D01*
Y271955D02*
Y272120D01*
Y273174D02*
Y273618D01*
X408200Y270478D02*
Y270892D01*
Y272155D02*
Y272243D01*
Y273474D02*
Y273785D01*
X408300Y270401D02*
Y270661D01*
Y272257D02*
Y272376D01*
Y273688D02*
Y273949D01*
X408400Y270334D02*
Y270561D01*
Y272332D02*
Y272476D01*
Y273820D02*
Y274009D01*
X408500Y270283D02*
Y270461D01*
Y272401D02*
Y272558D01*
Y273900D02*
Y274069D01*
X408600Y270233D02*
Y270363D01*
Y272451D02*
Y272598D01*
Y273980D02*
Y274123D01*
X408700Y270214D02*
Y270344D01*
Y272501D02*
Y272638D01*
Y274040D02*
Y274148D01*
X408800Y270214D02*
Y270327D01*
Y272533D02*
Y272673D01*
Y274069D02*
Y274173D01*
X408900Y270214D02*
Y270310D01*
Y272558D02*
Y272698D01*
Y274097D02*
Y274191D01*
X409000Y270225D02*
Y270297D01*
Y272578D02*
Y272717D01*
Y274126D02*
Y274208D01*
X409100Y270239D02*
Y270317D01*
Y272558D02*
Y272692D01*
Y274154D02*
Y274225D01*
X409200Y270254D02*
Y270337D01*
Y272538D02*
Y272667D01*
Y274155D02*
Y274230D01*
X409300Y270268D02*
Y270357D01*
Y272518D02*
Y272642D01*
Y274127D02*
Y274210D01*
X409400Y270330D02*
Y270425D01*
Y272450D02*
Y272617D01*
Y274061D02*
Y274190D01*
X409500Y270413D02*
Y270500D01*
Y272375D02*
Y272573D01*
Y273639D02*
Y274157D01*
X409600Y270496D02*
Y270627D01*
Y272257D02*
Y272506D01*
Y273570D02*
Y274107D01*
X409700Y270591D02*
Y270927D01*
Y272007D02*
Y272439D01*
Y273566D02*
Y274040D01*
X409800Y270731D02*
Y272368D01*
Y273616D02*
Y273887D01*
X409900Y270871D02*
Y272135D01*
X410000Y271261D02*
Y271766D01*
X410600Y274155D02*
Y274177D01*
X410700Y274133D02*
Y274177D01*
X410800Y274100D02*
Y274177D01*
X410900Y273838D02*
Y274177D01*
X411000Y273403D02*
Y274177D01*
X411100Y272981D02*
Y274177D01*
X411200Y272560D02*
Y273780D01*
Y273925D02*
Y274177D01*
X411300Y272138D02*
Y273353D01*
Y274104D02*
Y274177D01*
X411400Y271717D02*
Y272926D01*
Y274153D02*
Y274177D01*
X411500Y271296D02*
Y272498D01*
X411600Y270874D02*
Y272071D01*
X411700Y270453D02*
Y271644D01*
X411800Y270214D02*
Y271216D01*
X411900Y270371D02*
Y270963D01*
X412000Y270765D02*
Y270984D01*
X412100Y271158D02*
Y271377D01*
X412200Y271551D02*
Y271786D01*
X412300Y271945D02*
Y272195D01*
X412400Y272338D02*
Y272604D01*
X412500Y272731D02*
Y273013D01*
Y274155D02*
Y274177D01*
X412600Y273125D02*
Y273422D01*
Y274142D02*
Y274177D01*
X412700Y273518D02*
Y273804D01*
Y274009D02*
Y274177D01*
X412800Y273825D02*
Y274177D01*
X412900Y273991D02*
Y274177D01*
X413000Y274105D02*
Y274177D01*
X413100Y274154D02*
Y274177D01*
X419900Y270214D02*
Y270604D01*
Y273069D02*
Y273279D01*
X420000Y270214D02*
Y270484D01*
Y270575D02*
Y270737D01*
Y272980D02*
Y273629D01*
X420100Y270214D02*
Y270478D01*
Y270675D02*
Y270862D01*
Y272955D02*
Y273797D01*
X420200Y270214D02*
Y270478D01*
Y270782D02*
Y270987D01*
Y272964D02*
Y273458D01*
Y273702D02*
Y273947D01*
X420300Y270214D02*
Y270478D01*
Y270902D02*
Y271109D01*
Y273032D02*
Y273238D01*
Y273846D02*
Y274036D01*
X420400Y270214D02*
Y270478D01*
Y271022D02*
Y271229D01*
Y273946D02*
Y274086D01*
X420500Y270214D02*
Y270478D01*
Y271140D02*
Y271349D01*
Y274018D02*
Y274136D01*
X420600Y270214D02*
Y270478D01*
Y271254D02*
Y271458D01*
Y274085D02*
Y274180D01*
X420700Y270214D02*
Y270478D01*
Y271369D02*
Y271558D01*
Y274110D02*
Y274195D01*
X420800Y270214D02*
Y270478D01*
Y271483D02*
Y271658D01*
Y274130D02*
Y274209D01*
X420900Y270214D02*
Y270478D01*
Y271597D02*
Y271758D01*
Y274150D02*
Y274223D01*
X421000Y270214D02*
Y270478D01*
Y271697D02*
Y271858D01*
Y274145D02*
Y274236D01*
X421100Y270214D02*
Y270478D01*
Y271797D02*
Y271958D01*
Y274128D02*
Y274223D01*
X421200Y270214D02*
Y270478D01*
Y271897D02*
Y272058D01*
Y274111D02*
Y274211D01*
X421300Y270214D02*
Y270478D01*
Y271997D02*
Y272158D01*
Y274095D02*
Y274198D01*
X421400Y270214D02*
Y270478D01*
Y272097D02*
Y272291D01*
Y274030D02*
Y274186D01*
X421500Y270214D02*
Y270483D01*
Y272197D02*
Y272441D01*
Y273955D02*
Y274152D01*
X421600Y270214D02*
Y270516D01*
Y272297D02*
Y272607D01*
Y273853D02*
Y274085D01*
X421700Y270214D02*
Y270555D01*
Y272397D02*
Y272857D01*
Y273653D02*
Y274019D01*
X421800Y270214D02*
Y270622D01*
Y272535D02*
Y273952D01*
X421900Y270214D02*
Y270725D01*
Y272702D02*
Y273791D01*
X422000Y270387D02*
Y271000D01*
Y272937D02*
Y273496D01*
X422900Y271700D02*
Y272751D01*
X423000Y271218D02*
Y273233D01*
X423100Y270998D02*
Y273453D01*
X423200Y270778D02*
Y272051D01*
Y272400D02*
Y273673D01*
X423300Y270628D02*
Y271255D01*
Y273197D02*
Y273823D01*
X423400Y270496D02*
Y270921D01*
Y273530D02*
Y273955D01*
X423500Y270396D02*
Y270678D01*
Y273741D02*
Y274055D01*
X423600Y270311D02*
Y270519D01*
Y273891D02*
Y274129D01*
X423700Y270261D02*
Y270422D01*
Y274029D02*
Y274154D01*
X423800Y270214D02*
Y270355D01*
Y274063D02*
Y274179D01*
X423900Y270214D02*
Y270296D01*
Y274099D02*
Y274204D01*
X424000Y270214D02*
Y270296D01*
Y274149D02*
Y274229D01*
X424100Y270214D02*
Y270296D01*
Y274133D02*
Y274217D01*
X424200Y270214D02*
Y270296D01*
Y274100D02*
Y274192D01*
X424300Y270236D02*
Y270348D01*
Y274066D02*
Y274167D01*
X424400Y270286D02*
Y270415D01*
Y274033D02*
Y274142D01*
X424500Y270346D02*
Y270508D01*
Y273907D02*
Y274105D01*
X424600Y270446D02*
Y270657D01*
Y273757D02*
Y274005D01*
X424700Y270562D02*
Y270920D01*
Y273531D02*
Y273890D01*
X424800Y270695D02*
Y271420D01*
Y273031D02*
Y273756D01*
X424900Y270889D02*
Y273563D01*
X425000Y271109D02*
Y273343D01*
X425100Y271329D02*
Y273123D01*
X425900Y270214D02*
Y270520D01*
X426000Y270214D02*
Y270653D01*
Y272996D02*
Y273409D01*
X426100Y270214D02*
Y270478D01*
Y270612D02*
Y270783D01*
Y272971D02*
Y273702D01*
X426200Y270214D02*
Y270478D01*
Y270712D02*
Y270908D01*
Y272946D02*
Y273852D01*
X426300Y270214D02*
Y270478D01*
Y270826D02*
Y271033D01*
Y272976D02*
Y273384D01*
Y273783D02*
Y274002D01*
X426400Y270214D02*
Y270478D01*
Y270946D02*
Y271154D01*
Y273883D02*
Y274055D01*
X426500Y270214D02*
Y270478D01*
Y271066D02*
Y271274D01*
Y273976D02*
Y274105D01*
X426600Y270214D02*
Y270478D01*
Y271182D02*
Y271394D01*
Y274043D02*
Y274155D01*
X426700Y270214D02*
Y270478D01*
Y271297D02*
Y271495D01*
Y274097D02*
Y274186D01*
X426800Y270214D02*
Y270478D01*
Y271411D02*
Y271595D01*
Y274117D02*
Y274200D01*
X426900Y270214D02*
Y270478D01*
Y271525D02*
Y271695D01*
Y274137D02*
Y274214D01*
X427000Y270214D02*
Y270478D01*
Y271634D02*
Y271795D01*
Y274155D02*
Y274229D01*
X427100Y270214D02*
Y270478D01*
Y271734D02*
Y271895D01*
Y274139D02*
Y274231D01*
X427200Y270214D02*
Y270478D01*
Y271834D02*
Y271995D01*
Y274122D02*
Y274219D01*
X427300Y270214D02*
Y270478D01*
Y271934D02*
Y272095D01*
Y274105D02*
Y274206D01*
X427400Y270214D02*
Y270478D01*
Y272034D02*
Y272196D01*
Y274077D02*
Y274194D01*
X427500Y270214D02*
Y270478D01*
Y272134D02*
Y272346D01*
Y274002D02*
Y274181D01*
X427600Y270214D02*
Y270495D01*
Y272234D02*
Y272496D01*
Y273927D02*
Y274127D01*
X427700Y270214D02*
Y270528D01*
Y272334D02*
Y272700D01*
Y273779D02*
Y274061D01*
X427800Y270214D02*
Y270580D01*
Y272434D02*
Y273048D01*
Y273465D02*
Y273994D01*
X427900Y270214D02*
Y270646D01*
Y272597D02*
Y273896D01*
X428000Y270214D02*
Y270836D01*
Y272779D02*
Y273729D01*
X428100Y270702D02*
Y271093D01*
X429000Y270214D02*
Y270611D01*
Y273058D02*
Y273299D01*
X429100Y270214D02*
Y270481D01*
Y270581D02*
Y270744D01*
Y272979D02*
Y273649D01*
X429200Y270214D02*
Y270478D01*
Y270681D02*
Y270869D01*
Y272954D02*
Y273805D01*
X429300Y270214D02*
Y270478D01*
Y270788D02*
Y270994D01*
Y272966D02*
Y273447D01*
Y273718D02*
Y273955D01*
X429400Y270214D02*
Y270478D01*
Y270908D02*
Y271116D01*
Y273048D02*
Y273222D01*
Y273852D02*
Y274039D01*
X429500Y270214D02*
Y270478D01*
Y271028D02*
Y271236D01*
Y273952D02*
Y274089D01*
X429600Y270214D02*
Y270478D01*
Y271146D02*
Y271356D01*
Y274022D02*
Y274139D01*
X429700Y270214D02*
Y270478D01*
Y271261D02*
Y271464D01*
Y274088D02*
Y274181D01*
X429800Y270214D02*
Y270478D01*
Y271375D02*
Y271564D01*
Y274111D02*
Y274195D01*
X429900Y270214D02*
Y270478D01*
Y271489D02*
Y271664D01*
Y274131D02*
Y274210D01*
X430000Y270214D02*
Y270478D01*
Y271602D02*
Y271764D01*
Y274151D02*
Y274224D01*
X430100Y270214D02*
Y270478D01*
Y271702D02*
Y271864D01*
Y274144D02*
Y274235D01*
X430200Y270214D02*
Y270478D01*
Y271802D02*
Y271964D01*
Y274127D02*
Y274223D01*
X430300Y270214D02*
Y270478D01*
Y271902D02*
Y272064D01*
Y274110D02*
Y274210D01*
X430400Y270214D02*
Y270478D01*
Y272002D02*
Y272164D01*
Y274094D02*
Y274198D01*
X430500Y270214D02*
Y270478D01*
Y272102D02*
Y272299D01*
Y274025D02*
Y274185D01*
X430600Y270214D02*
Y270484D01*
Y272202D02*
Y272449D01*
Y273950D02*
Y274148D01*
X430700Y270214D02*
Y270518D01*
Y272302D02*
Y272621D01*
Y273842D02*
Y274082D01*
X430800Y270214D02*
Y270559D01*
Y272402D02*
Y272871D01*
Y273642D02*
Y274015D01*
X430900Y270214D02*
Y270625D01*
Y272545D02*
Y273948D01*
X431000Y270214D02*
Y270742D01*
Y272711D02*
Y273781D01*
X431100Y270434D02*
Y271014D01*
Y272950D02*
Y273458D01*
X431900Y272215D02*
Y272358D01*
X432000Y272215D02*
Y272358D01*
X432100Y272215D02*
Y272358D01*
X432200Y272215D02*
Y272358D01*
X432300Y272215D02*
Y272358D01*
X432400Y272215D02*
Y272358D01*
X432500Y272215D02*
Y272358D01*
X432600Y272215D02*
Y272358D01*
X432700Y272215D02*
Y272358D01*
X432800Y272215D02*
Y272358D01*
X432900Y272215D02*
Y272358D01*
X433000Y272215D02*
Y272358D01*
X433100Y272215D02*
Y272358D01*
X433200Y272215D02*
Y272358D01*
X433300Y272215D02*
Y272358D01*
X433400Y272215D02*
Y272358D01*
X433500Y272215D02*
Y272358D01*
X433600Y272215D02*
Y272358D01*
X433700Y272215D02*
Y272358D01*
X433800Y272215D02*
Y272358D01*
X433900Y272215D02*
Y272358D01*
X434000Y272215D02*
Y272358D01*
X434100Y272215D02*
Y272358D01*
X434200Y272215D02*
Y272358D01*
X434300Y272215D02*
Y272358D01*
X435100Y270763D02*
Y271211D01*
X435200Y270640D02*
Y271270D01*
X435300Y270540D02*
Y271318D01*
Y272126D02*
Y273313D01*
X435400Y270443D02*
Y270622D01*
Y270798D02*
Y271252D01*
Y272109D02*
Y272253D01*
Y273423D02*
Y274177D01*
X435500Y270383D02*
Y270441D01*
Y272309D02*
Y272353D01*
Y273913D02*
Y274177D01*
X435600Y270323D02*
Y270357D01*
Y272370D02*
Y272453D01*
Y273913D02*
Y274177D01*
X435700Y270271D02*
Y270346D01*
Y272420D02*
Y272537D01*
Y273913D02*
Y274177D01*
X435800Y270256D02*
Y270335D01*
Y272463D02*
Y272612D01*
Y273913D02*
Y274177D01*
X435900Y270242D02*
Y270324D01*
Y272492D02*
Y272668D01*
Y273913D02*
Y274177D01*
X436000Y270228D02*
Y270313D01*
Y272520D02*
Y272682D01*
Y273913D02*
Y274177D01*
X436100Y270216D02*
Y270302D01*
Y272549D02*
Y272696D01*
Y273913D02*
Y274177D01*
X436200Y270227D02*
Y270305D01*
Y272578D02*
Y272711D01*
Y273913D02*
Y274177D01*
X436300Y270238D02*
Y270325D01*
Y272562D02*
Y272717D01*
Y273913D02*
Y274177D01*
X436400Y270249D02*
Y270345D01*
Y272542D02*
Y272703D01*
Y273913D02*
Y274177D01*
X436500Y270260D02*
Y270380D01*
Y272522D02*
Y272688D01*
Y273913D02*
Y274177D01*
X436600Y270271D02*
Y270460D01*
Y272454D02*
Y272674D01*
Y273913D02*
Y274177D01*
X436700Y270343D02*
Y270540D01*
Y272354D02*
Y272637D01*
Y273913D02*
Y274177D01*
X436800Y270427D02*
Y270623D01*
Y272252D02*
Y272537D01*
Y273913D02*
Y274177D01*
X436900Y270510D02*
Y270920D01*
Y272003D02*
Y272437D01*
Y273913D02*
Y274177D01*
X437000Y270629D02*
Y272317D01*
Y273913D02*
Y274177D01*
X437100Y270804D02*
Y272167D01*
Y273913D02*
Y274177D01*
X437200Y271032D02*
Y271979D01*
X437900Y272215D02*
Y272358D01*
X438000Y272215D02*
Y272358D01*
X438100Y272215D02*
Y272358D01*
X438200Y272215D02*
Y272358D01*
X438300Y272215D02*
Y272358D01*
X438400Y272215D02*
Y272358D01*
X438500Y272215D02*
Y272358D01*
X438600Y272215D02*
Y272358D01*
X438700Y272215D02*
Y272358D01*
X438800Y272215D02*
Y272358D01*
X438900Y272215D02*
Y272358D01*
X439000Y272215D02*
Y272358D01*
X439100Y272215D02*
Y272358D01*
X439200Y272215D02*
Y272358D01*
X439300Y272215D02*
Y272358D01*
X439400Y272215D02*
Y272358D01*
X439500Y272215D02*
Y272358D01*
X439600Y272215D02*
Y272358D01*
X439700Y272215D02*
Y272358D01*
X439800Y272215D02*
Y272358D01*
X439900Y272215D02*
Y272358D01*
X440000Y272215D02*
Y272358D01*
X440100Y272215D02*
Y272358D01*
X440200Y272215D02*
Y272358D01*
X440300Y272215D02*
Y272358D01*
X440400Y272215D02*
Y272358D01*
X441200Y270703D02*
Y271238D01*
X441300Y270603D02*
Y271288D01*
Y272142D02*
Y272211D01*
X441400Y270503D02*
Y271294D01*
Y272117D02*
Y272243D01*
Y272604D02*
Y273961D01*
X441500Y270421D02*
Y270511D01*
Y270910D02*
Y271227D01*
Y272183D02*
Y272290D01*
Y273880D02*
Y274177D01*
X441600Y270361D02*
Y270404D01*
Y272338D02*
Y272390D01*
Y273913D02*
Y274177D01*
X441700Y270301D02*
Y270353D01*
Y272388D02*
Y272490D01*
Y273913D02*
Y274177D01*
X441800Y270265D02*
Y270342D01*
Y272438D02*
Y272565D01*
Y273913D02*
Y274177D01*
X441900Y270251D02*
Y270331D01*
Y272474D02*
Y272640D01*
Y273913D02*
Y274177D01*
X442000Y270237D02*
Y270320D01*
Y272502D02*
Y272673D01*
Y273913D02*
Y274177D01*
X442100Y270222D02*
Y270309D01*
Y272531D02*
Y272687D01*
Y273913D02*
Y274177D01*
X442200Y270220D02*
Y270297D01*
Y272560D02*
Y272702D01*
Y273913D02*
Y274177D01*
X442300Y270231D02*
Y270312D01*
Y272575D02*
Y272716D01*
Y273913D02*
Y274177D01*
X442400Y270242D02*
Y270332D01*
Y272555D02*
Y272712D01*
Y273913D02*
Y274177D01*
X442500Y270253D02*
Y270352D01*
Y272535D02*
Y272697D01*
Y273913D02*
Y274177D01*
X442600Y270264D02*
Y270409D01*
Y272513D02*
Y272683D01*
Y273913D02*
Y274177D01*
X442700Y270291D02*
Y270489D01*
Y272417D02*
Y272669D01*
Y273913D02*
Y274177D01*
X442800Y270374D02*
Y270569D01*
Y272317D02*
Y272600D01*
Y273913D02*
Y274177D01*
X442900Y270458D02*
Y270731D01*
Y272161D02*
Y272500D01*
Y273913D02*
Y274177D01*
X443000Y270541D02*
Y271078D01*
Y271866D02*
Y272400D01*
Y273913D02*
Y274177D01*
X443100Y270694D02*
Y272262D01*
Y273913D02*
Y274177D01*
X443200Y270869D02*
Y272112D01*
Y273913D02*
Y274177D01*
X443300Y271402D02*
Y271683D01*
X449000Y554421D02*
Y554571D01*
X449100Y551907D02*
Y552024D01*
Y553091D02*
Y553172D01*
Y554281D02*
Y554671D01*
X449200Y551767D02*
Y552044D01*
Y552916D02*
Y553239D01*
Y554322D02*
Y554548D01*
Y554618D02*
Y554786D01*
X449300Y551764D02*
Y552067D01*
Y552849D02*
Y553336D01*
Y554355D02*
Y554536D01*
Y554751D02*
Y554919D01*
X449400Y551822D02*
Y552092D01*
Y552909D02*
Y553183D01*
Y553328D02*
Y553436D01*
Y554380D02*
Y554542D01*
Y554884D02*
Y555073D01*
X449500Y551865D02*
Y552117D01*
Y552969D02*
Y553203D01*
Y553411D02*
Y553536D01*
Y554408D02*
Y554547D01*
Y555018D02*
Y555240D01*
X449600Y551908D02*
Y552142D01*
Y553013D02*
Y553224D01*
Y553494D02*
Y553646D01*
Y554442D02*
Y554553D01*
Y555151D02*
Y555421D01*
X449700Y551951D02*
Y552167D01*
Y553056D02*
Y553245D01*
Y553586D02*
Y553779D01*
Y554475D02*
Y554558D01*
Y555284D02*
Y555604D01*
X449800Y551997D02*
Y552194D01*
Y553099D02*
Y553266D01*
Y553703D02*
Y553908D01*
Y554508D02*
Y554564D01*
Y555442D02*
Y555787D01*
X449900Y552047D02*
Y552221D01*
Y553141D02*
Y553286D01*
Y553820D02*
Y554033D01*
Y554526D02*
Y554569D01*
Y555609D02*
Y555996D01*
X450000Y552097D02*
Y552248D01*
Y553177D02*
Y553307D01*
Y553936D02*
Y554157D01*
Y554540D02*
Y554575D01*
Y555776D02*
Y556271D01*
X450100Y552147D02*
Y552275D01*
Y553211D02*
Y553328D01*
Y554062D02*
Y554277D01*
Y554554D02*
Y554581D01*
Y555942D02*
Y556503D01*
X450200Y552197D02*
Y552303D01*
Y553244D02*
Y553348D01*
Y554191D02*
Y554397D01*
Y554568D02*
Y554586D01*
Y556109D02*
Y556431D01*
X450300Y552247D02*
Y552330D01*
Y553277D02*
Y553369D01*
Y554319D02*
Y554592D01*
Y556238D02*
Y556360D01*
X450400Y552293D02*
Y552358D01*
Y553311D02*
Y553390D01*
Y554448D02*
Y554717D01*
X450500Y552336D02*
Y552386D01*
Y553343D02*
Y553410D01*
Y554574D02*
Y554892D01*
X450600Y552378D02*
Y552415D01*
Y553373D02*
Y553431D01*
Y554699D02*
Y555072D01*
X450700Y551831D02*
Y551875D01*
Y552421D02*
Y552443D01*
Y553403D02*
Y553452D01*
Y554824D02*
Y555272D01*
X450800Y551807D02*
Y551875D01*
Y552464D02*
Y552472D01*
Y553433D02*
Y553472D01*
Y554949D02*
Y555437D01*
X450900Y551817D02*
Y551875D01*
Y553463D02*
Y553493D01*
Y555074D02*
Y555352D01*
X451000Y551827D02*
Y551875D01*
Y553493D02*
Y553514D01*
Y555137D02*
Y555266D01*
X451100Y551837D02*
Y551875D01*
Y555550D02*
Y555596D01*
X451200Y551847D02*
Y551875D01*
Y555527D02*
Y555596D01*
X451300Y551857D02*
Y551875D01*
Y555538D02*
Y555596D01*
X451400Y551857D02*
Y551875D01*
Y555549D02*
Y555596D01*
X451500Y551857D02*
Y551875D01*
Y555560D02*
Y555596D01*
X451600Y551857D02*
Y551875D01*
Y555571D02*
Y555596D01*
X451700Y551857D02*
Y551875D01*
Y555578D02*
Y555596D01*
X451800Y551857D02*
Y551875D01*
Y555578D02*
Y555596D01*
X451900Y551857D02*
Y551875D01*
Y555578D02*
Y555596D01*
X452000Y551857D02*
Y551875D01*
Y555578D02*
Y555596D01*
X452100Y551857D02*
Y551875D01*
Y555578D02*
Y555596D01*
X452200Y551857D02*
Y555596D01*
X452300Y551857D02*
Y555596D01*
X452400Y551857D02*
Y555596D01*
X452500Y551857D02*
Y551875D01*
Y555578D02*
Y555596D01*
X452600Y551857D02*
Y551875D01*
Y555578D02*
Y555596D01*
X452700Y551857D02*
Y551875D01*
Y555578D02*
Y555596D01*
X452800Y551857D02*
Y551875D01*
Y555578D02*
Y555596D01*
X452900Y551857D02*
Y551875D01*
Y555578D02*
Y555596D01*
X453000Y551857D02*
Y551875D01*
Y555578D02*
Y555596D01*
X453100Y551857D02*
Y551875D01*
Y555578D02*
Y555602D01*
X453200Y551857D02*
Y551875D01*
Y555578D02*
Y555700D01*
X453300Y551857D02*
Y551875D01*
Y555578D02*
Y555800D01*
X453400Y551857D02*
Y551943D01*
Y555578D02*
Y555900D01*
X453500Y551857D02*
Y552043D01*
Y555578D02*
Y555858D01*
X453600Y551857D02*
Y552143D01*
Y555578D02*
Y555758D01*
X453700Y551857D02*
Y552164D01*
Y555578D02*
Y555658D01*
X453800Y551857D02*
Y552050D01*
X453900Y551857D02*
Y551935D01*
X454800Y554406D02*
X454800D01*
X454900Y554483D02*
Y554506D01*
X455000Y554559D02*
Y554606D01*
X455100Y554636D02*
Y554706D01*
X455200Y554713D02*
Y554809D01*
X455300Y554790D02*
Y554920D01*
X455400Y554867D02*
Y555031D01*
X455500Y554928D02*
Y555142D01*
X455600Y551800D02*
Y555253D01*
X455700Y551702D02*
Y555017D01*
Y555094D02*
Y555364D01*
X455800Y551665D02*
Y552064D01*
Y553570D02*
Y553588D01*
Y554869D02*
Y554917D01*
Y555211D02*
Y555516D01*
X455900Y551640D02*
Y551876D01*
Y553570D02*
Y553588D01*
Y554869D02*
Y554887D01*
Y555328D02*
Y555673D01*
X456000Y551621D02*
Y551851D01*
Y553570D02*
Y553588D01*
Y554869D02*
Y554887D01*
Y555444D02*
Y555830D01*
X456100Y551621D02*
Y551826D01*
Y553570D02*
Y553588D01*
Y554869D02*
Y554887D01*
Y555560D02*
Y555987D01*
X456200Y551621D02*
Y551816D01*
Y553570D02*
Y553588D01*
Y554869D02*
Y554887D01*
Y555674D02*
Y556154D01*
X456300Y551621D02*
Y551816D01*
Y553570D02*
Y553588D01*
Y554869D02*
Y554887D01*
Y555788D02*
Y556326D01*
X456400Y551621D02*
Y551816D01*
Y553570D02*
Y553588D01*
Y554869D02*
Y554887D01*
Y555903D02*
Y556497D01*
X456500Y551621D02*
Y551816D01*
Y553570D02*
Y553588D01*
Y554869D02*
Y554887D01*
Y555991D02*
Y556668D01*
X456600Y551621D02*
Y551816D01*
Y553570D02*
Y553588D01*
Y554869D02*
Y554887D01*
Y555991D02*
Y556009D01*
Y556190D02*
Y556630D01*
X456700Y551621D02*
Y551816D01*
Y553570D02*
Y553588D01*
Y554869D02*
Y554887D01*
Y555991D02*
Y556009D01*
Y556315D02*
Y556555D01*
X456800Y551621D02*
Y551816D01*
Y553570D02*
Y553588D01*
Y554869D02*
Y554887D01*
Y555991D02*
Y556009D01*
Y556409D02*
Y556480D01*
X456900Y551621D02*
Y551816D01*
Y553570D02*
Y553588D01*
Y554869D02*
Y554887D01*
Y555991D02*
Y556009D01*
X457000Y551621D02*
Y551816D01*
Y553570D02*
Y553588D01*
Y554869D02*
Y554887D01*
Y555991D02*
Y556009D01*
X457100Y551621D02*
Y551816D01*
Y553570D02*
Y553588D01*
Y554869D02*
Y554887D01*
Y555991D02*
Y556009D01*
X457200Y551621D02*
Y551816D01*
Y553570D02*
Y554887D01*
Y555991D02*
Y556009D01*
X457300Y551621D02*
Y551816D01*
Y553570D02*
Y554899D01*
Y555991D02*
Y556009D01*
X457400Y551621D02*
Y551816D01*
Y553570D02*
Y553616D01*
Y554841D02*
Y554887D01*
Y555030D02*
Y555063D01*
Y555991D02*
Y556009D01*
X457500Y551621D02*
Y551816D01*
Y553570D02*
Y553588D01*
Y554869D02*
Y554887D01*
Y555147D02*
Y555233D01*
Y555991D02*
Y556009D01*
X457600Y551621D02*
Y551816D01*
Y553570D02*
Y553588D01*
Y554869D02*
Y554887D01*
Y555264D02*
Y555403D01*
Y555991D02*
Y556009D01*
X457700Y551621D02*
Y551816D01*
Y553570D02*
Y553588D01*
Y554869D02*
Y554887D01*
Y555380D02*
Y555573D01*
Y555991D02*
Y556009D01*
X457800Y551621D02*
Y551816D01*
Y553570D02*
Y553588D01*
Y554869D02*
Y554887D01*
Y555481D02*
Y555743D01*
Y555991D02*
Y556009D01*
X457900Y551621D02*
Y551816D01*
Y553570D02*
Y553588D01*
Y554869D02*
Y554887D01*
Y555581D02*
Y555913D01*
Y555968D02*
Y556031D01*
X458000Y551621D02*
Y551816D01*
Y553570D02*
Y553588D01*
Y554869D02*
Y554887D01*
Y555681D02*
Y556156D01*
X458100Y551621D02*
Y551816D01*
Y553570D02*
Y553588D01*
Y554869D02*
Y554887D01*
Y555757D02*
Y556272D01*
X458200Y551621D02*
Y551816D01*
Y553570D02*
Y553588D01*
Y554869D02*
Y554887D01*
Y555832D02*
Y556158D01*
X458300Y551621D02*
Y551816D01*
Y553570D02*
Y553588D01*
Y554869D02*
Y554887D01*
Y555881D02*
Y556044D01*
X458400Y551621D02*
Y551816D01*
Y553570D02*
Y553588D01*
Y554869D02*
Y554887D01*
Y555906D02*
Y555929D01*
X458500Y551621D02*
Y551816D01*
Y553570D02*
Y553588D01*
Y554869D02*
Y554887D01*
X458600Y551621D02*
Y551816D01*
Y553570D02*
Y553588D01*
Y554869D02*
Y554887D01*
X458700Y551621D02*
Y551816D01*
Y553570D02*
Y553588D01*
Y554869D02*
Y554889D01*
X458800Y551621D02*
Y551816D01*
Y553301D02*
Y555007D01*
X458900Y551621D02*
Y551816D01*
Y553341D02*
Y555077D01*
X459000Y551621D02*
Y551816D01*
Y554732D02*
Y554993D01*
X459100Y551621D02*
Y551816D01*
Y554832D02*
Y554910D01*
X459200Y551621D02*
Y551816D01*
X459300Y551621D02*
Y551841D01*
X459400Y551642D02*
Y551875D01*
X459500Y551670D02*
Y552086D01*
X459600Y551699D02*
Y552812D01*
X459700Y551727D02*
Y552325D01*
X459800Y551812D02*
Y552050D01*
X459900Y551912D02*
Y552000D01*
X475000Y552514D02*
Y552537D01*
X475100Y552466D02*
Y552537D01*
X475200Y552476D02*
Y552537D01*
X475300Y551160D02*
Y551316D01*
Y552486D02*
Y552537D01*
X475400Y551160D02*
Y551436D01*
Y552496D02*
Y552537D01*
X475500Y551160D02*
Y551556D01*
Y552506D02*
Y552537D01*
Y553186D02*
Y553245D01*
X475600Y551215D02*
Y551717D01*
Y552516D02*
Y552537D01*
Y553179D02*
Y553245D01*
X475700Y551315D02*
Y551960D01*
Y552519D02*
Y552537D01*
Y553190D02*
Y553245D01*
Y553891D02*
Y555889D01*
X475800Y551828D02*
Y552241D01*
Y552519D02*
Y552537D01*
Y553201D02*
Y553245D01*
Y553941D02*
Y555839D01*
X475900Y552519D02*
Y552537D01*
Y553212D02*
Y553245D01*
Y554109D02*
Y554135D01*
Y555762D02*
Y555789D01*
X476000Y552519D02*
Y552537D01*
Y553223D02*
Y553245D01*
Y554113D02*
Y554131D01*
Y555767D02*
Y555785D01*
X476100Y552519D02*
Y552537D01*
Y553227D02*
Y553245D01*
Y554113D02*
Y554131D01*
Y555767D02*
Y555785D01*
X476200Y552519D02*
Y552537D01*
Y553227D02*
Y553245D01*
Y554113D02*
Y554131D01*
Y555767D02*
Y555785D01*
X476300Y552519D02*
Y552537D01*
Y553227D02*
Y553245D01*
Y554113D02*
Y554131D01*
Y555767D02*
Y555785D01*
X476400Y552519D02*
Y552537D01*
Y553227D02*
Y553245D01*
Y554113D02*
Y554131D01*
Y555767D02*
Y555785D01*
X476500Y552519D02*
Y552537D01*
Y553227D02*
Y553245D01*
Y554113D02*
Y554131D01*
Y555767D02*
Y555785D01*
X476600Y551979D02*
Y552072D01*
Y552519D02*
Y552537D01*
Y553227D02*
Y553245D01*
Y554113D02*
Y554131D01*
Y555767D02*
Y555785D01*
X476700Y551692D02*
Y551972D01*
Y552519D02*
Y552537D01*
Y553227D02*
Y553245D01*
Y554113D02*
Y554131D01*
Y555767D02*
Y555785D01*
X476800Y551187D02*
Y551872D01*
Y552519D02*
Y552537D01*
Y553227D02*
Y553245D01*
Y554113D02*
Y554131D01*
Y555767D02*
Y555785D01*
X476900Y551157D02*
Y551748D01*
Y552519D02*
Y552537D01*
Y553227D02*
Y553245D01*
Y554113D02*
Y554131D01*
Y555767D02*
Y555785D01*
X477000Y551315D02*
Y551610D01*
Y552519D02*
Y552537D01*
Y553227D02*
Y553245D01*
Y554113D02*
Y554131D01*
Y555767D02*
Y555785D01*
X477100Y552519D02*
Y552537D01*
Y553227D02*
Y553245D01*
Y554113D02*
Y554131D01*
Y555767D02*
Y555785D01*
X477200Y552519D02*
Y552537D01*
Y553227D02*
Y553245D01*
Y554113D02*
Y554131D01*
Y555767D02*
Y555785D01*
X477300Y552519D02*
Y552542D01*
Y553222D02*
Y553250D01*
Y554108D02*
Y554136D01*
Y555762D02*
Y555785D01*
X477400Y552519D02*
Y555785D01*
X477500Y552519D02*
Y555785D01*
X477600Y552519D02*
Y552537D01*
Y553227D02*
Y553245D01*
Y554113D02*
Y554131D01*
Y555767D02*
Y555785D01*
X477700Y552143D02*
Y552160D01*
Y552519D02*
Y552537D01*
Y553227D02*
Y553245D01*
Y554113D02*
Y554131D01*
Y555767D02*
Y555785D01*
X477800Y551909D02*
Y552077D01*
Y552519D02*
Y552537D01*
Y553227D02*
Y553245D01*
Y554113D02*
Y554131D01*
Y555767D02*
Y555785D01*
X477900Y551626D02*
Y551994D01*
Y552519D02*
Y552537D01*
Y553227D02*
Y553245D01*
Y554113D02*
Y554131D01*
Y555767D02*
Y555785D01*
X478000Y551288D02*
Y551910D01*
Y552519D02*
Y552537D01*
Y553227D02*
Y553245D01*
Y554113D02*
Y554131D01*
Y555767D02*
Y555785D01*
X478100Y551176D02*
Y551812D01*
Y552519D02*
Y552537D01*
Y553227D02*
Y553245D01*
Y554113D02*
Y554131D01*
Y555767D02*
Y555785D01*
X478200Y551294D02*
Y551683D01*
Y552519D02*
Y552537D01*
Y553227D02*
Y553245D01*
Y554113D02*
Y554131D01*
Y555767D02*
Y555785D01*
X478300Y552519D02*
Y552537D01*
Y553227D02*
Y553245D01*
Y554113D02*
Y554131D01*
Y555767D02*
Y555785D01*
X478400Y552519D02*
Y552537D01*
Y553227D02*
Y553245D01*
Y554113D02*
Y554131D01*
Y555767D02*
Y555785D01*
X478500Y552519D02*
Y552537D01*
Y553227D02*
Y553245D01*
Y554113D02*
Y554131D01*
Y555767D02*
Y555785D01*
X478600Y552519D02*
Y552537D01*
Y553227D02*
Y553245D01*
Y554113D02*
Y554131D01*
Y555767D02*
Y555785D01*
X478700Y552519D02*
Y552537D01*
Y553227D02*
Y553245D01*
Y554113D02*
Y554131D01*
Y555767D02*
Y555785D01*
X478800Y552519D02*
Y552537D01*
Y553227D02*
Y553329D01*
Y554113D02*
Y554131D01*
Y555767D02*
Y555785D01*
X478900Y552104D02*
Y552168D01*
Y552519D02*
Y552537D01*
Y553227D02*
Y553429D01*
Y554113D02*
Y554131D01*
Y555767D02*
Y555785D01*
X479000Y551954D02*
Y552097D01*
Y552519D02*
Y552537D01*
Y553227D02*
Y553516D01*
Y554112D02*
Y554132D01*
Y555766D02*
Y555785D01*
X479100Y551804D02*
Y552025D01*
Y552519D02*
Y552537D01*
Y553227D02*
Y553429D01*
Y553937D02*
Y555897D01*
X479200Y551642D02*
Y551954D01*
Y552519D02*
Y552616D01*
Y553227D02*
Y553341D01*
Y553987D02*
Y555968D01*
X479300Y551467D02*
Y551879D01*
Y552519D02*
Y552733D01*
Y553227D02*
Y553254D01*
Y555612D02*
Y555868D01*
X479400Y551281D02*
Y551804D01*
Y552519D02*
Y552849D01*
Y555687D02*
Y555768D01*
X479500Y551118D02*
Y551687D01*
Y552519D02*
Y552883D01*
X479600Y551351D02*
Y551552D01*
Y552519D02*
Y552771D01*
X479700Y552519D02*
Y552658D01*
X479800Y552519D02*
Y552546D01*
X480800Y554023D02*
Y554030D01*
X480900Y554100D02*
Y554130D01*
X481000Y554177D02*
Y554230D01*
X481100Y554254D02*
Y554330D01*
X481200Y554331D02*
Y554435D01*
X481300Y554408D02*
Y554546D01*
X481400Y554485D02*
Y554657D01*
X481500Y554517D02*
Y554768D01*
X481600Y551361D02*
Y554879D01*
X481700Y551288D02*
Y554590D01*
Y554722D02*
Y554996D01*
X481800Y551257D02*
Y551600D01*
Y553168D02*
Y553186D01*
Y554467D02*
Y554492D01*
Y554838D02*
Y555153D01*
X481900Y551232D02*
Y551468D01*
Y553168D02*
Y553186D01*
Y554467D02*
Y554485D01*
Y554955D02*
Y555310D01*
X482000Y551219D02*
Y551443D01*
Y553168D02*
Y553186D01*
Y554467D02*
Y554485D01*
Y555072D02*
Y555467D01*
X482100Y551219D02*
Y551418D01*
Y553168D02*
Y553186D01*
Y554467D02*
Y554485D01*
Y555187D02*
Y555625D01*
X482200Y551219D02*
Y551415D01*
Y553168D02*
Y553186D01*
Y554467D02*
Y554485D01*
Y555301D02*
Y555795D01*
X482300Y551219D02*
Y551415D01*
Y553168D02*
Y553186D01*
Y554467D02*
Y554485D01*
Y555415D02*
Y555967D01*
X482400Y551219D02*
Y551415D01*
Y553168D02*
Y553186D01*
Y554467D02*
Y554485D01*
Y555530D02*
Y556138D01*
X482500Y551219D02*
Y551415D01*
Y553168D02*
Y553186D01*
Y554467D02*
Y554485D01*
Y555589D02*
Y555621D01*
Y555695D02*
Y556285D01*
X482600Y551219D02*
Y551415D01*
Y553168D02*
Y553186D01*
Y554467D02*
Y554485D01*
Y555589D02*
Y555607D01*
Y555820D02*
Y556210D01*
X482700Y551219D02*
Y551415D01*
Y553168D02*
Y553186D01*
Y554467D02*
Y554485D01*
Y555589D02*
Y555607D01*
Y555945D02*
Y556135D01*
X482800Y551219D02*
Y551415D01*
Y553168D02*
Y553186D01*
Y554467D02*
Y554485D01*
Y555589D02*
Y555607D01*
Y556015D02*
Y556060D01*
X482900Y551219D02*
Y551415D01*
Y553168D02*
Y553186D01*
Y554467D02*
Y554485D01*
Y555589D02*
Y555607D01*
X483000Y551219D02*
Y551415D01*
Y553168D02*
Y553186D01*
Y554467D02*
Y554485D01*
Y555589D02*
Y555607D01*
X483100Y551219D02*
Y551415D01*
Y553168D02*
Y553186D01*
Y554467D02*
Y554485D01*
Y555589D02*
Y555607D01*
X483200Y551219D02*
Y551415D01*
Y553168D02*
Y554485D01*
Y555589D02*
Y555607D01*
X483300Y551219D02*
Y551415D01*
Y553168D02*
Y554534D01*
Y555589D02*
Y555607D01*
X483400Y551219D02*
Y551415D01*
Y553168D02*
Y553190D01*
Y554463D02*
Y554485D01*
Y554658D02*
Y554704D01*
Y555589D02*
Y555607D01*
X483500Y551219D02*
Y551415D01*
Y553168D02*
Y553186D01*
Y554467D02*
Y554485D01*
Y554775D02*
Y554874D01*
Y555589D02*
Y555607D01*
X483600Y551219D02*
Y551415D01*
Y553168D02*
Y553186D01*
Y554467D02*
Y554485D01*
Y554891D02*
Y555044D01*
Y555589D02*
Y555607D01*
X483700Y551219D02*
Y551415D01*
Y553168D02*
Y553186D01*
Y554467D02*
Y554485D01*
Y555004D02*
Y555214D01*
Y555589D02*
Y555607D01*
X483800Y551219D02*
Y551415D01*
Y553168D02*
Y553186D01*
Y554467D02*
Y554485D01*
Y555104D02*
Y555384D01*
Y555589D02*
Y555607D01*
X483900Y551219D02*
Y551415D01*
Y553168D02*
Y553186D01*
Y554467D02*
Y554485D01*
Y555204D02*
Y555661D01*
X484000Y551219D02*
Y551415D01*
Y553168D02*
Y553186D01*
Y554467D02*
Y554485D01*
Y555299D02*
Y555786D01*
X484100Y551219D02*
Y551415D01*
Y553168D02*
Y553186D01*
Y554467D02*
Y554485D01*
Y555374D02*
Y555842D01*
X484200Y551219D02*
Y551415D01*
Y553168D02*
Y553186D01*
Y554467D02*
Y554485D01*
Y555449D02*
Y555728D01*
X484300Y551219D02*
Y551415D01*
Y553168D02*
Y553186D01*
Y554467D02*
Y554485D01*
Y555486D02*
Y555613D01*
X484400Y551219D02*
Y551415D01*
Y553168D02*
Y553186D01*
Y554467D02*
Y554485D01*
X484500Y551219D02*
Y551415D01*
Y553168D02*
Y553186D01*
Y554467D02*
Y554485D01*
X484600Y551219D02*
Y551415D01*
Y553168D02*
Y553186D01*
Y554467D02*
Y554485D01*
X484700Y551219D02*
Y551415D01*
Y553168D02*
Y553186D01*
Y554467D02*
Y554505D01*
X484800Y551219D02*
Y551415D01*
Y552909D02*
Y554639D01*
X484900Y551219D02*
Y551415D01*
Y552949D02*
Y554654D01*
X485000Y551219D02*
Y551415D01*
Y554355D02*
Y554571D01*
X485100Y551219D02*
Y551415D01*
Y554455D02*
Y554488D01*
X485200Y551219D02*
Y551415D01*
X485300Y551219D02*
Y551448D01*
X485400Y551247D02*
Y551485D01*
X485500Y551276D02*
Y551759D01*
X485600Y551304D02*
Y552655D01*
X485700Y551335D02*
Y551823D01*
X485800Y551435D02*
Y551636D01*
X485900Y551535D02*
Y551586D01*
X478648Y555202D02*
X478306Y555459D01*
X478152Y555049*
X478150Y555045*
X477815Y554375*
X478127Y554688*
X478540Y555159*
X478562Y555173*
X478648Y555202*
X476815Y554875D02*
X476708Y555035D01*
X476538Y555205*
X476222Y555416*
X476219Y555413*
X476436Y555033*
X476437Y555030*
X476614Y554676*
X476620Y554654*
Y554507*
X476699Y554467*
X476716*
X476759Y554553*
X476815Y554778*
Y554875*
X140207Y553041D02*
X139865Y553298D01*
X139711Y552888*
X139709Y552883*
X139374Y552214*
X139687Y552526*
X140099Y552997*
X140121Y553012*
X140207Y553041*
X138374Y552713D02*
X138267Y552874D01*
X138097Y553044*
X137781Y553255*
X137778Y553251*
X137995Y552871*
X137996Y552869*
X138173Y552514*
X138179Y552492*
Y552346*
X138259Y552306*
X138275*
X138318Y552391*
X138374Y552616*
Y552713*
X137800Y553212D02*
Y553242D01*
X137900Y553037D02*
Y553175D01*
X138000Y552861D02*
Y553108D01*
X138100Y552661D02*
Y553041D01*
X138200Y552335D02*
Y552941D01*
X138300Y552356D02*
Y552824D01*
X139400Y552240D02*
Y552266D01*
X139500Y552340D02*
Y552466D01*
X139600Y552440D02*
Y552666D01*
X139700Y552542D02*
Y552866D01*
X139800Y552656D02*
Y553126D01*
X139900Y552770D02*
Y553271D01*
X140000Y552885D02*
Y553196D01*
X140100Y552999D02*
Y553121D01*
X140200Y553038D02*
Y553046D01*
X476300Y555270D02*
Y555364D01*
X476400Y555095D02*
Y555297D01*
X476500Y554904D02*
Y555230D01*
X476600Y554704D02*
Y555143D01*
X476700Y554467D02*
Y555043D01*
X476800Y554718D02*
Y554897D01*
X477900Y554460D02*
Y554545D01*
X478000Y554560D02*
Y554745D01*
X478100Y554660D02*
Y554945D01*
X478200Y554771D02*
Y555178D01*
X478300Y554885D02*
Y555445D01*
X478400Y554999D02*
Y555388D01*
X478500Y555113D02*
Y555313D01*
X478600Y555186D02*
Y555238D01*
*
G04 PC Custom Flashes*
G04 Layer Name XP02-Ö÷°å-210422-1(1).p - flashes*
%LPD*%
*
*
G04 PC Circuitry*
G04 Layer Name XP02-Ö÷°å-210422-1(1).p - circuitry*
%LPD*%
*
G54D10*
X235124Y575255D02*
X279124D01*
Y561855*
X270924*
Y555055*
X243324*
Y561855*
X235124*
Y575255*
X139066Y502169D02*
Y462569D01*
X125666*
Y471069*
X118866*
Y493769*
X125666*
Y502169*
X139066*
X310119Y571146D02*
Y573146D01*
X311569*
Y561146*
X310119*
Y571646*
X339269Y571146D02*
Y573146D01*
X340719*
Y561146*
X339269*
Y571646*
G54D12*
X316554Y284358D02*
X314154D01*
X316554Y283358D02*
X314154D01*
X315354Y284358D02*
Y284958D01*
Y283358D02*
Y282758D01*
X290139Y302650D02*
X292539D01*
X290139Y303650D02*
X292539D01*
X291339Y302650D02*
Y302050D01*
Y303650D02*
Y304250D01*
X296108Y572650D02*
X295608Y572150D01*
X296608Y571150*
X295608Y570150*
X296108Y569650*
X296080Y561829D02*
X296580Y562329D01*
X295580Y563329*
X296580Y564329*
X296080Y564829*
X325324Y569650D02*
X325824Y570150D01*
X324824Y571150*
X325824Y572150*
X325324Y572650*
X325223Y561829D02*
X325723Y562329D01*
X324723Y563329*
X325723Y564329*
X325223Y564829*
X357148Y565516D02*
X357648Y566016D01*
X356648Y567016*
X357648Y568016*
X357148Y568516*
X353223Y475201D02*
X354798Y476776D01*
X356373Y475201*
X353223*
X356373Y476776D02*
X353223D01*
X354798Y472839D02*
Y479138D01*
X272515Y352637D02*
X272773Y359305D01*
X279737Y355489D02*
X269882Y355871D01*
X273068Y355728D02*
X276075Y352479D01*
X276319Y358774*
X273029Y355729*
X279194Y361794D02*
X277150Y359904D01*
X278311Y359859*
X277093Y359945D02*
X277138Y361106D01*
X276047Y361936D02*
X274004Y360045D01*
X275164Y360000*
X273946Y360087D02*
X273991Y361248D01*
X189603Y449366D02*
X185959Y441443D01*
X188643Y447185D02*
X190189Y443008D01*
X184448Y445648*
X188625Y447193*
X191616Y446252D02*
X185910Y448875D01*
X192213Y444677D02*
X194302Y445450D01*
X193229Y445943*
X193782Y444367D02*
X194259Y445404D01*
X192743Y442201D02*
X193220Y443239D01*
X191226Y442531D02*
X193263Y443284D01*
X192207Y443769*
X182591Y434119D02*
X186235Y442042D01*
X183622Y436267D02*
X187799Y437812D01*
X182059Y440452*
X183604Y436275*
X186265Y434618D02*
X180560Y437241D01*
X187850Y435189D02*
X188623Y433100D01*
X187549Y433594*
X189106Y434200D02*
X188629Y433162D01*
X190074Y436398D02*
X189597Y435361D01*
X188837Y437335D02*
X189590Y435299D01*
X188535Y435784*
X272183Y338217D02*
G75*
G03X272183I-1560J0D01*
G01X281659Y339403D02*
G03X281659I-1560J0D01*
G01X280280Y325171D02*
X273684Y327109D01*
X279933Y327904D02*
X274032Y324376D01*
X283839Y302650D02*
X286239D01*
X283839Y303650D02*
X286239D01*
X285039Y302650D02*
Y302050D01*
Y303650D02*
Y304250D01*
X424140Y380017D02*
X424027Y380330D01*
X423799Y380642*
X423572Y380798*
X423118*
X423118D02*
X422890Y380642D01*
X422663Y380330*
X422549Y380017*
X422436Y379548*
Y378767*
X422549Y378298*
X422663Y377986*
X422890Y377673*
X423118Y377517*
X423118D02*
X423572D01*
X423799Y377673*
X424027Y377986*
X424140Y378298*
X425163Y380173D02*
X425390Y380330D01*
X425731Y380798*
Y377517*
X456205Y433480D02*
X456091Y433793D01*
X455864Y434105*
X455636Y434262*
X455182*
X454955Y434105*
X454727Y433793*
X454614Y433480*
X454500Y433012*
Y432230*
X454614Y431762*
X454727Y431449*
X454955Y431137*
X455182Y430980*
X455636*
X455864Y431137*
X456091Y431449*
X456205Y431762*
X457341Y433480D02*
Y433637D01*
X457455Y433949*
X457568Y434105*
X457795Y434262*
X458250*
X458477Y434105*
X458591Y433949*
X458705Y433637*
Y433324*
X458591Y433012*
X458364Y432543*
X457227Y430980*
X458818*
X350938Y329121D02*
X350825Y329402D01*
X350597Y329683*
X350370Y329824*
X349916*
X349688Y329683*
X349461Y329402*
X349347Y329121*
X349234Y328699*
Y327996*
X349347Y327574*
X349461Y327293*
X349688Y327011*
X349916Y326871*
X350370*
X350597Y327011*
X350825Y327293*
X350938Y327574*
X352075Y329121D02*
Y329261D01*
X352188Y329543*
X352302Y329683*
X352529Y329824*
X352984*
X353211Y329683*
X353325Y329543*
X353438Y329261*
Y328980*
X353325Y328699*
X353097Y328277*
X351961Y326871*
X353552*
X355938Y329402D02*
X355825Y329683D01*
X355484Y329824*
X355256*
X354916Y329683*
X354688Y329261*
X354575Y328558*
Y327855*
X354688Y327293*
X354916Y327011*
X355256Y326871*
X355370*
X355711Y327011*
X355938Y327293*
X356052Y327715*
Y327855*
X355938Y328277*
X355711Y328558*
X355370Y328699*
X355256*
X354916Y328558*
X354688Y328277*
X354575Y327855*
X313347Y274397D02*
X313233Y274710D01*
X313006Y275022*
X312779Y275179*
X312324*
X312097Y275022*
X311870Y274710*
X311756Y274397*
X311642Y273929*
Y273147*
X311756Y272679*
X311870Y272366*
X312097Y272054*
X312324Y271897*
X312779*
X313006Y272054*
X313233Y272366*
X313347Y272679*
X314483Y274397D02*
Y274554D01*
X314597Y274866*
X314711Y275022*
X314938Y275179*
X315392*
X315620Y275022*
X315733Y274866*
X315847Y274554*
Y274241*
X315733Y273929*
X315506Y273460*
X314370Y271897*
X315961*
X318574Y275179D02*
X317438Y271897D01*
X316983Y275179D02*
X318574D01*
X297224Y304637D02*
X297110Y304950D01*
X296883Y305262*
X296656Y305418*
X296201*
X295974Y305262*
X295747Y304950*
X295633Y304637*
X295519Y304168*
Y303387*
X295633Y302918*
X295747Y302606*
X295974Y302293*
X296201Y302137*
X296656*
X296883Y302293*
X297110Y302606*
X297224Y302918*
X298360Y304637D02*
Y304793D01*
X298474Y305106*
X298588Y305262*
X298815Y305418*
X299269*
X299497Y305262*
X299610Y305106*
X299724Y304793*
Y304481*
X299610Y304168*
X299383Y303700*
X298247Y302137*
X299838*
X301429Y305418D02*
X301088Y305262D01*
X300974Y304950*
Y304637*
X301088Y304325*
X301315Y304168*
X301769Y304012*
X302110Y303856*
X302338Y303543*
X302451Y303231*
Y302762*
X302338Y302450*
X302224Y302293*
X301883Y302137*
X301429*
X301088Y302293*
X300974Y302450*
X300860Y302762*
Y303231*
X300974Y303543*
X301201Y303856*
X301542Y304012*
X301997Y304168*
X302224Y304325*
X302338Y304637*
Y304950*
X302224Y305262*
X301883Y305418*
X301429*
X401334Y368537D02*
X401221Y368849D01*
X400994Y369162*
X400766Y369318*
X400312*
X400084Y369162*
X399857Y368849*
X399744Y368537*
X399630Y368068*
Y367287*
X399744Y366818*
X399857Y366505*
X400084Y366193*
X400312Y366037*
X400766*
X400994Y366193*
X401221Y366505*
X401334Y366818*
X403721Y368849D02*
X403607Y369162D01*
X403266Y369318*
X403039*
X402698Y369162*
X402471Y368693*
X402357Y367912*
Y367130*
X402471Y366505*
X402698Y366193*
X403039Y366037*
X403153*
X403494Y366193*
X403721Y366505*
X403834Y366974*
Y367130*
X403721Y367599*
X403494Y367912*
X403153Y368068*
X403039*
X402698Y367912*
X402471Y367599*
X402357Y367130*
X225449Y560936D02*
X225335Y561249D01*
X225108Y561561*
X224881Y561718*
X224426*
X224199Y561561*
X223971Y561249*
X223858Y560936*
X223744Y560468*
Y559686*
X223858Y559218*
X223971Y558905*
X224199Y558593*
X224426Y558436*
X224881*
X225108Y558593*
X225335Y558905*
X225449Y559218*
X227153Y561718D02*
X226926Y561561D01*
X226699Y561249*
X226585Y560936*
X226471Y560468*
Y559686*
X226585Y559218*
X226699Y558905*
X226926Y558593*
X227153Y558436*
X227608*
X227835Y558593*
X228062Y558905*
X228176Y559218*
X228290Y559686*
Y560468*
X228176Y560936*
X228062Y561249*
X227835Y561561*
X227608Y561718*
X227153*
X229312D02*
Y558436D01*
Y561718D02*
X230903Y558436D01*
Y561718D02*
Y558436D01*
X231926Y561093D02*
X232153Y561249D01*
X232494Y561718*
Y558436*
X130741Y508643D02*
X130628Y508956D01*
X130400Y509268*
X130173Y509424*
X129719*
X129491Y509268*
X129264Y508956*
X129150Y508643*
X129037Y508174*
Y507393*
X129150Y506924*
X129264Y506612*
X129491Y506299*
X129719Y506143*
X130173*
X130400Y506299*
X130628Y506612*
X130741Y506924*
X132446Y509424D02*
X132219Y509268D01*
X131991Y508956*
X131878Y508643*
X131764Y508174*
Y507393*
X131878Y506924*
X131991Y506612*
X132219Y506299*
X132446Y506143*
X132900*
X133128Y506299*
X133355Y506612*
X133469Y506924*
X133582Y507393*
Y508174*
X133469Y508643*
X133355Y508956*
X133128Y509268*
X132900Y509424*
X132446*
X134605D02*
Y506143D01*
Y509424D02*
X136196Y506143D01*
Y509424D02*
Y506143D01*
X137332Y508643D02*
Y508799D01*
X137446Y509112*
X137559Y509268*
X137787Y509424*
X138241*
X138469Y509268*
X138582Y509112*
X138696Y508799*
Y508487*
X138582Y508174*
X138355Y507706*
X137219Y506143*
X138809*
X259664Y541396D02*
X259551Y541708D01*
X259323Y542021*
X259096Y542177*
X258642*
X258414Y542021*
X258187Y541708*
X258073Y541396*
X257960Y540927*
Y540146*
X258073Y539677*
X258187Y539364*
X258414Y539052*
X258642Y538896*
X259096*
X259323Y539052*
X259551Y539364*
X259664Y539677*
X261369Y542177D02*
X261142Y542021D01*
X260914Y541708*
X260801Y541396*
X260687Y540927*
Y540146*
X260801Y539677*
X260914Y539364*
X261142Y539052*
X261369Y538896*
X261823*
X262051Y539052*
X262278Y539364*
X262392Y539677*
X262505Y540146*
Y540927*
X262392Y541396*
X262278Y541708*
X262051Y542021*
X261823Y542177*
X261369*
X263528D02*
Y538896D01*
Y542177D02*
X265119Y538896D01*
Y542177D02*
Y538896D01*
X266369Y542177D02*
X267619D01*
X266937Y540927*
X267278*
X267505Y540771*
X267619Y540614*
X267733Y540146*
Y539833*
X267619Y539364*
X267392Y539052*
X267051Y538896*
X266710*
X266369Y539052*
X266255Y539208*
X266142Y539521*
X445444Y345261D02*
Y341980D01*
X446808*
X447944Y344480D02*
Y344636D01*
X448058Y344948*
X448171Y345105*
X448399Y345261*
X448853*
X449081Y345105*
X449194Y344948*
X449308Y344636*
Y344323*
X449194Y344011*
X448967Y343542*
X447831Y341980*
X449421*
X207467Y533818D02*
Y530537D01*
X208831*
X210990Y533818D02*
X209854Y531630D01*
X211558*
X210990Y533818D02*
Y530537D01*
X124803Y572966D02*
Y569685D01*
Y572966D02*
X125826D01*
X126167Y572810*
X126280Y572654*
X126394Y572341*
Y571873*
X126280Y571560*
X126167Y571404*
X125826Y571248*
X124803*
X127530Y572185D02*
Y572341D01*
X127644Y572654*
X127758Y572810*
X127985Y572966*
X128440*
X128667Y572810*
X128780Y572654*
X128894Y572341*
Y572029*
X128780Y571716*
X128553Y571248*
X127417Y569685*
X129008*
X310942Y557443D02*
X310715Y557287D01*
X310488Y556975*
X310374Y556662*
X310260Y556193*
Y555412*
X310374Y554943*
X310488Y554631*
X310715Y554318*
X310942Y554162*
X311397*
X311624Y554318*
X311851Y554631*
X311965Y554943*
X312079Y555412*
Y556193*
X311965Y556662*
X311851Y556975*
X311624Y557287*
X311397Y557443*
X310942*
X311283Y554787D02*
X311965Y553850D01*
X314465Y556975D02*
X314351Y557287D01*
X314010Y557443*
X313783*
X313442Y557287*
X313215Y556818*
X313101Y556037*
Y555256*
X313215Y554631*
X313442Y554318*
X313783Y554162*
X313897*
X314238Y554318*
X314465Y554631*
X314579Y555100*
Y555256*
X314465Y555725*
X314238Y556037*
X313897Y556193*
X313783*
X313442Y556037*
X313215Y555725*
X313101Y555256*
X340527Y557837D02*
X340299Y557681D01*
X340072Y557368*
X339958Y557056*
X339845Y556587*
Y555806*
X339958Y555337*
X340072Y555025*
X340299Y554712*
X340527Y554556*
X340981*
X341208Y554712*
X341436Y555025*
X341549Y555337*
X341663Y555806*
Y556587*
X341549Y557056*
X341436Y557368*
X341208Y557681*
X340981Y557837*
X340527*
X340867Y555181D02*
X341549Y554243D01*
X343254Y557837D02*
X342913Y557681D01*
X342799Y557368*
Y557056*
X342913Y556743*
X343140Y556587*
X343595Y556431*
X343936Y556275*
X344163Y555962*
X344277Y555650*
Y555181*
X344163Y554868*
X344049Y554712*
X343708Y554556*
X343254*
X342913Y554712*
X342799Y554868*
X342686Y555181*
Y555650*
X342799Y555962*
X343027Y556275*
X343367Y556431*
X343822Y556587*
X344049Y556743*
X344163Y557056*
Y557368*
X344049Y557681*
X343708Y557837*
X343254*
X293332Y559355D02*
Y556074D01*
Y559355D02*
X294354D01*
X294695Y559199*
X294809Y559043*
X294923Y558730*
Y558418*
X294809Y558105*
X294695Y557949*
X294354Y557793*
X293332*
X294127D02*
X294923Y556074D01*
X295945Y558730D02*
X296173Y558887D01*
X296514Y559355*
Y556074*
X297764Y559355D02*
X299014D01*
X298332Y558105*
X298673*
X298900Y557949*
X299014Y557793*
X299127Y557324*
Y557012*
X299014Y556543*
X298786Y556230*
X298445Y556074*
X298104*
X297764Y556230*
X297650Y556387*
X297536Y556699*
X293389Y555025D02*
Y551743D01*
Y555025D02*
X294411D01*
X294752Y554868*
X294866Y554712*
X294979Y554400*
Y554087*
X294866Y553775*
X294752Y553618*
X294411Y553462*
X293389*
X294184D02*
X294979Y551743D01*
X296002Y554400D02*
X296229Y554556D01*
X296570Y555025*
Y551743*
X298957Y554556D02*
X298843Y554868D01*
X298502Y555025*
X298275*
X297934Y554868*
X297707Y554400*
X297593Y553618*
Y552837*
X297707Y552212*
X297934Y551900*
X298275Y551743*
X298389*
X298729Y551900*
X298957Y552212*
X299070Y552681*
Y552837*
X298957Y553306*
X298729Y553618*
X298389Y553775*
X298275*
X297934Y553618*
X297707Y553306*
X297593Y552837*
X322466Y559355D02*
Y556074D01*
Y559355D02*
X323488D01*
X323829Y559199*
X323943Y559043*
X324056Y558730*
Y558418*
X323943Y558105*
X323829Y557949*
X323488Y557793*
X322466*
X323261D02*
X324056Y556074D01*
X325079Y558730D02*
X325306Y558887D01*
X325647Y559355*
Y556074*
X328261Y559355D02*
X327125Y556074D01*
X326670Y559355D02*
X328261D01*
X322466Y555025D02*
Y551743D01*
Y555025D02*
X323488D01*
X323829Y554868*
X323943Y554712*
X324056Y554400*
Y554087*
X323943Y553775*
X323829Y553618*
X323488Y553462*
X322466*
X323261D02*
X324056Y551743D01*
X325079Y554400D02*
X325306Y554556D01*
X325647Y555025*
Y551743*
X327238Y555025D02*
X326897Y554868D01*
X326784Y554556*
Y554243*
X326897Y553931*
X327125Y553775*
X327579Y553618*
X327920Y553462*
X328147Y553150*
X328261Y552837*
Y552368*
X328147Y552056*
X328034Y551900*
X327693Y551743*
X327238*
X326897Y551900*
X326784Y552056*
X326670Y552368*
Y552837*
X326784Y553150*
X327011Y553462*
X327352Y553618*
X327806Y553775*
X328034Y553931*
X328147Y554243*
Y554556*
X328034Y554868*
X327693Y555025*
X327238*
X354306Y562562D02*
Y559280D01*
Y562562D02*
X355329D01*
X355670Y562405*
X355783Y562249*
X355897Y561937*
Y561624*
X355783Y561312*
X355670Y561155*
X355329Y560999*
X354306*
X355102D02*
X355897Y559280D01*
X357033Y561780D02*
Y561937D01*
X357147Y562249*
X357261Y562405*
X357488Y562562*
X357942*
X358170Y562405*
X358283Y562249*
X358397Y561937*
Y561624*
X358283Y561312*
X358056Y560843*
X356920Y559280*
X358511*
X359533Y561937D02*
X359761Y562093D01*
X360102Y562562*
Y559280*
X367752Y512393D02*
Y509112D01*
Y512393D02*
X368775D01*
X369116Y512237*
X369229Y512080*
X369343Y511768*
Y511455*
X369229Y511143*
X369116Y510987*
X368775Y510830*
X367752*
X368547D02*
X369343Y509112D01*
X371161Y512393D02*
Y509112D01*
X370366Y512393D02*
X371957D01*
X373093Y511612D02*
Y511768D01*
X373207Y512080*
X373320Y512237*
X373547Y512393*
X374002*
X374229Y512237*
X374343Y512080*
X374457Y511768*
Y511455*
X374343Y511143*
X374116Y510674*
X372979Y509112*
X374570*
X392942Y500086D02*
Y496804D01*
Y500086D02*
X393965D01*
X394306Y499929*
X394420Y499773*
X394533Y499461*
Y499148*
X394420Y498836*
X394306Y498679*
X393965Y498523*
X392942*
X393738D02*
X394533Y496804D01*
X395556Y500086D02*
X396465Y496804D01*
X397374Y500086D02*
X396465Y496804D01*
X398397Y499461D02*
X398624Y499617D01*
X398965Y500086*
Y496804*
X392777Y470196D02*
Y466915D01*
Y470196D02*
X393800D01*
X394141Y470040*
X394254Y469883*
X394368Y469571*
Y469258*
X394254Y468946*
X394141Y468790*
X393800Y468633*
X392777*
X393572D02*
X394368Y466915D01*
X395391Y470196D02*
X396300Y466915D01*
X397209Y470196D02*
X396300Y466915D01*
X398345Y469415D02*
Y469571D01*
X398459Y469883*
X398572Y470040*
X398800Y470196*
X399254*
X399481Y470040*
X399595Y469883*
X399709Y469571*
Y469258*
X399595Y468946*
X399368Y468477*
X398231Y466915*
X399822*
X464676Y427175D02*
Y423894D01*
Y427175D02*
X465699D01*
X466040Y427019*
X466040D02*
X466153Y426862D01*
X466267Y426550*
Y426237*
X466153Y425925*
X466040Y425769*
X466040D02*
X465699Y425612D01*
X464676*
X465471D02*
X466267Y423894D01*
X467290Y427175D02*
X468199Y423894D01*
X469108Y427175D02*
X468199Y423894D01*
X470358Y427175D02*
X471608D01*
X470926Y425925*
X471267*
X471494Y425769*
X471608Y425612*
X471721Y425144*
Y424831*
X471608Y424362*
X471380Y424050*
X471040Y423894*
X471040D02*
X470699D01*
X470358Y424050*
X470244Y424206*
X470130Y424519*
X439070Y518335D02*
X438843Y518648D01*
X438502Y518804*
X438047*
X437706Y518648*
X437479Y518335*
Y518023*
X437593Y517710*
X437706Y517554*
X437934Y517398*
X438615Y517085*
X438843Y516929*
X438956Y516773*
X439070Y516460*
Y515992*
X438843Y515679*
X438502Y515523*
X438047*
X437706Y515679*
X437479Y515992*
X440093Y518804D02*
X440661Y515523D01*
X441229Y518804D02*
X440661Y515523D01*
X441229Y518804D02*
X441797Y515523D01*
X442365Y518804D02*
X441797Y515523D01*
X443388Y518179D02*
X443615Y518335D01*
X443956Y518804*
Y515523*
X370773Y560930D02*
Y557649D01*
X369978Y560930D02*
X371569D01*
X372591D02*
Y557649D01*
Y560930D02*
X373614D01*
X373955Y560774*
X374069Y560618*
X374182Y560305*
Y559836*
X374069Y559524*
X373955Y559368*
X373614Y559211*
X372591*
X375205Y560305D02*
X375432Y560461D01*
X375773Y560930*
Y557649*
X376909Y560149D02*
Y560305D01*
X377023Y560618*
X377137Y560774*
X377364Y560930*
X377819*
X378046Y560774*
X378159Y560618*
X378273Y560305*
Y559993*
X378159Y559680*
X377932Y559211*
X376796Y557649*
X378387*
X283436Y560930D02*
Y557649D01*
X282641Y560930D02*
X284232D01*
X285255D02*
Y557649D01*
Y560930D02*
X286277D01*
X286618Y560774*
X286732Y560618*
X286845Y560305*
Y559836*
X286732Y559524*
X286618Y559368*
X286277Y559211*
X285255*
X289345Y559836D02*
X289232Y559368D01*
X289005Y559055*
X288664Y558899*
X288550*
X288209Y559055*
X287982Y559368*
X287868Y559836*
Y559993*
X287982Y560461*
X288209Y560774*
X288550Y560930*
X288664*
X289005Y560774*
X289232Y560461*
X289345Y559836*
Y559055*
X289232Y558274*
X289005Y557805*
X288664Y557649*
X288436*
X288095Y557805*
X287982Y558118*
X224836Y284158D02*
Y281815D01*
X224949Y281346*
X225177Y281033*
X225518Y280877*
X225745*
X226086Y281033*
X226313Y281346*
X226427Y281815*
Y284158*
X228018D02*
X227677Y284002D01*
X227563Y283690*
Y283377*
X227677Y283065*
X227904Y282908*
X228359Y282752*
X228699Y282596*
X228927Y282283*
X229040Y281971*
Y281502*
X228927Y281190*
X228813Y281033*
X228472Y280877*
X228018*
X227677Y281033*
X227563Y281190*
X227449Y281502*
Y281971*
X227563Y282283*
X227790Y282596*
X228131Y282752*
X228586Y282908*
X228813Y283065*
X228927Y283377*
Y283690*
X228813Y284002*
X228472Y284158*
X228018*
X124369Y438135D02*
X124256Y438417D01*
X124028Y438698*
X123801Y438838*
X123346*
X123119Y438698*
X122892Y438417*
X122778Y438135*
X122665Y437713*
Y437010*
X122778Y436588*
X122892Y436307*
X123119Y436026*
X123346Y435885*
X123801*
X124028Y436026*
X124256Y436307*
X124369Y436588*
X125619Y438838D02*
X126869D01*
X126187Y437713*
X126528*
X126756Y437573*
X126869Y437432*
X126983Y437010*
Y436729*
X126869Y436307*
X126642Y436026*
X126301Y435885*
X125960*
X125619Y436026*
X125506Y436167*
X125392Y436448*
X128006Y438276D02*
X128233Y438417D01*
X128574Y438838*
Y435885*
X469373Y407518D02*
X469260Y407830D01*
X469032Y408143*
X468805Y408299*
X468351*
X468123Y408143*
X467896Y407830*
X467782Y407518*
X467669Y407049*
Y406268*
X467782Y405799*
X467896Y405486*
X468123Y405174*
X468351Y405018*
X468805*
X469032Y405174*
X469260Y405486*
X469373Y405799*
X470623Y408299D02*
X471873D01*
X471191Y407049*
X471532*
X471760Y406893*
X471873Y406736*
X471987Y406268*
Y405955*
X471873Y405486*
X471646Y405174*
X471305Y405018*
X470964*
X470623Y405174*
X470510Y405330*
X470396Y405643*
X465434Y363906D02*
X465321Y364218D01*
X465093Y364531*
X464866Y364687*
X464411*
X464184Y364531*
X463957Y364218*
X463843Y363906*
X463730Y363437*
Y362656*
X463843Y362187*
X463957Y361874*
X464184Y361562*
X464411Y361406*
X464866*
X465093Y361562*
X465321Y361874*
X465434Y362187*
X467593Y364687D02*
X466457Y362499D01*
X468161*
X467593Y364687D02*
Y361406D01*
X403652Y328788D02*
X403538Y329100D01*
X403311Y329413*
X403083Y329569*
X402629*
X402402Y329413*
X402174Y329100*
X402061Y328788*
X401947Y328319*
Y327538*
X402061Y327069*
X402174Y326757*
X402402Y326444*
X402629Y326288*
X403083*
X403311Y326444*
X403538Y326757*
X403652Y327069*
X406265Y329569D02*
X405129Y326288D01*
X404674Y329569D02*
X406265D01*
X462729Y473135D02*
Y469854D01*
Y473135D02*
X463751D01*
X464092Y472979*
X464206Y472822*
X464320Y472510*
Y472197*
X464206Y471885*
X464092Y471729*
X463751Y471572*
X462729*
X463524D02*
X464320Y469854D01*
X465342Y473135D02*
X466251Y469854D01*
X467160Y473135D02*
X466251Y469854D01*
X469320Y473135D02*
X468183Y470947D01*
X469888*
X469320Y473135D02*
Y469854D01*
X487008Y572447D02*
Y569165D01*
Y572447D02*
X488031D01*
X488372Y572290*
X488485Y572134*
X488599Y571822*
Y571353*
X488485Y571040*
X488372Y570884*
X488031Y570728*
X487008*
X489849Y572447D02*
X491099D01*
X490417Y571197*
X490758*
X490985Y571040*
X491099Y570884*
X491212Y570415*
Y570103*
X491099Y569634*
X490872Y569322*
X490531Y569165*
X490190*
X489849Y569322*
X489735Y569478*
X489622Y569790*
X343790Y482190D02*
Y478909D01*
Y482190D02*
X344586D01*
X344927Y482034*
X345154Y481721*
X345268Y481409*
X345381Y480940*
Y480159*
X345268Y479690*
X345154Y479377*
X344927Y479065*
X344586Y478909*
X343790*
X347881Y481096D02*
X347768Y480627D01*
X347540Y480315*
X347199Y480159*
X347086*
X346745Y480315*
X346518Y480627*
X346404Y481096*
Y481252*
X346518Y481721*
X346745Y482034*
X347086Y482190*
X347199*
X347540Y482034*
X347768Y481721*
X347881Y481096*
Y480315*
X347768Y479534*
X347540Y479065*
X347199Y478909*
X346972*
X346631Y479065*
X346518Y479377*
X411961Y412505D02*
Y409224D01*
Y412505D02*
X412984D01*
X413325Y412349*
X413439Y412192*
X413552Y411880*
Y411567*
X413439Y411255*
X413325Y411099*
X412984Y410942*
X411961*
X412757D02*
X413552Y409224D01*
X414575Y411880D02*
X414802Y412036D01*
X415143Y412505*
Y409224*
X451338Y382444D02*
Y379163D01*
X452702*
X453724Y381819D02*
X453952Y381976D01*
X454293Y382444*
Y379163*
X365225Y365996D02*
Y363887D01*
X365339Y363465*
X365566Y363183*
X365907Y363043*
X366134*
X366475Y363183*
X366702Y363465*
X366816Y363887*
Y365996*
X369316D02*
X368180D01*
X368066Y364730*
X368180Y364871*
X368521Y365012*
X368862*
X369202Y364871*
X369430Y364590*
X369543Y364168*
X369430Y363887*
X369316Y363465*
X369089Y363183*
X368748Y363043*
X368407*
X368066Y363183*
X367952Y363324*
X367839Y363605*
X357574Y523887D02*
Y520606D01*
X356778Y523887D02*
X358369D01*
X359392D02*
Y520606D01*
Y523887D02*
X360415D01*
X360756Y523731*
X360869Y523575*
X360983Y523262*
Y522793*
X360869Y522481*
X360756Y522325*
X360415Y522168*
X359392*
X363142Y523887D02*
X362006Y521700D01*
X363710*
X363142Y523887D02*
Y520606D01*
X366210Y523887D02*
X365074D01*
X364960Y522481*
X365074Y522637*
X365415Y522793*
X365756*
X366097Y522637*
X366324Y522325*
X366437Y521856*
X366324Y521543*
X366210Y521075*
X365983Y520762*
X365642Y520606*
X365301*
X364960Y520762*
X364847Y520918*
X364733Y521231*
X395369Y545934D02*
Y542653D01*
X394574Y545934D02*
X396165D01*
X397187D02*
Y542653D01*
Y545934D02*
X398210D01*
X398551Y545778*
X398665Y545622*
X398778Y545309*
Y544841*
X398665Y544528*
X398551Y544372*
X398210Y544216*
X397187*
X400937Y545934D02*
X399801Y543747D01*
X401505*
X400937Y545934D02*
Y542653D01*
X403892Y545466D02*
X403778Y545778D01*
X403437Y545934*
X403210*
X402869Y545778*
X402642Y545309*
X402528Y544528*
Y543747*
X402642Y543122*
X402869Y542809*
X403210Y542653*
X403324*
X403665Y542809*
X403892Y543122*
X404005Y543591*
Y543747*
X403892Y544216*
X403665Y544528*
X403324Y544684*
X403210*
X402869Y544528*
X402642Y544216*
X402528Y543747*
X335527Y504990D02*
Y501708D01*
X334731Y504990D02*
X336322D01*
X337345D02*
Y501708D01*
Y504990D02*
X338367D01*
X338708Y504833*
X338822Y504677*
X338936Y504365*
Y503896*
X338822Y503583*
X338708Y503427*
X338367Y503271*
X337345*
X341436Y504990D02*
X340299D01*
X340186Y503583*
X340299Y503740*
X340640Y503896*
X340981*
X341322Y503740*
X341549Y503427*
X341663Y502958*
X341549Y502646*
X341436Y502177*
X341208Y501865*
X340867Y501708*
X340527*
X340186Y501865*
X340072Y502021*
X339958Y502333*
X343367Y504990D02*
X343027Y504833D01*
X342799Y504365*
X342686Y503583*
Y503115*
X342799Y502333*
X343027Y501865*
X343367Y501708*
X343595*
X343936Y501865*
X344163Y502333*
X344277Y503115*
Y503583*
X344163Y504365*
X343936Y504833*
X343595Y504990*
X343367*
X275627Y304921D02*
X275514Y305203D01*
X275286Y305484*
X275059Y305625*
X274605*
X274377Y305484*
X274150Y305203*
X274036Y304921*
X273923Y304500*
Y303796*
X274036Y303375*
X274150Y303093*
X274377Y302812*
X274605Y302671*
X275059*
X275286Y302812*
X275514Y303093*
X275627Y303375*
X276764Y304921D02*
Y305062D01*
X276877Y305343*
X276991Y305484*
X277218Y305625*
X277673*
X277900Y305484*
X278014Y305343*
X278127Y305062*
Y304781*
X278014Y304500*
X277786Y304078*
X276650Y302671*
X278241*
X280741Y304640D02*
X280627Y304218D01*
X280400Y303937*
X280059Y303796*
X279945*
X279605Y303937*
X279377Y304218*
X279264Y304640*
Y304781*
X279377Y305203*
X279605Y305484*
X279945Y305625*
X280059*
X280400Y305484*
X280627Y305203*
X280741Y304640*
Y303937*
X280627Y303234*
X280400Y302812*
X280059Y302671*
X279832*
X279491Y302812*
X279377Y303093*
X295300Y275554D02*
Y273210D01*
X295413Y272741*
X295641Y272429*
X295982Y272272*
X296209*
X296550Y272429*
X296777Y272741*
X296891Y273210*
Y275554*
X299050D02*
X297913Y273366D01*
X299618*
X299050Y275554D02*
Y272272D01*
X208217Y544835D02*
X205893Y542519D01*
X208217Y544835D02*
X208939Y544111D01*
X209069Y543759*
X209039Y543568*
X208898Y543267*
X208676Y543046*
X208375Y542906*
X208184Y542876*
X207832Y543008*
X207111Y543732*
X207672Y543169D02*
X207016Y541392D01*
X210693Y541687D02*
X210834Y541988D01*
X210704Y542340*
X210544Y542501*
X210192Y542632*
X209700Y542462*
X209066Y541991*
X208513Y541440*
X208150Y540918*
X208089Y540536*
X208219Y540185*
X208299Y540104*
X208651Y539973*
X209033Y540032*
X209445Y540283*
X209556Y540393*
X209807Y540804*
X209868Y541186*
X209738Y541538*
X209658Y541618*
X209307Y541750*
X208925Y541690*
X208513Y541440*
X211384Y540772D02*
X211655Y540721D01*
X212228Y540810*
X209904Y538494*
X324284Y274488D02*
X324170Y274769D01*
X323943Y275051*
X323716Y275191*
X323261*
X323034Y275051*
X322807Y274769*
X322693Y274488*
X322579Y274066*
Y273363*
X322693Y272941*
X322807Y272660*
X323034Y272379*
X323261Y272238*
X323716*
X323943Y272379*
X324170Y272660*
X324284Y272941*
X325420Y274488D02*
Y274629D01*
X325534Y274910*
X325648Y275051*
X325875Y275191*
X326329*
X326557Y275051*
X326670Y274910*
X326784Y274629*
Y274347*
X326670Y274066*
X326443Y273644*
X325307Y272238*
X326898*
X327920Y274629D02*
X328148Y274769D01*
X328489Y275191*
Y272238*
X164904Y430353D02*
X167717D01*
X166310Y429331D02*
Y431376D01*
X134814Y429331D02*
Y431376D01*
X351474Y485720D02*
Y486434D01*
X358028*
Y485720*
X351474*
Y486169D02*
X358028D01*
G54D13*
X452559Y456299D02*
X503740D01*
Y436614*
X452559*
Y456299*
X355256Y339669D02*
X350256D01*
X355256Y341669D02*
X350256D01*
X352756D02*
Y342669D01*
Y339669D02*
Y338669D01*
X356756Y334669D02*
Y332169D01*
X348756*
Y334669*
X356756Y346669D02*
Y349169D01*
X348756*
Y346669*
X232064Y549776D02*
Y507256D01*
X249781D02*
Y549776D01*
X232064Y507256D02*
X249781D01*
Y549776D02*
X232064D01*
X186682Y534361D02*
X191487Y534316D01*
X189885Y538846*
X186682Y534361*
X182374Y462167D02*
X186748Y468292D01*
X194017Y478469D02*
X198876Y485272D01*
X206144Y495449D02*
X211434Y502855D01*
X204546Y507775D02*
X213646Y520517D01*
X202623Y509148D02*
X211782Y521971D01*
X205535Y526433D02*
X196376Y513610D01*
X203671Y527887D02*
X194454Y514983D01*
X197365Y532268D02*
X188206Y519445D01*
X195501Y533722D02*
X186284Y520818D01*
X150336Y485049D02*
X154710Y491174D01*
X161979Y501351D02*
X166838Y508154D01*
X174106Y518331D02*
X179396Y525737D01*
X211434Y502855D02*
X179396Y525737D01*
X161979Y501351D02*
X194017Y478469D01*
X192758Y477334D02*
X161314Y499792D01*
X155969Y492309D02*
X187413Y469851D01*
X186748Y468292D02*
X154710Y491174D01*
X150336Y485049D02*
X182374Y462167D01*
X150793Y482303D02*
X179628Y461709D01*
X192776Y477344D02*
G03X187417Y469873I5387J-9521D01*
G01X204904Y494324D02*
G03X199545Y486853I5386J-9521D01*
G01X186746Y468288D02*
G03X187413Y469849I-3202J2292D01*
G01X155975Y492312D02*
G03X154713Y491178I1939J-3426D01*
G01X161981Y501354D02*
G03X161314Y499793I3202J-2291D01*
G01X192751Y477330D02*
G03X194014Y478465I-1938J3427D01*
G01X198873Y485268D02*
G03X199540Y486829I-3201J2292D01*
G01X168103Y509292D02*
G03X166840Y508158I1939J-3426D01*
G01X204879Y494310D02*
G03X206141Y495445I-1939J3427D01*
G01X174109Y518334D02*
G03X173441Y516774I3201J-2291D01*
G01X150337Y485051D02*
G03X150792Y482304I1602J-1146D01*
G01X179626Y461711D02*
G03X182372Y462165I1146J1600D01*
G01X168078Y509278D02*
G03X173437Y516750I-5387J9521D01*
G01X155951Y492298D02*
G03X161309Y499770I-5387J9521D01*
G01X150183Y483571D02*
X156228Y492034D01*
X161546Y499480D02*
X168317Y508960D01*
X173664Y516447D02*
X179941Y525235D01*
X364173Y505512D02*
Y476378D01*
X376772*
Y505512*
X364173*
X378346Y473622D02*
X445276D01*
Y493307*
X378346*
Y473622*
Y445669D02*
X445276D01*
Y465354*
X378346*
Y445669*
X474105Y419094D02*
X503239D01*
Y431693*
X474105*
Y419094*
X493307Y504331D02*
X449213D01*
Y532677*
X493307*
Y504331*
X471260Y532504D02*
X463260D01*
Y556504*
X471260*
Y532504*
X378035Y566907D02*
G03X378035I-4105J0D01*
G01X289866Y567302D02*
G03X289866I-4105J0D01*
G01X503642Y398425D02*
G03X503642I-15847J0D01*
G01X478545Y404625D02*
X483245D01*
X480945Y402375D02*
Y407075D01*
X502645Y403425D02*
Y393475D01*
X501745Y391375D02*
Y405675D01*
X500795Y406875D02*
Y389775D01*
X499895Y388375D02*
Y408375D01*
X498945Y409475D02*
Y387375D01*
X498095Y386425D02*
Y410325D01*
X503642Y362992D02*
G03X503642I-15847J0D01*
G01X478545Y369192D02*
X483245D01*
X480945Y366942D02*
Y371642D01*
X502645Y367992D02*
Y358042D01*
X501745Y355942D02*
Y370242D01*
X500795Y371442D02*
Y354342D01*
X499895Y352942D02*
Y372942D01*
X498945Y374042D02*
Y351942D01*
X498095Y350992D02*
Y374892D01*
X418217Y307087D02*
G03X418217I-15847J0D01*
G01X408570Y316337D02*
Y311637D01*
X406320Y313937D02*
X411020D01*
X407370Y292237D02*
X397420D01*
X395320Y293137D02*
X409620D01*
X410820Y294087D02*
X393720D01*
X392320Y294987D02*
X412320D01*
X413420Y295937D02*
X391320D01*
X390370Y296787D02*
X414270D01*
X473425Y483071D02*
X503346D01*
Y459449*
X473425*
Y483071*
X406769Y424001D02*
G03X406769I-9842J0D01*
G01X409958Y423812D02*
X418625D01*
X404822Y430282D02*
X422109D01*
X423967Y418017D02*
G03X422112Y430283I-928J6133D01*
G01X423969Y418017D02*
X405395D01*
X461482Y398652D02*
G03X461482I-9843J0D01*
G01X460398Y389001D02*
X466315Y382668D01*
X461619Y397171D02*
X473421Y384539D01*
X465722Y374812D02*
G03X473428Y384534I3853J4861D01*
G01X465729Y374807D02*
X453048Y388379D01*
X356073Y519685D02*
G03X356073I-4104J0D01*
G01X393869Y541732D02*
G03X393869I-4105J0D01*
G01X334026Y500787D02*
G03X334026I-4105J0D01*
G01X307244Y292220D02*
Y279220D01*
X303244*
X287244Y292220D02*
Y279220D01*
X291244*
X327697Y284551D02*
X322697D01*
X327697Y286551D02*
X322697D01*
X325197D02*
Y287551D01*
Y284551D02*
Y283551D01*
X329197Y279551D02*
Y277051D01*
X321197*
Y279551*
X329197Y291551D02*
Y294051D01*
X321197*
Y291551*
G54D15*
X186167Y518336D02*
X208249Y502799D01*
G54D17*
X358341Y466539D02*
X351255D01*
Y486663*
X358341*
Y466539*
X350530Y464741D02*
Y466731D01*
X349408Y465694D02*
X351702D01*
X351650Y485787D02*
X357877D01*
X202394Y444837D02*
X211615Y435615D01*
X195285Y427098D02*
X208285D01*
G54D18*
X312795Y278258D02*
X317913D01*
Y289458*
X312795*
Y278258*
X293898Y308750D02*
X288780D01*
Y297550*
X293898*
Y308750*
X318219Y574067D02*
Y567867D01*
X314819*
Y566267*
X318219*
Y560217*
X307719*
Y564267*
X303619*
Y569867*
X307719*
Y574067*
X318219*
X347369D02*
Y567867D01*
X343969*
Y566267*
X347369*
Y560217*
X336869*
Y564267*
X332769*
Y569867*
X336869*
Y574067*
X347369*
X301708Y568591D02*
Y573709D01*
X290508*
Y568591*
X301708*
X290480Y565888D02*
Y560770D01*
X301680*
Y565888*
X290480*
X319724Y573709D02*
Y568591D01*
X330924*
Y573709*
X319724*
X319623Y565888D02*
Y560770D01*
X330823*
Y565888*
X319623*
X351548Y569575D02*
Y564457D01*
X362748*
Y569575*
X351548*
X287598Y308750D02*
X282480D01*
Y297550*
X287598*
Y308750*
X189512Y511269D02*
X179771Y506625D01*
X188618Y511041D02*
X180476Y507107D01*
X187258Y511019D02*
X181306Y508113D01*
X197586Y498912D02*
G03X197586I-1968J0D01*
G01X188692Y505040D02*
G03X188692I-1968J0D01*
G01X187764Y494326D02*
G03X187764I-1969J0D01*
G01X201302Y499317D02*
G03X201302I-12000J0D01*
G01X184211Y511205D02*
X181684Y513007D01*
X184784Y514372*
X184211Y511205*
G54D20*
X476571Y338193D02*
Y279689D01*
X419878*
Y338232*
X476531*
X476571Y338193*
X466295Y334925D02*
X422083D01*
Y283075*
X474209*
Y327012*
X466295Y334925*
G54D22*
X162795Y436614D02*
G03X162795I-12401J0D01*
G01X137402Y423622D02*
Y449606D01*
X161024*
X163386Y447244*
Y425984*
X161024Y423622*
X137402*
X222192Y550137D02*
X214011Y541983D01*
X209294Y546716*
X217474Y554870*
X222192Y550137*
X217304Y546856D02*
X214288Y549882D01*
G54D109*
X230686Y545327D02*
Y543201D01*
Y537453D02*
Y535327D01*
Y529579D02*
Y527453D01*
Y521705D02*
Y519579D01*
Y513831D02*
Y511705D01*
X251159D02*
Y513831D01*
Y519579D02*
Y521705D01*
Y527453D02*
Y529579D01*
Y535327D02*
Y537453D01*
Y543201D02*
Y545327D01*
Y511705D02*
X249781D01*
X232064D02*
X230686D01*
Y513831D02*
X232064D01*
X249781D02*
X251159D01*
Y519579D02*
X249781D01*
X232064D02*
X230686D01*
Y521705D02*
X232064D01*
X249781D02*
X251159D01*
Y527453D02*
X249781D01*
X232064D02*
X230686D01*
Y529579D02*
X232064D01*
X249781D02*
X251159D01*
Y535327D02*
X249781D01*
X232064D02*
X230686D01*
Y537453D02*
X232064D01*
X249781D02*
X251159D01*
Y543201D02*
X249781D01*
X232064D02*
X230686D01*
Y545327D02*
X232064D01*
X249781D02*
X251159D01*
X208071Y273622D02*
X204921D01*
X178543D02*
X175394D01*
Y274409D02*
X178543D01*
X204921D02*
X208071D01*
X193307Y319882D02*
X190157D01*
Y320669D02*
X193307D01*
X175394Y273622D02*
Y274409D01*
X178543Y273622D02*
Y274409D01*
X190157Y320669D02*
Y319882D01*
X193307D02*
Y320669D01*
X204921Y274409D02*
Y273622D01*
X208071Y274409D02*
Y273622D01*
Y295276D02*
Y273622D01*
X175394Y295276D02*
Y273622D01*
Y295276D02*
X185236Y301181D01*
X208071Y273622D02*
X175394D01*
X198228Y301181D02*
X208071Y295276D01*
X198228Y301181D02*
X185236D01*
X208085Y281999D02*
G03X175418Y281970I-16353J21938D01*
G01X208057Y282967D02*
G03X175371Y282996I-16325J20970D01*
G01X190157Y320669D02*
X193307Y319882D01*
Y320669D02*
X190157Y319882D01*
X178543Y274409D02*
X175394Y273622D01*
Y274409D02*
X178543Y273622D01*
X204921Y274409D02*
X208071Y273622D01*
Y274409D02*
X204921Y273622D01*
X279933Y327904D02*
X273684Y327109D01*
X274032Y324376D02*
X280281Y325171D01*
X272209Y338398D02*
X272198Y338474D01*
X272182Y338550*
X272163Y338625*
X272141Y338699*
X272114Y338772*
X272084Y338843*
X272051Y338913*
X272014Y338981*
X271974Y339047*
X271931Y339111*
X271885Y339173*
X271835Y339232*
X271783Y339289*
X271729Y339344*
X271671Y339396*
X271611Y339445*
X271549Y339490*
X271484Y339533*
X271418Y339572*
X271350Y339609*
X271280Y339641*
X271208Y339671*
X271135Y339697*
X271061Y339719*
X270986Y339737*
X270910Y339752*
X270834Y339763*
X270757Y339770*
X270680Y339774*
X270602Y339773*
X270525Y339769*
X270448Y339762*
X270372Y339750*
X270296Y339734*
X270221Y339715*
X270147Y339693*
X270075Y339666*
X270003Y339636*
X269934Y339603*
X269866Y339567*
X269799Y339527*
X269736Y339483*
X269674Y339437*
X269614Y339388*
X269557Y339336*
X269502Y339281*
X269451Y339223*
X269402Y339164*
X269356Y339101*
X269313Y339037*
X269274Y338970*
X269238Y338902*
X269205Y338832*
X269175Y338761*
X269150Y338688*
X269127Y338614*
X269109Y338539*
X269094Y338463*
X269083Y338386*
X269076Y338309*
X269072Y338232*
X269073Y338155*
X269077Y338078*
X269085Y338001*
X269096Y337925*
X269112Y337849*
X269131Y337774*
X269153Y337700*
X269180Y337627*
X269209Y337556*
X269243Y337486*
X269280Y337418*
X269320Y337352*
X269363Y337288*
X269409Y337226*
X269458Y337167*
X269510Y337110*
X269565Y337055*
X269623Y337003*
X269683Y336954*
X269745Y336909*
X269809Y336866*
X269876Y336827*
X269944Y336790*
X270014Y336758*
X270086Y336728*
X270159Y336702*
X270232Y336680*
X270307Y336662*
X270384Y336647*
X270460Y336636*
X270537Y336629*
X270614Y336625*
X270691Y336626*
X270769Y336630*
X270846Y336637*
X270922Y336649*
X270998Y336664*
X271073Y336684*
X271146Y336706*
X271219Y336733*
X271291Y336763*
X271360Y336796*
X271428Y336832*
X271495Y336872*
X271558Y336916*
X271620Y336962*
X271680Y337011*
X271737Y337063*
X271791Y337118*
X271843Y337176*
X271892Y337235*
X271938Y337298*
X271981Y337362*
X272020Y337429*
X272056Y337497*
X272089Y337567*
X272118Y337638*
X272144Y337711*
X272166Y337785*
X272185Y337860*
X272200Y337936*
X272211Y338013*
X272218Y338090*
X272221Y338167*
Y338244*
X272217Y338321*
X272209Y338398*
X281661Y339600D02*
X281649Y339676D01*
X281634Y339752*
X281614Y339827*
X281592Y339901*
X281566Y339974*
X281535Y340045*
X281535D02*
X281503Y340114D01*
X281466Y340182*
X281426Y340249*
X281383Y340313*
X281336Y340374*
X281287Y340434*
X281235Y340491*
X281180Y340546*
X281122Y340597*
X281063Y340646*
X281000Y340692*
X280936Y340734*
X280870Y340774*
X280801Y340810*
X280731Y340843*
X280660Y340872*
X280587Y340898*
X280513Y340920*
X280437Y340939*
X280362Y340954*
X280285Y340965*
X280208Y340972*
X280131Y340975*
X280054*
X279977Y340971*
X279900Y340963*
X279823Y340952*
X279748Y340936*
X279673Y340917*
X279599Y340894*
X279526Y340868*
X279455Y340838*
X279385Y340805*
X279317Y340768*
X279251Y340728*
X279187Y340685*
X279125Y340639*
X279066Y340589*
X279008Y340538*
X278954Y340483*
X278902Y340425*
X278853Y340365*
X278807Y340303*
X278807D02*
X278765Y340239D01*
X278725Y340172*
X278689Y340104*
X278656Y340034*
X278627Y339962*
X278601Y339889*
X278579Y339815*
X278561Y339740*
X278546Y339665*
X278535Y339588*
X278527Y339511*
X278524Y339434*
Y339357*
X278528Y339280*
X278536Y339202*
X278548Y339126*
X278563Y339050*
X278582Y338976*
X278605Y338902*
X278631Y338829*
X278661Y338758*
X278694Y338688*
X278731Y338620*
X278771Y338554*
X278814Y338490*
X278861Y338428*
X278910Y338368*
X278962Y338311*
X279017Y338257*
X279074Y338205*
X279134Y338156*
X279197Y338110*
X279261Y338068*
X279327Y338028*
X279395Y337992*
X279466Y337959*
X279537Y337930*
X279610Y337904*
X279684Y337882*
X279759Y337863*
X279835Y337849*
X279911Y337838*
X279988Y337830*
X280066Y337827*
X280143*
X280220Y337831*
X280297Y337839*
X280373Y337851*
X280449Y337866*
X280524Y337885*
X280598Y337908*
X280671Y337934*
X280742Y337964*
X280812Y337997*
X280880Y338034*
X280946Y338074*
X281010Y338117*
X281072Y338164*
X281131Y338213*
X281189Y338265*
X281243Y338320*
X281295Y338377*
X281343Y338437*
X281389Y338500*
X281432Y338564*
X281471Y338630*
X281508Y338698*
X281540Y338769*
X281570Y338840*
X281596Y338913*
X281618Y338987*
X281636Y339062*
X281651Y339138*
X281662Y339214*
X281669Y339291*
X281673Y339369*
Y339446*
X281668Y339523*
X281661Y339600*
X273684Y327109D02*
X273651Y327105D01*
X273617Y327099*
X273584Y327093*
X273551Y327085*
X273518Y327078*
X273486Y327069*
X273453Y327059*
X273421Y327049*
X273389Y327038*
X273357Y327026*
X273326Y327013*
X273295Y327000*
X273264Y326986*
X273234Y326971*
X273204Y326955*
X273174Y326939*
X273145Y326921*
X273116Y326904*
X273088Y326885*
X273060Y326866*
X273033Y326846*
X273006Y326826*
X272980Y326804*
X272954Y326782*
X272929Y326760*
X272904Y326737*
X272880Y326713*
X272857Y326689*
X272834Y326664*
X272811Y326639*
X272789Y326613*
X272769Y326586*
X272748Y326559*
X272728Y326532*
X272709Y326503*
X272691Y326475*
X272673Y326446*
X272657Y326417*
X272640Y326387*
X272625Y326357*
X272610Y326327*
X272596Y326296*
X272583Y326265*
X272570Y326234*
X272559Y326202*
X272548Y326170*
X272538Y326138*
X272528Y326105*
X272520Y326072*
X272512Y326040*
X272512D02*
X272505Y326006D01*
X272499Y325973*
X272494Y325939*
X272490Y325906*
X272486Y325873*
X272483Y325839*
X272481Y325805*
X272480Y325771*
Y325737*
X272481Y325704*
X272482Y325670*
X272484Y325636*
X272487Y325603*
X272491Y325569*
X272496Y325535*
X272501Y325502*
X272507Y325469*
X272514Y325436*
X272523Y325403*
X272531Y325370*
X272541Y325338*
X272551Y325306*
X272562Y325274*
X272574Y325242*
X272587Y325211*
X272600Y325180*
X272615Y325149*
X272629Y325119*
X272645Y325089*
X272662Y325059*
X272679Y325030*
X272696Y325001*
X272715Y324973*
X272734Y324945*
X272754Y324918*
X272775Y324891*
X272796Y324865*
X272818Y324839*
X272841Y324814*
X272863Y324789*
X272887Y324765*
X272912Y324742*
X272936Y324719*
X272962Y324696*
X272988Y324675*
X273014Y324654*
X273041Y324633*
X273069Y324614*
X273097Y324594*
X273125Y324576*
X273154Y324559*
X273183Y324542*
X273213Y324525*
X273243Y324510*
X273273Y324495*
X273304Y324481*
X273335Y324468*
X273367Y324456*
X273399Y324444*
X273431Y324433*
X273463Y324423*
X273495Y324414*
X273528Y324405*
X273561Y324398*
X273594Y324391*
X273627Y324384*
X273661Y324379*
X273694Y324375*
X273728Y324371*
X273762Y324368*
X273796Y324367*
X273829Y324365*
X273863*
X273897Y324366*
X273931Y324367*
X273964Y324369*
X273998Y324372*
X274032Y324376*
X280280Y325171D02*
X280314Y325175D01*
X280348Y325181*
X280381Y325187*
X280414Y325194*
X280447Y325202*
X280479Y325211*
X280512Y325221*
X280544Y325231*
X280576Y325242*
X280608Y325254*
X280639Y325267*
X280670Y325280*
X280701Y325294*
X280731Y325309*
X280761Y325325*
X280790Y325341*
X280820Y325358*
X280848Y325376*
X280876Y325395*
X280905Y325414*
X280932Y325434*
X280959Y325455*
X280985Y325476*
X281011Y325497*
X281036Y325520*
X281061Y325543*
X281085Y325567*
X281108Y325591*
X281131Y325616*
X281154Y325642*
X281175Y325667*
X281196Y325694*
X281217Y325721*
X281236Y325748*
X281255Y325776*
X281274Y325805*
X281291Y325834*
X281308Y325863*
X281325Y325892*
X281340Y325923*
X281354Y325953*
X281368Y325984*
X281382Y326015*
X281394Y326046*
X281406Y326078*
X281417Y326110*
X281427Y326142*
X281436Y326175*
X281445Y326207*
X281452Y326240*
X281459Y326274*
X281465Y326307*
X281471Y326340*
X281475Y326374*
X281479Y326408*
X281481Y326441*
X281483Y326475*
X281484Y326509*
X281485Y326543*
X281484Y326576*
X281483Y326610*
X281481Y326644*
X281478Y326677*
X281474Y326711*
X281469Y326744*
X281464Y326778*
X281457Y326811*
X281450Y326844*
X281442Y326877*
X281434Y326910*
X281424Y326942*
X281413Y326974*
X281402Y327006*
X281391Y327038*
X281378Y327069*
X281364Y327100*
X281350Y327131*
X281335Y327161*
X281320Y327191*
X281303Y327221*
X281286Y327250*
X281268Y327279*
X281250Y327307*
X281230Y327334*
X281210Y327362*
X281190Y327389*
X281169Y327415*
X281147Y327441*
X281124Y327466*
X281101Y327491*
X281078Y327515*
X281053Y327538*
X281028Y327561*
X281003Y327584*
X280977Y327605*
X280951Y327626*
X280924Y327647*
X280896Y327666*
X280868Y327685*
X280840Y327704*
X280811Y327721*
X280781Y327738*
X280752Y327754*
X280722Y327770*
X280691Y327785*
X280660Y327799*
X280660D02*
X280629Y327812D01*
X280598Y327824*
X280566Y327836*
X280534Y327847*
X280502Y327857*
X280470Y327866*
X280437Y327875*
X280404Y327882*
X280371Y327889*
X280338Y327895*
X280304Y327901*
X280304D02*
X280270Y327905D01*
X280237Y327908*
X280203Y327911*
X280169Y327913*
X280136Y327914*
X280102Y327915*
X280068Y327914*
X280034Y327913*
X280000Y327911*
X279967Y327908*
X279933Y327904*
X366332Y408268D02*
G03X366332I-99797J0D01*
G01X337690Y357948D02*
X346103Y350824D01*
X336578Y339443*
X328165Y346567*
X337690Y357948*
X283648Y345456D02*
G03X265685Y343171I-8685J-3474D01*
G01X272205Y338394D02*
X272193Y338470D01*
X272178Y338546*
X272159Y338621*
X272136Y338695*
X272110Y338768*
X272080Y338839*
X272047Y338909*
X272010Y338977*
X271970Y339043*
X271927Y339107*
X271880Y339169*
X271831Y339228*
X271779Y339285*
X271724Y339340*
X271667Y339391*
X271607Y339440*
X271545Y339486*
X271480Y339529*
X271414Y339568*
X271345Y339605*
X271275Y339637*
X271204Y339667*
X271131Y339692*
X271057Y339715*
X270982Y339733*
X270906Y339748*
X270829Y339759*
X270753Y339766*
X270675Y339770*
X270598Y339769*
X270521Y339765*
X270444Y339757*
X270367Y339746*
X270292Y339730*
X270217Y339711*
X270143Y339689*
X270070Y339662*
X269999Y339632*
X269929Y339599*
X269861Y339563*
X269795Y339523*
X269731Y339479*
X269669Y339433*
X269610Y339384*
X269552Y339332*
X269498Y339277*
X269446Y339219*
X269398Y339160*
X269352Y339097*
X269309Y339033*
X269269Y338966*
X269233Y338898*
X269201Y338828*
X269171Y338757*
X269146Y338684*
X269123Y338610*
X269105Y338535*
X269090Y338459*
X269079Y338382*
X269072Y338305*
X269068Y338228*
Y338151*
X269073Y338074*
X269080Y337997*
X269092Y337920*
X269107Y337844*
X269126Y337770*
X269149Y337696*
X269175Y337623*
X269205Y337552*
X269239Y337482*
X269275Y337414*
X269315Y337348*
X269358Y337284*
X269405Y337222*
X269454Y337162*
X269506Y337105*
X269561Y337051*
X269618Y336999*
X269678Y336950*
X269741Y336905*
X269805Y336862*
X269872Y336823*
X269872D02*
X269940Y336786D01*
X270010Y336753*
X270081Y336724*
X270154Y336698*
X270228Y336676*
X270303Y336658*
X270379Y336643*
X270456Y336632*
X270533Y336624*
X270610Y336621*
X270687Y336622*
X270764Y336625*
X270841Y336633*
X270917Y336645*
X270994Y336660*
X271068Y336679*
X271142Y336702*
X271215Y336729*
X271286Y336758*
X271356Y336792*
X271424Y336828*
X271490Y336868*
X271554Y336912*
X271616Y336958*
X271676Y337007*
X271733Y337059*
X271787Y337114*
X271839Y337172*
X271888Y337231*
X271934Y337294*
X271976Y337358*
X272016Y337424*
X272052Y337493*
X272085Y337563*
X272114Y337634*
X272140Y337707*
X272162Y337781*
X272181Y337856*
X272195Y337932*
X272206Y338009*
X272213Y338085*
X272217Y338163*
Y338240*
X272213Y338317*
X272205Y338394*
X281656Y339596D02*
X281645Y339672D01*
X281629Y339748*
X281610Y339823*
X281587Y339896*
X281561Y339969*
X281531Y340041*
X281498Y340110*
X281461Y340178*
X281421Y340244*
X281378Y340308*
X281332Y340370*
X281283Y340430*
X281230Y340487*
X281176Y340541*
X281118Y340593*
X281058Y340642*
X280996Y340688*
X280932Y340730*
X280865Y340770*
X280797Y340806*
X280727Y340839*
X280656Y340868*
X280656D02*
X280582Y340894D01*
X280509Y340916*
X280433Y340935*
X280357Y340949*
X280281Y340961*
X280204Y340968*
X280127Y340971*
X280050*
X279972Y340967*
X279896Y340959*
X279819Y340947*
X279743Y340932*
X279669Y340913*
X279595Y340890*
X279522Y340864*
X279450Y340834*
X279381Y340801*
X279313Y340764*
X279247Y340724*
X279182Y340681*
X279120Y340635*
X279061Y340585*
X279004Y340534*
X278949Y340478*
X278898Y340421*
X278849Y340361*
X278803Y340299*
X278760Y340235*
X278721Y340168*
X278685Y340100*
X278652Y340030*
X278623Y339958*
X278623D02*
X278597Y339885D01*
X278575Y339811*
X278556Y339736*
X278541Y339661*
X278530Y339584*
X278523Y339507*
X278519Y339430*
X278520Y339353*
X278524Y339275*
X278532Y339198*
X278543Y339122*
X278559Y339046*
X278578Y338972*
X278600Y338898*
X278627Y338825*
X278657Y338753*
X278690Y338684*
X278727Y338616*
X278767Y338550*
X278810Y338485*
X278856Y338424*
X278905Y338364*
X278957Y338307*
X279012Y338252*
X279070Y338201*
X279130Y338152*
X279192Y338106*
X279256Y338063*
X279323Y338024*
X279391Y337988*
X279461Y337955*
X279533Y337926*
X279606Y337900*
X279680Y337878*
X279755Y337859*
X279830Y337845*
X279907Y337834*
X279907D02*
X279984Y337826D01*
X280061Y337823*
X280139*
X280216Y337827*
X280293Y337835*
X280369Y337847*
X280445Y337862*
X280520Y337881*
X280594Y337904*
X280666Y337930*
X280737Y337960*
X280807Y337993*
X280875Y338030*
X280942Y338070*
X281006Y338113*
X281067Y338160*
X281127Y338208*
X281184Y338261*
X281238Y338316*
X281290Y338373*
X281339Y338433*
X281385Y338495*
X281427Y338560*
X281467Y338626*
X281503Y338694*
X281536Y338765*
X281565Y338836*
X281591Y338909*
X281613Y338983*
X281632Y339058*
X281647Y339134*
X281658Y339210*
X281665Y339287*
X281668Y339364*
Y339442*
X281664Y339519*
X281656Y339596*
X274027Y324372D02*
X280276Y325167D01*
X280293Y325169*
X280310Y325171*
X280326Y325174*
X280343Y325177*
X280360Y325180*
X280376Y325183*
X280393Y325187*
X280409Y325190*
X280426Y325194*
X280442Y325198*
X280459Y325203*
X280475Y325207*
X280491Y325211*
X280507Y325216*
X280523Y325222*
X280540Y325227*
X280556Y325232*
X280572Y325238*
X280587Y325244*
X280603Y325250*
X280619Y325256*
X280635Y325262*
X280650Y325269*
X280665Y325276*
X280681Y325283*
X280696Y325290*
X280712Y325298*
X280726Y325305*
X280742Y325313*
X280756Y325321*
X280771Y325329*
X280786Y325337*
X280801Y325346*
X280815Y325354*
X280830Y325363*
X280844Y325372*
X280858Y325382*
X280872Y325391*
X280886Y325400*
X280900Y325410*
X280914Y325420*
X280927Y325430*
X280941Y325440*
X280954Y325450*
X280967Y325461*
X280980Y325472*
X280994Y325482*
X281006Y325493*
X281019Y325505*
X281032Y325516*
X281044Y325527*
X281056Y325539*
X281068Y325551*
X281080Y325563*
X281092Y325575*
X281104Y325587*
X281115Y325600*
X281127Y325612*
X281138Y325625*
X281149Y325637*
X281160Y325650*
X281171Y325663*
X281182Y325676*
X281192Y325690*
X281202Y325703*
X281212Y325717*
X281222Y325731*
X281232Y325744*
X281241Y325758*
X281251Y325772*
X281260Y325786*
X281269Y325801*
X281278Y325815*
X281287Y325830*
X281296Y325844*
X281304Y325859*
X281312Y325874*
X281320Y325888*
X281328Y325903*
X281336Y325919*
X281343Y325934*
X281350Y325949*
X281358Y325964*
X281364Y325980*
X281371Y325995*
X281377Y326011*
X281384Y326027*
X281390Y326042*
X281396Y326058*
X281401Y326074*
X281407Y326090*
X281412Y326106*
X281417Y326122*
X281422Y326138*
X281427Y326154*
X281432Y326171*
X281436Y326187*
X281440Y326203*
X281444Y326220*
X281448Y326236*
X281452Y326253*
X281455Y326270*
X281458Y326286*
X281461Y326303*
X281464Y326320*
X281466Y326336*
X281469Y326353*
X281471Y326369*
X281472Y326386*
X281474Y326403*
X281476Y326420*
X281477Y326437*
X281478Y326454*
X281479Y326471*
X281480Y326488*
Y326504*
Y326521*
Y326538*
Y326555*
Y326572*
X281479Y326589*
X281478Y326606*
X281477Y326623*
X281476Y326640*
X281475Y326656*
X281473Y326673*
X281471Y326690*
X281469Y326707*
X272487Y325565D02*
X272489Y325548D01*
X272491Y325531*
X272494Y325515*
X272497Y325498*
X272500Y325481*
X272503Y325465*
X272507Y325448*
X272510Y325432*
X272514Y325415*
X272518Y325399*
X272522Y325383*
X272527Y325366*
X272531Y325350*
X272536Y325334*
X272542Y325317*
X272547Y325302*
X272552Y325286*
X272558Y325270*
X272564Y325254*
X272570Y325238*
X272576Y325222*
X272582Y325207*
X272589Y325191*
X272596Y325175*
X272603Y325160*
X272610Y325145*
X272617Y325130*
X272625Y325114*
X272633Y325100*
X272641Y325085*
X272649Y325070*
X272657Y325055*
X272665Y325040*
X272674Y325026*
X272683Y325012*
X272692Y324997*
X272701Y324983*
X272711Y324969*
X272720Y324955*
X272730Y324941*
X272740Y324927*
X272750Y324914*
X272760Y324900*
X272770Y324887*
X272781Y324874*
X272792Y324861*
X272803Y324848*
X272814Y324835*
X272824Y324822*
X272836Y324810*
X272847Y324797*
X272859Y324785*
X272871Y324773*
X272883Y324761*
X272895Y324749*
X272907Y324737*
X272919Y324726*
X272932Y324715*
X272944Y324703*
X272957Y324692*
X272970Y324681*
X272983Y324670*
X272997Y324660*
X273010Y324649*
X273023Y324639*
X273037Y324629*
X273050Y324619*
X273064Y324609*
X273078Y324600*
X273092Y324590*
X273106Y324581*
X273121Y324572*
X273135Y324563*
X273149Y324555*
X273164Y324546*
X273179Y324538*
X273194Y324529*
X273208Y324521*
X273223Y324514*
X273239Y324506*
X273254Y324498*
X273269Y324491*
X273284Y324484*
X273300Y324477*
X273315Y324470*
X273331Y324464*
X273347Y324458*
X273362Y324451*
X273378Y324446*
X273394Y324440*
X273410Y324434*
X273426Y324429*
X273442Y324424*
X273458Y324419*
X273475Y324414*
X273491Y324409*
X273507Y324405*
X273524Y324401*
X273540Y324397*
X273557Y324394*
X273573Y324390*
X273590Y324387*
X273606Y324384*
X273623Y324380*
X273640Y324378*
X273656Y324375*
X273673Y324373*
X273690Y324371*
X273707Y324369*
X273724Y324367*
X273741Y324366*
X273757Y324364*
X273774Y324363*
X273791Y324362*
X273808*
X273825Y324361*
X273842*
X273859*
X273875*
X273892Y324362*
X273909*
X273926Y324363*
X273943Y324364*
X273960Y324365*
X273977Y324367*
X273994Y324368*
X274010Y324370*
X274027Y324372*
X279929Y327900D02*
X273680Y327105D01*
X273646Y327100*
X273613Y327095*
X273580Y327089*
X273547Y327081*
X273547D02*
X273514Y327074D01*
X273481Y327065*
X273449Y327055*
X273416Y327045*
X273385Y327034*
X273353Y327022*
X273321Y327009*
X273291Y326996*
X273260Y326982*
X273230Y326967*
X273199Y326951*
X273170Y326935*
X273141Y326917*
X273112Y326900*
X273084Y326881*
X273056Y326862*
X273029Y326842*
X273002Y326821*
X272976Y326800*
X272950Y326778*
X272924Y326756*
X272900Y326733*
X272876Y326709*
X272852Y326684*
X272829Y326660*
X272807Y326634*
X272785Y326609*
X272764Y326582*
X272744Y326555*
X272724Y326528*
X272705Y326499*
X272687Y326471*
X272669Y326442*
X272652Y326413*
X272636Y326383*
X272620Y326353*
X272606Y326323*
X272592Y326292*
X272592D02*
X272579Y326261D01*
X272566Y326230*
X272554Y326198*
X272544Y326166*
X272534Y326134*
X272524Y326101*
X272516Y326068*
X272508Y326035*
X272501Y326002*
X272495Y325969*
X272490Y325935*
X272485Y325902*
X272482Y325868*
X272479Y325835*
X272477Y325801*
X272476Y325767*
Y325733*
Y325700*
X272478Y325666*
X272480Y325632*
X272483Y325599*
X272487Y325565*
X272491Y325531*
X272497Y325498*
X272503Y325465*
X272510Y325432*
X272518Y325399*
X272527Y325366*
X272536Y325334*
X272547Y325302*
X272558Y325270*
X272570Y325238*
X272582Y325207*
X272596Y325175*
X272610Y325145*
X272625Y325114*
X272641Y325085*
X272657Y325055*
X272674Y325026*
X272692Y324997*
X272711Y324969*
X272730Y324941*
X272750Y324914*
X272770Y324887*
X272792Y324861*
X272814Y324835*
X272836Y324810*
X272859Y324785*
X272883Y324761*
X272907Y324737*
X272932Y324715*
X272957Y324692*
X272983Y324670*
X273010Y324649*
X273037Y324629*
X273064Y324609*
X273092Y324590*
X273121Y324572*
X273149Y324555*
X273179Y324538*
X273208Y324521*
X273239Y324506*
X273269Y324491*
X273300Y324477*
X273331Y324464*
X273362Y324451*
X273394Y324440*
X273426Y324429*
X273458Y324419*
X273491Y324409*
X273524Y324401*
X273557Y324394*
X273590Y324387*
X273623Y324380*
X273656Y324375*
X273690Y324371*
X273724Y324367*
X273757Y324364*
X273791Y324362*
X273825Y324361*
X273859*
X273892Y324362*
X273926Y324363*
X273960Y324365*
X273994Y324368*
X274027Y324372*
X280276Y325167D02*
X280310Y325171D01*
X280343Y325177*
X280376Y325183*
X280409Y325190*
X280442Y325198*
X280475Y325207*
X280507Y325216*
X280540Y325227*
X280572Y325238*
X280603Y325250*
X280635Y325262*
X280665Y325276*
X280696Y325290*
X280726Y325305*
X280756Y325321*
X280786Y325337*
X280815Y325354*
X280844Y325372*
X280872Y325391*
X280900Y325410*
X280927Y325430*
X280954Y325450*
X280980Y325472*
X281006Y325493*
X281032Y325516*
X281056Y325539*
X281080Y325563*
X281104Y325587*
X281127Y325612*
X281149Y325637*
X281171Y325663*
X281192Y325690*
X281212Y325717*
X281232Y325744*
X281251Y325772*
X281269Y325801*
X281287Y325830*
X281304Y325859*
X281320Y325888*
X281336Y325919*
X281350Y325949*
X281364Y325980*
X281377Y326011*
X281390Y326042*
X281401Y326074*
X281412Y326106*
X281422Y326138*
X281432Y326171*
X281440Y326203*
X281448Y326236*
X281455Y326270*
X281461Y326303*
X281466Y326336*
X281471Y326369*
X281474Y326403*
X281477Y326437*
X281479Y326471*
X281480Y326504*
Y326538*
Y326572*
X281478Y326606*
X281476Y326640*
X281473Y326673*
X281469Y326707*
X281465Y326740*
X281459Y326774*
X281453Y326807*
X281446Y326840*
X281438Y326873*
X281429Y326906*
X281420Y326938*
X281409Y326970*
X281398Y327002*
X281386Y327034*
X281374Y327065*
X281360Y327096*
X281346Y327127*
X281331Y327157*
X281315Y327187*
X281299Y327217*
X281282Y327246*
X281264Y327275*
X281245Y327303*
X281226Y327330*
X281206Y327358*
X281186Y327385*
X281164Y327411*
X281142Y327437*
X281120Y327462*
X281097Y327487*
X281073Y327511*
X281049Y327534*
X281024Y327557*
X280999Y327579*
X280972Y327601*
X280946Y327622*
X280919Y327643*
X280892Y327662*
X280864Y327681*
X280835Y327700*
X280807Y327717*
X280777Y327734*
X280748Y327750*
X280717Y327766*
X280687Y327781*
X280656Y327795*
X280625Y327808*
X280594Y327820*
X280562Y327832*
X280530Y327843*
X280497Y327853*
X280465Y327862*
X280432Y327871*
X280399Y327878*
X280366Y327885*
X280333Y327891*
X280299Y327896*
X280266Y327901*
X280232Y327904*
X280199Y327907*
X280165Y327909*
X280131Y327910*
X280097*
X280064*
X280030Y327909*
X279996Y327907*
X279962Y327904*
X279929Y327900*
X216050Y441028D02*
X213154Y442267D01*
X215492Y439725D02*
X234681Y431341D01*
X207622Y421338D02*
X226935Y413244D01*
X207529Y421121D02*
X204634Y422361D01*
X226935Y413244D02*
X234681Y431341D01*
X207529Y421121D02*
X216050Y441028D01*
X213154Y442267D02*
X204634Y422361D01*
X226941Y413241D02*
G03X234680Y431341I3799J9080D01*
G01X191538Y426929D02*
G03X191526Y426961I1837J669D01*
G01X199229Y436651D02*
G03X199229I-1969J0D01*
G01X203257Y446061D02*
G03X203257I-1969J0D01*
G01X205583Y469359D02*
X196510Y477043D01*
X186918Y465717*
X195971Y458051*
X205583Y469359*
X220921Y304043D02*
G03X220921I-29269J0D01*
G01X128655Y553920D02*
G03X128655I-7824J0D01*
G01X278282Y292125D02*
G03X278282I-7824J0D01*
G01X506643Y561789D02*
G03X506643I-7824J0D01*
G01X220921Y304043D02*
G03X220921I-29269J0D01*
G01X128655Y553920D02*
G03X128655I-7824J0D01*
G01X278282Y292125D02*
G03X278282I-7824J0D01*
G01X506643Y561789D02*
G03X506643I-7824J0D01*
G01X162383Y304023D02*
X220921D01*
X162383Y304113D02*
X220921D01*
X162383Y303933D02*
X220921D01*
X162383Y304203D02*
X220921D01*
X162384Y303843D02*
X220920D01*
X162384Y304293D02*
X220920D01*
X162384Y303753D02*
X220920D01*
X162385Y304383D02*
X220919D01*
X162385Y303663D02*
X220919D01*
X162386Y304473D02*
X220918D01*
X162387Y303573D02*
X220917D01*
X162388Y304563D02*
X220917D01*
X162388Y303483D02*
X220916D01*
X162389Y304653D02*
X220915D01*
X162390Y303393D02*
X220914D01*
X162391Y304743D02*
X220913D01*
X162392Y303303D02*
X220912D01*
X162394Y304833D02*
X220911D01*
X162395Y303213D02*
X220909D01*
X162396Y304923D02*
X220908D01*
X162397Y303123D02*
X220907D01*
X162399Y305013D02*
X220905D01*
X162400Y303033D02*
X220904D01*
X162402Y305103D02*
X220902D01*
X162404Y302943D02*
X220900D01*
X162406Y305193D02*
X220899D01*
X162407Y302853D02*
X220897D01*
X162409Y305283D02*
X220895D01*
X162411Y302763D02*
X220893D01*
X162413Y305373D02*
X220891D01*
X162415Y302673D02*
X220889D01*
X162417Y305463D02*
X220887D01*
X162419Y302583D02*
X220885D01*
X162422Y305553D02*
X220882D01*
X162424Y302493D02*
X220880D01*
X162427Y305643D02*
X220877D01*
X162429Y302403D02*
X220875D01*
X162432Y305733D02*
X220872D01*
X162434Y302313D02*
X220870D01*
X162437Y305823D02*
X220867D01*
X162440Y302223D02*
X220865D01*
X162443Y305913D02*
X220861D01*
X162445Y302133D02*
X220859D01*
X162449Y306003D02*
X220856D01*
X162451Y302043D02*
X220853D01*
X162455Y306093D02*
X220849D01*
X162458Y301953D02*
X220846D01*
X162461Y306183D02*
X220843D01*
X162464Y301863D02*
X220840D01*
X162468Y306273D02*
X220836D01*
X162471Y301773D02*
X220833D01*
X162475Y306363D02*
X220829D01*
X162478Y301683D02*
X220826D01*
X162482Y306453D02*
X220822D01*
X162486Y301593D02*
X220818D01*
X162490Y306543D02*
X220814D01*
X162493Y301503D02*
X220811D01*
X162498Y306633D02*
X220806D01*
X162501Y301413D02*
X220803D01*
X162506Y306723D02*
X220798D01*
X162510Y301323D02*
X220794D01*
X162514Y306813D02*
X220790D01*
X162518Y301233D02*
X220786D01*
X162523Y306903D02*
X220781D01*
X162527Y301143D02*
X220777D01*
X162532Y306993D02*
X220772D01*
X162536Y301053D02*
X220768D01*
X162541Y307083D02*
X220763D01*
X162546Y300963D02*
X220759D01*
X162551Y307173D02*
X220753D01*
X162555Y300873D02*
X220749D01*
X162561Y307263D02*
X220744D01*
X162565Y300783D02*
X220739D01*
X162571Y307353D02*
X220733D01*
X162575Y300693D02*
X220729D01*
X162581Y307443D02*
X220723D01*
X162586Y300603D02*
X220718D01*
X162592Y307533D02*
X220712D01*
X162597Y300513D02*
X220707D01*
X162603Y307623D02*
X220701D01*
X162608Y300423D02*
X220696D01*
X162614Y307713D02*
X220690D01*
X162619Y300333D02*
X220685D01*
X162625Y307803D02*
X220679D01*
X162631Y300243D02*
X220673D01*
X162637Y307893D02*
X220667D01*
X162643Y300153D02*
X220661D01*
X162649Y307983D02*
X220655D01*
X162655Y300063D02*
X220649D01*
X162662Y308073D02*
X220642D01*
X162667Y299973D02*
X220637D01*
X162674Y308163D02*
X220630D01*
X162680Y299883D02*
X220624D01*
X162687Y308253D02*
X220617D01*
X162693Y299793D02*
X220611D01*
X162701Y308343D02*
X220604D01*
X162707Y299703D02*
X220598D01*
X162714Y308433D02*
X220590D01*
X162720Y299613D02*
X220584D01*
X162728Y308523D02*
X220576D01*
X162734Y299523D02*
X220570D01*
X162742Y308613D02*
X220562D01*
X162748Y299433D02*
X220556D01*
X162756Y308703D02*
X220548D01*
X162763Y299343D02*
X220541D01*
X162771Y308793D02*
X220533D01*
X162778Y299253D02*
X220527D01*
X162786Y308883D02*
X220518D01*
X162793Y299163D02*
X220511D01*
X162801Y308973D02*
X220503D01*
X162808Y299073D02*
X220496D01*
X162817Y309063D02*
X220488D01*
X162824Y298983D02*
X220480D01*
X162832Y309153D02*
X220472D01*
X162840Y298893D02*
X220464D01*
X162849Y309243D02*
X220456D01*
X162856Y298803D02*
X220448D01*
X162865Y309333D02*
X220439D01*
X162872Y298713D02*
X220432D01*
X162882Y309423D02*
X220423D01*
X162889Y298623D02*
X220415D01*
X162899Y309513D02*
X220406D01*
X162906Y298533D02*
X220398D01*
X162916Y309603D02*
X220388D01*
X162924Y298443D02*
X220380D01*
X162933Y309693D02*
X220371D01*
X162942Y298353D02*
X220363D01*
X162951Y309783D02*
X220353D01*
X162959Y298263D02*
X220345D01*
X162969Y309873D02*
X220335D01*
X162978Y298173D02*
X220326D01*
X162988Y309963D02*
X220316D01*
X162996Y298083D02*
X220308D01*
X163007Y310053D02*
X220298D01*
X163015Y297993D02*
X220289D01*
X163026Y310143D02*
X220279D01*
X163034Y297903D02*
X220270D01*
X163045Y310233D02*
X220259D01*
X163054Y297813D02*
X220250D01*
X163065Y310323D02*
X220240D01*
X163074Y297723D02*
X220231D01*
X163085Y310413D02*
X220220D01*
X163094Y297633D02*
X220211D01*
X163105Y310503D02*
X220199D01*
X163114Y297543D02*
X220190D01*
X163125Y310593D02*
X220179D01*
X163135Y297453D02*
X220170D01*
X163146Y310683D02*
X220158D01*
X163156Y297363D02*
X220149D01*
X163167Y310773D02*
X220137D01*
X163177Y297273D02*
X220127D01*
X163189Y310863D02*
X220116D01*
X163198Y297183D02*
X220106D01*
X163210Y310953D02*
X220094D01*
X163220Y297093D02*
X220084D01*
X163232Y311043D02*
X220072D01*
X163242Y297003D02*
X220062D01*
X163255Y311133D02*
X220050D01*
X163265Y296913D02*
X220039D01*
X163277Y311223D02*
X220027D01*
X163288Y296823D02*
X220017D01*
X163300Y311313D02*
X220004D01*
X163311Y296733D02*
X219994D01*
X163323Y311403D02*
X219981D01*
X163334Y296643D02*
X219970D01*
X163347Y311493D02*
X219957D01*
X163358Y296553D02*
X219947D01*
X163371Y311583D02*
X219933D01*
X163382Y296463D02*
X219923D01*
X163395Y311673D02*
X219909D01*
X163406Y296373D02*
X219898D01*
X163419Y311763D02*
X219885D01*
X163431Y296283D02*
X219874D01*
X163444Y311853D02*
X219860D01*
X163455Y296193D02*
X219849D01*
X163469Y311943D02*
X219835D01*
X163481Y296103D02*
X219824D01*
X163495Y312033D02*
X219810D01*
X163506Y296013D02*
X219798D01*
X163520Y312123D02*
X219784D01*
X163532Y295923D02*
X219772D01*
X163546Y312213D02*
X219758D01*
X163558Y295833D02*
X219746D01*
X163573Y312303D02*
X219732D01*
X163585Y295743D02*
X219720D01*
X163599Y312393D02*
X219705D01*
X163611Y295653D02*
X219693D01*
X163626Y312483D02*
X219678D01*
X163638Y295563D02*
X219666D01*
X163653Y312573D02*
X219651D01*
X163666Y295473D02*
X219638D01*
X163681Y312663D02*
X219623D01*
X163694Y295383D02*
X219611D01*
X163709Y312753D02*
X219595D01*
X163722Y295293D02*
X219583D01*
X163737Y312843D02*
X219567D01*
X163750Y295203D02*
X219554D01*
X163766Y312933D02*
X219539D01*
X163779Y295113D02*
X219526D01*
X163795Y313023D02*
X219510D01*
X163808Y295023D02*
X219497D01*
X163824Y313113D02*
X219481D01*
X163837Y294933D02*
X219467D01*
X163853Y313203D02*
X219451D01*
X163867Y294843D02*
X219438D01*
X163883Y313293D02*
X219421D01*
X163897Y294753D02*
X219408D01*
X163913Y313383D02*
X219391D01*
X163927Y294663D02*
X219377D01*
X163944Y313473D02*
X219361D01*
X163958Y294573D02*
X219347D01*
X163974Y313563D02*
X219330D01*
X163988Y294483D02*
X219316D01*
X164006Y313653D02*
X219299D01*
X164020Y294393D02*
X219284D01*
X164037Y313743D02*
X219267D01*
X164051Y294303D02*
X219253D01*
X164069Y313833D02*
X219235D01*
X164083Y294213D02*
X219221D01*
X164101Y313923D02*
X219203D01*
X164115Y294123D02*
X219189D01*
X164133Y314013D02*
X219171D01*
X164148Y294033D02*
X219156D01*
X164166Y314103D02*
X219138D01*
X164181Y293943D02*
X219123D01*
X164199Y314193D02*
X219105D01*
X164214Y293853D02*
X219090D01*
X164233Y314283D02*
X219072D01*
X164248Y293763D02*
X219056D01*
X164266Y314373D02*
X219038D01*
X164282Y293673D02*
X219022D01*
X164300Y314463D02*
X219004D01*
X164316Y293583D02*
X218988D01*
X164335Y314553D02*
X218969D01*
X164351Y293493D02*
X218954D01*
X164370Y314643D02*
X218934D01*
X164386Y293403D02*
X218919D01*
X164405Y314733D02*
X218899D01*
X164421Y293313D02*
X218883D01*
X164440Y314823D02*
X218864D01*
X164457Y293223D02*
X218848D01*
X164476Y314913D02*
X218828D01*
X164493Y293133D02*
X218812D01*
X164512Y315003D02*
X218792D01*
X164529Y293043D02*
X218775D01*
X164549Y315093D02*
X218755D01*
X164566Y292953D02*
X218739D01*
X164586Y315183D02*
X218718D01*
X164603Y292863D02*
X218702D01*
X164623Y315273D02*
X218681D01*
X164640Y292773D02*
X218664D01*
X164661Y315363D02*
X218644D01*
X164678Y292683D02*
X218627D01*
X164698Y315453D02*
X218606D01*
X164716Y292593D02*
X218588D01*
X164737Y315543D02*
X218567D01*
X164754Y292503D02*
X218550D01*
X164775Y315633D02*
X218529D01*
X164793Y292413D02*
X218511D01*
X164814Y315723D02*
X218490D01*
X164832Y292323D02*
X218472D01*
X164854Y315813D02*
X218451D01*
X164872Y292233D02*
X218433D01*
X164893Y315903D02*
X218411D01*
X164912Y292143D02*
X218393D01*
X164933Y315993D02*
X218371D01*
X164952Y292053D02*
X218352D01*
X164974Y316083D02*
X218330D01*
X164992Y291963D02*
X218312D01*
X165015Y316173D02*
X218290D01*
X165033Y291873D02*
X218271D01*
X165056Y316263D02*
X218248D01*
X165075Y291783D02*
X218230D01*
X165097Y316353D02*
X218207D01*
X165116Y291693D02*
X218188D01*
X165139Y316443D02*
X218165D01*
X165158Y291603D02*
X218146D01*
X165182Y316533D02*
X218123D01*
X165201Y291513D02*
X218103D01*
X165224Y316623D02*
X218080D01*
X165244Y291423D02*
X218061D01*
X165267Y316713D02*
X218037D01*
X165287Y291333D02*
X218017D01*
X165311Y316803D02*
X217994D01*
X165330Y291243D02*
X217974D01*
X165354Y316893D02*
X217950D01*
X165374Y291153D02*
X217930D01*
X165399Y316983D02*
X217906D01*
X165419Y291063D02*
X217885D01*
X165443Y317073D02*
X217861D01*
X165463Y290973D02*
X217841D01*
X165488Y317163D02*
X217816D01*
X165509Y290883D02*
X217796D01*
X165533Y317253D02*
X217771D01*
X165554Y290793D02*
X217750D01*
X165579Y317343D02*
X217725D01*
X165600Y290703D02*
X217704D01*
X165625Y317433D02*
X217679D01*
X165646Y290613D02*
X217658D01*
X165672Y317523D02*
X217632D01*
X165693Y290523D02*
X217611D01*
X165719Y317613D02*
X217586D01*
X165740Y290433D02*
X217564D01*
X165766Y317703D02*
X217538D01*
X165787Y290343D02*
X217517D01*
X165814Y317793D02*
X217491D01*
X165835Y290253D02*
X217469D01*
X165862Y317883D02*
X217442D01*
X165884Y290163D02*
X217421D01*
X165910Y317973D02*
X217394D01*
X165932Y290073D02*
X217372D01*
X165959Y318063D02*
X217345D01*
X165981Y289983D02*
X217323D01*
X166008Y318153D02*
X217296D01*
X166031Y289893D02*
X217273D01*
X166058Y318243D02*
X217246D01*
X166081Y289803D02*
X217223D01*
X166108Y318333D02*
X217196D01*
X166131Y289713D02*
X217173D01*
X166159Y318423D02*
X217145D01*
X166182Y289623D02*
X217122D01*
X166210Y318513D02*
X217094D01*
X166233Y289533D02*
X217071D01*
X166261Y318603D02*
X217043D01*
X166285Y289443D02*
X217020D01*
X166313Y318693D02*
X216991D01*
X166337Y289353D02*
X216968D01*
X166365Y318783D02*
X216939D01*
X166389Y289263D02*
X216915D01*
X166418Y318873D02*
X216886D01*
X166442Y289173D02*
X216862D01*
X166471Y318963D02*
X216833D01*
X166495Y289083D02*
X216809D01*
X166525Y319053D02*
X216780D01*
X166549Y288993D02*
X216755D01*
X166579Y319143D02*
X216726D01*
X166603Y288903D02*
X216701D01*
X166633Y319233D02*
X216671D01*
X166658Y288813D02*
X216646D01*
X166688Y319323D02*
X216616D01*
X166713Y288723D02*
X216591D01*
X166743Y319413D02*
X216561D01*
X166768Y288633D02*
X216536D01*
X166799Y319503D02*
X216505D01*
X166824Y288543D02*
X216480D01*
X166855Y319593D02*
X216449D01*
X166881Y288453D02*
X216423D01*
X166912Y319683D02*
X216392D01*
X166938Y288363D02*
X216367D01*
X166969Y319773D02*
X216335D01*
X166995Y288273D02*
X216309D01*
X167027Y319863D02*
X216278D01*
X167053Y288183D02*
X216251D01*
X167085Y319953D02*
X216220D01*
X167111Y288093D02*
X216193D01*
X167143Y320043D02*
X216161D01*
X167170Y288003D02*
X216134D01*
X167202Y320133D02*
X216102D01*
X167229Y287913D02*
X216075D01*
X167262Y320223D02*
X216043D01*
X167289Y287823D02*
X216016D01*
X167321Y320313D02*
X215983D01*
X167349Y287733D02*
X215955D01*
X167382Y320403D02*
X215922D01*
X167409Y287643D02*
X215895D01*
X167443Y320493D02*
X215861D01*
X167471Y287553D02*
X215834D01*
X167504Y320583D02*
X215800D01*
X167532Y287463D02*
X215772D01*
X167566Y320673D02*
X215738D01*
X167594Y287373D02*
X215710D01*
X167628Y320763D02*
X215676D01*
X167657Y287283D02*
X215647D01*
X167691Y320853D02*
X215613D01*
X167720Y287193D02*
X215584D01*
X167755Y320943D02*
X215549D01*
X167784Y287103D02*
X215521D01*
X167819Y321033D02*
X215486D01*
X167848Y287013D02*
X215456D01*
X167883Y321123D02*
X215421D01*
X167912Y286923D02*
X215392D01*
X167948Y321213D02*
X215356D01*
X167978Y286833D02*
X215327D01*
X168013Y321303D02*
X215291D01*
X168043Y286743D02*
X215261D01*
X168079Y321393D02*
X215225D01*
X168110Y286653D02*
X215195D01*
X168146Y321483D02*
X215158D01*
X168176Y286563D02*
X215128D01*
X168213Y321573D02*
X215091D01*
X168244Y286473D02*
X215061D01*
X168281Y321663D02*
X215024D01*
X168311Y286383D02*
X214993D01*
X168349Y321753D02*
X214956D01*
X168380Y286293D02*
X214924D01*
X168417Y321843D02*
X214887D01*
X168449Y286203D02*
X214856D01*
X168487Y321933D02*
X214818D01*
X168518Y286113D02*
X214786D01*
X168556Y322023D02*
X214748D01*
X168588Y286023D02*
X214716D01*
X168627Y322113D02*
X214677D01*
X168659Y285933D02*
X214645D01*
X168698Y322203D02*
X214607D01*
X168730Y285843D02*
X214574D01*
X168769Y322293D02*
X214535D01*
X168802Y285753D02*
X214502D01*
X168841Y322383D02*
X214463D01*
X168874Y285663D02*
X214430D01*
X168914Y322473D02*
X214390D01*
X168947Y285573D02*
X214357D01*
X168987Y322563D02*
X214317D01*
X169020Y285483D02*
X214284D01*
X169061Y322653D02*
X214243D01*
X169095Y285393D02*
X214210D01*
X169135Y322743D02*
X214169D01*
X169169Y285303D02*
X214135D01*
X169210Y322833D02*
X214094D01*
X169245Y285213D02*
X214060D01*
X169286Y322923D02*
X214018D01*
X169321Y285123D02*
X213984D01*
X169362Y323013D02*
X213942D01*
X169397Y285033D02*
X213907D01*
X169439Y323103D02*
X213865D01*
X169474Y284943D02*
X213830D01*
X169517Y323193D02*
X213787D01*
X169552Y284853D02*
X213752D01*
X169595Y323283D02*
X213709D01*
X169631Y284763D02*
X213674D01*
X169674Y323373D02*
X213630D01*
X169710Y284673D02*
X213594D01*
X169753Y323463D02*
X213551D01*
X169790Y284583D02*
X213515D01*
X169833Y323553D02*
X213471D01*
X169870Y284493D02*
X213434D01*
X169914Y323643D02*
X213390D01*
X169951Y284403D02*
X213353D01*
X169996Y323733D02*
X213308D01*
X170033Y284313D02*
X213271D01*
X170078Y323823D02*
X213226D01*
X170115Y284223D02*
X213189D01*
X170161Y323913D02*
X213143D01*
X170199Y284133D02*
X213106D01*
X170244Y324003D02*
X213060D01*
X170282Y284043D02*
X213022D01*
X170329Y324093D02*
X212976D01*
X170367Y283953D02*
X212937D01*
X170414Y324183D02*
X212891D01*
X170452Y283863D02*
X212852D01*
X170499Y324273D02*
X212805D01*
X170538Y283773D02*
X212766D01*
X170586Y324363D02*
X212718D01*
X170625Y283683D02*
X212679D01*
X170673Y324453D02*
X212631D01*
X170713Y283593D02*
X212592D01*
X170761Y324543D02*
X212543D01*
X170801Y283503D02*
X212503D01*
X170850Y324633D02*
X212455D01*
X170890Y283413D02*
X212414D01*
X170939Y324723D02*
X212365D01*
X170980Y283323D02*
X212324D01*
X171029Y324813D02*
X212275D01*
X171070Y283233D02*
X212234D01*
X171120Y324903D02*
X212184D01*
X171162Y283143D02*
X212142D01*
X171212Y324993D02*
X212092D01*
X171254Y283053D02*
X212050D01*
X171305Y325083D02*
X211999D01*
X171347Y282963D02*
X211957D01*
X171398Y325173D02*
X211906D01*
X171441Y282873D02*
X211863D01*
X171493Y325263D02*
X211812D01*
X171536Y282783D02*
X211769D01*
X171588Y325353D02*
X211716D01*
X171631Y282693D02*
X211673D01*
X171684Y325443D02*
X211620D01*
X171728Y282603D02*
X211577D01*
X171781Y325533D02*
X211524D01*
X171825Y282513D02*
X211479D01*
X171878Y325623D02*
X211426D01*
X171923Y282423D02*
X211381D01*
X171977Y325713D02*
X211327D01*
X172022Y282333D02*
X211282D01*
X172077Y325803D02*
X211228D01*
X172122Y282243D02*
X211182D01*
X172177Y325893D02*
X211127D01*
X172223Y282153D02*
X211081D01*
X172279Y325983D02*
X211026D01*
X172325Y282063D02*
X210979D01*
X172381Y326073D02*
X210923D01*
X172428Y281973D02*
X210876D01*
X172484Y326163D02*
X210820D01*
X172532Y281883D02*
X210773D01*
X172589Y326253D02*
X210715D01*
X172636Y281793D02*
X210668D01*
X172694Y326343D02*
X210610D01*
X172742Y281703D02*
X210562D01*
X172800Y326433D02*
X210504D01*
X172849Y281613D02*
X210455D01*
X172908Y326523D02*
X210396D01*
X172957Y281523D02*
X210347D01*
X173016Y326613D02*
X210288D01*
X173066Y281433D02*
X210238D01*
X173126Y326703D02*
X210178D01*
X173176Y281343D02*
X210128D01*
X173237Y326793D02*
X210068D01*
X173287Y281253D02*
X210017D01*
X173348Y326883D02*
X209956D01*
X173399Y281163D02*
X209905D01*
X173461Y326973D02*
X209843D01*
X173513Y281073D02*
X209792D01*
X173575Y327063D02*
X209729D01*
X173627Y280983D02*
X209677D01*
X173690Y327153D02*
X209614D01*
X173743Y280893D02*
X209561D01*
X173807Y327243D02*
X209497D01*
X173860Y280803D02*
X209444D01*
X173924Y327333D02*
X209380D01*
X173978Y280713D02*
X209326D01*
X174043Y327423D02*
X209261D01*
X174097Y280623D02*
X209207D01*
X174163Y327513D02*
X209141D01*
X174218Y280533D02*
X209086D01*
X174285Y327603D02*
X209019D01*
X174340Y280443D02*
X208964D01*
X174408Y327693D02*
X208897D01*
X174464Y280353D02*
X208841D01*
X174532Y327783D02*
X208773D01*
X174588Y280263D02*
X208716D01*
X174657Y327873D02*
X208647D01*
X174714Y280173D02*
X208590D01*
X174784Y327963D02*
X208520D01*
X174842Y280083D02*
X208462D01*
X174912Y328053D02*
X208392D01*
X174971Y279993D02*
X208333D01*
X175042Y328143D02*
X208262D01*
X175102Y279903D02*
X208203D01*
X175174Y328233D02*
X208131D01*
X175234Y279813D02*
X208071D01*
X175306Y328323D02*
X207998D01*
X175367Y279723D02*
X207937D01*
X175441Y328413D02*
X207863D01*
X175502Y279633D02*
X207802D01*
X175577Y328503D02*
X207727D01*
X175639Y279543D02*
X207665D01*
X175715Y328593D02*
X207589D01*
X175778Y279453D02*
X207526D01*
X175854Y328683D02*
X207450D01*
X175918Y279363D02*
X207386D01*
X175996Y328773D02*
X207309D01*
X176060Y279273D02*
X207244D01*
X176139Y328863D02*
X207166D01*
X176204Y279183D02*
X207100D01*
X176284Y328953D02*
X207021D01*
X176350Y279093D02*
X206954D01*
X176430Y329043D02*
X206874D01*
X176498Y279003D02*
X206807D01*
X176579Y329133D02*
X206725D01*
X176647Y278913D02*
X206657D01*
X176730Y329223D02*
X206574D01*
X176799Y278823D02*
X206505D01*
X176883Y329313D02*
X206421D01*
X176953Y278733D02*
X206351D01*
X177038Y329403D02*
X206266D01*
X177109Y278643D02*
X206195D01*
X177195Y329493D02*
X206109D01*
X177267Y278553D02*
X206037D01*
X177355Y329583D02*
X205949D01*
X177428Y278463D02*
X205876D01*
X177517Y329673D02*
X205787D01*
X177591Y278373D02*
X205713D01*
X177681Y329763D02*
X205623D01*
X177757Y278283D02*
X205547D01*
X177848Y329853D02*
X205456D01*
X177925Y278193D02*
X205379D01*
X178018Y329943D02*
X205286D01*
X178096Y278103D02*
X205208D01*
X178190Y330033D02*
X205114D01*
X178269Y278013D02*
X205035D01*
X178366Y330123D02*
X204939D01*
X178446Y277923D02*
X204858D01*
X178544Y330213D02*
X204761D01*
X178625Y277833D02*
X204679D01*
X178725Y330303D02*
X204579D01*
X178808Y277743D02*
X204496D01*
X178909Y330393D02*
X204395D01*
X178994Y277653D02*
X204310D01*
X179097Y330483D02*
X204207D01*
X179183Y277563D02*
X204121D01*
X179288Y330573D02*
X204016D01*
X179376Y277473D02*
X203928D01*
X179483Y330663D02*
X203821D01*
X179573Y277383D02*
X203731D01*
X179682Y330753D02*
X203622D01*
X179774Y277293D02*
X203530D01*
X179885Y330843D02*
X203419D01*
X179979Y277203D02*
X203326D01*
X180092Y330933D02*
X203212D01*
X180188Y277113D02*
X203117D01*
X180304Y331023D02*
X203000D01*
X180401Y277023D02*
X202903D01*
X180520Y331113D02*
X202784D01*
X180620Y276933D02*
X202684D01*
X180742Y331203D02*
X202562D01*
X180844Y276843D02*
X202460D01*
X180969Y331293D02*
X202336D01*
X181073Y276753D02*
X202231D01*
X181201Y331383D02*
X202103D01*
X181308Y276663D02*
X201996D01*
X181440Y331473D02*
X201865D01*
X181550Y276573D02*
X201754D01*
X181685Y331563D02*
X201620D01*
X181798Y276483D02*
X201506D01*
X181937Y331653D02*
X201367D01*
X182053Y276393D02*
X201251D01*
X182196Y331743D02*
X201108D01*
X182317Y276303D02*
X200988D01*
X182464Y331833D02*
X200840D01*
X182589Y276213D02*
X200716D01*
X182741Y331923D02*
X200563D01*
X182870Y276123D02*
X200435D01*
X183028Y332013D02*
X200276D01*
X183161Y276033D02*
X200143D01*
X183325Y332103D02*
X199979D01*
X183464Y275943D02*
X199840D01*
X183635Y332193D02*
X199669D01*
X183779Y275853D02*
X199525D01*
X183958Y332283D02*
X199346D01*
X184109Y275763D02*
X199195D01*
X184296Y332373D02*
X199008D01*
X184455Y275673D02*
X198849D01*
X184652Y332463D02*
X198652D01*
X184819Y275583D02*
X198485D01*
X185028Y332553D02*
X198276D01*
X185206Y275493D02*
X198098D01*
X185428Y332643D02*
X197876D01*
X185618Y275403D02*
X197686D01*
X185857Y332733D02*
X197447D01*
X186063Y275313D02*
X197242D01*
X186322Y332823D02*
X196982D01*
X186547Y275223D02*
X196757D01*
X186833Y332913D02*
X196471D01*
X187084Y275133D02*
X196220D01*
X187407Y333003D02*
X195897D01*
X187695Y275043D02*
X195609D01*
X188075Y333093D02*
X195230D01*
X188423Y274953D02*
X194881D01*
X188902Y333183D02*
X194402D01*
X189375Y274863D02*
X193929D01*
X190133Y333273D02*
X193172D01*
X113007Y553925D02*
X128655D01*
X113007Y553835D02*
X128654D01*
X113007Y554015D02*
X128654D01*
X113009Y553745D02*
X128653D01*
X113009Y554105D02*
X128653D01*
X113011Y553655D02*
X128650D01*
X113012Y554195D02*
X128650D01*
X113015Y553565D02*
X128647D01*
X113015Y554285D02*
X128646D01*
X113019Y553475D02*
X128642D01*
X113020Y554375D02*
X128642D01*
X113025Y553385D02*
X128636D01*
X113026Y554465D02*
X128636D01*
X113032Y553295D02*
X128630D01*
X113032Y554555D02*
X128629D01*
X113039Y553205D02*
X128622D01*
X113040Y554645D02*
X128621D01*
X113048Y553115D02*
X128613D01*
X113049Y554735D02*
X128612D01*
X113058Y553025D02*
X128603D01*
X113059Y554825D02*
X128602D01*
X113069Y552935D02*
X128592D01*
X113070Y554915D02*
X128591D01*
X113081Y552845D02*
X128580D01*
X113082Y555005D02*
X128579D01*
X113094Y552755D02*
X128567D01*
X113095Y555095D02*
X128566D01*
X113108Y552665D02*
X128553D01*
X113110Y555185D02*
X128552D01*
X113123Y552575D02*
X128538D01*
X113125Y555275D02*
X128537D01*
X113139Y552485D02*
X128522D01*
X113141Y555365D02*
X128520D01*
X113157Y552395D02*
X128505D01*
X113159Y555455D02*
X128503D01*
X113175Y552305D02*
X128486D01*
X113177Y555545D02*
X128484D01*
X113195Y552215D02*
X128467D01*
X113197Y555635D02*
X128465D01*
X113215Y552125D02*
X128446D01*
X113218Y555725D02*
X128444D01*
X113237Y552035D02*
X128424D01*
X113240Y555815D02*
X128422D01*
X113260Y551945D02*
X128401D01*
X113263Y555905D02*
X128399D01*
X113284Y551855D02*
X128377D01*
X113287Y555995D02*
X128375D01*
X113309Y551765D02*
X128352D01*
X113312Y556085D02*
X128349D01*
X113336Y551675D02*
X128326D01*
X113339Y556175D02*
X128323D01*
X113363Y551585D02*
X128298D01*
X113366Y556265D02*
X128295D01*
X113392Y551495D02*
X128269D01*
X113395Y556355D02*
X128266D01*
X113422Y551405D02*
X128239D01*
X113425Y556445D02*
X128236D01*
X113453Y551315D02*
X128208D01*
X113457Y556535D02*
X128205D01*
X113486Y551225D02*
X128176D01*
X113489Y556625D02*
X128172D01*
X113519Y551135D02*
X128142D01*
X113523Y556715D02*
X128139D01*
X113554Y551045D02*
X128107D01*
X113558Y556805D02*
X128104D01*
X113590Y550955D02*
X128071D01*
X113594Y556895D02*
X128067D01*
X113628Y550865D02*
X128033D01*
X113632Y556985D02*
X128030D01*
X113667Y550775D02*
X127995D01*
X113671Y557075D02*
X127991D01*
X113707Y550685D02*
X127954D01*
X113711Y557165D02*
X127950D01*
X113749Y550595D02*
X127913D01*
X113753Y557255D02*
X127909D01*
X113791Y550505D02*
X127870D01*
X113796Y557345D02*
X127865D01*
X113836Y550415D02*
X127826D01*
X113841Y557435D02*
X127821D01*
X113882Y550325D02*
X127780D01*
X113887Y557525D02*
X127775D01*
X113929Y550235D02*
X127732D01*
X113934Y557615D02*
X127727D01*
X113978Y550145D02*
X127684D01*
X113983Y557705D02*
X127678D01*
X114028Y550055D02*
X127633D01*
X114033Y557795D02*
X127628D01*
X114080Y549965D02*
X127581D01*
X114086Y557885D02*
X127576D01*
X114134Y549875D02*
X127528D01*
X114139Y557975D02*
X127522D01*
X114189Y549785D02*
X127473D01*
X114195Y558065D02*
X127467D01*
X114246Y549695D02*
X127416D01*
X114252Y558155D02*
X127410D01*
X114304Y549605D02*
X127357D01*
X114311Y558245D02*
X127351D01*
X114365Y549515D02*
X127297D01*
X114371Y558335D02*
X127290D01*
X114427Y549425D02*
X127234D01*
X114434Y558425D02*
X127228D01*
X114491Y549335D02*
X127170D01*
X114498Y558515D02*
X127163D01*
X114557Y549245D02*
X127104D01*
X114564Y558605D02*
X127097D01*
X114625Y549155D02*
X127036D01*
X114633Y558695D02*
X127029D01*
X114695Y549065D02*
X126966D01*
X114703Y558785D02*
X126959D01*
X114768Y548975D02*
X126894D01*
X114775Y558875D02*
X126886D01*
X114842Y548885D02*
X126819D01*
X114850Y558965D02*
X126811D01*
X114919Y548795D02*
X126742D01*
X114927Y559055D02*
X126734D01*
X114998Y548705D02*
X126663D01*
X115007Y559145D02*
X126655D01*
X115080Y548615D02*
X126581D01*
X115089Y559235D02*
X126573D01*
X115165Y548525D02*
X126497D01*
X115173Y559325D02*
X126488D01*
X115252Y548435D02*
X126410D01*
X115261Y559415D02*
X126401D01*
X115342Y548345D02*
X126320D01*
X115351Y559505D02*
X126310D01*
X115434Y548255D02*
X126227D01*
X115444Y559595D02*
X126217D01*
X115531Y548165D02*
X126131D01*
X115541Y559685D02*
X126121D01*
X115630Y548075D02*
X126031D01*
X115641Y559775D02*
X126021D01*
X115733Y547985D02*
X125928D01*
X115744Y559865D02*
X125918D01*
X115840Y547895D02*
X125822D01*
X115851Y559955D02*
X125810D01*
X115950Y547805D02*
X125711D01*
X115962Y560045D02*
X125699D01*
X116065Y547715D02*
X125596D01*
X116077Y560135D02*
X125584D01*
X116185Y547625D02*
X125477D01*
X116198Y560225D02*
X125464D01*
X116309Y547535D02*
X125352D01*
X116323Y560315D02*
X125339D01*
X116439Y547445D02*
X125222D01*
X116453Y560405D02*
X125208D01*
X116575Y547355D02*
X125086D01*
X116589Y560495D02*
X125072D01*
X116717Y547265D02*
X124944D01*
X116732Y560585D02*
X124929D01*
X116866Y547175D02*
X124795D01*
X116882Y560675D02*
X124779D01*
X117024Y547085D02*
X124638D01*
X117040Y560765D02*
X124621D01*
X117190Y546995D02*
X124471D01*
X117208Y560855D02*
X124454D01*
X117367Y546905D02*
X124295D01*
X117386Y560945D02*
X124276D01*
X117555Y546815D02*
X124106D01*
X117575Y561035D02*
X124086D01*
X117758Y546725D02*
X123904D01*
X117780Y561125D02*
X123882D01*
X117978Y546635D02*
X123684D01*
X118002Y561215D02*
X123660D01*
X118219Y546545D02*
X123442D01*
X118246Y561305D02*
X123416D01*
X118489Y546455D02*
X123173D01*
X118519Y561395D02*
X123143D01*
X118798Y546365D02*
X122863D01*
X118833Y561485D02*
X122828D01*
X119168Y546275D02*
X122493D01*
X119212Y561575D02*
X122450D01*
X119656Y546185D02*
X122005D01*
X119719Y561665D02*
X121942D01*
X262634Y292129D02*
X278282D01*
X262634Y292039D02*
X278282D01*
X262635Y292219D02*
X278281D01*
X262636Y291949D02*
X278280D01*
X262636Y292309D02*
X278280D01*
X262638Y291859D02*
X278278D01*
X262639Y292399D02*
X278277D01*
X262642Y291769D02*
X278274D01*
X262642Y292489D02*
X278274D01*
X262647Y291679D02*
X278269D01*
X262647Y292579D02*
X278269D01*
X262652Y291589D02*
X278264D01*
X262653Y292669D02*
X278263D01*
X262659Y291499D02*
X278257D01*
X262660Y292759D02*
X278256D01*
X262667Y291409D02*
X278249D01*
X262668Y292849D02*
X278248D01*
X262676Y291319D02*
X278240D01*
X262677Y292939D02*
X278239D01*
X262685Y291229D02*
X278231D01*
X262686Y293029D02*
X278230D01*
X262696Y291139D02*
X278220D01*
X262697Y293119D02*
X278219D01*
X262708Y291049D02*
X278208D01*
X262710Y293209D02*
X278206D01*
X262721Y290959D02*
X278195D01*
X262723Y293299D02*
X278193D01*
X262735Y290869D02*
X278181D01*
X262737Y293389D02*
X278179D01*
X262751Y290779D02*
X278165D01*
X262752Y293479D02*
X278164D01*
X262767Y290689D02*
X278149D01*
X262769Y293569D02*
X278147D01*
X262784Y290599D02*
X278132D01*
X262786Y293659D02*
X278130D01*
X262803Y290509D02*
X278113D01*
X262805Y293749D02*
X278111D01*
X262822Y290419D02*
X278094D01*
X262824Y293839D02*
X278092D01*
X262843Y290329D02*
X278073D01*
X262845Y293929D02*
X278071D01*
X262865Y290239D02*
X278051D01*
X262867Y294019D02*
X278049D01*
X262887Y290149D02*
X278029D01*
X262890Y294109D02*
X278026D01*
X262912Y290059D02*
X278005D01*
X262914Y294199D02*
X278002D01*
X262937Y289969D02*
X277979D01*
X262939Y294289D02*
X277977D01*
X262963Y289879D02*
X277953D01*
X262966Y294379D02*
X277950D01*
X262991Y289789D02*
X277925D01*
X262994Y294469D02*
X277922D01*
X263019Y289699D02*
X277897D01*
X263022Y294559D02*
X277894D01*
X263049Y289609D02*
X277867D01*
X263053Y294649D02*
X277863D01*
X263081Y289519D02*
X277836D01*
X263084Y294739D02*
X277832D01*
X263113Y289429D02*
X277803D01*
X263116Y294829D02*
X277800D01*
X263147Y289339D02*
X277769D01*
X263150Y294919D02*
X277766D01*
X263181Y289249D02*
X277735D01*
X263185Y295009D02*
X277731D01*
X263218Y289159D02*
X277698D01*
X263222Y295099D02*
X277694D01*
X263255Y289069D02*
X277661D01*
X263259Y295189D02*
X277657D01*
X263294Y288979D02*
X277622D01*
X263298Y295279D02*
X277618D01*
X263334Y288889D02*
X277582D01*
X263339Y295369D02*
X277578D01*
X263376Y288799D02*
X277540D01*
X263380Y295459D02*
X277536D01*
X263419Y288709D02*
X277497D01*
X263423Y295549D02*
X277493D01*
X263463Y288619D02*
X277453D01*
X263468Y295639D02*
X277448D01*
X263509Y288529D02*
X277407D01*
X263514Y295729D02*
X277402D01*
X263556Y288439D02*
X277360D01*
X263561Y295819D02*
X277355D01*
X263605Y288349D02*
X277311D01*
X263610Y295909D02*
X277306D01*
X263655Y288259D02*
X277261D01*
X263661Y295999D02*
X277255D01*
X263707Y288169D02*
X277209D01*
X263713Y296089D02*
X277203D01*
X263761Y288079D02*
X277155D01*
X263767Y296179D02*
X277149D01*
X263816Y287989D02*
X277100D01*
X263822Y296269D02*
X277094D01*
X263873Y287899D02*
X277043D01*
X263879Y296359D02*
X277037D01*
X263932Y287809D02*
X276984D01*
X263938Y296449D02*
X276978D01*
X263992Y287719D02*
X276924D01*
X263998Y296539D02*
X276918D01*
X264054Y287629D02*
X276862D01*
X264061Y296629D02*
X276855D01*
X264118Y287539D02*
X276798D01*
X264125Y296719D02*
X276791D01*
X264185Y287449D02*
X276731D01*
X264192Y296809D02*
X276725D01*
X264253Y287359D02*
X276663D01*
X264260Y296899D02*
X276656D01*
X264323Y287269D02*
X276593D01*
X264330Y296989D02*
X276586D01*
X264395Y287179D02*
X276521D01*
X264403Y297079D02*
X276513D01*
X264470Y287089D02*
X276446D01*
X264477Y297169D02*
X276439D01*
X264546Y286999D02*
X276370D01*
X264555Y297259D02*
X276361D01*
X264626Y286909D02*
X276290D01*
X264634Y297349D02*
X276282D01*
X264707Y286819D02*
X276209D01*
X264716Y297439D02*
X276200D01*
X264792Y286729D02*
X276124D01*
X264801Y297529D02*
X276115D01*
X264879Y286639D02*
X276037D01*
X264888Y297619D02*
X276028D01*
X264969Y286549D02*
X275947D01*
X264978Y297709D02*
X275938D01*
X265062Y286459D02*
X275854D01*
X265072Y297799D02*
X275844D01*
X265158Y286369D02*
X275758D01*
X265168Y297889D02*
X275748D01*
X265257Y286279D02*
X275659D01*
X265268Y297979D02*
X275648D01*
X265360Y286189D02*
X275556D01*
X265371Y298069D02*
X275545D01*
X265467Y286099D02*
X275449D01*
X265478Y298159D02*
X275438D01*
X265578Y286009D02*
X275338D01*
X265589Y298249D02*
X275327D01*
X265693Y285919D02*
X275223D01*
X265705Y298339D02*
X275211D01*
X265812Y285829D02*
X275104D01*
X265825Y298429D02*
X275091D01*
X265937Y285739D02*
X274979D01*
X265950Y298519D02*
X274966D01*
X266066Y285649D02*
X274850D01*
X266080Y298609D02*
X274836D01*
X266202Y285559D02*
X274714D01*
X266217Y298699D02*
X274699D01*
X266344Y285469D02*
X274572D01*
X266360Y298789D02*
X274556D01*
X266494Y285379D02*
X274422D01*
X266510Y298879D02*
X274406D01*
X266651Y285289D02*
X274265D01*
X266668Y298969D02*
X274248D01*
X266817Y285199D02*
X274099D01*
X266835Y299059D02*
X274081D01*
X266994Y285109D02*
X273922D01*
X267013Y299149D02*
X273903D01*
X267182Y285019D02*
X273734D01*
X267203Y299239D02*
X273713D01*
X267385Y284929D02*
X273531D01*
X267407Y299329D02*
X273509D01*
X267605Y284839D02*
X273311D01*
X267629Y299419D02*
X273287D01*
X267847Y284749D02*
X273069D01*
X267873Y299509D02*
X273043D01*
X268116Y284659D02*
X272800D01*
X268146Y299599D02*
X272770D01*
X268425Y284569D02*
X272491D01*
X268460Y299689D02*
X272456D01*
X268795Y284479D02*
X272121D01*
X268839Y299779D02*
X272077D01*
X269283Y284389D02*
X271633D01*
X269347Y299869D02*
X271569D01*
X490995Y561793D02*
X506643D01*
X490995Y561703D02*
X506642D01*
X490995Y561883D02*
X506642D01*
X490997Y561613D02*
X506641D01*
X490997Y561973D02*
X506641D01*
X490999Y561523D02*
X506638D01*
X491000Y562063D02*
X506638D01*
X491003Y561433D02*
X506635D01*
X491003Y562153D02*
X506634D01*
X491008Y561343D02*
X506630D01*
X491008Y562243D02*
X506630D01*
X491013Y561253D02*
X506625D01*
X491014Y562333D02*
X506624D01*
X491020Y561163D02*
X506618D01*
X491021Y562423D02*
X506617D01*
X491028Y561073D02*
X506610D01*
X491029Y562513D02*
X506609D01*
X491036Y560983D02*
X506601D01*
X491037Y562603D02*
X506600D01*
X491046Y560893D02*
X506592D01*
X491047Y562693D02*
X506590D01*
X491057Y560803D02*
X506581D01*
X491058Y562783D02*
X506579D01*
X491069Y560713D02*
X506569D01*
X491070Y562873D02*
X506567D01*
X491082Y560623D02*
X506556D01*
X491084Y562963D02*
X506554D01*
X491096Y560533D02*
X506542D01*
X491098Y563053D02*
X506540D01*
X491111Y560443D02*
X506526D01*
X491113Y563143D02*
X506525D01*
X491128Y560353D02*
X506510D01*
X491129Y563233D02*
X506508D01*
X491145Y560263D02*
X506493D01*
X491147Y563323D02*
X506491D01*
X491163Y560173D02*
X506474D01*
X491165Y563413D02*
X506472D01*
X491183Y560083D02*
X506455D01*
X491185Y563503D02*
X506453D01*
X491204Y559993D02*
X506434D01*
X491206Y563593D02*
X506432D01*
X491225Y559903D02*
X506412D01*
X491228Y563683D02*
X506410D01*
X491248Y559813D02*
X506389D01*
X491251Y563773D02*
X506387D01*
X491272Y559723D02*
X506365D01*
X491275Y563863D02*
X506363D01*
X491298Y559633D02*
X506340D01*
X491300Y563953D02*
X506338D01*
X491324Y559543D02*
X506314D01*
X491327Y564043D02*
X506311D01*
X491352Y559453D02*
X506286D01*
X491354Y564133D02*
X506283D01*
X491380Y559363D02*
X506258D01*
X491383Y564223D02*
X506254D01*
X491410Y559273D02*
X506228D01*
X491413Y564313D02*
X506224D01*
X491441Y559183D02*
X506196D01*
X491445Y564403D02*
X506193D01*
X491474Y559093D02*
X506164D01*
X491477Y564493D02*
X506161D01*
X491507Y559003D02*
X506130D01*
X491511Y564583D02*
X506127D01*
X491542Y558913D02*
X506095D01*
X491546Y564673D02*
X506092D01*
X491579Y558823D02*
X506059D01*
X491582Y564763D02*
X506055D01*
X491616Y558733D02*
X506022D01*
X491620Y564853D02*
X506018D01*
X491655Y558643D02*
X505983D01*
X491659Y564943D02*
X505979D01*
X491695Y558553D02*
X505943D01*
X491699Y565033D02*
X505938D01*
X491737Y558463D02*
X505901D01*
X491741Y565123D02*
X505897D01*
X491780Y558373D02*
X505858D01*
X491784Y565213D02*
X505854D01*
X491824Y558283D02*
X505814D01*
X491829Y565303D02*
X505809D01*
X491870Y558193D02*
X505768D01*
X491875Y565393D02*
X505763D01*
X491917Y558103D02*
X505721D01*
X491922Y565483D02*
X505716D01*
X491966Y558013D02*
X505672D01*
X491971Y565573D02*
X505667D01*
X492016Y557923D02*
X505621D01*
X492022Y565663D02*
X505616D01*
X492068Y557833D02*
X505569D01*
X492074Y565753D02*
X505564D01*
X492122Y557743D02*
X505516D01*
X492127Y565843D02*
X505510D01*
X492177Y557653D02*
X505461D01*
X492183Y565933D02*
X505455D01*
X492234Y557563D02*
X505404D01*
X492240Y566023D02*
X505398D01*
X492293Y557473D02*
X505345D01*
X492299Y566113D02*
X505339D01*
X492353Y557383D02*
X505285D01*
X492359Y566203D02*
X505278D01*
X492415Y557293D02*
X505223D01*
X492422Y566293D02*
X505216D01*
X492479Y557203D02*
X505158D01*
X492486Y566383D02*
X505152D01*
X492545Y557113D02*
X505092D01*
X492552Y566473D02*
X505085D01*
X492614Y557023D02*
X505024D01*
X492621Y566563D02*
X505017D01*
X492684Y556933D02*
X504954D01*
X492691Y566653D02*
X504947D01*
X492756Y556843D02*
X504882D01*
X492764Y566743D02*
X504874D01*
X492831Y556753D02*
X504807D01*
X492838Y566833D02*
X504799D01*
X492907Y556663D02*
X504730D01*
X492915Y566923D02*
X504722D01*
X492987Y556573D02*
X504651D01*
X492995Y567013D02*
X504643D01*
X493068Y556483D02*
X504569D01*
X493077Y567103D02*
X504561D01*
X493153Y556393D02*
X504485D01*
X493162Y567193D02*
X504476D01*
X493240Y556303D02*
X504398D01*
X493249Y567283D02*
X504389D01*
X493330Y556213D02*
X504308D01*
X493339Y567373D02*
X504299D01*
X493423Y556123D02*
X504215D01*
X493432Y567463D02*
X504205D01*
X493519Y556033D02*
X504119D01*
X493529Y567553D02*
X504109D01*
X493618Y555943D02*
X504020D01*
X493629Y567643D02*
X504009D01*
X493721Y555853D02*
X503917D01*
X493732Y567733D02*
X503906D01*
X493828Y555763D02*
X503810D01*
X493839Y567823D02*
X503799D01*
X493939Y555673D02*
X503699D01*
X493950Y567913D02*
X503688D01*
X494053Y555583D02*
X503584D01*
X494066Y568003D02*
X503572D01*
X494173Y555493D02*
X503465D01*
X494186Y568093D02*
X503452D01*
X494298Y555403D02*
X503340D01*
X494311Y568183D02*
X503327D01*
X494427Y555313D02*
X503210D01*
X494441Y568273D02*
X503197D01*
X494563Y555223D02*
X503075D01*
X494578Y568363D02*
X503060D01*
X494705Y555133D02*
X502933D01*
X494720Y568453D02*
X502917D01*
X494855Y555043D02*
X502783D01*
X494871Y568543D02*
X502767D01*
X495012Y554953D02*
X502626D01*
X495029Y568633D02*
X502609D01*
X495178Y554863D02*
X502460D01*
X495196Y568723D02*
X502442D01*
X495355Y554773D02*
X502283D01*
X495374Y568813D02*
X502264D01*
X495543Y554683D02*
X502094D01*
X495564Y568903D02*
X502074D01*
X495746Y554593D02*
X501892D01*
X495768Y568993D02*
X501870D01*
X495966Y554503D02*
X501672D01*
X495990Y569083D02*
X501648D01*
X496207Y554413D02*
X501430D01*
X496234Y569173D02*
X501404D01*
X496477Y554323D02*
X501161D01*
X496507Y569263D02*
X501131D01*
X496786Y554233D02*
X500852D01*
X496821Y569353D02*
X500817D01*
X497156Y554143D02*
X500481D01*
X497200Y569443D02*
X500438D01*
X497644Y554053D02*
X499994D01*
X497707Y569533D02*
X499930D01*
X485400Y296063D02*
G03X487336Y297673I-0J1969D01*
G01X508477Y313699D02*
G03X487338Y297682I-1784J-19605D01*
G01X508483Y313698D02*
X508482D01*
X508483D02*
G03X510630Y315658I178J1960D01*
G01Y573622*
G03X508661Y575591I-1969J0*
G01X449208*
G03X446424Y574437I-0J-3937*
G01X417673Y545687*
X413869*
X385118Y574437*
G03X382334Y575591I-2784J-2783*
G01X366136*
Y571285*
X348112*
Y575591*
X237351*
G03X234567Y574437I-0J-3937*
G01X205816Y545687*
X202012*
X173261Y574437*
G03X170477Y575591I-2784J-2783*
G01X111024*
G03X109055Y573622I-0J-1969*
G01Y384646*
G03X111024Y382677I1969J-0*
G01X154331*
Y322646*
X133531*
Y318833*
X125528*
Y334646*
X123559Y336614*
X113319*
X111350Y334646*
Y314848*
X113319Y312879*
X133528*
Y308857*
X154331*
Y270472*
G03X156299Y268504I1968J0*
G01X445669*
G03X447517Y269793I0J1968*
G01X485197Y296063D02*
G03X447509Y269772I-0J-40157D01*
G01X485197Y296063D02*
X485400D01*
X125394Y553937D02*
G03X125394I-4528J0D01*
G01X123228Y565748D02*
G03X123228I-2362J0D01*
G01X503346Y561811D02*
G03X503346I-4527J0D01*
G01X489370D02*
G03X489370I-2362J0D01*
G01X275000Y292126D02*
G03X275000I-4528J0D01*
G01X272835Y280315D02*
G03X272835I-2363J0D01*
G01X127699Y539764D02*
X161811D01*
Y517717*
X127699*
Y539764*
X464173Y547955D02*
X488798D01*
Y532896*
X464173*
Y547955*
X196510Y477041D02*
X205583Y469360D01*
X195970Y458051*
X186919Y465717*
X196510Y477043*
X196531Y477025*
X196510Y477041*
X337690Y357948D02*
X346103Y350824D01*
X336578Y339443*
X328165Y346567*
X337690Y357948*
X361909Y488510D02*
X381890D01*
X381890D02*
Y422129D01*
X391908Y400746*
Y338976*
X396281*
Y400875*
X385869Y424456*
Y504331*
X381890*
Y492913*
X361909*
Y488510*
X273597Y342591D02*
X276555Y342740D01*
X277064Y335478*
X274109Y335329*
X273597Y342591*
X370230Y366332D02*
X370230D01*
X370230*
X370230*
X370230*
X370230*
X370230*
X370230*
X370230*
X370230*
X370230*
X370230*
X370230*
X370229*
X370229*
X370229*
X370229*
X370229*
X370229*
X370229*
X370229*
X370229*
X370229*
X370229*
X370229*
X370229*
X370229*
X370229*
X370229*
X370229*
X370228*
X370228*
X370228*
X370228*
X370228*
X370228*
X370228*
X370228*
X370228*
X370228*
X370228*
X370228*
X370228*
X370228*
X370228*
X370228*
X370228*
X370228*
X370228*
X370228*
X370228*
X370228*
X370228*
X370228*
X370228*
X370228*
X370228*
X370227*
X370227*
X370227*
X370227*
X370227*
X370227*
X370227*
X370227*
X370227*
X370227*
X370227*
X370227*
X370227*
X370227*
X370227*
X370227*
X370227*
X370227*
X370226*
X370226*
X370226*
X370226*
X370226*
X370226*
X370226*
X370226*
X370226*
X370226*
X370226*
X370226*
X370226*
Y366333*
X370226*
X370226*
X370226*
X370226*
X370226*
X370226*
X370226*
X370226*
X370226*
X370226*
X370226*
X370226*
X370225*
X370225*
X370225*
X370225*
X370225*
X370225*
X370225*
X370225*
X370225*
X370225*
X370225*
X370225*
X370225*
X370225*
X370225*
X370225*
X370225*
X370225*
X370224*
X370224*
X370224*
X370224*
X370224*
X370224*
X370224*
X370224*
X370224*
X370224*
X370224*
X370224*
X370224*
X370224*
X370224*
X370224*
X370224*
X370224*
X370224*
X370224*
X370224*
X370224*
X370224*
X370224*
X370224*
X370224*
X370224*
X370223*
X370223*
X370223*
X370223*
X370223*
X370223*
X370223*
X370223*
X370223*
X370223*
X370223*
X370223*
X370223*
X370223*
X254510Y272488D02*
X254562D01*
G54D110*
X310819Y565567D02*
Y561467D01*
X339969Y565567D02*
Y561467D01*
G54D151*
X276551Y342741D02*
X277065Y335480D01*
X273904Y335393*
X273390Y342655*
X276551Y342741*
G54D440*
X180481Y524358D02*
X150869Y482897D01*
X151764Y481827D02*
X181667Y523695D01*
X182585Y522916D02*
X152944Y481414D01*
X183481Y522277D02*
X153839Y480775D01*
X184725Y521266D02*
X155054Y479723D01*
X195618Y498912D02*
X201079Y506686D01*
X185795Y494326D02*
X196661Y509790D01*
X186724Y505040D02*
X192128Y512731D01*
G54D487*
X448535Y371323D02*
G03X448535I-10826J0D01*
G01X439992Y381835D02*
X448142Y373685D01*
X425000Y358472D02*
G03X425000I-10827J0D01*
G01X416457Y368984D02*
X424606Y360835D01*
G54D488*
X437709Y382071D02*
Y360614D01*
Y365417D02*
X441764Y361402D01*
X437787Y369394D02*
X444343Y362878D01*
X437709Y373291D02*
X446213Y364787D01*
X437709Y377228D02*
X447669Y367268D01*
X437748Y380614D02*
X448398Y370043D01*
X414173Y369220D02*
Y347764D01*
Y352567D02*
X418228Y348551D01*
X414252Y356543D02*
X420807Y350028D01*
X414173Y360441D02*
X422677Y351937D01*
X414173Y364378D02*
X424134Y354417D01*
X414213Y367764D02*
X424862Y357193D01*
G54D491*
X228718Y545327D02*
Y543201D01*
Y537453D02*
Y535327D01*
Y529579D02*
Y527453D01*
Y521705D02*
Y519579D01*
Y513831D02*
Y511705D01*
X229505D02*
Y513831D01*
Y519579D02*
Y521705D01*
Y527453D02*
Y529579D01*
Y535327D02*
Y537453D01*
Y543201D02*
Y545327D01*
X252340D02*
Y543201D01*
Y537453D02*
Y535327D01*
Y529579D02*
Y527453D01*
Y521705D02*
Y519579D01*
Y513831D02*
Y511705D01*
X253127D02*
Y513831D01*
Y519579D02*
Y521705D01*
Y527453D02*
Y529579D01*
Y535327D02*
Y537453D01*
Y543201D02*
Y545327D01*
X228718Y511705D02*
X229505D01*
X252340D02*
X253127D01*
Y513831D02*
X252340D01*
X229505D02*
X228718D01*
Y519579D02*
X229505D01*
X252340D02*
X253127D01*
Y521705D02*
X252340D01*
X229505D02*
X228718D01*
Y527453D02*
X229505D01*
X252340D02*
X253127D01*
Y529579D02*
X252340D01*
X229505D02*
X228718D01*
Y535327D02*
X229505D01*
X252340D02*
X253127D01*
Y537453D02*
X252340D01*
X229505D02*
X228718D01*
Y543201D02*
X229505D01*
X252340D02*
X253127D01*
Y545327D02*
X252340D01*
X229505D02*
X228718D01*
X252340Y543201D02*
X253127Y545327D01*
X252340Y535327D02*
X253127Y537453D01*
X252340Y527453D02*
X253127Y529579D01*
X252340Y519579D02*
X253127Y521705D01*
X252340Y511705D02*
X253127Y513831D01*
X229505Y543201D02*
X228718Y545327D01*
X229505Y535327D02*
X228718Y537453D01*
X229505Y527453D02*
X228718Y529579D01*
X229505Y519579D02*
X228718Y521705D01*
X229505Y511705D02*
X228718Y513831D01*
G54D492*
G74*
X0Y0D02*
M02*
