*
%FSLAX26Y26*%
%MOIN*%
%ADD10C,0.005906*%
%IPPOS*%
%LN504-2st46574a0.gko*%
%LPD*%
G75*
G54D10*
X252299Y2992131D02*
X247927Y2991640D01*
X243774Y2990190D01*
X240046Y2987854D01*
X236930Y2984749D01*
X234581Y2981030D01*
X233116Y2976882D01*
X232939Y2976031D01*
X21529Y2815771D02*
X35443Y2815001D01*
X49377Y2815217D01*
X63261Y2816418D01*
X77025Y2818598D01*
X90601Y2821747D01*
X103919Y2825849D01*
X116914Y2830882D01*
X129521Y2836822D01*
X141675Y2843639D01*
X153317Y2851299D01*
X164388Y2859763D01*
X174832Y2868990D01*
X184597Y2878932D01*
X193634Y2889540D01*
X201899Y2900761D01*
X209348Y2912538D01*
X215946Y2924813D01*
X221659Y2937525D01*
X226458Y2950608D01*
X230319Y2963998D01*
X232919Y2975941D01*
X21469Y2815781D02*
X21479D01*
X21469D02*
X17071Y2815688D01*
X12804Y2814621D01*
X8880Y2812632D01*
X5496Y2809823D01*
X2820Y2806332D01*
X986Y2802334D01*
X86Y2798028D01*
X-1Y2796181D01*
Y216541D01*
X490Y212169D01*
X1940Y208016D01*
X4276Y204288D01*
X7381Y201172D01*
X11100Y198823D01*
X15248Y197358D01*
X19618Y196851D01*
X19689Y196851D01*
X614219D01*
X620426Y197344D01*
X626478Y198811D01*
X632223Y201212D01*
X637517Y204490D01*
X642059Y208391D01*
X929569Y495891D01*
X967609D01*
X1255119Y208391D01*
X1259855Y204348D01*
X1265169Y201103D01*
X1270928Y198736D01*
X1276989Y197307D01*
X1282959Y196851D01*
X1444939D01*
Y239911D01*
X1625179D01*
Y196851D01*
X2732789D01*
X2738996Y197344D01*
X2745048Y198811D01*
X2750793Y201212D01*
X2756087Y204490D01*
X2760629Y208391D01*
X3048139Y495891D01*
X3086179D01*
X3373689Y208391D01*
X3378425Y204348D01*
X3383739Y201103D01*
X3389498Y198736D01*
X3395559Y197307D01*
X3401529Y196851D01*
X3996059D01*
X4000430Y197342D01*
X4004584Y198792D01*
X4008312Y201128D01*
X4011428Y204233D01*
X4013777Y207952D01*
X4015242Y212100D01*
X4015749Y216470D01*
X4015749Y216541D01*
Y2106301D01*
X4015257Y2110673D01*
X4013808Y2114826D01*
X4011472Y2118554D01*
X4008367Y2121670D01*
X4004648Y2124019D01*
X4000500Y2125484D01*
X3996130Y2125991D01*
X3996059Y2125991D01*
X3562989D01*
Y2726301D01*
X3770989D01*
Y2764431D01*
X3851019D01*
Y2606301D01*
X3870709Y2586621D01*
X3973109D01*
X3992799Y2606301D01*
Y2804281D01*
X3973109Y2823971D01*
X3771019D01*
Y2864191D01*
X3562989D01*
Y3248041D01*
X3562497Y3252412D01*
X3561048Y3256564D01*
X3558712Y3260290D01*
X3555607Y3263405D01*
X3551888Y3265753D01*
X3547741Y3267216D01*
X3543372Y3267721D01*
X3543309Y3267721D01*
X649609D01*
X645238Y3267231D01*
X641085Y3265782D01*
X637357Y3263448D01*
X634241Y3260344D01*
X631892Y3256625D01*
X631129Y3254831D01*
X254329Y2992131D02*
X274229Y2992624D01*
X294080Y2994103D01*
X313834Y2996563D01*
X333441Y3000000D01*
X352854Y3004404D01*
X372025Y3009764D01*
X390906Y3016068D01*
X409453Y3023300D01*
X427618Y3031442D01*
X445357Y3040474D01*
X462626Y3050374D01*
X479384Y3061118D01*
X495589Y3072679D01*
X511201Y3085028D01*
X526182Y3098137D01*
X540495Y3111971D01*
X554105Y3126498D01*
X566978Y3141682D01*
X579083Y3157484D01*
X590390Y3173868D01*
X600871Y3190791D01*
X610501Y3208213D01*
X619256Y3226091D01*
X627113Y3244381D01*
X631209Y3255041D01*
X254329Y2992131D02*
X252299D01*
X3829309Y555121D02*
X3488189D01*
Y775591D01*
X3829309D01*
Y555121D01*
X464569Y473211D02*
X218319D01*
Y623801D01*
X464569D01*
Y473211D01*
X3141199Y1182351D02*
X3050469Y1259161D01*
X3146599Y1372251D01*
X3237109Y1295591D01*
X3141199Y1182331D01*
X3140989Y1182511D01*
X3141199Y1182351D01*
X1729399Y2373281D02*
X1645269Y2444521D01*
X1740519Y2558331D01*
X1824649Y2487091D01*
X1729399Y2373281D01*
X1487209Y1067661D02*
X1287399D01*
Y1731471D01*
X1187219Y1945301D01*
Y2563001D01*
X1143489D01*
Y1944011D01*
X1247609Y1708201D01*
Y909451D01*
X1287399D01*
Y1023631D01*
X1487209D01*
Y1067661D01*
X2371310Y2526899D02*
X2339768Y2525311D01*
X2334678Y2597931D01*
X2366190Y2599521D01*
X2371310Y2526899D01*
X252299Y6063002D02*
X247927Y6062510D01*
X243774Y6061061D01*
X240046Y6058725D01*
X236930Y6055620D01*
X234581Y6051900D01*
X233116Y6047752D01*
X232939Y6046902D01*
X21529Y5886642D02*
X35443Y5885871D01*
X49377Y5886087D01*
X63261Y5887289D01*
X77025Y5889469D01*
X90601Y5892618D01*
X103919Y5896719D01*
X116914Y5901753D01*
X129521Y5907693D01*
X141675Y5914510D01*
X153317Y5922170D01*
X164388Y5930634D01*
X174832Y5939860D01*
X184597Y5949803D01*
X193634Y5960411D01*
X201899Y5971632D01*
X209348Y5983409D01*
X215946Y5995684D01*
X221659Y6008395D01*
X226458Y6021479D01*
X230319Y6034869D01*
X232919Y6046812D01*
X21469Y5886652D02*
X21479D01*
X21469D02*
X17071Y5886559D01*
X12804Y5885491D01*
X8880Y5883503D01*
X5496Y5880693D01*
X2820Y5877202D01*
X986Y5873204D01*
X86Y5868899D01*
X-1Y5867052D01*
Y3287412D01*
X490Y3283040D01*
X1940Y3278887D01*
X4276Y3275159D01*
X7381Y3272043D01*
X11100Y3269694D01*
X15248Y3268229D01*
X19618Y3267722D01*
X19689Y3267722D01*
X614219D01*
X620426Y3268215D01*
X626478Y3269681D01*
X632223Y3272083D01*
X637517Y3275361D01*
X642059Y3279262D01*
X929569Y3566762D01*
X967609D01*
X1255119Y3279262D01*
X1259855Y3275219D01*
X1265169Y3271974D01*
X1270928Y3269607D01*
X1276989Y3268178D01*
X1282959Y3267722D01*
X1444939D01*
Y3310782D01*
X1625179D01*
Y3267722D01*
X2732789D01*
X2738996Y3268215D01*
X2745048Y3269681D01*
X2750793Y3272083D01*
X2756087Y3275361D01*
X2760629Y3279262D01*
X3048139Y3566762D01*
X3086179D01*
X3373689Y3279262D01*
X3378425Y3275219D01*
X3383739Y3271974D01*
X3389498Y3269607D01*
X3395559Y3268178D01*
X3401529Y3267722D01*
X3996059D01*
X4000430Y3268213D01*
X4004584Y3269663D01*
X4008312Y3271999D01*
X4011428Y3275104D01*
X4013777Y3278823D01*
X4015242Y3282971D01*
X4015749Y3287341D01*
X4015749Y3287412D01*
Y5177172D01*
X4015257Y5181543D01*
X4013808Y5185697D01*
X4011472Y5189424D01*
X4008367Y5192541D01*
X4004648Y5194890D01*
X4000500Y5196354D01*
X3996130Y5196862D01*
X3996059Y5196862D01*
X3562989D01*
Y5797172D01*
X3770989D01*
Y5835302D01*
X3851019D01*
Y5677172D01*
X3870709Y5657492D01*
X3973109D01*
X3992799Y5677172D01*
Y5875152D01*
X3973109Y5894842D01*
X3771019D01*
Y5935062D01*
X3562989D01*
Y6318912D01*
X3562497Y6323282D01*
X3561048Y6327434D01*
X3558712Y6331161D01*
X3555607Y6334276D01*
X3551888Y6336623D01*
X3547741Y6338086D01*
X3543372Y6338592D01*
X3543309Y6338592D01*
X649609D01*
X645238Y6338102D01*
X641085Y6336653D01*
X637357Y6334319D01*
X634241Y6331214D01*
X631892Y6327496D01*
X631129Y6325702D01*
X254329Y6063002D02*
X274229Y6063495D01*
X294080Y6064973D01*
X313834Y6067434D01*
X333441Y6070870D01*
X352854Y6075274D01*
X372025Y6080635D01*
X390906Y6086938D01*
X409453Y6094170D01*
X427618Y6102312D01*
X445357Y6111344D01*
X462626Y6121245D01*
X479384Y6131988D01*
X495589Y6143549D01*
X511201Y6155899D01*
X526182Y6169007D01*
X540495Y6182842D01*
X554105Y6197369D01*
X566978Y6212552D01*
X579083Y6228355D01*
X590390Y6244738D01*
X600871Y6261662D01*
X610501Y6279084D01*
X619256Y6296962D01*
X627113Y6315251D01*
X631209Y6325912D01*
X254329Y6063002D02*
X252299D01*
X3829309Y3625992D02*
X3488189D01*
Y3846462D01*
X3829309D01*
Y3625992D01*
X464569Y3544082D02*
X218319D01*
Y3694672D01*
X464569D01*
Y3544082D01*
X3141199Y4253222D02*
X3050469Y4330032D01*
X3146599Y4443122D01*
X3237109Y4366462D01*
X3141199Y4253202D01*
X3140989Y4253382D01*
X3141199Y4253222D01*
X1729399Y5444152D02*
X1645269Y5515392D01*
X1740519Y5629202D01*
X1824649Y5557962D01*
X1729399Y5444152D01*
X1487209Y4138532D02*
X1287399D01*
Y4802342D01*
X1187219Y5016172D01*
Y5633872D01*
X1143489D01*
Y5014882D01*
X1247609Y4779072D01*
Y3980322D01*
X1287399D01*
Y4094502D01*
X1487209D01*
Y4138532D01*
X2371310Y5597770D02*
X2339768Y5596181D01*
X2334678Y5668801D01*
X2366190Y5670391D01*
X2371310Y5597770D01*
X7857937Y472441D02*
X7862309Y472932D01*
X7866462Y474382D01*
X7870190Y476718D01*
X7873306Y479823D01*
X7875655Y483542D01*
X7877120Y487690D01*
X7877297Y488541D01*
X8088707Y648801D02*
X8074793Y649571D01*
X8060858Y649355D01*
X8046975Y648154D01*
X8033210Y645974D01*
X8019635Y642825D01*
X8006317Y638724D01*
X7993321Y633690D01*
X7980715Y627750D01*
X7968561Y620933D01*
X7956919Y613273D01*
X7945848Y604809D01*
X7935404Y595582D01*
X7925639Y585640D01*
X7916601Y575032D01*
X7908337Y563811D01*
X7900888Y552034D01*
X7894290Y539759D01*
X7888577Y527048D01*
X7883778Y513964D01*
X7879917Y500574D01*
X7877317Y488631D01*
X8088767Y648791D02*
X8088757D01*
X8088767D02*
X8093165Y648884D01*
X8097432Y649951D01*
X8101355Y651940D01*
X8104740Y654749D01*
X8107415Y658240D01*
X8109249Y662238D01*
X8110150Y666544D01*
X8110237Y668391D01*
Y3248031D01*
X8109746Y3252403D01*
X8108296Y3256556D01*
X8105960Y3260284D01*
X8102855Y3263400D01*
X8099136Y3265749D01*
X8094988Y3267214D01*
X8090618Y3267721D01*
X8090547Y3267721D01*
X7496017D01*
X7489810Y3267228D01*
X7483758Y3265762D01*
X7478013Y3263360D01*
X7472719Y3260082D01*
X7468177Y3256181D01*
X7180667Y2968681D01*
X7142627D01*
X6855117Y3256181D01*
X6850381Y3260224D01*
X6845067Y3263469D01*
X6839307Y3265836D01*
X6833247Y3267265D01*
X6827277Y3267721D01*
X6665297D01*
Y3224661D01*
X6485057D01*
Y3267721D01*
X5377447D01*
X5371240Y3267228D01*
X5365188Y3265762D01*
X5359443Y3263360D01*
X5354149Y3260082D01*
X5349607Y3256181D01*
X5062097Y2968681D01*
X5024057D01*
X4736547Y3256181D01*
X4731811Y3260224D01*
X4726497Y3263469D01*
X4720737Y3265836D01*
X4714677Y3267265D01*
X4708707Y3267721D01*
X4114177D01*
X4109805Y3267230D01*
X4105652Y3265780D01*
X4101924Y3263444D01*
X4098808Y3260339D01*
X4096459Y3256620D01*
X4094994Y3252472D01*
X4094487Y3248102D01*
X4094487Y3248031D01*
Y1358271D01*
X4094978Y1353900D01*
X4096428Y1349746D01*
X4098764Y1346018D01*
X4101869Y1342902D01*
X4105588Y1340553D01*
X4109736Y1339088D01*
X4114106Y1338581D01*
X4114177Y1338581D01*
X4547247D01*
Y738271D01*
X4339247D01*
Y700141D01*
X4259217D01*
Y858271D01*
X4239527Y877951D01*
X4137127D01*
X4117437Y858271D01*
Y660291D01*
X4137127Y640601D01*
X4339217D01*
Y600381D01*
X4547247D01*
Y216531D01*
X4547738Y212161D01*
X4549188Y208008D01*
X4551524Y204282D01*
X4554629Y201167D01*
X4558348Y198819D01*
X4562495Y197356D01*
X4566864Y196851D01*
X4566927Y196851D01*
X7460627D01*
X7464998Y197341D01*
X7469151Y198790D01*
X7472879Y201124D01*
X7475995Y204228D01*
X7478344Y207947D01*
X7479107Y209741D01*
X7855907Y472441D02*
X7836007Y471948D01*
X7816156Y470469D01*
X7796402Y468009D01*
X7776795Y464572D01*
X7757382Y460169D01*
X7738211Y454808D01*
X7719329Y448504D01*
X7700783Y441272D01*
X7682618Y433130D01*
X7664879Y424098D01*
X7647609Y414198D01*
X7630851Y403454D01*
X7614646Y391893D01*
X7599034Y379544D01*
X7584053Y366435D01*
X7569740Y352601D01*
X7556131Y338074D01*
X7543257Y322890D01*
X7531153Y307088D01*
X7519846Y290704D01*
X7509364Y273781D01*
X7499735Y256359D01*
X7490980Y238481D01*
X7483122Y220192D01*
X7479027Y209531D01*
X7855907Y472441D02*
X7857937D01*
X4280927Y2909451D02*
X4622047D01*
Y2688981D01*
X4280927D01*
Y2909451D01*
X7645667Y2991361D02*
X7891917D01*
Y2840771D01*
X7645667D01*
Y2991361D01*
X4969037Y2282221D02*
X5059767Y2205411D01*
X4963637Y2092321D01*
X4873127Y2168981D01*
X4969037Y2282241D01*
X4969247Y2282061D01*
X4969037Y2282221D01*
X6380837Y1091291D02*
X6464967Y1020051D01*
X6369717Y906241D01*
X6285587Y977481D01*
X6380837Y1091291D01*
X6623027Y2396911D02*
X6822837D01*
Y1733101D01*
X6923017Y1519271D01*
Y901571D01*
X6966747D01*
Y1520561D01*
X6862627Y1756371D01*
Y2555121D01*
X6822837D01*
Y2440941D01*
X6623027D01*
Y2396911D01*
X5738926Y937673D02*
X5770468Y939261D01*
X5775558Y866641D01*
X5744046Y865051D01*
X5738926Y937673D01*
X7857937Y3543312D02*
X7862309Y3543803D01*
X7866462Y3545253D01*
X7870190Y3547589D01*
X7873306Y3550694D01*
X7875655Y3554413D01*
X7877120Y3558561D01*
X7877297Y3559412D01*
X8088707Y3719672D02*
X8074793Y3720442D01*
X8060858Y3720226D01*
X8046975Y3719025D01*
X8033210Y3716844D01*
X8019635Y3713696D01*
X8006317Y3709594D01*
X7993321Y3704561D01*
X7980715Y3698621D01*
X7968561Y3691804D01*
X7956919Y3684144D01*
X7945848Y3675679D01*
X7935404Y3666453D01*
X7925639Y3656511D01*
X7916601Y3645903D01*
X7908337Y3634682D01*
X7900888Y3622904D01*
X7894290Y3610629D01*
X7888577Y3597918D01*
X7883778Y3584835D01*
X7879917Y3571445D01*
X7877317Y3559502D01*
X8088767Y3719662D02*
X8088757D01*
X8088767D02*
X8093165Y3719755D01*
X8097432Y3720822D01*
X8101355Y3722810D01*
X8104740Y3725620D01*
X8107415Y3729111D01*
X8109249Y3733109D01*
X8110150Y3737414D01*
X8110237Y3739262D01*
Y6318902D01*
X8109746Y6323273D01*
X8108296Y6327427D01*
X8105960Y6331154D01*
X8102855Y6334271D01*
X8099136Y6336620D01*
X8094988Y6338084D01*
X8090618Y6338592D01*
X8090547Y6338592D01*
X7496017D01*
X7489810Y6338098D01*
X7483758Y6336632D01*
X7478013Y6334230D01*
X7472719Y6330953D01*
X7468177Y6327052D01*
X7180667Y6039552D01*
X7142627D01*
X6855117Y6327052D01*
X6850381Y6331094D01*
X6845067Y6334340D01*
X6839307Y6336706D01*
X6833247Y6338135D01*
X6827277Y6338592D01*
X6665297D01*
Y6295532D01*
X6485057D01*
Y6338592D01*
X5377447D01*
X5371240Y6338098D01*
X5365188Y6336632D01*
X5359443Y6334230D01*
X5354149Y6330953D01*
X5349607Y6327052D01*
X5062097Y6039552D01*
X5024057D01*
X4736547Y6327052D01*
X4731811Y6331094D01*
X4726497Y6334340D01*
X4720737Y6336706D01*
X4714677Y6338135D01*
X4708707Y6338592D01*
X4114177D01*
X4109805Y6338100D01*
X4105652Y6336651D01*
X4101924Y6334315D01*
X4098808Y6331210D01*
X4096459Y6327490D01*
X4094994Y6323342D01*
X4094487Y6318973D01*
X4094487Y6318902D01*
Y4429142D01*
X4094978Y4424770D01*
X4096428Y4420617D01*
X4098764Y4416889D01*
X4101869Y4413773D01*
X4105588Y4411424D01*
X4109736Y4409959D01*
X4114106Y4409452D01*
X4114177Y4409452D01*
X4547247D01*
Y3809142D01*
X4339247D01*
Y3771012D01*
X4259217D01*
Y3929142D01*
X4239527Y3948822D01*
X4137127D01*
X4117437Y3929142D01*
Y3731162D01*
X4137127Y3711472D01*
X4339217D01*
Y3671252D01*
X4547247D01*
Y3287402D01*
X4547738Y3283031D01*
X4549188Y3278879D01*
X4551524Y3275152D01*
X4554629Y3272038D01*
X4558348Y3269690D01*
X4562495Y3268227D01*
X4566864Y3267722D01*
X4566927Y3267722D01*
X7460627D01*
X7464998Y3268212D01*
X7469151Y3269660D01*
X7472879Y3271995D01*
X7475995Y3275099D01*
X7478344Y3278818D01*
X7479107Y3280612D01*
X7855907Y3543312D02*
X7836007Y3542819D01*
X7816156Y3541340D01*
X7796402Y3538879D01*
X7776795Y3535443D01*
X7757382Y3531039D01*
X7738211Y3525679D01*
X7719329Y3519375D01*
X7700783Y3512143D01*
X7682618Y3504001D01*
X7664879Y3494969D01*
X7647609Y3485069D01*
X7630851Y3474325D01*
X7614646Y3462764D01*
X7599034Y3450414D01*
X7584053Y3437306D01*
X7569740Y3423471D01*
X7556131Y3408944D01*
X7543257Y3393761D01*
X7531153Y3377958D01*
X7519846Y3361575D01*
X7509364Y3344652D01*
X7499735Y3327230D01*
X7490980Y3309352D01*
X7483122Y3291062D01*
X7479027Y3280402D01*
X7855907Y3543312D02*
X7857937D01*
X4280927Y5980322D02*
X4622047D01*
Y5759852D01*
X4280927D01*
Y5980322D01*
X7645667Y6062232D02*
X7891917D01*
Y5911642D01*
X7645667D01*
Y6062232D01*
X4969037Y5353092D02*
X5059767Y5276282D01*
X4963637Y5163192D01*
X4873127Y5239852D01*
X4969037Y5353112D01*
X4969247Y5352932D01*
X4969037Y5353092D01*
X6380837Y4162162D02*
X6464967Y4090922D01*
X6369717Y3977112D01*
X6285587Y4048352D01*
X6380837Y4162162D01*
X6623027Y5467782D02*
X6822837D01*
Y4803972D01*
X6923017Y4590142D01*
Y3972442D01*
X6966747D01*
Y4591432D01*
X6862627Y4827242D01*
Y5625992D01*
X6822837D01*
Y5511812D01*
X6623027D01*
Y5467782D01*
X5738926Y4008544D02*
X5770468Y4010132D01*
X5775558Y3937512D01*
X5744046Y3935922D01*
X5738926Y4008544D01*
X8110236Y6496072D02*
X8109744Y6502280D01*
X8108279Y6508332D01*
X8105878Y6514077D01*
X8102601Y6519372D01*
X8098530Y6524085D01*
X8093767Y6528096D01*
X8088432Y6531306D01*
X8082657Y6533635D01*
X8076587Y6535024D01*
X8070866Y6535442D01*
X39370D02*
X33163Y6534950D01*
X27110Y6533485D01*
X21365Y6531084D01*
X16070Y6527807D01*
X11358Y6523736D01*
X7346Y6518973D01*
X4136Y6513638D01*
X1807Y6507863D01*
X418Y6501792D01*
X0Y6496072D01*
Y6378158D02*
Y6496072D01*
X39370Y6535442D02*
X8070866D01*
X8110236Y6496072D02*
Y6377962D01*
X8090547Y6338592D02*
Y6377962D01*
X8110236D01*
X649832Y6338788D02*
Y6378158D01*
X0D01*
X4113139Y6338569D02*
Y6378427D01*
X3544463D01*
Y6339057D01*
X5377447Y6338592D02*
Y6377962D01*
X4708707D01*
Y6338592D01*
X6665297D02*
Y6377962D01*
X6485057D01*
Y6338592D01*
X7496017D02*
Y6377962D01*
X6827277D01*
Y6338592D01*
X0Y39370D02*
X492Y33163D01*
X1957Y27110D01*
X4358Y21365D01*
X7635Y16070D01*
X11706Y11358D01*
X16469Y7346D01*
X21804Y4136D01*
X27580Y1807D01*
X33650Y418D01*
X39370Y0D01*
X8070866D02*
X8077074Y492D01*
X8083126Y1957D01*
X8088871Y4358D01*
X8094166Y7635D01*
X8098879Y11706D01*
X8102890Y16469D01*
X8106100Y21804D01*
X8108429Y27580D01*
X8109818Y33650D01*
X8110236Y39370D01*
Y157284D02*
Y39370D01*
X8070866Y0D02*
X39370D01*
X0Y39370D02*
Y157480D01*
X19689Y196850D02*
Y157480D01*
X0D01*
X7460404Y196654D02*
Y157284D01*
X8110236D01*
X3997097Y196874D02*
Y157015D01*
X4565773D01*
Y196386D01*
X2732789Y196850D02*
Y157480D01*
X3401529D01*
Y196850D01*
X1444939D02*
Y157480D01*
X1625179D01*
Y196850D01*
X614219D02*
Y157480D01*
X1282959D01*
Y196850D01*
M02*
