*
%FSLAX26Y26*%
%MOIN*%
%ADD10C,0.042677*%
%ADD11C,0.001102*%
%ADD12R,0.001594X0.001594*%
%ADD13R,0.002165X0.002165*%
%ADD14C,0.002303*%
%ADD15R,0.000846X0.000846*%
%ADD16C,0.100473*%
%ADD17C,0.057166*%
%ADD18C,0.005906*%
%ADD19R,0.090355X0.090355*%
%ADD20R,0.085355X0.085355*%
%ADD21C,0.039528*%
%ADD22C,0.027717*%
%ADD23C,0.011890*%
%ADD24C,0.016260*%
%ADD25C,0.061260*%
%ADD26C,0.072130*%
%ADD27C,0.064250*%
%ADD28C,0.080000*%
%ADD29R,0.051260X0.051260*%
%ADD30C,0.019260*%
%ADD31C,0.119370*%
%ADD32C,0.068190*%
%ADD33C,0.031260*%
%ADD34R,0.081260X0.081260*%
%ADD35C,0.052440*%
%ADD36R,0.086260X0.086260*%
%ADD37R,0.060320X0.060320*%
%ADD38R,0.040630X0.040630*%
%ADD39C,0.050630*%
%ADD40C,0.044570*%
%ADD41R,0.064250X0.064250*%
%ADD42R,0.033260X0.033260*%
%ADD43R,0.041260X0.041260*%
%ADD44R,0.035260X0.035260*%
%ADD45R,0.080000X0.080000*%
%ADD46C,0.099690*%
%ADD47R,0.056380X0.056380*%
%ADD48C,0.049292*%
%ADD49C,0.039370*%
%ADD50C,0.088583*%
%ADD51C,0.059055*%
%ADD52C,0.031496*%
%ADD53C,0.037402*%
%IPPOS*%
%LN504-2st46574a0.gts*%
%LPD*%
G75*
G54D10*
X2375509Y2696501D02*
X2297439Y2686221D01*
%LPC*%
G75*
X2297439Y2686221D02*
G54D11*
X635685Y3105019D02*
X649938Y3097516D01*
G54D12*
X2193639Y222921D02*
X2156799D01*
X2133639D02*
X2096799D01*
X1841479D02*
X1804639D01*
X1901479D02*
X1864639D01*
G54D13*
X1981674Y222636D02*
X1932544D01*
G54D14*
X1772735Y303470D02*
X1767975Y305985D01*
G54D15*
X2170073Y3061197D02*
Y3160925D01*
%LPD*%
G75*
X2170073Y3160925D02*
G54D16*
X3897639Y413391D03*
G54D17*
Y295281D03*
G54D16*
X2401579Y3031501D03*
G54D17*
Y3149611D03*
G54D17*
X236219Y334651D03*
G54D16*
X118110D03*
G54D18*
X252299Y2992131D02*
X247927Y2991640D01*
X243774Y2990190D01*
X240046Y2987854D01*
X236930Y2984749D01*
X234581Y2981030D01*
X233116Y2976882D01*
X232939Y2976031D01*
X21529Y2815771D02*
X35443Y2815001D01*
X49377Y2815217D01*
X63261Y2816418D01*
X77025Y2818598D01*
X90601Y2821747D01*
X103919Y2825849D01*
X116914Y2830882D01*
X129521Y2836822D01*
X141675Y2843639D01*
X153317Y2851299D01*
X164388Y2859763D01*
X174832Y2868990D01*
X184597Y2878932D01*
X193634Y2889540D01*
X201899Y2900761D01*
X209348Y2912538D01*
X215946Y2924813D01*
X221659Y2937525D01*
X226458Y2950608D01*
X230319Y2963998D01*
X232919Y2975941D01*
X21469Y2815781D02*
X21479D01*
X21469D02*
X17071Y2815688D01*
X12804Y2814621D01*
X8880Y2812632D01*
X5496Y2809823D01*
X2820Y2806332D01*
X986Y2802334D01*
X86Y2798028D01*
X-1Y2796181D01*
Y216541D01*
X490Y212169D01*
X1940Y208016D01*
X4276Y204288D01*
X7381Y201172D01*
X11100Y198823D01*
X15248Y197358D01*
X19618Y196851D01*
X19689Y196851D01*
X614219D01*
X620426Y197344D01*
X626478Y198811D01*
X632223Y201212D01*
X637517Y204490D01*
X642059Y208391D01*
X929569Y495891D01*
X967609D01*
X1255119Y208391D01*
X1259855Y204348D01*
X1265169Y201103D01*
X1270928Y198736D01*
X1276989Y197307D01*
X1282959Y196851D01*
X1444939D01*
Y239911D01*
X1625179D01*
Y196851D01*
X2732789D01*
X2738996Y197344D01*
X2745048Y198811D01*
X2750793Y201212D01*
X2756087Y204490D01*
X2760629Y208391D01*
X3048139Y495891D01*
X3086179D01*
X3373689Y208391D01*
X3378425Y204348D01*
X3383739Y201103D01*
X3389498Y198736D01*
X3395559Y197307D01*
X3401529Y196851D01*
X3996059D01*
X4000430Y197342D01*
X4004584Y198792D01*
X4008312Y201128D01*
X4011428Y204233D01*
X4013777Y207952D01*
X4015242Y212100D01*
X4015749Y216470D01*
X4015749Y216541D01*
Y2106301D01*
X4015257Y2110673D01*
X4013808Y2114826D01*
X4011472Y2118554D01*
X4008367Y2121670D01*
X4004648Y2124019D01*
X4000500Y2125484D01*
X3996130Y2125991D01*
X3996059Y2125991D01*
X3562989D01*
Y2726301D01*
X3770989D01*
Y2764431D01*
X3851019D01*
Y2606301D01*
X3870709Y2586621D01*
X3973109D01*
X3992799Y2606301D01*
Y2804281D01*
X3973109Y2823971D01*
X3771019D01*
Y2864191D01*
X3562989D01*
Y3248041D01*
X3562497Y3252412D01*
X3561048Y3256564D01*
X3558712Y3260290D01*
X3555607Y3263405D01*
X3551888Y3265753D01*
X3547741Y3267216D01*
X3543372Y3267721D01*
X3543309Y3267721D01*
X649609D01*
X645238Y3267231D01*
X641085Y3265782D01*
X637357Y3263448D01*
X634241Y3260344D01*
X631892Y3256625D01*
X631129Y3254831D01*
X254329Y2992131D02*
X274229Y2992624D01*
X294080Y2994103D01*
X313834Y2996563D01*
X333441Y3000000D01*
X352854Y3004404D01*
X372025Y3009764D01*
X390906Y3016068D01*
X409453Y3023300D01*
X427618Y3031442D01*
X445357Y3040474D01*
X462626Y3050374D01*
X479384Y3061118D01*
X495589Y3072679D01*
X511201Y3085028D01*
X526182Y3098137D01*
X540495Y3111971D01*
X554105Y3126498D01*
X566978Y3141682D01*
X579083Y3157484D01*
X590390Y3173868D01*
X600871Y3190791D01*
X610501Y3208213D01*
X619256Y3226091D01*
X627113Y3244381D01*
X631209Y3255041D01*
X254329Y2992131D02*
X252299D01*
X3829309Y555121D02*
X3488189D01*
Y775591D01*
X3829309D01*
Y555121D01*
X464569Y473211D02*
X218319D01*
Y623801D01*
X464569D01*
Y473211D01*
X3141199Y1182351D02*
X3050469Y1259161D01*
X3146599Y1372251D01*
X3237109Y1295591D01*
X3141199Y1182331D01*
X3140989Y1182511D01*
X3141199Y1182351D01*
X1729399Y2373281D02*
X1645269Y2444521D01*
X1740519Y2558331D01*
X1824649Y2487091D01*
X1729399Y2373281D01*
X1487209Y1067661D02*
X1287399D01*
Y1731471D01*
X1187219Y1945301D01*
Y2563001D01*
X1143489D01*
Y1944011D01*
X1247609Y1708201D01*
Y909451D01*
X1287399D01*
Y1023631D01*
X1487209D01*
Y1067661D01*
G54D19*
X582989Y277344D02*
Y242344D01*
X520989Y277344D02*
Y242344D01*
X360989Y277344D02*
Y242344D01*
X298989Y277344D02*
Y242344D01*
G54D20*
X2356059Y249274D02*
Y239274D01*
X2713059Y249274D02*
Y239274D01*
G54D18*
X2371310Y2526899D02*
X2339768Y2525311D01*
X2334678Y2597931D01*
X2366190Y2599521D01*
X2371310Y2526899D01*
G54D21*
X3578776Y2141778D03*
G54D21*
Y2710514D03*
G54D21*
X3786776Y2748644D03*
G54D21*
X3835231D03*
G54D21*
X3786806Y2839758D03*
G54D21*
X3578776Y2879978D03*
G54D21*
X1460726Y224124D03*
G54D21*
X1609391D03*
G54D21*
X3813521Y570908D03*
G54D21*
X3503976D03*
G54D21*
Y759804D03*
G54D21*
X3813521D03*
G54D21*
X3139362Y1204591D03*
G54D21*
X3072743Y1260989D03*
G54D21*
X3148421Y1350019D03*
G54D21*
X3214860Y1293747D03*
G54D21*
X1727483Y2395590D03*
G54D21*
X1667450Y2446426D03*
G54D21*
X1742435Y2536022D03*
G54D21*
X1802468Y2485186D03*
G54D21*
X448781Y488998D03*
G54D21*
X234106D03*
G54D21*
Y608014D03*
G54D21*
X448781D03*
G54D22*
X1178902Y2554495D03*
G54D22*
X1152117Y2554162D03*
G54D22*
X1477938Y1033090D03*
G54D22*
X1477862Y1058445D03*
G54D23*
X1159331Y2557161D02*
X1170140Y2556434D01*
X1169724Y2551237D02*
X1157865D01*
X1480974Y1055020D02*
Y1041800D01*
X1473934Y1052003D02*
Y1037140D01*
G54D24*
X2133859Y3127061D03*
G54D25*
X525589Y1488191D03*
G54D25*
X124019D03*
G54D25*
X1366999Y283691D03*
G54D25*
X2248689Y279741D03*
G54D25*
X1586609Y755911D03*
G54D25*
X1208659Y535441D03*
G54D25*
X1807089Y944891D03*
G54D26*
X3940949Y2078741D03*
G54D26*
X1137029Y1712751D03*
G54D26*
X861439D03*
G54D26*
X589909Y1966241D03*
G54D26*
X401759Y2167611D03*
G54D27*
X3152109Y637681D03*
G54D27*
X3070739Y695801D03*
G54D27*
X2989359Y753921D03*
G54D27*
X297239Y1968511D03*
G54D27*
X159449D03*
G54D27*
X297239Y2322841D03*
G54D27*
X159449D03*
G54D27*
X1082599Y2813001D03*
G54D27*
Y2950791D03*
G54D28*
X526419Y2662961D03*
G54D28*
X723269D03*
G54D28*
X623269Y3064141D03*
G54D28*
X1401579Y944891D03*
G54D28*
Y1141741D03*
G54D28*
X318009Y1698821D03*
G54D28*
X121159D03*
G54D29*
X1578739Y2592071D03*
G54D29*
Y2500071D03*
G54D29*
X1854329Y3143251D03*
G54D29*
Y3051251D03*
G54D30*
X3799209Y1299221D03*
G54D30*
X137799D03*
G54D30*
Y1259851D03*
G54D30*
Y1220481D03*
G54D30*
Y1181111D03*
G54D31*
X1135829Y1118111D03*
G54D31*
X840549D03*
G54D31*
X1135829Y1397641D03*
G54D31*
X840549D03*
G54D26*
X778429Y2239531D03*
G54D26*
X1013779Y2368041D03*
G54D32*
X679999Y2239531D03*
G54D32*
X915359Y2368041D03*
G54D33*
X3898074Y1080071D02*
X3857204D01*
X3898074Y1129071D02*
X3857204D01*
X3898074Y1178071D02*
X3857204D01*
G54D34*
X3769639Y1283071D02*
X3759639D01*
X3768639Y975071D02*
X3758639D01*
G54D35*
X2586834Y510121D02*
X2571084D01*
X2586834Y588861D02*
X2571084D01*
X2586834Y667601D02*
X2571084D01*
X2586834Y746341D02*
X2571084D01*
X2586834Y825081D02*
X2571084D01*
X2823054D02*
X2807304D01*
X2823054Y746341D02*
X2807304D01*
X2823054Y667601D02*
X2807304D01*
X2823054Y588861D02*
X2807304D01*
X2823054Y510121D02*
X2807304D01*
G54D36*
X3426189Y320651D02*
Y285651D01*
X3488189Y320651D02*
Y285651D01*
X3648189Y320651D02*
Y285651D01*
X3710189Y320651D02*
Y285651D01*
X582989Y281281D02*
Y246281D01*
X520989Y281281D02*
Y246281D01*
X360989Y281281D02*
Y246281D01*
X298989Y281281D02*
Y246281D01*
G54D37*
X3447429Y581221D02*
X3400189D01*
X3447429Y746581D02*
X3400189D01*
G54D38*
X2202869Y1765441D02*
Y1741821D01*
G54D39*
X3133699Y1586251D03*
G54D40*
X3198979Y2749821D02*
X3179299D01*
X3346529Y3212771D02*
X3326849D01*
X3051259Y3212581D02*
X3031579D01*
G54D41*
X3529534Y1586621D02*
X3454724D01*
X3750004D02*
X3675194D01*
G54D42*
X1952759Y3084181D03*
G54D42*
Y3144181D03*
G54D42*
X2192909Y2951261D03*
G54D42*
Y2891261D03*
G54D42*
X2175219Y241261D03*
G54D42*
X2115219D03*
G54D42*
X2115499Y319471D03*
G54D42*
X2175499D03*
G54D42*
X1823059Y241261D03*
G54D42*
X1883059D03*
G54D42*
X1824069Y319471D03*
G54D42*
X1884069D03*
G54D42*
X1504819Y282601D03*
G54D42*
X1564819D03*
G54D42*
X2255909Y2951261D03*
G54D42*
Y2891261D03*
G54D33*
X2608059Y382646D02*
Y341776D01*
X2559059Y382646D02*
Y341776D01*
X2510059Y382646D02*
Y341776D01*
X2461059Y382646D02*
Y341776D01*
G54D34*
X2356059Y253211D02*
Y243211D01*
X2713059Y253211D02*
Y243211D01*
G54D43*
X1959609Y319491D02*
X1954609D01*
X1959609Y244691D02*
X1954609D01*
X2040609Y282091D02*
X2035609D01*
X1668109Y319491D02*
X1663109D01*
X1668109Y244691D02*
X1663109D01*
X1749109Y282091D02*
X1744109D01*
G54D44*
X2074859Y3018561D02*
Y3002561D01*
X2192859Y3018561D02*
Y3002561D01*
G54D45*
X307439Y1299217D02*
Y1181106D01*
X137439Y1299217D02*
Y1181106D01*
G54D46*
X1806789Y554436D02*
Y515066D01*
X2006789Y554436D02*
Y515066D01*
X2206789Y554436D02*
Y515066D01*
G54D47*
X1558319Y1255871D03*
G54D47*
Y1129891D03*
G36*
X2999350Y489812D02*
G02X2999343Y481843I-3982J-3981D01*
G01X2982723Y465283D01*
G02X2974743Y465315I-3974J3988D01*
G01X2945712Y494435D01*
G02X2945703Y502417I3967J3996D01*
G01X2962313Y518987D01*
G02X2970276Y518976I3976J-3986D01*
G01X2999350Y489812D01*
G37*
G36*
X2951947Y442555D02*
G02X2951935Y434595I-3988J-3974D01*
G01X2935324Y418034D01*
G02X2926673Y418735I-4030J3992D01*
G02X2926533Y418877I3935J4027D01*
G01X2898285Y447203D01*
G02X2898294Y455168I3984J3978D01*
G01X2914915Y471739D01*
G02X2922877Y471725I3974J-3988D01*
G01X2951947Y442555D01*
G37*
G36*
X2167989Y3158561D02*
Y3063561D01*
G02X2162359Y3057931I-5630J0D01*
G01X2151489D01*
Y2990561D01*
G02X2145859Y2984931I-5630J0D01*
G01X2121859D01*
G02X2116229Y2990561I0J5630D01*
G01Y3057931D01*
X2105359D01*
G02X2099729Y3063561I0J5630D01*
G01Y3158561D01*
G02X2105359Y3164191I5630J0D01*
G01X2162359D01*
G02X2167989Y3158561I0J-5630D01*
G37*
G54D48*
X314959Y816931D03*
G54D48*
X393699D03*
G54D48*
X472439D03*
G54D48*
X314959Y718511D03*
G54D48*
X393699D03*
G54D48*
X472439D03*
G54D17*
X3093419Y1492151D03*
G54D17*
X3172549Y1676781D03*
G54D17*
X2305309Y2558731D03*
G54D17*
X2400069Y2570591D03*
G36*
X3979059Y2078741D02*
G02X3979059Y2078741I-38110J0D01*
G37*
G36*
X3898072Y1111394D02*
G01X3857206D01*
G02X3840924Y1122188I0J17677D01*
G02X3841881Y1123632I957J405D01*
G01X3843378D01*
G02X3843382Y1123717I2039J-41D01*
G01X3842894Y1126001D01*
G02X3843075Y1132961I14312J3109D01*
G01X3843390Y1134426D01*
G02X3843387Y1134510I2036J126D01*
G01X3841881D01*
G02X3840924Y1135955I0J1040D01*
G02X3857206Y1146748I16282J-6884D01*
G01X3898072D01*
G02X3898072Y1111394I1J-17677D01*
G37*
G36*
Y1062394D02*
G01X3857206D01*
G02X3841593Y1071781I0J17677D01*
G02X3842511Y1073308I918J488D01*
G01X3843930D01*
G02X3843932Y1073360I2039J-40D01*
G01X3843258Y1075602D01*
G02X3842767Y1082490I13948J4456D01*
G01X3842974Y1084051D01*
G02X3842967Y1084186I2032J177D01*
G01X3841387Y1084187D01*
G02X3840399Y1085548I0J1039D01*
G02X3857206Y1097748I16807J-5477D01*
G01X3898072D01*
G02X3898072Y1062394I-0J-17677D01*
G37*
G36*
X3908330Y1188527D02*
G02X3898183Y1163451I-10242J-10447D01*
G01X3856251Y1163446D01*
G02X3856633Y1192647I980J14590D01*
G01X3899812Y1192636D01*
G02X3900215Y1192553I-210J-2029D01*
G02X3908330Y1188527I-2146J-14520D01*
G37*
G36*
X3812316Y1240414D02*
G01X3716962D01*
Y1325748D01*
X3812316D01*
Y1240414D01*
G37*
G36*
X3808269Y935424D02*
X3719009D01*
Y1014680D01*
X3808269D01*
Y935424D01*
G37*
G36*
X3784174Y1552448D02*
X3641024D01*
Y1620794D01*
X3784174D01*
Y1552448D01*
G37*
G36*
X3755366Y240504D02*
X3603012D01*
Y365792D01*
X3755366D01*
Y240504D01*
G37*
G36*
X3563704Y1552448D02*
X3420554D01*
Y1555581D01*
X3423568Y1555581D01*
G02X3423599Y1555897I2039J-40D01*
G01Y1617654D01*
X3420554D01*
Y1620794D01*
X3563704D01*
Y1552448D01*
G37*
G36*
X3533366Y240474D02*
X3381012D01*
Y365828D01*
X3533366D01*
Y240474D01*
G37*
G36*
X3479636Y714376D02*
X3367982D01*
Y778786D01*
X3479636D01*
Y714376D01*
G37*
G36*
Y549016D02*
X3367982D01*
Y613426D01*
X3479636D01*
Y549016D01*
G37*
G36*
X3346531Y3188440D02*
X3326846D01*
G02X3327335Y3237040I-0J24302D01*
G01X3349067Y3237031D01*
G02X3349599Y3236908I-190J-2031D01*
G02X3346531Y3188440I-3067J-24137D01*
G37*
G36*
X3198981Y2725490D02*
G01X3179296D01*
G02X3179296Y2774152I0J24331D01*
G01X3198981D01*
G02X3198981Y2725490I0J-24331D01*
G37*
G36*
X3203179Y1676781D02*
G02X3203179Y1676781I-30630J0D01*
G37*
G36*
X3186282Y637681D02*
G02X3186282Y637681I-34173J0D01*
G37*
G36*
X3161049Y1586243D02*
G02X3161049Y1586243I-27356J0D01*
G37*
G36*
X3124049Y1492151D02*
G02X3124049Y1492151I-30630J0D01*
G37*
G36*
X3104912Y695801D02*
G02X3104912Y695801I-34173J0D01*
G37*
G36*
X3075495Y3214755D02*
G02X3051261Y3188250I-24233J-2174D01*
G01X3031566D01*
G02X3033584Y3236805I10J24319D01*
G01X3054677Y3236641D01*
G02X3075495Y3214755I-3420J-24097D01*
G37*
G36*
X3023532Y753921D02*
G02X3023532Y753921I-34173J0D01*
G37*
G36*
X2999937Y485524D02*
G01X2999935Y481017D01*
G02X2999656Y479263I-741J-782D01*
G02X2998897Y478509I-1766J1019D01*
G01X2984167Y463833D01*
G02X2981611Y462148I-5419J5438D01*
G02X2981069Y461920I-1052J1750D01*
G02X2980643Y461831I-628J1940D01*
G02X2974453Y462908I-1894J7440D01*
G02X2975097Y464906I407J971D01*
G01X2976563D01*
X2945275Y496287D01*
Y494825D01*
G02X2943278Y494193I-1025J-233D01*
G02X2944257Y503866I6401J4238D01*
G01X2959951Y519522D01*
G02X2961420Y519521I734J-736D01*
G01X2966685Y519507D01*
G02X2969407Y518410I-455J-5054D01*
G01X2998778Y488964D01*
G02X2999937Y485524I-3429J-3072D01*
G37*
G36*
X2954297Y442914D02*
G02X2953393Y433158I-6338J-4332D01*
G01X2937381Y417194D01*
G02X2935947Y417157I-736J734D01*
G02X2935762Y417213I494J1979D01*
G02X2935658Y417236I180J1024D01*
G01X2931255D01*
G02X2930617Y417339I0J2039D01*
G02X2927410Y419411I678J4567D01*
G01X2898664Y448275D01*
G02X2897692Y450481I3604J2906D01*
G02X2897587Y451128I1934J647D01*
G01Y455386D01*
G02X2897551Y455668I2000J398D01*
G02X2897507Y455804I1921J686D01*
G02X2897514Y457281I735J735D01*
G01X2913520Y473238D01*
G02X2923363Y473989I5369J-5488D01*
G02X2922695Y472010I-448J-951D01*
G01X2921181D01*
X2952305Y440779D01*
Y442266D01*
G02X2954297Y442914I1025J235D01*
G37*
G36*
X2823053Y796813D02*
G01X2807305D01*
G02X2807305Y853349I0J28268D01*
G01X2823053D01*
G02X2823053Y796813I0J-28268D01*
G37*
G36*
Y718073D02*
G01X2807305D01*
G02X2807305Y774609I0J28268D01*
G01X2823053D01*
G02X2823053Y718073I0J-28268D01*
G37*
G36*
Y639333D02*
G01X2807305D01*
G02X2807305Y695869I0J28268D01*
G01X2823053D01*
G02X2823053Y639333I0J-28268D01*
G37*
G36*
Y560593D02*
G01X2807305D01*
G02X2807305Y617129I0J28268D01*
G01X2823053D01*
G02X2823053Y560593I0J-28268D01*
G37*
G36*
Y481853D02*
G01X2807305D01*
G02X2807305Y538389I0J28268D01*
G01X2823053D01*
G02X2823053Y481853I0J-28268D01*
G37*
G36*
X2755736Y234748D02*
G01Y200534D01*
X2670382D01*
Y225489D01*
X2673429D01*
X2673398Y279755D01*
X2670382Y279756D01*
Y294849D01*
G02X2671421Y295888I1039J0D01*
G01X2735096D01*
G02X2735825Y294108I0J-1039D01*
G01X2734608Y292892D01*
G02X2734722Y292876I-95J-1035D01*
G01X2751649Y292865D01*
G02X2751919Y292829I0J-1039D01*
G01X2752689D01*
Y234212D01*
X2753956Y235478D01*
G02X2755736Y234748I740J-730D01*
G37*
G36*
X2622692Y382680D02*
G01X2622691Y342005D01*
G02X2593427Y342163I-14633J-209D01*
G01X2593426Y382435D01*
G02X2622689Y382955I14632J230D01*
G02X2622692Y382680I-14631J-289D01*
G37*
G36*
X2586833Y718073D02*
G01X2571085D01*
G02X2571085Y774609I0J28268D01*
G01X2586833D01*
G02X2586833Y718073I0J-28268D01*
G37*
G36*
Y560593D02*
G01X2571085D01*
G02X2571085Y617129I0J28268D01*
G01X2586833D01*
G02X2586833Y560593I0J-28268D01*
G37*
G36*
X2586833Y481853D02*
G01X2571085D01*
G02X2571085Y538389I0J28268D01*
G01X2586834D01*
G02X2586833Y481853I-2J-28268D01*
G37*
G36*
X2586833Y639333D02*
G01X2571085D01*
G02X2571219Y695860I0J28263D01*
G01X2588082Y695841D01*
G02X2586833Y639333I-1250J-28240D01*
G37*
G36*
X2612608Y836688D02*
G02X2586701Y796832I-25769J-11598D01*
G01X2571219D01*
G02X2572289Y853306I-120J28250D01*
G01X2588190Y853305D01*
G02X2588472Y853273I-85J-2038D01*
G02X2612513Y836855I-1647J-28222D01*
G02X2612608Y836688I-853J-594D01*
G37*
G36*
X2576736Y382644D02*
G01Y341778D01*
G02X2541382Y341778I-17677J0D01*
G01Y382644D01*
G02X2551405Y398578I17677J-0D01*
G02X2552376Y398541I450J-937D01*
G01X2553041Y398160D01*
G02X2553573Y397253I-508J-907D01*
G01X2553574Y396720D01*
G02X2553602Y396474I-2008J-356D01*
G01X2555946Y396979D01*
G02X2562115Y396979I3085J-14313D01*
G01X2564508Y396455D01*
G02X2564539Y396733I2038J-87D01*
G01Y397251D01*
G02X2565096Y398172I1039J-0D01*
G01X2565741Y398541D01*
G02X2566712Y398579I521J-899D01*
G02X2575712Y388572I-7653J-15934D01*
G02X2576736Y382644I-16654J-5928D01*
G37*
G36*
X2527736D02*
G01Y341778D01*
G02X2492382Y341778I-17677J0D01*
G01Y382644D01*
G02X2498198Y395752I17677J-0D01*
G02X2499502Y395830I701J-768D01*
G01X2501374Y394497D01*
G02X2516313Y395954I8718J-12063D01*
G02X2516454Y396072I1372J-1509D01*
G01X2517811Y397607D01*
G02X2519129Y397817I785J-682D01*
G02X2526956Y387838I-9070J-15173D01*
G02X2527736Y382644I-16897J-5194D01*
G37*
G36*
X2478736Y382644D02*
G01Y341778D01*
G02X2443382Y341778I-17677J0D01*
G01Y382644D01*
G02X2458147Y400080I17677J0D01*
G02X2459065Y398322I183J-1023D01*
G01X2458432Y397688D01*
X2462532Y397263D01*
G02X2473037Y391207I-1435J-14626D01*
G01X2474273Y392446D01*
G02X2475886Y392270I736J-734D01*
G02X2478075Y387433I-14827J-9626D01*
G02X2478736Y382644I-17016J-4789D01*
G37*
G36*
X2430699Y2570591D02*
G02X2430699Y2570591I-30630J0D01*
G37*
G36*
X2398736Y280637D02*
G01X2395689Y280601D01*
Y225489D01*
X2398736D01*
Y200534D01*
X2313382D01*
Y295888D01*
X2398736D01*
Y280637D01*
G37*
G36*
X2335939Y2558731D02*
G02X2335939Y2558731I-30630J0D01*
G37*
G36*
X2281205Y282981D02*
G02X2216707Y273035I-32516J-3240D01*
G02X2217725Y274289I1018J214D01*
G01X2219448Y274291D01*
G02X2219457Y274444I2039J-46D01*
G01X2219235Y276462D01*
G02X2219287Y283423I29452J3261D01*
G01X2219464Y285013D01*
G02X2219455Y285164I2030J198D01*
G01X2217719Y285167D01*
G02X2216701Y286420I0J1040D01*
G02X2268324Y305861I31987J-6678D01*
G02X2268381Y304245I-625J-831D01*
G01X2267052Y303085D01*
X2270848Y299369D01*
X2274286Y294835D01*
X2275598Y295982D01*
G02X2277196Y295714I691J-776D01*
G02X2281160Y283405I-28508J-15973D01*
G02X2281205Y282981I-1994J-426D01*
G37*
G36*
X2274585Y2966097D02*
G01X2273800D01*
G02X2273520Y2966066I-254J1008D01*
G01X2271569D01*
G02X2271539Y2965780I-2038J71D01*
G01Y2935617D01*
X2240279D01*
Y2966097D01*
X2237233D01*
Y2969937D01*
X2274585D01*
Y2966097D01*
G37*
G36*
X2271539Y2875652D02*
X2240279D01*
Y2906886D01*
X2271539D01*
Y2875652D01*
G37*
G36*
X2258678Y554723D02*
X2258644Y514496D01*
G02X2258624Y514295I-8007J717D01*
G01X2258320Y511014D01*
X2258411Y509803D01*
G02X2154952Y514835I-51596J5262D01*
G01X2154900Y554703D01*
G02X2258678Y554723I51889J-267D01*
G37*
G36*
X2225231Y1719458D02*
G01X2180506D01*
Y1787804D01*
X2225231D01*
Y1719458D01*
G37*
G36*
X2212534Y2982884D02*
X2210210D01*
Y2985941D01*
X2175608D01*
Y2982884D01*
X2173184D01*
Y3038238D01*
X2212534D01*
Y2982884D01*
G37*
G36*
X2208539Y2935646D02*
X2207720D01*
G02X2207499Y2935622I-220J1016D01*
G01X2190683Y2935601D01*
G03X2188741Y2933630I18J-1960D01*
G02X2187696Y2932585I-1039J-6D01*
G01X2175272D01*
G02X2174233Y2933624I0J1039D01*
G01X2174233Y2966145D01*
G02X2175651Y2966913I1039J-226D01*
G01X2207499D01*
G02X2208494Y2966176I0J-1039D01*
G01X2208539D01*
Y2935646D01*
G37*
G36*
Y2875652D02*
X2177279D01*
Y2906886D01*
X2208539D01*
Y2875652D01*
G37*
G36*
X2194175Y300795D02*
X2180985D01*
Y303860D01*
X2170013D01*
Y300795D01*
X2156823D01*
Y338147D01*
X2194175D01*
Y300795D01*
G37*
G36*
X2193895Y222585D02*
X2156543D01*
Y259937D01*
X2170013D01*
Y256902D01*
X2180985D01*
Y259937D01*
X2193895D01*
Y222585D01*
G37*
G36*
X2170036Y3158561D02*
Y3063561D01*
G02X2162359Y3055884I-7677J0D01*
G01X2153536D01*
Y2990561D01*
G02X2145859Y2982884I-7677J0D01*
G01X2121859D01*
G02X2114182Y2990561I0J7677D01*
G01Y3055884D01*
X2105359D01*
G02X2097682Y3063561I0J7677D01*
G01Y3085747D01*
X2100698Y3085761D01*
G02X2100735Y3086096I2039J-54D01*
G01X2100743Y3158947D01*
G02X2100784Y3159293I2038J-68D01*
G02X2101028Y3160223I2039J-39D01*
G01X2101546Y3162260D01*
X2100717D01*
G02X2099983Y3164041I-6J1039D01*
G02X2105359Y3166238I5376J-5480D01*
G01X2162359D01*
G02X2170029Y3158878I0J-7677D01*
G02X2170036Y3158561I-7670J-316D01*
G37*
G36*
X2133895Y258898D02*
G01Y222585D01*
X2096543D01*
Y249666D01*
G02X2098317Y250411I1039J9D01*
G01X2099585Y249142D01*
X2099587Y255850D01*
G02X2100627Y256924I1056J18D01*
G01X2107286Y256956D01*
X2106084Y258158D01*
G02X2106814Y259937I730J740D01*
G01X2132856D01*
G02X2133895Y258898I0J-1039D01*
G37*
G36*
X2131129Y303860D02*
G01X2099869D01*
Y335094D01*
X2131129D01*
Y303860D01*
G37*
G36*
X2091489Y2985941D02*
X2058229D01*
Y3035214D01*
X2091489D01*
Y2985941D01*
G37*
G36*
X2063286Y283425D02*
X2060239Y283425D01*
X2060270Y272490D01*
X2063286Y272476D01*
Y259414D01*
X2012932D01*
Y304768D01*
X2063286D01*
Y283425D01*
G37*
G36*
X2058679Y554436D02*
Y515066D01*
G02X1954899Y515066I-51890J-0D01*
G01Y554436D01*
G02X2057811Y563887I51890J0D01*
G02X2058679Y554436I-51022J-9451D01*
G37*
G36*
X1982286Y296814D02*
G01X1931932D01*
Y314006D01*
X1934979D01*
Y324947D01*
X1931932D01*
Y342168D01*
X1982286D01*
Y296814D01*
G37*
G36*
Y260533D02*
Y222014D01*
X1931932D01*
Y237246D01*
X1934979D01*
Y252167D01*
X1931932D01*
Y266329D01*
G02X1932971Y267368I1039J0D01*
G01X1963987D01*
G02X1964791Y265666I3J-1039D01*
G01X1963694Y264342D01*
G02X1963813Y264325I-86J-1036D01*
G01X1978201Y264314D01*
G02X1979242Y263242I1J-1040D01*
G01X1979244Y259741D01*
X1980444Y261193D01*
G02X1982286Y260533I803J-660D01*
G37*
G36*
X1970219Y3100991D02*
G01X1968465Y3099655D01*
G02X1968389Y3099553I-1676J1162D01*
G01Y3068549D01*
X1937129D01*
Y3099233D01*
G02X1937101Y3099433I2003J384D01*
G01X1935177D01*
G02X1934083Y3100471I-55J1038D01*
G01Y3101818D01*
G02X1935122Y3102857I1039J0D01*
G01X1969587D01*
G02X1970219Y3100991I3J-1039D01*
G37*
G36*
X1968389Y3128576D02*
G01X1937129D01*
Y3159810D01*
X1968389D01*
Y3128576D01*
G37*
G36*
X1902745Y324947D02*
X1899699D01*
Y314006D01*
X1902745D01*
Y300795D01*
X1865393D01*
Y338147D01*
X1902745D01*
Y324947D01*
G37*
G36*
X1901735Y252167D02*
X1898689D01*
Y237246D01*
X1901735D01*
Y222585D01*
X1864383D01*
Y259937D01*
X1901735D01*
Y252167D01*
G37*
G36*
X1878959Y3118623D02*
X1829699D01*
Y3167897D01*
X1878959D01*
Y3118623D01*
G37*
G36*
Y3026623D02*
X1829699D01*
Y3075896D01*
X1878959D01*
Y3026623D01*
G37*
G36*
X1858640Y514472D02*
X1858319Y511001D01*
X1858394Y509642D01*
G02X1754915Y514932I-51598J5421D01*
G01X1754925Y555961D01*
G02X1858580Y558360I51891J-1540D01*
G01X1858586Y515523D01*
G02X1858674Y514910I-1952J-592D01*
G02X1858640Y514472I-2039J-64D01*
G37*
G36*
X1842745Y300795D02*
G01X1829555D01*
Y303860D01*
X1818583D01*
Y300795D01*
X1805393D01*
Y338147D01*
X1842745D01*
Y300795D01*
G37*
G36*
X1841735Y222585D02*
X1804383D01*
Y259937D01*
X1818583D01*
Y256902D01*
X1829555D01*
Y259937D01*
X1841735D01*
Y222585D01*
G37*
G36*
X1836822Y945163D02*
G02X1831347Y927625I-29745J-338D01*
G01X1832893Y927625D01*
G02X1833741Y925984I0J-1040D01*
G02X1780437Y925984I-26652J18907D01*
G02X1781296Y927625I848J601D01*
G01X1782774D01*
G02X1782848Y927641I479J-1983D01*
G02X1782923Y962123I24239J17188D01*
G02X1782827Y962141I328J2013D01*
G01X1781273D01*
G02X1780431Y963790I0J1039D01*
G02X1833734Y963808I26658J-18900D01*
G02X1832867Y962142I-830J-627D01*
G01X1831383D01*
G02X1831300Y962125I-449J1989D01*
G02X1836822Y945163I-24210J-17261D01*
G37*
G36*
X1771786Y286352D02*
G01X1768770Y286347D01*
G02X1768739Y286035I-2039J44D01*
G01X1768770Y275472D01*
X1771786Y275468D01*
Y259414D01*
X1721432D01*
Y304768D01*
X1771786D01*
Y286352D01*
G37*
G36*
X1690786Y296814D02*
X1640432D01*
Y314026D01*
X1643448Y314045D01*
G02X1643479Y314342I2039J-58D01*
G01Y324916D01*
X1640432D01*
Y342168D01*
X1690786D01*
Y296814D01*
G37*
G36*
X1687739Y225046D02*
X1643479D01*
Y264305D01*
X1687739D01*
Y225046D01*
G37*
G36*
X1616232Y755905D02*
G02X1616232Y755905I-29623J0D01*
G37*
G36*
X1603369Y2567427D02*
G01X1554109D01*
Y2616701D01*
X1603369D01*
Y2567427D01*
G37*
G36*
Y2475426D02*
X1554109D01*
Y2524700D01*
X1603369D01*
Y2475426D01*
G37*
G36*
X1588555Y1225635D02*
X1528082D01*
Y1231554D01*
X1531098Y1231559D01*
G02X1531129Y1231870I2039J-44D01*
G01Y1283031D01*
X1585509D01*
Y1231880D01*
G02X1585538Y1231619I-2007J-361D01*
G01X1587501D01*
G02X1587878Y1231554I15J-1039D01*
G01X1588555D01*
Y1225635D01*
G37*
G36*
Y1099655D02*
X1528082D01*
Y1108697D01*
X1531129Y1108698D01*
Y1151119D01*
X1528082D01*
Y1160127D01*
X1588555D01*
Y1099655D01*
G37*
G36*
X1583495Y288043D02*
X1580479Y288019D01*
G02X1580449Y287726I-2038J63D01*
G01Y277150D01*
X1583495D01*
Y263925D01*
X1546143D01*
Y301277D01*
X1583495D01*
Y288043D01*
G37*
G36*
X1523495Y263925D02*
X1486143D01*
Y277150D01*
X1489189D01*
Y288028D01*
X1486143D01*
Y300238D01*
G02X1487182Y301277I1039J0D01*
G01X1498765D01*
G02X1499803Y300187I0J-1039D01*
G01Y298206D01*
X1510775D01*
Y301277D01*
X1523495D01*
Y263925D01*
G37*
G36*
X1443626Y1141741D02*
G02X1443626Y1141741I-42047J0D01*
G37*
G36*
Y944891D02*
G02X1443626Y944891I-42047J0D01*
G37*
G36*
X1399200Y289249D02*
G02X1398176Y288028I-1024J-181D01*
G01X1396385D01*
X1396440Y279545D01*
G02X1396276Y278984I-1039J-0D01*
G02X1396234Y278818I-1996J417D01*
G01X1395989Y277150D01*
X1397715D01*
G02X1398722Y275853I0J-1039D01*
G02X1398963Y290479I-31723J7838D01*
G02X1399200Y289249I-31964J-6788D01*
G37*
G36*
X1238296Y535423D02*
G02X1238296Y535423I-29637J0D01*
G37*
G36*
X1197560Y1118109D02*
G02X1197560Y1118109I-61731J0D01*
G37*
G36*
X1197560Y1397644D02*
G02X1197560Y1397644I-61731J0D01*
G37*
G36*
X1175131Y1712762D02*
G02X1175131Y1712762I-38102J0D01*
G37*
G36*
X1116772Y2813001D02*
G02X1116772Y2813001I-34173J0D01*
G37*
G36*
X1116763Y2950799D02*
G02X1116763Y2950799I-34164J0D01*
G37*
G36*
X1051889Y2368041D02*
G02X1051889Y2368041I-38110J0D01*
G37*
G36*
X951501D02*
G02X951501Y2368041I-36142J0D01*
G37*
G36*
X902281Y1397641D02*
G02X902281Y1397641I-61732J0D01*
G37*
G36*
Y1118111D02*
G02X902281Y1118111I-61732J0D01*
G37*
G36*
X899549Y1712751D02*
G02X899549Y1712751I-38110J0D01*
G37*
G36*
X816539Y2239531D02*
G02X816539Y2239531I-38110J0D01*
G37*
G36*
X765316Y2662961D02*
G02X765316Y2662961I-42047J0D01*
G37*
G36*
X716141Y2239531D02*
G02X716141Y2239531I-36142J0D01*
G37*
G36*
X665316Y3064141D02*
G02X665316Y3064141I-42047J0D01*
G37*
G36*
X628166Y201104D02*
G01X475812D01*
Y326458D01*
X628166D01*
Y201104D01*
G37*
G36*
X628019Y1966241D02*
G02X628019Y1966241I-38110J0D01*
G37*
G36*
X568466Y2662961D02*
G02X568466Y2662961I-42047J0D01*
G37*
G36*
X558266Y1488191D02*
G02X558266Y1488191I-32677J0D01*
G37*
G36*
X499132Y816931D02*
G02X499132Y816931I-26693J0D01*
G37*
G36*
Y718511D02*
G02X499132Y718511I-26693J0D01*
G37*
G36*
X439869Y2167611D02*
G02X439869Y2167611I-38110J0D01*
G37*
G36*
X420392Y816931D02*
G02X420392Y816931I-26693J0D01*
G37*
G36*
Y718511D02*
G02X420392Y718511I-26693J0D01*
G37*
G36*
X406166Y201104D02*
G01X253812D01*
Y326458D01*
X406166D01*
Y201104D01*
G37*
G36*
X360056Y1698821D02*
G02X360056Y1698821I-42047J0D01*
G37*
G36*
X346439Y1340209D02*
G01X346439Y1142159D01*
X345626D01*
G02X345399Y1142134I-227J1015D01*
G01X324645Y1142131D01*
G02X324507Y1142113I-203J1019D01*
G02X324429Y1141631I-2038J85D01*
G01X324253Y1139992D01*
G02X323219Y1139059I-1034J106D01*
G01X266431D01*
G02X265391Y1140098I0J1039D01*
G01Y1148720D01*
X266214D01*
G02X266431Y1148743I217J-1017D01*
G01X268409Y1148760D01*
G02X268439Y1149038I2038J-79D01*
G01X268407Y1335547D01*
X265391Y1335569D01*
Y1340224D01*
G02X266431Y1341263I1039J0D01*
G01X345400D01*
G02X346439Y1340209I0J-1039D01*
G37*
G36*
X341652Y816931D02*
G02X341652Y816931I-26693J0D01*
G37*
G36*
Y718511D02*
G02X341652Y718511I-26693J0D01*
G37*
G36*
X331412Y2322841D02*
G02X331412Y2322841I-34173J0D01*
G37*
G36*
Y1968511D02*
G02X331412Y1968511I-34173J0D01*
G37*
G36*
X193619Y1968505D02*
G02X193619Y1968505I-34170J0D01*
G37*
G36*
X193613Y2322842D02*
G02X193613Y2322842I-34164J0D01*
G37*
G36*
X179486Y1139082D02*
G01X95391D01*
Y1341255D01*
X179486D01*
Y1139082D01*
G37*
G36*
X163203Y1698815D02*
G02X163203Y1698815I-42044J0D01*
G37*
G36*
X156688Y1488182D02*
G02X156688Y1488182I-32669J0D01*
G37*
G54D10*
X2375509Y2696501D02*
G01X2297439Y2686221D01*
%LPC*%
G75*
X2297439Y2686221D02*
G54D11*
X635685Y3105019D02*
X649938Y3097516D01*
G54D12*
X2193639Y222921D02*
X2156799D01*
X2133639D02*
X2096799D01*
X1841479D02*
X1804639D01*
X1901479D02*
X1864639D01*
G54D13*
X1981674Y222636D02*
X1932544D01*
G54D14*
X1772735Y303470D02*
X1767975Y305985D01*
G54D15*
X2170073Y3061197D02*
Y3160925D01*
%LPD*%
G75*
X2170073Y3160925D02*
G54D16*
X3897639Y413391D03*
G54D17*
Y295281D03*
G54D16*
X2401579Y3031501D03*
G54D17*
Y3149611D03*
G54D17*
X236219Y334651D03*
G54D16*
X118110D03*
G54D18*
X252299Y2992131D02*
X247927Y2991640D01*
X243774Y2990190D01*
X240046Y2987854D01*
X236930Y2984749D01*
X234581Y2981030D01*
X233116Y2976882D01*
X232939Y2976031D01*
X21529Y2815771D02*
X35443Y2815001D01*
X49377Y2815217D01*
X63261Y2816418D01*
X77025Y2818598D01*
X90601Y2821747D01*
X103919Y2825849D01*
X116914Y2830882D01*
X129521Y2836822D01*
X141675Y2843639D01*
X153317Y2851299D01*
X164388Y2859763D01*
X174832Y2868990D01*
X184597Y2878932D01*
X193634Y2889540D01*
X201899Y2900761D01*
X209348Y2912538D01*
X215946Y2924813D01*
X221659Y2937525D01*
X226458Y2950608D01*
X230319Y2963998D01*
X232919Y2975941D01*
X21469Y2815781D02*
X21479D01*
X21469D02*
X17071Y2815688D01*
X12804Y2814621D01*
X8880Y2812632D01*
X5496Y2809823D01*
X2820Y2806332D01*
X986Y2802334D01*
X86Y2798028D01*
X-1Y2796181D01*
Y216541D01*
X490Y212169D01*
X1940Y208016D01*
X4276Y204288D01*
X7381Y201172D01*
X11100Y198823D01*
X15248Y197358D01*
X19618Y196851D01*
X19689Y196851D01*
X614219D01*
X620426Y197344D01*
X626478Y198811D01*
X632223Y201212D01*
X637517Y204490D01*
X642059Y208391D01*
X929569Y495891D01*
X967609D01*
X1255119Y208391D01*
X1259855Y204348D01*
X1265169Y201103D01*
X1270928Y198736D01*
X1276989Y197307D01*
X1282959Y196851D01*
X1444939D01*
Y239911D01*
X1625179D01*
Y196851D01*
X2732789D01*
X2738996Y197344D01*
X2745048Y198811D01*
X2750793Y201212D01*
X2756087Y204490D01*
X2760629Y208391D01*
X3048139Y495891D01*
X3086179D01*
X3373689Y208391D01*
X3378425Y204348D01*
X3383739Y201103D01*
X3389498Y198736D01*
X3395559Y197307D01*
X3401529Y196851D01*
X3996059D01*
X4000430Y197342D01*
X4004584Y198792D01*
X4008312Y201128D01*
X4011428Y204233D01*
X4013777Y207952D01*
X4015242Y212100D01*
X4015749Y216470D01*
X4015749Y216541D01*
Y2106301D01*
X4015257Y2110673D01*
X4013808Y2114826D01*
X4011472Y2118554D01*
X4008367Y2121670D01*
X4004648Y2124019D01*
X4000500Y2125484D01*
X3996130Y2125991D01*
X3996059Y2125991D01*
X3562989D01*
Y2726301D01*
X3770989D01*
Y2764431D01*
X3851019D01*
Y2606301D01*
X3870709Y2586621D01*
X3973109D01*
X3992799Y2606301D01*
Y2804281D01*
X3973109Y2823971D01*
X3771019D01*
Y2864191D01*
X3562989D01*
Y3248041D01*
X3562497Y3252412D01*
X3561048Y3256564D01*
X3558712Y3260290D01*
X3555607Y3263405D01*
X3551888Y3265753D01*
X3547741Y3267216D01*
X3543372Y3267721D01*
X3543309Y3267721D01*
X649609D01*
X645238Y3267231D01*
X641085Y3265782D01*
X637357Y3263448D01*
X634241Y3260344D01*
X631892Y3256625D01*
X631129Y3254831D01*
X254329Y2992131D02*
X274229Y2992624D01*
X294080Y2994103D01*
X313834Y2996563D01*
X333441Y3000000D01*
X352854Y3004404D01*
X372025Y3009764D01*
X390906Y3016068D01*
X409453Y3023300D01*
X427618Y3031442D01*
X445357Y3040474D01*
X462626Y3050374D01*
X479384Y3061118D01*
X495589Y3072679D01*
X511201Y3085028D01*
X526182Y3098137D01*
X540495Y3111971D01*
X554105Y3126498D01*
X566978Y3141682D01*
X579083Y3157484D01*
X590390Y3173868D01*
X600871Y3190791D01*
X610501Y3208213D01*
X619256Y3226091D01*
X627113Y3244381D01*
X631209Y3255041D01*
X254329Y2992131D02*
X252299D01*
X3829309Y555121D02*
X3488189D01*
Y775591D01*
X3829309D01*
Y555121D01*
X464569Y473211D02*
X218319D01*
Y623801D01*
X464569D01*
Y473211D01*
X3141199Y1182351D02*
X3050469Y1259161D01*
X3146599Y1372251D01*
X3237109Y1295591D01*
X3141199Y1182331D01*
X3140989Y1182511D01*
X3141199Y1182351D01*
X1729399Y2373281D02*
X1645269Y2444521D01*
X1740519Y2558331D01*
X1824649Y2487091D01*
X1729399Y2373281D01*
X1487209Y1067661D02*
X1287399D01*
Y1731471D01*
X1187219Y1945301D01*
Y2563001D01*
X1143489D01*
Y1944011D01*
X1247609Y1708201D01*
Y909451D01*
X1287399D01*
Y1023631D01*
X1487209D01*
Y1067661D01*
G54D19*
X582989Y277344D02*
Y242344D01*
X520989Y277344D02*
Y242344D01*
X360989Y277344D02*
Y242344D01*
X298989Y277344D02*
Y242344D01*
G54D20*
X2356059Y249274D02*
Y239274D01*
X2713059Y249274D02*
Y239274D01*
G54D18*
X2371310Y2526899D02*
X2339768Y2525311D01*
X2334678Y2597931D01*
X2366190Y2599521D01*
X2371310Y2526899D01*
G54D21*
X3578776Y2141778D03*
G54D21*
Y2710514D03*
G54D21*
X3786776Y2748644D03*
G54D21*
X3835231D03*
G54D21*
X3786806Y2839758D03*
G54D21*
X3578776Y2879978D03*
G54D21*
X1460726Y224124D03*
G54D21*
X1609391D03*
G54D21*
X3813521Y570908D03*
G54D21*
X3503976D03*
G54D21*
Y759804D03*
G54D21*
X3813521D03*
G54D21*
X3139362Y1204591D03*
G54D21*
X3072743Y1260989D03*
G54D21*
X3148421Y1350019D03*
G54D21*
X3214860Y1293747D03*
G54D21*
X1727483Y2395590D03*
G54D21*
X1667450Y2446426D03*
G54D21*
X1742435Y2536022D03*
G54D21*
X1802468Y2485186D03*
G54D21*
X448781Y488998D03*
G54D21*
X234106D03*
G54D21*
Y608014D03*
G54D21*
X448781D03*
G54D22*
X1178902Y2554495D03*
G54D22*
X1152117Y2554162D03*
G54D22*
X1477938Y1033090D03*
G54D22*
X1477862Y1058445D03*
G54D23*
X1159331Y2557161D02*
X1170140Y2556434D01*
X1169724Y2551237D02*
X1157865D01*
X1480974Y1055020D02*
Y1041800D01*
X1473934Y1052003D02*
Y1037140D01*
G54D10*
X2375509Y5767372D02*
X2297439Y5757092D01*
%LPC*%
G75*
X2297439Y5757092D02*
G54D11*
X635685Y6175890D02*
X649938Y6168387D01*
G54D12*
X2193639Y3293792D02*
X2156799D01*
X2133639D02*
X2096799D01*
X1841479D02*
X1804639D01*
X1901479D02*
X1864639D01*
G54D13*
X1981674Y3293507D02*
X1932544D01*
G54D14*
X1772735Y3374341D02*
X1767975Y3376855D01*
G54D15*
X2170073Y6132068D02*
Y6231796D01*
%LPD*%
G75*
X2170073Y6231796D02*
G54D16*
X3897639Y3484262D03*
G54D17*
Y3366151D03*
G54D16*
X2401579Y6102372D03*
G54D17*
Y6220482D03*
G54D17*
X236219Y3405521D03*
G54D16*
X118110D03*
G54D18*
X252299Y6063002D02*
X247927Y6062510D01*
X243774Y6061061D01*
X240046Y6058725D01*
X236930Y6055620D01*
X234581Y6051900D01*
X233116Y6047752D01*
X232939Y6046902D01*
X21529Y5886642D02*
X35443Y5885871D01*
X49377Y5886087D01*
X63261Y5887289D01*
X77025Y5889469D01*
X90601Y5892618D01*
X103919Y5896719D01*
X116914Y5901753D01*
X129521Y5907693D01*
X141675Y5914510D01*
X153317Y5922170D01*
X164388Y5930634D01*
X174832Y5939860D01*
X184597Y5949803D01*
X193634Y5960411D01*
X201899Y5971632D01*
X209348Y5983409D01*
X215946Y5995684D01*
X221659Y6008395D01*
X226458Y6021479D01*
X230319Y6034869D01*
X232919Y6046812D01*
X21469Y5886652D02*
X21479D01*
X21469D02*
X17071Y5886559D01*
X12804Y5885491D01*
X8880Y5883503D01*
X5496Y5880693D01*
X2820Y5877202D01*
X986Y5873204D01*
X86Y5868899D01*
X-1Y5867052D01*
Y3287412D01*
X490Y3283040D01*
X1940Y3278887D01*
X4276Y3275159D01*
X7381Y3272043D01*
X11100Y3269694D01*
X15248Y3268229D01*
X19618Y3267722D01*
X19689Y3267722D01*
X614219D01*
X620426Y3268215D01*
X626478Y3269681D01*
X632223Y3272083D01*
X637517Y3275361D01*
X642059Y3279262D01*
X929569Y3566762D01*
X967609D01*
X1255119Y3279262D01*
X1259855Y3275219D01*
X1265169Y3271974D01*
X1270928Y3269607D01*
X1276989Y3268178D01*
X1282959Y3267722D01*
X1444939D01*
Y3310782D01*
X1625179D01*
Y3267722D01*
X2732789D01*
X2738996Y3268215D01*
X2745048Y3269681D01*
X2750793Y3272083D01*
X2756087Y3275361D01*
X2760629Y3279262D01*
X3048139Y3566762D01*
X3086179D01*
X3373689Y3279262D01*
X3378425Y3275219D01*
X3383739Y3271974D01*
X3389498Y3269607D01*
X3395559Y3268178D01*
X3401529Y3267722D01*
X3996059D01*
X4000430Y3268213D01*
X4004584Y3269663D01*
X4008312Y3271999D01*
X4011428Y3275104D01*
X4013777Y3278823D01*
X4015242Y3282971D01*
X4015749Y3287341D01*
X4015749Y3287412D01*
Y5177172D01*
X4015257Y5181543D01*
X4013808Y5185697D01*
X4011472Y5189424D01*
X4008367Y5192541D01*
X4004648Y5194890D01*
X4000500Y5196354D01*
X3996130Y5196862D01*
X3996059Y5196862D01*
X3562989D01*
Y5797172D01*
X3770989D01*
Y5835302D01*
X3851019D01*
Y5677172D01*
X3870709Y5657492D01*
X3973109D01*
X3992799Y5677172D01*
Y5875152D01*
X3973109Y5894842D01*
X3771019D01*
Y5935062D01*
X3562989D01*
Y6318912D01*
X3562497Y6323282D01*
X3561048Y6327434D01*
X3558712Y6331161D01*
X3555607Y6334276D01*
X3551888Y6336623D01*
X3547741Y6338086D01*
X3543372Y6338592D01*
X3543309Y6338592D01*
X649609D01*
X645238Y6338102D01*
X641085Y6336653D01*
X637357Y6334319D01*
X634241Y6331214D01*
X631892Y6327496D01*
X631129Y6325702D01*
X254329Y6063002D02*
X274229Y6063495D01*
X294080Y6064973D01*
X313834Y6067434D01*
X333441Y6070870D01*
X352854Y6075274D01*
X372025Y6080635D01*
X390906Y6086938D01*
X409453Y6094170D01*
X427618Y6102312D01*
X445357Y6111344D01*
X462626Y6121245D01*
X479384Y6131988D01*
X495589Y6143549D01*
X511201Y6155899D01*
X526182Y6169007D01*
X540495Y6182842D01*
X554105Y6197369D01*
X566978Y6212552D01*
X579083Y6228355D01*
X590390Y6244738D01*
X600871Y6261662D01*
X610501Y6279084D01*
X619256Y6296962D01*
X627113Y6315251D01*
X631209Y6325912D01*
X254329Y6063002D02*
X252299D01*
X3829309Y3625992D02*
X3488189D01*
Y3846462D01*
X3829309D01*
Y3625992D01*
X464569Y3544082D02*
X218319D01*
Y3694672D01*
X464569D01*
Y3544082D01*
X3141199Y4253222D02*
X3050469Y4330032D01*
X3146599Y4443122D01*
X3237109Y4366462D01*
X3141199Y4253202D01*
X3140989Y4253382D01*
X3141199Y4253222D01*
X1729399Y5444152D02*
X1645269Y5515392D01*
X1740519Y5629202D01*
X1824649Y5557962D01*
X1729399Y5444152D01*
X1487209Y4138532D02*
X1287399D01*
Y4802342D01*
X1187219Y5016172D01*
Y5633872D01*
X1143489D01*
Y5014882D01*
X1247609Y4779072D01*
Y3980322D01*
X1287399D01*
Y4094502D01*
X1487209D01*
Y4138532D01*
G54D19*
X582989Y3348215D02*
Y3313215D01*
X520989Y3348215D02*
Y3313215D01*
X360989Y3348215D02*
Y3313215D01*
X298989Y3348215D02*
Y3313215D01*
G54D20*
X2356059Y3320145D02*
Y3310145D01*
X2713059Y3320145D02*
Y3310145D01*
G54D18*
X2371310Y5597770D02*
X2339768Y5596181D01*
X2334678Y5668801D01*
X2366190Y5670391D01*
X2371310Y5597770D01*
G54D21*
X3578776Y5212649D03*
G54D21*
Y5781384D03*
G54D21*
X3786776Y5819514D03*
G54D21*
X3835231D03*
G54D21*
X3786806Y5910629D03*
G54D21*
X3578776Y5950849D03*
G54D21*
X1460726Y3294994D03*
G54D21*
X1609391D03*
G54D21*
X3813521Y3641779D03*
G54D21*
X3503976D03*
G54D21*
Y3830674D03*
G54D21*
X3813521D03*
G54D21*
X3139362Y4275462D03*
G54D21*
X3072743Y4331860D03*
G54D21*
X3148421Y4420889D03*
G54D21*
X3214860Y4364617D03*
G54D21*
X1727483Y5466461D03*
G54D21*
X1667450Y5517296D03*
G54D21*
X1742435Y5606892D03*
G54D21*
X1802468Y5556057D03*
G54D21*
X448781Y3559869D03*
G54D21*
X234106D03*
G54D21*
Y3678884D03*
G54D21*
X448781D03*
G54D22*
X1178902Y5625366D03*
G54D22*
X1152117Y5625032D03*
G54D22*
X1477938Y4103961D03*
G54D22*
X1477862Y4129316D03*
G54D23*
X1159331Y5628032D02*
X1170140Y5627305D01*
X1169724Y5622108D02*
X1157865D01*
X1480974Y4125891D02*
Y4112671D01*
X1473934Y4122873D02*
Y4108011D01*
G54D24*
X2133859Y6197932D03*
G54D25*
X525589Y4559062D03*
G54D25*
X124019D03*
G54D25*
X1366999Y3354562D03*
G54D25*
X2248689Y3350612D03*
G54D25*
X1586609Y3826782D03*
G54D25*
X1208659Y3606312D03*
G54D25*
X1807089Y4015762D03*
G54D26*
X3940949Y5149612D03*
G54D26*
X1137029Y4783622D03*
G54D26*
X861439D03*
G54D26*
X589909Y5037112D03*
G54D26*
X401759Y5238482D03*
G54D27*
X3152109Y3708552D03*
G54D27*
X3070739Y3766672D03*
G54D27*
X2989359Y3824792D03*
G54D27*
X297239Y5039382D03*
G54D27*
X159449D03*
G54D27*
X297239Y5393712D03*
G54D27*
X159449D03*
G54D27*
X1082599Y5883872D03*
G54D27*
Y6021662D03*
G54D28*
X526419Y5733832D03*
G54D28*
X723269D03*
G54D28*
X623269Y6135012D03*
G54D28*
X1401579Y4015762D03*
G54D28*
Y4212612D03*
G54D28*
X318009Y4769692D03*
G54D28*
X121159D03*
G54D29*
X1578739Y5662942D03*
G54D29*
Y5570942D03*
G54D29*
X1854329Y6214122D03*
G54D29*
Y6122122D03*
G54D30*
X3799209Y4370092D03*
G54D30*
X137799D03*
G54D30*
Y4330722D03*
G54D30*
Y4291352D03*
G54D30*
Y4251982D03*
G54D31*
X1135829Y4188982D03*
G54D31*
X840549D03*
G54D31*
X1135829Y4468512D03*
G54D31*
X840549D03*
G54D26*
X778429Y5310402D03*
G54D26*
X1013779Y5438912D03*
G54D32*
X679999Y5310402D03*
G54D32*
X915359Y5438912D03*
G54D33*
X3898074Y4150942D02*
X3857204D01*
X3898074Y4199942D02*
X3857204D01*
X3898074Y4248942D02*
X3857204D01*
G54D34*
X3769639Y4353942D02*
X3759639D01*
X3768639Y4045942D02*
X3758639D01*
G54D35*
X2586834Y3580992D02*
X2571084D01*
X2586834Y3659732D02*
X2571084D01*
X2586834Y3738472D02*
X2571084D01*
X2586834Y3817212D02*
X2571084D01*
X2586834Y3895952D02*
X2571084D01*
X2823054D02*
X2807304D01*
X2823054Y3817212D02*
X2807304D01*
X2823054Y3738472D02*
X2807304D01*
X2823054Y3659732D02*
X2807304D01*
X2823054Y3580992D02*
X2807304D01*
G54D36*
X3426189Y3391522D02*
Y3356522D01*
X3488189Y3391522D02*
Y3356522D01*
X3648189Y3391522D02*
Y3356522D01*
X3710189Y3391522D02*
Y3356522D01*
X582989Y3352152D02*
Y3317152D01*
X520989Y3352152D02*
Y3317152D01*
X360989Y3352152D02*
Y3317152D01*
X298989Y3352152D02*
Y3317152D01*
G54D37*
X3447429Y3652092D02*
X3400189D01*
X3447429Y3817452D02*
X3400189D01*
G54D38*
X2202869Y4836312D02*
Y4812692D01*
G54D39*
X3133699Y4657122D03*
G54D40*
X3198979Y5820692D02*
X3179299D01*
X3346529Y6283642D02*
X3326849D01*
X3051259Y6283452D02*
X3031579D01*
G54D41*
X3529534Y4657492D02*
X3454724D01*
X3750004D02*
X3675194D01*
G54D42*
X1952759Y6155052D03*
G54D42*
Y6215052D03*
G54D42*
X2192909Y6022132D03*
G54D42*
Y5962132D03*
G54D42*
X2175219Y3312132D03*
G54D42*
X2115219D03*
G54D42*
X2115499Y3390342D03*
G54D42*
X2175499D03*
G54D42*
X1823059Y3312132D03*
G54D42*
X1883059D03*
G54D42*
X1824069Y3390342D03*
G54D42*
X1884069D03*
G54D42*
X1504819Y3353472D03*
G54D42*
X1564819D03*
G54D42*
X2255909Y6022132D03*
G54D42*
Y5962132D03*
G54D33*
X2608059Y3453517D02*
Y3412647D01*
X2559059Y3453517D02*
Y3412647D01*
X2510059Y3453517D02*
Y3412647D01*
X2461059Y3453517D02*
Y3412647D01*
G54D34*
X2356059Y3324082D02*
Y3314082D01*
X2713059Y3324082D02*
Y3314082D01*
G54D43*
X1959609Y3390362D02*
X1954609D01*
X1959609Y3315562D02*
X1954609D01*
X2040609Y3352962D02*
X2035609D01*
X1668109Y3390362D02*
X1663109D01*
X1668109Y3315562D02*
X1663109D01*
X1749109Y3352962D02*
X1744109D01*
G54D44*
X2074859Y6089432D02*
Y6073432D01*
X2192859Y6089432D02*
Y6073432D01*
G54D45*
X307439Y4370087D02*
Y4251976D01*
X137439Y4370087D02*
Y4251976D01*
G54D46*
X1806789Y3625307D02*
Y3585937D01*
X2006789Y3625307D02*
Y3585937D01*
X2206789Y3625307D02*
Y3585937D01*
G54D47*
X1558319Y4326742D03*
G54D47*
Y4200762D03*
G36*
X2999350Y3560682D02*
G02X2999343Y3552713I-3982J-3981D01*
G01X2982723Y3536154D01*
G02X2974743Y3536185I-3974J3988D01*
G01X2945712Y3565306D01*
G02X2945703Y3573288I3967J3996D01*
G01X2962313Y3589858D01*
G02X2970276Y3589847I3976J-3986D01*
G01X2999350Y3560682D01*
G37*
G36*
X2951947Y3513426D02*
G02X2951935Y3505465I-3988J-3974D01*
G01X2935324Y3488904D01*
G02X2926673Y3489606I-4030J3992D01*
G02X2926533Y3489748I3935J4027D01*
G01X2898285Y3518074D01*
G02X2898294Y3526039I3984J3978D01*
G01X2914915Y3542610D01*
G02X2922877Y3542596I3974J-3988D01*
G01X2951947Y3513426D01*
G37*
G36*
X2167989Y6229432D02*
Y6134432D01*
G02X2162359Y6128802I-5630J0D01*
G01X2151489D01*
Y6061432D01*
G02X2145859Y6055802I-5630J0D01*
G01X2121859D01*
G02X2116229Y6061432I0J5630D01*
G01Y6128802D01*
X2105359D01*
G02X2099729Y6134432I0J5630D01*
G01Y6229432D01*
G02X2105359Y6235062I5630J0D01*
G01X2162359D01*
G02X2167989Y6229432I0J-5630D01*
G37*
G54D48*
X314959Y3887802D03*
G54D48*
X393699D03*
G54D48*
X472439D03*
G54D48*
X314959Y3789382D03*
G54D48*
X393699D03*
G54D48*
X472439D03*
G54D17*
X3093419Y4563022D03*
G54D17*
X3172549Y4747652D03*
G54D17*
X2305309Y5629602D03*
G54D17*
X2400069Y5641462D03*
G36*
X3979059Y5149612D02*
G02X3979059Y5149612I-38110J0D01*
G37*
G36*
X3898072Y4182264D02*
G01X3857206D01*
G02X3840924Y4193058I0J17677D01*
G02X3841881Y4194503I957J405D01*
G01X3843378D01*
G02X3843382Y4194587I2039J-41D01*
G01X3842894Y4196872D01*
G02X3843075Y4203832I14312J3109D01*
G01X3843390Y4205297D01*
G02X3843387Y4205381I2036J126D01*
G01X3841881D01*
G02X3840924Y4206825I0J1040D01*
G02X3857206Y4217619I16282J-6884D01*
G01X3898072D01*
G02X3898072Y4182264I1J-17677D01*
G37*
G36*
Y4133264D02*
G01X3857206D01*
G02X3841593Y4142652I0J17677D01*
G02X3842511Y4144179I918J488D01*
G01X3843930D01*
G02X3843932Y4144231I2039J-40D01*
G01X3843258Y4146473D01*
G02X3842767Y4153360I13948J4456D01*
G01X3842974Y4154922D01*
G02X3842967Y4155057I2032J177D01*
G01X3841387Y4155057D01*
G02X3840399Y4156419I0J1039D01*
G02X3857206Y4168619I16807J-5477D01*
G01X3898072D01*
G02X3898072Y4133264I-0J-17677D01*
G37*
G36*
X3908330Y4259398D02*
G02X3898183Y4234322I-10242J-10447D01*
G01X3856251Y4234317D01*
G02X3856633Y4263518I980J14590D01*
G01X3899812Y4263507D01*
G02X3900215Y4263423I-210J-2029D01*
G02X3908330Y4259398I-2146J-14520D01*
G37*
G36*
X3812316Y4311285D02*
G01X3716962D01*
Y4396619D01*
X3812316D01*
Y4311285D01*
G37*
G36*
X3808269Y4006295D02*
X3719009D01*
Y4085551D01*
X3808269D01*
Y4006295D01*
G37*
G36*
X3784174Y4623318D02*
X3641024D01*
Y4691665D01*
X3784174D01*
Y4623318D01*
G37*
G36*
X3755366Y3311374D02*
X3603012D01*
Y3436663D01*
X3755366D01*
Y3311374D01*
G37*
G36*
X3563704Y4623318D02*
X3420554D01*
Y4626452D01*
X3423568Y4626452D01*
G02X3423599Y4626768I2039J-40D01*
G01Y4688525D01*
X3420554D01*
Y4691665D01*
X3563704D01*
Y4623318D01*
G37*
G36*
X3533366Y3311344D02*
X3381012D01*
Y3436699D01*
X3533366D01*
Y3311344D01*
G37*
G36*
X3479636Y3785247D02*
X3367982D01*
Y3849656D01*
X3479636D01*
Y3785247D01*
G37*
G36*
Y3619887D02*
X3367982D01*
Y3684297D01*
X3479636D01*
Y3619887D01*
G37*
G36*
X3346531Y6259311D02*
X3326846D01*
G02X3327335Y6307911I-0J24302D01*
G01X3349067Y6307902D01*
G02X3349599Y6307779I-190J-2031D01*
G02X3346531Y6259311I-3067J-24137D01*
G37*
G36*
X3198981Y5796361D02*
G01X3179296D01*
G02X3179296Y5845023I0J24331D01*
G01X3198981D01*
G02X3198981Y5796361I0J-24331D01*
G37*
G36*
X3203179Y4747652D02*
G02X3203179Y4747652I-30630J0D01*
G37*
G36*
X3186282Y3708552D02*
G02X3186282Y3708552I-34173J0D01*
G37*
G36*
X3161049Y4657113D02*
G02X3161049Y4657113I-27356J0D01*
G37*
G36*
X3124049Y4563022D02*
G02X3124049Y4563022I-30630J0D01*
G37*
G36*
X3104912Y3766672D02*
G02X3104912Y3766672I-34173J0D01*
G37*
G36*
X3075495Y6285625D02*
G02X3051261Y6259121I-24233J-2174D01*
G01X3031566D01*
G02X3033584Y6307675I10J24319D01*
G01X3054677Y6307512D01*
G02X3075495Y6285625I-3420J-24097D01*
G37*
G36*
X3023532Y3824792D02*
G02X3023532Y3824792I-34173J0D01*
G37*
G36*
X2999937Y3556394D02*
G01X2999935Y3551888D01*
G02X2999656Y3550133I-741J-782D01*
G02X2998897Y3549379I-1766J1019D01*
G01X2984167Y3534703D01*
G02X2981611Y3533018I-5419J5438D01*
G02X2981069Y3532791I-1052J1750D01*
G02X2980643Y3532702I-628J1940D01*
G02X2974453Y3533779I-1894J7440D01*
G02X2975097Y3535777I407J971D01*
G01X2976563D01*
X2945275Y3567158D01*
Y3565696D01*
G02X2943278Y3565063I-1025J-233D01*
G02X2944257Y3574736I6401J4238D01*
G01X2959951Y3590393D01*
G02X2961420Y3590391I734J-736D01*
G01X2966685Y3590378D01*
G02X2969407Y3589281I-455J-5054D01*
G01X2998778Y3559835D01*
G02X2999937Y3556394I-3429J-3072D01*
G37*
G36*
X2954297Y3513784D02*
G02X2953393Y3504029I-6338J-4332D01*
G01X2937381Y3488065D01*
G02X2935947Y3488028I-736J734D01*
G02X2935762Y3488083I494J1979D01*
G02X2935658Y3488107I180J1024D01*
G01X2931255D01*
G02X2930617Y3488209I0J2039D01*
G02X2927410Y3490281I678J4567D01*
G01X2898664Y3519146D01*
G02X2897692Y3521352I3604J2906D01*
G02X2897587Y3521999I1934J647D01*
G01Y3526257D01*
G02X2897551Y3526538I2000J398D01*
G02X2897507Y3526675I1921J686D01*
G02X2897514Y3528152I735J735D01*
G01X2913520Y3544109D01*
G02X2923363Y3544860I5369J-5488D01*
G02X2922695Y3542881I-448J-951D01*
G01X2921181D01*
X2952305Y3511650D01*
Y3513137D01*
G02X2954297Y3513784I1025J235D01*
G37*
G36*
X2823053Y3867684D02*
G01X2807305D01*
G02X2807305Y3924219I0J28268D01*
G01X2823053D01*
G02X2823053Y3867684I0J-28268D01*
G37*
G36*
Y3788944D02*
G01X2807305D01*
G02X2807305Y3845480I0J28268D01*
G01X2823053D01*
G02X2823053Y3788944I0J-28268D01*
G37*
G36*
Y3710204D02*
G01X2807305D01*
G02X2807305Y3766739I0J28268D01*
G01X2823053D01*
G02X2823053Y3710204I0J-28268D01*
G37*
G36*
Y3631464D02*
G01X2807305D01*
G02X2807305Y3688000I0J28268D01*
G01X2823053D01*
G02X2823053Y3631464I0J-28268D01*
G37*
G36*
Y3552724D02*
G01X2807305D01*
G02X2807305Y3609260I0J28268D01*
G01X2823053D01*
G02X2823053Y3552724I0J-28268D01*
G37*
G36*
X2755736Y3305619D02*
G01Y3271404D01*
X2670382D01*
Y3296360D01*
X2673429D01*
X2673398Y3350625D01*
X2670382Y3350626D01*
Y3365719D01*
G02X2671421Y3366759I1039J0D01*
G01X2735096D01*
G02X2735825Y3364979I0J-1039D01*
G01X2734608Y3363763D01*
G02X2734722Y3363746I-95J-1035D01*
G01X2751649Y3363736D01*
G02X2751919Y3363700I0J-1039D01*
G01X2752689D01*
Y3305082D01*
X2753956Y3306349D01*
G02X2755736Y3305619I740J-730D01*
G37*
G36*
X2622692Y3453550D02*
G01X2622691Y3412875D01*
G02X2593427Y3413033I-14633J-209D01*
G01X2593426Y3453306D01*
G02X2622689Y3453826I14632J230D01*
G02X2622692Y3453550I-14631J-289D01*
G37*
G36*
X2586833Y3788944D02*
G01X2571085D01*
G02X2571085Y3845480I0J28268D01*
G01X2586833D01*
G02X2586833Y3788944I0J-28268D01*
G37*
G36*
Y3631464D02*
G01X2571085D01*
G02X2571085Y3688000I0J28268D01*
G01X2586833D01*
G02X2586833Y3631464I0J-28268D01*
G37*
G36*
X2586833Y3552724D02*
G01X2571085D01*
G02X2571085Y3609260I0J28268D01*
G01X2586834D01*
G02X2586833Y3552724I-2J-28268D01*
G37*
G36*
X2586833Y3710204D02*
G01X2571085D01*
G02X2571219Y3766730I0J28263D01*
G01X2588082Y3766712D01*
G02X2586833Y3710204I-1250J-28240D01*
G37*
G36*
X2612608Y3907559D02*
G02X2586701Y3867703I-25769J-11598D01*
G01X2571219D01*
G02X2572289Y3924177I-120J28250D01*
G01X2588190Y3924175D01*
G02X2588472Y3924144I-85J-2038D01*
G02X2612513Y3907726I-1647J-28222D01*
G02X2612608Y3907559I-853J-594D01*
G37*
G36*
X2576736Y3453515D02*
G01Y3412649D01*
G02X2541382Y3412649I-17677J0D01*
G01Y3453515D01*
G02X2551405Y3469449I17677J-0D01*
G02X2552376Y3469411I450J-937D01*
G01X2553041Y3469031D01*
G02X2553573Y3468124I-508J-907D01*
G01X2553574Y3467591D01*
G02X2553602Y3467344I-2008J-356D01*
G01X2555946Y3467850D01*
G02X2562115Y3467850I3085J-14313D01*
G01X2564508Y3467325D01*
G02X2564539Y3467604I2038J-87D01*
G01Y3468122D01*
G02X2565096Y3469043I1039J-0D01*
G01X2565741Y3469412D01*
G02X2566712Y3469449I521J-899D01*
G02X2575712Y3459443I-7653J-15934D01*
G02X2576736Y3453515I-16654J-5928D01*
G37*
G36*
X2527736D02*
G01Y3412649D01*
G02X2492382Y3412649I-17677J0D01*
G01Y3453515D01*
G02X2498198Y3466622I17677J-0D01*
G02X2499502Y3466701I701J-768D01*
G01X2501374Y3465367D01*
G02X2516313Y3466825I8718J-12063D01*
G02X2516454Y3466942I1372J-1509D01*
G01X2517811Y3468477D01*
G02X2519129Y3468688I785J-682D01*
G02X2526956Y3458709I-9070J-15173D01*
G02X2527736Y3453515I-16897J-5194D01*
G37*
G36*
X2478736Y3453515D02*
G01Y3412649D01*
G02X2443382Y3412649I-17677J0D01*
G01Y3453515D01*
G02X2458147Y3470950I17677J0D01*
G02X2459065Y3469192I183J-1023D01*
G01X2458432Y3468559D01*
X2462532Y3468134D01*
G02X2473037Y3462077I-1435J-14626D01*
G01X2474273Y3463316D01*
G02X2475886Y3463141I736J-734D01*
G02X2478075Y3458304I-14827J-9626D01*
G02X2478736Y3453515I-17016J-4789D01*
G37*
G36*
X2430699Y5641462D02*
G02X2430699Y5641462I-30630J0D01*
G37*
G36*
X2398736Y3351507D02*
G01X2395689Y3351471D01*
Y3296360D01*
X2398736D01*
Y3271404D01*
X2313382D01*
Y3366759D01*
X2398736D01*
Y3351507D01*
G37*
G36*
X2335939Y5629602D02*
G02X2335939Y5629602I-30630J0D01*
G37*
G36*
X2281205Y3353852D02*
G02X2216707Y3343905I-32516J-3240D01*
G02X2217725Y3345159I1018J214D01*
G01X2219448Y3345162D01*
G02X2219457Y3345315I2039J-46D01*
G01X2219235Y3347333D01*
G02X2219287Y3354294I29452J3261D01*
G01X2219464Y3355884D01*
G02X2219455Y3356035I2030J198D01*
G01X2217719Y3356038D01*
G02X2216701Y3357291I0J1040D01*
G02X2268324Y3376732I31987J-6678D01*
G02X2268381Y3375116I-625J-831D01*
G01X2267052Y3373956D01*
X2270848Y3370240D01*
X2274286Y3365705D01*
X2275598Y3366853D01*
G02X2277196Y3366584I691J-776D01*
G02X2281160Y3354275I-28508J-15973D01*
G02X2281205Y3353852I-1994J-426D01*
G37*
G36*
X2274585Y6036968D02*
G01X2273800D01*
G02X2273520Y6036937I-254J1008D01*
G01X2271569D01*
G02X2271539Y6036651I-2038J71D01*
G01Y6006488D01*
X2240279D01*
Y6036968D01*
X2237233D01*
Y6040808D01*
X2274585D01*
Y6036968D01*
G37*
G36*
X2271539Y5946522D02*
X2240279D01*
Y5977756D01*
X2271539D01*
Y5946522D01*
G37*
G36*
X2258678Y3625593D02*
X2258644Y3585367D01*
G02X2258624Y3585166I-8007J717D01*
G01X2258320Y3581884D01*
X2258411Y3580674D01*
G02X2154952Y3585705I-51596J5262D01*
G01X2154900Y3625573D01*
G02X2258678Y3625593I51889J-267D01*
G37*
G36*
X2225231Y4790328D02*
G01X2180506D01*
Y4858675D01*
X2225231D01*
Y4790328D01*
G37*
G36*
X2212534Y6053754D02*
X2210210D01*
Y6056811D01*
X2175608D01*
Y6053754D01*
X2173184D01*
Y6109109D01*
X2212534D01*
Y6053754D01*
G37*
G36*
X2208539Y6006516D02*
X2207720D01*
G02X2207499Y6006493I-220J1016D01*
G01X2190683Y6006471D01*
G03X2188741Y6004500I18J-1960D01*
G02X2187696Y6003455I-1039J-6D01*
G01X2175272D01*
G02X2174233Y6004495I0J1039D01*
G01X2174233Y6037016D01*
G02X2175651Y6037784I1039J-226D01*
G01X2207499D01*
G02X2208494Y6037047I0J-1039D01*
G01X2208539D01*
Y6006516D01*
G37*
G36*
Y5946522D02*
X2177279D01*
Y5977756D01*
X2208539D01*
Y5946522D01*
G37*
G36*
X2194175Y3371665D02*
X2180985D01*
Y3374730D01*
X2170013D01*
Y3371665D01*
X2156823D01*
Y3409018D01*
X2194175D01*
Y3371665D01*
G37*
G36*
X2193895Y3293455D02*
X2156543D01*
Y3330808D01*
X2170013D01*
Y3327773D01*
X2180985D01*
Y3330808D01*
X2193895D01*
Y3293455D01*
G37*
G36*
X2170036Y6229432D02*
Y6134432D01*
G02X2162359Y6126755I-7677J0D01*
G01X2153536D01*
Y6061432D01*
G02X2145859Y6053755I-7677J0D01*
G01X2121859D01*
G02X2114182Y6061432I0J7677D01*
G01Y6126755D01*
X2105359D01*
G02X2097682Y6134432I0J7677D01*
G01Y6156617D01*
X2100698Y6156632D01*
G02X2100735Y6156967I2039J-54D01*
G01X2100743Y6229817D01*
G02X2100784Y6230164I2038J-68D01*
G02X2101028Y6231094I2039J-39D01*
G01X2101546Y6233131D01*
X2100717D01*
G02X2099983Y6234912I-6J1039D01*
G02X2105359Y6237109I5376J-5480D01*
G01X2162359D01*
G02X2170029Y6229749I0J-7677D01*
G02X2170036Y6229432I-7670J-316D01*
G37*
G36*
X2133895Y3329769D02*
G01Y3293455D01*
X2096543D01*
Y3320537D01*
G02X2098317Y3321281I1039J9D01*
G01X2099585Y3320013D01*
X2099587Y3326721D01*
G02X2100627Y3327794I1056J18D01*
G01X2107286Y3327826D01*
X2106084Y3329028D01*
G02X2106814Y3330808I730J740D01*
G01X2132856D01*
G02X2133895Y3329769I0J-1039D01*
G37*
G36*
X2131129Y3374730D02*
G01X2099869D01*
Y3405964D01*
X2131129D01*
Y3374730D01*
G37*
G36*
X2091489Y6056811D02*
X2058229D01*
Y6106085D01*
X2091489D01*
Y6056811D01*
G37*
G36*
X2063286Y3354296D02*
X2060239Y3354296D01*
X2060270Y3343361D01*
X2063286Y3343347D01*
Y3330284D01*
X2012932D01*
Y3375639D01*
X2063286D01*
Y3354296D01*
G37*
G36*
X2058679Y3625307D02*
Y3585937D01*
G02X1954899Y3585937I-51890J-0D01*
G01Y3625307D01*
G02X2057811Y3634757I51890J0D01*
G02X2058679Y3625307I-51022J-9451D01*
G37*
G36*
X1982286Y3367684D02*
G01X1931932D01*
Y3384877D01*
X1934979D01*
Y3395818D01*
X1931932D01*
Y3413039D01*
X1982286D01*
Y3367684D01*
G37*
G36*
Y3331403D02*
Y3292884D01*
X1931932D01*
Y3308116D01*
X1934979D01*
Y3323038D01*
X1931932D01*
Y3337200D01*
G02X1932971Y3338239I1039J0D01*
G01X1963987D01*
G02X1964791Y3336537I3J-1039D01*
G01X1963694Y3335212D01*
G02X1963813Y3335195I-86J-1036D01*
G01X1978201Y3335184D01*
G02X1979242Y3334112I1J-1040D01*
G01X1979244Y3330612D01*
X1980444Y3332064D01*
G02X1982286Y3331403I803J-660D01*
G37*
G36*
X1970219Y6171861D02*
G01X1968465Y6170526D01*
G02X1968389Y6170423I-1676J1162D01*
G01Y6139419D01*
X1937129D01*
Y6170104D01*
G02X1937101Y6170304I2003J384D01*
G01X1935177D01*
G02X1934083Y6171342I-55J1038D01*
G01Y6172688D01*
G02X1935122Y6173728I1039J0D01*
G01X1969587D01*
G02X1970219Y6171861I3J-1039D01*
G37*
G36*
X1968389Y6199447D02*
G01X1937129D01*
Y6230681D01*
X1968389D01*
Y6199447D01*
G37*
G36*
X1902745Y3395818D02*
X1899699D01*
Y3384877D01*
X1902745D01*
Y3371665D01*
X1865393D01*
Y3409018D01*
X1902745D01*
Y3395818D01*
G37*
G36*
X1901735Y3323038D02*
X1898689D01*
Y3308116D01*
X1901735D01*
Y3293455D01*
X1864383D01*
Y3330808D01*
X1901735D01*
Y3323038D01*
G37*
G36*
X1878959Y6189494D02*
X1829699D01*
Y6238767D01*
X1878959D01*
Y6189494D01*
G37*
G36*
Y6097493D02*
X1829699D01*
Y6146767D01*
X1878959D01*
Y6097493D01*
G37*
G36*
X1858640Y3585342D02*
X1858319Y3581871D01*
X1858394Y3580512D01*
G02X1754915Y3585803I-51598J5421D01*
G01X1754925Y3626832D01*
G02X1858580Y3629231I51891J-1540D01*
G01X1858586Y3586394D01*
G02X1858674Y3585781I-1952J-592D01*
G02X1858640Y3585342I-2039J-64D01*
G37*
G36*
X1842745Y3371665D02*
G01X1829555D01*
Y3374730D01*
X1818583D01*
Y3371665D01*
X1805393D01*
Y3409018D01*
X1842745D01*
Y3371665D01*
G37*
G36*
X1841735Y3293455D02*
X1804383D01*
Y3330808D01*
X1818583D01*
Y3327773D01*
X1829555D01*
Y3330808D01*
X1841735D01*
Y3293455D01*
G37*
G36*
X1836822Y4016034D02*
G02X1831347Y3998496I-29745J-338D01*
G01X1832893Y3998496D01*
G02X1833741Y3996854I0J-1040D01*
G02X1780437Y3996854I-26652J18907D01*
G02X1781296Y3998495I848J601D01*
G01X1782774D01*
G02X1782848Y3998512I479J-1983D01*
G02X1782923Y4032994I24239J17188D01*
G02X1782827Y4033012I328J2013D01*
G01X1781273D01*
G02X1780431Y4034661I0J1039D01*
G02X1833734Y4034678I26658J-18900D01*
G02X1832867Y4033013I-830J-627D01*
G01X1831383D01*
G02X1831300Y4032996I-449J1989D01*
G02X1836822Y4016034I-24210J-17261D01*
G37*
G36*
X1771786Y3357222D02*
G01X1768770Y3357218D01*
G02X1768739Y3356906I-2039J44D01*
G01X1768770Y3346343D01*
X1771786Y3346338D01*
Y3330284D01*
X1721432D01*
Y3375639D01*
X1771786D01*
Y3357222D01*
G37*
G36*
X1690786Y3367684D02*
X1640432D01*
Y3384897D01*
X1643448Y3384916D01*
G02X1643479Y3385213I2039J-58D01*
G01Y3395787D01*
X1640432D01*
Y3413039D01*
X1690786D01*
Y3367684D01*
G37*
G36*
X1687739Y3295917D02*
X1643479D01*
Y3335175D01*
X1687739D01*
Y3295917D01*
G37*
G36*
X1616232Y3826776D02*
G02X1616232Y3826776I-29623J0D01*
G37*
G36*
X1603369Y5638298D02*
G01X1554109D01*
Y5687571D01*
X1603369D01*
Y5638298D01*
G37*
G36*
Y5546297D02*
X1554109D01*
Y5595571D01*
X1603369D01*
Y5546297D01*
G37*
G36*
X1588555Y4296505D02*
X1528082D01*
Y4302425D01*
X1531098Y4302430D01*
G02X1531129Y4302741I2039J-44D01*
G01Y4353902D01*
X1585509D01*
Y4302750D01*
G02X1585538Y4302490I-2007J-361D01*
G01X1587501D01*
G02X1587878Y4302425I15J-1039D01*
G01X1588555D01*
Y4296505D01*
G37*
G36*
Y4170525D02*
X1528082D01*
Y4179568D01*
X1531129Y4179569D01*
Y4221990D01*
X1528082D01*
Y4230998D01*
X1588555D01*
Y4170525D01*
G37*
G36*
X1583495Y3358914D02*
X1580479Y3358889D01*
G02X1580449Y3358597I-2038J63D01*
G01Y3348021D01*
X1583495D01*
Y3334795D01*
X1546143D01*
Y3372148D01*
X1583495D01*
Y3358914D01*
G37*
G36*
X1523495Y3334795D02*
X1486143D01*
Y3348021D01*
X1489189D01*
Y3358899D01*
X1486143D01*
Y3371108D01*
G02X1487182Y3372148I1039J0D01*
G01X1498765D01*
G02X1499803Y3371058I0J-1039D01*
G01Y3369077D01*
X1510775D01*
Y3372148D01*
X1523495D01*
Y3334795D01*
G37*
G36*
X1443626Y4212612D02*
G02X1443626Y4212612I-42047J0D01*
G37*
G36*
Y4015762D02*
G02X1443626Y4015762I-42047J0D01*
G37*
G36*
X1399200Y3360120D02*
G02X1398176Y3358899I-1024J-181D01*
G01X1396385D01*
X1396440Y3350416D01*
G02X1396276Y3349855I-1039J-0D01*
G02X1396234Y3349689I-1996J417D01*
G01X1395989Y3348021D01*
X1397715D01*
G02X1398722Y3346724I0J-1039D01*
G02X1398963Y3361350I-31723J7838D01*
G02X1399200Y3360120I-31964J-6788D01*
G37*
G36*
X1238296Y3606294D02*
G02X1238296Y3606294I-29637J0D01*
G37*
G36*
X1197560Y4188979D02*
G02X1197560Y4188979I-61731J0D01*
G37*
G36*
X1197560Y4468515D02*
G02X1197560Y4468515I-61731J0D01*
G37*
G36*
X1175131Y4783633D02*
G02X1175131Y4783633I-38102J0D01*
G37*
G36*
X1116772Y5883872D02*
G02X1116772Y5883872I-34173J0D01*
G37*
G36*
X1116763Y6021669D02*
G02X1116763Y6021669I-34164J0D01*
G37*
G36*
X1051889Y5438912D02*
G02X1051889Y5438912I-38110J0D01*
G37*
G36*
X951501D02*
G02X951501Y5438912I-36142J0D01*
G37*
G36*
X902281Y4468512D02*
G02X902281Y4468512I-61732J0D01*
G37*
G36*
Y4188982D02*
G02X902281Y4188982I-61732J0D01*
G37*
G36*
X899549Y4783622D02*
G02X899549Y4783622I-38110J0D01*
G37*
G36*
X816539Y5310402D02*
G02X816539Y5310402I-38110J0D01*
G37*
G36*
X765316Y5733832D02*
G02X765316Y5733832I-42047J0D01*
G37*
G36*
X716141Y5310402D02*
G02X716141Y5310402I-36142J0D01*
G37*
G36*
X665316Y6135012D02*
G02X665316Y6135012I-42047J0D01*
G37*
G36*
X628166Y3271974D02*
G01X475812D01*
Y3397329D01*
X628166D01*
Y3271974D01*
G37*
G36*
X628019Y5037112D02*
G02X628019Y5037112I-38110J0D01*
G37*
G36*
X568466Y5733832D02*
G02X568466Y5733832I-42047J0D01*
G37*
G36*
X558266Y4559062D02*
G02X558266Y4559062I-32677J0D01*
G37*
G36*
X499132Y3887802D02*
G02X499132Y3887802I-26693J0D01*
G37*
G36*
Y3789382D02*
G02X499132Y3789382I-26693J0D01*
G37*
G36*
X439869Y5238482D02*
G02X439869Y5238482I-38110J0D01*
G37*
G36*
X420392Y3887802D02*
G02X420392Y3887802I-26693J0D01*
G37*
G36*
Y3789382D02*
G02X420392Y3789382I-26693J0D01*
G37*
G36*
X406166Y3271974D02*
G01X253812D01*
Y3397329D01*
X406166D01*
Y3271974D01*
G37*
G36*
X360056Y4769692D02*
G02X360056Y4769692I-42047J0D01*
G37*
G36*
X346439Y4411080D02*
G01X346439Y4213030D01*
X345626D01*
G02X345399Y4213005I-227J1015D01*
G01X324645Y4213002D01*
G02X324507Y4212984I-203J1019D01*
G02X324429Y4212502I-2038J85D01*
G01X324253Y4210863D01*
G02X323219Y4209929I-1034J106D01*
G01X266431D01*
G02X265391Y4210969I0J1039D01*
G01Y4219591D01*
X266214D01*
G02X266431Y4219614I217J-1017D01*
G01X268409Y4219630D01*
G02X268439Y4219909I2038J-79D01*
G01X268407Y4406418D01*
X265391Y4406440D01*
Y4411095D01*
G02X266431Y4412134I1039J0D01*
G01X345400D01*
G02X346439Y4411080I0J-1039D01*
G37*
G36*
X341652Y3887802D02*
G02X341652Y3887802I-26693J0D01*
G37*
G36*
Y3789382D02*
G02X341652Y3789382I-26693J0D01*
G37*
G36*
X331412Y5393712D02*
G02X331412Y5393712I-34173J0D01*
G37*
G36*
Y5039382D02*
G02X331412Y5039382I-34173J0D01*
G37*
G36*
X193619Y5039376D02*
G02X193619Y5039376I-34170J0D01*
G37*
G36*
X193613Y5393713D02*
G02X193613Y5393713I-34164J0D01*
G37*
G36*
X179486Y4209953D02*
G01X95391D01*
Y4412126D01*
X179486D01*
Y4209953D01*
G37*
G36*
X163203Y4769686D02*
G02X163203Y4769686I-42044J0D01*
G37*
G36*
X156688Y4559052D02*
G02X156688Y4559052I-32669J0D01*
G37*
G54D10*
X2375509Y5767372D02*
G01X2297439Y5757092D01*
%LPC*%
G75*
X2297439Y5757092D02*
G54D11*
X635685Y6175890D02*
X649938Y6168387D01*
G54D12*
X2193639Y3293792D02*
X2156799D01*
X2133639D02*
X2096799D01*
X1841479D02*
X1804639D01*
X1901479D02*
X1864639D01*
G54D13*
X1981674Y3293507D02*
X1932544D01*
G54D14*
X1772735Y3374341D02*
X1767975Y3376855D01*
G54D15*
X2170073Y6132068D02*
Y6231796D01*
%LPD*%
G75*
X2170073Y6231796D02*
G54D16*
X3897639Y3484262D03*
G54D17*
Y3366151D03*
G54D16*
X2401579Y6102372D03*
G54D17*
Y6220482D03*
G54D17*
X236219Y3405521D03*
G54D16*
X118110D03*
G54D18*
X252299Y6063002D02*
X247927Y6062510D01*
X243774Y6061061D01*
X240046Y6058725D01*
X236930Y6055620D01*
X234581Y6051900D01*
X233116Y6047752D01*
X232939Y6046902D01*
X21529Y5886642D02*
X35443Y5885871D01*
X49377Y5886087D01*
X63261Y5887289D01*
X77025Y5889469D01*
X90601Y5892618D01*
X103919Y5896719D01*
X116914Y5901753D01*
X129521Y5907693D01*
X141675Y5914510D01*
X153317Y5922170D01*
X164388Y5930634D01*
X174832Y5939860D01*
X184597Y5949803D01*
X193634Y5960411D01*
X201899Y5971632D01*
X209348Y5983409D01*
X215946Y5995684D01*
X221659Y6008395D01*
X226458Y6021479D01*
X230319Y6034869D01*
X232919Y6046812D01*
X21469Y5886652D02*
X21479D01*
X21469D02*
X17071Y5886559D01*
X12804Y5885491D01*
X8880Y5883503D01*
X5496Y5880693D01*
X2820Y5877202D01*
X986Y5873204D01*
X86Y5868899D01*
X-1Y5867052D01*
Y3287412D01*
X490Y3283040D01*
X1940Y3278887D01*
X4276Y3275159D01*
X7381Y3272043D01*
X11100Y3269694D01*
X15248Y3268229D01*
X19618Y3267722D01*
X19689Y3267722D01*
X614219D01*
X620426Y3268215D01*
X626478Y3269681D01*
X632223Y3272083D01*
X637517Y3275361D01*
X642059Y3279262D01*
X929569Y3566762D01*
X967609D01*
X1255119Y3279262D01*
X1259855Y3275219D01*
X1265169Y3271974D01*
X1270928Y3269607D01*
X1276989Y3268178D01*
X1282959Y3267722D01*
X1444939D01*
Y3310782D01*
X1625179D01*
Y3267722D01*
X2732789D01*
X2738996Y3268215D01*
X2745048Y3269681D01*
X2750793Y3272083D01*
X2756087Y3275361D01*
X2760629Y3279262D01*
X3048139Y3566762D01*
X3086179D01*
X3373689Y3279262D01*
X3378425Y3275219D01*
X3383739Y3271974D01*
X3389498Y3269607D01*
X3395559Y3268178D01*
X3401529Y3267722D01*
X3996059D01*
X4000430Y3268213D01*
X4004584Y3269663D01*
X4008312Y3271999D01*
X4011428Y3275104D01*
X4013777Y3278823D01*
X4015242Y3282971D01*
X4015749Y3287341D01*
X4015749Y3287412D01*
Y5177172D01*
X4015257Y5181543D01*
X4013808Y5185697D01*
X4011472Y5189424D01*
X4008367Y5192541D01*
X4004648Y5194890D01*
X4000500Y5196354D01*
X3996130Y5196862D01*
X3996059Y5196862D01*
X3562989D01*
Y5797172D01*
X3770989D01*
Y5835302D01*
X3851019D01*
Y5677172D01*
X3870709Y5657492D01*
X3973109D01*
X3992799Y5677172D01*
Y5875152D01*
X3973109Y5894842D01*
X3771019D01*
Y5935062D01*
X3562989D01*
Y6318912D01*
X3562497Y6323282D01*
X3561048Y6327434D01*
X3558712Y6331161D01*
X3555607Y6334276D01*
X3551888Y6336623D01*
X3547741Y6338086D01*
X3543372Y6338592D01*
X3543309Y6338592D01*
X649609D01*
X645238Y6338102D01*
X641085Y6336653D01*
X637357Y6334319D01*
X634241Y6331214D01*
X631892Y6327496D01*
X631129Y6325702D01*
X254329Y6063002D02*
X274229Y6063495D01*
X294080Y6064973D01*
X313834Y6067434D01*
X333441Y6070870D01*
X352854Y6075274D01*
X372025Y6080635D01*
X390906Y6086938D01*
X409453Y6094170D01*
X427618Y6102312D01*
X445357Y6111344D01*
X462626Y6121245D01*
X479384Y6131988D01*
X495589Y6143549D01*
X511201Y6155899D01*
X526182Y6169007D01*
X540495Y6182842D01*
X554105Y6197369D01*
X566978Y6212552D01*
X579083Y6228355D01*
X590390Y6244738D01*
X600871Y6261662D01*
X610501Y6279084D01*
X619256Y6296962D01*
X627113Y6315251D01*
X631209Y6325912D01*
X254329Y6063002D02*
X252299D01*
X3829309Y3625992D02*
X3488189D01*
Y3846462D01*
X3829309D01*
Y3625992D01*
X464569Y3544082D02*
X218319D01*
Y3694672D01*
X464569D01*
Y3544082D01*
X3141199Y4253222D02*
X3050469Y4330032D01*
X3146599Y4443122D01*
X3237109Y4366462D01*
X3141199Y4253202D01*
X3140989Y4253382D01*
X3141199Y4253222D01*
X1729399Y5444152D02*
X1645269Y5515392D01*
X1740519Y5629202D01*
X1824649Y5557962D01*
X1729399Y5444152D01*
X1487209Y4138532D02*
X1287399D01*
Y4802342D01*
X1187219Y5016172D01*
Y5633872D01*
X1143489D01*
Y5014882D01*
X1247609Y4779072D01*
Y3980322D01*
X1287399D01*
Y4094502D01*
X1487209D01*
Y4138532D01*
G54D19*
X582989Y3348215D02*
Y3313215D01*
X520989Y3348215D02*
Y3313215D01*
X360989Y3348215D02*
Y3313215D01*
X298989Y3348215D02*
Y3313215D01*
G54D20*
X2356059Y3320145D02*
Y3310145D01*
X2713059Y3320145D02*
Y3310145D01*
G54D18*
X2371310Y5597770D02*
X2339768Y5596181D01*
X2334678Y5668801D01*
X2366190Y5670391D01*
X2371310Y5597770D01*
G54D21*
X3578776Y5212649D03*
G54D21*
Y5781384D03*
G54D21*
X3786776Y5819514D03*
G54D21*
X3835231D03*
G54D21*
X3786806Y5910629D03*
G54D21*
X3578776Y5950849D03*
G54D21*
X1460726Y3294994D03*
G54D21*
X1609391D03*
G54D21*
X3813521Y3641779D03*
G54D21*
X3503976D03*
G54D21*
Y3830674D03*
G54D21*
X3813521D03*
G54D21*
X3139362Y4275462D03*
G54D21*
X3072743Y4331860D03*
G54D21*
X3148421Y4420889D03*
G54D21*
X3214860Y4364617D03*
G54D21*
X1727483Y5466461D03*
G54D21*
X1667450Y5517296D03*
G54D21*
X1742435Y5606892D03*
G54D21*
X1802468Y5556057D03*
G54D21*
X448781Y3559869D03*
G54D21*
X234106D03*
G54D21*
Y3678884D03*
G54D21*
X448781D03*
G54D22*
X1178902Y5625366D03*
G54D22*
X1152117Y5625032D03*
G54D22*
X1477938Y4103961D03*
G54D22*
X1477862Y4129316D03*
G54D23*
X1159331Y5628032D02*
X1170140Y5627305D01*
X1169724Y5622108D02*
X1157865D01*
X1480974Y4125891D02*
Y4112671D01*
X1473934Y4122873D02*
Y4108011D01*
G54D10*
X5734727Y768071D02*
X5812797Y778351D01*
%LPC*%
G75*
X5812797Y778351D02*
G54D11*
X7474551Y359553D02*
X7460297Y367056D01*
G54D12*
X5916597Y3241651D02*
X5953437D01*
X5976597D02*
X6013437D01*
X6268757D02*
X6305597D01*
X6208757D02*
X6245597D01*
G54D13*
X6128562Y3241936D02*
X6177692D01*
G54D14*
X6337501Y3161102D02*
X6342261Y3158587D01*
G54D15*
X5940163Y403375D02*
Y303647D01*
%LPD*%
G75*
X5940163Y303647D02*
G54D16*
X4212597Y3051181D03*
G54D17*
Y3169291D03*
G54D16*
X5708657Y433071D03*
G54D17*
Y314961D03*
X7874017Y3129921D03*
G54D16*
X7992126D03*
G54D18*
X7857937Y472441D02*
X7862309Y472932D01*
X7866462Y474382D01*
X7870190Y476718D01*
X7873306Y479823D01*
X7875655Y483542D01*
X7877120Y487690D01*
X7877297Y488541D01*
X8088707Y648801D02*
X8074793Y649571D01*
X8060858Y649355D01*
X8046975Y648154D01*
X8033210Y645974D01*
X8019635Y642825D01*
X8006317Y638724D01*
X7993321Y633690D01*
X7980715Y627750D01*
X7968561Y620933D01*
X7956919Y613273D01*
X7945848Y604809D01*
X7935404Y595582D01*
X7925639Y585640D01*
X7916601Y575032D01*
X7908337Y563811D01*
X7900888Y552034D01*
X7894290Y539759D01*
X7888577Y527048D01*
X7883778Y513964D01*
X7879917Y500574D01*
X7877317Y488631D01*
X8088767Y648791D02*
X8088757D01*
X8088767D02*
X8093165Y648884D01*
X8097432Y649951D01*
X8101355Y651940D01*
X8104740Y654749D01*
X8107415Y658240D01*
X8109249Y662238D01*
X8110150Y666544D01*
X8110237Y668391D01*
Y3248031D01*
X8109746Y3252403D01*
X8108296Y3256556D01*
X8105960Y3260284D01*
X8102855Y3263400D01*
X8099136Y3265749D01*
X8094988Y3267214D01*
X8090618Y3267721D01*
X8090547Y3267721D01*
X7496017D01*
X7489810Y3267228D01*
X7483758Y3265762D01*
X7478013Y3263360D01*
X7472719Y3260082D01*
X7468177Y3256181D01*
X7180667Y2968681D01*
X7142627D01*
X6855117Y3256181D01*
X6850381Y3260224D01*
X6845067Y3263469D01*
X6839307Y3265836D01*
X6833247Y3267265D01*
X6827277Y3267721D01*
X6665297D01*
Y3224661D01*
X6485057D01*
Y3267721D01*
X5377447D01*
X5371240Y3267228D01*
X5365188Y3265762D01*
X5359443Y3263360D01*
X5354149Y3260082D01*
X5349607Y3256181D01*
X5062097Y2968681D01*
X5024057D01*
X4736547Y3256181D01*
X4731811Y3260224D01*
X4726497Y3263469D01*
X4720737Y3265836D01*
X4714677Y3267265D01*
X4708707Y3267721D01*
X4114177D01*
X4109805Y3267230D01*
X4105652Y3265780D01*
X4101924Y3263444D01*
X4098808Y3260339D01*
X4096459Y3256620D01*
X4094994Y3252472D01*
X4094487Y3248102D01*
X4094487Y3248031D01*
Y1358271D01*
X4094978Y1353900D01*
X4096428Y1349746D01*
X4098764Y1346018D01*
X4101869Y1342902D01*
X4105588Y1340553D01*
X4109736Y1339088D01*
X4114106Y1338581D01*
X4114177Y1338581D01*
X4547247D01*
Y738271D01*
X4339247D01*
Y700141D01*
X4259217D01*
Y858271D01*
X4239527Y877951D01*
X4137127D01*
X4117437Y858271D01*
Y660291D01*
X4137127Y640601D01*
X4339217D01*
Y600381D01*
X4547247D01*
Y216531D01*
X4547738Y212161D01*
X4549188Y208008D01*
X4551524Y204282D01*
X4554629Y201167D01*
X4558348Y198819D01*
X4562495Y197356D01*
X4566864Y196851D01*
X4566927Y196851D01*
X7460627D01*
X7464998Y197341D01*
X7469151Y198790D01*
X7472879Y201124D01*
X7475995Y204228D01*
X7478344Y207947D01*
X7479107Y209741D01*
X7855907Y472441D02*
X7836007Y471948D01*
X7816156Y470469D01*
X7796402Y468009D01*
X7776795Y464572D01*
X7757382Y460169D01*
X7738211Y454808D01*
X7719329Y448504D01*
X7700783Y441272D01*
X7682618Y433130D01*
X7664879Y424098D01*
X7647609Y414198D01*
X7630851Y403454D01*
X7614646Y391893D01*
X7599034Y379544D01*
X7584053Y366435D01*
X7569740Y352601D01*
X7556131Y338074D01*
X7543257Y322890D01*
X7531153Y307088D01*
X7519846Y290704D01*
X7509364Y273781D01*
X7499735Y256359D01*
X7490980Y238481D01*
X7483122Y220192D01*
X7479027Y209531D01*
X7855907Y472441D02*
X7857937D01*
X4280927Y2909451D02*
X4622047D01*
Y2688981D01*
X4280927D01*
Y2909451D01*
X7645667Y2991361D02*
X7891917D01*
Y2840771D01*
X7645667D01*
Y2991361D01*
X4969037Y2282221D02*
X5059767Y2205411D01*
X4963637Y2092321D01*
X4873127Y2168981D01*
X4969037Y2282241D01*
X4969247Y2282061D01*
X4969037Y2282221D01*
X6380837Y1091291D02*
X6464967Y1020051D01*
X6369717Y906241D01*
X6285587Y977481D01*
X6380837Y1091291D01*
X6623027Y2396911D02*
X6822837D01*
Y1733101D01*
X6923017Y1519271D01*
Y901571D01*
X6966747D01*
Y1520561D01*
X6862627Y1756371D01*
Y2555121D01*
X6822837D01*
Y2440941D01*
X6623027D01*
Y2396911D01*
G54D19*
X7527247Y3187228D02*
Y3222228D01*
X7589247Y3187228D02*
Y3222228D01*
X7749247Y3187228D02*
Y3222228D01*
X7811247Y3187228D02*
Y3222228D01*
G54D20*
X5754177Y3215298D02*
Y3225298D01*
X5397177Y3215298D02*
Y3225298D01*
G54D18*
X5738926Y937673D02*
X5770468Y939261D01*
X5775558Y866641D01*
X5744046Y865051D01*
X5738926Y937673D01*
G54D21*
X4531460Y1322794D03*
Y754058D03*
X4323460Y715928D03*
X4275004D03*
X4323430Y624814D03*
X4531460Y584594D03*
X6649510Y3240448D03*
X6500844D03*
X4296714Y2893664D03*
X4606260D03*
Y2704768D03*
X4296714D03*
X4970874Y2259981D03*
X5037493Y2203583D03*
X4961815Y2114553D03*
X4895376Y2170825D03*
X6382753Y1068982D03*
X6442786Y1018146D03*
X6367801Y928550D03*
X6307768Y979386D03*
X7661454Y2975574D03*
X7876130D03*
Y2856558D03*
X7661454D03*
G54D22*
X6931334Y910077D03*
X6958119Y910410D03*
X6632298Y2431482D03*
X6632374Y2406127D03*
G54D23*
X6950905Y907411D02*
X6940096Y908138D01*
X6940511Y913335D02*
X6952371D01*
X6629261Y2409552D02*
Y2422772D01*
X6636302Y2412569D02*
Y2427432D01*
G54D24*
X5976377Y337511D03*
G54D25*
X7584647Y1976381D03*
X7986217D03*
X6743237Y3180881D03*
X5861547Y3184831D03*
X6523627Y2708661D03*
X6901577Y2929131D03*
X6303147Y2519681D03*
G54D26*
X4169287Y1385831D03*
X6973207Y1751821D03*
X7248797D03*
X7520327Y1498331D03*
X7708477Y1296961D03*
G54D27*
X4958127Y2826891D03*
X5039497Y2768771D03*
X5120877Y2710651D03*
X7812997Y1496061D03*
X7950787D03*
X7812997Y1141731D03*
X7950787D03*
X7027637Y651571D03*
Y513781D03*
G54D28*
X7583817Y801611D03*
X7386967D03*
X7486967Y400431D03*
X6708657Y2519681D03*
Y2322831D03*
X7792227Y1765751D03*
X7989077D03*
G54D29*
X6531497Y872501D03*
Y964501D03*
X6255907Y321321D03*
Y413321D03*
G54D30*
X4311027Y2165351D03*
X7972437D03*
Y2204721D03*
Y2244091D03*
Y2283461D03*
G54D31*
X6974407Y2346461D03*
X7269687D03*
X6974407Y2066931D03*
X7269687D03*
G54D26*
X7331807Y1225041D03*
X7096457Y1096531D03*
G54D32*
X7430237Y1225041D03*
X7194877Y1096531D03*
G54D33*
X4212162Y2384501D02*
X4253032D01*
X4212162Y2335501D02*
X4253032D01*
X4212162Y2286501D02*
X4253032D01*
G54D34*
X4340597Y2181501D02*
X4350597D01*
X4341597Y2489501D02*
X4351597D01*
G54D35*
X5523402Y2954451D02*
X5539152D01*
X5523402Y2875711D02*
X5539152D01*
X5523402Y2796971D02*
X5539152D01*
X5523402Y2718231D02*
X5539152D01*
X5523402Y2639491D02*
X5539152D01*
X5287182D02*
X5302932D01*
X5287182Y2718231D02*
X5302932D01*
X5287182Y2796971D02*
X5302932D01*
X5287182Y2875711D02*
X5302932D01*
X5287182Y2954451D02*
X5302932D01*
G54D36*
X4684047Y3143921D02*
Y3178921D01*
X4622047Y3143921D02*
Y3178921D01*
X4462047Y3143921D02*
Y3178921D01*
X4400047Y3143921D02*
Y3178921D01*
X7527247Y3183291D02*
Y3218291D01*
X7589247Y3183291D02*
Y3218291D01*
X7749247Y3183291D02*
Y3218291D01*
X7811247Y3183291D02*
Y3218291D01*
G54D37*
X4662807Y2883351D02*
X4710047D01*
X4662807Y2717991D02*
X4710047D01*
G54D38*
X5907367Y1699131D02*
Y1722751D01*
G54D39*
X4976537Y1878321D03*
G54D40*
X4911257Y714751D02*
X4930937D01*
X4763707Y251801D02*
X4783387D01*
X5058977Y251991D02*
X5078657D01*
G54D41*
X4580702Y1877951D02*
X4655512D01*
X4360232D02*
X4435042D01*
G54D42*
X6157477Y380391D03*
Y320391D03*
X5917327Y513311D03*
Y573311D03*
X5935017Y3223311D03*
X5995017D03*
X5994737Y3145101D03*
X5934737D03*
X6287177Y3223311D03*
X6227177D03*
X6286167Y3145101D03*
X6226167D03*
X6605417Y3181971D03*
X6545417D03*
X5854327Y513311D03*
Y573311D03*
G54D33*
X5502177Y3081926D02*
Y3122796D01*
X5551177Y3081926D02*
Y3122796D01*
X5600177Y3081926D02*
Y3122796D01*
X5649177Y3081926D02*
Y3122796D01*
G54D34*
X5754177Y3211361D02*
Y3221361D01*
X5397177Y3211361D02*
Y3221361D01*
G54D43*
X6150627Y3145081D02*
X6155627D01*
X6150627Y3219881D02*
X6155627D01*
X6069627Y3182481D02*
X6074627D01*
X6442127Y3145081D02*
X6447127D01*
X6442127Y3219881D02*
X6447127D01*
X6361127Y3182481D02*
X6366127D01*
G54D44*
X6035377Y446011D02*
Y462011D01*
X5917377Y446011D02*
Y462011D01*
G54D45*
X7802797Y2165356D02*
Y2283467D01*
X7972797Y2165356D02*
Y2283467D01*
G54D46*
X6303447Y2910136D02*
Y2949506D01*
X6103447Y2910136D02*
Y2949506D01*
X5903447Y2910136D02*
Y2949506D01*
G54D47*
X6551917Y2208701D03*
Y2334681D03*
G36*
X5110885Y2974761D02*
G02X5110893Y2982729I3982J3981D01*
G01X5127513Y2999289D01*
G02X5135493Y2999257I3974J-3988D01*
G01X5164524Y2970137D01*
G02X5164533Y2962155I-3967J-3996D01*
G01X5147923Y2945585D01*
G02X5139960Y2945596I-3976J3986D01*
G01X5110885Y2974761D01*
G37*
G36*
X5158289Y3022017D02*
G02X5158301Y3029977I3988J3974D01*
G01X5174912Y3046538D01*
G02X5183563Y3045837I4030J-3992D01*
G02X5183703Y3045695I-3935J-4027D01*
G01X5211951Y3017369D01*
G02X5211942Y3009404I-3984J-3978D01*
G01X5195321Y2992833D01*
G02X5187359Y2992847I-3974J3988D01*
G01X5158289Y3022017D01*
G37*
G36*
X5942247Y306011D02*
Y401011D01*
G02X5947877Y406641I5630J0D01*
G01X5958747D01*
Y474011D01*
G02X5964377Y479641I5630J0D01*
G01X5988377D01*
G02X5994007Y474011I0J-5630D01*
G01Y406641D01*
X6004877D01*
G02X6010507Y401011I0J-5630D01*
G01Y306011D01*
G02X6004877Y300381I-5630J0D01*
G01X5947877D01*
G02X5942247Y306011I0J5630D01*
G37*
G54D48*
X7795277Y2647641D03*
X7716537D03*
X7637797D03*
X7795277Y2746061D03*
X7716537D03*
X7637797D03*
G54D17*
X5016817Y1972421D03*
X4937687Y1787791D03*
X5804927Y905841D03*
X5710167Y893981D03*
G36*
X4131177Y1385831D02*
G02X4131177Y1385831I38110J0D01*
G37*
G36*
X4212164Y2353178D02*
G01X4253030D01*
G02X4269312Y2342385I0J-17677D01*
G02X4268355Y2340940I-957J-405D01*
G01X4266858D01*
G02X4266854Y2340856I-2039J41D01*
G01X4267342Y2338571D01*
G02X4267161Y2331611I-14312J-3109D01*
G01X4266845Y2330146D01*
G02X4266849Y2330062I-2036J-126D01*
G01X4268355D01*
G02X4269312Y2328617I-0J-1040D01*
G02X4253030Y2317824I-16282J6884D01*
G01X4212164D01*
G02X4212164Y2353178I-1J17677D01*
G37*
G36*
Y2402178D02*
G01X4253030D01*
G02X4268643Y2392791I0J-17677D01*
G02X4267725Y2391264I-918J-488D01*
G01X4266306D01*
G02X4266304Y2391212I-2039J40D01*
G01X4266978Y2388970D01*
G02X4267469Y2382082I-13948J-4456D01*
G01X4267262Y2380521D01*
G02X4267269Y2380386I-2032J-177D01*
G01X4268849Y2380385D01*
G02X4269837Y2379024I0J-1039D01*
G02X4253030Y2366824I-16807J5477D01*
G01X4212164D01*
G02X4212164Y2402178I0J17677D01*
G37*
G36*
X4201906Y2276045D02*
G02X4212053Y2301121I10242J10447D01*
G01X4253985Y2301126D01*
G02X4253603Y2271925I-980J-14590D01*
G01X4210424Y2271936D01*
G02X4210021Y2272019I210J2029D01*
G02X4201906Y2276045I2146J14520D01*
G37*
G36*
X4297920Y2224158D02*
G01X4393274D01*
Y2138824D01*
X4297920D01*
Y2224158D01*
G37*
G36*
X4301967Y2529148D02*
X4391227D01*
Y2449892D01*
X4301967D01*
Y2529148D01*
G37*
G36*
X4326062Y1912124D02*
X4469212D01*
Y1843778D01*
X4326062D01*
Y1912124D01*
G37*
G36*
X4354870Y3224068D02*
X4507224D01*
Y3098780D01*
X4354870D01*
Y3224068D01*
G37*
G36*
X4546532Y1912124D02*
X4689682D01*
Y1908991D01*
X4686668Y1908991D01*
G02X4686637Y1908675I-2039J40D01*
G01Y1846918D01*
X4689682D01*
Y1843778D01*
X4546532D01*
Y1912124D01*
G37*
G36*
X4576870Y3224098D02*
X4729224D01*
Y3098744D01*
X4576870D01*
Y3224098D01*
G37*
G36*
X4630600Y2750196D02*
X4742254D01*
Y2685786D01*
X4630600D01*
Y2750196D01*
G37*
G36*
Y2915556D02*
X4742254D01*
Y2851146D01*
X4630600D01*
Y2915556D01*
G37*
G36*
X4763705Y276132D02*
X4783390D01*
G02X4782901Y227532I0J-24302D01*
G01X4761169Y227541D01*
G02X4760637Y227664I190J2031D01*
G02X4763705Y276132I3067J24137D01*
G37*
G36*
X4911255Y739082D02*
G01X4930940D01*
G02X4930940Y690420I0J-24331D01*
G01X4911255D01*
G02X4911255Y739082I0J24331D01*
G37*
G36*
X4907057Y1787791D02*
G02X4907057Y1787791I30630J0D01*
G37*
G36*
X4923954Y2826891D02*
G02X4923954Y2826891I34173J0D01*
G37*
G36*
X4949186Y1878329D02*
G02X4949186Y1878329I27356J0D01*
G37*
G36*
X4986187Y1972421D02*
G02X4986187Y1972421I30630J0D01*
G37*
G36*
X5005324Y2768771D02*
G02X5005324Y2768771I34173J0D01*
G37*
G36*
X5034741Y249817D02*
G02X5058975Y276322I24233J2174D01*
G01X5078670D01*
G02X5076651Y227767I-10J-24319D01*
G01X5055559Y227931D01*
G02X5034741Y249817I3420J24097D01*
G37*
G36*
X5086704Y2710651D02*
G02X5086704Y2710651I34173J0D01*
G37*
G36*
X5110298Y2979048D02*
G01X5110300Y2983555D01*
G02X5110580Y2985309I741J782D01*
G02X5111339Y2986063I1766J-1019D01*
G01X5126068Y3000739D01*
G02X5128625Y3002425I5419J-5438D01*
G02X5129167Y3002652I1052J-1750D01*
G02X5129593Y3002741I628J-1940D01*
G02X5135782Y3001664I1894J-7440D01*
G02X5135139Y2999666I-407J-971D01*
G01X5133673D01*
X5164961Y2968285D01*
Y2969747D01*
G02X5166958Y2970379I1025J233D01*
G02X5165979Y2960706I-6401J-4238D01*
G01X5150285Y2945050D01*
G02X5148816Y2945051I-734J736D01*
G01X5143551Y2945065D01*
G02X5140829Y2946162I455J5054D01*
G01X5111458Y2975608D01*
G02X5110298Y2979048I3429J3072D01*
G37*
G36*
X5155939Y3021658D02*
G02X5156843Y3031414I6338J4332D01*
G01X5172855Y3047378D01*
G02X5174289Y3047415I736J-734D01*
G02X5174474Y3047359I-494J-1979D01*
G02X5174578Y3047336I-180J-1024D01*
G01X5178981D01*
G02X5179619Y3047233I0J-2039D01*
G02X5182826Y3045161I-678J-4567D01*
G01X5211571Y3016297D01*
G02X5212544Y3014091I-3604J-2906D01*
G02X5212649Y3013444I-1934J-647D01*
G01Y3009186D01*
G02X5212685Y3008905I-2000J-398D01*
G02X5212728Y3008768I-1921J-686D01*
G02X5212722Y3007291I-735J-735D01*
G01X5196716Y2991334D01*
G02X5186872Y2990583I-5369J5488D01*
G02X5187541Y2992562I448J951D01*
G01X5189055D01*
X5157931Y3023793D01*
Y3022306D01*
G02X5155939Y3021658I-1025J-235D01*
G37*
G36*
X5287183Y2667759D02*
G01X5302931D01*
G02X5302931Y2611223I0J-28268D01*
G01X5287183D01*
G02X5287183Y2667759I0J28268D01*
G37*
G36*
Y2746499D02*
G01X5302931D01*
G02X5302931Y2689963I0J-28268D01*
G01X5287183D01*
G02X5287183Y2746499I0J28268D01*
G37*
G36*
Y2825239D02*
G01X5302931D01*
G02X5302931Y2768703I0J-28268D01*
G01X5287183D01*
G02X5287183Y2825239I0J28268D01*
G37*
G36*
Y2903979D02*
G01X5302931D01*
G02X5302931Y2847443I0J-28268D01*
G01X5287183D01*
G02X5287183Y2903979I0J28268D01*
G37*
G36*
Y2982719D02*
G01X5302931D01*
G02X5302931Y2926183I0J-28268D01*
G01X5287183D01*
G02X5287183Y2982719I0J28268D01*
G37*
G36*
X5354500Y3229824D02*
G01Y3264038D01*
X5439854D01*
Y3239083D01*
X5436807D01*
X5436838Y3184817D01*
X5439854Y3184816D01*
Y3169723D01*
G02X5438815Y3168684I-1039J0D01*
G01X5375140D01*
G02X5374410Y3170464I0J1039D01*
G01X5375627Y3171680D01*
G02X5375514Y3171696I95J1035D01*
G01X5358586Y3171707D01*
G02X5358317Y3171743I-0J1039D01*
G01X5357547D01*
Y3230360D01*
X5356279Y3229094D01*
G02X5354500Y3229824I-740J730D01*
G37*
G36*
X5487544Y3081892D02*
G01X5487545Y3122567D01*
G02X5516809Y3122410I14633J209D01*
G01X5516809Y3082137D01*
G02X5487546Y3081617I-14632J-230D01*
G02X5487544Y3081892I14631J289D01*
G37*
G36*
X5523403Y2746499D02*
G01X5539151D01*
G02X5539151Y2689963I0J-28268D01*
G01X5523403D01*
G02X5523403Y2746499I0J28268D01*
G37*
G36*
Y2903979D02*
G01X5539151D01*
G02X5539151Y2847443I0J-28268D01*
G01X5523403D01*
G02X5523403Y2903979I0J28268D01*
G37*
G36*
X5523402Y2982719D02*
G01X5539151D01*
G02X5539151Y2926183I0J-28268D01*
G01X5523402D01*
G02X5523402Y2982719I2J28268D01*
G37*
G36*
X5523403Y2825239D02*
G01X5539151D01*
G02X5539017Y2768712I0J-28263D01*
G01X5522153Y2768731D01*
G02X5523403Y2825239I1250J28240D01*
G37*
G36*
X5497628Y2627884D02*
G02X5523535Y2667740I25769J11598D01*
G01X5539017D01*
G02X5537947Y2611266I120J-28250D01*
G01X5522045Y2611267D01*
G02X5521764Y2611299I85J2038D01*
G02X5497723Y2627717I1647J28222D01*
G02X5497628Y2627884I853J594D01*
G37*
G36*
X5533500Y3081928D02*
G01Y3122794D01*
G02X5568854Y3122794I17677J0D01*
G01Y3081928D01*
G02X5558831Y3065994I-17677J0D01*
G02X5557860Y3066031I-450J937D01*
G01X5557195Y3066412D01*
G02X5556663Y3067319I508J907D01*
G01X5556662Y3067852D01*
G02X5556634Y3068098I2008J356D01*
G01X5554289Y3067593D01*
G02X5548121Y3067593I-3085J14313D01*
G01X5545728Y3068117D01*
G02X5545697Y3067839I-2038J87D01*
G01Y3067321D01*
G02X5545140Y3066400I-1039J0D01*
G01X5544495Y3066031D01*
G02X5543524Y3065994I-521J899D01*
G02X5534523Y3076000I7653J15934D01*
G02X5533500Y3081928I16654J5928D01*
G37*
G36*
X5582500D02*
G01Y3122794D01*
G02X5617854Y3122794I17677J0D01*
G01Y3081928D01*
G02X5612038Y3068820I-17677J0D01*
G02X5610734Y3068742I-701J768D01*
G01X5608862Y3070075D01*
G02X5593923Y3068618I-8718J12063D01*
G02X5593781Y3068500I-1372J1509D01*
G01X5592425Y3066965D01*
G02X5591107Y3066755I-785J682D01*
G02X5583280Y3076734I9070J15173D01*
G02X5582500Y3081928I16897J5194D01*
G37*
G36*
X5631500Y3081928D02*
G01Y3122794D01*
G02X5666854Y3122794I17677J0D01*
G01Y3081928D01*
G02X5652089Y3064492I-17677J0D01*
G02X5651171Y3066250I-183J1023D01*
G01X5651804Y3066884D01*
X5647703Y3067309D01*
G02X5637199Y3073365I1435J14626D01*
G01X5635963Y3072126D01*
G02X5634350Y3072302I-736J734D01*
G02X5632161Y3077139I14827J9626D01*
G02X5631500Y3081928I17016J4789D01*
G37*
G36*
X5679537Y893981D02*
G02X5679537Y893981I30630J0D01*
G37*
G36*
X5711500Y3183935D02*
G01X5714547Y3183971D01*
Y3239083D01*
X5711500D01*
Y3264038D01*
X5796854D01*
Y3168684D01*
X5711500D01*
Y3183935D01*
G37*
G36*
X5774297Y905841D02*
G02X5774297Y905841I30630J0D01*
G37*
G36*
X5829031Y3181591D02*
G02X5893529Y3191538I32516J3240D01*
G02X5892511Y3190283I-1018J-214D01*
G01X5890788Y3190281D01*
G02X5890779Y3190128I-2039J46D01*
G01X5891001Y3188110D01*
G02X5890949Y3181149I-29452J-3261D01*
G01X5890772Y3179559D01*
G02X5890781Y3179408I-2030J-198D01*
G01X5892517Y3179405D01*
G02X5893534Y3178152I-0J-1040D01*
G02X5841912Y3158711I-31987J6678D01*
G02X5841855Y3160327I625J831D01*
G01X5843184Y3161487D01*
X5839388Y3165203D01*
X5835950Y3169737D01*
X5834638Y3168590D01*
G02X5833039Y3168858I-691J776D01*
G02X5829076Y3181167I28508J15973D01*
G02X5829031Y3181591I1994J426D01*
G37*
G36*
X5835651Y498475D02*
G01X5836436D01*
G02X5836715Y498506I254J-1008D01*
G01X5838667D01*
G02X5838697Y498792I2038J-71D01*
G01Y528955D01*
X5869957D01*
Y498475D01*
X5873003D01*
Y494635D01*
X5835651D01*
Y498475D01*
G37*
G36*
X5838697Y588920D02*
X5869957D01*
Y557686D01*
X5838697D01*
Y588920D01*
G37*
G36*
X5851558Y2909849D02*
X5851592Y2950076D01*
G02X5851612Y2950277I8007J-717D01*
G01X5851916Y2953558D01*
X5851825Y2954769D01*
G02X5955284Y2949738I51596J-5262D01*
G01X5955336Y2909869D01*
G02X5851558Y2909849I-51889J267D01*
G37*
G36*
X5885005Y1745114D02*
G01X5929729D01*
Y1676768D01*
X5885005D01*
Y1745114D01*
G37*
G36*
X5897702Y481688D02*
X5900026D01*
Y478631D01*
X5934628D01*
Y481688D01*
X5937052D01*
Y426334D01*
X5897702D01*
Y481688D01*
G37*
G36*
X5901697Y528926D02*
X5902516D01*
G02X5902737Y528950I220J-1016D01*
G01X5919553Y528971D01*
G03X5921495Y530942I-18J1960D01*
G02X5922540Y531987I1039J6D01*
G01X5934964D01*
G02X5936003Y530948I0J-1039D01*
G01X5936002Y498427D01*
G02X5934585Y497659I-1039J226D01*
G01X5902737D01*
G02X5901742Y498396I0J1039D01*
G01X5901697D01*
Y528926D01*
G37*
G36*
Y588920D02*
X5932957D01*
Y557686D01*
X5901697D01*
Y588920D01*
G37*
G36*
X5916061Y3163777D02*
X5929251D01*
Y3160713D01*
X5940223D01*
Y3163777D01*
X5953413D01*
Y3126425D01*
X5916061D01*
Y3163777D01*
G37*
G36*
X5916341Y3241987D02*
X5953693D01*
Y3204635D01*
X5940223D01*
Y3207670D01*
X5929251D01*
Y3204635D01*
X5916341D01*
Y3241987D01*
G37*
G36*
X5940200Y306011D02*
Y401011D01*
G02X5947877Y408688I7677J0D01*
G01X5956700D01*
Y474011D01*
G02X5964377Y481688I7677J0D01*
G01X5988377D01*
G02X5996054Y474011I0J-7677D01*
G01Y408688D01*
X6004877D01*
G02X6012554Y401011I0J-7677D01*
G01Y378825D01*
X6009538Y378811D01*
G02X6009501Y378476I-2039J54D01*
G01X6009493Y305625D01*
G02X6009452Y305279I-2038J68D01*
G02X6009207Y304349I-2039J39D01*
G01X6008690Y302312D01*
X6009519D01*
G02X6010253Y300531I6J-1039D01*
G02X6004877Y298334I-5376J5480D01*
G01X5947877D01*
G02X5940206Y305694I0J7677D01*
G02X5940200Y306011I7670J316D01*
G37*
G36*
X5976341Y3205674D02*
G01Y3241987D01*
X6013693D01*
Y3214906D01*
G02X6011919Y3214161I-1039J-9D01*
G01X6010651Y3215430D01*
X6010649Y3208722D01*
G02X6009609Y3207648I-1056J-18D01*
G01X6002950Y3207616D01*
X6004152Y3206414D01*
G02X6003422Y3204635I-730J-740D01*
G01X5977380D01*
G02X5976341Y3205674I0J1039D01*
G37*
G36*
X5979107Y3160713D02*
G01X6010367D01*
Y3129478D01*
X5979107D01*
Y3160713D01*
G37*
G36*
X6018747Y478631D02*
X6052007D01*
Y429358D01*
X6018747D01*
Y478631D01*
G37*
G36*
X6046950Y3181147D02*
X6049997Y3181147D01*
X6049966Y3192082D01*
X6046950Y3192096D01*
Y3205158D01*
X6097304D01*
Y3159804D01*
X6046950D01*
Y3181147D01*
G37*
G36*
X6051557Y2910136D02*
Y2949506D01*
G02X6155337Y2949506I51890J0D01*
G01Y2910136D01*
G02X6052425Y2900685I-51890J0D01*
G02X6051557Y2910136I51022J9451D01*
G37*
G36*
X6127950Y3167758D02*
G01X6178304D01*
Y3150566D01*
X6175257D01*
Y3139625D01*
X6178304D01*
Y3122404D01*
X6127950D01*
Y3167758D01*
G37*
G36*
Y3204039D02*
Y3242558D01*
X6178304D01*
Y3227326D01*
X6175257D01*
Y3212405D01*
X6178304D01*
Y3198243D01*
G02X6177265Y3197204I-1039J0D01*
G01X6146249D01*
G02X6145445Y3198906I-3J1039D01*
G01X6146541Y3200231D01*
G02X6146423Y3200247I86J1036D01*
G01X6132035Y3200258D01*
G02X6130994Y3201331I-1J1040D01*
G01X6130992Y3204831D01*
X6129792Y3203379D01*
G02X6127950Y3204039I-803J660D01*
G37*
G36*
X6140017Y363581D02*
G01X6141771Y364917D01*
G02X6141847Y365019I1676J-1162D01*
G01Y396024D01*
X6173107D01*
Y365339D01*
G02X6173135Y365139I-2003J-384D01*
G01X6175059D01*
G02X6176153Y364101I55J-1038D01*
G01Y362754D01*
G02X6175114Y361715I-1039J0D01*
G01X6140649D01*
G02X6140017Y363581I-3J1039D01*
G37*
G36*
X6141847Y335996D02*
G01X6173107D01*
Y304762D01*
X6141847D01*
Y335996D01*
G37*
G36*
X6207491Y3139625D02*
X6210537D01*
Y3150566D01*
X6207491D01*
Y3163777D01*
X6244843D01*
Y3126425D01*
X6207491D01*
Y3139625D01*
G37*
G36*
X6208501Y3212405D02*
X6211547D01*
Y3227326D01*
X6208501D01*
Y3241987D01*
X6245853D01*
Y3204635D01*
X6208501D01*
Y3212405D01*
G37*
G36*
X6231277Y345949D02*
X6280537D01*
Y296675D01*
X6231277D01*
Y345949D01*
G37*
G36*
Y437950D02*
X6280537D01*
Y388676D01*
X6231277D01*
Y437950D01*
G37*
G36*
X6251596Y2950100D02*
X6251917Y2953571D01*
X6251841Y2954930D01*
G02X6355320Y2949640I51598J-5421D01*
G01X6355310Y2908611D01*
G02X6251656Y2906212I-51891J1540D01*
G01X6251650Y2949049D01*
G02X6251562Y2949662I1952J592D01*
G02X6251596Y2950100I2039J64D01*
G37*
G36*
X6267491Y3163777D02*
G01X6280681D01*
Y3160713D01*
X6291653D01*
Y3163777D01*
X6304843D01*
Y3126425D01*
X6267491D01*
Y3163777D01*
G37*
G36*
X6268501Y3241987D02*
X6305853D01*
Y3204635D01*
X6291653D01*
Y3207670D01*
X6280681D01*
Y3204635D01*
X6268501D01*
Y3241987D01*
G37*
G36*
X6273414Y2519409D02*
G02X6278888Y2536947I29745J338D01*
G01X6277343Y2536947D01*
G02X6276495Y2538588I0J1040D01*
G02X6329799Y2538588I26652J-18907D01*
G02X6328940Y2536947I-848J-601D01*
G01X6327462D01*
G02X6327388Y2536931I-479J1983D01*
G02X6327313Y2502449I-24239J-17188D01*
G02X6327408Y2502431I-328J-2013D01*
G01X6328963D01*
G02X6329805Y2500782I0J-1039D01*
G02X6276502Y2500764I-26658J18900D01*
G02X6277369Y2502430I830J627D01*
G01X6278853D01*
G02X6278935Y2502447I449J-1989D01*
G02X6273414Y2519409I24210J17261D01*
G37*
G36*
X6338450Y3178220D02*
G01X6341466Y3178225D01*
G02X6341497Y3178537I2039J-44D01*
G01X6341466Y3189100D01*
X6338450Y3189104D01*
Y3205158D01*
X6388804D01*
Y3159804D01*
X6338450D01*
Y3178220D01*
G37*
G36*
X6419450Y3167758D02*
X6469804D01*
Y3150546D01*
X6466787Y3150527D01*
G02X6466757Y3150230I-2039J58D01*
G01Y3139656D01*
X6469804D01*
Y3122404D01*
X6419450D01*
Y3167758D01*
G37*
G36*
X6422497Y3239526D02*
X6466757D01*
Y3200267D01*
X6422497D01*
Y3239526D01*
G37*
G36*
X6494004Y2708667D02*
G02X6494004Y2708667I29623J0D01*
G37*
G36*
X6506867Y897145D02*
G01X6556127D01*
Y847871D01*
X6506867D01*
Y897145D01*
G37*
G36*
Y989146D02*
X6556127D01*
Y939872D01*
X6506867D01*
Y989146D01*
G37*
G36*
X6521681Y2238937D02*
X6582153D01*
Y2233018D01*
X6579138Y2233013D01*
G02X6579107Y2232702I-2039J44D01*
G01Y2181541D01*
X6524727D01*
Y2232692D01*
G02X6524697Y2232953I2007J361D01*
G01X6522735D01*
G02X6522358Y2233018I-15J1039D01*
G01X6521681D01*
Y2238937D01*
G37*
G36*
Y2364917D02*
X6582153D01*
Y2355875D01*
X6579107Y2355874D01*
Y2313453D01*
X6582153D01*
Y2304445D01*
X6521681D01*
Y2364917D01*
G37*
G36*
X6526741Y3176529D02*
X6529757Y3176553D01*
G02X6529787Y3176846I2038J-63D01*
G01Y3187422D01*
X6526741D01*
Y3200647D01*
X6564093D01*
Y3163295D01*
X6526741D01*
Y3176529D01*
G37*
G36*
X6586741Y3200647D02*
X6624093D01*
Y3187422D01*
X6621047D01*
Y3176544D01*
X6624093D01*
Y3164334D01*
G02X6623054Y3163295I-1039J0D01*
G01X6611471D01*
G02X6610433Y3164385I0J1039D01*
G01Y3166366D01*
X6599461D01*
Y3163295D01*
X6586741D01*
Y3200647D01*
G37*
G36*
X6666610Y2322831D02*
G02X6666610Y2322831I42047J0D01*
G37*
G36*
Y2519681D02*
G02X6666610Y2519681I42047J0D01*
G37*
G36*
X6711036Y3175323D02*
G02X6712059Y3176544I1024J181D01*
G01X6713851D01*
X6713796Y3185027D01*
G02X6713960Y3185588I1039J0D01*
G02X6714002Y3185754I1996J-417D01*
G01X6714246Y3187422D01*
X6712521D01*
G02X6711514Y3188719I0J1039D01*
G02X6711273Y3174093I31723J-7838D01*
G02X6711036Y3175323I31964J6788D01*
G37*
G36*
X6871940Y2929149D02*
G02X6871940Y2929149I29637J0D01*
G37*
G36*
X6912676Y2346463D02*
G02X6912676Y2346463I61731J0D01*
G37*
G36*
X6912676Y2066928D02*
G02X6912676Y2066928I61731J0D01*
G37*
G36*
X6935105Y1751810D02*
G02X6935105Y1751810I38102J0D01*
G37*
G36*
X6993464Y651571D02*
G02X6993464Y651571I34173J0D01*
G37*
G36*
X6993473Y513773D02*
G02X6993473Y513773I34164J0D01*
G37*
G36*
X7058347Y1096531D02*
G02X7058347Y1096531I38110J0D01*
G37*
G36*
X7158735D02*
G02X7158735Y1096531I36142J0D01*
G37*
G36*
X7207955Y2066931D02*
G02X7207955Y2066931I61732J0D01*
G37*
G36*
Y2346461D02*
G02X7207955Y2346461I61732J0D01*
G37*
G36*
X7210687Y1751821D02*
G02X7210687Y1751821I38110J0D01*
G37*
G36*
X7293697Y1225041D02*
G02X7293697Y1225041I38110J0D01*
G37*
G36*
X7344920Y801611D02*
G02X7344920Y801611I42047J0D01*
G37*
G36*
X7394095Y1225041D02*
G02X7394095Y1225041I36142J0D01*
G37*
G36*
X7444920Y400431D02*
G02X7444920Y400431I42047J0D01*
G37*
G36*
X7482070Y3263468D02*
G01X7634424D01*
Y3138114D01*
X7482070D01*
Y3263468D01*
G37*
G36*
X7482217Y1498331D02*
G02X7482217Y1498331I38110J0D01*
G37*
G36*
X7541770Y801611D02*
G02X7541770Y801611I42047J0D01*
G37*
G36*
X7551970Y1976381D02*
G02X7551970Y1976381I32677J0D01*
G37*
G36*
X7611104Y2647641D02*
G02X7611104Y2647641I26693J0D01*
G37*
G36*
Y2746061D02*
G02X7611104Y2746061I26693J0D01*
G37*
G36*
X7670367Y1296961D02*
G02X7670367Y1296961I38110J0D01*
G37*
G36*
X7689844Y2647641D02*
G02X7689844Y2647641I26693J0D01*
G37*
G36*
Y2746061D02*
G02X7689844Y2746061I26693J0D01*
G37*
G36*
X7704070Y3263468D02*
G01X7856424D01*
Y3138114D01*
X7704070D01*
Y3263468D01*
G37*
G36*
X7750180Y1765751D02*
G02X7750180Y1765751I42047J0D01*
G37*
G36*
X7763797Y2124363D02*
G01X7763797Y2322413D01*
X7764609D01*
G02X7764836Y2322438I227J-1015D01*
G01X7785591Y2322441D01*
G02X7785729Y2322459I203J-1019D01*
G02X7785807Y2322941I2038J-85D01*
G01X7785983Y2324580D01*
G02X7787017Y2325513I1034J-106D01*
G01X7843805D01*
G02X7844844Y2324474I0J-1039D01*
G01Y2315852D01*
X7844022D01*
G02X7843805Y2315829I-217J1017D01*
G01X7841827Y2315812D01*
G02X7841797Y2315534I-2038J79D01*
G01X7841828Y2129025D01*
X7844844Y2129003D01*
Y2124348D01*
G02X7843805Y2123309I-1039J0D01*
G01X7764836D01*
G02X7763797Y2124363I0J1039D01*
G37*
G36*
X7768584Y2647641D02*
G02X7768584Y2647641I26693J0D01*
G37*
G36*
Y2746061D02*
G02X7768584Y2746061I26693J0D01*
G37*
G36*
X7778824Y1141731D02*
G02X7778824Y1141731I34173J0D01*
G37*
G36*
Y1496061D02*
G02X7778824Y1496061I34173J0D01*
G37*
G36*
X7916617Y1496067D02*
G02X7916617Y1496067I34170J0D01*
G37*
G36*
X7916623Y1141730D02*
G02X7916623Y1141730I34164J0D01*
G37*
G36*
X7930750Y2325490D02*
G01X8014844D01*
Y2123317D01*
X7930750D01*
Y2325490D01*
G37*
G36*
X7947033Y1765757D02*
G02X7947033Y1765757I42044J0D01*
G37*
G36*
X7953548Y1976390D02*
G02X7953548Y1976390I32669J0D01*
G37*
G54D10*
X5734727Y768071D02*
G01X5812797Y778351D01*
%LPC*%
G75*
X5812797Y778351D02*
G54D11*
X7474551Y359553D02*
X7460297Y367056D01*
G54D12*
X5916597Y3241651D02*
X5953437D01*
X5976597D02*
X6013437D01*
X6268757D02*
X6305597D01*
X6208757D02*
X6245597D01*
G54D13*
X6128562Y3241936D02*
X6177692D01*
G54D14*
X6337501Y3161102D02*
X6342261Y3158587D01*
G54D15*
X5940163Y403375D02*
Y303647D01*
%LPD*%
G75*
X5940163Y303647D02*
G54D16*
X4212597Y3051181D03*
G54D17*
Y3169291D03*
G54D16*
X5708657Y433071D03*
G54D17*
Y314961D03*
X7874017Y3129921D03*
G54D16*
X7992126D03*
G54D18*
X7857937Y472441D02*
X7862309Y472932D01*
X7866462Y474382D01*
X7870190Y476718D01*
X7873306Y479823D01*
X7875655Y483542D01*
X7877120Y487690D01*
X7877297Y488541D01*
X8088707Y648801D02*
X8074793Y649571D01*
X8060858Y649355D01*
X8046975Y648154D01*
X8033210Y645974D01*
X8019635Y642825D01*
X8006317Y638724D01*
X7993321Y633690D01*
X7980715Y627750D01*
X7968561Y620933D01*
X7956919Y613273D01*
X7945848Y604809D01*
X7935404Y595582D01*
X7925639Y585640D01*
X7916601Y575032D01*
X7908337Y563811D01*
X7900888Y552034D01*
X7894290Y539759D01*
X7888577Y527048D01*
X7883778Y513964D01*
X7879917Y500574D01*
X7877317Y488631D01*
X8088767Y648791D02*
X8088757D01*
X8088767D02*
X8093165Y648884D01*
X8097432Y649951D01*
X8101355Y651940D01*
X8104740Y654749D01*
X8107415Y658240D01*
X8109249Y662238D01*
X8110150Y666544D01*
X8110237Y668391D01*
Y3248031D01*
X8109746Y3252403D01*
X8108296Y3256556D01*
X8105960Y3260284D01*
X8102855Y3263400D01*
X8099136Y3265749D01*
X8094988Y3267214D01*
X8090618Y3267721D01*
X8090547Y3267721D01*
X7496017D01*
X7489810Y3267228D01*
X7483758Y3265762D01*
X7478013Y3263360D01*
X7472719Y3260082D01*
X7468177Y3256181D01*
X7180667Y2968681D01*
X7142627D01*
X6855117Y3256181D01*
X6850381Y3260224D01*
X6845067Y3263469D01*
X6839307Y3265836D01*
X6833247Y3267265D01*
X6827277Y3267721D01*
X6665297D01*
Y3224661D01*
X6485057D01*
Y3267721D01*
X5377447D01*
X5371240Y3267228D01*
X5365188Y3265762D01*
X5359443Y3263360D01*
X5354149Y3260082D01*
X5349607Y3256181D01*
X5062097Y2968681D01*
X5024057D01*
X4736547Y3256181D01*
X4731811Y3260224D01*
X4726497Y3263469D01*
X4720737Y3265836D01*
X4714677Y3267265D01*
X4708707Y3267721D01*
X4114177D01*
X4109805Y3267230D01*
X4105652Y3265780D01*
X4101924Y3263444D01*
X4098808Y3260339D01*
X4096459Y3256620D01*
X4094994Y3252472D01*
X4094487Y3248102D01*
X4094487Y3248031D01*
Y1358271D01*
X4094978Y1353900D01*
X4096428Y1349746D01*
X4098764Y1346018D01*
X4101869Y1342902D01*
X4105588Y1340553D01*
X4109736Y1339088D01*
X4114106Y1338581D01*
X4114177Y1338581D01*
X4547247D01*
Y738271D01*
X4339247D01*
Y700141D01*
X4259217D01*
Y858271D01*
X4239527Y877951D01*
X4137127D01*
X4117437Y858271D01*
Y660291D01*
X4137127Y640601D01*
X4339217D01*
Y600381D01*
X4547247D01*
Y216531D01*
X4547738Y212161D01*
X4549188Y208008D01*
X4551524Y204282D01*
X4554629Y201167D01*
X4558348Y198819D01*
X4562495Y197356D01*
X4566864Y196851D01*
X4566927Y196851D01*
X7460627D01*
X7464998Y197341D01*
X7469151Y198790D01*
X7472879Y201124D01*
X7475995Y204228D01*
X7478344Y207947D01*
X7479107Y209741D01*
X7855907Y472441D02*
X7836007Y471948D01*
X7816156Y470469D01*
X7796402Y468009D01*
X7776795Y464572D01*
X7757382Y460169D01*
X7738211Y454808D01*
X7719329Y448504D01*
X7700783Y441272D01*
X7682618Y433130D01*
X7664879Y424098D01*
X7647609Y414198D01*
X7630851Y403454D01*
X7614646Y391893D01*
X7599034Y379544D01*
X7584053Y366435D01*
X7569740Y352601D01*
X7556131Y338074D01*
X7543257Y322890D01*
X7531153Y307088D01*
X7519846Y290704D01*
X7509364Y273781D01*
X7499735Y256359D01*
X7490980Y238481D01*
X7483122Y220192D01*
X7479027Y209531D01*
X7855907Y472441D02*
X7857937D01*
X4280927Y2909451D02*
X4622047D01*
Y2688981D01*
X4280927D01*
Y2909451D01*
X7645667Y2991361D02*
X7891917D01*
Y2840771D01*
X7645667D01*
Y2991361D01*
X4969037Y2282221D02*
X5059767Y2205411D01*
X4963637Y2092321D01*
X4873127Y2168981D01*
X4969037Y2282241D01*
X4969247Y2282061D01*
X4969037Y2282221D01*
X6380837Y1091291D02*
X6464967Y1020051D01*
X6369717Y906241D01*
X6285587Y977481D01*
X6380837Y1091291D01*
X6623027Y2396911D02*
X6822837D01*
Y1733101D01*
X6923017Y1519271D01*
Y901571D01*
X6966747D01*
Y1520561D01*
X6862627Y1756371D01*
Y2555121D01*
X6822837D01*
Y2440941D01*
X6623027D01*
Y2396911D01*
G54D19*
X7527247Y3187228D02*
Y3222228D01*
X7589247Y3187228D02*
Y3222228D01*
X7749247Y3187228D02*
Y3222228D01*
X7811247Y3187228D02*
Y3222228D01*
G54D20*
X5754177Y3215298D02*
Y3225298D01*
X5397177Y3215298D02*
Y3225298D01*
G54D18*
X5738926Y937673D02*
X5770468Y939261D01*
X5775558Y866641D01*
X5744046Y865051D01*
X5738926Y937673D01*
G54D21*
X4531460Y1322794D03*
Y754058D03*
X4323460Y715928D03*
X4275004D03*
X4323430Y624814D03*
X4531460Y584594D03*
X6649510Y3240448D03*
X6500844D03*
X4296714Y2893664D03*
X4606260D03*
Y2704768D03*
X4296714D03*
X4970874Y2259981D03*
X5037493Y2203583D03*
X4961815Y2114553D03*
X4895376Y2170825D03*
X6382753Y1068982D03*
X6442786Y1018146D03*
X6367801Y928550D03*
X6307768Y979386D03*
X7661454Y2975574D03*
X7876130D03*
Y2856558D03*
X7661454D03*
G54D22*
X6931334Y910077D03*
X6958119Y910410D03*
X6632298Y2431482D03*
X6632374Y2406127D03*
G54D23*
X6950905Y907411D02*
X6940096Y908138D01*
X6940511Y913335D02*
X6952371D01*
X6629261Y2409552D02*
Y2422772D01*
X6636302Y2412569D02*
Y2427432D01*
G54D10*
X5734727Y3838942D02*
X5812797Y3849222D01*
%LPC*%
G75*
X5812797Y3849222D02*
G54D11*
X7474551Y3430423D02*
X7460297Y3437926D01*
G54D12*
X5916597Y6312522D02*
X5953437D01*
X5976597D02*
X6013437D01*
X6268757D02*
X6305597D01*
X6208757D02*
X6245597D01*
G54D13*
X6128562Y6312807D02*
X6177692D01*
G54D14*
X6337501Y6231972D02*
X6342261Y6229458D01*
G54D15*
X5940163Y3474246D02*
Y3374518D01*
%LPD*%
G75*
X5940163Y3374518D02*
G54D16*
X4212597Y6122052D03*
G54D17*
Y6240162D03*
G54D16*
X5708657Y3503942D03*
G54D17*
Y3385831D03*
X7874017Y6200792D03*
G54D16*
X7992126D03*
G54D18*
X7857937Y3543312D02*
X7862309Y3543803D01*
X7866462Y3545253D01*
X7870190Y3547589D01*
X7873306Y3550694D01*
X7875655Y3554413D01*
X7877120Y3558561D01*
X7877297Y3559412D01*
X8088707Y3719672D02*
X8074793Y3720442D01*
X8060858Y3720226D01*
X8046975Y3719025D01*
X8033210Y3716844D01*
X8019635Y3713696D01*
X8006317Y3709594D01*
X7993321Y3704561D01*
X7980715Y3698621D01*
X7968561Y3691804D01*
X7956919Y3684144D01*
X7945848Y3675679D01*
X7935404Y3666453D01*
X7925639Y3656511D01*
X7916601Y3645903D01*
X7908337Y3634682D01*
X7900888Y3622904D01*
X7894290Y3610629D01*
X7888577Y3597918D01*
X7883778Y3584835D01*
X7879917Y3571445D01*
X7877317Y3559502D01*
X8088767Y3719662D02*
X8088757D01*
X8088767D02*
X8093165Y3719755D01*
X8097432Y3720822D01*
X8101355Y3722810D01*
X8104740Y3725620D01*
X8107415Y3729111D01*
X8109249Y3733109D01*
X8110150Y3737414D01*
X8110237Y3739262D01*
Y6318902D01*
X8109746Y6323273D01*
X8108296Y6327427D01*
X8105960Y6331154D01*
X8102855Y6334271D01*
X8099136Y6336620D01*
X8094988Y6338084D01*
X8090618Y6338592D01*
X8090547Y6338592D01*
X7496017D01*
X7489810Y6338098D01*
X7483758Y6336632D01*
X7478013Y6334230D01*
X7472719Y6330953D01*
X7468177Y6327052D01*
X7180667Y6039552D01*
X7142627D01*
X6855117Y6327052D01*
X6850381Y6331094D01*
X6845067Y6334340D01*
X6839307Y6336706D01*
X6833247Y6338135D01*
X6827277Y6338592D01*
X6665297D01*
Y6295532D01*
X6485057D01*
Y6338592D01*
X5377447D01*
X5371240Y6338098D01*
X5365188Y6336632D01*
X5359443Y6334230D01*
X5354149Y6330953D01*
X5349607Y6327052D01*
X5062097Y6039552D01*
X5024057D01*
X4736547Y6327052D01*
X4731811Y6331094D01*
X4726497Y6334340D01*
X4720737Y6336706D01*
X4714677Y6338135D01*
X4708707Y6338592D01*
X4114177D01*
X4109805Y6338100D01*
X4105652Y6336651D01*
X4101924Y6334315D01*
X4098808Y6331210D01*
X4096459Y6327490D01*
X4094994Y6323342D01*
X4094487Y6318973D01*
X4094487Y6318902D01*
Y4429142D01*
X4094978Y4424770D01*
X4096428Y4420617D01*
X4098764Y4416889D01*
X4101869Y4413773D01*
X4105588Y4411424D01*
X4109736Y4409959D01*
X4114106Y4409452D01*
X4114177Y4409452D01*
X4547247D01*
Y3809142D01*
X4339247D01*
Y3771012D01*
X4259217D01*
Y3929142D01*
X4239527Y3948822D01*
X4137127D01*
X4117437Y3929142D01*
Y3731162D01*
X4137127Y3711472D01*
X4339217D01*
Y3671252D01*
X4547247D01*
Y3287402D01*
X4547738Y3283031D01*
X4549188Y3278879D01*
X4551524Y3275152D01*
X4554629Y3272038D01*
X4558348Y3269690D01*
X4562495Y3268227D01*
X4566864Y3267722D01*
X4566927Y3267722D01*
X7460627D01*
X7464998Y3268212D01*
X7469151Y3269660D01*
X7472879Y3271995D01*
X7475995Y3275099D01*
X7478344Y3278818D01*
X7479107Y3280612D01*
X7855907Y3543312D02*
X7836007Y3542819D01*
X7816156Y3541340D01*
X7796402Y3538879D01*
X7776795Y3535443D01*
X7757382Y3531039D01*
X7738211Y3525679D01*
X7719329Y3519375D01*
X7700783Y3512143D01*
X7682618Y3504001D01*
X7664879Y3494969D01*
X7647609Y3485069D01*
X7630851Y3474325D01*
X7614646Y3462764D01*
X7599034Y3450414D01*
X7584053Y3437306D01*
X7569740Y3423471D01*
X7556131Y3408944D01*
X7543257Y3393761D01*
X7531153Y3377958D01*
X7519846Y3361575D01*
X7509364Y3344652D01*
X7499735Y3327230D01*
X7490980Y3309352D01*
X7483122Y3291062D01*
X7479027Y3280402D01*
X7855907Y3543312D02*
X7857937D01*
X4280927Y5980322D02*
X4622047D01*
Y5759852D01*
X4280927D01*
Y5980322D01*
X7645667Y6062232D02*
X7891917D01*
Y5911642D01*
X7645667D01*
Y6062232D01*
X4969037Y5353092D02*
X5059767Y5276282D01*
X4963637Y5163192D01*
X4873127Y5239852D01*
X4969037Y5353112D01*
X4969247Y5352932D01*
X4969037Y5353092D01*
X6380837Y4162162D02*
X6464967Y4090922D01*
X6369717Y3977112D01*
X6285587Y4048352D01*
X6380837Y4162162D01*
X6623027Y5467782D02*
X6822837D01*
Y4803972D01*
X6923017Y4590142D01*
Y3972442D01*
X6966747D01*
Y4591432D01*
X6862627Y4827242D01*
Y5625992D01*
X6822837D01*
Y5511812D01*
X6623027D01*
Y5467782D01*
G54D19*
X7527247Y6258099D02*
Y6293099D01*
X7589247Y6258099D02*
Y6293099D01*
X7749247Y6258099D02*
Y6293099D01*
X7811247Y6258099D02*
Y6293099D01*
G54D20*
X5754177Y6286169D02*
Y6296169D01*
X5397177Y6286169D02*
Y6296169D01*
G54D18*
X5738926Y4008544D02*
X5770468Y4010132D01*
X5775558Y3937512D01*
X5744046Y3935922D01*
X5738926Y4008544D01*
G54D21*
X4531460Y4393664D03*
Y3824929D03*
X4323460Y3786799D03*
X4275004D03*
X4323430Y3695684D03*
X4531460Y3655464D03*
X6649510Y6311319D03*
X6500844D03*
X4296714Y5964534D03*
X4606260D03*
Y5775639D03*
X4296714D03*
X4970874Y5330851D03*
X5037493Y5274453D03*
X4961815Y5185424D03*
X4895376Y5241696D03*
X6382753Y4139852D03*
X6442786Y4089017D03*
X6367801Y3999421D03*
X6307768Y4050256D03*
X7661454Y6046444D03*
X7876130D03*
Y5927429D03*
X7661454D03*
G54D22*
X6931334Y3980948D03*
X6958119Y3981281D03*
X6632298Y5502353D03*
X6632374Y5476998D03*
G54D23*
X6950905Y3978281D02*
X6940096Y3979009D01*
X6940511Y3984206D02*
X6952371D01*
X6629261Y5480423D02*
Y5493643D01*
X6636302Y5483440D02*
Y5498303D01*
G54D24*
X5976377Y3408382D03*
G54D25*
X7584647Y5047252D03*
X7986217D03*
X6743237Y6251752D03*
X5861547Y6255702D03*
X6523627Y5779532D03*
X6901577Y6000002D03*
X6303147Y5590552D03*
G54D26*
X4169287Y4456702D03*
X6973207Y4822692D03*
X7248797D03*
X7520327Y4569202D03*
X7708477Y4367832D03*
G54D27*
X4958127Y5897762D03*
X5039497Y5839642D03*
X5120877Y5781522D03*
X7812997Y4566932D03*
X7950787D03*
X7812997Y4212602D03*
X7950787D03*
X7027637Y3722442D03*
Y3584652D03*
G54D28*
X7583817Y3872482D03*
X7386967D03*
X7486967Y3471302D03*
X6708657Y5590552D03*
Y5393702D03*
X7792227Y4836622D03*
X7989077D03*
G54D29*
X6531497Y3943372D03*
Y4035372D03*
X6255907Y3392192D03*
Y3484192D03*
G54D30*
X4311027Y5236222D03*
X7972437D03*
Y5275592D03*
Y5314962D03*
Y5354332D03*
G54D31*
X6974407Y5417332D03*
X7269687D03*
X6974407Y5137802D03*
X7269687D03*
G54D26*
X7331807Y4295912D03*
X7096457Y4167402D03*
G54D32*
X7430237Y4295912D03*
X7194877Y4167402D03*
G54D33*
X4212162Y5455372D02*
X4253032D01*
X4212162Y5406372D02*
X4253032D01*
X4212162Y5357372D02*
X4253032D01*
G54D34*
X4340597Y5252372D02*
X4350597D01*
X4341597Y5560372D02*
X4351597D01*
G54D35*
X5523402Y6025322D02*
X5539152D01*
X5523402Y5946582D02*
X5539152D01*
X5523402Y5867842D02*
X5539152D01*
X5523402Y5789102D02*
X5539152D01*
X5523402Y5710362D02*
X5539152D01*
X5287182D02*
X5302932D01*
X5287182Y5789102D02*
X5302932D01*
X5287182Y5867842D02*
X5302932D01*
X5287182Y5946582D02*
X5302932D01*
X5287182Y6025322D02*
X5302932D01*
G54D36*
X4684047Y6214792D02*
Y6249792D01*
X4622047Y6214792D02*
Y6249792D01*
X4462047Y6214792D02*
Y6249792D01*
X4400047Y6214792D02*
Y6249792D01*
X7527247Y6254162D02*
Y6289162D01*
X7589247Y6254162D02*
Y6289162D01*
X7749247Y6254162D02*
Y6289162D01*
X7811247Y6254162D02*
Y6289162D01*
G54D37*
X4662807Y5954222D02*
X4710047D01*
X4662807Y5788862D02*
X4710047D01*
G54D38*
X5907367Y4770002D02*
Y4793622D01*
G54D39*
X4976537Y4949192D03*
G54D40*
X4911257Y3785622D02*
X4930937D01*
X4763707Y3322672D02*
X4783387D01*
X5058977Y3322862D02*
X5078657D01*
G54D41*
X4580702Y4948822D02*
X4655512D01*
X4360232D02*
X4435042D01*
G54D42*
X6157477Y3451262D03*
Y3391262D03*
X5917327Y3584182D03*
Y3644182D03*
X5935017Y6294182D03*
X5995017D03*
X5994737Y6215972D03*
X5934737D03*
X6287177Y6294182D03*
X6227177D03*
X6286167Y6215972D03*
X6226167D03*
X6605417Y6252842D03*
X6545417D03*
X5854327Y3584182D03*
Y3644182D03*
G54D33*
X5502177Y6152797D02*
Y6193667D01*
X5551177Y6152797D02*
Y6193667D01*
X5600177Y6152797D02*
Y6193667D01*
X5649177Y6152797D02*
Y6193667D01*
G54D34*
X5754177Y6282232D02*
Y6292232D01*
X5397177Y6282232D02*
Y6292232D01*
G54D43*
X6150627Y6215952D02*
X6155627D01*
X6150627Y6290752D02*
X6155627D01*
X6069627Y6253352D02*
X6074627D01*
X6442127Y6215952D02*
X6447127D01*
X6442127Y6290752D02*
X6447127D01*
X6361127Y6253352D02*
X6366127D01*
G54D44*
X6035377Y3516882D02*
Y3532882D01*
X5917377Y3516882D02*
Y3532882D01*
G54D45*
X7802797Y5236226D02*
Y5354337D01*
X7972797Y5236226D02*
Y5354337D01*
G54D46*
X6303447Y5981007D02*
Y6020377D01*
X6103447Y5981007D02*
Y6020377D01*
X5903447Y5981007D02*
Y6020377D01*
G54D47*
X6551917Y5279572D03*
Y5405552D03*
G36*
X5110885Y6045631D02*
G02X5110893Y6053600I3982J3981D01*
G01X5127513Y6070160D01*
G02X5135493Y6070128I3974J-3988D01*
G01X5164524Y6041007D01*
G02X5164533Y6033026I-3967J-3996D01*
G01X5147923Y6016455D01*
G02X5139960Y6016467I-3976J3986D01*
G01X5110885Y6045631D01*
G37*
G36*
X5158289Y6092888D02*
G02X5158301Y6100848I3988J3974D01*
G01X5174912Y6117409D01*
G02X5183563Y6116707I4030J-3992D01*
G02X5183703Y6116565I-3935J-4027D01*
G01X5211951Y6088240D01*
G02X5211942Y6080275I-3984J-3978D01*
G01X5195321Y6063704D01*
G02X5187359Y6063718I-3974J3988D01*
G01X5158289Y6092888D01*
G37*
G36*
X5942247Y3376882D02*
Y3471882D01*
G02X5947877Y3477512I5630J0D01*
G01X5958747D01*
Y3544882D01*
G02X5964377Y3550512I5630J0D01*
G01X5988377D01*
G02X5994007Y3544882I0J-5630D01*
G01Y3477512D01*
X6004877D01*
G02X6010507Y3471882I0J-5630D01*
G01Y3376882D01*
G02X6004877Y3371252I-5630J0D01*
G01X5947877D01*
G02X5942247Y3376882I0J5630D01*
G37*
G54D48*
X7795277Y5718512D03*
X7716537D03*
X7637797D03*
X7795277Y5816932D03*
X7716537D03*
X7637797D03*
G54D17*
X5016817Y5043292D03*
X4937687Y4858662D03*
X5804927Y3976712D03*
X5710167Y3964852D03*
G36*
X4131177Y4456702D02*
G02X4131177Y4456702I38110J0D01*
G37*
G36*
X4212164Y5424049D02*
G01X4253030D01*
G02X4269312Y5413255I0J-17677D01*
G02X4268355Y5411811I-957J-405D01*
G01X4266858D01*
G02X4266854Y5411726I-2039J41D01*
G01X4267342Y5409441D01*
G02X4267161Y5402481I-14312J-3109D01*
G01X4266845Y5401016D01*
G02X4266849Y5400932I-2036J-126D01*
G01X4268355D01*
G02X4269312Y5399488I-0J-1040D01*
G02X4253030Y5388694I-16282J6884D01*
G01X4212164D01*
G02X4212164Y5424049I-1J17677D01*
G37*
G36*
Y5473049D02*
G01X4253030D01*
G02X4268643Y5463662I0J-17677D01*
G02X4267725Y5462134I-918J-488D01*
G01X4266306D01*
G02X4266304Y5462082I-2039J40D01*
G01X4266978Y5459840D01*
G02X4267469Y5452953I-13948J-4456D01*
G01X4267262Y5451392D01*
G02X4267269Y5451256I-2032J-177D01*
G01X4268849Y5451256D01*
G02X4269837Y5449894I0J-1039D01*
G02X4253030Y5437694I-16807J5477D01*
G01X4212164D01*
G02X4212164Y5473049I0J17677D01*
G37*
G36*
X4201906Y5346915D02*
G02X4212053Y5371992I10242J10447D01*
G01X4253985Y5371996D01*
G02X4253603Y5342796I-980J-14590D01*
G01X4210424Y5342806D01*
G02X4210021Y5342890I210J2029D01*
G02X4201906Y5346915I2146J14520D01*
G37*
G36*
X4297920Y5295029D02*
G01X4393274D01*
Y5209694D01*
X4297920D01*
Y5295029D01*
G37*
G36*
X4301967Y5600019D02*
X4391227D01*
Y5520763D01*
X4301967D01*
Y5600019D01*
G37*
G36*
X4326062Y4982995D02*
X4469212D01*
Y4914648D01*
X4326062D01*
Y4982995D01*
G37*
G36*
X4354870Y6294939D02*
X4507224D01*
Y6169651D01*
X4354870D01*
Y6294939D01*
G37*
G36*
X4546532Y4982995D02*
X4689682D01*
Y4979862D01*
X4686668Y4979861D01*
G02X4686637Y4979546I-2039J40D01*
G01Y4917788D01*
X4689682D01*
Y4914648D01*
X4546532D01*
Y4982995D01*
G37*
G36*
X4576870Y6294969D02*
X4729224D01*
Y6169614D01*
X4576870D01*
Y6294969D01*
G37*
G36*
X4630600Y5821067D02*
X4742254D01*
Y5756657D01*
X4630600D01*
Y5821067D01*
G37*
G36*
Y5986426D02*
X4742254D01*
Y5922017D01*
X4630600D01*
Y5986426D01*
G37*
G36*
X4763705Y3347002D02*
X4783390D01*
G02X4782901Y3298403I0J-24302D01*
G01X4761169Y3298412D01*
G02X4760637Y3298535I190J2031D01*
G02X4763705Y3347002I3067J24137D01*
G37*
G36*
X4911255Y3809952D02*
G01X4930940D01*
G02X4930940Y3761291I0J-24331D01*
G01X4911255D01*
G02X4911255Y3809952I0J24331D01*
G37*
G36*
X4907057Y4858662D02*
G02X4907057Y4858662I30630J0D01*
G37*
G36*
X4923954Y5897762D02*
G02X4923954Y5897762I34173J0D01*
G37*
G36*
X4949186Y4949200D02*
G02X4949186Y4949200I27356J0D01*
G37*
G36*
X4986187Y5043292D02*
G02X4986187Y5043292I30630J0D01*
G37*
G36*
X5005324Y5839642D02*
G02X5005324Y5839642I34173J0D01*
G37*
G36*
X5034741Y3320688D02*
G02X5058975Y3347193I24233J2174D01*
G01X5078670D01*
G02X5076651Y3298638I-10J-24319D01*
G01X5055559Y3298802D01*
G02X5034741Y3320688I3420J24097D01*
G37*
G36*
X5086704Y5781522D02*
G02X5086704Y5781522I34173J0D01*
G37*
G36*
X5110298Y6049919D02*
G01X5110300Y6054425D01*
G02X5110580Y6056180I741J782D01*
G02X5111339Y6056934I1766J-1019D01*
G01X5126068Y6071610D01*
G02X5128625Y6073295I5419J-5438D01*
G02X5129167Y6073522I1052J-1750D01*
G02X5129593Y6073611I628J-1940D01*
G02X5135782Y6072534I1894J-7440D01*
G02X5135139Y6070537I-407J-971D01*
G01X5133673D01*
X5164961Y6039156D01*
Y6040617D01*
G02X5166958Y6041250I1025J233D01*
G02X5165979Y6031577I-6401J-4238D01*
G01X5150285Y6015921D01*
G02X5148816Y6015922I-734J736D01*
G01X5143551Y6015936D01*
G02X5140829Y6017033I455J5054D01*
G01X5111458Y6046479D01*
G02X5110298Y6049919I3429J3072D01*
G37*
G36*
X5155939Y6092529D02*
G02X5156843Y6102284I6338J4332D01*
G01X5172855Y6118249D01*
G02X5174289Y6118286I736J-734D01*
G02X5174474Y6118230I-494J-1979D01*
G02X5174578Y6118206I-180J-1024D01*
G01X5178981D01*
G02X5179619Y6118104I0J-2039D01*
G02X5182826Y6116032I-678J-4567D01*
G01X5211571Y6087168D01*
G02X5212544Y6084962I-3604J-2906D01*
G02X5212649Y6084314I-1934J-647D01*
G01Y6080056D01*
G02X5212685Y6079775I-2000J-398D01*
G02X5212728Y6079639I-1921J-686D01*
G02X5212722Y6078161I-735J-735D01*
G01X5196716Y6062205D01*
G02X5186872Y6061454I-5369J5488D01*
G02X5187541Y6063433I448J951D01*
G01X5189055D01*
X5157931Y6094663D01*
Y6093177D01*
G02X5155939Y6092529I-1025J-235D01*
G37*
G36*
X5287183Y5738630D02*
G01X5302931D01*
G02X5302931Y5682094I0J-28268D01*
G01X5287183D01*
G02X5287183Y5738630I0J28268D01*
G37*
G36*
Y5817369D02*
G01X5302931D01*
G02X5302931Y5760834I0J-28268D01*
G01X5287183D01*
G02X5287183Y5817369I0J28268D01*
G37*
G36*
Y5896110D02*
G01X5302931D01*
G02X5302931Y5839574I0J-28268D01*
G01X5287183D01*
G02X5287183Y5896110I0J28268D01*
G37*
G36*
Y5974850D02*
G01X5302931D01*
G02X5302931Y5918314I0J-28268D01*
G01X5287183D01*
G02X5287183Y5974850I0J28268D01*
G37*
G36*
Y6053589D02*
G01X5302931D01*
G02X5302931Y5997054I0J-28268D01*
G01X5287183D01*
G02X5287183Y6053589I0J28268D01*
G37*
G36*
X5354500Y6300694D02*
G01Y6334909D01*
X5439854D01*
Y6309954D01*
X5436807D01*
X5436838Y6255688D01*
X5439854Y6255687D01*
Y6240594D01*
G02X5438815Y6239554I-1039J0D01*
G01X5375140D01*
G02X5374410Y6241334I0J1039D01*
G01X5375627Y6242550D01*
G02X5375514Y6242567I95J1035D01*
G01X5358586Y6242578D01*
G02X5358317Y6242613I-0J1039D01*
G01X5357547D01*
Y6301231D01*
X5356279Y6299965D01*
G02X5354500Y6300694I-740J730D01*
G37*
G36*
X5487544Y6152763D02*
G01X5487545Y6193438D01*
G02X5516809Y6193280I14633J209D01*
G01X5516809Y6153007D01*
G02X5487546Y6152488I-14632J-230D01*
G02X5487544Y6152763I14631J289D01*
G37*
G36*
X5523403Y5817369D02*
G01X5539151D01*
G02X5539151Y5760834I0J-28268D01*
G01X5523403D01*
G02X5523403Y5817369I0J28268D01*
G37*
G36*
Y5974850D02*
G01X5539151D01*
G02X5539151Y5918314I0J-28268D01*
G01X5523403D01*
G02X5523403Y5974850I0J28268D01*
G37*
G36*
X5523402Y6053589D02*
G01X5539151D01*
G02X5539151Y5997054I0J-28268D01*
G01X5523402D01*
G02X5523402Y6053589I2J28268D01*
G37*
G36*
X5523403Y5896110D02*
G01X5539151D01*
G02X5539017Y5839583I0J-28263D01*
G01X5522153Y5839601D01*
G02X5523403Y5896110I1250J28240D01*
G37*
G36*
X5497628Y5698755D02*
G02X5523535Y5738611I25769J11598D01*
G01X5539017D01*
G02X5537947Y5682136I120J-28250D01*
G01X5522045Y5682138D01*
G02X5521764Y5682170I85J2038D01*
G02X5497723Y5698588I1647J28222D01*
G02X5497628Y5698755I853J594D01*
G37*
G36*
X5533500Y6152799D02*
G01Y6193665D01*
G02X5568854Y6193665I17677J0D01*
G01Y6152799D01*
G02X5558831Y6136864I-17677J0D01*
G02X5557860Y6136902I-450J937D01*
G01X5557195Y6137282D01*
G02X5556663Y6138189I508J907D01*
G01X5556662Y6138722D01*
G02X5556634Y6138969I2008J356D01*
G01X5554289Y6138464D01*
G02X5548121Y6138464I-3085J14313D01*
G01X5545728Y6138988D01*
G02X5545697Y6138710I-2038J87D01*
G01Y6138191D01*
G02X5545140Y6137271I-1039J0D01*
G01X5544495Y6136902D01*
G02X5543524Y6136864I-521J899D01*
G02X5534523Y6146870I7653J15934D01*
G02X5533500Y6152799I16654J5928D01*
G37*
G36*
X5582500D02*
G01Y6193665D01*
G02X5617854Y6193665I17677J0D01*
G01Y6152799D01*
G02X5612038Y6139691I-17677J0D01*
G02X5610734Y6139612I-701J768D01*
G01X5608862Y6140946D01*
G02X5593923Y6139488I-8718J12063D01*
G02X5593781Y6139371I-1372J1509D01*
G01X5592425Y6137836D01*
G02X5591107Y6137626I-785J682D01*
G02X5583280Y6147604I9070J15173D01*
G02X5582500Y6152799I16897J5194D01*
G37*
G36*
X5631500Y6152799D02*
G01Y6193665D01*
G02X5666854Y6193665I17677J0D01*
G01Y6152799D01*
G02X5652089Y6135363I-17677J0D01*
G02X5651171Y6137121I-183J1023D01*
G01X5651804Y6137754D01*
X5647703Y6138180D01*
G02X5637199Y6144236I1435J14626D01*
G01X5635963Y6142997D01*
G02X5634350Y6143173I-736J734D01*
G02X5632161Y6148010I14827J9626D01*
G02X5631500Y6152799I17016J4789D01*
G37*
G36*
X5679537Y3964852D02*
G02X5679537Y3964852I30630J0D01*
G37*
G36*
X5711500Y6254806D02*
G01X5714547Y6254842D01*
Y6309954D01*
X5711500D01*
Y6334909D01*
X5796854D01*
Y6239554D01*
X5711500D01*
Y6254806D01*
G37*
G36*
X5774297Y3976712D02*
G02X5774297Y3976712I30630J0D01*
G37*
G36*
X5829031Y6252462D02*
G02X5893529Y6262408I32516J3240D01*
G02X5892511Y6261154I-1018J-214D01*
G01X5890788Y6261151D01*
G02X5890779Y6260999I-2039J46D01*
G01X5891001Y6258981D01*
G02X5890949Y6252019I-29452J-3261D01*
G01X5890772Y6250430D01*
G02X5890781Y6250279I-2030J-198D01*
G01X5892517Y6250276D01*
G02X5893534Y6249022I-0J-1040D01*
G02X5841912Y6229581I-31987J6678D01*
G02X5841855Y6231197I625J831D01*
G01X5843184Y6232357D01*
X5839388Y6236074D01*
X5835950Y6240608D01*
X5834638Y6239461D01*
G02X5833039Y6239729I-691J776D01*
G02X5829076Y6252038I28508J15973D01*
G02X5829031Y6252462I1994J426D01*
G37*
G36*
X5835651Y3569345D02*
G01X5836436D01*
G02X5836715Y3569377I254J-1008D01*
G01X5838667D01*
G02X5838697Y3569663I2038J-71D01*
G01Y3599826D01*
X5869957D01*
Y3569345D01*
X5873003D01*
Y3565505D01*
X5835651D01*
Y3569345D01*
G37*
G36*
X5838697Y3659791D02*
X5869957D01*
Y3628557D01*
X5838697D01*
Y3659791D01*
G37*
G36*
X5851558Y5980720D02*
X5851592Y6020946D01*
G02X5851612Y6021148I8007J-717D01*
G01X5851916Y6024429D01*
X5851825Y6025640D01*
G02X5955284Y6020608I51596J-5262D01*
G01X5955336Y5980740D01*
G02X5851558Y5980720I-51889J267D01*
G37*
G36*
X5885005Y4815985D02*
G01X5929729D01*
Y4747638D01*
X5885005D01*
Y4815985D01*
G37*
G36*
X5897702Y3552559D02*
X5900026D01*
Y3549502D01*
X5934628D01*
Y3552559D01*
X5937052D01*
Y3497204D01*
X5897702D01*
Y3552559D01*
G37*
G36*
X5901697Y3599797D02*
X5902516D01*
G02X5902737Y3599821I220J-1016D01*
G01X5919553Y3599842D01*
G03X5921495Y3601813I-18J1960D01*
G02X5922540Y3602858I1039J6D01*
G01X5934964D01*
G02X5936003Y3601819I0J-1039D01*
G01X5936002Y3569298D01*
G02X5934585Y3568529I-1039J226D01*
G01X5902737D01*
G02X5901742Y3569266I0J1039D01*
G01X5901697D01*
Y3599797D01*
G37*
G36*
Y3659791D02*
X5932957D01*
Y3628557D01*
X5901697D01*
Y3659791D01*
G37*
G36*
X5916061Y6234648D02*
X5929251D01*
Y6231583D01*
X5940223D01*
Y6234648D01*
X5953413D01*
Y6197295D01*
X5916061D01*
Y6234648D01*
G37*
G36*
X5916341Y6312858D02*
X5953693D01*
Y6275505D01*
X5940223D01*
Y6278540D01*
X5929251D01*
Y6275505D01*
X5916341D01*
Y6312858D01*
G37*
G36*
X5940200Y3376882D02*
Y3471882D01*
G02X5947877Y3479559I7677J0D01*
G01X5956700D01*
Y3544882D01*
G02X5964377Y3552559I7677J0D01*
G01X5988377D01*
G02X5996054Y3544882I0J-7677D01*
G01Y3479559D01*
X6004877D01*
G02X6012554Y3471882I0J-7677D01*
G01Y3449696D01*
X6009538Y3449681D01*
G02X6009501Y3449347I-2039J54D01*
G01X6009493Y3376496D01*
G02X6009452Y3376150I-2038J68D01*
G02X6009207Y3375220I-2039J39D01*
G01X6008690Y3373183D01*
X6009519D01*
G02X6010253Y3371401I6J-1039D01*
G02X6004877Y3369205I-5376J5480D01*
G01X5947877D01*
G02X5940206Y3376565I0J7677D01*
G02X5940200Y3376882I7670J316D01*
G37*
G36*
X5976341Y6276545D02*
G01Y6312858D01*
X6013693D01*
Y6285776D01*
G02X6011919Y6285032I-1039J-9D01*
G01X6010651Y6286300D01*
X6010649Y6279592D01*
G02X6009609Y6278519I-1056J-18D01*
G01X6002950Y6278487D01*
X6004152Y6277285D01*
G02X6003422Y6275505I-730J-740D01*
G01X5977380D01*
G02X5976341Y6276545I0J1039D01*
G37*
G36*
X5979107Y6231583D02*
G01X6010367D01*
Y6200349D01*
X5979107D01*
Y6231583D01*
G37*
G36*
X6018747Y3549502D02*
X6052007D01*
Y3500229D01*
X6018747D01*
Y3549502D01*
G37*
G36*
X6046950Y6252017D02*
X6049997Y6252018D01*
X6049966Y6262952D01*
X6046950Y6262967D01*
Y6276029D01*
X6097304D01*
Y6230674D01*
X6046950D01*
Y6252017D01*
G37*
G36*
X6051557Y5981007D02*
Y6020377D01*
G02X6155337Y6020377I51890J0D01*
G01Y5981007D01*
G02X6052425Y5971556I-51890J0D01*
G02X6051557Y5981007I51022J9451D01*
G37*
G36*
X6127950Y6238629D02*
G01X6178304D01*
Y6221437D01*
X6175257D01*
Y6210496D01*
X6178304D01*
Y6193274D01*
X6127950D01*
Y6238629D01*
G37*
G36*
Y6274910D02*
Y6313429D01*
X6178304D01*
Y6298197D01*
X6175257D01*
Y6283275D01*
X6178304D01*
Y6269114D01*
G02X6177265Y6268074I-1039J0D01*
G01X6146249D01*
G02X6145445Y6269777I-3J1039D01*
G01X6146541Y6271101D01*
G02X6146423Y6271118I86J1036D01*
G01X6132035Y6271129D01*
G02X6130994Y6272201I-1J1040D01*
G01X6130992Y6275702D01*
X6129792Y6274250D01*
G02X6127950Y6274910I-803J660D01*
G37*
G36*
X6140017Y3434452D02*
G01X6141771Y3435787D01*
G02X6141847Y3435890I1676J-1162D01*
G01Y3466894D01*
X6173107D01*
Y3436210D01*
G02X6173135Y3436010I-2003J-384D01*
G01X6175059D01*
G02X6176153Y3434972I55J-1038D01*
G01Y3433625D01*
G02X6175114Y3432585I-1039J0D01*
G01X6140649D01*
G02X6140017Y3434452I-3J1039D01*
G37*
G36*
X6141847Y3406867D02*
G01X6173107D01*
Y3375633D01*
X6141847D01*
Y3406867D01*
G37*
G36*
X6207491Y6210496D02*
X6210537D01*
Y6221437D01*
X6207491D01*
Y6234648D01*
X6244843D01*
Y6197295D01*
X6207491D01*
Y6210496D01*
G37*
G36*
X6208501Y6283275D02*
X6211547D01*
Y6298197D01*
X6208501D01*
Y6312858D01*
X6245853D01*
Y6275505D01*
X6208501D01*
Y6283275D01*
G37*
G36*
X6231277Y3416819D02*
X6280537D01*
Y3367546D01*
X6231277D01*
Y3416819D01*
G37*
G36*
Y3508820D02*
X6280537D01*
Y3459547D01*
X6231277D01*
Y3508820D01*
G37*
G36*
X6251596Y6020971D02*
X6251917Y6024442D01*
X6251841Y6025801D01*
G02X6355320Y6020511I51598J-5421D01*
G01X6355310Y5979481D01*
G02X6251656Y5977083I-51891J1540D01*
G01X6251650Y6019920D01*
G02X6251562Y6020532I1952J592D01*
G02X6251596Y6020971I2039J64D01*
G37*
G36*
X6267491Y6234648D02*
G01X6280681D01*
Y6231583D01*
X6291653D01*
Y6234648D01*
X6304843D01*
Y6197295D01*
X6267491D01*
Y6234648D01*
G37*
G36*
X6268501Y6312858D02*
X6305853D01*
Y6275505D01*
X6291653D01*
Y6278540D01*
X6280681D01*
Y6275505D01*
X6268501D01*
Y6312858D01*
G37*
G36*
X6273414Y5590279D02*
G02X6278888Y5607818I29745J338D01*
G01X6277343Y5607818D01*
G02X6276495Y5609459I0J1040D01*
G02X6329799Y5609459I26652J-18907D01*
G02X6328940Y5607818I-848J-601D01*
G01X6327462D01*
G02X6327388Y5607802I-479J1983D01*
G02X6327313Y5573320I-24239J-17188D01*
G02X6327408Y5573302I-328J-2013D01*
G01X6328963D01*
G02X6329805Y5571653I0J-1039D01*
G02X6276502Y5571635I-26658J18900D01*
G02X6277369Y5573301I830J627D01*
G01X6278853D01*
G02X6278935Y5573318I449J-1989D01*
G02X6273414Y5590279I24210J17261D01*
G37*
G36*
X6338450Y6249091D02*
G01X6341466Y6249096D01*
G02X6341497Y6249407I2039J-44D01*
G01X6341466Y6259970D01*
X6338450Y6259975D01*
Y6276029D01*
X6388804D01*
Y6230674D01*
X6338450D01*
Y6249091D01*
G37*
G36*
X6419450Y6238629D02*
X6469804D01*
Y6221417D01*
X6466787Y6221398D01*
G02X6466757Y6221100I-2039J58D01*
G01Y6210527D01*
X6469804D01*
Y6193274D01*
X6419450D01*
Y6238629D01*
G37*
G36*
X6422497Y6310397D02*
X6466757D01*
Y6271138D01*
X6422497D01*
Y6310397D01*
G37*
G36*
X6494004Y5779538D02*
G02X6494004Y5779538I29623J0D01*
G37*
G36*
X6506867Y3968015D02*
G01X6556127D01*
Y3918742D01*
X6506867D01*
Y3968015D01*
G37*
G36*
Y4060016D02*
X6556127D01*
Y4010743D01*
X6506867D01*
Y4060016D01*
G37*
G36*
X6521681Y5309808D02*
X6582153D01*
Y5303889D01*
X6579138Y5303884D01*
G02X6579107Y5303573I-2039J44D01*
G01Y5252411D01*
X6524727D01*
Y5303563D01*
G02X6524697Y5303824I2007J361D01*
G01X6522735D01*
G02X6522358Y5303889I-15J1039D01*
G01X6521681D01*
Y5309808D01*
G37*
G36*
Y5435788D02*
X6582153D01*
Y5426746D01*
X6579107Y5426744D01*
Y5384324D01*
X6582153D01*
Y5375315D01*
X6521681D01*
Y5435788D01*
G37*
G36*
X6526741Y6247400D02*
X6529757Y6247424D01*
G02X6529787Y6247717I2038J-63D01*
G01Y6258293D01*
X6526741D01*
Y6271518D01*
X6564093D01*
Y6234165D01*
X6526741D01*
Y6247400D01*
G37*
G36*
X6586741Y6271518D02*
X6624093D01*
Y6258293D01*
X6621047D01*
Y6247414D01*
X6624093D01*
Y6235205D01*
G02X6623054Y6234165I-1039J0D01*
G01X6611471D01*
G02X6610433Y6235256I0J1039D01*
G01Y6237237D01*
X6599461D01*
Y6234165D01*
X6586741D01*
Y6271518D01*
G37*
G36*
X6666610Y5393702D02*
G02X6666610Y5393702I42047J0D01*
G37*
G36*
Y5590552D02*
G02X6666610Y5590552I42047J0D01*
G37*
G36*
X6711036Y6246194D02*
G02X6712059Y6247414I1024J181D01*
G01X6713851D01*
X6713796Y6255897D01*
G02X6713960Y6256458I1039J0D01*
G02X6714002Y6256624I1996J-417D01*
G01X6714246Y6258293D01*
X6712521D01*
G02X6711514Y6259590I0J1039D01*
G02X6711273Y6244963I31723J-7838D01*
G02X6711036Y6246194I31964J6788D01*
G37*
G36*
X6871940Y6000020D02*
G02X6871940Y6000020I29637J0D01*
G37*
G36*
X6912676Y5417334D02*
G02X6912676Y5417334I61731J0D01*
G37*
G36*
X6912676Y5137798D02*
G02X6912676Y5137798I61731J0D01*
G37*
G36*
X6935105Y4822680D02*
G02X6935105Y4822680I38102J0D01*
G37*
G36*
X6993464Y3722442D02*
G02X6993464Y3722442I34173J0D01*
G37*
G36*
X6993473Y3584644D02*
G02X6993473Y3584644I34164J0D01*
G37*
G36*
X7058347Y4167402D02*
G02X7058347Y4167402I38110J0D01*
G37*
G36*
X7158735D02*
G02X7158735Y4167402I36142J0D01*
G37*
G36*
X7207955Y5137802D02*
G02X7207955Y5137802I61732J0D01*
G37*
G36*
Y5417332D02*
G02X7207955Y5417332I61732J0D01*
G37*
G36*
X7210687Y4822692D02*
G02X7210687Y4822692I38110J0D01*
G37*
G36*
X7293697Y4295912D02*
G02X7293697Y4295912I38110J0D01*
G37*
G36*
X7344920Y3872482D02*
G02X7344920Y3872482I42047J0D01*
G37*
G36*
X7394095Y4295912D02*
G02X7394095Y4295912I36142J0D01*
G37*
G36*
X7444920Y3471302D02*
G02X7444920Y3471302I42047J0D01*
G37*
G36*
X7482070Y6334339D02*
G01X7634424D01*
Y6208984D01*
X7482070D01*
Y6334339D01*
G37*
G36*
X7482217Y4569202D02*
G02X7482217Y4569202I38110J0D01*
G37*
G36*
X7541770Y3872482D02*
G02X7541770Y3872482I42047J0D01*
G37*
G36*
X7551970Y5047252D02*
G02X7551970Y5047252I32677J0D01*
G37*
G36*
X7611104Y5718512D02*
G02X7611104Y5718512I26693J0D01*
G37*
G36*
Y5816932D02*
G02X7611104Y5816932I26693J0D01*
G37*
G36*
X7670367Y4367832D02*
G02X7670367Y4367832I38110J0D01*
G37*
G36*
X7689844Y5718512D02*
G02X7689844Y5718512I26693J0D01*
G37*
G36*
Y5816932D02*
G02X7689844Y5816932I26693J0D01*
G37*
G36*
X7704070Y6334339D02*
G01X7856424D01*
Y6208984D01*
X7704070D01*
Y6334339D01*
G37*
G36*
X7750180Y4836622D02*
G02X7750180Y4836622I42047J0D01*
G37*
G36*
X7763797Y5195233D02*
G01X7763797Y5393283D01*
X7764609D01*
G02X7764836Y5393308I227J-1015D01*
G01X7785591Y5393312D01*
G02X7785729Y5393329I203J-1019D01*
G02X7785807Y5393812I2038J-85D01*
G01X7785983Y5395451D01*
G02X7787017Y5396384I1034J-106D01*
G01X7843805D01*
G02X7844844Y5395345I0J-1039D01*
G01Y5386722D01*
X7844022D01*
G02X7843805Y5386700I-217J1017D01*
G01X7841827Y5386683D01*
G02X7841797Y5386405I-2038J79D01*
G01X7841828Y5199896D01*
X7844844Y5199874D01*
Y5195219D01*
G02X7843805Y5194179I-1039J0D01*
G01X7764836D01*
G02X7763797Y5195233I0J1039D01*
G37*
G36*
X7768584Y5718512D02*
G02X7768584Y5718512I26693J0D01*
G37*
G36*
Y5816932D02*
G02X7768584Y5816932I26693J0D01*
G37*
G36*
X7778824Y4212602D02*
G02X7778824Y4212602I34173J0D01*
G37*
G36*
Y4566932D02*
G02X7778824Y4566932I34173J0D01*
G37*
G36*
X7916617Y4566937D02*
G02X7916617Y4566937I34170J0D01*
G37*
G36*
X7916623Y4212601D02*
G02X7916623Y4212601I34164J0D01*
G37*
G36*
X7930750Y5396360D02*
G01X8014844D01*
Y5194188D01*
X7930750D01*
Y5396360D01*
G37*
G36*
X7947033Y4836628D02*
G02X7947033Y4836628I42044J0D01*
G37*
G36*
X7953548Y5047261D02*
G02X7953548Y5047261I32669J0D01*
G37*
G54D10*
X5734727Y3838942D02*
G01X5812797Y3849222D01*
%LPC*%
G75*
X5812797Y3849222D02*
G54D11*
X7474551Y3430423D02*
X7460297Y3437926D01*
G54D12*
X5916597Y6312522D02*
X5953437D01*
X5976597D02*
X6013437D01*
X6268757D02*
X6305597D01*
X6208757D02*
X6245597D01*
G54D13*
X6128562Y6312807D02*
X6177692D01*
G54D14*
X6337501Y6231972D02*
X6342261Y6229458D01*
G54D15*
X5940163Y3474246D02*
Y3374518D01*
%LPD*%
G75*
X5940163Y3374518D02*
G54D16*
X4212597Y6122052D03*
G54D17*
Y6240162D03*
G54D16*
X5708657Y3503942D03*
G54D17*
Y3385831D03*
X7874017Y6200792D03*
G54D16*
X7992126D03*
G54D18*
X7857937Y3543312D02*
X7862309Y3543803D01*
X7866462Y3545253D01*
X7870190Y3547589D01*
X7873306Y3550694D01*
X7875655Y3554413D01*
X7877120Y3558561D01*
X7877297Y3559412D01*
X8088707Y3719672D02*
X8074793Y3720442D01*
X8060858Y3720226D01*
X8046975Y3719025D01*
X8033210Y3716844D01*
X8019635Y3713696D01*
X8006317Y3709594D01*
X7993321Y3704561D01*
X7980715Y3698621D01*
X7968561Y3691804D01*
X7956919Y3684144D01*
X7945848Y3675679D01*
X7935404Y3666453D01*
X7925639Y3656511D01*
X7916601Y3645903D01*
X7908337Y3634682D01*
X7900888Y3622904D01*
X7894290Y3610629D01*
X7888577Y3597918D01*
X7883778Y3584835D01*
X7879917Y3571445D01*
X7877317Y3559502D01*
X8088767Y3719662D02*
X8088757D01*
X8088767D02*
X8093165Y3719755D01*
X8097432Y3720822D01*
X8101355Y3722810D01*
X8104740Y3725620D01*
X8107415Y3729111D01*
X8109249Y3733109D01*
X8110150Y3737414D01*
X8110237Y3739262D01*
Y6318902D01*
X8109746Y6323273D01*
X8108296Y6327427D01*
X8105960Y6331154D01*
X8102855Y6334271D01*
X8099136Y6336620D01*
X8094988Y6338084D01*
X8090618Y6338592D01*
X8090547Y6338592D01*
X7496017D01*
X7489810Y6338098D01*
X7483758Y6336632D01*
X7478013Y6334230D01*
X7472719Y6330953D01*
X7468177Y6327052D01*
X7180667Y6039552D01*
X7142627D01*
X6855117Y6327052D01*
X6850381Y6331094D01*
X6845067Y6334340D01*
X6839307Y6336706D01*
X6833247Y6338135D01*
X6827277Y6338592D01*
X6665297D01*
Y6295532D01*
X6485057D01*
Y6338592D01*
X5377447D01*
X5371240Y6338098D01*
X5365188Y6336632D01*
X5359443Y6334230D01*
X5354149Y6330953D01*
X5349607Y6327052D01*
X5062097Y6039552D01*
X5024057D01*
X4736547Y6327052D01*
X4731811Y6331094D01*
X4726497Y6334340D01*
X4720737Y6336706D01*
X4714677Y6338135D01*
X4708707Y6338592D01*
X4114177D01*
X4109805Y6338100D01*
X4105652Y6336651D01*
X4101924Y6334315D01*
X4098808Y6331210D01*
X4096459Y6327490D01*
X4094994Y6323342D01*
X4094487Y6318973D01*
X4094487Y6318902D01*
Y4429142D01*
X4094978Y4424770D01*
X4096428Y4420617D01*
X4098764Y4416889D01*
X4101869Y4413773D01*
X4105588Y4411424D01*
X4109736Y4409959D01*
X4114106Y4409452D01*
X4114177Y4409452D01*
X4547247D01*
Y3809142D01*
X4339247D01*
Y3771012D01*
X4259217D01*
Y3929142D01*
X4239527Y3948822D01*
X4137127D01*
X4117437Y3929142D01*
Y3731162D01*
X4137127Y3711472D01*
X4339217D01*
Y3671252D01*
X4547247D01*
Y3287402D01*
X4547738Y3283031D01*
X4549188Y3278879D01*
X4551524Y3275152D01*
X4554629Y3272038D01*
X4558348Y3269690D01*
X4562495Y3268227D01*
X4566864Y3267722D01*
X4566927Y3267722D01*
X7460627D01*
X7464998Y3268212D01*
X7469151Y3269660D01*
X7472879Y3271995D01*
X7475995Y3275099D01*
X7478344Y3278818D01*
X7479107Y3280612D01*
X7855907Y3543312D02*
X7836007Y3542819D01*
X7816156Y3541340D01*
X7796402Y3538879D01*
X7776795Y3535443D01*
X7757382Y3531039D01*
X7738211Y3525679D01*
X7719329Y3519375D01*
X7700783Y3512143D01*
X7682618Y3504001D01*
X7664879Y3494969D01*
X7647609Y3485069D01*
X7630851Y3474325D01*
X7614646Y3462764D01*
X7599034Y3450414D01*
X7584053Y3437306D01*
X7569740Y3423471D01*
X7556131Y3408944D01*
X7543257Y3393761D01*
X7531153Y3377958D01*
X7519846Y3361575D01*
X7509364Y3344652D01*
X7499735Y3327230D01*
X7490980Y3309352D01*
X7483122Y3291062D01*
X7479027Y3280402D01*
X7855907Y3543312D02*
X7857937D01*
X4280927Y5980322D02*
X4622047D01*
Y5759852D01*
X4280927D01*
Y5980322D01*
X7645667Y6062232D02*
X7891917D01*
Y5911642D01*
X7645667D01*
Y6062232D01*
X4969037Y5353092D02*
X5059767Y5276282D01*
X4963637Y5163192D01*
X4873127Y5239852D01*
X4969037Y5353112D01*
X4969247Y5352932D01*
X4969037Y5353092D01*
X6380837Y4162162D02*
X6464967Y4090922D01*
X6369717Y3977112D01*
X6285587Y4048352D01*
X6380837Y4162162D01*
X6623027Y5467782D02*
X6822837D01*
Y4803972D01*
X6923017Y4590142D01*
Y3972442D01*
X6966747D01*
Y4591432D01*
X6862627Y4827242D01*
Y5625992D01*
X6822837D01*
Y5511812D01*
X6623027D01*
Y5467782D01*
G54D19*
X7527247Y6258099D02*
Y6293099D01*
X7589247Y6258099D02*
Y6293099D01*
X7749247Y6258099D02*
Y6293099D01*
X7811247Y6258099D02*
Y6293099D01*
G54D20*
X5754177Y6286169D02*
Y6296169D01*
X5397177Y6286169D02*
Y6296169D01*
G54D18*
X5738926Y4008544D02*
X5770468Y4010132D01*
X5775558Y3937512D01*
X5744046Y3935922D01*
X5738926Y4008544D01*
G54D21*
X4531460Y4393664D03*
Y3824929D03*
X4323460Y3786799D03*
X4275004D03*
X4323430Y3695684D03*
X4531460Y3655464D03*
X6649510Y6311319D03*
X6500844D03*
X4296714Y5964534D03*
X4606260D03*
Y5775639D03*
X4296714D03*
X4970874Y5330851D03*
X5037493Y5274453D03*
X4961815Y5185424D03*
X4895376Y5241696D03*
X6382753Y4139852D03*
X6442786Y4089017D03*
X6367801Y3999421D03*
X6307768Y4050256D03*
X7661454Y6046444D03*
X7876130D03*
Y5927429D03*
X7661454D03*
G54D22*
X6931334Y3980948D03*
X6958119Y3981281D03*
X6632298Y5502353D03*
X6632374Y5476998D03*
G54D23*
X6950905Y3978281D02*
X6940096Y3979009D01*
X6940511Y3984206D02*
X6952371D01*
X6629261Y5480423D02*
Y5493643D01*
X6636302Y5483440D02*
Y5498303D01*
G54D49*
X2061129Y6399638D03*
G54D49*
X2159555D03*
G54D50*
X7913386Y6437017D03*
G54D51*
X7716535D03*
G54D50*
X905512D03*
G54D51*
X1102362D03*
G54D18*
X8110236Y6496072D02*
X8109744Y6502280D01*
X8108279Y6508332D01*
X8105878Y6514077D01*
X8102601Y6519372D01*
X8098530Y6524085D01*
X8093767Y6528096D01*
X8088432Y6531306D01*
X8082657Y6533635D01*
X8076587Y6535024D01*
X8070866Y6535442D01*
X39370D02*
X33163Y6534950D01*
X27110Y6533485D01*
X21365Y6531084D01*
X16070Y6527807D01*
X11358Y6523736D01*
X7346Y6518973D01*
X4136Y6513638D01*
X1807Y6507863D01*
X418Y6501792D01*
X0Y6496072D01*
Y6378158D02*
Y6496072D01*
X39370Y6535442D02*
X8070866D01*
X8110236Y6496072D02*
Y6377962D01*
X8090547Y6338592D02*
Y6377962D01*
X8110236D01*
X649832Y6338788D02*
Y6378158D01*
X0D01*
X4113139Y6338569D02*
Y6378427D01*
X3544463D01*
Y6339057D01*
X5377447Y6338592D02*
Y6377962D01*
X4708707D01*
Y6338592D01*
X6665297D02*
Y6377962D01*
X6485057D01*
Y6338592D01*
X7496017D02*
Y6377962D01*
X6827277D01*
Y6338592D01*
G54D49*
X6049107Y135805D03*
G54D49*
X5950682D03*
G54D50*
X196850Y98425D03*
G54D51*
X393701D03*
G54D50*
X7401575D03*
G54D51*
X7204724D03*
G54D18*
X0Y39370D02*
X492Y33163D01*
X1957Y27110D01*
X4358Y21365D01*
X7635Y16070D01*
X11706Y11358D01*
X16469Y7346D01*
X21804Y4136D01*
X27580Y1807D01*
X33650Y418D01*
X39370Y0D01*
X8070866D02*
X8077074Y492D01*
X8083126Y1957D01*
X8088871Y4358D01*
X8094166Y7635D01*
X8098879Y11706D01*
X8102890Y16469D01*
X8106100Y21804D01*
X8108429Y27580D01*
X8109818Y33650D01*
X8110236Y39370D01*
Y157284D02*
Y39370D01*
X8070866Y0D02*
X39370D01*
X0Y39370D02*
Y157480D01*
X19689Y196850D02*
Y157480D01*
X0D01*
X7460404Y196654D02*
Y157284D01*
X8110236D01*
X3997097Y196874D02*
Y157015D01*
X4565773D01*
Y196386D01*
X2732789Y196850D02*
Y157480D01*
X3401529D01*
Y196850D01*
X1444939D02*
Y157480D01*
X1625179D01*
Y196850D01*
X614219D02*
Y157480D01*
X1282959D01*
Y196850D01*
G54D52*
X660517Y3280326D03*
X618000Y3255818D03*
G54D49*
X669670Y3284198D03*
X612115Y3251501D03*
X1227079Y3283868D03*
X2787550Y3283727D03*
X3345876Y3284218D03*
G54D53*
X1460451Y3283441D03*
X1609931Y3282659D03*
G54D49*
X3578541Y3252292D03*
G54D52*
X7450412Y3255393D03*
X7492928Y3279901D03*
G54D49*
X7441258Y3251522D03*
X7498814Y3284218D03*
X6883849Y3251851D03*
X5323379Y3251992D03*
X4765053Y3251501D03*
G54D53*
X6650478Y3252278D03*
X6500998Y3253060D03*
G54D49*
X4532388Y3283428D03*
M02*
