M48
METRIC,LZ
VER,1
FMAT,2
T01C0.3
T02C0.4
T03C0.5
T04C0.502
T05C0.6
T06C0.65
T07C0.8
T08C0.802
T09C0.85
T10C0.95
T11C1.05
T12C1.15
T13C1.25
T14C1.75
T15C2.05
T16C2.35
T17C0.651
T18C0.751
T19C0.653
DETECT,ON
ATC,ON
%
G93X0Y0
T01
X201497Y140004
X2025Y141
X2025Y142
X2015Y142
X2025Y143
X201503Y143003
X2025Y144
X2025Y145
X2025Y146
X2025Y147
X2025Y148
X2025Y149
X2025Y15
X2025Y151
X2025Y152
X2025Y153
X1995Y1545
X1985Y1545
X1985Y1555
X1985Y1565
X1975Y1565
X1975Y1555
X1975Y1545
X1965Y1545
X1965Y1555
X1965Y1565
X1965Y1575
X1975Y1575
X1985Y1575
X1995Y159
X2Y1595
X2005Y159
X199506Y159999
X2005Y16
X2015Y16
X2025Y16
X2035Y16
X1995Y1565
X1995Y1555
X2005Y1545
X2005Y1555
X2015Y155
X2015Y1545
X2025Y155
X2035Y155
X2025Y154
X2035Y154
X2035Y153
X2035Y152
X2035Y151
X2035Y15
X2035Y149
X2035Y148
X2035Y147
X2035Y146
X2035Y145
X2035Y144
X2035Y143
X2035Y142
X2035Y141
X2035Y14
X2025Y139
X2025Y14
X2035Y139
X2035Y138
X2025Y138
X2025Y137
X2025Y136
X2035Y137
X2035Y136
X2035Y135
X2035Y134
X2025Y135
X2025Y134
X2025Y133
X2025Y132
X2035Y133
X2035Y132
X2035Y131
X2025Y131
X2035Y13
X2035Y129
X2025Y13
X202397Y129075
X2035Y127
X2025Y127
X2025Y126
X2035Y126
X2025Y125
X2025Y124
X2035Y125
X2035Y124
X2025Y122
X2025Y121
X2035Y122
X2035Y121
X2035Y12
X2035Y119
X2025Y12
X2025Y119
X2025Y118
X2025Y117
X2035Y118
X2035Y117
X2035Y116
X2035Y115
X2035Y114
X2025Y115
X2025Y114
X2025Y113
X2035Y113
X2035Y112
X2035Y111
X2035Y11
X2035Y109
X2035Y108
X2025Y108
X2025Y109
X2025Y11
X2025Y111
X2025Y112
X1725Y134
X1725Y133
X1725Y132
X1725Y131
X1725Y13
X172837Y128988
X172837Y127961
X1725Y127
X1725Y126
X1725Y125
X1725Y124
X171516Y124652
X167231Y127348
X163495Y127005
X163483Y126057
X165226Y123833
X17084Y118165
X170791Y116024
X1745Y115
X1745Y11
X1735Y111
X1725Y11
X171262Y110431
X1673Y1131
X1672Y1113
X1655Y109
X1605Y112
X156049Y107454
X154966Y107506
X157551Y110017
X1586Y1113
X160901Y114209
X1586Y1137
X154079Y118941
X15599Y119927
X156789Y122638
X1588Y1272
X156654Y125689
X155494Y125014
X1545Y126
X153461Y125041
X1525Y126
X1515Y125
X1505Y126
X1495Y125
X1485Y126
X1465Y126
X14473Y127196
X1445Y126
X1485Y123
X15Y1237
X151616Y123824
X150027Y122608
X15Y1204
X146446Y119061
X145509Y119097
X145947Y118257
X145276Y115934
X146449Y115897
X152481Y109893
X152886Y107805
X152013Y1078
X150694Y109846
X149225Y10986
X147599Y109705
X1435Y1074
X143108Y112461
X142517Y113641
X142518Y115007
X14137Y113274
X139Y111949
X1352Y1068
X134487Y106973
X1325Y1061
X1306Y1047
X127479Y102622
X124871Y1069
X1247Y1074
X1242Y1093
X1245Y111
X1245Y112
X1245Y113
X1265Y111
X1265Y112
X1265Y113
X1278Y1131
X1293Y1118
X1331Y1074
X134497Y107996
X134198Y108654
X132408Y109612
X1268Y1164
X1229Y1185
X123468Y121204
X129902Y122435
X129907Y12082
X130821Y118936
X131432Y118356
X1321Y1189
X1328Y1184
X1335Y1189
X1343Y1184
X1349Y1189
X1355Y1184
X1361Y1164
X1387Y1189
X1369Y1192
X1355Y123
X1383Y1258
X1377Y129099
X14Y129662
X1413Y133
X1406Y1344
X137184Y130901
X1335Y131
X1321Y129099
X130821Y1302
X131432Y130747
X1305Y132
X1325Y132
X1405Y1395
X1413Y14
X1405Y1406
X1411Y1429
X1411Y1436
X1405Y1432
X117498Y121069
X1135Y117
X1125Y117
X1135Y1155
X1115Y114
X1125Y114
X1135Y114
X1165Y112
X1165Y109
X1165Y106
X1165Y103
X1185Y102
X120759Y097621
X119835Y096723
X128105Y086506
X128803Y086498
X1305Y085
X1305Y084
X1325Y084
X1345Y084
X1365Y084
X1385Y084
X1385Y085
X1365Y085
X1345Y085
X1325Y085
X130763Y088909
X131404Y088903
X132032Y088903
X13374Y088885
X134386Y088885
X134992Y088891
X136403Y088945
X137014Y088938
X137633Y088958
X137024Y093712
X135326Y093618
X132387Y094691
X132375Y095403
X132239Y099323
X132232Y099888
X13418Y102651
X1331Y103621
X13415Y103442
X1378Y1055
X1384Y1048
X139Y1044
X141406Y106572
X140894Y103963
X1413Y1021
X140555Y102088
X138781Y099572
X13874Y098966
X14411Y095449
X143781Y098402
X150996Y104513
X149877Y1023
X1496Y0991
X1475Y095
X1494Y0956
X14989Y094431
X150258Y093368
X1508Y093
X1505Y087653
X1495Y085
X1505Y084
X148566Y082434
X1485Y084
X1465Y084
X1455Y085
X1445Y084
X1435Y085
X1425Y084
X1415Y085
X1366Y0799
X1355Y078
X134818Y077294
X138045Y079663
X1384Y0775
X1391Y0775
X141Y0776
X1423Y0777
X1415Y072
X1415Y071
X1415Y0701
X15364Y082423
X1575Y084
X1595Y084
X160312Y085077
X1615Y084
X161197Y082435
X160864Y079961
X1635Y084
X1645Y087
X1655Y088
X1645Y089
X1616Y0897
X1616Y0906
X1565Y0908
X15558Y091237
X15464Y091225
X1586Y0986
X157585Y099188
X1553Y1004
X1553Y1011
X157273Y1023
X155336Y105177
X156Y1051
X156701Y105124
X1615Y107
X162489Y107026
X1635Y107
X164491Y106994
X1655Y107
X1655Y105
X164732Y103091
X164346Y102411
X165723Y095648
X165746Y094856
X1681Y0938
X16886Y09371
X169944Y093721
X173375Y096599
X174636Y092893
X1765Y092
X1765Y091
X1765Y09
X175485Y089972
X1755Y088
X1735Y089999
X1735Y088
X1745Y087
X1725Y087
X1705Y087
X1695Y088
X1685Y087
X1675Y088
X1665Y087
X169501Y083992
X171508Y083998
X1725Y085
X1735Y084
X1745Y085
X1755Y084
X1765Y085
X1775Y084
X1785Y085
X1775Y087
X1775Y088
X1805Y09
X1805Y091
X1805Y092
X1835Y09
X1835Y092
X1845Y092
X1855Y092
X1865Y092
X1875Y092
X1885Y092
X1895Y092
X1905Y092
X1915Y092
X1925Y092
X1935Y092
X2025Y101
X2025Y102
X2025Y103
X2025Y104
X2025Y105
X2025Y106
X2035Y107
X2035Y106
X2035Y105
X2035Y104
X2035Y103
X2035Y102
X2035Y101
X202811Y10004
X2035Y1
X2035Y099
X2025Y099
X2035Y098
X2025Y098
X2025Y097
X2015Y097
X2015Y096
X2024Y096
X2015Y095
X2005Y095
X2003Y0942
X1995Y094
X1995Y0931
X1985Y093
X1985Y092
X1975Y093
X1975Y092
X1965Y092
X1955Y092
X1945Y092
X1935Y091
X1925Y091
X1915Y09
X1925Y09
X1919Y089
X1895Y0869
X1886Y0861
X1885Y087
X1875Y086
X1875Y085
X1865Y085
X1865Y084
X1845Y084
X1845Y085
X1855Y088
X1875Y09
X1855Y09
X1835Y088
X1835Y086
X1825Y085
X1825Y084
X167231Y049348
X163495Y049005
X163483Y048057
X1745Y037
X1725Y046
X1725Y047
X1725Y048
X171516Y046651
X1725Y049
X172837Y049961
X172837Y050988
X1725Y052
X1725Y053
X1725Y054
X1725Y055
X1725Y056
X1965Y0765
X1975Y0765
X1985Y0765
X1985Y0775
X1985Y0785
X1975Y0785
X1975Y0775
X1965Y0775
X1965Y0785
X1965Y0795
X1975Y0795
X1985Y0795
X1995Y081
X2Y0815
X2005Y081
X199506Y081999
X2005Y082
X2015Y082
X2025Y082
X2035Y082
X1995Y0785
X1995Y0775
X1995Y0765
X2005Y0775
X2005Y0765
X2015Y0765
X2015Y077
X2025Y077
X2035Y077
X2035Y076
X2025Y076
X2025Y075
X2035Y075
X2025Y074
X2025Y073
X2035Y074
X2035Y073
X2035Y072
X2025Y071
X2025Y072
X2035Y071
X2025Y07
X2035Y07
X2035Y069
X2035Y068
X2025Y069
X2025Y068
X2035Y067
X2035Y066
X2025Y067
X2025Y066
X201503Y065003
X2025Y065
X2015Y064
X201497Y062003
X2025Y062
X2025Y063
X2025Y064
X2035Y065
X2035Y064
X2035Y063
X2035Y062
X2035Y061
X2025Y061
X2025Y06
X2025Y059
X2035Y06
X2035Y059
X2035Y058
X2035Y057
X2025Y058
X2025Y057
X2025Y056
X2035Y056
X2025Y055
X2025Y054
X2035Y055
X2035Y054
X2035Y053
X2025Y053
X2025Y052
X202397Y051074
X2035Y052
X2035Y051
X2035Y049
X2025Y049
X2025Y048
X2025Y047
X2035Y048
X2035Y047
X2035Y046
X2025Y046
X2025Y044
X2025Y043
X2035Y044
X2035Y043
X2035Y042
X2035Y041
X2025Y042
X2025Y041
X2025Y04
X2025Y039
X2035Y04
X2035Y039
X2035Y038
X2035Y037
X2035Y036
X2025Y037
X2025Y036
X2025Y035
X2025Y034
X2035Y035
X2035Y034
X2035Y033
X2035Y032
X2025Y033
X2025Y032
X2025Y031
X2035Y031
X2035Y03
X2025Y03
X2035Y029
X2025Y028
X2035Y028
X2035Y027
X2035Y026
X2025Y027
X2025Y026
X2025Y025
X2035Y025
X2035Y024
X2035Y023
X2025Y024
X2025Y023
X202811Y02204
X2035Y022
X2025Y021
X2035Y021
X2035Y02
X2025Y02
X2025Y019
X2015Y019
X2024Y018
X2015Y018
X2015Y017
X2005Y017
X2003Y0162
X1995Y016
X1995Y0151
X1985Y015
X1975Y015
X1985Y014
X1975Y014
X1965Y014
X1955Y014
X1945Y014
X1935Y014
X1925Y014
X1935Y013
X1925Y012
X1919Y011
X1915Y012
X1925Y013
X1915Y014
X1905Y014
X1895Y014
X1885Y014
X1875Y014
X1865Y014
X1875Y012
X1855Y01
X1885Y009
X1895Y0089
X1886Y0081
X1875Y008
X1875Y007
X1865Y006
X1865Y007
X1845Y007
X1845Y006
X1825Y006
X1825Y007
X1835Y008
X1835Y01
X1855Y012
X1855Y014
X1845Y014
X1835Y014
X1835Y012
X1805Y012
X1805Y013
X1805Y014
X173375Y018599
X174636Y014893
X1765Y014
X1765Y013
X1765Y012
X175485Y011972
X1735Y011999
X1735Y01
X1745Y009
X1755Y01
X1775Y01
X1775Y009
X1785Y007
X1775Y006
X1765Y007
X1755Y006
X1745Y007
X1735Y006
X1725Y007
X171508Y005998
X169501Y005992
X1725Y009
X1705Y009
X1695Y01
X1685Y009
X1675Y01
X1665Y009
X1655Y01
X1645Y009
X1635Y006
X1615Y006
X1595Y006
X1575Y006
X160312Y007077
X1645Y011
X169944Y015721
X16886Y015709
X1681Y0158
X165723Y017648
X165746Y016856
X1616Y0126
X1616Y0117
X1565Y0128
X15558Y013237
X1586Y0206
X157585Y021187
X1553Y0224
X1553Y0231
X157273Y0243
X156701Y027124
X156Y0271
X155336Y027177
X156049Y029454
X154966Y029506
X152481Y031893
X146449Y037897
X145276Y037934
X145947Y040257
X146446Y04106
X145509Y041097
X1485Y045
X15Y0457
X151616Y045823
X150027Y044608
X15Y0424
X154079Y040941
X15599Y041927
X160901Y036209
X1586Y0357
X1605Y034
X1586Y0333
X157551Y032017
X1615Y029
X162489Y029026
X1635Y029
X164491Y028994
X1655Y027
X164732Y02509
X164346Y024411
X1655Y029
X1655Y031
X1672Y0333
X1673Y0351
X171262Y032431
X1725Y032
X1735Y033
X1745Y032
X170791Y038024
X17084Y040165
X165226Y045833
X1588Y0492
X156654Y047689
X156789Y044638
X155494Y047014
X1545Y048
X153461Y047041
X1525Y048
X1515Y047
X1505Y048
X1495Y047
X1485Y048
X1465Y048
X14473Y049196
X1445Y048
X1383Y0478
X1355Y045
X1369Y0412
X1355Y0404
X1349Y0409
X1343Y0404
X1335Y0409
X1328Y0404
X1321Y0409
X131432Y040356
X130821Y040936
X129907Y04282
X129902Y044435
X1321Y051099
X130821Y0522
X131432Y052746
X1305Y054
X1325Y054
X1335Y053
X137184Y052901
X1377Y051099
X14Y051662
X1413Y055
X1406Y0564
X1405Y0615
X1413Y062
X1405Y0626
X1411Y0649
X1405Y0652
X1411Y0656
X1405Y066
X134936Y063792
X134931Y065436
X133664Y064397
X132579Y063357
X133675Y063094
X130444Y05724
X1285Y054
X125319Y052215
X124654Y052777
X12347Y053735
X124628Y051624
X123768Y049963
X123468Y043204
X1229Y0405
X1268Y0384
X1293Y0338
X1278Y0351
X1265Y035
X1265Y034
X1265Y033
X1245Y035
X1245Y034
X1245Y033
X1242Y0313
X1247Y0294
X124871Y028899
X127479Y024622
X1306Y0267
X1331Y025621
X13415Y025442
X13418Y024651
X132232Y021887
X132239Y021323
X132375Y017403
X132387Y016691
X130763Y010909
X131404Y010903
X132032Y010903
X13374Y010885
X134386Y010885
X134992Y010891
X136403Y010945
X137014Y010938
X137633Y010958
X135326Y015618
X137024Y015711
X13874Y020966
X138781Y021572
X140555Y024088
X1413Y0241
X140894Y025963
X139Y0264
X1384Y0268
X1378Y0275
X1352Y0288
X134487Y028973
X1325Y0281
X1331Y0294
X134497Y029996
X134198Y030654
X132408Y031612
X1361Y0384
X1387Y0409
X142518Y037007
X142517Y035641
X143108Y034461
X14137Y035274
X139Y033949
X141406Y028572
X1435Y0294
X147599Y031705
X149225Y03186
X150694Y031846
X152013Y0298
X152886Y029805
X150996Y026513
X149877Y0243
X1496Y0211
X14411Y017449
X143781Y020402
X1475Y017
X1494Y0176
X14989Y016431
X150258Y015368
X1508Y015
X15464Y013225
X1505Y009653
X1505Y006
X1495Y007
X1485Y006
X1465Y006
X1455Y007
X1445Y006
X1435Y007
X1425Y006
X1415Y007
X1385Y007
X1385Y006
X1365Y007
X1365Y006
X1345Y006
X1345Y007
X1325Y007
X1325Y006
X1305Y006
X1305Y007
X128803Y008498
X128105Y008506
X1255Y006
X1255Y007
X1235Y006
X1235Y007
X1185Y007
X1185Y006
X1165Y006
X1165Y007
X116963Y009823
X116969Y010484
X119835Y018723
X120759Y019621
X1185Y024
X1165Y025
X1165Y028
X1165Y031
X1165Y034
X1135Y036
X1135Y0375
X1135Y039
X1125Y039
X1115Y039
X1105Y039
X1095Y039
X1105Y038
X1125Y036
X1115Y036
X1105Y036
X1105Y037
X1095Y036
X1085Y036
X107488Y036002
X105Y037
X105Y038
X105Y039
X1055Y043
X1055Y045
X1075Y043
X1075Y045
X1075Y047
X1055Y047
X1075Y049
X1055Y049
X1075Y051
X1075Y053
X1055Y051
X1055Y053
X1055Y055
X1055Y057
X1045Y059
X1045Y06
X1045Y061
X1045Y062
X1045Y063
X1055Y063
X1055Y062
X1055Y061
X1055Y06
X1055Y059
X1075Y055
X1095Y055
X1095Y053
X1095Y051
X1115Y053
X1115Y055
X1135Y055
X1135Y053
X114425Y051603
X1135Y051
X1115Y051
X1115Y049
X1135Y049
X1135Y047
X1115Y047
X1095Y049
X1095Y047
X1095Y045
X1095Y043
X1095Y041
X1105Y041
X1115Y041
X1125Y041
X1115Y043
X1135Y045
X1115Y045
X1135Y043
X1155Y04483
X115547Y04301
X117498Y043069
X1175Y045
X117729Y049538
X1175Y051
X115381Y052215
X115961Y052777
X11751Y054045
X1175Y055
X119531Y054032
X1195Y055
X118537Y0562
X122302Y060198
X122785Y059365
X124033Y059736
X122301Y061162
X1185Y062
X118001Y061223
X118Y0605
X118Y0595
X1167Y0606
X1147Y0593
X1145Y062
X1135Y062
X1125Y062
X1125Y063
X1125Y064
X108878Y062202
X108901Y063024
X108907Y063888
X1055Y066
X1045Y066
X1055Y067
X1055Y068
X1045Y067
X1045Y068
X1045Y069
X1045Y07
X1045Y071
X1045Y072
X1045Y073
X1045Y074
X1045Y075
X1055Y074
X1095Y077
X1105Y077
X1115Y077
X1125Y077
X1135Y078
X1125Y078
X1115Y078
X1105Y078
X1095Y078
X1055Y075
X1045Y076
X1045Y077
X1045Y078
X1045Y079
X1045Y08
X1055Y081
X1055Y08
X1045Y081
X1045Y082
X1055Y082
X1065Y082
X1075Y082
X1085Y082
X1095Y082
X1105Y082
X1115Y082
X1125Y082
X1135Y082
X1165Y085
X1165Y084
X122759Y075528
X124147Y074799
X121537Y071252
X1341Y0766
X1255Y085
X1255Y084
X1235Y084
X1235Y085
X1185Y084
X1185Y085
X116963Y087824
X116969Y088484
X1015Y1
X1005Y1
X1005Y099
X1005Y098
X1015Y099
X1015Y098
X1015Y097
X1015Y096
X1015Y095
X1015Y094
X1015Y093
X1015Y092
X1015Y091
X1005Y092
X1005Y091
X1015Y09
X1015Y089
X1015Y088
X1015Y087
X1015Y086
X1015Y085
X1015Y084
X1005Y084
X1005Y085
X1005Y086
X0965Y089
X0955Y089
X0945Y089
X0935Y089
X0925Y088
X0935Y088
X0945Y088
X0955Y088
X0965Y088
X0995Y084
X0985Y084
X0975Y084
X0965Y084
X0955Y084
X0945Y084
X0935Y084
X0925Y084
X0895Y082
X0895Y081
X089031Y077517
X089037Y078177
X0875Y081
X0875Y082
X0825Y081
X0825Y082
X0805Y082
X0805Y081
X077895Y079494
X077197Y079503
X075237Y077091
X074596Y077097
X070674Y072382
X073613Y07131
X073625Y070597
X06726Y067034
X067219Y066428
X07185Y062558
X0729Y062379
X07182Y063349
X073768Y066113
X073761Y066677
X078521Y063378
X0754Y0613
X0735Y0599
X0729Y0586
X073592Y056389
X071802Y057346
X071503Y058004
X071513Y059027
X0708Y0592
X0682Y0605
X0676Y0612
X067Y0616
X065445Y063912
X0647Y0639
X065106Y062037
X064594Y059428
X0625Y0586
X058401Y056296
X056775Y05614
X055306Y056154
X053519Y056107
X059551Y050103
X060724Y050066
X063482Y050993
X06463Y052726
X063483Y05236
X062892Y053539
X067Y054051
X0699Y0496
X0673Y0471
X0691Y0468
X0705Y0476
X0711Y0471
X0717Y0476
X0725Y0471
X0732Y0476
X0739Y0471
X0705Y043
X0739Y036901
X074568Y035254
X075179Y035801
X0775Y034
X080681Y035786
X081346Y035223
X081372Y036376
X082232Y038037
X076098Y043565
X076093Y045181
X075179Y047064
X074568Y047644
X0782Y0529
X0767Y0542
X0818Y0567
X0813Y0586
X081129Y059101
X086165Y069278
X085241Y068379
X0875Y064
X0895Y063
X0895Y06
X0895Y057
X0895Y054
X0815Y055
X0815Y054
X0815Y053
X0795Y055
X0795Y054
X0795Y053
X0792Y0496
X0831Y0475
X082532Y044796
X0885Y043
X088502Y044932
X090453Y04499
X0905Y043171
X0925Y045
X0925Y043
X0945Y043
X0945Y045
X0935Y047
X0945Y047
X0955Y047
X0965Y047
X0965Y049
X0955Y05
X0955Y049
X0945Y049
X0935Y049
X0925Y049
X0925Y0505
X0925Y052
X0935Y052
X0945Y052
X0955Y052
X0955Y051
X0965Y052
X0975Y052
X098512Y051998
X101Y051
X101Y05
X101Y049
X1005Y045
X1005Y043
X0985Y043
X0985Y045
X0965Y045
X0965Y043
X0945Y041
X0945Y039
X0925Y041
X0925Y039
X0925Y037
X091575Y036397
X090619Y035786
X088271Y038462
X0885Y037
X090039Y035223
X08849Y033955
X0885Y033
X087463Y0318
X0865Y033
X086469Y033968
X08253Y034265
X081967Y028264
X083215Y028635
X083698Y027802
X083699Y026838
X0875Y026
X087999Y026777
X088Y0275
X088Y0285
X0893Y0274
X0915Y026
X0925Y026
X0935Y024
X0935Y025
X0935Y026
X0913Y0287
X0925Y033
X0925Y035
X0945Y037
X0945Y035
X0945Y033
X0965Y033
X0965Y035
X0965Y037
X0985Y039
X1005Y039
X1005Y041
X0985Y041
X0965Y041
X0965Y039
X0985Y037
X1005Y037
X1005Y035
X0985Y033
X0985Y035
X1005Y033
X1005Y031
X1005Y029
X1015Y029
X1015Y028
X1015Y027
X1015Y026
X1015Y025
X1005Y025
X1005Y026
X1005Y027
X1005Y028
X097122Y025799
X097099Y024976
X097093Y024112
X1005Y02
X1005Y021
X1005Y022
X1015Y022
X1015Y021
X1015Y02
X1015Y019
X1015Y018
X1015Y017
X1015Y016
X1015Y015
X1005Y014
X1005Y013
X1015Y014
X1015Y013
X1015Y012
X1015Y011
X1015Y01
X1015Y009
X1015Y008
X1005Y008
X1005Y007
X1015Y006
X1015Y007
X1005Y006
X0995Y006
X0985Y006
X0975Y006
X0965Y006
X0955Y006
X0945Y006
X0935Y006
X0925Y006
X0935Y01
X0945Y01
X0955Y01
X0965Y01
X0965Y011
X0955Y011
X0945Y011
X0935Y011
X0925Y01
X084463Y016749
X083241Y012472
X081853Y013201
X073421Y024643
X072336Y023603
X071069Y022564
X0645Y0179
X0645Y017
X0645Y016
X071182Y010706
X0719Y0114
X0705Y01
X0694Y0081
X067955Y008337
X0676Y0105
X0669Y0105
X065Y0104
X0637Y0103
X057434Y005567
X05236Y005577
X044803Y005565
X045136Y008039
X0647Y026
X0655Y0265
X0655Y0254
X0649Y0231
X0655Y0228
X0649Y0224
X0655Y022
X071064Y024208
X072325Y024907
X075556Y03076
X0755Y034
X0735Y034
X0725Y035
X0677Y0402
X0683Y036901
X068816Y0351
X0654Y0316
X0647Y033
X066Y036338
X0615Y04
X06127Y038804
X0595Y04
X0575Y04
X0565Y041
X0555Y04
X0545Y041
X0535Y04
X052539Y040959
X054384Y042177
X055973Y043392
X056Y0423
X0575Y043
X060491Y046903
X060053Y047743
X059554Y04694
X056Y0456
X051921Y047059
X05001Y046073
X049211Y043362
X0515Y04
X050506Y040986
X049346Y040311
X0472Y0388
X042505Y038995
X042517Y039944
X040774Y042167
X038769Y038652
X0335Y036
X0335Y035
X0335Y034
X0335Y033
X0335Y032
X033163Y037012
X033163Y03804
X0335Y039
X0335Y04
X0335Y041
X034484Y041349
X0335Y042
X03516Y047835
X035209Y049977
X0315Y051
X0315Y056
X0325Y055
X0335Y056
X034738Y055569
X0387Y0529
X0388Y0547
X0405Y057
X045099Y051791
X0474Y0523
X0455Y054
X0474Y0547
X048449Y055983
X051034Y058494
X049951Y058546
X041654Y063589
X041268Y06291
X0445Y059
X043511Y058974
X0425Y059
X041509Y059007
X0405Y059
X0405Y061
X0255Y075
X0255Y074
X0225Y076
X0225Y074
X0215Y074
X0205Y074
X0035Y058
X0035Y057
X0035Y056
X0035Y055
X0025Y054
X0025Y053
X0025Y052
X0025Y051
X0025Y05
X0025Y049
X0025Y048
X0025Y047
X0025Y046
X0025Y045
X0025Y044
X0025Y042
X0025Y041
X0035Y04
X0035Y039
X0025Y037
X0025Y036
X0025Y035
X0025Y034
X0035Y033
X0035Y032
X0035Y031
X0035Y03
X0035Y029
X0035Y028
X0035Y027
X0035Y026
X004503Y025997
X0035Y025
X0045Y024
X0035Y024
X0025Y023
X0025Y022
X0025Y021
X0025Y02
X0025Y019
X0025Y018
X0025Y017
X0025Y016
X0025Y015
X0025Y014
X0025Y013
X0025Y012
X0025Y011
X0025Y006
X0035Y006
X0045Y006
X0055Y007
X006Y0065
X0055Y006
X006494Y006001
X0065Y007
X0075Y0085
X0085Y0085
X0095Y0085
X0095Y0095
X0085Y0095
X0075Y0105
X0075Y0095
X0085Y0105
X0095Y0105
X0095Y0115
X0085Y0115
X0075Y0115
X0065Y0115
X0065Y0105
X0065Y0095
X0055Y0105
X0055Y0115
X0045Y0115
X0045Y011
X0035Y011
X0035Y012
X0035Y013
X0035Y014
X0035Y015
X0035Y016
X0035Y017
X0035Y018
X0035Y019
X0035Y02
X0035Y021
X0035Y022
X004497Y022997
X0035Y023
X0025Y024
X0025Y025
X0025Y026
X0025Y027
X0025Y028
X0025Y029
X0025Y03
X0025Y031
X0025Y032
X0025Y033
X0035Y034
X0035Y035
X0035Y036
X003603Y036926
X0025Y039
X0025Y04
X0035Y041
X0035Y042
X0035Y044
X0035Y045
X0035Y046
X0035Y047
X0035Y048
X0035Y049
X0035Y051
X0035Y052
X0035Y053
X0035Y054
X0025Y055
X0025Y056
X0025Y057
X0025Y058
X0025Y059
X0025Y06
X0035Y06
X0035Y061
X0025Y062
X0025Y061
X0035Y062
X0035Y063
X0025Y063
X0025Y064
X0025Y065
X0035Y064
X0035Y065
X003189Y06596
X0025Y066
X0035Y067
X0025Y067
X0025Y068
X0035Y068
X0035Y069
X0045Y069
X0045Y07
X0036Y07
X0045Y071
X0055Y071
X0057Y0718
X0065Y072
X0065Y0729
X0075Y073
X0075Y074
X0085Y073
X0085Y074
X0095Y074
X0105Y074
X0115Y074
X0125Y074
X0135Y074
X0125Y075
X0135Y076
X0141Y077
X0145Y076
X0135Y075
X0145Y074
X0155Y074
X0165Y074
X0175Y074
X0185Y074
X0195Y074
X0185Y076
X0205Y076
X0205Y078
X0095Y0885
X0095Y0875
X0085Y0875
X0085Y0885
X0095Y0895
X0085Y0895
X0075Y0895
X0075Y0885
X0075Y0875
X0065Y0875
X0065Y0885
X0065Y0895
X0055Y0895
X0055Y0885
X0025Y084
X0035Y084
X0045Y084
X0055Y084
X006494Y084001
X006Y0845
X0055Y085
X0065Y085
X0075Y0865
X0085Y0865
X0095Y0865
X0165Y0791
X0174Y0799
X0175Y079
X0185Y08
X0185Y081
X0195Y081
X0195Y082
X0215Y081
X0215Y082
X0235Y082
X0235Y081
X0225Y08
X0225Y078
X0255Y076
X0285Y079
X0285Y078
X0305Y078
X0275Y081
X0285Y082
X0295Y081
X0305Y082
X0315Y081
X0325Y082
X034492Y082002
X0335Y081
X0335Y079
X0325Y078
X0315Y079
X0325Y076001
X030515Y076028
X0295Y076
X0295Y075
X0295Y074
X031364Y073108
X032625Y069401
X036056Y07228
X03714Y072291
X0379Y0722
X040254Y071144
X040277Y070352
X0474Y0674
X048415Y066813
X0507Y0656
X0507Y0649
X048727Y0637
X049299Y060876
X05Y0609
X050664Y060823
X053114Y058195
X053987Y058201
X055004Y061488
X056123Y0637
X0564Y0669
X062219Y067599
X06189Y070551
X0585Y071
X0566Y0704
X05611Y07157
X055742Y072632
X0552Y073
X05136Y074775
X05042Y074763
X0495Y0752
X0444Y0763
X0444Y0754
X0415Y077
X0415Y079
X0405Y078
X0395Y079
X0385Y078
X0375Y079
X0365Y078
X0355Y079
X036499Y082008
X0425Y082
X0445Y082
X044803Y083565
X045136Y086039
X0465Y082
X045688Y080923
X0485Y082
X05236Y083577
X0555Y078347
X0565Y081
X0555Y082
X057434Y083567
X0575Y082
X0595Y082
X0605Y081
X0615Y082
X0625Y081
X0635Y082
X0645Y081
X068367Y077042
X068986Y077062
X069597Y077055
X068976Y072289
X071008Y077109
X071613Y077115
X07226Y077115
X073968Y077097
X0755Y081
X0755Y082
X0735Y082
X0735Y081
X0715Y081
X0715Y082
X0695Y082
X0695Y081
X0675Y081
X0675Y082
X067955Y086337
X0694Y0861
X0705Y088
X0719Y0894
X071182Y088706
X0676Y0885
X0669Y0885
X065Y0884
X0637Y0883
X0645Y094
X0645Y095
X0645Y0959
X0655Y1
X0649Y1004
X0655Y1008
X0649Y1011
X0655Y1034
X0647Y104
X0655Y1045
X071069Y100564
X071064Y102208
X072325Y102907
X073421Y102643
X072336Y101604
X081853Y091201
X083241Y090472
X084463Y094749
X083699Y104838
X081967Y106264
X083215Y106635
X083698Y105802
X0875Y104
X087999Y104777
X088Y1055
X088Y1065
X0893Y1054
X0913Y1067
X0915Y104
X0925Y104
X0935Y104
X0935Y103
X0935Y102
X097093Y102112
X097099Y102976
X097122Y103799
X1005Y103
X1015Y103
X1015Y104
X1005Y104
X1005Y105
X1015Y105
X1005Y106
X1005Y107
X1015Y106
X1015Y107
X1005Y109
X1005Y111
X1005Y113
X1005Y115
X0985Y115
X0985Y113
X0985Y111
X0965Y111
X0965Y113
X0945Y111
X0925Y111
X0925Y113
X091575Y114397
X090619Y113786
X090039Y113224
X08849Y111955
X0885Y111
X087463Y1098
X08253Y112265
X081346Y113224
X080681Y113786
X081372Y114376
X082232Y116037
X0865Y111
X086469Y111969
X0885Y115
X088271Y116462
X0885Y121
X082532Y122797
X0831Y1255
X0792Y1276
X076098Y121565
X076093Y123181
X075179Y125064
X074568Y125644
X0739Y1251
X0705Y121
X0677Y1182
X0683Y114901
X0739Y114901
X074568Y113254
X075179Y113801
X0775Y112
X075556Y108761
X0755Y112
X0735Y112
X0725Y113
X068816Y1131
X0654Y1096
X0647Y111
X066Y114338
X0615Y118
X06127Y116804
X0595Y118
X0575Y118
X0565Y119
X0555Y118
X0545Y119
X0535Y118
X0515Y118
X052539Y118959
X054384Y120177
X055973Y121392
X056Y1203
X0575Y121
X056Y1236
X059554Y12494
X060491Y124904
X060053Y125743
X059551Y128103
X060724Y128066
X063482Y128993
X063483Y13036
X062892Y131539
X06463Y130726
X067Y132051
X0699Y1276
X0673Y1251
X0691Y1248
X0705Y1256
X0711Y1251
X0717Y1256
X0725Y1251
X0732Y1256
X0795Y131
X0782Y1309
X0767Y1322
X073592Y134389
X0729Y1366
X071802Y135346
X071503Y136004
X071513Y137027
X0708Y1372
X0682Y1385
X0676Y1392
X067Y1396
X065445Y141912
X0647Y1419
X065106Y140037
X064594Y137428
X0625Y1366
X058401Y134296
X056775Y13414
X055306Y134154
X053519Y134107
X053114Y136195
X053987Y136201
X055004Y139488
X056123Y1417
X0564Y1449
X062219Y145599
X06189Y148551
X0585Y149
X0566Y1484
X05611Y14957
X055742Y150632
X0552Y151
X05136Y152775
X05042Y152763
X0495Y1532
X041654Y14159
X041268Y14091
X034738Y133569
X0335Y134
X0325Y133
X0315Y134
X0315Y129
X03516Y125835
X035209Y127977
X0387Y1309
X0388Y1327
X0405Y135
X0445Y137
X043511Y136974
X0425Y137
X041509Y137007
X0405Y137
X0405Y139
X0474Y1454
X048415Y144813
X0507Y1429
X0507Y1436
X048727Y1417
X049299Y138876
X05Y1389
X050664Y138823
X049951Y136546
X051034Y136494
X048449Y133984
X0474Y1327
X0455Y132
X045099Y129791
X0474Y1303
X051921Y125059
X05001Y124073
X049211Y121363
X050506Y118986
X049346Y118311
X0472Y1168
X042505Y116995
X042517Y117944
X040774Y120167
X038769Y116653
X034484Y119349
X0335Y12
X0335Y119
X0335Y118
X0335Y117
X033163Y11604
X033163Y115012
X0335Y114
X0335Y113
X0335Y112
X0335Y111
X0335Y11
X004503Y103997
X0035Y103
X0035Y102
X0045Y102
X0035Y101
X004497Y100997
X0035Y1
X0035Y099
X0035Y098
X0035Y097
X0035Y096
X0035Y095
X0035Y094
X0035Y093
X0035Y092
X0035Y091
X0035Y09
X0045Y0895
X0045Y089
X0035Y089
X0025Y089
X0025Y09
X0025Y091
X0025Y092
X0025Y093
X0025Y094
X0025Y095
X0025Y096
X0025Y097
X0025Y098
X0025Y099
X0025Y1
X0025Y101
X0025Y102
X0025Y103
X0025Y104
X0025Y105
X0035Y104
X0035Y105
X0035Y106
X0035Y107
X0025Y106
X0025Y107
X0025Y108
X0035Y108
X0025Y109
X0025Y11
X0035Y109
X0035Y11
X0035Y111
X0035Y112
X0025Y111
X0025Y112
X0035Y113
X0025Y113
X0025Y114
X0035Y114
X003603Y114926
X0025Y115
X0025Y117
X0035Y117
X0025Y118
X0035Y118
X0035Y119
X0035Y12
X0025Y119
X0025Y12
X0035Y122
X0025Y122
X0025Y123
X0035Y124
X0035Y123
X0025Y124
X0025Y125
X0035Y125
X0035Y126
X0035Y127
X0025Y126
X0025Y127
X0025Y128
X0025Y129
X0025Y13
X0035Y129
X0035Y13
X0035Y131
X0025Y131
X0025Y132
X0035Y132
X0035Y133
X0025Y134
X0025Y133
X0035Y134
X0025Y135
X0035Y135
X0035Y136
X0025Y136
X0025Y137
X0035Y138
X0025Y138
X0025Y139
X0035Y14
X0035Y139
X0025Y14
X0025Y141
X0035Y141
X0035Y142
X0025Y142
X0035Y143
X0025Y143
X003189Y14396
X0025Y144
X0035Y145
X0025Y145
X0025Y146
X0035Y146
X0035Y147
X0045Y147
X0045Y148
X0036Y148
X0045Y149
X0055Y149
X0057Y1498
X0065Y15
X0065Y1509
X0075Y151
X0085Y151
X0075Y152
X0085Y152
X0095Y152
X0105Y152
X0115Y152
X0125Y152
X0125Y153
X0135Y154
X0141Y155
X0145Y154
X0135Y153
X0135Y152
X0145Y152
X0155Y152
X0165Y152
X0175Y152
X0185Y152
X0195Y152
X0205Y152
X0205Y154
X0185Y154
X0205Y156
X0185Y158
X0175Y157
X0165Y1571
X0174Y1579
X0185Y159
X0195Y16
X0195Y159
X0215Y159
X0215Y16
X0235Y16
X0235Y159
X0225Y158
X0225Y156
X0225Y154
X0215Y152
X0225Y152
X0255Y152
X0255Y153
X0255Y154
X0285Y157
X0285Y156
X0305Y156
X0275Y159
X0285Y16
X0295Y159
X0305Y16
X0315Y159
X0325Y16
X0335Y159
X034492Y160002
X036499Y160008
X0395Y157
X0385Y156
X0375Y157
X0365Y156
X0355Y157
X0335Y157
X0315Y157
X0325Y156
X0325Y154001
X030515Y154028
X0295Y154
X0295Y153
X0295Y152
X031364Y151108
X032625Y147402
X036056Y15028
X03714Y150291
X0379Y1502
X040277Y148352
X040254Y149144
X0444Y1534
X0444Y1543
X0415Y155
X0405Y156
X0415Y157
X0425Y16
X0445Y16
X045688Y158924
X0465Y16
X0485Y16
X0555Y156347
X0555Y16
X0565Y159
X0575Y16
X0595Y16
X0605Y159
X0615Y16
X0625Y159
X0635Y16
X0645Y159
X068367Y155042
X068986Y155062
X069597Y155056
X071008Y155109
X071613Y155115
X07226Y155115
X073613Y14931
X073625Y148597
X073761Y144677
X073768Y144113
X078521Y141378
X081129Y137101
X0813Y1366
X0818Y1347
X0815Y133
X0815Y132
X0815Y131
X0795Y133
X0795Y132
X0735Y1379
X0754Y1393
X0729Y140379
X07185Y140559
X07182Y141349
X067219Y144428
X06726Y145035
X068976Y150289
X070674Y150383
X075237Y155091
X074596Y155097
X073968Y155097
X0695Y159
X0675Y159
X0675Y16
X0695Y16
X0715Y16
X0715Y159
X0735Y159
X0735Y16
X0755Y16
X0755Y159
X077197Y157503
X077895Y157495
X0805Y16
X0805Y159
X0825Y16
X0825Y159
X0875Y159
X0875Y16
X0895Y16
X0895Y159
X089037Y156177
X089031Y155517
X086165Y147278
X085241Y146379
X0875Y142
X0895Y141
X0895Y138
X0895Y135
X0895Y132
X0925Y13
X0935Y13
X0925Y1285
X0925Y127
X0935Y127
X0945Y127
X0955Y127
X0965Y127
X0955Y128
X0955Y129
X0945Y13
X0955Y13
X0965Y13
X0975Y13
X098512Y129999
X101Y129
X101Y128
X101Y127
X1005Y123
X1005Y121
X0985Y123
X0985Y121
X0965Y121
X0965Y123
X0965Y125
X0955Y125
X0945Y125
X0935Y125
X0945Y123
X0925Y123
X0905Y121171
X088502Y122932
X090453Y12299
X0925Y121
X0945Y121
X0945Y119
X0945Y117
X0925Y119
X0925Y117
X0925Y115
X0945Y113
X0945Y115
X0965Y115
X0965Y117
X0965Y119
X0985Y119
X0985Y117
X1005Y117
X1005Y119
X105Y117
X105Y116
X105Y115
X107488Y114002
X1085Y114
X1095Y114
X1105Y114
X1105Y115
X1105Y116
X1115Y117
X1105Y117
X1095Y117
X1095Y119
X1075Y121
X1055Y121
X1055Y123
X1075Y123
X1095Y123
X1095Y121
X1105Y119
X1115Y119
X1125Y119
X1135Y121
X1115Y121
X1115Y123
X1115Y125
X1115Y127
X1135Y127
X1135Y125
X1135Y123
X1155Y12283
X115547Y12101
X1175Y123
X123768Y127963
X124628Y129624
X12347Y131735
X124654Y130777
X125319Y130215
X1285Y132
X130444Y13524
X124033Y137736
X122785Y137366
X122302Y138198
X122301Y139162
X1185Y14
X118001Y139223
X118Y1385
X118Y1375
X1167Y1386
X1145Y14
X1125Y142
X1125Y141
X1125Y14
X1135Y14
X1147Y1373
X118537Y1342
X1195Y133
X119531Y132032
X1175Y133
X11751Y132045
X115961Y130777
X1175Y129
X117729Y127539
X115381Y130215
X114425Y129604
X1135Y129
X1115Y131
X1115Y129
X1135Y131
X1135Y133
X1115Y133
X1095Y133
X1095Y131
X1075Y133
X1075Y131
X1075Y129
X1095Y129
X1095Y127
X1095Y125
X1075Y125
X1075Y127
X1055Y125
X1055Y127
X1055Y129
X1055Y131
X1055Y133
X1055Y135
X1045Y137
X1045Y138
X1045Y139
X1045Y14
X1045Y141
X1055Y141
X1055Y14
X1055Y139
X1055Y138
X1055Y137
X108878Y140202
X108901Y141024
X108907Y141888
X1055Y144
X1045Y145
X1045Y144
X1055Y145
X1055Y146
X1045Y146
X1045Y147
X1045Y148
X1045Y149
X1045Y15
X1045Y151
X1055Y152
X1055Y153
X1045Y152
X1045Y153
X1045Y154
X1045Y155
X1045Y156
X1045Y157
X1055Y158
X1055Y159
X1045Y158
X1045Y159
X1045Y16
X1055Y16
X1065Y16
X1075Y16
X1085Y16
X1095Y16
X1105Y16
X1115Y16
X1125Y16
X1135Y16
X1105Y156
X1095Y156
X1095Y155
X1105Y155
X1115Y155
X1125Y155
X1115Y156
X1125Y156
X1135Y156
X121537Y149252
X122759Y153528
X124147Y152799
X133664Y142397
X132579Y141357
X133675Y141094
X134936Y141792
X134931Y143436
X1405Y144
X1415Y1481
X1415Y149
X1415Y15
X134818Y155294
X1341Y1546
X1355Y156
X1366Y1579
X138045Y157663
X1384Y1555
X1391Y1555
X141Y1556
X1423Y1557
X148566Y160434
X15364Y160423
X160864Y157961
X161197Y160435
T02
X1207Y0441
X1567Y0105
X1567Y0112
X1414Y0268
X1398Y0285
X1345Y0523
X1268Y0639
X1276Y0652
X1365Y076448
X142295Y076448
X154845Y07904
X1567Y0885
X1567Y0892
X1414Y1048
X1398Y1065
X1207Y1221
X1345Y1303
X154845Y15704
X142295Y154448
X1365Y154448
X1276Y1432
X1268Y1419
X0853Y1219
X0493Y1555
X0493Y1548
X0646Y1392
X0662Y1375
X0715Y1137
X0792Y1021
X0784Y1008
X0695Y089552
X063705Y089552
X051155Y08696
X0493Y0775
X0493Y0768
X0646Y0612
X0662Y0595
X0853Y0439
X0715Y0357
X051155Y00896
X063705Y011552
X0695Y011552
X0784Y0228
X0792Y0241
T03
X085101Y159604
X084401Y159604
X077603Y159599
X076902Y159599
X080654Y147847
X081355Y147847
X125346Y096154
X124645Y096154
X129098Y084401
X128397Y084401
X121599Y084396
X120899Y084396
X125346Y018154
X124645Y018154
X129098Y006401
X128397Y006401
X121599Y006396
X120899Y006396
X085101Y081604
X084401Y081604
X080654Y069846
X081355Y069846
X077603Y081599
X076902Y081599
T04
X176056Y023116
X176736Y023124
X168462Y061116
X16846Y06176
X176056Y101116
X176736Y101125
X168462Y139116
X16846Y13976
X029944Y142884
X029264Y142876
X037538Y104885
X03754Y104241
X029944Y064884
X029264Y064876
X03754Y02624
X037538Y026885
T05
X142518Y141685
X141424Y141685
X1472Y1572
X1461Y1571
X1447Y1595
X1437Y1595
X123019Y1516
X10476Y142647
X0856Y1516
X0703Y1444
X0676Y1538
X062148Y150183
X0419Y144356
X0372Y149
X037196Y147759
X0419Y143284
X0426Y1269
X051064Y130226
X0511Y1354
X053255Y137716
X054239Y137654
X063151Y126878
X063482Y102316
X064576Y102316
X0588Y0868
X0599Y0869
X0623Y0845
X0613Y0845
X0419Y066356
X0372Y071
X037196Y069759
X0419Y065284
X051064Y052225
X0426Y0489
X0511Y0574
X053255Y059716
X054239Y059654
X063151Y048878
X063482Y024316
X064576Y024316
X0599Y0089
X0588Y0088
X0613Y0065
X0623Y0065
X082981Y0144
X10124Y023353
X1204Y0144
X1357Y0216
X1384Y0122
X143852Y015817
X1641Y021644
X1688Y017
X168804Y018241
X1641Y022716
X1634Y0391
X154936Y035775
X1549Y0306
X152745Y028284
X151761Y028346
X142849Y039122
X141424Y063684
X142518Y063684
X1472Y0792
X1461Y0791
X1447Y0815
X1437Y0815
X123019Y0736
X10476Y064647
X0856Y0736
X0703Y0664
X062148Y072183
X0676Y0758
X082981Y0924
X10124Y101353
X1204Y0924
X1384Y0902
X143852Y093817
X1357Y0996
X142849Y117122
X151761Y106347
X152745Y106285
X1641Y099644
X1688Y095
X168804Y096241
X1641Y100716
X1549Y1086
X154936Y113775
X1634Y1171
T06
X150047Y043458
X19032Y083309
X18924Y082687
X150047Y121458
X055953Y122542
X016777Y08332
X015697Y082698
X055953Y044542
T07
X037095Y083399
X040892Y08338
X168922Y082608
X165125Y082628
T08
X043878Y060848
X042353Y062139
X045783Y063124
X044258Y064415
X040879Y083693
X037102Y083693
X011399Y090421
X011399Y093444
X005946Y090421
X005946Y093444
X043878Y138848
X042353Y140139
X044258Y142415
X045783Y141124
X078048Y110029
X07997Y112291
X081657Y110861
X07974Y108597
X089001Y097299
X089001Y092501
X096863Y097299
X096863Y092501
X108585Y096185
X109816Y096185
X109815Y09387
X115099Y092849
X115099Y097153
X115099Y111599
X090901Y132401
X090901Y146847
X090901Y151152
X096185Y15013
X096184Y147816
X097415Y147816
X109137Y146701
X109137Y151499
X116999Y151499
X116999Y146701
X12626Y135404
X124343Y133139
X12603Y13171
X127952Y133971
X165121Y160308
X168898Y160308
X194601Y15358
X194601Y150557
X200054Y15358
X200054Y150557
X162122Y105152
X163647Y103861
X160217Y102877
X161742Y101585
X165121Y082307
X168898Y082307
X194601Y07558
X194601Y072557
X200054Y07558
X200054Y072557
X162122Y027152
X163647Y025861
X161742Y023585
X160217Y024876
X12603Y05371
X124343Y055139
X127952Y055971
X12626Y057404
X116999Y068701
X116999Y073499
X109137Y073499
X109137Y068701
X097415Y069816
X096184Y069816
X096185Y07213
X090901Y073151
X090901Y068847
X090901Y054401
X115099Y033599
X115099Y019153
X115099Y014849
X109815Y01587
X109816Y018185
X108585Y018185
X096863Y019299
X096863Y014501
X089001Y014501
X089001Y019299
X07974Y030597
X078048Y032029
X081657Y032861
X07997Y03429
X040879Y005693
X037102Y005693
X011399Y012421
X011399Y015444
X005946Y012421
X005946Y015444
T09
X070804Y083407
X031168Y08341
X012Y09875
X01Y09875
X008Y09875
X008Y09625
X01Y09625
X012Y09625
X01701Y083419
X015548Y082588
X008Y02075
X01Y02075
X008Y01825
X01Y01825
X012Y01825
X012Y02075
X084985Y083419
X090895Y082608
X115123Y083399
X121032Y082588
X135214Y082601
X17485Y082597
X194Y06975
X196Y06975
X194Y06725
X196Y06725
X198Y06725
X198Y06975
X189008Y082589
X19047Y083419
X196Y14525
X198Y14525
X198Y14775
X196Y14775
X194Y14775
X194Y14525
T10
X065506Y090957
X065506Y092957
X065506Y094957
X065506Y096957
X065506Y098957
X071506Y098957
X071506Y096957
X071506Y094957
X071506Y092957
X071506Y090957
X080064Y094197
X077997Y095673
X07593Y09715
X125936Y149803
X128003Y148327
X13007Y146851
X134494Y153043
X134494Y151043
X134494Y149043
X134494Y147043
X134494Y145043
X140494Y153043
X140494Y151043
X140494Y149043
X140494Y147043
X140494Y145043
X140494Y075043
X140494Y073043
X140494Y071043
X140494Y069043
X140494Y067043
X134494Y067043
X134494Y069043
X134494Y071043
X134494Y073043
X134494Y075043
X125936Y071803
X128003Y070327
X13007Y068851
X080064Y016197
X077997Y017673
X07593Y01915
X071506Y014957
X071506Y012957
X065506Y020957
X065506Y018957
X065506Y016957
X065506Y014957
X065506Y012957
X071506Y016957
X071506Y018957
X071506Y020957
T11
X087025Y0077
X0886Y0077
X092664Y0077
X094239Y0077
X145038Y022707
X147445Y023008
X125417Y04541
X126404Y047709
X127427Y050099
X1059Y0352
X1001Y0528
X078573Y037901
X079596Y040291
X080583Y04259
X058555Y064992
X060962Y065293
X087025Y0857
X0886Y0857
X092664Y0857
X094239Y0857
X111761Y0803
X113336Y0803
X1174Y0803
X118975Y0803
X145038Y100707
X147445Y101008
X1704Y064
X1704Y059
X19265Y0502
X197923Y04485
X202923Y04485
X20285Y0502
X191192Y0813
X192767Y0813
X196831Y0813
X198406Y0813
X202923Y12285
X20285Y1282
X197923Y12285
X19265Y1282
X198406Y1593
X196831Y1593
X192767Y1593
X191192Y1593
X1704Y142
X1704Y137
X118975Y1583
X1174Y1583
X113336Y1583
X111761Y1583
X127427Y1281
X126404Y125709
X125417Y12341
X1059Y1132
X1001Y1308
X078573Y115901
X079596Y118291
X080583Y12059
X060962Y143293
X058555Y142992
X0356Y107
X0356Y102
X01335Y1158
X008077Y12115
X003077Y12115
X00315Y1158
X014808Y0847
X013233Y0847
X009169Y0847
X007594Y0847
X003077Y04315
X00315Y0378
X008077Y04315
X01335Y0378
X007594Y0067
X009169Y0067
X013233Y0067
X014808Y0067
X0356Y024
X0356Y029
T12
X027498Y14945
X027498Y15295
X015831Y155829
X013371Y145639
X018371Y145639
X02575Y138148
X02325Y138148
X019772Y134884
X017272Y134884
X010205Y133057
X00755Y137
X00405Y137
X00405Y128
X00755Y128
X014984Y127943
X021881Y121504
X028881Y121504
X02135Y1135
X02135Y1064
X02885Y1135
X02885Y1064
X015831Y077829
X013371Y067639
X018371Y067639
X027498Y07495
X027498Y07145
X02575Y060148
X02325Y060148
X019772Y056884
X017272Y056884
X010205Y055057
X00755Y059
X00405Y059
X00405Y05
X00755Y05
X014984Y049943
X021881Y043504
X028881Y043504
X02885Y0355
X02135Y0355
X02135Y0284
X02885Y0284
X17715Y1376
X17715Y1305
X18465Y1376
X18465Y1305
X177119Y122496
X184119Y122496
X191016Y116058
X188728Y109116
X186228Y109116
X18275Y105852
X18025Y105852
X178502Y09455
X178502Y09105
X187629Y098361
X20195Y116
X19845Y116
X195795Y110943
X19845Y107
X20195Y107
X192629Y098361
X190169Y088171
X17715Y0596
X17715Y0525
X18465Y0596
X18465Y0525
X177119Y044496
X184119Y044496
X191016Y038058
X19845Y038
X20195Y038
X20195Y029
X19845Y029
X195795Y032943
X188728Y031116
X186228Y031116
X18275Y027852
X18025Y027852
X187629Y020361
X192629Y020361
X190169Y010171
X178502Y01655
X178502Y01305
T13
X099Y0075
X145Y008
X2Y0795
X145Y086
X2Y1575
X107Y1585
X061Y158
X107Y0805
X099Y0855
X061Y08
X006Y0865
X006Y0085
T14
X149948Y074417
X155028Y074417
X160108Y074417
X160108Y152418
X155028Y152418
X149948Y152418
X056052Y091583
X050972Y091583
X045892Y091583
X045892Y013583
X050972Y013583
X056052Y013583
T15
X201Y1635
X023Y1635
X005Y0025
X188Y0025
T16
X099Y0105
X145Y011
X203Y0795
X203Y1575
X145Y089
X107Y0775
X099Y0885
X107Y1555
X061Y155
X003Y0865
X061Y077
X003Y0085
T17
X11964Y147038G85X118431Y147038
X11964Y151236G85X118431Y151236
X08636Y096963G85X087569Y096963
X08636Y092764G85X087569Y092764
X11964Y073236G85X118431Y073236
X11964Y069037G85X118431Y069037
X08636Y018963G85X087569Y018963
X08636Y014764G85X087569Y014764
T18
X060289Y146485G85X058405Y146236
X060289Y068485G85X058405Y068236
X145711Y019515G85X147595Y019764
X145711Y097515G85X147595Y097764
T19
X085026Y159604G85X084476Y159604
X077528Y159599G85X076978Y159599
X081279Y147847G85X08073Y147847
X124721Y096154G85X12527Y096154
X128472Y084401G85X129022Y084401
X120974Y084396G85X121524Y084396
X128472Y006401G85X129022Y006401
X120974Y006396G85X121524Y006396
X124721Y018154G85X12527Y018154
X081279Y069846G85X08073Y069846
X077528Y081599G85X076978Y081599
X085026Y081604G85X084476Y081604
M30
