M48
;FILE_FORMAT=2:4
INCH,LZ
FMAT,2
ICI,OFF
;TYPE=PLATED
T1C.01
T2C.01575
T4C.01969
T5C.02362
T6C.0315
T7C.03268
T8C.03937
;TYPE=NON_PLATED
T3C.01969
T9C.04449
%
M72
G90
G93X0Y0
T1C.01F095S3
X105512Y101575
X105512Y102362
X105512Y10315
X105906Y101181
X106299Y100787
X107087Y100787
X107874Y100787
X108661Y100787
X109449Y100787
X110236Y100787
X111024Y100787
X111811Y100787
X112598Y100787
X113386Y100787
X114173Y100787
X114961Y100787
X115748Y100787
X116535Y100787
X117323Y100787
X11811Y100787
X118898Y100787
X119685Y100787
X120472Y100787
X12126Y100787
X122047Y100787
X122441Y101575
X122441Y101181
X122835Y101575
X122835Y105512
X122047Y105512
X12126Y105512
X120472Y105512
X117953Y105
X112888Y105567
X112643Y105566
X111911Y105553
X111633Y105556
X109764Y105197
X109449Y105197
X105512Y104724
X105512Y103937
X108791Y107831
X108798Y108063
X109078Y108167
X109346Y108171
X110001Y10817
X11028Y108175
X112248Y108178
X112476Y10818
X113776Y106843
X113776Y10761
X114961Y107087
X115748Y107087
X116535Y10748
X116535Y107087
X116535Y107874
X117323Y10748
X117323Y106299
X117323Y107087
X117323Y107874
X118189Y106024
X120472Y106299
X120472Y107087
X120472Y107874
X12126Y107087
X12126Y106299
X12126Y107874
X122047Y106299
X122047Y107087
X122047Y107874
X122835Y106299
X122835Y107087
X122835Y107874
X123622Y107087
X123622Y106299
X123622Y107874
X124409Y107874
X124409Y107087
X125197Y107874
X123622Y111024
X123622Y111811
X123622Y112598
X122835Y111417
X122835Y112992
X122047Y111811
X122047Y112598
X122047Y111024
X12126Y111417
X12126Y112992
X120472Y111811
X120472Y112598
X120472Y111024
X118819Y112687
X118583Y11291
X114173Y112598
X113386Y112992
X112598Y112598
X111811Y112992
X111024Y112598
X105512Y113386
X105512Y114173
X105512Y11378
X105512Y114567
X105512Y115354
X105512Y114961
X105512Y115748
X105906Y11378
X105906Y114567
X105906Y113386
X105906Y114173
X105906Y115354
X105906Y114961
X105906Y115748
X111024Y113386
X112598Y113386
X114173Y113386
X116918Y114711
X116929Y114961
X117312Y114711
X117323Y114961
X119438Y115746
X119685Y114961
X120472Y113386
X120472Y114961
X12126Y114961
X122047Y113386
X123622Y113386
X125591Y11378
X125591Y113386
X125984Y11811
X125591Y11811
X122165Y117795
X122008Y117953
X12185Y11689
X121772Y117087
X119682Y115966
X119173Y115984
X11811Y117717
X117717Y117717
X116929Y11811
X116929Y117717
X116825Y116403
X116821Y116174
X116535Y11811
X116142Y11811
X115748Y11811
X115354Y11811
X114961Y11811
X11378Y117087
X113543Y117087
X108268Y117717
X107874Y117717
X10748Y11811
X10748Y117717
X107087Y117717
X105512Y11811
X105512Y117323
X105512Y117717
X105512Y116929
X105512Y116535
X105512Y116142
X105512Y118504
X105512Y118898
X105512Y119291
X10748Y118504
X109449Y118898
X109449Y119685
X109449Y119291
X114961Y118504
X115354Y118504
X115748Y118504
X115757Y119313
X115761Y119703
X116142Y118504
X116435Y119836
X116535Y118504
X116685Y119903
X116929Y118504
X119685Y120734
X12126Y118898
X12126Y119685
X122047Y119291
X122835Y118898
X122835Y119685
X123622Y119291
X124409Y118898
X124409Y119685
X125591Y119685
X125591Y118898
X125984Y119685
X125984Y118898
X137402Y119685
X137402Y120472
X137402Y118898
X137795Y119685
X137795Y118898
X137795Y120472
X137795Y122047
X137795Y12126
X137402Y12126
X137402Y122047
X137402Y122835
X137008Y122835
X129921Y121654
X129528Y122441
X129528Y122047
X129528Y12126
X129528Y121654
X129134Y12126
X129134Y121654
X12874Y12126
X12874Y121654
X128346Y121654
X128346Y12126
X119182Y121179
X118504Y122835
X118504Y123228
X115336Y122419
X11456Y12126
X114183Y121273
X114169Y121668
X114009Y122909
X113133Y123141
X108661Y121654
X108661Y122047
X108268Y121654
X108268Y122047
X105512Y125197
X106299Y125197
X10748Y125197
X110625Y123833
X110706Y12551
X111023Y123845
X111223Y125036
X111284Y125396
X111421Y123858
X111697Y125273
X111739Y124937
X111806Y123841
X112834Y125013
X112834Y125283
X113924Y123399
X11748Y124055
X117992Y125276
X118504Y123622
X118504Y125591
X12126Y125197
X122047Y125197
X122835Y125197
X123228Y123622
X123622Y123622
X124016Y123622
X124409Y123622
X124803Y123622
X125197Y123622
X125591Y123622
X137008Y123622
X137402Y123622
X135827Y127165
X135433Y127165
X135433Y127953
X135039Y127953
X134252Y127953
X133465Y127953
X132677Y127953
X132283Y127953
X130315Y127953
X129528Y127559
X129528Y127953
X129134Y127953
X12874Y127559
X128346Y127559
X127953Y127165
X127559Y126772
X127165Y126772
X126772Y126772
X126378Y126772
X125984Y126772
X125591Y126772
X125197Y126772
X124803Y126772
X124409Y126772
X124016Y126772
X123622Y126772
X123622Y127165
X123228Y127165
X122835Y127165
X122835Y127559
X122441Y127953
X122441Y127559
X122047Y127953
X121654Y127953
X11615Y126382
X114985Y126372
X113814Y126188
X11287Y126274
X109961Y126364
X10748Y125984
X10748Y127165
X106299Y127165
X106299Y125984
X105512Y126772
X105512Y127559
X105512Y125984
X105512Y128346
X105512Y129134
X105512Y129921
X106299Y128346
X106299Y129921
X106299Y129134
X10748Y128346
X10748Y129134
X10748Y129921
X108661Y128346
X108661Y129134
X108661Y129921
X109843Y128346
X109843Y129134
X109843Y129921
X111024Y128346
X111024Y129134
X111024Y129921
X112205Y128346
X112205Y129134
X112205Y129921
X113386Y129134
X113386Y129921
X114567Y129134
X114567Y129921
X119291Y130315
X119291Y130709
X119685Y130315
X119685Y129921
X119685Y130709
X120079Y129528
X120472Y129134
X120866Y12874
X12126Y128346
X121654Y128346
X129921Y128346
X130709Y128346
X131496Y128346
X132283Y128346
X132677Y128346
X133465Y128346
X134252Y128346
X135039Y128346
X119685Y131102
X119291Y131102
X119291Y131496
X119291Y132283
X119291Y13189
X119291Y133071
X119291Y132677
X118898Y133071
X114567Y131102
X114567Y132283
X113386Y131102
X113386Y132283
X112205Y132283
X112205Y131102
X111024Y131102
X111024Y132283
X109843Y132283
X109843Y131102
X108661Y132283
X108661Y131102
X10748Y132283
X106299Y133071
X106299Y132283
X105906Y133071
X105512Y132283
X105512Y133071
X105512Y133465
X105906Y133465
X105906Y133858
X106299Y133858
X106299Y134252
X106299Y133465
X106693Y134252
X106693Y133858
X107087Y134646
X107087Y134252
X10748Y133465
X10748Y134646
X10748Y134252
X10748Y135039
X107874Y135039
X108268Y135433
X108661Y133465
X109843Y133465
X111024Y133465
X112205Y134252
X112205Y133465
X112598Y135039
X112598Y135433
X112992Y134252
X112992Y135039
X112992Y135433
X113386Y133465
X113386Y135039
X113386Y135433
X11378Y135433
X11378Y135039
X114173Y135433
X114567Y133465
X114961Y134646
X114961Y135039
X114961Y135433
X115354Y134646
X115354Y135039
X115354Y135433
X115748Y135433
X115748Y135039
X116142Y135433
X116142Y135039
X116535Y135433
X116929Y135433
X117323Y135433
X117717Y135433
X11811Y135039
X118898Y133858
X118898Y134252
X118898Y133465
X119291Y133858
X119291Y133465
X117323Y13622
X117323Y135827
X116929Y135827
X116929Y13622
X116535Y135827
X116535Y13622
X116142Y135827
X116142Y13622
X115748Y135827
X115748Y13622
X115354Y135827
X115354Y13622
X114961Y135827
X114961Y13622
X114173Y135827
X11378Y135827
X11378Y13622
X113386Y135827
X113386Y13622
X112992Y135827
X112992Y13622
X112598Y135827
X112598Y13622
X112205Y135827
X112205Y13622
X111811Y13622
X111811Y135827
X111417Y13622
X111417Y135827
X111024Y135827
X111024Y13622
X11063Y13622
X11063Y135827
X110236Y135827
X110236Y13622
X109843Y135827
X109843Y13622
X109449Y135827
X109449Y13622
X109055Y135827
X108661Y135827
T2C.01575F095S3
X10778Y106912
X112788Y10743
X114613Y108342
X120248Y12246
X120244Y12077
X114213Y118228
X113937Y118228
T3C.01969F095S3
X119819Y127034G85X119625Y127069
X10961Y114896G85X109543Y115081
X125033Y112173G85X12516Y112323
T4C.01969F095S3
X130483Y113979G85X13005Y113979
X130769Y115277G85X130769Y114293
X129765Y115277G85X129765Y114293
X130867Y119881G85X130867Y119252
X129666Y119881G85X129666Y119252
T5C.02362F197S55
X109724Y116575
X110039Y116181
X132243Y115592
X132243Y116161
X127402Y119843
X127047Y120197
X113386Y124409
X112913Y124409
X135222Y116677G85X135639Y11626
X122611Y104066G85X123028Y103649
X13672Y116815G85X137276Y116258
X122508Y102603G85X123065Y102046
X133968Y113046G85X133413Y113605
T6C.0315F197S55
X131492Y127586
X131867Y126659
X132243Y125732
T7C.03268F197S55
X114384Y137561G85X114689Y136848
T8C.03937F197S55
X106496Y13126G85X107283Y13126
X106496Y111339G85X107283Y111339
T9C.04449F139S55
X115671Y117012
X120796Y118496
M30
