*
*
G04 PADS VX.2.4 Build Number: 11282995 generated Gerber (RS-274-X) file*
G04 PC Version=2.1*
*
%IN "XP01_V0.4_-2021-3-9.pcb"*%
*
%MOIN*%
*
%FSLAX35Y35*%
*
*
*
*
G04 PC Standard Apertures*
*
*
G04 Thermal Relief Aperture macro.*
%AMTER*
1,1,$1,0,0*
1,0,$1-$2,0,0*
21,0,$3,$4,0,0,45*
21,0,$3,$4,0,0,135*
%
*
*
G04 Annular Aperture macro.*
%AMANN*
1,1,$1,0,0*
1,0,$2,0,0*
%
*
*
G04 Odd Aperture macro.*
%AMODD*
1,1,$1,0,0*
1,0,$1-0.005,0,0*
%
*
*
G04 PC Custom Aperture Macros*
*
*
*
*
*
*
G04 PC Aperture Table*
*
%ADD109C,0.001*%
*
*
*
*
G04 PC Circuitry*
G04 Layer Name XP01_V0.4_-2021-3-9.pcb - circuitry*
%LPD*%
*
*
G04 PC Custom Flashes*
G04 Layer Name XP01_V0.4_-2021-3-9.pcb - flashes*
%LPD*%
*
*
G04 PC Circuitry*
G04 Layer Name XP01_V0.4_-2021-3-9.pcb - circuitry*
%LPD*%
*
G54D109*
G01X1051433Y1336707D02*
G75*
G03X1050724Y1335195I1260J-1512D01*
G01Y1319427*
X1055449*
Y1305961*
X1050724*
Y1249091*
G03X1052693Y1247122I1969J-0*
G01X1062535*
X1064504Y1245154D02*
G03X1062535Y1247122I-1969J-0D01*
G01X1064504Y1245154D02*
Y1208146D01*
X1062535Y1206177D02*
G03X1064504Y1208146I0J1969D01*
G01X1062535Y1206177D02*
X1052693D01*
G03X1050724Y1204209I-0J-1968*
G01Y1120222*
X1055449*
Y1106756*
X1050724*
Y1023894*
G03X1070409Y1004209I19685J-0*
G01X1220832*
G03X1222224Y1004785I-0J1968*
G01X1238345Y1020907*
G03Y1023691I-1392J1392*
G01X1234726Y1027310*
Y1030094D02*
G03Y1027310I1392J-1392D01*
G01Y1030094D02*
X1331106Y1126508D01*
X1333224Y1126155D02*
G03X1331105Y1126508I-1264J-1053D01*
G01X1333225Y1126153D02*
X1336415Y1122887D01*
X1336414Y1122888D02*
G03X1338696Y1123392I868J1490D01*
G01X1338698Y1123393D02*
X1365502Y1150204D01*
X1359984Y1155780*
X1363580Y1159376*
X1369134Y1153817*
X1382617Y1167297*
X1382618D02*
G03X1383638Y1168899I-1643J2173D01*
G01X1383645Y1169009D02*
G03X1354680Y1286053I-198968J12866D01*
G01X1354826Y1285814D02*
G03X1353229Y1286764I-1686J-1017D01*
G01X1300008Y1289168*
G03X1298594Y1288657I-86J-1975*
G01X1195067Y1339604D02*
G03X1298598Y1288661I61799J-5080D01*
G01X1195068Y1339624D02*
G03X1194612Y1341054I-1963J161D01*
G01X1194611Y1341055D02*
X1162307Y1379332D01*
X1162303Y1379336D02*
G03X1155275Y1382062I-6014J-5082D01*
G01X1155162Y1382047D02*
G03X1051218Y1336528I26114J-201067D01*
G01X1051432Y1336707D02*
X1051432D01*
X1181149Y1338317D02*
G03X1181149I-8465J0D01*
G01X1345043Y1207097D02*
G03X1345043I-8464J0D01*
G01X1134610Y1033551D02*
G03X1134610I-8464J0D01*
G01X1254020Y1131760D02*
X1261445Y1125531D01*
X1249860Y1111678D02*
G03X1261450Y1125539I-58002J60273D01*
G01X1249831Y1111650D02*
X1242378Y1117886D01*
X1242397Y1117904D02*
G03X1254005Y1131738I-53976J57078D01*
G01X1096150Y1159559D02*
G03X1102345Y1142586I78167J18911D01*
G01X1102339Y1142598D02*
X1093201Y1139224D01*
X1087008Y1156267D02*
G03X1093174Y1139281I92101J23819D01*
G01X1087004Y1156283D02*
X1096142Y1159594D01*
X1207021Y1274985D02*
G03X1189231Y1278122I-24608J-87546D01*
G01X1207094Y1274965D02*
X1205382Y1265386D01*
X1205336Y1265399D02*
G03X1187545Y1268536I-24073J-84511D01*
G01X1187551Y1268535D02*
X1189232Y1278122D01*
X1170802Y1107477D02*
G03X1170802I-2461J0D01*
G01X1196731Y1254491D02*
G03X1196731I-2461J0D01*
G01X1351989Y1210031D02*
X1339635Y1222386D01*
X1352130Y1204670D02*
X1334274Y1222527D01*
X1350967Y1200614D02*
X1345004Y1206577D01*
X1336181Y1215400D02*
X1330217Y1221363D01*
X1349025Y1197336D02*
X1343793Y1202568D01*
X1332172Y1214189D02*
X1326940Y1219421D01*
X1346446Y1194695D02*
X1341241Y1199900D01*
X1329504Y1211638D02*
X1324299Y1216842D01*
X1343235Y1192686D02*
X1337400Y1198522D01*
X1328126Y1207796D02*
X1322290Y1213632D01*
X1339269Y1191432D02*
X1321036Y1209666D01*
X1187610Y1343092D02*
X1177581Y1353121D01*
X1334094Y1191388D02*
X1320991Y1204491D01*
X1188366Y1337116D02*
X1171605Y1353877D01*
X1187460Y1332802D02*
X1181053Y1339210D01*
X1173699Y1346563D02*
X1167291Y1352971D01*
X1185699Y1329343D02*
X1180366Y1334677D01*
X1169166Y1345877D02*
X1163833Y1351210D01*
X1183280Y1326542D02*
X1178121Y1331702D01*
X1166191Y1343631D02*
X1161031Y1348791D01*
X1180239Y1324364D02*
X1174662Y1329941D01*
X1164430Y1340173D02*
X1158853Y1345750D01*
X1176492Y1322891D02*
X1168709Y1330674D01*
X1165163Y1334220D02*
X1157380Y1342003D01*
X1171720Y1322443D02*
X1156933Y1337231D01*
X1163812Y1325132D02*
X1159621Y1329323D01*
X1139816Y1041160D02*
X1133876Y1047100D01*
X1141854Y1033902D02*
X1126619Y1049138D01*
X1141302Y1029235D02*
X1133958Y1036578D01*
X1129295Y1041242D02*
X1121951Y1048586D01*
X1139767Y1025550D02*
X1134251Y1031066D01*
X1123782Y1041535D02*
X1118266Y1047051D01*
X1137538Y1022559D02*
X1132385Y1027712D01*
X1120429Y1039669D02*
X1115275Y1044822D01*
X1134689Y1020189D02*
X1129315Y1025562D01*
X1118278Y1036599D02*
X1112905Y1041972D01*
X1131173Y1018484D02*
X1124585Y1025072D01*
X1117789Y1031869D02*
X1111201Y1038457D01*
X1126774Y1017663D02*
X1110380Y1034058D01*
X1120554Y1018664D02*
X1111380Y1027838D01*
X1244032Y1100832D02*
X1244054Y1100903D01*
X1352295Y1206943D02*
G03X1352295I-15748J0D01*
G01X1141862Y1033398D02*
G03X1141862I-15748J0D01*
G01X1188401Y1338164D02*
G03X1188401I-15748J0D01*
G01X1352338Y1207006D02*
G03X1352338I-15748J0D01*
G01X1345055D02*
G03X1345055I-8465J0D01*
G01X1141906Y1033461D02*
G03X1141906I-15749J0D01*
G01X1134622D02*
G03X1134622I-8465J0D01*
G01X1188444Y1338227D02*
G03X1188444I-15748J0D01*
G01X1181161D02*
G03X1181161I-8465J0D01*
G01X1352078Y1209861D02*
X1339445Y1222494D01*
X1352149Y1204570D02*
X1334154Y1222565D01*
X1350952Y1200546D02*
X1345037Y1206461D01*
X1336045Y1215453D02*
X1330130Y1221368D01*
X1348986Y1197293D02*
X1343765Y1202514D01*
X1332098Y1214181D02*
X1326877Y1219402D01*
X1346385Y1194675D02*
X1341171Y1199888D01*
X1329472Y1211587D02*
X1324259Y1216801D01*
X1343150Y1192690D02*
X1337270Y1198569D01*
X1328153Y1207686D02*
X1322274Y1213566D01*
X1339152Y1191468D02*
X1321052Y1209568D01*
X1187742Y1342878D02*
X1177347Y1353272D01*
X1333912Y1191488D02*
X1321072Y1204328D01*
X1188397Y1337003D02*
X1171473Y1353927D01*
X1187453Y1332727D02*
X1181120Y1339060D01*
X1173530Y1346650D02*
X1167197Y1352983D01*
X1185666Y1329294D02*
X1180350Y1334611D01*
X1169080Y1345880D02*
X1163764Y1351196D01*
X1183225Y1326516D02*
X1178061Y1331679D01*
X1166149Y1343592D02*
X1160985Y1348755D01*
X1180161Y1324360D02*
X1174553Y1329968D01*
X1164438Y1340083D02*
X1158830Y1345691D01*
X1176384Y1322917D02*
X1168319Y1330982D01*
X1165451Y1333850D02*
X1157386Y1341915D01*
X1171562Y1322520D02*
X1156989Y1337092D01*
X1163189Y1325672D02*
X1160142Y1328720D01*
X1140087Y1040807D02*
X1133504Y1047390D01*
X1141902Y1033772D02*
X1126469Y1049206D01*
X1141304Y1029150D02*
X1134119Y1036336D01*
X1129033Y1041422D02*
X1121847Y1048607D01*
X1139741Y1025493D02*
X1134251Y1030983D01*
X1123680Y1041555D02*
X1118190Y1047045D01*
X1137490Y1022525D02*
X1132338Y1027677D01*
X1120374Y1039641D02*
X1115222Y1044793D01*
X1134617Y1020178D02*
X1129224Y1025571D01*
X1118268Y1036527D02*
X1112875Y1041921D01*
X1131075Y1018500D02*
X1124394Y1025182D01*
X1117879Y1031697D02*
X1111197Y1038378D01*
X1126636Y1017720D02*
X1110417Y1033939D01*
X1120289Y1018847D02*
X1111544Y1027592D01*
X1232785Y1020687D02*
X1230280Y1018181D01*
X1232504Y1035998D02*
X1230556Y1034049D01*
X1222484Y1025974D02*
X1224989Y1028480D01*
X1223873Y1040729D02*
X1225822Y1042678D01*
X1230280Y1018181D02*
X1222484Y1025974D01*
X1224989Y1028480D02*
X1232785Y1020687D01*
X1230556Y1034049D02*
X1223873Y1040729D01*
X1225822Y1042678D02*
X1232504Y1035998D01*
G74*
X0Y0D02*
M02*
