*
*
G04 PADS VX.2.4 Build Number: 11282995 generated Gerber (RS-274-X) file*
G04 PC Version=2.1*
*
%IN "XP01_V0.4_-2021-3-9.pcb"*%
*
%MOIN*%
*
%FSLAX35Y35*%
*
*
*
*
G04 PC Standard Apertures*
*
*
G04 Thermal Relief Aperture macro.*
%AMTER*
1,1,$1,0,0*
1,0,$1-$2,0,0*
21,0,$3,$4,0,0,45*
21,0,$3,$4,0,0,135*
%
*
*
G04 Annular Aperture macro.*
%AMANN*
1,1,$1,0,0*
1,0,$2,0,0*
%
*
*
G04 Odd Aperture macro.*
%AMODD*
1,1,$1,0,0*
1,0,$1-0.005,0,0*
%
*
*
G04 PC Custom Aperture Macros*
*
*
*
*
*
*
G04 PC Aperture Table*
*
%ADD013C,0.01*%
%ADD109C,0.001*%
*
*
*
*
G04 PC Circuitry*
G04 Layer Name XP01_V0.4_-2021-3-9.pcb - circuitry*
%LPD*%
*
*
G04 PC Custom Flashes*
G04 Layer Name XP01_V0.4_-2021-3-9.pcb - flashes*
%LPD*%
*
*
G04 PC Circuitry*
G04 Layer Name XP01_V0.4_-2021-3-9.pcb - circuitry*
%LPD*%
*
G54D13*
G01X1245086Y1164719D02*
X1234133Y1165327D01*
X1238156Y1160047*
X1244073Y1159061*
X1245086Y1164719*
X1234278Y1165137D02*
Y1165319D01*
X1234778Y1164480D02*
Y1165291D01*
X1235278Y1163824D02*
Y1165264D01*
X1235778Y1163168D02*
Y1165236D01*
X1236278Y1162512D02*
Y1165208D01*
X1236778Y1161855D02*
Y1165180D01*
X1237278Y1161199D02*
Y1165153D01*
X1237778Y1160543D02*
Y1165125D01*
X1238278Y1160027D02*
Y1165097D01*
X1238778Y1159944D02*
Y1165069D01*
X1239278Y1159860D02*
Y1165041D01*
X1239778Y1159777D02*
Y1165014D01*
X1240278Y1159694D02*
Y1164986D01*
X1240778Y1159610D02*
Y1164958D01*
X1241278Y1159527D02*
Y1164930D01*
X1241778Y1159444D02*
Y1164903D01*
X1242278Y1159360D02*
Y1164875D01*
X1242778Y1159277D02*
Y1164847D01*
X1243278Y1159194D02*
Y1164819D01*
X1243778Y1159110D02*
Y1164791D01*
X1244278Y1160206D02*
Y1164764D01*
X1244778Y1162998D02*
Y1164736D01*
X1247690Y1179962D02*
X1241799Y1181092D01*
X1236193Y1177537*
X1246676Y1174304*
X1247690Y1179962*
X1236278Y1177511D02*
Y1177591D01*
X1236778Y1177356D02*
Y1177908D01*
X1237278Y1177202D02*
Y1178225D01*
X1237778Y1177048D02*
Y1178542D01*
X1238278Y1176894D02*
Y1178859D01*
X1238778Y1176740D02*
Y1179176D01*
X1239278Y1176586D02*
Y1179493D01*
X1239778Y1176431D02*
Y1179810D01*
X1240278Y1176277D02*
Y1180127D01*
X1240778Y1176123D02*
Y1180444D01*
X1241278Y1175969D02*
Y1180761D01*
X1241778Y1175815D02*
Y1181079D01*
X1242278Y1175661D02*
Y1181000D01*
X1242778Y1175506D02*
Y1180904D01*
X1243278Y1175352D02*
Y1180808D01*
X1243778Y1175198D02*
Y1180712D01*
X1244278Y1175044D02*
Y1180616D01*
X1244778Y1174890D02*
Y1180520D01*
X1245278Y1174736D02*
Y1180424D01*
X1245778Y1174581D02*
Y1180329D01*
X1246278Y1174427D02*
Y1180233D01*
X1246778Y1174873D02*
Y1180137D01*
X1247278Y1177662D02*
Y1180041D01*
X1134683Y1210708D02*
X1132153Y1216845D01*
X1126688Y1219319*
X1124254Y1214112*
X1134683Y1210708*
X1124278Y1214105D02*
Y1214162D01*
X1124778Y1213941D02*
Y1215232D01*
X1125278Y1213778D02*
Y1216302D01*
X1125778Y1213615D02*
Y1217372D01*
X1126278Y1213452D02*
Y1218441D01*
X1126778Y1213289D02*
Y1219279D01*
X1127278Y1213125D02*
Y1219052D01*
X1127778Y1212962D02*
Y1218826D01*
X1128278Y1212799D02*
Y1218599D01*
X1128778Y1212636D02*
Y1218373D01*
X1129278Y1212473D02*
Y1218147D01*
X1129778Y1212309D02*
Y1217920D01*
X1130278Y1212146D02*
Y1217694D01*
X1130778Y1211983D02*
Y1217468D01*
X1131278Y1211820D02*
Y1217241D01*
X1131778Y1211657D02*
Y1217015D01*
X1132278Y1211493D02*
Y1216542D01*
X1132778Y1211330D02*
Y1215329D01*
X1133278Y1211167D02*
Y1214117D01*
X1133778Y1211004D02*
Y1212904D01*
X1134278Y1210841D02*
Y1211692D01*
X1128870Y1198482D02*
X1119641Y1204413D01*
X1117144Y1199236*
X1122515Y1196565*
X1128870Y1198482*
X1117278Y1199169D02*
Y1199514D01*
X1117778Y1198921D02*
Y1200551D01*
X1118278Y1198672D02*
Y1201587D01*
X1118778Y1198423D02*
Y1202624D01*
X1119278Y1198175D02*
Y1203660D01*
X1119778Y1197926D02*
Y1204325D01*
X1120278Y1197677D02*
Y1204004D01*
X1120778Y1197429D02*
Y1203682D01*
X1121278Y1197180D02*
Y1203361D01*
X1121778Y1196931D02*
Y1203040D01*
X1122278Y1196682D02*
Y1202718D01*
X1122778Y1196644D02*
Y1202397D01*
X1123278Y1196795D02*
Y1202076D01*
X1123778Y1196946D02*
Y1201754D01*
X1124278Y1197096D02*
Y1201433D01*
X1124778Y1197247D02*
Y1201112D01*
X1125278Y1197398D02*
Y1200790D01*
X1125778Y1197549D02*
Y1200469D01*
X1126278Y1197700D02*
Y1200148D01*
X1126778Y1197851D02*
Y1199826D01*
X1127278Y1198002D02*
Y1199505D01*
X1127778Y1198152D02*
Y1199184D01*
X1128278Y1198303D02*
Y1198862D01*
X1128778Y1198454D02*
Y1198541D01*
X1126002Y1182366D02*
X1120692Y1186349D01*
X1114730Y1185685*
X1115297Y1179965*
X1126002Y1182366*
X1114778Y1185200D02*
Y1185690D01*
X1115278Y1180161D02*
Y1185746D01*
X1115778Y1180073D02*
Y1185801D01*
X1116278Y1180185D02*
Y1185857D01*
X1116778Y1180297D02*
Y1185913D01*
X1117278Y1180409D02*
Y1185969D01*
X1117778Y1180521D02*
Y1186024D01*
X1118278Y1180634D02*
Y1186080D01*
X1118778Y1180746D02*
Y1186136D01*
X1119278Y1180858D02*
Y1186191D01*
X1119778Y1180970D02*
Y1186247D01*
X1120278Y1181082D02*
Y1186303D01*
X1120778Y1181194D02*
Y1186284D01*
X1121278Y1181306D02*
Y1185909D01*
X1121778Y1181419D02*
Y1185534D01*
X1122278Y1181531D02*
Y1185159D01*
X1122778Y1181643D02*
Y1184784D01*
X1123278Y1181755D02*
Y1184409D01*
X1123778Y1181867D02*
Y1184034D01*
X1124278Y1181979D02*
Y1183659D01*
X1124778Y1182091D02*
Y1183284D01*
X1125278Y1182204D02*
Y1182909D01*
X1125778Y1182316D02*
Y1182534D01*
X1127411Y1168908D02*
X1116443Y1169139D01*
X1117020Y1163421*
X1122996Y1163952*
X1127411Y1168908*
X1116778Y1165820D02*
Y1169132D01*
X1117278Y1163444D02*
Y1169122D01*
X1117778Y1163488D02*
Y1169111D01*
X1118278Y1163533D02*
Y1169101D01*
X1118778Y1163577D02*
Y1169090D01*
X1119278Y1163621D02*
Y1169080D01*
X1119778Y1163666D02*
Y1169069D01*
X1120278Y1163710D02*
Y1169059D01*
X1120778Y1163755D02*
Y1169048D01*
X1121278Y1163799D02*
Y1169038D01*
X1121778Y1163843D02*
Y1169027D01*
X1122278Y1163888D02*
Y1169016D01*
X1122778Y1163932D02*
Y1169006D01*
X1123278Y1164269D02*
Y1168995D01*
X1123778Y1164830D02*
Y1168985D01*
X1124278Y1165391D02*
Y1168974D01*
X1124778Y1165953D02*
Y1168964D01*
X1125278Y1166514D02*
Y1168953D01*
X1125778Y1167075D02*
Y1168943D01*
X1126278Y1167637D02*
Y1168932D01*
X1126778Y1168198D02*
Y1168922D01*
X1127278Y1168759D02*
Y1168911D01*
G54D109*
X1216224Y1167915D02*
X1245204Y1162805D01*
X1245939Y1166972*
X1216958Y1172082*
X1216224Y1167915*
X1245204Y1162805D02*
X1245204D01*
X1244637Y1162905D02*
X1245222D01*
X1244070Y1163005D02*
X1245239D01*
X1243503Y1163105D02*
X1245257D01*
X1242936Y1163205D02*
X1245275D01*
X1242368Y1163305D02*
X1245292D01*
X1241801Y1163405D02*
X1245310D01*
X1241234Y1163505D02*
X1245327D01*
X1240667Y1163605D02*
X1245345D01*
X1240100Y1163705D02*
X1245363D01*
X1239533Y1163805D02*
X1245380D01*
X1238966Y1163905D02*
X1245398D01*
X1238398Y1164005D02*
X1245416D01*
X1237831Y1164105D02*
X1245433D01*
X1237264Y1164205D02*
X1245451D01*
X1236697Y1164305D02*
X1245469D01*
X1236130Y1164405D02*
X1245486D01*
X1235563Y1164505D02*
X1245504D01*
X1234996Y1164605D02*
X1245521D01*
X1234429Y1164705D02*
X1245539D01*
X1233861Y1164805D02*
X1245557D01*
X1233294Y1164905D02*
X1245574D01*
X1232727Y1165005D02*
X1245592D01*
X1232160Y1165105D02*
X1245610D01*
X1231593Y1165205D02*
X1245627D01*
X1231026Y1165305D02*
X1245645D01*
X1230459Y1165405D02*
X1245662D01*
X1229892Y1165505D02*
X1245680D01*
X1229324Y1165605D02*
X1245698D01*
X1228757Y1165705D02*
X1245715D01*
X1228190Y1165805D02*
X1245733D01*
X1227623Y1165905D02*
X1245751D01*
X1227056Y1166005D02*
X1245768D01*
X1226489Y1166105D02*
X1245786D01*
X1225922Y1166205D02*
X1245804D01*
X1225355Y1166305D02*
X1245821D01*
X1224787Y1166405D02*
X1245839D01*
X1224220Y1166505D02*
X1245856D01*
X1223653Y1166605D02*
X1245874D01*
X1223086Y1166705D02*
X1245892D01*
X1222519Y1166805D02*
X1245909D01*
X1221952Y1166905D02*
X1245927D01*
X1221385Y1167005D02*
X1245748D01*
X1220817Y1167105D02*
X1245181D01*
X1220250Y1167205D02*
X1244614D01*
X1219683Y1167305D02*
X1244047D01*
X1219116Y1167405D02*
X1243480D01*
X1218549Y1167505D02*
X1242913D01*
X1217982Y1167605D02*
X1242346D01*
X1217415Y1167705D02*
X1241778D01*
X1216848Y1167805D02*
X1241211D01*
X1216280Y1167905D02*
X1240644D01*
X1216239Y1168005D02*
X1240077D01*
X1216257Y1168105D02*
X1239510D01*
X1216275Y1168205D02*
X1238943D01*
X1216292Y1168305D02*
X1238376D01*
X1216310Y1168405D02*
X1237809D01*
X1216328Y1168505D02*
X1237241D01*
X1216345Y1168605D02*
X1236674D01*
X1216363Y1168705D02*
X1236107D01*
X1216380Y1168805D02*
X1235540D01*
X1216398Y1168905D02*
X1234973D01*
X1216416Y1169005D02*
X1234406D01*
X1216433Y1169105D02*
X1233839D01*
X1216451Y1169205D02*
X1233271D01*
X1216469Y1169305D02*
X1232704D01*
X1216486Y1169405D02*
X1232137D01*
X1216504Y1169505D02*
X1231570D01*
X1216522Y1169605D02*
X1231003D01*
X1216539Y1169705D02*
X1230436D01*
X1216557Y1169805D02*
X1229869D01*
X1216574Y1169905D02*
X1229302D01*
X1216592Y1170005D02*
X1228734D01*
X1216610Y1170105D02*
X1228167D01*
X1216627Y1170205D02*
X1227600D01*
X1216645Y1170305D02*
X1227033D01*
X1216663Y1170405D02*
X1226466D01*
X1216680Y1170505D02*
X1225899D01*
X1216698Y1170605D02*
X1225332D01*
X1216715Y1170705D02*
X1224765D01*
X1216733Y1170805D02*
X1224197D01*
X1216751Y1170905D02*
X1223630D01*
X1216768Y1171005D02*
X1223063D01*
X1216786Y1171105D02*
X1222496D01*
X1216804Y1171205D02*
X1221929D01*
X1216821Y1171305D02*
X1221362D01*
X1216839Y1171405D02*
X1220795D01*
X1216857Y1171505D02*
X1220228D01*
X1216874Y1171605D02*
X1219660D01*
X1216892Y1171705D02*
X1219093D01*
X1216909Y1171805D02*
X1218526D01*
X1216927Y1171905D02*
X1217959D01*
X1216945Y1172005D02*
X1217392D01*
X1216302Y1167901D02*
Y1168362D01*
X1216402Y1167884D02*
Y1168929D01*
X1216502Y1167866D02*
Y1169496D01*
X1216602Y1167848D02*
Y1170064D01*
X1216702Y1167831D02*
Y1170631D01*
X1216802Y1167813D02*
Y1171198D01*
X1216902Y1167795D02*
Y1171765D01*
X1217002Y1167778D02*
Y1172074D01*
X1217102Y1167760D02*
Y1172056D01*
X1217202Y1167743D02*
Y1172038D01*
X1217302Y1167725D02*
Y1172021D01*
X1217402Y1167707D02*
Y1172003D01*
X1217502Y1167690D02*
Y1171986D01*
X1217602Y1167672D02*
Y1171968D01*
X1217702Y1167654D02*
Y1171950D01*
X1217802Y1167637D02*
Y1171933D01*
X1217902Y1167619D02*
Y1171915D01*
X1218002Y1167601D02*
Y1171897D01*
X1218102Y1167584D02*
Y1171880D01*
X1218202Y1167566D02*
Y1171862D01*
X1218302Y1167549D02*
Y1171845D01*
X1218402Y1167531D02*
Y1171827D01*
X1218502Y1167513D02*
Y1171809D01*
X1218602Y1167496D02*
Y1171792D01*
X1218702Y1167478D02*
Y1171774D01*
X1218802Y1167460D02*
Y1171756D01*
X1218902Y1167443D02*
Y1171739D01*
X1219002Y1167425D02*
Y1171721D01*
X1219102Y1167407D02*
Y1171703D01*
X1219202Y1167390D02*
Y1171686D01*
X1219302Y1167372D02*
Y1171668D01*
X1219402Y1167355D02*
Y1171651D01*
X1219502Y1167337D02*
Y1171633D01*
X1219602Y1167319D02*
Y1171615D01*
X1219702Y1167302D02*
Y1171598D01*
X1219802Y1167284D02*
Y1171580D01*
X1219902Y1167266D02*
Y1171562D01*
X1220002Y1167249D02*
Y1171545D01*
X1220102Y1167231D02*
Y1171527D01*
X1220202Y1167214D02*
Y1171510D01*
X1220302Y1167196D02*
Y1171492D01*
X1220402Y1167178D02*
Y1171474D01*
X1220502Y1167161D02*
Y1171457D01*
X1220602Y1167143D02*
Y1171439D01*
X1220702Y1167125D02*
Y1171421D01*
X1220802Y1167108D02*
Y1171404D01*
X1220902Y1167090D02*
Y1171386D01*
X1221002Y1167072D02*
Y1171368D01*
X1221102Y1167055D02*
Y1171351D01*
X1221202Y1167037D02*
Y1171333D01*
X1221302Y1167020D02*
Y1171316D01*
X1221402Y1167002D02*
Y1171298D01*
X1221502Y1166984D02*
Y1171280D01*
X1221602Y1166967D02*
Y1171263D01*
X1221702Y1166949D02*
Y1171245D01*
X1221802Y1166931D02*
Y1171227D01*
X1221902Y1166914D02*
Y1171210D01*
X1222002Y1166896D02*
Y1171192D01*
X1222102Y1166879D02*
Y1171174D01*
X1222202Y1166861D02*
Y1171157D01*
X1222302Y1166843D02*
Y1171139D01*
X1222402Y1166826D02*
Y1171122D01*
X1222502Y1166808D02*
Y1171104D01*
X1222602Y1166790D02*
Y1171086D01*
X1222702Y1166773D02*
Y1171069D01*
X1222802Y1166755D02*
Y1171051D01*
X1222902Y1166737D02*
Y1171033D01*
X1223002Y1166720D02*
Y1171016D01*
X1223102Y1166702D02*
Y1170998D01*
X1223202Y1166685D02*
Y1170981D01*
X1223302Y1166667D02*
Y1170963D01*
X1223402Y1166649D02*
Y1170945D01*
X1223502Y1166632D02*
Y1170928D01*
X1223602Y1166614D02*
Y1170910D01*
X1223702Y1166596D02*
Y1170892D01*
X1223802Y1166579D02*
Y1170875D01*
X1223902Y1166561D02*
Y1170857D01*
X1224002Y1166543D02*
Y1170839D01*
X1224102Y1166526D02*
Y1170822D01*
X1224202Y1166508D02*
Y1170804D01*
X1224302Y1166491D02*
Y1170787D01*
X1224402Y1166473D02*
Y1170769D01*
X1224502Y1166455D02*
Y1170751D01*
X1224602Y1166438D02*
Y1170734D01*
X1224702Y1166420D02*
Y1170716D01*
X1224802Y1166402D02*
Y1170698D01*
X1224902Y1166385D02*
Y1170681D01*
X1225002Y1166367D02*
Y1170663D01*
X1225102Y1166350D02*
Y1170646D01*
X1225202Y1166332D02*
Y1170628D01*
X1225302Y1166314D02*
Y1170610D01*
X1225402Y1166297D02*
Y1170593D01*
X1225502Y1166279D02*
Y1170575D01*
X1225602Y1166261D02*
Y1170557D01*
X1225702Y1166244D02*
Y1170540D01*
X1225802Y1166226D02*
Y1170522D01*
X1225902Y1166208D02*
Y1170504D01*
X1226002Y1166191D02*
Y1170487D01*
X1226102Y1166173D02*
Y1170469D01*
X1226202Y1166156D02*
Y1170452D01*
X1226302Y1166138D02*
Y1170434D01*
X1226402Y1166120D02*
Y1170416D01*
X1226502Y1166103D02*
Y1170399D01*
X1226602Y1166085D02*
Y1170381D01*
X1226702Y1166067D02*
Y1170363D01*
X1226802Y1166050D02*
Y1170346D01*
X1226902Y1166032D02*
Y1170328D01*
X1227002Y1166015D02*
Y1170310D01*
X1227102Y1165997D02*
Y1170293D01*
X1227202Y1165979D02*
Y1170275D01*
X1227302Y1165962D02*
Y1170258D01*
X1227402Y1165944D02*
Y1170240D01*
X1227502Y1165926D02*
Y1170222D01*
X1227602Y1165909D02*
Y1170205D01*
X1227702Y1165891D02*
Y1170187D01*
X1227802Y1165873D02*
Y1170169D01*
X1227902Y1165856D02*
Y1170152D01*
X1228002Y1165838D02*
Y1170134D01*
X1228102Y1165821D02*
Y1170117D01*
X1228202Y1165803D02*
Y1170099D01*
X1228302Y1165785D02*
Y1170081D01*
X1228402Y1165768D02*
Y1170064D01*
X1228502Y1165750D02*
Y1170046D01*
X1228602Y1165732D02*
Y1170028D01*
X1228702Y1165715D02*
Y1170011D01*
X1228802Y1165697D02*
Y1169993D01*
X1228902Y1165679D02*
Y1169975D01*
X1229002Y1165662D02*
Y1169958D01*
X1229102Y1165644D02*
Y1169940D01*
X1229202Y1165627D02*
Y1169923D01*
X1229302Y1165609D02*
Y1169905D01*
X1229402Y1165591D02*
Y1169887D01*
X1229502Y1165574D02*
Y1169870D01*
X1229602Y1165556D02*
Y1169852D01*
X1229702Y1165538D02*
Y1169834D01*
X1229802Y1165521D02*
Y1169817D01*
X1229902Y1165503D02*
Y1169799D01*
X1230002Y1165486D02*
Y1169782D01*
X1230102Y1165468D02*
Y1169764D01*
X1230202Y1165450D02*
Y1169746D01*
X1230302Y1165433D02*
Y1169729D01*
X1230402Y1165415D02*
Y1169711D01*
X1230502Y1165397D02*
Y1169693D01*
X1230602Y1165380D02*
Y1169676D01*
X1230702Y1165362D02*
Y1169658D01*
X1230802Y1165344D02*
Y1169640D01*
X1230902Y1165327D02*
Y1169623D01*
X1231002Y1165309D02*
Y1169605D01*
X1231102Y1165292D02*
Y1169588D01*
X1231202Y1165274D02*
Y1169570D01*
X1231302Y1165256D02*
Y1169552D01*
X1231402Y1165239D02*
Y1169535D01*
X1231502Y1165221D02*
Y1169517D01*
X1231602Y1165203D02*
Y1169499D01*
X1231702Y1165186D02*
Y1169482D01*
X1231802Y1165168D02*
Y1169464D01*
X1231902Y1165151D02*
Y1169446D01*
X1232002Y1165133D02*
Y1169429D01*
X1232102Y1165115D02*
Y1169411D01*
X1232202Y1165098D02*
Y1169394D01*
X1232302Y1165080D02*
Y1169376D01*
X1232402Y1165062D02*
Y1169358D01*
X1232502Y1165045D02*
Y1169341D01*
X1232602Y1165027D02*
Y1169323D01*
X1232702Y1165009D02*
Y1169305D01*
X1232802Y1164992D02*
Y1169288D01*
X1232902Y1164974D02*
Y1169270D01*
X1233002Y1164957D02*
Y1169253D01*
X1233102Y1164939D02*
Y1169235D01*
X1233202Y1164921D02*
Y1169217D01*
X1233302Y1164904D02*
Y1169200D01*
X1233402Y1164886D02*
Y1169182D01*
X1233502Y1164868D02*
Y1169164D01*
X1233602Y1164851D02*
Y1169147D01*
X1233702Y1164833D02*
Y1169129D01*
X1233802Y1164815D02*
Y1169111D01*
X1233902Y1164798D02*
Y1169094D01*
X1234002Y1164780D02*
Y1169076D01*
X1234102Y1164763D02*
Y1169059D01*
X1234202Y1164745D02*
Y1169041D01*
X1234302Y1164727D02*
Y1169023D01*
X1234402Y1164710D02*
Y1169006D01*
X1234502Y1164692D02*
Y1168988D01*
X1234602Y1164674D02*
Y1168970D01*
X1234702Y1164657D02*
Y1168953D01*
X1234802Y1164639D02*
Y1168935D01*
X1234902Y1164622D02*
Y1168918D01*
X1235002Y1164604D02*
Y1168900D01*
X1235102Y1164586D02*
Y1168882D01*
X1235202Y1164569D02*
Y1168865D01*
X1235302Y1164551D02*
Y1168847D01*
X1235402Y1164533D02*
Y1168829D01*
X1235502Y1164516D02*
Y1168812D01*
X1235602Y1164498D02*
Y1168794D01*
X1235702Y1164480D02*
Y1168776D01*
X1235802Y1164463D02*
Y1168759D01*
X1235902Y1164445D02*
Y1168741D01*
X1236002Y1164428D02*
Y1168724D01*
X1236102Y1164410D02*
Y1168706D01*
X1236202Y1164392D02*
Y1168688D01*
X1236302Y1164375D02*
Y1168671D01*
X1236402Y1164357D02*
Y1168653D01*
X1236502Y1164339D02*
Y1168635D01*
X1236602Y1164322D02*
Y1168618D01*
X1236702Y1164304D02*
Y1168600D01*
X1236802Y1164287D02*
Y1168582D01*
X1236902Y1164269D02*
Y1168565D01*
X1237002Y1164251D02*
Y1168547D01*
X1237102Y1164234D02*
Y1168530D01*
X1237202Y1164216D02*
Y1168512D01*
X1237302Y1164198D02*
Y1168494D01*
X1237402Y1164181D02*
Y1168477D01*
X1237502Y1164163D02*
Y1168459D01*
X1237602Y1164145D02*
Y1168441D01*
X1237702Y1164128D02*
Y1168424D01*
X1237802Y1164110D02*
Y1168406D01*
X1237902Y1164093D02*
Y1168389D01*
X1238002Y1164075D02*
Y1168371D01*
X1238102Y1164057D02*
Y1168353D01*
X1238202Y1164040D02*
Y1168336D01*
X1238302Y1164022D02*
Y1168318D01*
X1238402Y1164004D02*
Y1168300D01*
X1238502Y1163987D02*
Y1168283D01*
X1238602Y1163969D02*
Y1168265D01*
X1238702Y1163951D02*
Y1168247D01*
X1238802Y1163934D02*
Y1168230D01*
X1238902Y1163916D02*
Y1168212D01*
X1239002Y1163899D02*
Y1168195D01*
X1239102Y1163881D02*
Y1168177D01*
X1239202Y1163863D02*
Y1168159D01*
X1239302Y1163846D02*
Y1168142D01*
X1239402Y1163828D02*
Y1168124D01*
X1239502Y1163810D02*
Y1168106D01*
X1239602Y1163793D02*
Y1168089D01*
X1239702Y1163775D02*
Y1168071D01*
X1239802Y1163758D02*
Y1168053D01*
X1239902Y1163740D02*
Y1168036D01*
X1240002Y1163722D02*
Y1168018D01*
X1240102Y1163705D02*
Y1168001D01*
X1240202Y1163687D02*
Y1167983D01*
X1240302Y1163669D02*
Y1167965D01*
X1240402Y1163652D02*
Y1167948D01*
X1240502Y1163634D02*
Y1167930D01*
X1240602Y1163616D02*
Y1167912D01*
X1240702Y1163599D02*
Y1167895D01*
X1240802Y1163581D02*
Y1167877D01*
X1240902Y1163564D02*
Y1167860D01*
X1241002Y1163546D02*
Y1167842D01*
X1241102Y1163528D02*
Y1167824D01*
X1241202Y1163511D02*
Y1167807D01*
X1241302Y1163493D02*
Y1167789D01*
X1241402Y1163475D02*
Y1167771D01*
X1241502Y1163458D02*
Y1167754D01*
X1241602Y1163440D02*
Y1167736D01*
X1241702Y1163423D02*
Y1167718D01*
X1241802Y1163405D02*
Y1167701D01*
X1241902Y1163387D02*
Y1167683D01*
X1242002Y1163370D02*
Y1167666D01*
X1242102Y1163352D02*
Y1167648D01*
X1242202Y1163334D02*
Y1167630D01*
X1242302Y1163317D02*
Y1167613D01*
X1242402Y1163299D02*
Y1167595D01*
X1242502Y1163281D02*
Y1167577D01*
X1242602Y1163264D02*
Y1167560D01*
X1242702Y1163246D02*
Y1167542D01*
X1242802Y1163229D02*
Y1167525D01*
X1242902Y1163211D02*
Y1167507D01*
X1243002Y1163193D02*
Y1167489D01*
X1243102Y1163176D02*
Y1167472D01*
X1243202Y1163158D02*
Y1167454D01*
X1243302Y1163140D02*
Y1167436D01*
X1243402Y1163123D02*
Y1167419D01*
X1243502Y1163105D02*
Y1167401D01*
X1243602Y1163087D02*
Y1167383D01*
X1243702Y1163070D02*
Y1167366D01*
X1243802Y1163052D02*
Y1167348D01*
X1243902Y1163035D02*
Y1167331D01*
X1244002Y1163017D02*
Y1167313D01*
X1244102Y1162999D02*
Y1167295D01*
X1244202Y1162982D02*
Y1167278D01*
X1244302Y1162964D02*
Y1167260D01*
X1244402Y1162946D02*
Y1167242D01*
X1244502Y1162929D02*
Y1167225D01*
X1244602Y1162911D02*
Y1167207D01*
X1244702Y1162894D02*
Y1167189D01*
X1244802Y1162876D02*
Y1167172D01*
X1244902Y1162858D02*
Y1167154D01*
X1245002Y1162841D02*
Y1167137D01*
X1245102Y1162823D02*
Y1167119D01*
X1245202Y1162805D02*
Y1167101D01*
X1245302Y1163363D02*
Y1167084D01*
X1245402Y1163930D02*
Y1167066D01*
X1245502Y1164497D02*
Y1167048D01*
X1245602Y1165064D02*
Y1167031D01*
X1245702Y1165631D02*
Y1167013D01*
X1245802Y1166198D02*
Y1166996D01*
X1245902Y1166766D02*
Y1166978D01*
X1217798Y1177325D02*
X1246779Y1172215D01*
X1247513Y1176381*
X1218533Y1181491*
X1217798Y1177325*
X1246779Y1172215D02*
X1246779D01*
X1246212Y1172315D02*
X1246796D01*
X1245645Y1172415D02*
X1246814D01*
X1245077Y1172515D02*
X1246832D01*
X1244510Y1172615D02*
X1246849D01*
X1243943Y1172715D02*
X1246867D01*
X1243376Y1172815D02*
X1246885D01*
X1242809Y1172915D02*
X1246902D01*
X1242242Y1173015D02*
X1246920D01*
X1241675Y1173115D02*
X1246938D01*
X1241108Y1173215D02*
X1246955D01*
X1240540Y1173315D02*
X1246973D01*
X1239973Y1173415D02*
X1246990D01*
X1239406Y1173515D02*
X1247008D01*
X1238839Y1173615D02*
X1247026D01*
X1238272Y1173715D02*
X1247043D01*
X1237705Y1173815D02*
X1247061D01*
X1237138Y1173915D02*
X1247079D01*
X1236571Y1174015D02*
X1247096D01*
X1236003Y1174115D02*
X1247114D01*
X1235436Y1174215D02*
X1247131D01*
X1234869Y1174315D02*
X1247149D01*
X1234302Y1174415D02*
X1247167D01*
X1233735Y1174515D02*
X1247184D01*
X1233168Y1174615D02*
X1247202D01*
X1232601Y1174715D02*
X1247220D01*
X1232033Y1174815D02*
X1247237D01*
X1231466Y1174915D02*
X1247255D01*
X1230899Y1175015D02*
X1247273D01*
X1230332Y1175115D02*
X1247290D01*
X1229765Y1175215D02*
X1247308D01*
X1229198Y1175315D02*
X1247325D01*
X1228631Y1175415D02*
X1247343D01*
X1228064Y1175515D02*
X1247361D01*
X1227496Y1175615D02*
X1247378D01*
X1226929Y1175715D02*
X1247396D01*
X1226362Y1175815D02*
X1247414D01*
X1225795Y1175915D02*
X1247431D01*
X1225228Y1176015D02*
X1247449D01*
X1224661Y1176115D02*
X1247466D01*
X1224094Y1176215D02*
X1247484D01*
X1223527Y1176315D02*
X1247502D01*
X1222959Y1176415D02*
X1247323D01*
X1222392Y1176515D02*
X1246756D01*
X1221825Y1176615D02*
X1246189D01*
X1221258Y1176715D02*
X1245622D01*
X1220691Y1176815D02*
X1245055D01*
X1220124Y1176915D02*
X1244487D01*
X1219557Y1177015D02*
X1243920D01*
X1218990Y1177115D02*
X1243353D01*
X1218422Y1177215D02*
X1242786D01*
X1217855Y1177315D02*
X1242219D01*
X1217814Y1177415D02*
X1241652D01*
X1217832Y1177515D02*
X1241085D01*
X1217849Y1177615D02*
X1240518D01*
X1217867Y1177715D02*
X1239950D01*
X1217885Y1177815D02*
X1239383D01*
X1217902Y1177915D02*
X1238816D01*
X1217920Y1178015D02*
X1238249D01*
X1217938Y1178115D02*
X1237682D01*
X1217955Y1178215D02*
X1237115D01*
X1217973Y1178315D02*
X1236548D01*
X1217991Y1178415D02*
X1235981D01*
X1218008Y1178515D02*
X1235413D01*
X1218026Y1178615D02*
X1234846D01*
X1218043Y1178715D02*
X1234279D01*
X1218061Y1178815D02*
X1233712D01*
X1218079Y1178915D02*
X1233145D01*
X1218096Y1179015D02*
X1232578D01*
X1218114Y1179115D02*
X1232011D01*
X1218132Y1179215D02*
X1231444D01*
X1218149Y1179315D02*
X1230876D01*
X1218167Y1179415D02*
X1230309D01*
X1218184Y1179515D02*
X1229742D01*
X1218202Y1179615D02*
X1229175D01*
X1218220Y1179715D02*
X1228608D01*
X1218237Y1179815D02*
X1228041D01*
X1218255Y1179915D02*
X1227474D01*
X1218273Y1180015D02*
X1226906D01*
X1218290Y1180115D02*
X1226339D01*
X1218308Y1180215D02*
X1225772D01*
X1218326Y1180315D02*
X1225205D01*
X1218343Y1180415D02*
X1224638D01*
X1218361Y1180515D02*
X1224071D01*
X1218378Y1180615D02*
X1223504D01*
X1218396Y1180715D02*
X1222937D01*
X1218414Y1180815D02*
X1222369D01*
X1218431Y1180915D02*
X1221802D01*
X1218449Y1181015D02*
X1221235D01*
X1218467Y1181115D02*
X1220668D01*
X1218484Y1181215D02*
X1220101D01*
X1218502Y1181315D02*
X1219534D01*
X1218520Y1181415D02*
X1218967D01*
X1217802Y1177324D02*
Y1177347D01*
X1217902Y1177306D02*
Y1177915D01*
X1218002Y1177289D02*
Y1178482D01*
X1218102Y1177271D02*
Y1179049D01*
X1218202Y1177253D02*
Y1179616D01*
X1218302Y1177236D02*
Y1180183D01*
X1218402Y1177218D02*
Y1180750D01*
X1218502Y1177200D02*
Y1181317D01*
X1218602Y1177183D02*
Y1181479D01*
X1218702Y1177165D02*
Y1181461D01*
X1218802Y1177148D02*
Y1181443D01*
X1218902Y1177130D02*
Y1181426D01*
X1219002Y1177112D02*
Y1181408D01*
X1219102Y1177095D02*
Y1181391D01*
X1219202Y1177077D02*
Y1181373D01*
X1219302Y1177059D02*
Y1181355D01*
X1219402Y1177042D02*
Y1181338D01*
X1219502Y1177024D02*
Y1181320D01*
X1219602Y1177006D02*
Y1181302D01*
X1219702Y1176989D02*
Y1181285D01*
X1219802Y1176971D02*
Y1181267D01*
X1219902Y1176954D02*
Y1181250D01*
X1220002Y1176936D02*
Y1181232D01*
X1220102Y1176918D02*
Y1181214D01*
X1220202Y1176901D02*
Y1181197D01*
X1220302Y1176883D02*
Y1181179D01*
X1220402Y1176865D02*
Y1181161D01*
X1220502Y1176848D02*
Y1181144D01*
X1220602Y1176830D02*
Y1181126D01*
X1220702Y1176812D02*
Y1181108D01*
X1220802Y1176795D02*
Y1181091D01*
X1220902Y1176777D02*
Y1181073D01*
X1221002Y1176760D02*
Y1181056D01*
X1221102Y1176742D02*
Y1181038D01*
X1221202Y1176724D02*
Y1181020D01*
X1221302Y1176707D02*
Y1181003D01*
X1221402Y1176689D02*
Y1180985D01*
X1221502Y1176671D02*
Y1180967D01*
X1221602Y1176654D02*
Y1180950D01*
X1221702Y1176636D02*
Y1180932D01*
X1221802Y1176619D02*
Y1180915D01*
X1221902Y1176601D02*
Y1180897D01*
X1222002Y1176583D02*
Y1180879D01*
X1222102Y1176566D02*
Y1180862D01*
X1222202Y1176548D02*
Y1180844D01*
X1222302Y1176530D02*
Y1180826D01*
X1222402Y1176513D02*
Y1180809D01*
X1222502Y1176495D02*
Y1180791D01*
X1222602Y1176477D02*
Y1180773D01*
X1222702Y1176460D02*
Y1180756D01*
X1222802Y1176442D02*
Y1180738D01*
X1222902Y1176425D02*
Y1180721D01*
X1223002Y1176407D02*
Y1180703D01*
X1223102Y1176389D02*
Y1180685D01*
X1223202Y1176372D02*
Y1180668D01*
X1223302Y1176354D02*
Y1180650D01*
X1223402Y1176336D02*
Y1180632D01*
X1223502Y1176319D02*
Y1180615D01*
X1223602Y1176301D02*
Y1180597D01*
X1223702Y1176284D02*
Y1180579D01*
X1223802Y1176266D02*
Y1180562D01*
X1223902Y1176248D02*
Y1180544D01*
X1224002Y1176231D02*
Y1180527D01*
X1224102Y1176213D02*
Y1180509D01*
X1224202Y1176195D02*
Y1180491D01*
X1224302Y1176178D02*
Y1180474D01*
X1224402Y1176160D02*
Y1180456D01*
X1224502Y1176142D02*
Y1180438D01*
X1224602Y1176125D02*
Y1180421D01*
X1224702Y1176107D02*
Y1180403D01*
X1224802Y1176090D02*
Y1180386D01*
X1224902Y1176072D02*
Y1180368D01*
X1225002Y1176054D02*
Y1180350D01*
X1225102Y1176037D02*
Y1180333D01*
X1225202Y1176019D02*
Y1180315D01*
X1225302Y1176001D02*
Y1180297D01*
X1225402Y1175984D02*
Y1180280D01*
X1225502Y1175966D02*
Y1180262D01*
X1225602Y1175948D02*
Y1180244D01*
X1225702Y1175931D02*
Y1180227D01*
X1225802Y1175913D02*
Y1180209D01*
X1225902Y1175896D02*
Y1180192D01*
X1226002Y1175878D02*
Y1180174D01*
X1226102Y1175860D02*
Y1180156D01*
X1226202Y1175843D02*
Y1180139D01*
X1226302Y1175825D02*
Y1180121D01*
X1226402Y1175807D02*
Y1180103D01*
X1226502Y1175790D02*
Y1180086D01*
X1226602Y1175772D02*
Y1180068D01*
X1226702Y1175755D02*
Y1180051D01*
X1226802Y1175737D02*
Y1180033D01*
X1226902Y1175719D02*
Y1180015D01*
X1227002Y1175702D02*
Y1179998D01*
X1227102Y1175684D02*
Y1179980D01*
X1227202Y1175666D02*
Y1179962D01*
X1227302Y1175649D02*
Y1179945D01*
X1227402Y1175631D02*
Y1179927D01*
X1227502Y1175613D02*
Y1179909D01*
X1227602Y1175596D02*
Y1179892D01*
X1227702Y1175578D02*
Y1179874D01*
X1227802Y1175561D02*
Y1179857D01*
X1227902Y1175543D02*
Y1179839D01*
X1228002Y1175525D02*
Y1179821D01*
X1228102Y1175508D02*
Y1179804D01*
X1228202Y1175490D02*
Y1179786D01*
X1228302Y1175472D02*
Y1179768D01*
X1228402Y1175455D02*
Y1179751D01*
X1228502Y1175437D02*
Y1179733D01*
X1228602Y1175420D02*
Y1179715D01*
X1228702Y1175402D02*
Y1179698D01*
X1228802Y1175384D02*
Y1179680D01*
X1228902Y1175367D02*
Y1179663D01*
X1229002Y1175349D02*
Y1179645D01*
X1229102Y1175331D02*
Y1179627D01*
X1229202Y1175314D02*
Y1179610D01*
X1229302Y1175296D02*
Y1179592D01*
X1229402Y1175278D02*
Y1179574D01*
X1229502Y1175261D02*
Y1179557D01*
X1229602Y1175243D02*
Y1179539D01*
X1229702Y1175226D02*
Y1179522D01*
X1229802Y1175208D02*
Y1179504D01*
X1229902Y1175190D02*
Y1179486D01*
X1230002Y1175173D02*
Y1179469D01*
X1230102Y1175155D02*
Y1179451D01*
X1230202Y1175137D02*
Y1179433D01*
X1230302Y1175120D02*
Y1179416D01*
X1230402Y1175102D02*
Y1179398D01*
X1230502Y1175084D02*
Y1179380D01*
X1230602Y1175067D02*
Y1179363D01*
X1230702Y1175049D02*
Y1179345D01*
X1230802Y1175032D02*
Y1179328D01*
X1230902Y1175014D02*
Y1179310D01*
X1231002Y1174996D02*
Y1179292D01*
X1231102Y1174979D02*
Y1179275D01*
X1231202Y1174961D02*
Y1179257D01*
X1231302Y1174943D02*
Y1179239D01*
X1231402Y1174926D02*
Y1179222D01*
X1231502Y1174908D02*
Y1179204D01*
X1231602Y1174891D02*
Y1179187D01*
X1231702Y1174873D02*
Y1179169D01*
X1231802Y1174855D02*
Y1179151D01*
X1231902Y1174838D02*
Y1179134D01*
X1232002Y1174820D02*
Y1179116D01*
X1232102Y1174802D02*
Y1179098D01*
X1232202Y1174785D02*
Y1179081D01*
X1232302Y1174767D02*
Y1179063D01*
X1232402Y1174749D02*
Y1179045D01*
X1232502Y1174732D02*
Y1179028D01*
X1232602Y1174714D02*
Y1179010D01*
X1232702Y1174697D02*
Y1178993D01*
X1232802Y1174679D02*
Y1178975D01*
X1232902Y1174661D02*
Y1178957D01*
X1233002Y1174644D02*
Y1178940D01*
X1233102Y1174626D02*
Y1178922D01*
X1233202Y1174608D02*
Y1178904D01*
X1233302Y1174591D02*
Y1178887D01*
X1233402Y1174573D02*
Y1178869D01*
X1233502Y1174556D02*
Y1178851D01*
X1233602Y1174538D02*
Y1178834D01*
X1233702Y1174520D02*
Y1178816D01*
X1233802Y1174503D02*
Y1178799D01*
X1233902Y1174485D02*
Y1178781D01*
X1234002Y1174467D02*
Y1178763D01*
X1234102Y1174450D02*
Y1178746D01*
X1234202Y1174432D02*
Y1178728D01*
X1234302Y1174414D02*
Y1178710D01*
X1234402Y1174397D02*
Y1178693D01*
X1234502Y1174379D02*
Y1178675D01*
X1234602Y1174362D02*
Y1178658D01*
X1234702Y1174344D02*
Y1178640D01*
X1234802Y1174326D02*
Y1178622D01*
X1234902Y1174309D02*
Y1178605D01*
X1235002Y1174291D02*
Y1178587D01*
X1235102Y1174273D02*
Y1178569D01*
X1235202Y1174256D02*
Y1178552D01*
X1235302Y1174238D02*
Y1178534D01*
X1235402Y1174220D02*
Y1178516D01*
X1235502Y1174203D02*
Y1178499D01*
X1235602Y1174185D02*
Y1178481D01*
X1235702Y1174168D02*
Y1178464D01*
X1235802Y1174150D02*
Y1178446D01*
X1235902Y1174132D02*
Y1178428D01*
X1236002Y1174115D02*
Y1178411D01*
X1236102Y1174097D02*
Y1178393D01*
X1236202Y1174079D02*
Y1178375D01*
X1236302Y1174062D02*
Y1178358D01*
X1236402Y1174044D02*
Y1178340D01*
X1236502Y1174027D02*
Y1178323D01*
X1236602Y1174009D02*
Y1178305D01*
X1236702Y1173991D02*
Y1178287D01*
X1236802Y1173974D02*
Y1178270D01*
X1236902Y1173956D02*
Y1178252D01*
X1237002Y1173938D02*
Y1178234D01*
X1237102Y1173921D02*
Y1178217D01*
X1237202Y1173903D02*
Y1178199D01*
X1237302Y1173885D02*
Y1178181D01*
X1237402Y1173868D02*
Y1178164D01*
X1237502Y1173850D02*
Y1178146D01*
X1237602Y1173833D02*
Y1178129D01*
X1237702Y1173815D02*
Y1178111D01*
X1237802Y1173797D02*
Y1178093D01*
X1237902Y1173780D02*
Y1178076D01*
X1238002Y1173762D02*
Y1178058D01*
X1238102Y1173744D02*
Y1178040D01*
X1238202Y1173727D02*
Y1178023D01*
X1238302Y1173709D02*
Y1178005D01*
X1238402Y1173692D02*
Y1177987D01*
X1238502Y1173674D02*
Y1177970D01*
X1238602Y1173656D02*
Y1177952D01*
X1238702Y1173639D02*
Y1177935D01*
X1238802Y1173621D02*
Y1177917D01*
X1238902Y1173603D02*
Y1177899D01*
X1239002Y1173586D02*
Y1177882D01*
X1239102Y1173568D02*
Y1177864D01*
X1239202Y1173550D02*
Y1177846D01*
X1239302Y1173533D02*
Y1177829D01*
X1239402Y1173515D02*
Y1177811D01*
X1239502Y1173498D02*
Y1177794D01*
X1239602Y1173480D02*
Y1177776D01*
X1239702Y1173462D02*
Y1177758D01*
X1239802Y1173445D02*
Y1177741D01*
X1239902Y1173427D02*
Y1177723D01*
X1240002Y1173409D02*
Y1177705D01*
X1240102Y1173392D02*
Y1177688D01*
X1240202Y1173374D02*
Y1177670D01*
X1240302Y1173356D02*
Y1177652D01*
X1240402Y1173339D02*
Y1177635D01*
X1240502Y1173321D02*
Y1177617D01*
X1240602Y1173304D02*
Y1177600D01*
X1240702Y1173286D02*
Y1177582D01*
X1240802Y1173268D02*
Y1177564D01*
X1240902Y1173251D02*
Y1177547D01*
X1241002Y1173233D02*
Y1177529D01*
X1241102Y1173215D02*
Y1177511D01*
X1241202Y1173198D02*
Y1177494D01*
X1241302Y1173180D02*
Y1177476D01*
X1241402Y1173163D02*
Y1177459D01*
X1241502Y1173145D02*
Y1177441D01*
X1241602Y1173127D02*
Y1177423D01*
X1241702Y1173110D02*
Y1177406D01*
X1241802Y1173092D02*
Y1177388D01*
X1241902Y1173074D02*
Y1177370D01*
X1242002Y1173057D02*
Y1177353D01*
X1242102Y1173039D02*
Y1177335D01*
X1242202Y1173021D02*
Y1177317D01*
X1242302Y1173004D02*
Y1177300D01*
X1242402Y1172986D02*
Y1177282D01*
X1242502Y1172969D02*
Y1177265D01*
X1242602Y1172951D02*
Y1177247D01*
X1242702Y1172933D02*
Y1177229D01*
X1242802Y1172916D02*
Y1177212D01*
X1242902Y1172898D02*
Y1177194D01*
X1243002Y1172880D02*
Y1177176D01*
X1243102Y1172863D02*
Y1177159D01*
X1243202Y1172845D02*
Y1177141D01*
X1243302Y1172828D02*
Y1177123D01*
X1243402Y1172810D02*
Y1177106D01*
X1243502Y1172792D02*
Y1177088D01*
X1243602Y1172775D02*
Y1177071D01*
X1243702Y1172757D02*
Y1177053D01*
X1243802Y1172739D02*
Y1177035D01*
X1243902Y1172722D02*
Y1177018D01*
X1244002Y1172704D02*
Y1177000D01*
X1244102Y1172686D02*
Y1176982D01*
X1244202Y1172669D02*
Y1176965D01*
X1244302Y1172651D02*
Y1176947D01*
X1244402Y1172634D02*
Y1176930D01*
X1244502Y1172616D02*
Y1176912D01*
X1244602Y1172598D02*
Y1176894D01*
X1244702Y1172581D02*
Y1176877D01*
X1244802Y1172563D02*
Y1176859D01*
X1244902Y1172545D02*
Y1176841D01*
X1245002Y1172528D02*
Y1176824D01*
X1245102Y1172510D02*
Y1176806D01*
X1245202Y1172492D02*
Y1176788D01*
X1245302Y1172475D02*
Y1176771D01*
X1245402Y1172457D02*
Y1176753D01*
X1245502Y1172440D02*
Y1176736D01*
X1245602Y1172422D02*
Y1176718D01*
X1245702Y1172404D02*
Y1176700D01*
X1245802Y1172387D02*
Y1176683D01*
X1245902Y1172369D02*
Y1176665D01*
X1246002Y1172351D02*
Y1176647D01*
X1246102Y1172334D02*
Y1176630D01*
X1246202Y1172316D02*
Y1176612D01*
X1246302Y1172299D02*
Y1176595D01*
X1246402Y1172281D02*
Y1176577D01*
X1246502Y1172263D02*
Y1176559D01*
X1246602Y1172246D02*
Y1176542D01*
X1246702Y1172228D02*
Y1176524D01*
X1246802Y1172348D02*
Y1176506D01*
X1246902Y1172915D02*
Y1176489D01*
X1247002Y1173482D02*
Y1176471D01*
X1247102Y1174049D02*
Y1176453D01*
X1247202Y1174617D02*
Y1176436D01*
X1247302Y1175184D02*
Y1176418D01*
X1247402Y1175751D02*
Y1176401D01*
X1247502Y1176318D02*
Y1176383D01*
X1122795Y1212065D02*
X1149356Y1199396D01*
X1151178Y1203215*
X1124617Y1215884*
X1122795Y1212065*
X1149344Y1199402D02*
X1149359D01*
X1149134Y1199502D02*
X1149407D01*
X1148925Y1199602D02*
X1149455D01*
X1148715Y1199702D02*
X1149502D01*
X1148505Y1199802D02*
X1149550D01*
X1148296Y1199902D02*
X1149598D01*
X1148086Y1200002D02*
X1149645D01*
X1147876Y1200102D02*
X1149693D01*
X1147667Y1200202D02*
X1149741D01*
X1147457Y1200302D02*
X1149788D01*
X1147247Y1200402D02*
X1149836D01*
X1147038Y1200502D02*
X1149884D01*
X1146828Y1200602D02*
X1149932D01*
X1146618Y1200702D02*
X1149979D01*
X1146409Y1200802D02*
X1150027D01*
X1146199Y1200902D02*
X1150075D01*
X1145989Y1201002D02*
X1150122D01*
X1145780Y1201102D02*
X1150170D01*
X1145570Y1201202D02*
X1150218D01*
X1145360Y1201302D02*
X1150265D01*
X1145151Y1201402D02*
X1150313D01*
X1144941Y1201502D02*
X1150361D01*
X1144732Y1201602D02*
X1150409D01*
X1144522Y1201702D02*
X1150456D01*
X1144312Y1201802D02*
X1150504D01*
X1144103Y1201902D02*
X1150552D01*
X1143893Y1202002D02*
X1150599D01*
X1143683Y1202102D02*
X1150647D01*
X1143474Y1202202D02*
X1150695D01*
X1143264Y1202302D02*
X1150742D01*
X1143054Y1202402D02*
X1150790D01*
X1142845Y1202502D02*
X1150838D01*
X1142635Y1202602D02*
X1150886D01*
X1142425Y1202702D02*
X1150933D01*
X1142216Y1202802D02*
X1150981D01*
X1142006Y1202902D02*
X1151029D01*
X1141796Y1203002D02*
X1151076D01*
X1141587Y1203102D02*
X1151124D01*
X1141377Y1203202D02*
X1151172D01*
X1141167Y1203302D02*
X1150995D01*
X1140958Y1203402D02*
X1150785D01*
X1140748Y1203502D02*
X1150575D01*
X1140538Y1203602D02*
X1150366D01*
X1140329Y1203702D02*
X1150156D01*
X1140119Y1203802D02*
X1149946D01*
X1139909Y1203902D02*
X1149737D01*
X1139700Y1204002D02*
X1149527D01*
X1139490Y1204102D02*
X1149317D01*
X1139281Y1204202D02*
X1149108D01*
X1139071Y1204302D02*
X1148898D01*
X1138861Y1204402D02*
X1148688D01*
X1138652Y1204502D02*
X1148479D01*
X1138442Y1204602D02*
X1148269D01*
X1138232Y1204702D02*
X1148059D01*
X1138023Y1204802D02*
X1147850D01*
X1137813Y1204902D02*
X1147640D01*
X1137603Y1205002D02*
X1147430D01*
X1137394Y1205102D02*
X1147221D01*
X1137184Y1205202D02*
X1147011D01*
X1136974Y1205302D02*
X1146801D01*
X1136765Y1205402D02*
X1146592D01*
X1136555Y1205502D02*
X1146382D01*
X1136345Y1205602D02*
X1146173D01*
X1136136Y1205702D02*
X1145963D01*
X1135926Y1205802D02*
X1145753D01*
X1135716Y1205902D02*
X1145544D01*
X1135507Y1206002D02*
X1145334D01*
X1135297Y1206102D02*
X1145124D01*
X1135087Y1206202D02*
X1144915D01*
X1134878Y1206302D02*
X1144705D01*
X1134668Y1206402D02*
X1144495D01*
X1134458Y1206502D02*
X1144286D01*
X1134249Y1206602D02*
X1144076D01*
X1134039Y1206702D02*
X1143866D01*
X1133829Y1206802D02*
X1143657D01*
X1133620Y1206902D02*
X1143447D01*
X1133410Y1207002D02*
X1143237D01*
X1133201Y1207102D02*
X1143028D01*
X1132991Y1207202D02*
X1142818D01*
X1132781Y1207302D02*
X1142608D01*
X1132572Y1207402D02*
X1142399D01*
X1132362Y1207502D02*
X1142189D01*
X1132152Y1207602D02*
X1141979D01*
X1131943Y1207702D02*
X1141770D01*
X1131733Y1207802D02*
X1141560D01*
X1131523Y1207902D02*
X1141350D01*
X1131314Y1208002D02*
X1141141D01*
X1131104Y1208102D02*
X1140931D01*
X1130894Y1208202D02*
X1140722D01*
X1130685Y1208302D02*
X1140512D01*
X1130475Y1208402D02*
X1140302D01*
X1130265Y1208502D02*
X1140093D01*
X1130056Y1208602D02*
X1139883D01*
X1129846Y1208702D02*
X1139673D01*
X1129636Y1208802D02*
X1139464D01*
X1129427Y1208902D02*
X1139254D01*
X1129217Y1209002D02*
X1139044D01*
X1129007Y1209102D02*
X1138835D01*
X1128798Y1209202D02*
X1138625D01*
X1128588Y1209302D02*
X1138415D01*
X1128378Y1209402D02*
X1138206D01*
X1128169Y1209502D02*
X1137996D01*
X1127959Y1209602D02*
X1137786D01*
X1127750Y1209702D02*
X1137577D01*
X1127540Y1209802D02*
X1137367D01*
X1127330Y1209902D02*
X1137157D01*
X1127121Y1210002D02*
X1136948D01*
X1126911Y1210102D02*
X1136738D01*
X1126701Y1210202D02*
X1136528D01*
X1126492Y1210302D02*
X1136319D01*
X1126282Y1210402D02*
X1136109D01*
X1126072Y1210502D02*
X1135899D01*
X1125863Y1210602D02*
X1135690D01*
X1125653Y1210702D02*
X1135480D01*
X1125443Y1210802D02*
X1135271D01*
X1125234Y1210902D02*
X1135061D01*
X1125024Y1211002D02*
X1134851D01*
X1124814Y1211102D02*
X1134642D01*
X1124605Y1211202D02*
X1134432D01*
X1124395Y1211302D02*
X1134222D01*
X1124185Y1211402D02*
X1134013D01*
X1123976Y1211502D02*
X1133803D01*
X1123766Y1211602D02*
X1133593D01*
X1123556Y1211702D02*
X1133384D01*
X1123347Y1211802D02*
X1133174D01*
X1123137Y1211902D02*
X1132964D01*
X1122927Y1212002D02*
X1132755D01*
X1122813Y1212102D02*
X1132545D01*
X1122861Y1212202D02*
X1132335D01*
X1122909Y1212302D02*
X1132126D01*
X1122956Y1212402D02*
X1131916D01*
X1123004Y1212502D02*
X1131706D01*
X1123052Y1212602D02*
X1131497D01*
X1123099Y1212702D02*
X1131287D01*
X1123147Y1212802D02*
X1131077D01*
X1123195Y1212902D02*
X1130868D01*
X1123242Y1213002D02*
X1130658D01*
X1123290Y1213102D02*
X1130448D01*
X1123338Y1213202D02*
X1130239D01*
X1123386Y1213302D02*
X1130029D01*
X1123433Y1213402D02*
X1129819D01*
X1123481Y1213502D02*
X1129610D01*
X1123529Y1213602D02*
X1129400D01*
X1123576Y1213702D02*
X1129191D01*
X1123624Y1213802D02*
X1128981D01*
X1123672Y1213902D02*
X1128771D01*
X1123719Y1214002D02*
X1128562D01*
X1123767Y1214102D02*
X1128352D01*
X1123815Y1214202D02*
X1128142D01*
X1123863Y1214302D02*
X1127933D01*
X1123910Y1214402D02*
X1127723D01*
X1123958Y1214502D02*
X1127513D01*
X1124006Y1214602D02*
X1127304D01*
X1124053Y1214702D02*
X1127094D01*
X1124101Y1214802D02*
X1126884D01*
X1124149Y1214902D02*
X1126675D01*
X1124196Y1215002D02*
X1126465D01*
X1124244Y1215102D02*
X1126255D01*
X1124292Y1215202D02*
X1126046D01*
X1124339Y1215302D02*
X1125836D01*
X1124387Y1215402D02*
X1125626D01*
X1124435Y1215502D02*
X1125417D01*
X1124483Y1215602D02*
X1125207D01*
X1124530Y1215702D02*
X1124997D01*
X1124578Y1215802D02*
X1124788D01*
X1122795Y1212065D02*
X1122795D01*
X1122895Y1212018D02*
Y1212275D01*
X1122995Y1211970D02*
Y1212485D01*
X1123095Y1211922D02*
Y1212694D01*
X1123195Y1211875D02*
Y1212904D01*
X1123295Y1211827D02*
Y1213114D01*
X1123395Y1211779D02*
Y1213323D01*
X1123495Y1211731D02*
Y1213533D01*
X1123595Y1211684D02*
Y1213743D01*
X1123695Y1211636D02*
Y1213952D01*
X1123795Y1211588D02*
Y1214162D01*
X1123895Y1211541D02*
Y1214372D01*
X1123995Y1211493D02*
Y1214581D01*
X1124095Y1211445D02*
Y1214791D01*
X1124195Y1211398D02*
Y1215000D01*
X1124295Y1211350D02*
Y1215210D01*
X1124395Y1211302D02*
Y1215420D01*
X1124495Y1211254D02*
Y1215629D01*
X1124595Y1211207D02*
Y1215839D01*
X1124695Y1211159D02*
Y1215846D01*
X1124795Y1211111D02*
Y1215799D01*
X1124895Y1211064D02*
Y1215751D01*
X1124995Y1211016D02*
Y1215703D01*
X1125095Y1210968D02*
Y1215656D01*
X1125195Y1210921D02*
Y1215608D01*
X1125295Y1210873D02*
Y1215560D01*
X1125395Y1210825D02*
Y1215512D01*
X1125495Y1210777D02*
Y1215465D01*
X1125595Y1210730D02*
Y1215417D01*
X1125695Y1210682D02*
Y1215369D01*
X1125795Y1210634D02*
Y1215322D01*
X1125895Y1210587D02*
Y1215274D01*
X1125995Y1210539D02*
Y1215226D01*
X1126095Y1210491D02*
Y1215179D01*
X1126195Y1210444D02*
Y1215131D01*
X1126295Y1210396D02*
Y1215083D01*
X1126395Y1210348D02*
Y1215036D01*
X1126495Y1210301D02*
Y1214988D01*
X1126595Y1210253D02*
Y1214940D01*
X1126695Y1210205D02*
Y1214892D01*
X1126795Y1210157D02*
Y1214845D01*
X1126895Y1210110D02*
Y1214797D01*
X1126995Y1210062D02*
Y1214749D01*
X1127095Y1210014D02*
Y1214702D01*
X1127195Y1209967D02*
Y1214654D01*
X1127295Y1209919D02*
Y1214606D01*
X1127395Y1209871D02*
Y1214559D01*
X1127495Y1209824D02*
Y1214511D01*
X1127595Y1209776D02*
Y1214463D01*
X1127695Y1209728D02*
Y1214415D01*
X1127795Y1209680D02*
Y1214368D01*
X1127895Y1209633D02*
Y1214320D01*
X1127995Y1209585D02*
Y1214272D01*
X1128095Y1209537D02*
Y1214225D01*
X1128195Y1209490D02*
Y1214177D01*
X1128295Y1209442D02*
Y1214129D01*
X1128395Y1209394D02*
Y1214082D01*
X1128495Y1209347D02*
Y1214034D01*
X1128595Y1209299D02*
Y1213986D01*
X1128695Y1209251D02*
Y1213938D01*
X1128795Y1209203D02*
Y1213891D01*
X1128895Y1209156D02*
Y1213843D01*
X1128995Y1209108D02*
Y1213795D01*
X1129095Y1209060D02*
Y1213748D01*
X1129195Y1209013D02*
Y1213700D01*
X1129295Y1208965D02*
Y1213652D01*
X1129395Y1208917D02*
Y1213605D01*
X1129495Y1208870D02*
Y1213557D01*
X1129595Y1208822D02*
Y1213509D01*
X1129695Y1208774D02*
Y1213462D01*
X1129795Y1208726D02*
Y1213414D01*
X1129895Y1208679D02*
Y1213366D01*
X1129995Y1208631D02*
Y1213318D01*
X1130095Y1208583D02*
Y1213271D01*
X1130195Y1208536D02*
Y1213223D01*
X1130295Y1208488D02*
Y1213175D01*
X1130395Y1208440D02*
Y1213128D01*
X1130495Y1208393D02*
Y1213080D01*
X1130595Y1208345D02*
Y1213032D01*
X1130695Y1208297D02*
Y1212985D01*
X1130795Y1208250D02*
Y1212937D01*
X1130895Y1208202D02*
Y1212889D01*
X1130995Y1208154D02*
Y1212841D01*
X1131095Y1208106D02*
Y1212794D01*
X1131195Y1208059D02*
Y1212746D01*
X1131295Y1208011D02*
Y1212698D01*
X1131395Y1207963D02*
Y1212651D01*
X1131495Y1207916D02*
Y1212603D01*
X1131595Y1207868D02*
Y1212555D01*
X1131695Y1207820D02*
Y1212508D01*
X1131795Y1207773D02*
Y1212460D01*
X1131895Y1207725D02*
Y1212412D01*
X1131995Y1207677D02*
Y1212364D01*
X1132095Y1207629D02*
Y1212317D01*
X1132195Y1207582D02*
Y1212269D01*
X1132295Y1207534D02*
Y1212221D01*
X1132395Y1207486D02*
Y1212174D01*
X1132495Y1207439D02*
Y1212126D01*
X1132595Y1207391D02*
Y1212078D01*
X1132695Y1207343D02*
Y1212031D01*
X1132795Y1207296D02*
Y1211983D01*
X1132895Y1207248D02*
Y1211935D01*
X1132995Y1207200D02*
Y1211887D01*
X1133095Y1207152D02*
Y1211840D01*
X1133195Y1207105D02*
Y1211792D01*
X1133295Y1207057D02*
Y1211744D01*
X1133395Y1207009D02*
Y1211697D01*
X1133495Y1206962D02*
Y1211649D01*
X1133595Y1206914D02*
Y1211601D01*
X1133695Y1206866D02*
Y1211554D01*
X1133795Y1206819D02*
Y1211506D01*
X1133895Y1206771D02*
Y1211458D01*
X1133995Y1206723D02*
Y1211411D01*
X1134095Y1206675D02*
Y1211363D01*
X1134195Y1206628D02*
Y1211315D01*
X1134295Y1206580D02*
Y1211267D01*
X1134395Y1206532D02*
Y1211220D01*
X1134495Y1206485D02*
Y1211172D01*
X1134595Y1206437D02*
Y1211124D01*
X1134695Y1206389D02*
Y1211077D01*
X1134795Y1206342D02*
Y1211029D01*
X1134895Y1206294D02*
Y1210981D01*
X1134995Y1206246D02*
Y1210934D01*
X1135095Y1206199D02*
Y1210886D01*
X1135195Y1206151D02*
Y1210838D01*
X1135295Y1206103D02*
Y1210790D01*
X1135395Y1206055D02*
Y1210743D01*
X1135495Y1206008D02*
Y1210695D01*
X1135595Y1205960D02*
Y1210647D01*
X1135695Y1205912D02*
Y1210600D01*
X1135795Y1205865D02*
Y1210552D01*
X1135895Y1205817D02*
Y1210504D01*
X1135995Y1205769D02*
Y1210457D01*
X1136095Y1205722D02*
Y1210409D01*
X1136195Y1205674D02*
Y1210361D01*
X1136295Y1205626D02*
Y1210313D01*
X1136395Y1205578D02*
Y1210266D01*
X1136495Y1205531D02*
Y1210218D01*
X1136595Y1205483D02*
Y1210170D01*
X1136695Y1205435D02*
Y1210123D01*
X1136795Y1205388D02*
Y1210075D01*
X1136895Y1205340D02*
Y1210027D01*
X1136995Y1205292D02*
Y1209980D01*
X1137095Y1205245D02*
Y1209932D01*
X1137195Y1205197D02*
Y1209884D01*
X1137295Y1205149D02*
Y1209836D01*
X1137395Y1205101D02*
Y1209789D01*
X1137495Y1205054D02*
Y1209741D01*
X1137595Y1205006D02*
Y1209693D01*
X1137695Y1204958D02*
Y1209646D01*
X1137795Y1204911D02*
Y1209598D01*
X1137895Y1204863D02*
Y1209550D01*
X1137995Y1204815D02*
Y1209503D01*
X1138095Y1204768D02*
Y1209455D01*
X1138195Y1204720D02*
Y1209407D01*
X1138295Y1204672D02*
Y1209360D01*
X1138395Y1204624D02*
Y1209312D01*
X1138495Y1204577D02*
Y1209264D01*
X1138595Y1204529D02*
Y1209216D01*
X1138695Y1204481D02*
Y1209169D01*
X1138795Y1204434D02*
Y1209121D01*
X1138895Y1204386D02*
Y1209073D01*
X1138995Y1204338D02*
Y1209026D01*
X1139095Y1204291D02*
Y1208978D01*
X1139195Y1204243D02*
Y1208930D01*
X1139295Y1204195D02*
Y1208883D01*
X1139395Y1204148D02*
Y1208835D01*
X1139495Y1204100D02*
Y1208787D01*
X1139595Y1204052D02*
Y1208739D01*
X1139695Y1204004D02*
Y1208692D01*
X1139795Y1203957D02*
Y1208644D01*
X1139895Y1203909D02*
Y1208596D01*
X1139995Y1203861D02*
Y1208549D01*
X1140095Y1203814D02*
Y1208501D01*
X1140195Y1203766D02*
Y1208453D01*
X1140295Y1203718D02*
Y1208406D01*
X1140395Y1203671D02*
Y1208358D01*
X1140495Y1203623D02*
Y1208310D01*
X1140595Y1203575D02*
Y1208262D01*
X1140695Y1203527D02*
Y1208215D01*
X1140795Y1203480D02*
Y1208167D01*
X1140895Y1203432D02*
Y1208119D01*
X1140995Y1203384D02*
Y1208072D01*
X1141095Y1203337D02*
Y1208024D01*
X1141195Y1203289D02*
Y1207976D01*
X1141295Y1203241D02*
Y1207929D01*
X1141395Y1203194D02*
Y1207881D01*
X1141495Y1203146D02*
Y1207833D01*
X1141595Y1203098D02*
Y1207785D01*
X1141695Y1203050D02*
Y1207738D01*
X1141795Y1203003D02*
Y1207690D01*
X1141895Y1202955D02*
Y1207642D01*
X1141995Y1202907D02*
Y1207595D01*
X1142095Y1202860D02*
Y1207547D01*
X1142195Y1202812D02*
Y1207499D01*
X1142295Y1202764D02*
Y1207452D01*
X1142395Y1202717D02*
Y1207404D01*
X1142495Y1202669D02*
Y1207356D01*
X1142595Y1202621D02*
Y1207309D01*
X1142695Y1202574D02*
Y1207261D01*
X1142795Y1202526D02*
Y1207213D01*
X1142895Y1202478D02*
Y1207165D01*
X1142995Y1202430D02*
Y1207118D01*
X1143095Y1202383D02*
Y1207070D01*
X1143195Y1202335D02*
Y1207022D01*
X1143295Y1202287D02*
Y1206975D01*
X1143395Y1202240D02*
Y1206927D01*
X1143495Y1202192D02*
Y1206879D01*
X1143595Y1202144D02*
Y1206832D01*
X1143695Y1202097D02*
Y1206784D01*
X1143795Y1202049D02*
Y1206736D01*
X1143895Y1202001D02*
Y1206688D01*
X1143995Y1201953D02*
Y1206641D01*
X1144095Y1201906D02*
Y1206593D01*
X1144195Y1201858D02*
Y1206545D01*
X1144295Y1201810D02*
Y1206498D01*
X1144395Y1201763D02*
Y1206450D01*
X1144495Y1201715D02*
Y1206402D01*
X1144595Y1201667D02*
Y1206355D01*
X1144695Y1201620D02*
Y1206307D01*
X1144795Y1201572D02*
Y1206259D01*
X1144895Y1201524D02*
Y1206211D01*
X1144995Y1201476D02*
Y1206164D01*
X1145095Y1201429D02*
Y1206116D01*
X1145195Y1201381D02*
Y1206068D01*
X1145295Y1201333D02*
Y1206021D01*
X1145395Y1201286D02*
Y1205973D01*
X1145495Y1201238D02*
Y1205925D01*
X1145595Y1201190D02*
Y1205878D01*
X1145695Y1201143D02*
Y1205830D01*
X1145795Y1201095D02*
Y1205782D01*
X1145895Y1201047D02*
Y1205735D01*
X1145995Y1200999D02*
Y1205687D01*
X1146095Y1200952D02*
Y1205639D01*
X1146195Y1200904D02*
Y1205591D01*
X1146295Y1200856D02*
Y1205544D01*
X1146395Y1200809D02*
Y1205496D01*
X1146495Y1200761D02*
Y1205448D01*
X1146595Y1200713D02*
Y1205401D01*
X1146695Y1200666D02*
Y1205353D01*
X1146795Y1200618D02*
Y1205305D01*
X1146895Y1200570D02*
Y1205258D01*
X1146995Y1200523D02*
Y1205210D01*
X1147095Y1200475D02*
Y1205162D01*
X1147195Y1200427D02*
Y1205114D01*
X1147295Y1200379D02*
Y1205067D01*
X1147395Y1200332D02*
Y1205019D01*
X1147495Y1200284D02*
Y1204971D01*
X1147595Y1200236D02*
Y1204924D01*
X1147695Y1200189D02*
Y1204876D01*
X1147795Y1200141D02*
Y1204828D01*
X1147895Y1200093D02*
Y1204781D01*
X1147995Y1200046D02*
Y1204733D01*
X1148095Y1199998D02*
Y1204685D01*
X1148195Y1199950D02*
Y1204637D01*
X1148295Y1199902D02*
Y1204590D01*
X1148395Y1199855D02*
Y1204542D01*
X1148495Y1199807D02*
Y1204494D01*
X1148595Y1199759D02*
Y1204447D01*
X1148695Y1199712D02*
Y1204399D01*
X1148795Y1199664D02*
Y1204351D01*
X1148895Y1199616D02*
Y1204304D01*
X1148995Y1199569D02*
Y1204256D01*
X1149095Y1199521D02*
Y1204208D01*
X1149195Y1199473D02*
Y1204160D01*
X1149295Y1199425D02*
Y1204113D01*
X1149395Y1199478D02*
Y1204065D01*
X1149495Y1199688D02*
Y1204017D01*
X1149595Y1199898D02*
Y1203970D01*
X1149695Y1200107D02*
Y1203922D01*
X1149795Y1200317D02*
Y1203874D01*
X1149895Y1200527D02*
Y1203827D01*
X1149995Y1200736D02*
Y1203779D01*
X1150095Y1200946D02*
Y1203731D01*
X1150195Y1201156D02*
Y1203684D01*
X1150295Y1201365D02*
Y1203636D01*
X1150395Y1201575D02*
Y1203588D01*
X1150495Y1201785D02*
Y1203540D01*
X1150595Y1201994D02*
Y1203493D01*
X1150695Y1202204D02*
Y1203445D01*
X1150795Y1202414D02*
Y1203397D01*
X1150895Y1202623D02*
Y1203350D01*
X1150995Y1202833D02*
Y1203302D01*
X1151095Y1203043D02*
Y1203254D01*
X1118465Y1203050D02*
X1145026Y1190381D01*
X1146847Y1194199*
X1120286Y1206868*
X1118465Y1203050*
X1144980Y1190402D02*
X1145036D01*
X1144771Y1190502D02*
X1145084D01*
X1144561Y1190602D02*
X1145131D01*
X1144351Y1190702D02*
X1145179D01*
X1144142Y1190802D02*
X1145227D01*
X1143932Y1190902D02*
X1145274D01*
X1143722Y1191002D02*
X1145322D01*
X1143513Y1191102D02*
X1145370D01*
X1143303Y1191202D02*
X1145418D01*
X1143093Y1191302D02*
X1145465D01*
X1142884Y1191402D02*
X1145513D01*
X1142674Y1191502D02*
X1145561D01*
X1142464Y1191602D02*
X1145608D01*
X1142255Y1191702D02*
X1145656D01*
X1142045Y1191802D02*
X1145704D01*
X1141835Y1191902D02*
X1145751D01*
X1141626Y1192002D02*
X1145799D01*
X1141416Y1192102D02*
X1145847D01*
X1141206Y1192202D02*
X1145895D01*
X1140997Y1192302D02*
X1145942D01*
X1140787Y1192402D02*
X1145990D01*
X1140577Y1192502D02*
X1146038D01*
X1140368Y1192602D02*
X1146085D01*
X1140158Y1192702D02*
X1146133D01*
X1139948Y1192802D02*
X1146181D01*
X1139739Y1192902D02*
X1146228D01*
X1139529Y1193002D02*
X1146276D01*
X1139320Y1193102D02*
X1146324D01*
X1139110Y1193202D02*
X1146372D01*
X1138900Y1193302D02*
X1146419D01*
X1138691Y1193402D02*
X1146467D01*
X1138481Y1193502D02*
X1146515D01*
X1138271Y1193602D02*
X1146562D01*
X1138062Y1193702D02*
X1146610D01*
X1137852Y1193802D02*
X1146658D01*
X1137642Y1193902D02*
X1146705D01*
X1137433Y1194002D02*
X1146753D01*
X1137223Y1194102D02*
X1146801D01*
X1137013Y1194202D02*
X1146841D01*
X1136804Y1194302D02*
X1146631D01*
X1136594Y1194402D02*
X1146421D01*
X1136384Y1194502D02*
X1146212D01*
X1136175Y1194602D02*
X1146002D01*
X1135965Y1194702D02*
X1145792D01*
X1135755Y1194802D02*
X1145583D01*
X1135546Y1194902D02*
X1145373D01*
X1135336Y1195002D02*
X1145163D01*
X1135126Y1195102D02*
X1144954D01*
X1134917Y1195202D02*
X1144744D01*
X1134707Y1195302D02*
X1144534D01*
X1134497Y1195402D02*
X1144325D01*
X1134288Y1195502D02*
X1144115D01*
X1134078Y1195602D02*
X1143905D01*
X1133869Y1195702D02*
X1143696D01*
X1133659Y1195802D02*
X1143486D01*
X1133449Y1195902D02*
X1143276D01*
X1133240Y1196002D02*
X1143067D01*
X1133030Y1196102D02*
X1142857D01*
X1132820Y1196202D02*
X1142647D01*
X1132611Y1196302D02*
X1142438D01*
X1132401Y1196402D02*
X1142228D01*
X1132191Y1196502D02*
X1142018D01*
X1131982Y1196602D02*
X1141809D01*
X1131772Y1196702D02*
X1141599D01*
X1131562Y1196802D02*
X1141389D01*
X1131353Y1196902D02*
X1141180D01*
X1131143Y1197002D02*
X1140970D01*
X1130933Y1197102D02*
X1140761D01*
X1130724Y1197202D02*
X1140551D01*
X1130514Y1197302D02*
X1140341D01*
X1130304Y1197402D02*
X1140132D01*
X1130095Y1197502D02*
X1139922D01*
X1129885Y1197602D02*
X1139712D01*
X1129675Y1197702D02*
X1139503D01*
X1129466Y1197802D02*
X1139293D01*
X1129256Y1197902D02*
X1139083D01*
X1129046Y1198002D02*
X1138874D01*
X1128837Y1198102D02*
X1138664D01*
X1128627Y1198202D02*
X1138454D01*
X1128417Y1198302D02*
X1138245D01*
X1128208Y1198402D02*
X1138035D01*
X1127998Y1198502D02*
X1137825D01*
X1127789Y1198602D02*
X1137616D01*
X1127579Y1198702D02*
X1137406D01*
X1127369Y1198802D02*
X1137196D01*
X1127160Y1198902D02*
X1136987D01*
X1126950Y1199002D02*
X1136777D01*
X1126740Y1199102D02*
X1136567D01*
X1126531Y1199202D02*
X1136358D01*
X1126321Y1199302D02*
X1136148D01*
X1126111Y1199402D02*
X1135938D01*
X1125902Y1199502D02*
X1135729D01*
X1125692Y1199602D02*
X1135519D01*
X1125482Y1199702D02*
X1135310D01*
X1125273Y1199802D02*
X1135100D01*
X1125063Y1199902D02*
X1134890D01*
X1124853Y1200002D02*
X1134681D01*
X1124644Y1200102D02*
X1134471D01*
X1124434Y1200202D02*
X1134261D01*
X1124224Y1200302D02*
X1134052D01*
X1124015Y1200402D02*
X1133842D01*
X1123805Y1200502D02*
X1133632D01*
X1123595Y1200602D02*
X1133423D01*
X1123386Y1200702D02*
X1133213D01*
X1123176Y1200802D02*
X1133003D01*
X1122966Y1200902D02*
X1132794D01*
X1122757Y1201002D02*
X1132584D01*
X1122547Y1201102D02*
X1132374D01*
X1122338Y1201202D02*
X1132165D01*
X1122128Y1201302D02*
X1131955D01*
X1121918Y1201402D02*
X1131745D01*
X1121709Y1201502D02*
X1131536D01*
X1121499Y1201602D02*
X1131326D01*
X1121289Y1201702D02*
X1131116D01*
X1121080Y1201802D02*
X1130907D01*
X1120870Y1201902D02*
X1130697D01*
X1120660Y1202002D02*
X1130487D01*
X1120451Y1202102D02*
X1130278D01*
X1120241Y1202202D02*
X1130068D01*
X1120031Y1202302D02*
X1129859D01*
X1119822Y1202402D02*
X1129649D01*
X1119612Y1202502D02*
X1129439D01*
X1119402Y1202602D02*
X1129230D01*
X1119193Y1202702D02*
X1129020D01*
X1118983Y1202802D02*
X1128810D01*
X1118773Y1202902D02*
X1128601D01*
X1118564Y1203002D02*
X1128391D01*
X1118490Y1203102D02*
X1128181D01*
X1118538Y1203202D02*
X1127972D01*
X1118585Y1203302D02*
X1127762D01*
X1118633Y1203402D02*
X1127552D01*
X1118681Y1203502D02*
X1127343D01*
X1118728Y1203602D02*
X1127133D01*
X1118776Y1203702D02*
X1126923D01*
X1118824Y1203802D02*
X1126714D01*
X1118872Y1203902D02*
X1126504D01*
X1118919Y1204002D02*
X1126294D01*
X1118967Y1204102D02*
X1126085D01*
X1119015Y1204202D02*
X1125875D01*
X1119062Y1204302D02*
X1125665D01*
X1119110Y1204402D02*
X1125456D01*
X1119158Y1204502D02*
X1125246D01*
X1119205Y1204602D02*
X1125036D01*
X1119253Y1204702D02*
X1124827D01*
X1119301Y1204802D02*
X1124617D01*
X1119349Y1204902D02*
X1124407D01*
X1119396Y1205002D02*
X1124198D01*
X1119444Y1205102D02*
X1123988D01*
X1119492Y1205202D02*
X1123779D01*
X1119539Y1205302D02*
X1123569D01*
X1119587Y1205402D02*
X1123359D01*
X1119635Y1205502D02*
X1123150D01*
X1119682Y1205602D02*
X1122940D01*
X1119730Y1205702D02*
X1122730D01*
X1119778Y1205802D02*
X1122521D01*
X1119825Y1205902D02*
X1122311D01*
X1119873Y1206002D02*
X1122101D01*
X1119921Y1206102D02*
X1121892D01*
X1119969Y1206202D02*
X1121682D01*
X1120016Y1206302D02*
X1121472D01*
X1120064Y1206402D02*
X1121263D01*
X1120112Y1206502D02*
X1121053D01*
X1120159Y1206602D02*
X1120843D01*
X1120207Y1206702D02*
X1120634D01*
X1120255Y1206802D02*
X1120424D01*
X1118465Y1203050D02*
X1118465D01*
X1118565Y1203002D02*
Y1203259D01*
X1118665Y1202954D02*
Y1203469D01*
X1118765Y1202906D02*
Y1203679D01*
X1118865Y1202859D02*
Y1203888D01*
X1118965Y1202811D02*
Y1204098D01*
X1119065Y1202763D02*
Y1204307D01*
X1119165Y1202716D02*
Y1204517D01*
X1119265Y1202668D02*
Y1204727D01*
X1119365Y1202620D02*
Y1204936D01*
X1119465Y1202573D02*
Y1205146D01*
X1119565Y1202525D02*
Y1205356D01*
X1119665Y1202477D02*
Y1205565D01*
X1119765Y1202429D02*
Y1205775D01*
X1119865Y1202382D02*
Y1205985D01*
X1119965Y1202334D02*
Y1206194D01*
X1120065Y1202286D02*
Y1206404D01*
X1120165Y1202239D02*
Y1206614D01*
X1120265Y1202191D02*
Y1206823D01*
X1120365Y1202143D02*
Y1206831D01*
X1120465Y1202096D02*
Y1206783D01*
X1120565Y1202048D02*
Y1206735D01*
X1120665Y1202000D02*
Y1206688D01*
X1120765Y1201953D02*
Y1206640D01*
X1120865Y1201905D02*
Y1206592D01*
X1120965Y1201857D02*
Y1206544D01*
X1121065Y1201809D02*
Y1206497D01*
X1121165Y1201762D02*
Y1206449D01*
X1121265Y1201714D02*
Y1206401D01*
X1121365Y1201666D02*
Y1206354D01*
X1121465Y1201619D02*
Y1206306D01*
X1121565Y1201571D02*
Y1206258D01*
X1121665Y1201523D02*
Y1206211D01*
X1121765Y1201476D02*
Y1206163D01*
X1121865Y1201428D02*
Y1206115D01*
X1121965Y1201380D02*
Y1206067D01*
X1122065Y1201332D02*
Y1206020D01*
X1122165Y1201285D02*
Y1205972D01*
X1122265Y1201237D02*
Y1205924D01*
X1122365Y1201189D02*
Y1205877D01*
X1122465Y1201142D02*
Y1205829D01*
X1122565Y1201094D02*
Y1205781D01*
X1122665Y1201046D02*
Y1205734D01*
X1122765Y1200999D02*
Y1205686D01*
X1122865Y1200951D02*
Y1205638D01*
X1122965Y1200903D02*
Y1205590D01*
X1123065Y1200855D02*
Y1205543D01*
X1123165Y1200808D02*
Y1205495D01*
X1123265Y1200760D02*
Y1205447D01*
X1123365Y1200712D02*
Y1205400D01*
X1123465Y1200665D02*
Y1205352D01*
X1123565Y1200617D02*
Y1205304D01*
X1123665Y1200569D02*
Y1205257D01*
X1123765Y1200522D02*
Y1205209D01*
X1123865Y1200474D02*
Y1205161D01*
X1123965Y1200426D02*
Y1205114D01*
X1124065Y1200379D02*
Y1205066D01*
X1124165Y1200331D02*
Y1205018D01*
X1124265Y1200283D02*
Y1204970D01*
X1124365Y1200235D02*
Y1204923D01*
X1124465Y1200188D02*
Y1204875D01*
X1124565Y1200140D02*
Y1204827D01*
X1124665Y1200092D02*
Y1204780D01*
X1124765Y1200045D02*
Y1204732D01*
X1124865Y1199997D02*
Y1204684D01*
X1124965Y1199949D02*
Y1204637D01*
X1125065Y1199902D02*
Y1204589D01*
X1125165Y1199854D02*
Y1204541D01*
X1125265Y1199806D02*
Y1204493D01*
X1125365Y1199758D02*
Y1204446D01*
X1125465Y1199711D02*
Y1204398D01*
X1125565Y1199663D02*
Y1204350D01*
X1125665Y1199615D02*
Y1204303D01*
X1125765Y1199568D02*
Y1204255D01*
X1125865Y1199520D02*
Y1204207D01*
X1125965Y1199472D02*
Y1204160D01*
X1126065Y1199425D02*
Y1204112D01*
X1126165Y1199377D02*
Y1204064D01*
X1126265Y1199329D02*
Y1204016D01*
X1126365Y1199281D02*
Y1203969D01*
X1126465Y1199234D02*
Y1203921D01*
X1126565Y1199186D02*
Y1203873D01*
X1126665Y1199138D02*
Y1203826D01*
X1126765Y1199091D02*
Y1203778D01*
X1126865Y1199043D02*
Y1203730D01*
X1126965Y1198995D02*
Y1203683D01*
X1127065Y1198948D02*
Y1203635D01*
X1127165Y1198900D02*
Y1203587D01*
X1127265Y1198852D02*
Y1203540D01*
X1127365Y1198804D02*
Y1203492D01*
X1127465Y1198757D02*
Y1203444D01*
X1127565Y1198709D02*
Y1203396D01*
X1127665Y1198661D02*
Y1203349D01*
X1127765Y1198614D02*
Y1203301D01*
X1127865Y1198566D02*
Y1203253D01*
X1127965Y1198518D02*
Y1203206D01*
X1128065Y1198471D02*
Y1203158D01*
X1128165Y1198423D02*
Y1203110D01*
X1128265Y1198375D02*
Y1203063D01*
X1128365Y1198328D02*
Y1203015D01*
X1128465Y1198280D02*
Y1202967D01*
X1128565Y1198232D02*
Y1202919D01*
X1128665Y1198184D02*
Y1202872D01*
X1128765Y1198137D02*
Y1202824D01*
X1128865Y1198089D02*
Y1202776D01*
X1128965Y1198041D02*
Y1202729D01*
X1129065Y1197994D02*
Y1202681D01*
X1129165Y1197946D02*
Y1202633D01*
X1129265Y1197898D02*
Y1202586D01*
X1129365Y1197851D02*
Y1202538D01*
X1129465Y1197803D02*
Y1202490D01*
X1129565Y1197755D02*
Y1202442D01*
X1129665Y1197707D02*
Y1202395D01*
X1129765Y1197660D02*
Y1202347D01*
X1129865Y1197612D02*
Y1202299D01*
X1129965Y1197564D02*
Y1202252D01*
X1130065Y1197517D02*
Y1202204D01*
X1130165Y1197469D02*
Y1202156D01*
X1130265Y1197421D02*
Y1202109D01*
X1130365Y1197374D02*
Y1202061D01*
X1130465Y1197326D02*
Y1202013D01*
X1130565Y1197278D02*
Y1201965D01*
X1130665Y1197230D02*
Y1201918D01*
X1130765Y1197183D02*
Y1201870D01*
X1130865Y1197135D02*
Y1201822D01*
X1130965Y1197087D02*
Y1201775D01*
X1131065Y1197040D02*
Y1201727D01*
X1131165Y1196992D02*
Y1201679D01*
X1131265Y1196944D02*
Y1201632D01*
X1131365Y1196897D02*
Y1201584D01*
X1131465Y1196849D02*
Y1201536D01*
X1131565Y1196801D02*
Y1201489D01*
X1131665Y1196753D02*
Y1201441D01*
X1131765Y1196706D02*
Y1201393D01*
X1131865Y1196658D02*
Y1201345D01*
X1131965Y1196610D02*
Y1201298D01*
X1132065Y1196563D02*
Y1201250D01*
X1132165Y1196515D02*
Y1201202D01*
X1132265Y1196467D02*
Y1201155D01*
X1132365Y1196420D02*
Y1201107D01*
X1132465Y1196372D02*
Y1201059D01*
X1132565Y1196324D02*
Y1201012D01*
X1132665Y1196277D02*
Y1200964D01*
X1132765Y1196229D02*
Y1200916D01*
X1132865Y1196181D02*
Y1200868D01*
X1132965Y1196133D02*
Y1200821D01*
X1133065Y1196086D02*
Y1200773D01*
X1133165Y1196038D02*
Y1200725D01*
X1133265Y1195990D02*
Y1200678D01*
X1133365Y1195943D02*
Y1200630D01*
X1133465Y1195895D02*
Y1200582D01*
X1133565Y1195847D02*
Y1200535D01*
X1133665Y1195800D02*
Y1200487D01*
X1133765Y1195752D02*
Y1200439D01*
X1133865Y1195704D02*
Y1200391D01*
X1133965Y1195656D02*
Y1200344D01*
X1134065Y1195609D02*
Y1200296D01*
X1134165Y1195561D02*
Y1200248D01*
X1134265Y1195513D02*
Y1200201D01*
X1134365Y1195466D02*
Y1200153D01*
X1134465Y1195418D02*
Y1200105D01*
X1134565Y1195370D02*
Y1200058D01*
X1134665Y1195323D02*
Y1200010D01*
X1134765Y1195275D02*
Y1199962D01*
X1134865Y1195227D02*
Y1199914D01*
X1134965Y1195179D02*
Y1199867D01*
X1135065Y1195132D02*
Y1199819D01*
X1135165Y1195084D02*
Y1199771D01*
X1135265Y1195036D02*
Y1199724D01*
X1135365Y1194989D02*
Y1199676D01*
X1135465Y1194941D02*
Y1199628D01*
X1135565Y1194893D02*
Y1199581D01*
X1135665Y1194846D02*
Y1199533D01*
X1135765Y1194798D02*
Y1199485D01*
X1135865Y1194750D02*
Y1199438D01*
X1135965Y1194702D02*
Y1199390D01*
X1136065Y1194655D02*
Y1199342D01*
X1136165Y1194607D02*
Y1199294D01*
X1136265Y1194559D02*
Y1199247D01*
X1136365Y1194512D02*
Y1199199D01*
X1136465Y1194464D02*
Y1199151D01*
X1136565Y1194416D02*
Y1199104D01*
X1136665Y1194369D02*
Y1199056D01*
X1136765Y1194321D02*
Y1199008D01*
X1136865Y1194273D02*
Y1198961D01*
X1136965Y1194226D02*
Y1198913D01*
X1137065Y1194178D02*
Y1198865D01*
X1137165Y1194130D02*
Y1198817D01*
X1137265Y1194082D02*
Y1198770D01*
X1137365Y1194035D02*
Y1198722D01*
X1137465Y1193987D02*
Y1198674D01*
X1137565Y1193939D02*
Y1198627D01*
X1137665Y1193892D02*
Y1198579D01*
X1137765Y1193844D02*
Y1198531D01*
X1137865Y1193796D02*
Y1198484D01*
X1137965Y1193749D02*
Y1198436D01*
X1138065Y1193701D02*
Y1198388D01*
X1138165Y1193653D02*
Y1198340D01*
X1138265Y1193605D02*
Y1198293D01*
X1138365Y1193558D02*
Y1198245D01*
X1138465Y1193510D02*
Y1198197D01*
X1138565Y1193462D02*
Y1198150D01*
X1138665Y1193415D02*
Y1198102D01*
X1138765Y1193367D02*
Y1198054D01*
X1138865Y1193319D02*
Y1198007D01*
X1138965Y1193272D02*
Y1197959D01*
X1139065Y1193224D02*
Y1197911D01*
X1139165Y1193176D02*
Y1197863D01*
X1139265Y1193128D02*
Y1197816D01*
X1139365Y1193081D02*
Y1197768D01*
X1139465Y1193033D02*
Y1197720D01*
X1139565Y1192985D02*
Y1197673D01*
X1139665Y1192938D02*
Y1197625D01*
X1139765Y1192890D02*
Y1197577D01*
X1139865Y1192842D02*
Y1197530D01*
X1139965Y1192795D02*
Y1197482D01*
X1140065Y1192747D02*
Y1197434D01*
X1140165Y1192699D02*
Y1197387D01*
X1140265Y1192651D02*
Y1197339D01*
X1140365Y1192604D02*
Y1197291D01*
X1140465Y1192556D02*
Y1197243D01*
X1140565Y1192508D02*
Y1197196D01*
X1140665Y1192461D02*
Y1197148D01*
X1140765Y1192413D02*
Y1197100D01*
X1140865Y1192365D02*
Y1197053D01*
X1140965Y1192318D02*
Y1197005D01*
X1141065Y1192270D02*
Y1196957D01*
X1141165Y1192222D02*
Y1196910D01*
X1141265Y1192175D02*
Y1196862D01*
X1141365Y1192127D02*
Y1196814D01*
X1141465Y1192079D02*
Y1196766D01*
X1141565Y1192031D02*
Y1196719D01*
X1141665Y1191984D02*
Y1196671D01*
X1141765Y1191936D02*
Y1196623D01*
X1141865Y1191888D02*
Y1196576D01*
X1141965Y1191841D02*
Y1196528D01*
X1142065Y1191793D02*
Y1196480D01*
X1142165Y1191745D02*
Y1196433D01*
X1142265Y1191698D02*
Y1196385D01*
X1142365Y1191650D02*
Y1196337D01*
X1142465Y1191602D02*
Y1196289D01*
X1142565Y1191554D02*
Y1196242D01*
X1142665Y1191507D02*
Y1196194D01*
X1142765Y1191459D02*
Y1196146D01*
X1142865Y1191411D02*
Y1196099D01*
X1142965Y1191364D02*
Y1196051D01*
X1143065Y1191316D02*
Y1196003D01*
X1143165Y1191268D02*
Y1195956D01*
X1143265Y1191221D02*
Y1195908D01*
X1143365Y1191173D02*
Y1195860D01*
X1143465Y1191125D02*
Y1195812D01*
X1143565Y1191077D02*
Y1195765D01*
X1143665Y1191030D02*
Y1195717D01*
X1143765Y1190982D02*
Y1195669D01*
X1143865Y1190934D02*
Y1195622D01*
X1143965Y1190887D02*
Y1195574D01*
X1144065Y1190839D02*
Y1195526D01*
X1144165Y1190791D02*
Y1195479D01*
X1144265Y1190744D02*
Y1195431D01*
X1144365Y1190696D02*
Y1195383D01*
X1144465Y1190648D02*
Y1195336D01*
X1144565Y1190601D02*
Y1195288D01*
X1144665Y1190553D02*
Y1195240D01*
X1144765Y1190505D02*
Y1195192D01*
X1144865Y1190457D02*
Y1195145D01*
X1144965Y1190410D02*
Y1195097D01*
X1145065Y1190463D02*
Y1195049D01*
X1145165Y1190672D02*
Y1195002D01*
X1145265Y1190882D02*
Y1194954D01*
X1145365Y1191092D02*
Y1194906D01*
X1145465Y1191301D02*
Y1194859D01*
X1145565Y1191511D02*
Y1194811D01*
X1145665Y1191721D02*
Y1194763D01*
X1145765Y1191930D02*
Y1194715D01*
X1145865Y1192140D02*
Y1194668D01*
X1145965Y1192350D02*
Y1194620D01*
X1146065Y1192559D02*
Y1194572D01*
X1146165Y1192769D02*
Y1194525D01*
X1146265Y1192979D02*
Y1194477D01*
X1146365Y1193188D02*
Y1194429D01*
X1146465Y1193398D02*
Y1194382D01*
X1146565Y1193608D02*
Y1194334D01*
X1146665Y1193817D02*
Y1194286D01*
X1146765Y1194027D02*
Y1194238D01*
X1143950Y1184471D02*
X1114658Y1181650D01*
X1115063Y1177439*
X1144355Y1180260*
X1143950Y1184471*
X1115063Y1177439D02*
X1115063D01*
X1115053Y1177539D02*
X1116102D01*
X1115044Y1177639D02*
X1117140D01*
X1115034Y1177739D02*
X1118179D01*
X1115024Y1177839D02*
X1119217D01*
X1115015Y1177939D02*
X1120256D01*
X1115005Y1178039D02*
X1121294D01*
X1114996Y1178139D02*
X1122333D01*
X1114986Y1178239D02*
X1123371D01*
X1114976Y1178339D02*
X1124410D01*
X1114967Y1178439D02*
X1125448D01*
X1114957Y1178539D02*
X1126487D01*
X1114947Y1178639D02*
X1127525D01*
X1114938Y1178739D02*
X1128564D01*
X1114928Y1178839D02*
X1129603D01*
X1114919Y1178939D02*
X1130641D01*
X1114909Y1179039D02*
X1131680D01*
X1114899Y1179139D02*
X1132718D01*
X1114890Y1179239D02*
X1133757D01*
X1114880Y1179339D02*
X1134795D01*
X1114870Y1179439D02*
X1135834D01*
X1114861Y1179539D02*
X1136872D01*
X1114851Y1179639D02*
X1137911D01*
X1114842Y1179739D02*
X1138949D01*
X1114832Y1179839D02*
X1139988D01*
X1114822Y1179939D02*
X1141027D01*
X1114813Y1180039D02*
X1142065D01*
X1114803Y1180139D02*
X1143104D01*
X1114793Y1180239D02*
X1144142D01*
X1114784Y1180339D02*
X1144347D01*
X1114774Y1180439D02*
X1144338D01*
X1114765Y1180539D02*
X1144328D01*
X1114755Y1180639D02*
X1144319D01*
X1114745Y1180739D02*
X1144309D01*
X1114736Y1180839D02*
X1144299D01*
X1114726Y1180939D02*
X1144290D01*
X1114716Y1181039D02*
X1144280D01*
X1114707Y1181139D02*
X1144270D01*
X1114697Y1181239D02*
X1144261D01*
X1114687Y1181339D02*
X1144251D01*
X1114678Y1181439D02*
X1144242D01*
X1114668Y1181539D02*
X1144232D01*
X1114659Y1181639D02*
X1144222D01*
X1115579Y1181739D02*
X1144213D01*
X1116618Y1181839D02*
X1144203D01*
X1117656Y1181939D02*
X1144193D01*
X1118695Y1182039D02*
X1144184D01*
X1119734Y1182139D02*
X1144174D01*
X1120772Y1182239D02*
X1144164D01*
X1121811Y1182339D02*
X1144155D01*
X1122849Y1182439D02*
X1144145D01*
X1123888Y1182539D02*
X1144136D01*
X1124926Y1182639D02*
X1144126D01*
X1125965Y1182739D02*
X1144116D01*
X1127003Y1182839D02*
X1144107D01*
X1128042Y1182939D02*
X1144097D01*
X1129080Y1183039D02*
X1144087D01*
X1130119Y1183139D02*
X1144078D01*
X1131158Y1183239D02*
X1144068D01*
X1132196Y1183339D02*
X1144059D01*
X1133235Y1183439D02*
X1144049D01*
X1134273Y1183539D02*
X1144039D01*
X1135312Y1183639D02*
X1144030D01*
X1136350Y1183739D02*
X1144020D01*
X1137389Y1183839D02*
X1144010D01*
X1138427Y1183939D02*
X1144001D01*
X1139466Y1184039D02*
X1143991D01*
X1140504Y1184139D02*
X1143982D01*
X1141543Y1184239D02*
X1143972D01*
X1142581Y1184339D02*
X1143962D01*
X1143620Y1184439D02*
X1143953D01*
X1114658Y1181650D02*
X1114658D01*
X1114758Y1180612D02*
Y1181660D01*
X1114858Y1179573D02*
Y1181670D01*
X1114958Y1178535D02*
Y1181679D01*
X1115058Y1177496D02*
Y1181689D01*
X1115158Y1177448D02*
Y1181699D01*
X1115258Y1177458D02*
Y1181708D01*
X1115358Y1177468D02*
Y1181718D01*
X1115458Y1177477D02*
Y1181728D01*
X1115558Y1177487D02*
Y1181737D01*
X1115658Y1177496D02*
Y1181747D01*
X1115758Y1177506D02*
Y1181756D01*
X1115858Y1177516D02*
Y1181766D01*
X1115958Y1177525D02*
Y1181776D01*
X1116058Y1177535D02*
Y1181785D01*
X1116158Y1177545D02*
Y1181795D01*
X1116258Y1177554D02*
Y1181805D01*
X1116358Y1177564D02*
Y1181814D01*
X1116458Y1177574D02*
Y1181824D01*
X1116558Y1177583D02*
Y1181833D01*
X1116658Y1177593D02*
Y1181843D01*
X1116758Y1177602D02*
Y1181853D01*
X1116858Y1177612D02*
Y1181862D01*
X1116958Y1177622D02*
Y1181872D01*
X1117058Y1177631D02*
Y1181882D01*
X1117158Y1177641D02*
Y1181891D01*
X1117258Y1177651D02*
Y1181901D01*
X1117358Y1177660D02*
Y1181910D01*
X1117458Y1177670D02*
Y1181920D01*
X1117558Y1177679D02*
Y1181930D01*
X1117658Y1177689D02*
Y1181939D01*
X1117758Y1177699D02*
Y1181949D01*
X1117858Y1177708D02*
Y1181959D01*
X1117958Y1177718D02*
Y1181968D01*
X1118058Y1177728D02*
Y1181978D01*
X1118158Y1177737D02*
Y1181987D01*
X1118258Y1177747D02*
Y1181997D01*
X1118358Y1177756D02*
Y1182007D01*
X1118458Y1177766D02*
Y1182016D01*
X1118558Y1177776D02*
Y1182026D01*
X1118658Y1177785D02*
Y1182036D01*
X1118758Y1177795D02*
Y1182045D01*
X1118858Y1177805D02*
Y1182055D01*
X1118958Y1177814D02*
Y1182065D01*
X1119058Y1177824D02*
Y1182074D01*
X1119158Y1177834D02*
Y1182084D01*
X1119258Y1177843D02*
Y1182093D01*
X1119358Y1177853D02*
Y1182103D01*
X1119458Y1177862D02*
Y1182113D01*
X1119558Y1177872D02*
Y1182122D01*
X1119658Y1177882D02*
Y1182132D01*
X1119758Y1177891D02*
Y1182142D01*
X1119858Y1177901D02*
Y1182151D01*
X1119958Y1177911D02*
Y1182161D01*
X1120058Y1177920D02*
Y1182170D01*
X1120158Y1177930D02*
Y1182180D01*
X1120258Y1177939D02*
Y1182190D01*
X1120358Y1177949D02*
Y1182199D01*
X1120458Y1177959D02*
Y1182209D01*
X1120558Y1177968D02*
Y1182219D01*
X1120658Y1177978D02*
Y1182228D01*
X1120758Y1177988D02*
Y1182238D01*
X1120858Y1177997D02*
Y1182247D01*
X1120958Y1178007D02*
Y1182257D01*
X1121058Y1178016D02*
Y1182267D01*
X1121158Y1178026D02*
Y1182276D01*
X1121258Y1178036D02*
Y1182286D01*
X1121358Y1178045D02*
Y1182296D01*
X1121458Y1178055D02*
Y1182305D01*
X1121558Y1178065D02*
Y1182315D01*
X1121658Y1178074D02*
Y1182325D01*
X1121758Y1178084D02*
Y1182334D01*
X1121858Y1178093D02*
Y1182344D01*
X1121958Y1178103D02*
Y1182353D01*
X1122058Y1178113D02*
Y1182363D01*
X1122158Y1178122D02*
Y1182373D01*
X1122258Y1178132D02*
Y1182382D01*
X1122358Y1178142D02*
Y1182392D01*
X1122458Y1178151D02*
Y1182402D01*
X1122558Y1178161D02*
Y1182411D01*
X1122658Y1178171D02*
Y1182421D01*
X1122758Y1178180D02*
Y1182430D01*
X1122858Y1178190D02*
Y1182440D01*
X1122958Y1178199D02*
Y1182450D01*
X1123058Y1178209D02*
Y1182459D01*
X1123158Y1178219D02*
Y1182469D01*
X1123258Y1178228D02*
Y1182479D01*
X1123358Y1178238D02*
Y1182488D01*
X1123458Y1178248D02*
Y1182498D01*
X1123558Y1178257D02*
Y1182507D01*
X1123658Y1178267D02*
Y1182517D01*
X1123758Y1178276D02*
Y1182527D01*
X1123858Y1178286D02*
Y1182536D01*
X1123958Y1178296D02*
Y1182546D01*
X1124058Y1178305D02*
Y1182556D01*
X1124158Y1178315D02*
Y1182565D01*
X1124258Y1178325D02*
Y1182575D01*
X1124358Y1178334D02*
Y1182584D01*
X1124458Y1178344D02*
Y1182594D01*
X1124558Y1178353D02*
Y1182604D01*
X1124658Y1178363D02*
Y1182613D01*
X1124758Y1178373D02*
Y1182623D01*
X1124858Y1178382D02*
Y1182633D01*
X1124958Y1178392D02*
Y1182642D01*
X1125058Y1178402D02*
Y1182652D01*
X1125158Y1178411D02*
Y1182662D01*
X1125258Y1178421D02*
Y1182671D01*
X1125358Y1178430D02*
Y1182681D01*
X1125458Y1178440D02*
Y1182690D01*
X1125558Y1178450D02*
Y1182700D01*
X1125658Y1178459D02*
Y1182710D01*
X1125758Y1178469D02*
Y1182719D01*
X1125858Y1178479D02*
Y1182729D01*
X1125958Y1178488D02*
Y1182739D01*
X1126058Y1178498D02*
Y1182748D01*
X1126158Y1178508D02*
Y1182758D01*
X1126258Y1178517D02*
Y1182767D01*
X1126358Y1178527D02*
Y1182777D01*
X1126458Y1178536D02*
Y1182787D01*
X1126558Y1178546D02*
Y1182796D01*
X1126658Y1178556D02*
Y1182806D01*
X1126758Y1178565D02*
Y1182816D01*
X1126858Y1178575D02*
Y1182825D01*
X1126958Y1178585D02*
Y1182835D01*
X1127058Y1178594D02*
Y1182844D01*
X1127158Y1178604D02*
Y1182854D01*
X1127258Y1178613D02*
Y1182864D01*
X1127358Y1178623D02*
Y1182873D01*
X1127458Y1178633D02*
Y1182883D01*
X1127558Y1178642D02*
Y1182893D01*
X1127658Y1178652D02*
Y1182902D01*
X1127758Y1178662D02*
Y1182912D01*
X1127858Y1178671D02*
Y1182921D01*
X1127958Y1178681D02*
Y1182931D01*
X1128058Y1178690D02*
Y1182941D01*
X1128158Y1178700D02*
Y1182950D01*
X1128258Y1178710D02*
Y1182960D01*
X1128358Y1178719D02*
Y1182970D01*
X1128458Y1178729D02*
Y1182979D01*
X1128558Y1178739D02*
Y1182989D01*
X1128658Y1178748D02*
Y1182999D01*
X1128758Y1178758D02*
Y1183008D01*
X1128858Y1178768D02*
Y1183018D01*
X1128958Y1178777D02*
Y1183027D01*
X1129058Y1178787D02*
Y1183037D01*
X1129158Y1178796D02*
Y1183047D01*
X1129258Y1178806D02*
Y1183056D01*
X1129358Y1178816D02*
Y1183066D01*
X1129458Y1178825D02*
Y1183076D01*
X1129558Y1178835D02*
Y1183085D01*
X1129658Y1178845D02*
Y1183095D01*
X1129758Y1178854D02*
Y1183104D01*
X1129858Y1178864D02*
Y1183114D01*
X1129958Y1178873D02*
Y1183124D01*
X1130058Y1178883D02*
Y1183133D01*
X1130158Y1178893D02*
Y1183143D01*
X1130258Y1178902D02*
Y1183153D01*
X1130358Y1178912D02*
Y1183162D01*
X1130458Y1178922D02*
Y1183172D01*
X1130558Y1178931D02*
Y1183181D01*
X1130658Y1178941D02*
Y1183191D01*
X1130758Y1178950D02*
Y1183201D01*
X1130858Y1178960D02*
Y1183210D01*
X1130958Y1178970D02*
Y1183220D01*
X1131058Y1178979D02*
Y1183230D01*
X1131158Y1178989D02*
Y1183239D01*
X1131258Y1178999D02*
Y1183249D01*
X1131358Y1179008D02*
Y1183259D01*
X1131458Y1179018D02*
Y1183268D01*
X1131558Y1179027D02*
Y1183278D01*
X1131658Y1179037D02*
Y1183287D01*
X1131758Y1179047D02*
Y1183297D01*
X1131858Y1179056D02*
Y1183307D01*
X1131958Y1179066D02*
Y1183316D01*
X1132058Y1179076D02*
Y1183326D01*
X1132158Y1179085D02*
Y1183336D01*
X1132258Y1179095D02*
Y1183345D01*
X1132358Y1179105D02*
Y1183355D01*
X1132458Y1179114D02*
Y1183364D01*
X1132558Y1179124D02*
Y1183374D01*
X1132658Y1179133D02*
Y1183384D01*
X1132758Y1179143D02*
Y1183393D01*
X1132858Y1179153D02*
Y1183403D01*
X1132958Y1179162D02*
Y1183413D01*
X1133058Y1179172D02*
Y1183422D01*
X1133158Y1179182D02*
Y1183432D01*
X1133258Y1179191D02*
Y1183441D01*
X1133358Y1179201D02*
Y1183451D01*
X1133458Y1179210D02*
Y1183461D01*
X1133558Y1179220D02*
Y1183470D01*
X1133658Y1179230D02*
Y1183480D01*
X1133758Y1179239D02*
Y1183490D01*
X1133858Y1179249D02*
Y1183499D01*
X1133958Y1179259D02*
Y1183509D01*
X1134058Y1179268D02*
Y1183518D01*
X1134158Y1179278D02*
Y1183528D01*
X1134258Y1179287D02*
Y1183538D01*
X1134358Y1179297D02*
Y1183547D01*
X1134458Y1179307D02*
Y1183557D01*
X1134558Y1179316D02*
Y1183567D01*
X1134658Y1179326D02*
Y1183576D01*
X1134758Y1179336D02*
Y1183586D01*
X1134858Y1179345D02*
Y1183596D01*
X1134958Y1179355D02*
Y1183605D01*
X1135058Y1179365D02*
Y1183615D01*
X1135158Y1179374D02*
Y1183624D01*
X1135258Y1179384D02*
Y1183634D01*
X1135358Y1179393D02*
Y1183644D01*
X1135458Y1179403D02*
Y1183653D01*
X1135558Y1179413D02*
Y1183663D01*
X1135658Y1179422D02*
Y1183673D01*
X1135758Y1179432D02*
Y1183682D01*
X1135858Y1179442D02*
Y1183692D01*
X1135958Y1179451D02*
Y1183701D01*
X1136058Y1179461D02*
Y1183711D01*
X1136158Y1179470D02*
Y1183721D01*
X1136258Y1179480D02*
Y1183730D01*
X1136358Y1179490D02*
Y1183740D01*
X1136458Y1179499D02*
Y1183750D01*
X1136558Y1179509D02*
Y1183759D01*
X1136658Y1179519D02*
Y1183769D01*
X1136758Y1179528D02*
Y1183778D01*
X1136858Y1179538D02*
Y1183788D01*
X1136958Y1179547D02*
Y1183798D01*
X1137058Y1179557D02*
Y1183807D01*
X1137158Y1179567D02*
Y1183817D01*
X1137258Y1179576D02*
Y1183827D01*
X1137358Y1179586D02*
Y1183836D01*
X1137458Y1179596D02*
Y1183846D01*
X1137558Y1179605D02*
Y1183856D01*
X1137658Y1179615D02*
Y1183865D01*
X1137758Y1179624D02*
Y1183875D01*
X1137858Y1179634D02*
Y1183884D01*
X1137958Y1179644D02*
Y1183894D01*
X1138058Y1179653D02*
Y1183904D01*
X1138158Y1179663D02*
Y1183913D01*
X1138258Y1179673D02*
Y1183923D01*
X1138358Y1179682D02*
Y1183933D01*
X1138458Y1179692D02*
Y1183942D01*
X1138558Y1179702D02*
Y1183952D01*
X1138658Y1179711D02*
Y1183961D01*
X1138758Y1179721D02*
Y1183971D01*
X1138858Y1179730D02*
Y1183981D01*
X1138958Y1179740D02*
Y1183990D01*
X1139058Y1179750D02*
Y1184000D01*
X1139158Y1179759D02*
Y1184010D01*
X1139258Y1179769D02*
Y1184019D01*
X1139358Y1179779D02*
Y1184029D01*
X1139458Y1179788D02*
Y1184038D01*
X1139558Y1179798D02*
Y1184048D01*
X1139658Y1179807D02*
Y1184058D01*
X1139758Y1179817D02*
Y1184067D01*
X1139858Y1179827D02*
Y1184077D01*
X1139958Y1179836D02*
Y1184087D01*
X1140058Y1179846D02*
Y1184096D01*
X1140158Y1179856D02*
Y1184106D01*
X1140258Y1179865D02*
Y1184115D01*
X1140358Y1179875D02*
Y1184125D01*
X1140458Y1179884D02*
Y1184135D01*
X1140558Y1179894D02*
Y1184144D01*
X1140658Y1179904D02*
Y1184154D01*
X1140758Y1179913D02*
Y1184164D01*
X1140858Y1179923D02*
Y1184173D01*
X1140958Y1179933D02*
Y1184183D01*
X1141058Y1179942D02*
Y1184193D01*
X1141158Y1179952D02*
Y1184202D01*
X1141258Y1179961D02*
Y1184212D01*
X1141358Y1179971D02*
Y1184221D01*
X1141458Y1179981D02*
Y1184231D01*
X1141558Y1179990D02*
Y1184241D01*
X1141658Y1180000D02*
Y1184250D01*
X1141758Y1180010D02*
Y1184260D01*
X1141858Y1180019D02*
Y1184270D01*
X1141958Y1180029D02*
Y1184279D01*
X1142058Y1180039D02*
Y1184289D01*
X1142158Y1180048D02*
Y1184298D01*
X1142258Y1180058D02*
Y1184308D01*
X1142358Y1180067D02*
Y1184318D01*
X1142458Y1180077D02*
Y1184327D01*
X1142558Y1180087D02*
Y1184337D01*
X1142658Y1180096D02*
Y1184347D01*
X1142758Y1180106D02*
Y1184356D01*
X1142858Y1180116D02*
Y1184366D01*
X1142958Y1180125D02*
Y1184375D01*
X1143058Y1180135D02*
Y1184385D01*
X1143158Y1180144D02*
Y1184395D01*
X1143258Y1180154D02*
Y1184404D01*
X1143358Y1180164D02*
Y1184414D01*
X1143458Y1180173D02*
Y1184424D01*
X1143558Y1180183D02*
Y1184433D01*
X1143658Y1180193D02*
Y1184443D01*
X1143758Y1180202D02*
Y1184452D01*
X1143858Y1180212D02*
Y1184462D01*
X1143958Y1180221D02*
Y1184389D01*
X1144058Y1180231D02*
Y1183350D01*
X1144158Y1180241D02*
Y1182312D01*
X1144258Y1180250D02*
Y1181273D01*
X1145013Y1174581D02*
X1115721Y1171761D01*
X1116126Y1167549*
X1145418Y1170370*
X1145013Y1174581*
X1116126Y1167549D02*
X1116126D01*
X1116116Y1167649D02*
X1117165D01*
X1116107Y1167749D02*
X1118203D01*
X1116097Y1167849D02*
X1119242D01*
X1116087Y1167949D02*
X1120280D01*
X1116078Y1168049D02*
X1121319D01*
X1116068Y1168149D02*
X1122357D01*
X1116059Y1168249D02*
X1123396D01*
X1116049Y1168349D02*
X1124434D01*
X1116039Y1168449D02*
X1125473D01*
X1116030Y1168549D02*
X1126511D01*
X1116020Y1168649D02*
X1127550D01*
X1116010Y1168749D02*
X1128588D01*
X1116001Y1168849D02*
X1129627D01*
X1115991Y1168949D02*
X1130666D01*
X1115982Y1169049D02*
X1131704D01*
X1115972Y1169149D02*
X1132743D01*
X1115962Y1169249D02*
X1133781D01*
X1115953Y1169349D02*
X1134820D01*
X1115943Y1169449D02*
X1135858D01*
X1115933Y1169549D02*
X1136897D01*
X1115924Y1169649D02*
X1137935D01*
X1115914Y1169749D02*
X1138974D01*
X1115905Y1169849D02*
X1140012D01*
X1115895Y1169949D02*
X1141051D01*
X1115885Y1170049D02*
X1142089D01*
X1115876Y1170149D02*
X1143128D01*
X1115866Y1170249D02*
X1144167D01*
X1115856Y1170349D02*
X1145205D01*
X1115847Y1170449D02*
X1145410D01*
X1115837Y1170549D02*
X1145401D01*
X1115828Y1170649D02*
X1145391D01*
X1115818Y1170749D02*
X1145382D01*
X1115808Y1170849D02*
X1145372D01*
X1115799Y1170949D02*
X1145362D01*
X1115789Y1171049D02*
X1145353D01*
X1115779Y1171149D02*
X1145343D01*
X1115770Y1171249D02*
X1145333D01*
X1115760Y1171349D02*
X1145324D01*
X1115750Y1171449D02*
X1145314D01*
X1115741Y1171549D02*
X1145305D01*
X1115731Y1171649D02*
X1145295D01*
X1115722Y1171749D02*
X1145285D01*
X1116642Y1171849D02*
X1145276D01*
X1117681Y1171949D02*
X1145266D01*
X1118719Y1172049D02*
X1145256D01*
X1119758Y1172149D02*
X1145247D01*
X1120797Y1172249D02*
X1145237D01*
X1121835Y1172349D02*
X1145227D01*
X1122874Y1172449D02*
X1145218D01*
X1123912Y1172549D02*
X1145208D01*
X1124951Y1172649D02*
X1145199D01*
X1125989Y1172749D02*
X1145189D01*
X1127028Y1172849D02*
X1145179D01*
X1128066Y1172949D02*
X1145170D01*
X1129105Y1173049D02*
X1145160D01*
X1130143Y1173149D02*
X1145150D01*
X1131182Y1173249D02*
X1145141D01*
X1132221Y1173349D02*
X1145131D01*
X1133259Y1173449D02*
X1145122D01*
X1134298Y1173549D02*
X1145112D01*
X1135336Y1173649D02*
X1145102D01*
X1136375Y1173749D02*
X1145093D01*
X1137413Y1173849D02*
X1145083D01*
X1138452Y1173949D02*
X1145073D01*
X1139490Y1174049D02*
X1145064D01*
X1140529Y1174149D02*
X1145054D01*
X1141567Y1174249D02*
X1145045D01*
X1142606Y1174349D02*
X1145035D01*
X1143644Y1174449D02*
X1145025D01*
X1144683Y1174549D02*
X1145016D01*
X1115721Y1171761D02*
X1115721D01*
X1115821Y1170722D02*
Y1171770D01*
X1115921Y1169684D02*
Y1171780D01*
X1116021Y1168645D02*
Y1171790D01*
X1116121Y1167607D02*
Y1171799D01*
X1116221Y1167559D02*
Y1171809D01*
X1116321Y1167568D02*
Y1171818D01*
X1116421Y1167578D02*
Y1171828D01*
X1116521Y1167587D02*
Y1171838D01*
X1116621Y1167597D02*
Y1171847D01*
X1116721Y1167607D02*
Y1171857D01*
X1116821Y1167616D02*
Y1171867D01*
X1116921Y1167626D02*
Y1171876D01*
X1117021Y1167636D02*
Y1171886D01*
X1117121Y1167645D02*
Y1171896D01*
X1117221Y1167655D02*
Y1171905D01*
X1117321Y1167665D02*
Y1171915D01*
X1117421Y1167674D02*
Y1171924D01*
X1117521Y1167684D02*
Y1171934D01*
X1117621Y1167693D02*
Y1171944D01*
X1117721Y1167703D02*
Y1171953D01*
X1117821Y1167713D02*
Y1171963D01*
X1117921Y1167722D02*
Y1171973D01*
X1118021Y1167732D02*
Y1171982D01*
X1118121Y1167742D02*
Y1171992D01*
X1118221Y1167751D02*
Y1172001D01*
X1118321Y1167761D02*
Y1172011D01*
X1118421Y1167770D02*
Y1172021D01*
X1118521Y1167780D02*
Y1172030D01*
X1118621Y1167790D02*
Y1172040D01*
X1118721Y1167799D02*
Y1172050D01*
X1118821Y1167809D02*
Y1172059D01*
X1118921Y1167819D02*
Y1172069D01*
X1119021Y1167828D02*
Y1172078D01*
X1119121Y1167838D02*
Y1172088D01*
X1119221Y1167847D02*
Y1172098D01*
X1119321Y1167857D02*
Y1172107D01*
X1119421Y1167867D02*
Y1172117D01*
X1119521Y1167876D02*
Y1172127D01*
X1119621Y1167886D02*
Y1172136D01*
X1119721Y1167896D02*
Y1172146D01*
X1119821Y1167905D02*
Y1172156D01*
X1119921Y1167915D02*
Y1172165D01*
X1120021Y1167924D02*
Y1172175D01*
X1120121Y1167934D02*
Y1172184D01*
X1120221Y1167944D02*
Y1172194D01*
X1120321Y1167953D02*
Y1172204D01*
X1120421Y1167963D02*
Y1172213D01*
X1120521Y1167973D02*
Y1172223D01*
X1120621Y1167982D02*
Y1172233D01*
X1120721Y1167992D02*
Y1172242D01*
X1120821Y1168002D02*
Y1172252D01*
X1120921Y1168011D02*
Y1172261D01*
X1121021Y1168021D02*
Y1172271D01*
X1121121Y1168030D02*
Y1172281D01*
X1121221Y1168040D02*
Y1172290D01*
X1121321Y1168050D02*
Y1172300D01*
X1121421Y1168059D02*
Y1172310D01*
X1121521Y1168069D02*
Y1172319D01*
X1121621Y1168079D02*
Y1172329D01*
X1121721Y1168088D02*
Y1172338D01*
X1121821Y1168098D02*
Y1172348D01*
X1121921Y1168107D02*
Y1172358D01*
X1122021Y1168117D02*
Y1172367D01*
X1122121Y1168127D02*
Y1172377D01*
X1122221Y1168136D02*
Y1172387D01*
X1122321Y1168146D02*
Y1172396D01*
X1122421Y1168156D02*
Y1172406D01*
X1122521Y1168165D02*
Y1172415D01*
X1122621Y1168175D02*
Y1172425D01*
X1122721Y1168184D02*
Y1172435D01*
X1122821Y1168194D02*
Y1172444D01*
X1122921Y1168204D02*
Y1172454D01*
X1123021Y1168213D02*
Y1172464D01*
X1123121Y1168223D02*
Y1172473D01*
X1123221Y1168233D02*
Y1172483D01*
X1123321Y1168242D02*
Y1172493D01*
X1123421Y1168252D02*
Y1172502D01*
X1123521Y1168261D02*
Y1172512D01*
X1123621Y1168271D02*
Y1172521D01*
X1123721Y1168281D02*
Y1172531D01*
X1123821Y1168290D02*
Y1172541D01*
X1123921Y1168300D02*
Y1172550D01*
X1124021Y1168310D02*
Y1172560D01*
X1124121Y1168319D02*
Y1172570D01*
X1124221Y1168329D02*
Y1172579D01*
X1124321Y1168339D02*
Y1172589D01*
X1124421Y1168348D02*
Y1172598D01*
X1124521Y1168358D02*
Y1172608D01*
X1124621Y1168367D02*
Y1172618D01*
X1124721Y1168377D02*
Y1172627D01*
X1124821Y1168387D02*
Y1172637D01*
X1124921Y1168396D02*
Y1172647D01*
X1125021Y1168406D02*
Y1172656D01*
X1125121Y1168416D02*
Y1172666D01*
X1125221Y1168425D02*
Y1172675D01*
X1125321Y1168435D02*
Y1172685D01*
X1125421Y1168444D02*
Y1172695D01*
X1125521Y1168454D02*
Y1172704D01*
X1125621Y1168464D02*
Y1172714D01*
X1125721Y1168473D02*
Y1172724D01*
X1125821Y1168483D02*
Y1172733D01*
X1125921Y1168493D02*
Y1172743D01*
X1126021Y1168502D02*
Y1172752D01*
X1126121Y1168512D02*
Y1172762D01*
X1126221Y1168521D02*
Y1172772D01*
X1126321Y1168531D02*
Y1172781D01*
X1126421Y1168541D02*
Y1172791D01*
X1126521Y1168550D02*
Y1172801D01*
X1126621Y1168560D02*
Y1172810D01*
X1126721Y1168570D02*
Y1172820D01*
X1126821Y1168579D02*
Y1172830D01*
X1126921Y1168589D02*
Y1172839D01*
X1127021Y1168599D02*
Y1172849D01*
X1127121Y1168608D02*
Y1172858D01*
X1127221Y1168618D02*
Y1172868D01*
X1127321Y1168627D02*
Y1172878D01*
X1127421Y1168637D02*
Y1172887D01*
X1127521Y1168647D02*
Y1172897D01*
X1127621Y1168656D02*
Y1172907D01*
X1127721Y1168666D02*
Y1172916D01*
X1127821Y1168676D02*
Y1172926D01*
X1127921Y1168685D02*
Y1172935D01*
X1128021Y1168695D02*
Y1172945D01*
X1128121Y1168704D02*
Y1172955D01*
X1128221Y1168714D02*
Y1172964D01*
X1128321Y1168724D02*
Y1172974D01*
X1128421Y1168733D02*
Y1172984D01*
X1128521Y1168743D02*
Y1172993D01*
X1128621Y1168753D02*
Y1173003D01*
X1128721Y1168762D02*
Y1173012D01*
X1128821Y1168772D02*
Y1173022D01*
X1128921Y1168781D02*
Y1173032D01*
X1129021Y1168791D02*
Y1173041D01*
X1129121Y1168801D02*
Y1173051D01*
X1129221Y1168810D02*
Y1173061D01*
X1129321Y1168820D02*
Y1173070D01*
X1129421Y1168830D02*
Y1173080D01*
X1129521Y1168839D02*
Y1173090D01*
X1129621Y1168849D02*
Y1173099D01*
X1129721Y1168858D02*
Y1173109D01*
X1129821Y1168868D02*
Y1173118D01*
X1129921Y1168878D02*
Y1173128D01*
X1130021Y1168887D02*
Y1173138D01*
X1130121Y1168897D02*
Y1173147D01*
X1130221Y1168907D02*
Y1173157D01*
X1130321Y1168916D02*
Y1173167D01*
X1130421Y1168926D02*
Y1173176D01*
X1130521Y1168936D02*
Y1173186D01*
X1130621Y1168945D02*
Y1173195D01*
X1130721Y1168955D02*
Y1173205D01*
X1130821Y1168964D02*
Y1173215D01*
X1130921Y1168974D02*
Y1173224D01*
X1131021Y1168984D02*
Y1173234D01*
X1131121Y1168993D02*
Y1173244D01*
X1131221Y1169003D02*
Y1173253D01*
X1131321Y1169013D02*
Y1173263D01*
X1131421Y1169022D02*
Y1173272D01*
X1131521Y1169032D02*
Y1173282D01*
X1131621Y1169041D02*
Y1173292D01*
X1131721Y1169051D02*
Y1173301D01*
X1131821Y1169061D02*
Y1173311D01*
X1131921Y1169070D02*
Y1173321D01*
X1132021Y1169080D02*
Y1173330D01*
X1132121Y1169090D02*
Y1173340D01*
X1132221Y1169099D02*
Y1173349D01*
X1132321Y1169109D02*
Y1173359D01*
X1132421Y1169118D02*
Y1173369D01*
X1132521Y1169128D02*
Y1173378D01*
X1132621Y1169138D02*
Y1173388D01*
X1132721Y1169147D02*
Y1173398D01*
X1132821Y1169157D02*
Y1173407D01*
X1132921Y1169167D02*
Y1173417D01*
X1133021Y1169176D02*
Y1173427D01*
X1133121Y1169186D02*
Y1173436D01*
X1133221Y1169196D02*
Y1173446D01*
X1133321Y1169205D02*
Y1173455D01*
X1133421Y1169215D02*
Y1173465D01*
X1133521Y1169224D02*
Y1173475D01*
X1133621Y1169234D02*
Y1173484D01*
X1133721Y1169244D02*
Y1173494D01*
X1133821Y1169253D02*
Y1173504D01*
X1133921Y1169263D02*
Y1173513D01*
X1134021Y1169273D02*
Y1173523D01*
X1134121Y1169282D02*
Y1173532D01*
X1134221Y1169292D02*
Y1173542D01*
X1134321Y1169301D02*
Y1173552D01*
X1134421Y1169311D02*
Y1173561D01*
X1134521Y1169321D02*
Y1173571D01*
X1134621Y1169330D02*
Y1173581D01*
X1134721Y1169340D02*
Y1173590D01*
X1134821Y1169350D02*
Y1173600D01*
X1134921Y1169359D02*
Y1173609D01*
X1135021Y1169369D02*
Y1173619D01*
X1135121Y1169378D02*
Y1173629D01*
X1135221Y1169388D02*
Y1173638D01*
X1135321Y1169398D02*
Y1173648D01*
X1135421Y1169407D02*
Y1173658D01*
X1135521Y1169417D02*
Y1173667D01*
X1135621Y1169427D02*
Y1173677D01*
X1135721Y1169436D02*
Y1173686D01*
X1135821Y1169446D02*
Y1173696D01*
X1135921Y1169455D02*
Y1173706D01*
X1136021Y1169465D02*
Y1173715D01*
X1136121Y1169475D02*
Y1173725D01*
X1136221Y1169484D02*
Y1173735D01*
X1136321Y1169494D02*
Y1173744D01*
X1136421Y1169504D02*
Y1173754D01*
X1136521Y1169513D02*
Y1173764D01*
X1136621Y1169523D02*
Y1173773D01*
X1136721Y1169533D02*
Y1173783D01*
X1136821Y1169542D02*
Y1173792D01*
X1136921Y1169552D02*
Y1173802D01*
X1137021Y1169561D02*
Y1173812D01*
X1137121Y1169571D02*
Y1173821D01*
X1137221Y1169581D02*
Y1173831D01*
X1137321Y1169590D02*
Y1173841D01*
X1137421Y1169600D02*
Y1173850D01*
X1137521Y1169610D02*
Y1173860D01*
X1137621Y1169619D02*
Y1173869D01*
X1137721Y1169629D02*
Y1173879D01*
X1137821Y1169638D02*
Y1173889D01*
X1137921Y1169648D02*
Y1173898D01*
X1138021Y1169658D02*
Y1173908D01*
X1138121Y1169667D02*
Y1173918D01*
X1138221Y1169677D02*
Y1173927D01*
X1138321Y1169687D02*
Y1173937D01*
X1138421Y1169696D02*
Y1173946D01*
X1138521Y1169706D02*
Y1173956D01*
X1138621Y1169715D02*
Y1173966D01*
X1138721Y1169725D02*
Y1173975D01*
X1138821Y1169735D02*
Y1173985D01*
X1138921Y1169744D02*
Y1173995D01*
X1139021Y1169754D02*
Y1174004D01*
X1139121Y1169764D02*
Y1174014D01*
X1139221Y1169773D02*
Y1174024D01*
X1139321Y1169783D02*
Y1174033D01*
X1139421Y1169792D02*
Y1174043D01*
X1139521Y1169802D02*
Y1174052D01*
X1139621Y1169812D02*
Y1174062D01*
X1139721Y1169821D02*
Y1174072D01*
X1139821Y1169831D02*
Y1174081D01*
X1139921Y1169841D02*
Y1174091D01*
X1140021Y1169850D02*
Y1174101D01*
X1140121Y1169860D02*
Y1174110D01*
X1140221Y1169870D02*
Y1174120D01*
X1140321Y1169879D02*
Y1174129D01*
X1140421Y1169889D02*
Y1174139D01*
X1140521Y1169898D02*
Y1174149D01*
X1140621Y1169908D02*
Y1174158D01*
X1140721Y1169918D02*
Y1174168D01*
X1140821Y1169927D02*
Y1174178D01*
X1140921Y1169937D02*
Y1174187D01*
X1141021Y1169947D02*
Y1174197D01*
X1141121Y1169956D02*
Y1174206D01*
X1141221Y1169966D02*
Y1174216D01*
X1141321Y1169975D02*
Y1174226D01*
X1141421Y1169985D02*
Y1174235D01*
X1141521Y1169995D02*
Y1174245D01*
X1141621Y1170004D02*
Y1174255D01*
X1141721Y1170014D02*
Y1174264D01*
X1141821Y1170024D02*
Y1174274D01*
X1141921Y1170033D02*
Y1174283D01*
X1142021Y1170043D02*
Y1174293D01*
X1142121Y1170052D02*
Y1174303D01*
X1142221Y1170062D02*
Y1174312D01*
X1142321Y1170072D02*
Y1174322D01*
X1142421Y1170081D02*
Y1174332D01*
X1142521Y1170091D02*
Y1174341D01*
X1142621Y1170101D02*
Y1174351D01*
X1142721Y1170110D02*
Y1174361D01*
X1142821Y1170120D02*
Y1174370D01*
X1142921Y1170130D02*
Y1174380D01*
X1143021Y1170139D02*
Y1174389D01*
X1143121Y1170149D02*
Y1174399D01*
X1143221Y1170158D02*
Y1174409D01*
X1143321Y1170168D02*
Y1174418D01*
X1143421Y1170178D02*
Y1174428D01*
X1143521Y1170187D02*
Y1174438D01*
X1143621Y1170197D02*
Y1174447D01*
X1143721Y1170207D02*
Y1174457D01*
X1143821Y1170216D02*
Y1174466D01*
X1143921Y1170226D02*
Y1174476D01*
X1144021Y1170235D02*
Y1174486D01*
X1144121Y1170245D02*
Y1174495D01*
X1144221Y1170255D02*
Y1174505D01*
X1144321Y1170264D02*
Y1174515D01*
X1144421Y1170274D02*
Y1174524D01*
X1144521Y1170284D02*
Y1174534D01*
X1144621Y1170293D02*
Y1174543D01*
X1144721Y1170303D02*
Y1174553D01*
X1144821Y1170312D02*
Y1174563D01*
X1144921Y1170322D02*
Y1174572D01*
X1145021Y1170332D02*
Y1174499D01*
X1145121Y1170341D02*
Y1173460D01*
X1145221Y1170351D02*
Y1172422D01*
X1145321Y1170361D02*
Y1171383D01*
X1216224Y1167915D02*
X1245204Y1162805D01*
X1245939Y1166972*
X1216958Y1172082*
X1216224Y1167915*
X1245204Y1162805D02*
X1245204D01*
X1244637Y1162905D02*
X1245222D01*
X1244070Y1163005D02*
X1245239D01*
X1243503Y1163105D02*
X1245257D01*
X1242936Y1163205D02*
X1245275D01*
X1242368Y1163305D02*
X1245292D01*
X1241801Y1163405D02*
X1245310D01*
X1241234Y1163505D02*
X1245327D01*
X1240667Y1163605D02*
X1245345D01*
X1240100Y1163705D02*
X1245363D01*
X1239533Y1163805D02*
X1245380D01*
X1238966Y1163905D02*
X1245398D01*
X1238398Y1164005D02*
X1245416D01*
X1237831Y1164105D02*
X1245433D01*
X1237264Y1164205D02*
X1245451D01*
X1236697Y1164305D02*
X1245469D01*
X1236130Y1164405D02*
X1245486D01*
X1235563Y1164505D02*
X1245504D01*
X1234996Y1164605D02*
X1245521D01*
X1234429Y1164705D02*
X1245539D01*
X1233861Y1164805D02*
X1245557D01*
X1233294Y1164905D02*
X1245574D01*
X1232727Y1165005D02*
X1245592D01*
X1232160Y1165105D02*
X1245610D01*
X1231593Y1165205D02*
X1245627D01*
X1231026Y1165305D02*
X1245645D01*
X1230459Y1165405D02*
X1245662D01*
X1229892Y1165505D02*
X1245680D01*
X1229324Y1165605D02*
X1245698D01*
X1228757Y1165705D02*
X1245715D01*
X1228190Y1165805D02*
X1245733D01*
X1227623Y1165905D02*
X1245751D01*
X1227056Y1166005D02*
X1245768D01*
X1226489Y1166105D02*
X1245786D01*
X1225922Y1166205D02*
X1245804D01*
X1225355Y1166305D02*
X1245821D01*
X1224787Y1166405D02*
X1245839D01*
X1224220Y1166505D02*
X1245856D01*
X1223653Y1166605D02*
X1245874D01*
X1223086Y1166705D02*
X1245892D01*
X1222519Y1166805D02*
X1245909D01*
X1221952Y1166905D02*
X1245927D01*
X1221385Y1167005D02*
X1245748D01*
X1220817Y1167105D02*
X1245181D01*
X1220250Y1167205D02*
X1244614D01*
X1219683Y1167305D02*
X1244047D01*
X1219116Y1167405D02*
X1243480D01*
X1218549Y1167505D02*
X1242913D01*
X1217982Y1167605D02*
X1242346D01*
X1217415Y1167705D02*
X1241778D01*
X1216848Y1167805D02*
X1241211D01*
X1216280Y1167905D02*
X1240644D01*
X1216239Y1168005D02*
X1240077D01*
X1216257Y1168105D02*
X1239510D01*
X1216275Y1168205D02*
X1238943D01*
X1216292Y1168305D02*
X1238376D01*
X1216310Y1168405D02*
X1237809D01*
X1216328Y1168505D02*
X1237241D01*
X1216345Y1168605D02*
X1236674D01*
X1216363Y1168705D02*
X1236107D01*
X1216380Y1168805D02*
X1235540D01*
X1216398Y1168905D02*
X1234973D01*
X1216416Y1169005D02*
X1234406D01*
X1216433Y1169105D02*
X1233839D01*
X1216451Y1169205D02*
X1233271D01*
X1216469Y1169305D02*
X1232704D01*
X1216486Y1169405D02*
X1232137D01*
X1216504Y1169505D02*
X1231570D01*
X1216522Y1169605D02*
X1231003D01*
X1216539Y1169705D02*
X1230436D01*
X1216557Y1169805D02*
X1229869D01*
X1216574Y1169905D02*
X1229302D01*
X1216592Y1170005D02*
X1228734D01*
X1216610Y1170105D02*
X1228167D01*
X1216627Y1170205D02*
X1227600D01*
X1216645Y1170305D02*
X1227033D01*
X1216663Y1170405D02*
X1226466D01*
X1216680Y1170505D02*
X1225899D01*
X1216698Y1170605D02*
X1225332D01*
X1216715Y1170705D02*
X1224765D01*
X1216733Y1170805D02*
X1224197D01*
X1216751Y1170905D02*
X1223630D01*
X1216768Y1171005D02*
X1223063D01*
X1216786Y1171105D02*
X1222496D01*
X1216804Y1171205D02*
X1221929D01*
X1216821Y1171305D02*
X1221362D01*
X1216839Y1171405D02*
X1220795D01*
X1216857Y1171505D02*
X1220228D01*
X1216874Y1171605D02*
X1219660D01*
X1216892Y1171705D02*
X1219093D01*
X1216909Y1171805D02*
X1218526D01*
X1216927Y1171905D02*
X1217959D01*
X1216945Y1172005D02*
X1217392D01*
X1216302Y1167901D02*
Y1168362D01*
X1216402Y1167884D02*
Y1168929D01*
X1216502Y1167866D02*
Y1169496D01*
X1216602Y1167848D02*
Y1170064D01*
X1216702Y1167831D02*
Y1170631D01*
X1216802Y1167813D02*
Y1171198D01*
X1216902Y1167795D02*
Y1171765D01*
X1217002Y1167778D02*
Y1172074D01*
X1217102Y1167760D02*
Y1172056D01*
X1217202Y1167743D02*
Y1172038D01*
X1217302Y1167725D02*
Y1172021D01*
X1217402Y1167707D02*
Y1172003D01*
X1217502Y1167690D02*
Y1171986D01*
X1217602Y1167672D02*
Y1171968D01*
X1217702Y1167654D02*
Y1171950D01*
X1217802Y1167637D02*
Y1171933D01*
X1217902Y1167619D02*
Y1171915D01*
X1218002Y1167601D02*
Y1171897D01*
X1218102Y1167584D02*
Y1171880D01*
X1218202Y1167566D02*
Y1171862D01*
X1218302Y1167549D02*
Y1171845D01*
X1218402Y1167531D02*
Y1171827D01*
X1218502Y1167513D02*
Y1171809D01*
X1218602Y1167496D02*
Y1171792D01*
X1218702Y1167478D02*
Y1171774D01*
X1218802Y1167460D02*
Y1171756D01*
X1218902Y1167443D02*
Y1171739D01*
X1219002Y1167425D02*
Y1171721D01*
X1219102Y1167407D02*
Y1171703D01*
X1219202Y1167390D02*
Y1171686D01*
X1219302Y1167372D02*
Y1171668D01*
X1219402Y1167355D02*
Y1171651D01*
X1219502Y1167337D02*
Y1171633D01*
X1219602Y1167319D02*
Y1171615D01*
X1219702Y1167302D02*
Y1171598D01*
X1219802Y1167284D02*
Y1171580D01*
X1219902Y1167266D02*
Y1171562D01*
X1220002Y1167249D02*
Y1171545D01*
X1220102Y1167231D02*
Y1171527D01*
X1220202Y1167214D02*
Y1171510D01*
X1220302Y1167196D02*
Y1171492D01*
X1220402Y1167178D02*
Y1171474D01*
X1220502Y1167161D02*
Y1171457D01*
X1220602Y1167143D02*
Y1171439D01*
X1220702Y1167125D02*
Y1171421D01*
X1220802Y1167108D02*
Y1171404D01*
X1220902Y1167090D02*
Y1171386D01*
X1221002Y1167072D02*
Y1171368D01*
X1221102Y1167055D02*
Y1171351D01*
X1221202Y1167037D02*
Y1171333D01*
X1221302Y1167020D02*
Y1171316D01*
X1221402Y1167002D02*
Y1171298D01*
X1221502Y1166984D02*
Y1171280D01*
X1221602Y1166967D02*
Y1171263D01*
X1221702Y1166949D02*
Y1171245D01*
X1221802Y1166931D02*
Y1171227D01*
X1221902Y1166914D02*
Y1171210D01*
X1222002Y1166896D02*
Y1171192D01*
X1222102Y1166879D02*
Y1171174D01*
X1222202Y1166861D02*
Y1171157D01*
X1222302Y1166843D02*
Y1171139D01*
X1222402Y1166826D02*
Y1171122D01*
X1222502Y1166808D02*
Y1171104D01*
X1222602Y1166790D02*
Y1171086D01*
X1222702Y1166773D02*
Y1171069D01*
X1222802Y1166755D02*
Y1171051D01*
X1222902Y1166737D02*
Y1171033D01*
X1223002Y1166720D02*
Y1171016D01*
X1223102Y1166702D02*
Y1170998D01*
X1223202Y1166685D02*
Y1170981D01*
X1223302Y1166667D02*
Y1170963D01*
X1223402Y1166649D02*
Y1170945D01*
X1223502Y1166632D02*
Y1170928D01*
X1223602Y1166614D02*
Y1170910D01*
X1223702Y1166596D02*
Y1170892D01*
X1223802Y1166579D02*
Y1170875D01*
X1223902Y1166561D02*
Y1170857D01*
X1224002Y1166543D02*
Y1170839D01*
X1224102Y1166526D02*
Y1170822D01*
X1224202Y1166508D02*
Y1170804D01*
X1224302Y1166491D02*
Y1170787D01*
X1224402Y1166473D02*
Y1170769D01*
X1224502Y1166455D02*
Y1170751D01*
X1224602Y1166438D02*
Y1170734D01*
X1224702Y1166420D02*
Y1170716D01*
X1224802Y1166402D02*
Y1170698D01*
X1224902Y1166385D02*
Y1170681D01*
X1225002Y1166367D02*
Y1170663D01*
X1225102Y1166350D02*
Y1170646D01*
X1225202Y1166332D02*
Y1170628D01*
X1225302Y1166314D02*
Y1170610D01*
X1225402Y1166297D02*
Y1170593D01*
X1225502Y1166279D02*
Y1170575D01*
X1225602Y1166261D02*
Y1170557D01*
X1225702Y1166244D02*
Y1170540D01*
X1225802Y1166226D02*
Y1170522D01*
X1225902Y1166208D02*
Y1170504D01*
X1226002Y1166191D02*
Y1170487D01*
X1226102Y1166173D02*
Y1170469D01*
X1226202Y1166156D02*
Y1170452D01*
X1226302Y1166138D02*
Y1170434D01*
X1226402Y1166120D02*
Y1170416D01*
X1226502Y1166103D02*
Y1170399D01*
X1226602Y1166085D02*
Y1170381D01*
X1226702Y1166067D02*
Y1170363D01*
X1226802Y1166050D02*
Y1170346D01*
X1226902Y1166032D02*
Y1170328D01*
X1227002Y1166015D02*
Y1170310D01*
X1227102Y1165997D02*
Y1170293D01*
X1227202Y1165979D02*
Y1170275D01*
X1227302Y1165962D02*
Y1170258D01*
X1227402Y1165944D02*
Y1170240D01*
X1227502Y1165926D02*
Y1170222D01*
X1227602Y1165909D02*
Y1170205D01*
X1227702Y1165891D02*
Y1170187D01*
X1227802Y1165873D02*
Y1170169D01*
X1227902Y1165856D02*
Y1170152D01*
X1228002Y1165838D02*
Y1170134D01*
X1228102Y1165821D02*
Y1170117D01*
X1228202Y1165803D02*
Y1170099D01*
X1228302Y1165785D02*
Y1170081D01*
X1228402Y1165768D02*
Y1170064D01*
X1228502Y1165750D02*
Y1170046D01*
X1228602Y1165732D02*
Y1170028D01*
X1228702Y1165715D02*
Y1170011D01*
X1228802Y1165697D02*
Y1169993D01*
X1228902Y1165679D02*
Y1169975D01*
X1229002Y1165662D02*
Y1169958D01*
X1229102Y1165644D02*
Y1169940D01*
X1229202Y1165627D02*
Y1169923D01*
X1229302Y1165609D02*
Y1169905D01*
X1229402Y1165591D02*
Y1169887D01*
X1229502Y1165574D02*
Y1169870D01*
X1229602Y1165556D02*
Y1169852D01*
X1229702Y1165538D02*
Y1169834D01*
X1229802Y1165521D02*
Y1169817D01*
X1229902Y1165503D02*
Y1169799D01*
X1230002Y1165486D02*
Y1169782D01*
X1230102Y1165468D02*
Y1169764D01*
X1230202Y1165450D02*
Y1169746D01*
X1230302Y1165433D02*
Y1169729D01*
X1230402Y1165415D02*
Y1169711D01*
X1230502Y1165397D02*
Y1169693D01*
X1230602Y1165380D02*
Y1169676D01*
X1230702Y1165362D02*
Y1169658D01*
X1230802Y1165344D02*
Y1169640D01*
X1230902Y1165327D02*
Y1169623D01*
X1231002Y1165309D02*
Y1169605D01*
X1231102Y1165292D02*
Y1169588D01*
X1231202Y1165274D02*
Y1169570D01*
X1231302Y1165256D02*
Y1169552D01*
X1231402Y1165239D02*
Y1169535D01*
X1231502Y1165221D02*
Y1169517D01*
X1231602Y1165203D02*
Y1169499D01*
X1231702Y1165186D02*
Y1169482D01*
X1231802Y1165168D02*
Y1169464D01*
X1231902Y1165151D02*
Y1169446D01*
X1232002Y1165133D02*
Y1169429D01*
X1232102Y1165115D02*
Y1169411D01*
X1232202Y1165098D02*
Y1169394D01*
X1232302Y1165080D02*
Y1169376D01*
X1232402Y1165062D02*
Y1169358D01*
X1232502Y1165045D02*
Y1169341D01*
X1232602Y1165027D02*
Y1169323D01*
X1232702Y1165009D02*
Y1169305D01*
X1232802Y1164992D02*
Y1169288D01*
X1232902Y1164974D02*
Y1169270D01*
X1233002Y1164957D02*
Y1169253D01*
X1233102Y1164939D02*
Y1169235D01*
X1233202Y1164921D02*
Y1169217D01*
X1233302Y1164904D02*
Y1169200D01*
X1233402Y1164886D02*
Y1169182D01*
X1233502Y1164868D02*
Y1169164D01*
X1233602Y1164851D02*
Y1169147D01*
X1233702Y1164833D02*
Y1169129D01*
X1233802Y1164815D02*
Y1169111D01*
X1233902Y1164798D02*
Y1169094D01*
X1234002Y1164780D02*
Y1169076D01*
X1234102Y1164763D02*
Y1169059D01*
X1234202Y1164745D02*
Y1169041D01*
X1234302Y1164727D02*
Y1169023D01*
X1234402Y1164710D02*
Y1169006D01*
X1234502Y1164692D02*
Y1168988D01*
X1234602Y1164674D02*
Y1168970D01*
X1234702Y1164657D02*
Y1168953D01*
X1234802Y1164639D02*
Y1168935D01*
X1234902Y1164622D02*
Y1168918D01*
X1235002Y1164604D02*
Y1168900D01*
X1235102Y1164586D02*
Y1168882D01*
X1235202Y1164569D02*
Y1168865D01*
X1235302Y1164551D02*
Y1168847D01*
X1235402Y1164533D02*
Y1168829D01*
X1235502Y1164516D02*
Y1168812D01*
X1235602Y1164498D02*
Y1168794D01*
X1235702Y1164480D02*
Y1168776D01*
X1235802Y1164463D02*
Y1168759D01*
X1235902Y1164445D02*
Y1168741D01*
X1236002Y1164428D02*
Y1168724D01*
X1236102Y1164410D02*
Y1168706D01*
X1236202Y1164392D02*
Y1168688D01*
X1236302Y1164375D02*
Y1168671D01*
X1236402Y1164357D02*
Y1168653D01*
X1236502Y1164339D02*
Y1168635D01*
X1236602Y1164322D02*
Y1168618D01*
X1236702Y1164304D02*
Y1168600D01*
X1236802Y1164287D02*
Y1168582D01*
X1236902Y1164269D02*
Y1168565D01*
X1237002Y1164251D02*
Y1168547D01*
X1237102Y1164234D02*
Y1168530D01*
X1237202Y1164216D02*
Y1168512D01*
X1237302Y1164198D02*
Y1168494D01*
X1237402Y1164181D02*
Y1168477D01*
X1237502Y1164163D02*
Y1168459D01*
X1237602Y1164145D02*
Y1168441D01*
X1237702Y1164128D02*
Y1168424D01*
X1237802Y1164110D02*
Y1168406D01*
X1237902Y1164093D02*
Y1168389D01*
X1238002Y1164075D02*
Y1168371D01*
X1238102Y1164057D02*
Y1168353D01*
X1238202Y1164040D02*
Y1168336D01*
X1238302Y1164022D02*
Y1168318D01*
X1238402Y1164004D02*
Y1168300D01*
X1238502Y1163987D02*
Y1168283D01*
X1238602Y1163969D02*
Y1168265D01*
X1238702Y1163951D02*
Y1168247D01*
X1238802Y1163934D02*
Y1168230D01*
X1238902Y1163916D02*
Y1168212D01*
X1239002Y1163899D02*
Y1168195D01*
X1239102Y1163881D02*
Y1168177D01*
X1239202Y1163863D02*
Y1168159D01*
X1239302Y1163846D02*
Y1168142D01*
X1239402Y1163828D02*
Y1168124D01*
X1239502Y1163810D02*
Y1168106D01*
X1239602Y1163793D02*
Y1168089D01*
X1239702Y1163775D02*
Y1168071D01*
X1239802Y1163758D02*
Y1168053D01*
X1239902Y1163740D02*
Y1168036D01*
X1240002Y1163722D02*
Y1168018D01*
X1240102Y1163705D02*
Y1168001D01*
X1240202Y1163687D02*
Y1167983D01*
X1240302Y1163669D02*
Y1167965D01*
X1240402Y1163652D02*
Y1167948D01*
X1240502Y1163634D02*
Y1167930D01*
X1240602Y1163616D02*
Y1167912D01*
X1240702Y1163599D02*
Y1167895D01*
X1240802Y1163581D02*
Y1167877D01*
X1240902Y1163564D02*
Y1167860D01*
X1241002Y1163546D02*
Y1167842D01*
X1241102Y1163528D02*
Y1167824D01*
X1241202Y1163511D02*
Y1167807D01*
X1241302Y1163493D02*
Y1167789D01*
X1241402Y1163475D02*
Y1167771D01*
X1241502Y1163458D02*
Y1167754D01*
X1241602Y1163440D02*
Y1167736D01*
X1241702Y1163423D02*
Y1167718D01*
X1241802Y1163405D02*
Y1167701D01*
X1241902Y1163387D02*
Y1167683D01*
X1242002Y1163370D02*
Y1167666D01*
X1242102Y1163352D02*
Y1167648D01*
X1242202Y1163334D02*
Y1167630D01*
X1242302Y1163317D02*
Y1167613D01*
X1242402Y1163299D02*
Y1167595D01*
X1242502Y1163281D02*
Y1167577D01*
X1242602Y1163264D02*
Y1167560D01*
X1242702Y1163246D02*
Y1167542D01*
X1242802Y1163229D02*
Y1167525D01*
X1242902Y1163211D02*
Y1167507D01*
X1243002Y1163193D02*
Y1167489D01*
X1243102Y1163176D02*
Y1167472D01*
X1243202Y1163158D02*
Y1167454D01*
X1243302Y1163140D02*
Y1167436D01*
X1243402Y1163123D02*
Y1167419D01*
X1243502Y1163105D02*
Y1167401D01*
X1243602Y1163087D02*
Y1167383D01*
X1243702Y1163070D02*
Y1167366D01*
X1243802Y1163052D02*
Y1167348D01*
X1243902Y1163035D02*
Y1167331D01*
X1244002Y1163017D02*
Y1167313D01*
X1244102Y1162999D02*
Y1167295D01*
X1244202Y1162982D02*
Y1167278D01*
X1244302Y1162964D02*
Y1167260D01*
X1244402Y1162946D02*
Y1167242D01*
X1244502Y1162929D02*
Y1167225D01*
X1244602Y1162911D02*
Y1167207D01*
X1244702Y1162894D02*
Y1167189D01*
X1244802Y1162876D02*
Y1167172D01*
X1244902Y1162858D02*
Y1167154D01*
X1245002Y1162841D02*
Y1167137D01*
X1245102Y1162823D02*
Y1167119D01*
X1245202Y1162805D02*
Y1167101D01*
X1245302Y1163363D02*
Y1167084D01*
X1245402Y1163930D02*
Y1167066D01*
X1245502Y1164497D02*
Y1167048D01*
X1245602Y1165064D02*
Y1167031D01*
X1245702Y1165631D02*
Y1167013D01*
X1245802Y1166198D02*
Y1166996D01*
X1245902Y1166766D02*
Y1166978D01*
X1217798Y1177325D02*
X1246779Y1172215D01*
X1247513Y1176381*
X1218533Y1181491*
X1217798Y1177325*
X1246779Y1172215D02*
X1246779D01*
X1246212Y1172315D02*
X1246796D01*
X1245645Y1172415D02*
X1246814D01*
X1245077Y1172515D02*
X1246832D01*
X1244510Y1172615D02*
X1246849D01*
X1243943Y1172715D02*
X1246867D01*
X1243376Y1172815D02*
X1246885D01*
X1242809Y1172915D02*
X1246902D01*
X1242242Y1173015D02*
X1246920D01*
X1241675Y1173115D02*
X1246938D01*
X1241108Y1173215D02*
X1246955D01*
X1240540Y1173315D02*
X1246973D01*
X1239973Y1173415D02*
X1246990D01*
X1239406Y1173515D02*
X1247008D01*
X1238839Y1173615D02*
X1247026D01*
X1238272Y1173715D02*
X1247043D01*
X1237705Y1173815D02*
X1247061D01*
X1237138Y1173915D02*
X1247079D01*
X1236571Y1174015D02*
X1247096D01*
X1236003Y1174115D02*
X1247114D01*
X1235436Y1174215D02*
X1247131D01*
X1234869Y1174315D02*
X1247149D01*
X1234302Y1174415D02*
X1247167D01*
X1233735Y1174515D02*
X1247184D01*
X1233168Y1174615D02*
X1247202D01*
X1232601Y1174715D02*
X1247220D01*
X1232033Y1174815D02*
X1247237D01*
X1231466Y1174915D02*
X1247255D01*
X1230899Y1175015D02*
X1247273D01*
X1230332Y1175115D02*
X1247290D01*
X1229765Y1175215D02*
X1247308D01*
X1229198Y1175315D02*
X1247325D01*
X1228631Y1175415D02*
X1247343D01*
X1228064Y1175515D02*
X1247361D01*
X1227496Y1175615D02*
X1247378D01*
X1226929Y1175715D02*
X1247396D01*
X1226362Y1175815D02*
X1247414D01*
X1225795Y1175915D02*
X1247431D01*
X1225228Y1176015D02*
X1247449D01*
X1224661Y1176115D02*
X1247466D01*
X1224094Y1176215D02*
X1247484D01*
X1223527Y1176315D02*
X1247502D01*
X1222959Y1176415D02*
X1247323D01*
X1222392Y1176515D02*
X1246756D01*
X1221825Y1176615D02*
X1246189D01*
X1221258Y1176715D02*
X1245622D01*
X1220691Y1176815D02*
X1245055D01*
X1220124Y1176915D02*
X1244487D01*
X1219557Y1177015D02*
X1243920D01*
X1218990Y1177115D02*
X1243353D01*
X1218422Y1177215D02*
X1242786D01*
X1217855Y1177315D02*
X1242219D01*
X1217814Y1177415D02*
X1241652D01*
X1217832Y1177515D02*
X1241085D01*
X1217849Y1177615D02*
X1240518D01*
X1217867Y1177715D02*
X1239950D01*
X1217885Y1177815D02*
X1239383D01*
X1217902Y1177915D02*
X1238816D01*
X1217920Y1178015D02*
X1238249D01*
X1217938Y1178115D02*
X1237682D01*
X1217955Y1178215D02*
X1237115D01*
X1217973Y1178315D02*
X1236548D01*
X1217991Y1178415D02*
X1235981D01*
X1218008Y1178515D02*
X1235413D01*
X1218026Y1178615D02*
X1234846D01*
X1218043Y1178715D02*
X1234279D01*
X1218061Y1178815D02*
X1233712D01*
X1218079Y1178915D02*
X1233145D01*
X1218096Y1179015D02*
X1232578D01*
X1218114Y1179115D02*
X1232011D01*
X1218132Y1179215D02*
X1231444D01*
X1218149Y1179315D02*
X1230876D01*
X1218167Y1179415D02*
X1230309D01*
X1218184Y1179515D02*
X1229742D01*
X1218202Y1179615D02*
X1229175D01*
X1218220Y1179715D02*
X1228608D01*
X1218237Y1179815D02*
X1228041D01*
X1218255Y1179915D02*
X1227474D01*
X1218273Y1180015D02*
X1226906D01*
X1218290Y1180115D02*
X1226339D01*
X1218308Y1180215D02*
X1225772D01*
X1218326Y1180315D02*
X1225205D01*
X1218343Y1180415D02*
X1224638D01*
X1218361Y1180515D02*
X1224071D01*
X1218378Y1180615D02*
X1223504D01*
X1218396Y1180715D02*
X1222937D01*
X1218414Y1180815D02*
X1222369D01*
X1218431Y1180915D02*
X1221802D01*
X1218449Y1181015D02*
X1221235D01*
X1218467Y1181115D02*
X1220668D01*
X1218484Y1181215D02*
X1220101D01*
X1218502Y1181315D02*
X1219534D01*
X1218520Y1181415D02*
X1218967D01*
X1217802Y1177324D02*
Y1177347D01*
X1217902Y1177306D02*
Y1177915D01*
X1218002Y1177289D02*
Y1178482D01*
X1218102Y1177271D02*
Y1179049D01*
X1218202Y1177253D02*
Y1179616D01*
X1218302Y1177236D02*
Y1180183D01*
X1218402Y1177218D02*
Y1180750D01*
X1218502Y1177200D02*
Y1181317D01*
X1218602Y1177183D02*
Y1181479D01*
X1218702Y1177165D02*
Y1181461D01*
X1218802Y1177148D02*
Y1181443D01*
X1218902Y1177130D02*
Y1181426D01*
X1219002Y1177112D02*
Y1181408D01*
X1219102Y1177095D02*
Y1181391D01*
X1219202Y1177077D02*
Y1181373D01*
X1219302Y1177059D02*
Y1181355D01*
X1219402Y1177042D02*
Y1181338D01*
X1219502Y1177024D02*
Y1181320D01*
X1219602Y1177006D02*
Y1181302D01*
X1219702Y1176989D02*
Y1181285D01*
X1219802Y1176971D02*
Y1181267D01*
X1219902Y1176954D02*
Y1181250D01*
X1220002Y1176936D02*
Y1181232D01*
X1220102Y1176918D02*
Y1181214D01*
X1220202Y1176901D02*
Y1181197D01*
X1220302Y1176883D02*
Y1181179D01*
X1220402Y1176865D02*
Y1181161D01*
X1220502Y1176848D02*
Y1181144D01*
X1220602Y1176830D02*
Y1181126D01*
X1220702Y1176812D02*
Y1181108D01*
X1220802Y1176795D02*
Y1181091D01*
X1220902Y1176777D02*
Y1181073D01*
X1221002Y1176760D02*
Y1181056D01*
X1221102Y1176742D02*
Y1181038D01*
X1221202Y1176724D02*
Y1181020D01*
X1221302Y1176707D02*
Y1181003D01*
X1221402Y1176689D02*
Y1180985D01*
X1221502Y1176671D02*
Y1180967D01*
X1221602Y1176654D02*
Y1180950D01*
X1221702Y1176636D02*
Y1180932D01*
X1221802Y1176619D02*
Y1180915D01*
X1221902Y1176601D02*
Y1180897D01*
X1222002Y1176583D02*
Y1180879D01*
X1222102Y1176566D02*
Y1180862D01*
X1222202Y1176548D02*
Y1180844D01*
X1222302Y1176530D02*
Y1180826D01*
X1222402Y1176513D02*
Y1180809D01*
X1222502Y1176495D02*
Y1180791D01*
X1222602Y1176477D02*
Y1180773D01*
X1222702Y1176460D02*
Y1180756D01*
X1222802Y1176442D02*
Y1180738D01*
X1222902Y1176425D02*
Y1180721D01*
X1223002Y1176407D02*
Y1180703D01*
X1223102Y1176389D02*
Y1180685D01*
X1223202Y1176372D02*
Y1180668D01*
X1223302Y1176354D02*
Y1180650D01*
X1223402Y1176336D02*
Y1180632D01*
X1223502Y1176319D02*
Y1180615D01*
X1223602Y1176301D02*
Y1180597D01*
X1223702Y1176284D02*
Y1180579D01*
X1223802Y1176266D02*
Y1180562D01*
X1223902Y1176248D02*
Y1180544D01*
X1224002Y1176231D02*
Y1180527D01*
X1224102Y1176213D02*
Y1180509D01*
X1224202Y1176195D02*
Y1180491D01*
X1224302Y1176178D02*
Y1180474D01*
X1224402Y1176160D02*
Y1180456D01*
X1224502Y1176142D02*
Y1180438D01*
X1224602Y1176125D02*
Y1180421D01*
X1224702Y1176107D02*
Y1180403D01*
X1224802Y1176090D02*
Y1180386D01*
X1224902Y1176072D02*
Y1180368D01*
X1225002Y1176054D02*
Y1180350D01*
X1225102Y1176037D02*
Y1180333D01*
X1225202Y1176019D02*
Y1180315D01*
X1225302Y1176001D02*
Y1180297D01*
X1225402Y1175984D02*
Y1180280D01*
X1225502Y1175966D02*
Y1180262D01*
X1225602Y1175948D02*
Y1180244D01*
X1225702Y1175931D02*
Y1180227D01*
X1225802Y1175913D02*
Y1180209D01*
X1225902Y1175896D02*
Y1180192D01*
X1226002Y1175878D02*
Y1180174D01*
X1226102Y1175860D02*
Y1180156D01*
X1226202Y1175843D02*
Y1180139D01*
X1226302Y1175825D02*
Y1180121D01*
X1226402Y1175807D02*
Y1180103D01*
X1226502Y1175790D02*
Y1180086D01*
X1226602Y1175772D02*
Y1180068D01*
X1226702Y1175755D02*
Y1180051D01*
X1226802Y1175737D02*
Y1180033D01*
X1226902Y1175719D02*
Y1180015D01*
X1227002Y1175702D02*
Y1179998D01*
X1227102Y1175684D02*
Y1179980D01*
X1227202Y1175666D02*
Y1179962D01*
X1227302Y1175649D02*
Y1179945D01*
X1227402Y1175631D02*
Y1179927D01*
X1227502Y1175613D02*
Y1179909D01*
X1227602Y1175596D02*
Y1179892D01*
X1227702Y1175578D02*
Y1179874D01*
X1227802Y1175561D02*
Y1179857D01*
X1227902Y1175543D02*
Y1179839D01*
X1228002Y1175525D02*
Y1179821D01*
X1228102Y1175508D02*
Y1179804D01*
X1228202Y1175490D02*
Y1179786D01*
X1228302Y1175472D02*
Y1179768D01*
X1228402Y1175455D02*
Y1179751D01*
X1228502Y1175437D02*
Y1179733D01*
X1228602Y1175420D02*
Y1179715D01*
X1228702Y1175402D02*
Y1179698D01*
X1228802Y1175384D02*
Y1179680D01*
X1228902Y1175367D02*
Y1179663D01*
X1229002Y1175349D02*
Y1179645D01*
X1229102Y1175331D02*
Y1179627D01*
X1229202Y1175314D02*
Y1179610D01*
X1229302Y1175296D02*
Y1179592D01*
X1229402Y1175278D02*
Y1179574D01*
X1229502Y1175261D02*
Y1179557D01*
X1229602Y1175243D02*
Y1179539D01*
X1229702Y1175226D02*
Y1179522D01*
X1229802Y1175208D02*
Y1179504D01*
X1229902Y1175190D02*
Y1179486D01*
X1230002Y1175173D02*
Y1179469D01*
X1230102Y1175155D02*
Y1179451D01*
X1230202Y1175137D02*
Y1179433D01*
X1230302Y1175120D02*
Y1179416D01*
X1230402Y1175102D02*
Y1179398D01*
X1230502Y1175084D02*
Y1179380D01*
X1230602Y1175067D02*
Y1179363D01*
X1230702Y1175049D02*
Y1179345D01*
X1230802Y1175032D02*
Y1179328D01*
X1230902Y1175014D02*
Y1179310D01*
X1231002Y1174996D02*
Y1179292D01*
X1231102Y1174979D02*
Y1179275D01*
X1231202Y1174961D02*
Y1179257D01*
X1231302Y1174943D02*
Y1179239D01*
X1231402Y1174926D02*
Y1179222D01*
X1231502Y1174908D02*
Y1179204D01*
X1231602Y1174891D02*
Y1179187D01*
X1231702Y1174873D02*
Y1179169D01*
X1231802Y1174855D02*
Y1179151D01*
X1231902Y1174838D02*
Y1179134D01*
X1232002Y1174820D02*
Y1179116D01*
X1232102Y1174802D02*
Y1179098D01*
X1232202Y1174785D02*
Y1179081D01*
X1232302Y1174767D02*
Y1179063D01*
X1232402Y1174749D02*
Y1179045D01*
X1232502Y1174732D02*
Y1179028D01*
X1232602Y1174714D02*
Y1179010D01*
X1232702Y1174697D02*
Y1178993D01*
X1232802Y1174679D02*
Y1178975D01*
X1232902Y1174661D02*
Y1178957D01*
X1233002Y1174644D02*
Y1178940D01*
X1233102Y1174626D02*
Y1178922D01*
X1233202Y1174608D02*
Y1178904D01*
X1233302Y1174591D02*
Y1178887D01*
X1233402Y1174573D02*
Y1178869D01*
X1233502Y1174556D02*
Y1178851D01*
X1233602Y1174538D02*
Y1178834D01*
X1233702Y1174520D02*
Y1178816D01*
X1233802Y1174503D02*
Y1178799D01*
X1233902Y1174485D02*
Y1178781D01*
X1234002Y1174467D02*
Y1178763D01*
X1234102Y1174450D02*
Y1178746D01*
X1234202Y1174432D02*
Y1178728D01*
X1234302Y1174414D02*
Y1178710D01*
X1234402Y1174397D02*
Y1178693D01*
X1234502Y1174379D02*
Y1178675D01*
X1234602Y1174362D02*
Y1178658D01*
X1234702Y1174344D02*
Y1178640D01*
X1234802Y1174326D02*
Y1178622D01*
X1234902Y1174309D02*
Y1178605D01*
X1235002Y1174291D02*
Y1178587D01*
X1235102Y1174273D02*
Y1178569D01*
X1235202Y1174256D02*
Y1178552D01*
X1235302Y1174238D02*
Y1178534D01*
X1235402Y1174220D02*
Y1178516D01*
X1235502Y1174203D02*
Y1178499D01*
X1235602Y1174185D02*
Y1178481D01*
X1235702Y1174168D02*
Y1178464D01*
X1235802Y1174150D02*
Y1178446D01*
X1235902Y1174132D02*
Y1178428D01*
X1236002Y1174115D02*
Y1178411D01*
X1236102Y1174097D02*
Y1178393D01*
X1236202Y1174079D02*
Y1178375D01*
X1236302Y1174062D02*
Y1178358D01*
X1236402Y1174044D02*
Y1178340D01*
X1236502Y1174027D02*
Y1178323D01*
X1236602Y1174009D02*
Y1178305D01*
X1236702Y1173991D02*
Y1178287D01*
X1236802Y1173974D02*
Y1178270D01*
X1236902Y1173956D02*
Y1178252D01*
X1237002Y1173938D02*
Y1178234D01*
X1237102Y1173921D02*
Y1178217D01*
X1237202Y1173903D02*
Y1178199D01*
X1237302Y1173885D02*
Y1178181D01*
X1237402Y1173868D02*
Y1178164D01*
X1237502Y1173850D02*
Y1178146D01*
X1237602Y1173833D02*
Y1178129D01*
X1237702Y1173815D02*
Y1178111D01*
X1237802Y1173797D02*
Y1178093D01*
X1237902Y1173780D02*
Y1178076D01*
X1238002Y1173762D02*
Y1178058D01*
X1238102Y1173744D02*
Y1178040D01*
X1238202Y1173727D02*
Y1178023D01*
X1238302Y1173709D02*
Y1178005D01*
X1238402Y1173692D02*
Y1177987D01*
X1238502Y1173674D02*
Y1177970D01*
X1238602Y1173656D02*
Y1177952D01*
X1238702Y1173639D02*
Y1177935D01*
X1238802Y1173621D02*
Y1177917D01*
X1238902Y1173603D02*
Y1177899D01*
X1239002Y1173586D02*
Y1177882D01*
X1239102Y1173568D02*
Y1177864D01*
X1239202Y1173550D02*
Y1177846D01*
X1239302Y1173533D02*
Y1177829D01*
X1239402Y1173515D02*
Y1177811D01*
X1239502Y1173498D02*
Y1177794D01*
X1239602Y1173480D02*
Y1177776D01*
X1239702Y1173462D02*
Y1177758D01*
X1239802Y1173445D02*
Y1177741D01*
X1239902Y1173427D02*
Y1177723D01*
X1240002Y1173409D02*
Y1177705D01*
X1240102Y1173392D02*
Y1177688D01*
X1240202Y1173374D02*
Y1177670D01*
X1240302Y1173356D02*
Y1177652D01*
X1240402Y1173339D02*
Y1177635D01*
X1240502Y1173321D02*
Y1177617D01*
X1240602Y1173304D02*
Y1177600D01*
X1240702Y1173286D02*
Y1177582D01*
X1240802Y1173268D02*
Y1177564D01*
X1240902Y1173251D02*
Y1177547D01*
X1241002Y1173233D02*
Y1177529D01*
X1241102Y1173215D02*
Y1177511D01*
X1241202Y1173198D02*
Y1177494D01*
X1241302Y1173180D02*
Y1177476D01*
X1241402Y1173163D02*
Y1177459D01*
X1241502Y1173145D02*
Y1177441D01*
X1241602Y1173127D02*
Y1177423D01*
X1241702Y1173110D02*
Y1177406D01*
X1241802Y1173092D02*
Y1177388D01*
X1241902Y1173074D02*
Y1177370D01*
X1242002Y1173057D02*
Y1177353D01*
X1242102Y1173039D02*
Y1177335D01*
X1242202Y1173021D02*
Y1177317D01*
X1242302Y1173004D02*
Y1177300D01*
X1242402Y1172986D02*
Y1177282D01*
X1242502Y1172969D02*
Y1177265D01*
X1242602Y1172951D02*
Y1177247D01*
X1242702Y1172933D02*
Y1177229D01*
X1242802Y1172916D02*
Y1177212D01*
X1242902Y1172898D02*
Y1177194D01*
X1243002Y1172880D02*
Y1177176D01*
X1243102Y1172863D02*
Y1177159D01*
X1243202Y1172845D02*
Y1177141D01*
X1243302Y1172828D02*
Y1177123D01*
X1243402Y1172810D02*
Y1177106D01*
X1243502Y1172792D02*
Y1177088D01*
X1243602Y1172775D02*
Y1177071D01*
X1243702Y1172757D02*
Y1177053D01*
X1243802Y1172739D02*
Y1177035D01*
X1243902Y1172722D02*
Y1177018D01*
X1244002Y1172704D02*
Y1177000D01*
X1244102Y1172686D02*
Y1176982D01*
X1244202Y1172669D02*
Y1176965D01*
X1244302Y1172651D02*
Y1176947D01*
X1244402Y1172634D02*
Y1176930D01*
X1244502Y1172616D02*
Y1176912D01*
X1244602Y1172598D02*
Y1176894D01*
X1244702Y1172581D02*
Y1176877D01*
X1244802Y1172563D02*
Y1176859D01*
X1244902Y1172545D02*
Y1176841D01*
X1245002Y1172528D02*
Y1176824D01*
X1245102Y1172510D02*
Y1176806D01*
X1245202Y1172492D02*
Y1176788D01*
X1245302Y1172475D02*
Y1176771D01*
X1245402Y1172457D02*
Y1176753D01*
X1245502Y1172440D02*
Y1176736D01*
X1245602Y1172422D02*
Y1176718D01*
X1245702Y1172404D02*
Y1176700D01*
X1245802Y1172387D02*
Y1176683D01*
X1245902Y1172369D02*
Y1176665D01*
X1246002Y1172351D02*
Y1176647D01*
X1246102Y1172334D02*
Y1176630D01*
X1246202Y1172316D02*
Y1176612D01*
X1246302Y1172299D02*
Y1176595D01*
X1246402Y1172281D02*
Y1176577D01*
X1246502Y1172263D02*
Y1176559D01*
X1246602Y1172246D02*
Y1176542D01*
X1246702Y1172228D02*
Y1176524D01*
X1246802Y1172348D02*
Y1176506D01*
X1246902Y1172915D02*
Y1176489D01*
X1247002Y1173482D02*
Y1176471D01*
X1247102Y1174049D02*
Y1176453D01*
X1247202Y1174617D02*
Y1176436D01*
X1247302Y1175184D02*
Y1176418D01*
X1247402Y1175751D02*
Y1176401D01*
X1247502Y1176318D02*
Y1176383D01*
X1122795Y1212065D02*
X1149356Y1199396D01*
X1151178Y1203215*
X1124617Y1215884*
X1122795Y1212065*
X1149344Y1199402D02*
X1149359D01*
X1149134Y1199502D02*
X1149407D01*
X1148925Y1199602D02*
X1149455D01*
X1148715Y1199702D02*
X1149502D01*
X1148505Y1199802D02*
X1149550D01*
X1148296Y1199902D02*
X1149598D01*
X1148086Y1200002D02*
X1149645D01*
X1147876Y1200102D02*
X1149693D01*
X1147667Y1200202D02*
X1149741D01*
X1147457Y1200302D02*
X1149788D01*
X1147247Y1200402D02*
X1149836D01*
X1147038Y1200502D02*
X1149884D01*
X1146828Y1200602D02*
X1149932D01*
X1146618Y1200702D02*
X1149979D01*
X1146409Y1200802D02*
X1150027D01*
X1146199Y1200902D02*
X1150075D01*
X1145989Y1201002D02*
X1150122D01*
X1145780Y1201102D02*
X1150170D01*
X1145570Y1201202D02*
X1150218D01*
X1145360Y1201302D02*
X1150265D01*
X1145151Y1201402D02*
X1150313D01*
X1144941Y1201502D02*
X1150361D01*
X1144732Y1201602D02*
X1150409D01*
X1144522Y1201702D02*
X1150456D01*
X1144312Y1201802D02*
X1150504D01*
X1144103Y1201902D02*
X1150552D01*
X1143893Y1202002D02*
X1150599D01*
X1143683Y1202102D02*
X1150647D01*
X1143474Y1202202D02*
X1150695D01*
X1143264Y1202302D02*
X1150742D01*
X1143054Y1202402D02*
X1150790D01*
X1142845Y1202502D02*
X1150838D01*
X1142635Y1202602D02*
X1150886D01*
X1142425Y1202702D02*
X1150933D01*
X1142216Y1202802D02*
X1150981D01*
X1142006Y1202902D02*
X1151029D01*
X1141796Y1203002D02*
X1151076D01*
X1141587Y1203102D02*
X1151124D01*
X1141377Y1203202D02*
X1151172D01*
X1141167Y1203302D02*
X1150995D01*
X1140958Y1203402D02*
X1150785D01*
X1140748Y1203502D02*
X1150575D01*
X1140538Y1203602D02*
X1150366D01*
X1140329Y1203702D02*
X1150156D01*
X1140119Y1203802D02*
X1149946D01*
X1139909Y1203902D02*
X1149737D01*
X1139700Y1204002D02*
X1149527D01*
X1139490Y1204102D02*
X1149317D01*
X1139281Y1204202D02*
X1149108D01*
X1139071Y1204302D02*
X1148898D01*
X1138861Y1204402D02*
X1148688D01*
X1138652Y1204502D02*
X1148479D01*
X1138442Y1204602D02*
X1148269D01*
X1138232Y1204702D02*
X1148059D01*
X1138023Y1204802D02*
X1147850D01*
X1137813Y1204902D02*
X1147640D01*
X1137603Y1205002D02*
X1147430D01*
X1137394Y1205102D02*
X1147221D01*
X1137184Y1205202D02*
X1147011D01*
X1136974Y1205302D02*
X1146801D01*
X1136765Y1205402D02*
X1146592D01*
X1136555Y1205502D02*
X1146382D01*
X1136345Y1205602D02*
X1146173D01*
X1136136Y1205702D02*
X1145963D01*
X1135926Y1205802D02*
X1145753D01*
X1135716Y1205902D02*
X1145544D01*
X1135507Y1206002D02*
X1145334D01*
X1135297Y1206102D02*
X1145124D01*
X1135087Y1206202D02*
X1144915D01*
X1134878Y1206302D02*
X1144705D01*
X1134668Y1206402D02*
X1144495D01*
X1134458Y1206502D02*
X1144286D01*
X1134249Y1206602D02*
X1144076D01*
X1134039Y1206702D02*
X1143866D01*
X1133829Y1206802D02*
X1143657D01*
X1133620Y1206902D02*
X1143447D01*
X1133410Y1207002D02*
X1143237D01*
X1133201Y1207102D02*
X1143028D01*
X1132991Y1207202D02*
X1142818D01*
X1132781Y1207302D02*
X1142608D01*
X1132572Y1207402D02*
X1142399D01*
X1132362Y1207502D02*
X1142189D01*
X1132152Y1207602D02*
X1141979D01*
X1131943Y1207702D02*
X1141770D01*
X1131733Y1207802D02*
X1141560D01*
X1131523Y1207902D02*
X1141350D01*
X1131314Y1208002D02*
X1141141D01*
X1131104Y1208102D02*
X1140931D01*
X1130894Y1208202D02*
X1140722D01*
X1130685Y1208302D02*
X1140512D01*
X1130475Y1208402D02*
X1140302D01*
X1130265Y1208502D02*
X1140093D01*
X1130056Y1208602D02*
X1139883D01*
X1129846Y1208702D02*
X1139673D01*
X1129636Y1208802D02*
X1139464D01*
X1129427Y1208902D02*
X1139254D01*
X1129217Y1209002D02*
X1139044D01*
X1129007Y1209102D02*
X1138835D01*
X1128798Y1209202D02*
X1138625D01*
X1128588Y1209302D02*
X1138415D01*
X1128378Y1209402D02*
X1138206D01*
X1128169Y1209502D02*
X1137996D01*
X1127959Y1209602D02*
X1137786D01*
X1127750Y1209702D02*
X1137577D01*
X1127540Y1209802D02*
X1137367D01*
X1127330Y1209902D02*
X1137157D01*
X1127121Y1210002D02*
X1136948D01*
X1126911Y1210102D02*
X1136738D01*
X1126701Y1210202D02*
X1136528D01*
X1126492Y1210302D02*
X1136319D01*
X1126282Y1210402D02*
X1136109D01*
X1126072Y1210502D02*
X1135899D01*
X1125863Y1210602D02*
X1135690D01*
X1125653Y1210702D02*
X1135480D01*
X1125443Y1210802D02*
X1135271D01*
X1125234Y1210902D02*
X1135061D01*
X1125024Y1211002D02*
X1134851D01*
X1124814Y1211102D02*
X1134642D01*
X1124605Y1211202D02*
X1134432D01*
X1124395Y1211302D02*
X1134222D01*
X1124185Y1211402D02*
X1134013D01*
X1123976Y1211502D02*
X1133803D01*
X1123766Y1211602D02*
X1133593D01*
X1123556Y1211702D02*
X1133384D01*
X1123347Y1211802D02*
X1133174D01*
X1123137Y1211902D02*
X1132964D01*
X1122927Y1212002D02*
X1132755D01*
X1122813Y1212102D02*
X1132545D01*
X1122861Y1212202D02*
X1132335D01*
X1122909Y1212302D02*
X1132126D01*
X1122956Y1212402D02*
X1131916D01*
X1123004Y1212502D02*
X1131706D01*
X1123052Y1212602D02*
X1131497D01*
X1123099Y1212702D02*
X1131287D01*
X1123147Y1212802D02*
X1131077D01*
X1123195Y1212902D02*
X1130868D01*
X1123242Y1213002D02*
X1130658D01*
X1123290Y1213102D02*
X1130448D01*
X1123338Y1213202D02*
X1130239D01*
X1123386Y1213302D02*
X1130029D01*
X1123433Y1213402D02*
X1129819D01*
X1123481Y1213502D02*
X1129610D01*
X1123529Y1213602D02*
X1129400D01*
X1123576Y1213702D02*
X1129191D01*
X1123624Y1213802D02*
X1128981D01*
X1123672Y1213902D02*
X1128771D01*
X1123719Y1214002D02*
X1128562D01*
X1123767Y1214102D02*
X1128352D01*
X1123815Y1214202D02*
X1128142D01*
X1123863Y1214302D02*
X1127933D01*
X1123910Y1214402D02*
X1127723D01*
X1123958Y1214502D02*
X1127513D01*
X1124006Y1214602D02*
X1127304D01*
X1124053Y1214702D02*
X1127094D01*
X1124101Y1214802D02*
X1126884D01*
X1124149Y1214902D02*
X1126675D01*
X1124196Y1215002D02*
X1126465D01*
X1124244Y1215102D02*
X1126255D01*
X1124292Y1215202D02*
X1126046D01*
X1124339Y1215302D02*
X1125836D01*
X1124387Y1215402D02*
X1125626D01*
X1124435Y1215502D02*
X1125417D01*
X1124483Y1215602D02*
X1125207D01*
X1124530Y1215702D02*
X1124997D01*
X1124578Y1215802D02*
X1124788D01*
X1122795Y1212065D02*
X1122795D01*
X1122895Y1212018D02*
Y1212275D01*
X1122995Y1211970D02*
Y1212485D01*
X1123095Y1211922D02*
Y1212694D01*
X1123195Y1211875D02*
Y1212904D01*
X1123295Y1211827D02*
Y1213114D01*
X1123395Y1211779D02*
Y1213323D01*
X1123495Y1211731D02*
Y1213533D01*
X1123595Y1211684D02*
Y1213743D01*
X1123695Y1211636D02*
Y1213952D01*
X1123795Y1211588D02*
Y1214162D01*
X1123895Y1211541D02*
Y1214372D01*
X1123995Y1211493D02*
Y1214581D01*
X1124095Y1211445D02*
Y1214791D01*
X1124195Y1211398D02*
Y1215000D01*
X1124295Y1211350D02*
Y1215210D01*
X1124395Y1211302D02*
Y1215420D01*
X1124495Y1211254D02*
Y1215629D01*
X1124595Y1211207D02*
Y1215839D01*
X1124695Y1211159D02*
Y1215846D01*
X1124795Y1211111D02*
Y1215799D01*
X1124895Y1211064D02*
Y1215751D01*
X1124995Y1211016D02*
Y1215703D01*
X1125095Y1210968D02*
Y1215656D01*
X1125195Y1210921D02*
Y1215608D01*
X1125295Y1210873D02*
Y1215560D01*
X1125395Y1210825D02*
Y1215512D01*
X1125495Y1210777D02*
Y1215465D01*
X1125595Y1210730D02*
Y1215417D01*
X1125695Y1210682D02*
Y1215369D01*
X1125795Y1210634D02*
Y1215322D01*
X1125895Y1210587D02*
Y1215274D01*
X1125995Y1210539D02*
Y1215226D01*
X1126095Y1210491D02*
Y1215179D01*
X1126195Y1210444D02*
Y1215131D01*
X1126295Y1210396D02*
Y1215083D01*
X1126395Y1210348D02*
Y1215036D01*
X1126495Y1210301D02*
Y1214988D01*
X1126595Y1210253D02*
Y1214940D01*
X1126695Y1210205D02*
Y1214892D01*
X1126795Y1210157D02*
Y1214845D01*
X1126895Y1210110D02*
Y1214797D01*
X1126995Y1210062D02*
Y1214749D01*
X1127095Y1210014D02*
Y1214702D01*
X1127195Y1209967D02*
Y1214654D01*
X1127295Y1209919D02*
Y1214606D01*
X1127395Y1209871D02*
Y1214559D01*
X1127495Y1209824D02*
Y1214511D01*
X1127595Y1209776D02*
Y1214463D01*
X1127695Y1209728D02*
Y1214415D01*
X1127795Y1209680D02*
Y1214368D01*
X1127895Y1209633D02*
Y1214320D01*
X1127995Y1209585D02*
Y1214272D01*
X1128095Y1209537D02*
Y1214225D01*
X1128195Y1209490D02*
Y1214177D01*
X1128295Y1209442D02*
Y1214129D01*
X1128395Y1209394D02*
Y1214082D01*
X1128495Y1209347D02*
Y1214034D01*
X1128595Y1209299D02*
Y1213986D01*
X1128695Y1209251D02*
Y1213938D01*
X1128795Y1209203D02*
Y1213891D01*
X1128895Y1209156D02*
Y1213843D01*
X1128995Y1209108D02*
Y1213795D01*
X1129095Y1209060D02*
Y1213748D01*
X1129195Y1209013D02*
Y1213700D01*
X1129295Y1208965D02*
Y1213652D01*
X1129395Y1208917D02*
Y1213605D01*
X1129495Y1208870D02*
Y1213557D01*
X1129595Y1208822D02*
Y1213509D01*
X1129695Y1208774D02*
Y1213462D01*
X1129795Y1208726D02*
Y1213414D01*
X1129895Y1208679D02*
Y1213366D01*
X1129995Y1208631D02*
Y1213318D01*
X1130095Y1208583D02*
Y1213271D01*
X1130195Y1208536D02*
Y1213223D01*
X1130295Y1208488D02*
Y1213175D01*
X1130395Y1208440D02*
Y1213128D01*
X1130495Y1208393D02*
Y1213080D01*
X1130595Y1208345D02*
Y1213032D01*
X1130695Y1208297D02*
Y1212985D01*
X1130795Y1208250D02*
Y1212937D01*
X1130895Y1208202D02*
Y1212889D01*
X1130995Y1208154D02*
Y1212841D01*
X1131095Y1208106D02*
Y1212794D01*
X1131195Y1208059D02*
Y1212746D01*
X1131295Y1208011D02*
Y1212698D01*
X1131395Y1207963D02*
Y1212651D01*
X1131495Y1207916D02*
Y1212603D01*
X1131595Y1207868D02*
Y1212555D01*
X1131695Y1207820D02*
Y1212508D01*
X1131795Y1207773D02*
Y1212460D01*
X1131895Y1207725D02*
Y1212412D01*
X1131995Y1207677D02*
Y1212364D01*
X1132095Y1207629D02*
Y1212317D01*
X1132195Y1207582D02*
Y1212269D01*
X1132295Y1207534D02*
Y1212221D01*
X1132395Y1207486D02*
Y1212174D01*
X1132495Y1207439D02*
Y1212126D01*
X1132595Y1207391D02*
Y1212078D01*
X1132695Y1207343D02*
Y1212031D01*
X1132795Y1207296D02*
Y1211983D01*
X1132895Y1207248D02*
Y1211935D01*
X1132995Y1207200D02*
Y1211887D01*
X1133095Y1207152D02*
Y1211840D01*
X1133195Y1207105D02*
Y1211792D01*
X1133295Y1207057D02*
Y1211744D01*
X1133395Y1207009D02*
Y1211697D01*
X1133495Y1206962D02*
Y1211649D01*
X1133595Y1206914D02*
Y1211601D01*
X1133695Y1206866D02*
Y1211554D01*
X1133795Y1206819D02*
Y1211506D01*
X1133895Y1206771D02*
Y1211458D01*
X1133995Y1206723D02*
Y1211411D01*
X1134095Y1206675D02*
Y1211363D01*
X1134195Y1206628D02*
Y1211315D01*
X1134295Y1206580D02*
Y1211267D01*
X1134395Y1206532D02*
Y1211220D01*
X1134495Y1206485D02*
Y1211172D01*
X1134595Y1206437D02*
Y1211124D01*
X1134695Y1206389D02*
Y1211077D01*
X1134795Y1206342D02*
Y1211029D01*
X1134895Y1206294D02*
Y1210981D01*
X1134995Y1206246D02*
Y1210934D01*
X1135095Y1206199D02*
Y1210886D01*
X1135195Y1206151D02*
Y1210838D01*
X1135295Y1206103D02*
Y1210790D01*
X1135395Y1206055D02*
Y1210743D01*
X1135495Y1206008D02*
Y1210695D01*
X1135595Y1205960D02*
Y1210647D01*
X1135695Y1205912D02*
Y1210600D01*
X1135795Y1205865D02*
Y1210552D01*
X1135895Y1205817D02*
Y1210504D01*
X1135995Y1205769D02*
Y1210457D01*
X1136095Y1205722D02*
Y1210409D01*
X1136195Y1205674D02*
Y1210361D01*
X1136295Y1205626D02*
Y1210313D01*
X1136395Y1205578D02*
Y1210266D01*
X1136495Y1205531D02*
Y1210218D01*
X1136595Y1205483D02*
Y1210170D01*
X1136695Y1205435D02*
Y1210123D01*
X1136795Y1205388D02*
Y1210075D01*
X1136895Y1205340D02*
Y1210027D01*
X1136995Y1205292D02*
Y1209980D01*
X1137095Y1205245D02*
Y1209932D01*
X1137195Y1205197D02*
Y1209884D01*
X1137295Y1205149D02*
Y1209836D01*
X1137395Y1205101D02*
Y1209789D01*
X1137495Y1205054D02*
Y1209741D01*
X1137595Y1205006D02*
Y1209693D01*
X1137695Y1204958D02*
Y1209646D01*
X1137795Y1204911D02*
Y1209598D01*
X1137895Y1204863D02*
Y1209550D01*
X1137995Y1204815D02*
Y1209503D01*
X1138095Y1204768D02*
Y1209455D01*
X1138195Y1204720D02*
Y1209407D01*
X1138295Y1204672D02*
Y1209360D01*
X1138395Y1204624D02*
Y1209312D01*
X1138495Y1204577D02*
Y1209264D01*
X1138595Y1204529D02*
Y1209216D01*
X1138695Y1204481D02*
Y1209169D01*
X1138795Y1204434D02*
Y1209121D01*
X1138895Y1204386D02*
Y1209073D01*
X1138995Y1204338D02*
Y1209026D01*
X1139095Y1204291D02*
Y1208978D01*
X1139195Y1204243D02*
Y1208930D01*
X1139295Y1204195D02*
Y1208883D01*
X1139395Y1204148D02*
Y1208835D01*
X1139495Y1204100D02*
Y1208787D01*
X1139595Y1204052D02*
Y1208739D01*
X1139695Y1204004D02*
Y1208692D01*
X1139795Y1203957D02*
Y1208644D01*
X1139895Y1203909D02*
Y1208596D01*
X1139995Y1203861D02*
Y1208549D01*
X1140095Y1203814D02*
Y1208501D01*
X1140195Y1203766D02*
Y1208453D01*
X1140295Y1203718D02*
Y1208406D01*
X1140395Y1203671D02*
Y1208358D01*
X1140495Y1203623D02*
Y1208310D01*
X1140595Y1203575D02*
Y1208262D01*
X1140695Y1203527D02*
Y1208215D01*
X1140795Y1203480D02*
Y1208167D01*
X1140895Y1203432D02*
Y1208119D01*
X1140995Y1203384D02*
Y1208072D01*
X1141095Y1203337D02*
Y1208024D01*
X1141195Y1203289D02*
Y1207976D01*
X1141295Y1203241D02*
Y1207929D01*
X1141395Y1203194D02*
Y1207881D01*
X1141495Y1203146D02*
Y1207833D01*
X1141595Y1203098D02*
Y1207785D01*
X1141695Y1203050D02*
Y1207738D01*
X1141795Y1203003D02*
Y1207690D01*
X1141895Y1202955D02*
Y1207642D01*
X1141995Y1202907D02*
Y1207595D01*
X1142095Y1202860D02*
Y1207547D01*
X1142195Y1202812D02*
Y1207499D01*
X1142295Y1202764D02*
Y1207452D01*
X1142395Y1202717D02*
Y1207404D01*
X1142495Y1202669D02*
Y1207356D01*
X1142595Y1202621D02*
Y1207309D01*
X1142695Y1202574D02*
Y1207261D01*
X1142795Y1202526D02*
Y1207213D01*
X1142895Y1202478D02*
Y1207165D01*
X1142995Y1202430D02*
Y1207118D01*
X1143095Y1202383D02*
Y1207070D01*
X1143195Y1202335D02*
Y1207022D01*
X1143295Y1202287D02*
Y1206975D01*
X1143395Y1202240D02*
Y1206927D01*
X1143495Y1202192D02*
Y1206879D01*
X1143595Y1202144D02*
Y1206832D01*
X1143695Y1202097D02*
Y1206784D01*
X1143795Y1202049D02*
Y1206736D01*
X1143895Y1202001D02*
Y1206688D01*
X1143995Y1201953D02*
Y1206641D01*
X1144095Y1201906D02*
Y1206593D01*
X1144195Y1201858D02*
Y1206545D01*
X1144295Y1201810D02*
Y1206498D01*
X1144395Y1201763D02*
Y1206450D01*
X1144495Y1201715D02*
Y1206402D01*
X1144595Y1201667D02*
Y1206355D01*
X1144695Y1201620D02*
Y1206307D01*
X1144795Y1201572D02*
Y1206259D01*
X1144895Y1201524D02*
Y1206211D01*
X1144995Y1201476D02*
Y1206164D01*
X1145095Y1201429D02*
Y1206116D01*
X1145195Y1201381D02*
Y1206068D01*
X1145295Y1201333D02*
Y1206021D01*
X1145395Y1201286D02*
Y1205973D01*
X1145495Y1201238D02*
Y1205925D01*
X1145595Y1201190D02*
Y1205878D01*
X1145695Y1201143D02*
Y1205830D01*
X1145795Y1201095D02*
Y1205782D01*
X1145895Y1201047D02*
Y1205735D01*
X1145995Y1200999D02*
Y1205687D01*
X1146095Y1200952D02*
Y1205639D01*
X1146195Y1200904D02*
Y1205591D01*
X1146295Y1200856D02*
Y1205544D01*
X1146395Y1200809D02*
Y1205496D01*
X1146495Y1200761D02*
Y1205448D01*
X1146595Y1200713D02*
Y1205401D01*
X1146695Y1200666D02*
Y1205353D01*
X1146795Y1200618D02*
Y1205305D01*
X1146895Y1200570D02*
Y1205258D01*
X1146995Y1200523D02*
Y1205210D01*
X1147095Y1200475D02*
Y1205162D01*
X1147195Y1200427D02*
Y1205114D01*
X1147295Y1200379D02*
Y1205067D01*
X1147395Y1200332D02*
Y1205019D01*
X1147495Y1200284D02*
Y1204971D01*
X1147595Y1200236D02*
Y1204924D01*
X1147695Y1200189D02*
Y1204876D01*
X1147795Y1200141D02*
Y1204828D01*
X1147895Y1200093D02*
Y1204781D01*
X1147995Y1200046D02*
Y1204733D01*
X1148095Y1199998D02*
Y1204685D01*
X1148195Y1199950D02*
Y1204637D01*
X1148295Y1199902D02*
Y1204590D01*
X1148395Y1199855D02*
Y1204542D01*
X1148495Y1199807D02*
Y1204494D01*
X1148595Y1199759D02*
Y1204447D01*
X1148695Y1199712D02*
Y1204399D01*
X1148795Y1199664D02*
Y1204351D01*
X1148895Y1199616D02*
Y1204304D01*
X1148995Y1199569D02*
Y1204256D01*
X1149095Y1199521D02*
Y1204208D01*
X1149195Y1199473D02*
Y1204160D01*
X1149295Y1199425D02*
Y1204113D01*
X1149395Y1199478D02*
Y1204065D01*
X1149495Y1199688D02*
Y1204017D01*
X1149595Y1199898D02*
Y1203970D01*
X1149695Y1200107D02*
Y1203922D01*
X1149795Y1200317D02*
Y1203874D01*
X1149895Y1200527D02*
Y1203827D01*
X1149995Y1200736D02*
Y1203779D01*
X1150095Y1200946D02*
Y1203731D01*
X1150195Y1201156D02*
Y1203684D01*
X1150295Y1201365D02*
Y1203636D01*
X1150395Y1201575D02*
Y1203588D01*
X1150495Y1201785D02*
Y1203540D01*
X1150595Y1201994D02*
Y1203493D01*
X1150695Y1202204D02*
Y1203445D01*
X1150795Y1202414D02*
Y1203397D01*
X1150895Y1202623D02*
Y1203350D01*
X1150995Y1202833D02*
Y1203302D01*
X1151095Y1203043D02*
Y1203254D01*
X1118465Y1203050D02*
X1145026Y1190381D01*
X1146847Y1194199*
X1120286Y1206868*
X1118465Y1203050*
X1144980Y1190402D02*
X1145036D01*
X1144771Y1190502D02*
X1145084D01*
X1144561Y1190602D02*
X1145131D01*
X1144351Y1190702D02*
X1145179D01*
X1144142Y1190802D02*
X1145227D01*
X1143932Y1190902D02*
X1145274D01*
X1143722Y1191002D02*
X1145322D01*
X1143513Y1191102D02*
X1145370D01*
X1143303Y1191202D02*
X1145418D01*
X1143093Y1191302D02*
X1145465D01*
X1142884Y1191402D02*
X1145513D01*
X1142674Y1191502D02*
X1145561D01*
X1142464Y1191602D02*
X1145608D01*
X1142255Y1191702D02*
X1145656D01*
X1142045Y1191802D02*
X1145704D01*
X1141835Y1191902D02*
X1145751D01*
X1141626Y1192002D02*
X1145799D01*
X1141416Y1192102D02*
X1145847D01*
X1141206Y1192202D02*
X1145895D01*
X1140997Y1192302D02*
X1145942D01*
X1140787Y1192402D02*
X1145990D01*
X1140577Y1192502D02*
X1146038D01*
X1140368Y1192602D02*
X1146085D01*
X1140158Y1192702D02*
X1146133D01*
X1139948Y1192802D02*
X1146181D01*
X1139739Y1192902D02*
X1146228D01*
X1139529Y1193002D02*
X1146276D01*
X1139320Y1193102D02*
X1146324D01*
X1139110Y1193202D02*
X1146372D01*
X1138900Y1193302D02*
X1146419D01*
X1138691Y1193402D02*
X1146467D01*
X1138481Y1193502D02*
X1146515D01*
X1138271Y1193602D02*
X1146562D01*
X1138062Y1193702D02*
X1146610D01*
X1137852Y1193802D02*
X1146658D01*
X1137642Y1193902D02*
X1146705D01*
X1137433Y1194002D02*
X1146753D01*
X1137223Y1194102D02*
X1146801D01*
X1137013Y1194202D02*
X1146841D01*
X1136804Y1194302D02*
X1146631D01*
X1136594Y1194402D02*
X1146421D01*
X1136384Y1194502D02*
X1146212D01*
X1136175Y1194602D02*
X1146002D01*
X1135965Y1194702D02*
X1145792D01*
X1135755Y1194802D02*
X1145583D01*
X1135546Y1194902D02*
X1145373D01*
X1135336Y1195002D02*
X1145163D01*
X1135126Y1195102D02*
X1144954D01*
X1134917Y1195202D02*
X1144744D01*
X1134707Y1195302D02*
X1144534D01*
X1134497Y1195402D02*
X1144325D01*
X1134288Y1195502D02*
X1144115D01*
X1134078Y1195602D02*
X1143905D01*
X1133869Y1195702D02*
X1143696D01*
X1133659Y1195802D02*
X1143486D01*
X1133449Y1195902D02*
X1143276D01*
X1133240Y1196002D02*
X1143067D01*
X1133030Y1196102D02*
X1142857D01*
X1132820Y1196202D02*
X1142647D01*
X1132611Y1196302D02*
X1142438D01*
X1132401Y1196402D02*
X1142228D01*
X1132191Y1196502D02*
X1142018D01*
X1131982Y1196602D02*
X1141809D01*
X1131772Y1196702D02*
X1141599D01*
X1131562Y1196802D02*
X1141389D01*
X1131353Y1196902D02*
X1141180D01*
X1131143Y1197002D02*
X1140970D01*
X1130933Y1197102D02*
X1140761D01*
X1130724Y1197202D02*
X1140551D01*
X1130514Y1197302D02*
X1140341D01*
X1130304Y1197402D02*
X1140132D01*
X1130095Y1197502D02*
X1139922D01*
X1129885Y1197602D02*
X1139712D01*
X1129675Y1197702D02*
X1139503D01*
X1129466Y1197802D02*
X1139293D01*
X1129256Y1197902D02*
X1139083D01*
X1129046Y1198002D02*
X1138874D01*
X1128837Y1198102D02*
X1138664D01*
X1128627Y1198202D02*
X1138454D01*
X1128417Y1198302D02*
X1138245D01*
X1128208Y1198402D02*
X1138035D01*
X1127998Y1198502D02*
X1137825D01*
X1127789Y1198602D02*
X1137616D01*
X1127579Y1198702D02*
X1137406D01*
X1127369Y1198802D02*
X1137196D01*
X1127160Y1198902D02*
X1136987D01*
X1126950Y1199002D02*
X1136777D01*
X1126740Y1199102D02*
X1136567D01*
X1126531Y1199202D02*
X1136358D01*
X1126321Y1199302D02*
X1136148D01*
X1126111Y1199402D02*
X1135938D01*
X1125902Y1199502D02*
X1135729D01*
X1125692Y1199602D02*
X1135519D01*
X1125482Y1199702D02*
X1135310D01*
X1125273Y1199802D02*
X1135100D01*
X1125063Y1199902D02*
X1134890D01*
X1124853Y1200002D02*
X1134681D01*
X1124644Y1200102D02*
X1134471D01*
X1124434Y1200202D02*
X1134261D01*
X1124224Y1200302D02*
X1134052D01*
X1124015Y1200402D02*
X1133842D01*
X1123805Y1200502D02*
X1133632D01*
X1123595Y1200602D02*
X1133423D01*
X1123386Y1200702D02*
X1133213D01*
X1123176Y1200802D02*
X1133003D01*
X1122966Y1200902D02*
X1132794D01*
X1122757Y1201002D02*
X1132584D01*
X1122547Y1201102D02*
X1132374D01*
X1122338Y1201202D02*
X1132165D01*
X1122128Y1201302D02*
X1131955D01*
X1121918Y1201402D02*
X1131745D01*
X1121709Y1201502D02*
X1131536D01*
X1121499Y1201602D02*
X1131326D01*
X1121289Y1201702D02*
X1131116D01*
X1121080Y1201802D02*
X1130907D01*
X1120870Y1201902D02*
X1130697D01*
X1120660Y1202002D02*
X1130487D01*
X1120451Y1202102D02*
X1130278D01*
X1120241Y1202202D02*
X1130068D01*
X1120031Y1202302D02*
X1129859D01*
X1119822Y1202402D02*
X1129649D01*
X1119612Y1202502D02*
X1129439D01*
X1119402Y1202602D02*
X1129230D01*
X1119193Y1202702D02*
X1129020D01*
X1118983Y1202802D02*
X1128810D01*
X1118773Y1202902D02*
X1128601D01*
X1118564Y1203002D02*
X1128391D01*
X1118490Y1203102D02*
X1128181D01*
X1118538Y1203202D02*
X1127972D01*
X1118585Y1203302D02*
X1127762D01*
X1118633Y1203402D02*
X1127552D01*
X1118681Y1203502D02*
X1127343D01*
X1118728Y1203602D02*
X1127133D01*
X1118776Y1203702D02*
X1126923D01*
X1118824Y1203802D02*
X1126714D01*
X1118872Y1203902D02*
X1126504D01*
X1118919Y1204002D02*
X1126294D01*
X1118967Y1204102D02*
X1126085D01*
X1119015Y1204202D02*
X1125875D01*
X1119062Y1204302D02*
X1125665D01*
X1119110Y1204402D02*
X1125456D01*
X1119158Y1204502D02*
X1125246D01*
X1119205Y1204602D02*
X1125036D01*
X1119253Y1204702D02*
X1124827D01*
X1119301Y1204802D02*
X1124617D01*
X1119349Y1204902D02*
X1124407D01*
X1119396Y1205002D02*
X1124198D01*
X1119444Y1205102D02*
X1123988D01*
X1119492Y1205202D02*
X1123779D01*
X1119539Y1205302D02*
X1123569D01*
X1119587Y1205402D02*
X1123359D01*
X1119635Y1205502D02*
X1123150D01*
X1119682Y1205602D02*
X1122940D01*
X1119730Y1205702D02*
X1122730D01*
X1119778Y1205802D02*
X1122521D01*
X1119825Y1205902D02*
X1122311D01*
X1119873Y1206002D02*
X1122101D01*
X1119921Y1206102D02*
X1121892D01*
X1119969Y1206202D02*
X1121682D01*
X1120016Y1206302D02*
X1121472D01*
X1120064Y1206402D02*
X1121263D01*
X1120112Y1206502D02*
X1121053D01*
X1120159Y1206602D02*
X1120843D01*
X1120207Y1206702D02*
X1120634D01*
X1120255Y1206802D02*
X1120424D01*
X1118465Y1203050D02*
X1118465D01*
X1118565Y1203002D02*
Y1203259D01*
X1118665Y1202954D02*
Y1203469D01*
X1118765Y1202906D02*
Y1203679D01*
X1118865Y1202859D02*
Y1203888D01*
X1118965Y1202811D02*
Y1204098D01*
X1119065Y1202763D02*
Y1204307D01*
X1119165Y1202716D02*
Y1204517D01*
X1119265Y1202668D02*
Y1204727D01*
X1119365Y1202620D02*
Y1204936D01*
X1119465Y1202573D02*
Y1205146D01*
X1119565Y1202525D02*
Y1205356D01*
X1119665Y1202477D02*
Y1205565D01*
X1119765Y1202429D02*
Y1205775D01*
X1119865Y1202382D02*
Y1205985D01*
X1119965Y1202334D02*
Y1206194D01*
X1120065Y1202286D02*
Y1206404D01*
X1120165Y1202239D02*
Y1206614D01*
X1120265Y1202191D02*
Y1206823D01*
X1120365Y1202143D02*
Y1206831D01*
X1120465Y1202096D02*
Y1206783D01*
X1120565Y1202048D02*
Y1206735D01*
X1120665Y1202000D02*
Y1206688D01*
X1120765Y1201953D02*
Y1206640D01*
X1120865Y1201905D02*
Y1206592D01*
X1120965Y1201857D02*
Y1206544D01*
X1121065Y1201809D02*
Y1206497D01*
X1121165Y1201762D02*
Y1206449D01*
X1121265Y1201714D02*
Y1206401D01*
X1121365Y1201666D02*
Y1206354D01*
X1121465Y1201619D02*
Y1206306D01*
X1121565Y1201571D02*
Y1206258D01*
X1121665Y1201523D02*
Y1206211D01*
X1121765Y1201476D02*
Y1206163D01*
X1121865Y1201428D02*
Y1206115D01*
X1121965Y1201380D02*
Y1206067D01*
X1122065Y1201332D02*
Y1206020D01*
X1122165Y1201285D02*
Y1205972D01*
X1122265Y1201237D02*
Y1205924D01*
X1122365Y1201189D02*
Y1205877D01*
X1122465Y1201142D02*
Y1205829D01*
X1122565Y1201094D02*
Y1205781D01*
X1122665Y1201046D02*
Y1205734D01*
X1122765Y1200999D02*
Y1205686D01*
X1122865Y1200951D02*
Y1205638D01*
X1122965Y1200903D02*
Y1205590D01*
X1123065Y1200855D02*
Y1205543D01*
X1123165Y1200808D02*
Y1205495D01*
X1123265Y1200760D02*
Y1205447D01*
X1123365Y1200712D02*
Y1205400D01*
X1123465Y1200665D02*
Y1205352D01*
X1123565Y1200617D02*
Y1205304D01*
X1123665Y1200569D02*
Y1205257D01*
X1123765Y1200522D02*
Y1205209D01*
X1123865Y1200474D02*
Y1205161D01*
X1123965Y1200426D02*
Y1205114D01*
X1124065Y1200379D02*
Y1205066D01*
X1124165Y1200331D02*
Y1205018D01*
X1124265Y1200283D02*
Y1204970D01*
X1124365Y1200235D02*
Y1204923D01*
X1124465Y1200188D02*
Y1204875D01*
X1124565Y1200140D02*
Y1204827D01*
X1124665Y1200092D02*
Y1204780D01*
X1124765Y1200045D02*
Y1204732D01*
X1124865Y1199997D02*
Y1204684D01*
X1124965Y1199949D02*
Y1204637D01*
X1125065Y1199902D02*
Y1204589D01*
X1125165Y1199854D02*
Y1204541D01*
X1125265Y1199806D02*
Y1204493D01*
X1125365Y1199758D02*
Y1204446D01*
X1125465Y1199711D02*
Y1204398D01*
X1125565Y1199663D02*
Y1204350D01*
X1125665Y1199615D02*
Y1204303D01*
X1125765Y1199568D02*
Y1204255D01*
X1125865Y1199520D02*
Y1204207D01*
X1125965Y1199472D02*
Y1204160D01*
X1126065Y1199425D02*
Y1204112D01*
X1126165Y1199377D02*
Y1204064D01*
X1126265Y1199329D02*
Y1204016D01*
X1126365Y1199281D02*
Y1203969D01*
X1126465Y1199234D02*
Y1203921D01*
X1126565Y1199186D02*
Y1203873D01*
X1126665Y1199138D02*
Y1203826D01*
X1126765Y1199091D02*
Y1203778D01*
X1126865Y1199043D02*
Y1203730D01*
X1126965Y1198995D02*
Y1203683D01*
X1127065Y1198948D02*
Y1203635D01*
X1127165Y1198900D02*
Y1203587D01*
X1127265Y1198852D02*
Y1203540D01*
X1127365Y1198804D02*
Y1203492D01*
X1127465Y1198757D02*
Y1203444D01*
X1127565Y1198709D02*
Y1203396D01*
X1127665Y1198661D02*
Y1203349D01*
X1127765Y1198614D02*
Y1203301D01*
X1127865Y1198566D02*
Y1203253D01*
X1127965Y1198518D02*
Y1203206D01*
X1128065Y1198471D02*
Y1203158D01*
X1128165Y1198423D02*
Y1203110D01*
X1128265Y1198375D02*
Y1203063D01*
X1128365Y1198328D02*
Y1203015D01*
X1128465Y1198280D02*
Y1202967D01*
X1128565Y1198232D02*
Y1202919D01*
X1128665Y1198184D02*
Y1202872D01*
X1128765Y1198137D02*
Y1202824D01*
X1128865Y1198089D02*
Y1202776D01*
X1128965Y1198041D02*
Y1202729D01*
X1129065Y1197994D02*
Y1202681D01*
X1129165Y1197946D02*
Y1202633D01*
X1129265Y1197898D02*
Y1202586D01*
X1129365Y1197851D02*
Y1202538D01*
X1129465Y1197803D02*
Y1202490D01*
X1129565Y1197755D02*
Y1202442D01*
X1129665Y1197707D02*
Y1202395D01*
X1129765Y1197660D02*
Y1202347D01*
X1129865Y1197612D02*
Y1202299D01*
X1129965Y1197564D02*
Y1202252D01*
X1130065Y1197517D02*
Y1202204D01*
X1130165Y1197469D02*
Y1202156D01*
X1130265Y1197421D02*
Y1202109D01*
X1130365Y1197374D02*
Y1202061D01*
X1130465Y1197326D02*
Y1202013D01*
X1130565Y1197278D02*
Y1201965D01*
X1130665Y1197230D02*
Y1201918D01*
X1130765Y1197183D02*
Y1201870D01*
X1130865Y1197135D02*
Y1201822D01*
X1130965Y1197087D02*
Y1201775D01*
X1131065Y1197040D02*
Y1201727D01*
X1131165Y1196992D02*
Y1201679D01*
X1131265Y1196944D02*
Y1201632D01*
X1131365Y1196897D02*
Y1201584D01*
X1131465Y1196849D02*
Y1201536D01*
X1131565Y1196801D02*
Y1201489D01*
X1131665Y1196753D02*
Y1201441D01*
X1131765Y1196706D02*
Y1201393D01*
X1131865Y1196658D02*
Y1201345D01*
X1131965Y1196610D02*
Y1201298D01*
X1132065Y1196563D02*
Y1201250D01*
X1132165Y1196515D02*
Y1201202D01*
X1132265Y1196467D02*
Y1201155D01*
X1132365Y1196420D02*
Y1201107D01*
X1132465Y1196372D02*
Y1201059D01*
X1132565Y1196324D02*
Y1201012D01*
X1132665Y1196277D02*
Y1200964D01*
X1132765Y1196229D02*
Y1200916D01*
X1132865Y1196181D02*
Y1200868D01*
X1132965Y1196133D02*
Y1200821D01*
X1133065Y1196086D02*
Y1200773D01*
X1133165Y1196038D02*
Y1200725D01*
X1133265Y1195990D02*
Y1200678D01*
X1133365Y1195943D02*
Y1200630D01*
X1133465Y1195895D02*
Y1200582D01*
X1133565Y1195847D02*
Y1200535D01*
X1133665Y1195800D02*
Y1200487D01*
X1133765Y1195752D02*
Y1200439D01*
X1133865Y1195704D02*
Y1200391D01*
X1133965Y1195656D02*
Y1200344D01*
X1134065Y1195609D02*
Y1200296D01*
X1134165Y1195561D02*
Y1200248D01*
X1134265Y1195513D02*
Y1200201D01*
X1134365Y1195466D02*
Y1200153D01*
X1134465Y1195418D02*
Y1200105D01*
X1134565Y1195370D02*
Y1200058D01*
X1134665Y1195323D02*
Y1200010D01*
X1134765Y1195275D02*
Y1199962D01*
X1134865Y1195227D02*
Y1199914D01*
X1134965Y1195179D02*
Y1199867D01*
X1135065Y1195132D02*
Y1199819D01*
X1135165Y1195084D02*
Y1199771D01*
X1135265Y1195036D02*
Y1199724D01*
X1135365Y1194989D02*
Y1199676D01*
X1135465Y1194941D02*
Y1199628D01*
X1135565Y1194893D02*
Y1199581D01*
X1135665Y1194846D02*
Y1199533D01*
X1135765Y1194798D02*
Y1199485D01*
X1135865Y1194750D02*
Y1199438D01*
X1135965Y1194702D02*
Y1199390D01*
X1136065Y1194655D02*
Y1199342D01*
X1136165Y1194607D02*
Y1199294D01*
X1136265Y1194559D02*
Y1199247D01*
X1136365Y1194512D02*
Y1199199D01*
X1136465Y1194464D02*
Y1199151D01*
X1136565Y1194416D02*
Y1199104D01*
X1136665Y1194369D02*
Y1199056D01*
X1136765Y1194321D02*
Y1199008D01*
X1136865Y1194273D02*
Y1198961D01*
X1136965Y1194226D02*
Y1198913D01*
X1137065Y1194178D02*
Y1198865D01*
X1137165Y1194130D02*
Y1198817D01*
X1137265Y1194082D02*
Y1198770D01*
X1137365Y1194035D02*
Y1198722D01*
X1137465Y1193987D02*
Y1198674D01*
X1137565Y1193939D02*
Y1198627D01*
X1137665Y1193892D02*
Y1198579D01*
X1137765Y1193844D02*
Y1198531D01*
X1137865Y1193796D02*
Y1198484D01*
X1137965Y1193749D02*
Y1198436D01*
X1138065Y1193701D02*
Y1198388D01*
X1138165Y1193653D02*
Y1198340D01*
X1138265Y1193605D02*
Y1198293D01*
X1138365Y1193558D02*
Y1198245D01*
X1138465Y1193510D02*
Y1198197D01*
X1138565Y1193462D02*
Y1198150D01*
X1138665Y1193415D02*
Y1198102D01*
X1138765Y1193367D02*
Y1198054D01*
X1138865Y1193319D02*
Y1198007D01*
X1138965Y1193272D02*
Y1197959D01*
X1139065Y1193224D02*
Y1197911D01*
X1139165Y1193176D02*
Y1197863D01*
X1139265Y1193128D02*
Y1197816D01*
X1139365Y1193081D02*
Y1197768D01*
X1139465Y1193033D02*
Y1197720D01*
X1139565Y1192985D02*
Y1197673D01*
X1139665Y1192938D02*
Y1197625D01*
X1139765Y1192890D02*
Y1197577D01*
X1139865Y1192842D02*
Y1197530D01*
X1139965Y1192795D02*
Y1197482D01*
X1140065Y1192747D02*
Y1197434D01*
X1140165Y1192699D02*
Y1197387D01*
X1140265Y1192651D02*
Y1197339D01*
X1140365Y1192604D02*
Y1197291D01*
X1140465Y1192556D02*
Y1197243D01*
X1140565Y1192508D02*
Y1197196D01*
X1140665Y1192461D02*
Y1197148D01*
X1140765Y1192413D02*
Y1197100D01*
X1140865Y1192365D02*
Y1197053D01*
X1140965Y1192318D02*
Y1197005D01*
X1141065Y1192270D02*
Y1196957D01*
X1141165Y1192222D02*
Y1196910D01*
X1141265Y1192175D02*
Y1196862D01*
X1141365Y1192127D02*
Y1196814D01*
X1141465Y1192079D02*
Y1196766D01*
X1141565Y1192031D02*
Y1196719D01*
X1141665Y1191984D02*
Y1196671D01*
X1141765Y1191936D02*
Y1196623D01*
X1141865Y1191888D02*
Y1196576D01*
X1141965Y1191841D02*
Y1196528D01*
X1142065Y1191793D02*
Y1196480D01*
X1142165Y1191745D02*
Y1196433D01*
X1142265Y1191698D02*
Y1196385D01*
X1142365Y1191650D02*
Y1196337D01*
X1142465Y1191602D02*
Y1196289D01*
X1142565Y1191554D02*
Y1196242D01*
X1142665Y1191507D02*
Y1196194D01*
X1142765Y1191459D02*
Y1196146D01*
X1142865Y1191411D02*
Y1196099D01*
X1142965Y1191364D02*
Y1196051D01*
X1143065Y1191316D02*
Y1196003D01*
X1143165Y1191268D02*
Y1195956D01*
X1143265Y1191221D02*
Y1195908D01*
X1143365Y1191173D02*
Y1195860D01*
X1143465Y1191125D02*
Y1195812D01*
X1143565Y1191077D02*
Y1195765D01*
X1143665Y1191030D02*
Y1195717D01*
X1143765Y1190982D02*
Y1195669D01*
X1143865Y1190934D02*
Y1195622D01*
X1143965Y1190887D02*
Y1195574D01*
X1144065Y1190839D02*
Y1195526D01*
X1144165Y1190791D02*
Y1195479D01*
X1144265Y1190744D02*
Y1195431D01*
X1144365Y1190696D02*
Y1195383D01*
X1144465Y1190648D02*
Y1195336D01*
X1144565Y1190601D02*
Y1195288D01*
X1144665Y1190553D02*
Y1195240D01*
X1144765Y1190505D02*
Y1195192D01*
X1144865Y1190457D02*
Y1195145D01*
X1144965Y1190410D02*
Y1195097D01*
X1145065Y1190463D02*
Y1195049D01*
X1145165Y1190672D02*
Y1195002D01*
X1145265Y1190882D02*
Y1194954D01*
X1145365Y1191092D02*
Y1194906D01*
X1145465Y1191301D02*
Y1194859D01*
X1145565Y1191511D02*
Y1194811D01*
X1145665Y1191721D02*
Y1194763D01*
X1145765Y1191930D02*
Y1194715D01*
X1145865Y1192140D02*
Y1194668D01*
X1145965Y1192350D02*
Y1194620D01*
X1146065Y1192559D02*
Y1194572D01*
X1146165Y1192769D02*
Y1194525D01*
X1146265Y1192979D02*
Y1194477D01*
X1146365Y1193188D02*
Y1194429D01*
X1146465Y1193398D02*
Y1194382D01*
X1146565Y1193608D02*
Y1194334D01*
X1146665Y1193817D02*
Y1194286D01*
X1146765Y1194027D02*
Y1194238D01*
X1143950Y1184471D02*
X1114658Y1181650D01*
X1115063Y1177439*
X1144355Y1180260*
X1143950Y1184471*
X1115063Y1177439D02*
X1115063D01*
X1115053Y1177539D02*
X1116102D01*
X1115044Y1177639D02*
X1117140D01*
X1115034Y1177739D02*
X1118179D01*
X1115024Y1177839D02*
X1119217D01*
X1115015Y1177939D02*
X1120256D01*
X1115005Y1178039D02*
X1121294D01*
X1114996Y1178139D02*
X1122333D01*
X1114986Y1178239D02*
X1123371D01*
X1114976Y1178339D02*
X1124410D01*
X1114967Y1178439D02*
X1125448D01*
X1114957Y1178539D02*
X1126487D01*
X1114947Y1178639D02*
X1127525D01*
X1114938Y1178739D02*
X1128564D01*
X1114928Y1178839D02*
X1129603D01*
X1114919Y1178939D02*
X1130641D01*
X1114909Y1179039D02*
X1131680D01*
X1114899Y1179139D02*
X1132718D01*
X1114890Y1179239D02*
X1133757D01*
X1114880Y1179339D02*
X1134795D01*
X1114870Y1179439D02*
X1135834D01*
X1114861Y1179539D02*
X1136872D01*
X1114851Y1179639D02*
X1137911D01*
X1114842Y1179739D02*
X1138949D01*
X1114832Y1179839D02*
X1139988D01*
X1114822Y1179939D02*
X1141027D01*
X1114813Y1180039D02*
X1142065D01*
X1114803Y1180139D02*
X1143104D01*
X1114793Y1180239D02*
X1144142D01*
X1114784Y1180339D02*
X1144347D01*
X1114774Y1180439D02*
X1144338D01*
X1114765Y1180539D02*
X1144328D01*
X1114755Y1180639D02*
X1144319D01*
X1114745Y1180739D02*
X1144309D01*
X1114736Y1180839D02*
X1144299D01*
X1114726Y1180939D02*
X1144290D01*
X1114716Y1181039D02*
X1144280D01*
X1114707Y1181139D02*
X1144270D01*
X1114697Y1181239D02*
X1144261D01*
X1114687Y1181339D02*
X1144251D01*
X1114678Y1181439D02*
X1144242D01*
X1114668Y1181539D02*
X1144232D01*
X1114659Y1181639D02*
X1144222D01*
X1115579Y1181739D02*
X1144213D01*
X1116618Y1181839D02*
X1144203D01*
X1117656Y1181939D02*
X1144193D01*
X1118695Y1182039D02*
X1144184D01*
X1119734Y1182139D02*
X1144174D01*
X1120772Y1182239D02*
X1144164D01*
X1121811Y1182339D02*
X1144155D01*
X1122849Y1182439D02*
X1144145D01*
X1123888Y1182539D02*
X1144136D01*
X1124926Y1182639D02*
X1144126D01*
X1125965Y1182739D02*
X1144116D01*
X1127003Y1182839D02*
X1144107D01*
X1128042Y1182939D02*
X1144097D01*
X1129080Y1183039D02*
X1144087D01*
X1130119Y1183139D02*
X1144078D01*
X1131158Y1183239D02*
X1144068D01*
X1132196Y1183339D02*
X1144059D01*
X1133235Y1183439D02*
X1144049D01*
X1134273Y1183539D02*
X1144039D01*
X1135312Y1183639D02*
X1144030D01*
X1136350Y1183739D02*
X1144020D01*
X1137389Y1183839D02*
X1144010D01*
X1138427Y1183939D02*
X1144001D01*
X1139466Y1184039D02*
X1143991D01*
X1140504Y1184139D02*
X1143982D01*
X1141543Y1184239D02*
X1143972D01*
X1142581Y1184339D02*
X1143962D01*
X1143620Y1184439D02*
X1143953D01*
X1114658Y1181650D02*
X1114658D01*
X1114758Y1180612D02*
Y1181660D01*
X1114858Y1179573D02*
Y1181670D01*
X1114958Y1178535D02*
Y1181679D01*
X1115058Y1177496D02*
Y1181689D01*
X1115158Y1177448D02*
Y1181699D01*
X1115258Y1177458D02*
Y1181708D01*
X1115358Y1177468D02*
Y1181718D01*
X1115458Y1177477D02*
Y1181728D01*
X1115558Y1177487D02*
Y1181737D01*
X1115658Y1177496D02*
Y1181747D01*
X1115758Y1177506D02*
Y1181756D01*
X1115858Y1177516D02*
Y1181766D01*
X1115958Y1177525D02*
Y1181776D01*
X1116058Y1177535D02*
Y1181785D01*
X1116158Y1177545D02*
Y1181795D01*
X1116258Y1177554D02*
Y1181805D01*
X1116358Y1177564D02*
Y1181814D01*
X1116458Y1177574D02*
Y1181824D01*
X1116558Y1177583D02*
Y1181833D01*
X1116658Y1177593D02*
Y1181843D01*
X1116758Y1177602D02*
Y1181853D01*
X1116858Y1177612D02*
Y1181862D01*
X1116958Y1177622D02*
Y1181872D01*
X1117058Y1177631D02*
Y1181882D01*
X1117158Y1177641D02*
Y1181891D01*
X1117258Y1177651D02*
Y1181901D01*
X1117358Y1177660D02*
Y1181910D01*
X1117458Y1177670D02*
Y1181920D01*
X1117558Y1177679D02*
Y1181930D01*
X1117658Y1177689D02*
Y1181939D01*
X1117758Y1177699D02*
Y1181949D01*
X1117858Y1177708D02*
Y1181959D01*
X1117958Y1177718D02*
Y1181968D01*
X1118058Y1177728D02*
Y1181978D01*
X1118158Y1177737D02*
Y1181987D01*
X1118258Y1177747D02*
Y1181997D01*
X1118358Y1177756D02*
Y1182007D01*
X1118458Y1177766D02*
Y1182016D01*
X1118558Y1177776D02*
Y1182026D01*
X1118658Y1177785D02*
Y1182036D01*
X1118758Y1177795D02*
Y1182045D01*
X1118858Y1177805D02*
Y1182055D01*
X1118958Y1177814D02*
Y1182065D01*
X1119058Y1177824D02*
Y1182074D01*
X1119158Y1177834D02*
Y1182084D01*
X1119258Y1177843D02*
Y1182093D01*
X1119358Y1177853D02*
Y1182103D01*
X1119458Y1177862D02*
Y1182113D01*
X1119558Y1177872D02*
Y1182122D01*
X1119658Y1177882D02*
Y1182132D01*
X1119758Y1177891D02*
Y1182142D01*
X1119858Y1177901D02*
Y1182151D01*
X1119958Y1177911D02*
Y1182161D01*
X1120058Y1177920D02*
Y1182170D01*
X1120158Y1177930D02*
Y1182180D01*
X1120258Y1177939D02*
Y1182190D01*
X1120358Y1177949D02*
Y1182199D01*
X1120458Y1177959D02*
Y1182209D01*
X1120558Y1177968D02*
Y1182219D01*
X1120658Y1177978D02*
Y1182228D01*
X1120758Y1177988D02*
Y1182238D01*
X1120858Y1177997D02*
Y1182247D01*
X1120958Y1178007D02*
Y1182257D01*
X1121058Y1178016D02*
Y1182267D01*
X1121158Y1178026D02*
Y1182276D01*
X1121258Y1178036D02*
Y1182286D01*
X1121358Y1178045D02*
Y1182296D01*
X1121458Y1178055D02*
Y1182305D01*
X1121558Y1178065D02*
Y1182315D01*
X1121658Y1178074D02*
Y1182325D01*
X1121758Y1178084D02*
Y1182334D01*
X1121858Y1178093D02*
Y1182344D01*
X1121958Y1178103D02*
Y1182353D01*
X1122058Y1178113D02*
Y1182363D01*
X1122158Y1178122D02*
Y1182373D01*
X1122258Y1178132D02*
Y1182382D01*
X1122358Y1178142D02*
Y1182392D01*
X1122458Y1178151D02*
Y1182402D01*
X1122558Y1178161D02*
Y1182411D01*
X1122658Y1178171D02*
Y1182421D01*
X1122758Y1178180D02*
Y1182430D01*
X1122858Y1178190D02*
Y1182440D01*
X1122958Y1178199D02*
Y1182450D01*
X1123058Y1178209D02*
Y1182459D01*
X1123158Y1178219D02*
Y1182469D01*
X1123258Y1178228D02*
Y1182479D01*
X1123358Y1178238D02*
Y1182488D01*
X1123458Y1178248D02*
Y1182498D01*
X1123558Y1178257D02*
Y1182507D01*
X1123658Y1178267D02*
Y1182517D01*
X1123758Y1178276D02*
Y1182527D01*
X1123858Y1178286D02*
Y1182536D01*
X1123958Y1178296D02*
Y1182546D01*
X1124058Y1178305D02*
Y1182556D01*
X1124158Y1178315D02*
Y1182565D01*
X1124258Y1178325D02*
Y1182575D01*
X1124358Y1178334D02*
Y1182584D01*
X1124458Y1178344D02*
Y1182594D01*
X1124558Y1178353D02*
Y1182604D01*
X1124658Y1178363D02*
Y1182613D01*
X1124758Y1178373D02*
Y1182623D01*
X1124858Y1178382D02*
Y1182633D01*
X1124958Y1178392D02*
Y1182642D01*
X1125058Y1178402D02*
Y1182652D01*
X1125158Y1178411D02*
Y1182662D01*
X1125258Y1178421D02*
Y1182671D01*
X1125358Y1178430D02*
Y1182681D01*
X1125458Y1178440D02*
Y1182690D01*
X1125558Y1178450D02*
Y1182700D01*
X1125658Y1178459D02*
Y1182710D01*
X1125758Y1178469D02*
Y1182719D01*
X1125858Y1178479D02*
Y1182729D01*
X1125958Y1178488D02*
Y1182739D01*
X1126058Y1178498D02*
Y1182748D01*
X1126158Y1178508D02*
Y1182758D01*
X1126258Y1178517D02*
Y1182767D01*
X1126358Y1178527D02*
Y1182777D01*
X1126458Y1178536D02*
Y1182787D01*
X1126558Y1178546D02*
Y1182796D01*
X1126658Y1178556D02*
Y1182806D01*
X1126758Y1178565D02*
Y1182816D01*
X1126858Y1178575D02*
Y1182825D01*
X1126958Y1178585D02*
Y1182835D01*
X1127058Y1178594D02*
Y1182844D01*
X1127158Y1178604D02*
Y1182854D01*
X1127258Y1178613D02*
Y1182864D01*
X1127358Y1178623D02*
Y1182873D01*
X1127458Y1178633D02*
Y1182883D01*
X1127558Y1178642D02*
Y1182893D01*
X1127658Y1178652D02*
Y1182902D01*
X1127758Y1178662D02*
Y1182912D01*
X1127858Y1178671D02*
Y1182921D01*
X1127958Y1178681D02*
Y1182931D01*
X1128058Y1178690D02*
Y1182941D01*
X1128158Y1178700D02*
Y1182950D01*
X1128258Y1178710D02*
Y1182960D01*
X1128358Y1178719D02*
Y1182970D01*
X1128458Y1178729D02*
Y1182979D01*
X1128558Y1178739D02*
Y1182989D01*
X1128658Y1178748D02*
Y1182999D01*
X1128758Y1178758D02*
Y1183008D01*
X1128858Y1178768D02*
Y1183018D01*
X1128958Y1178777D02*
Y1183027D01*
X1129058Y1178787D02*
Y1183037D01*
X1129158Y1178796D02*
Y1183047D01*
X1129258Y1178806D02*
Y1183056D01*
X1129358Y1178816D02*
Y1183066D01*
X1129458Y1178825D02*
Y1183076D01*
X1129558Y1178835D02*
Y1183085D01*
X1129658Y1178845D02*
Y1183095D01*
X1129758Y1178854D02*
Y1183104D01*
X1129858Y1178864D02*
Y1183114D01*
X1129958Y1178873D02*
Y1183124D01*
X1130058Y1178883D02*
Y1183133D01*
X1130158Y1178893D02*
Y1183143D01*
X1130258Y1178902D02*
Y1183153D01*
X1130358Y1178912D02*
Y1183162D01*
X1130458Y1178922D02*
Y1183172D01*
X1130558Y1178931D02*
Y1183181D01*
X1130658Y1178941D02*
Y1183191D01*
X1130758Y1178950D02*
Y1183201D01*
X1130858Y1178960D02*
Y1183210D01*
X1130958Y1178970D02*
Y1183220D01*
X1131058Y1178979D02*
Y1183230D01*
X1131158Y1178989D02*
Y1183239D01*
X1131258Y1178999D02*
Y1183249D01*
X1131358Y1179008D02*
Y1183259D01*
X1131458Y1179018D02*
Y1183268D01*
X1131558Y1179027D02*
Y1183278D01*
X1131658Y1179037D02*
Y1183287D01*
X1131758Y1179047D02*
Y1183297D01*
X1131858Y1179056D02*
Y1183307D01*
X1131958Y1179066D02*
Y1183316D01*
X1132058Y1179076D02*
Y1183326D01*
X1132158Y1179085D02*
Y1183336D01*
X1132258Y1179095D02*
Y1183345D01*
X1132358Y1179105D02*
Y1183355D01*
X1132458Y1179114D02*
Y1183364D01*
X1132558Y1179124D02*
Y1183374D01*
X1132658Y1179133D02*
Y1183384D01*
X1132758Y1179143D02*
Y1183393D01*
X1132858Y1179153D02*
Y1183403D01*
X1132958Y1179162D02*
Y1183413D01*
X1133058Y1179172D02*
Y1183422D01*
X1133158Y1179182D02*
Y1183432D01*
X1133258Y1179191D02*
Y1183441D01*
X1133358Y1179201D02*
Y1183451D01*
X1133458Y1179210D02*
Y1183461D01*
X1133558Y1179220D02*
Y1183470D01*
X1133658Y1179230D02*
Y1183480D01*
X1133758Y1179239D02*
Y1183490D01*
X1133858Y1179249D02*
Y1183499D01*
X1133958Y1179259D02*
Y1183509D01*
X1134058Y1179268D02*
Y1183518D01*
X1134158Y1179278D02*
Y1183528D01*
X1134258Y1179287D02*
Y1183538D01*
X1134358Y1179297D02*
Y1183547D01*
X1134458Y1179307D02*
Y1183557D01*
X1134558Y1179316D02*
Y1183567D01*
X1134658Y1179326D02*
Y1183576D01*
X1134758Y1179336D02*
Y1183586D01*
X1134858Y1179345D02*
Y1183596D01*
X1134958Y1179355D02*
Y1183605D01*
X1135058Y1179365D02*
Y1183615D01*
X1135158Y1179374D02*
Y1183624D01*
X1135258Y1179384D02*
Y1183634D01*
X1135358Y1179393D02*
Y1183644D01*
X1135458Y1179403D02*
Y1183653D01*
X1135558Y1179413D02*
Y1183663D01*
X1135658Y1179422D02*
Y1183673D01*
X1135758Y1179432D02*
Y1183682D01*
X1135858Y1179442D02*
Y1183692D01*
X1135958Y1179451D02*
Y1183701D01*
X1136058Y1179461D02*
Y1183711D01*
X1136158Y1179470D02*
Y1183721D01*
X1136258Y1179480D02*
Y1183730D01*
X1136358Y1179490D02*
Y1183740D01*
X1136458Y1179499D02*
Y1183750D01*
X1136558Y1179509D02*
Y1183759D01*
X1136658Y1179519D02*
Y1183769D01*
X1136758Y1179528D02*
Y1183778D01*
X1136858Y1179538D02*
Y1183788D01*
X1136958Y1179547D02*
Y1183798D01*
X1137058Y1179557D02*
Y1183807D01*
X1137158Y1179567D02*
Y1183817D01*
X1137258Y1179576D02*
Y1183827D01*
X1137358Y1179586D02*
Y1183836D01*
X1137458Y1179596D02*
Y1183846D01*
X1137558Y1179605D02*
Y1183856D01*
X1137658Y1179615D02*
Y1183865D01*
X1137758Y1179624D02*
Y1183875D01*
X1137858Y1179634D02*
Y1183884D01*
X1137958Y1179644D02*
Y1183894D01*
X1138058Y1179653D02*
Y1183904D01*
X1138158Y1179663D02*
Y1183913D01*
X1138258Y1179673D02*
Y1183923D01*
X1138358Y1179682D02*
Y1183933D01*
X1138458Y1179692D02*
Y1183942D01*
X1138558Y1179702D02*
Y1183952D01*
X1138658Y1179711D02*
Y1183961D01*
X1138758Y1179721D02*
Y1183971D01*
X1138858Y1179730D02*
Y1183981D01*
X1138958Y1179740D02*
Y1183990D01*
X1139058Y1179750D02*
Y1184000D01*
X1139158Y1179759D02*
Y1184010D01*
X1139258Y1179769D02*
Y1184019D01*
X1139358Y1179779D02*
Y1184029D01*
X1139458Y1179788D02*
Y1184038D01*
X1139558Y1179798D02*
Y1184048D01*
X1139658Y1179807D02*
Y1184058D01*
X1139758Y1179817D02*
Y1184067D01*
X1139858Y1179827D02*
Y1184077D01*
X1139958Y1179836D02*
Y1184087D01*
X1140058Y1179846D02*
Y1184096D01*
X1140158Y1179856D02*
Y1184106D01*
X1140258Y1179865D02*
Y1184115D01*
X1140358Y1179875D02*
Y1184125D01*
X1140458Y1179884D02*
Y1184135D01*
X1140558Y1179894D02*
Y1184144D01*
X1140658Y1179904D02*
Y1184154D01*
X1140758Y1179913D02*
Y1184164D01*
X1140858Y1179923D02*
Y1184173D01*
X1140958Y1179933D02*
Y1184183D01*
X1141058Y1179942D02*
Y1184193D01*
X1141158Y1179952D02*
Y1184202D01*
X1141258Y1179961D02*
Y1184212D01*
X1141358Y1179971D02*
Y1184221D01*
X1141458Y1179981D02*
Y1184231D01*
X1141558Y1179990D02*
Y1184241D01*
X1141658Y1180000D02*
Y1184250D01*
X1141758Y1180010D02*
Y1184260D01*
X1141858Y1180019D02*
Y1184270D01*
X1141958Y1180029D02*
Y1184279D01*
X1142058Y1180039D02*
Y1184289D01*
X1142158Y1180048D02*
Y1184298D01*
X1142258Y1180058D02*
Y1184308D01*
X1142358Y1180067D02*
Y1184318D01*
X1142458Y1180077D02*
Y1184327D01*
X1142558Y1180087D02*
Y1184337D01*
X1142658Y1180096D02*
Y1184347D01*
X1142758Y1180106D02*
Y1184356D01*
X1142858Y1180116D02*
Y1184366D01*
X1142958Y1180125D02*
Y1184375D01*
X1143058Y1180135D02*
Y1184385D01*
X1143158Y1180144D02*
Y1184395D01*
X1143258Y1180154D02*
Y1184404D01*
X1143358Y1180164D02*
Y1184414D01*
X1143458Y1180173D02*
Y1184424D01*
X1143558Y1180183D02*
Y1184433D01*
X1143658Y1180193D02*
Y1184443D01*
X1143758Y1180202D02*
Y1184452D01*
X1143858Y1180212D02*
Y1184462D01*
X1143958Y1180221D02*
Y1184389D01*
X1144058Y1180231D02*
Y1183350D01*
X1144158Y1180241D02*
Y1182312D01*
X1144258Y1180250D02*
Y1181273D01*
X1145013Y1174581D02*
X1115721Y1171761D01*
X1116126Y1167549*
X1145418Y1170370*
X1145013Y1174581*
X1116126Y1167549D02*
X1116126D01*
X1116116Y1167649D02*
X1117165D01*
X1116107Y1167749D02*
X1118203D01*
X1116097Y1167849D02*
X1119242D01*
X1116087Y1167949D02*
X1120280D01*
X1116078Y1168049D02*
X1121319D01*
X1116068Y1168149D02*
X1122357D01*
X1116059Y1168249D02*
X1123396D01*
X1116049Y1168349D02*
X1124434D01*
X1116039Y1168449D02*
X1125473D01*
X1116030Y1168549D02*
X1126511D01*
X1116020Y1168649D02*
X1127550D01*
X1116010Y1168749D02*
X1128588D01*
X1116001Y1168849D02*
X1129627D01*
X1115991Y1168949D02*
X1130666D01*
X1115982Y1169049D02*
X1131704D01*
X1115972Y1169149D02*
X1132743D01*
X1115962Y1169249D02*
X1133781D01*
X1115953Y1169349D02*
X1134820D01*
X1115943Y1169449D02*
X1135858D01*
X1115933Y1169549D02*
X1136897D01*
X1115924Y1169649D02*
X1137935D01*
X1115914Y1169749D02*
X1138974D01*
X1115905Y1169849D02*
X1140012D01*
X1115895Y1169949D02*
X1141051D01*
X1115885Y1170049D02*
X1142089D01*
X1115876Y1170149D02*
X1143128D01*
X1115866Y1170249D02*
X1144167D01*
X1115856Y1170349D02*
X1145205D01*
X1115847Y1170449D02*
X1145410D01*
X1115837Y1170549D02*
X1145401D01*
X1115828Y1170649D02*
X1145391D01*
X1115818Y1170749D02*
X1145382D01*
X1115808Y1170849D02*
X1145372D01*
X1115799Y1170949D02*
X1145362D01*
X1115789Y1171049D02*
X1145353D01*
X1115779Y1171149D02*
X1145343D01*
X1115770Y1171249D02*
X1145333D01*
X1115760Y1171349D02*
X1145324D01*
X1115750Y1171449D02*
X1145314D01*
X1115741Y1171549D02*
X1145305D01*
X1115731Y1171649D02*
X1145295D01*
X1115722Y1171749D02*
X1145285D01*
X1116642Y1171849D02*
X1145276D01*
X1117681Y1171949D02*
X1145266D01*
X1118719Y1172049D02*
X1145256D01*
X1119758Y1172149D02*
X1145247D01*
X1120797Y1172249D02*
X1145237D01*
X1121835Y1172349D02*
X1145227D01*
X1122874Y1172449D02*
X1145218D01*
X1123912Y1172549D02*
X1145208D01*
X1124951Y1172649D02*
X1145199D01*
X1125989Y1172749D02*
X1145189D01*
X1127028Y1172849D02*
X1145179D01*
X1128066Y1172949D02*
X1145170D01*
X1129105Y1173049D02*
X1145160D01*
X1130143Y1173149D02*
X1145150D01*
X1131182Y1173249D02*
X1145141D01*
X1132221Y1173349D02*
X1145131D01*
X1133259Y1173449D02*
X1145122D01*
X1134298Y1173549D02*
X1145112D01*
X1135336Y1173649D02*
X1145102D01*
X1136375Y1173749D02*
X1145093D01*
X1137413Y1173849D02*
X1145083D01*
X1138452Y1173949D02*
X1145073D01*
X1139490Y1174049D02*
X1145064D01*
X1140529Y1174149D02*
X1145054D01*
X1141567Y1174249D02*
X1145045D01*
X1142606Y1174349D02*
X1145035D01*
X1143644Y1174449D02*
X1145025D01*
X1144683Y1174549D02*
X1145016D01*
X1115721Y1171761D02*
X1115721D01*
X1115821Y1170722D02*
Y1171770D01*
X1115921Y1169684D02*
Y1171780D01*
X1116021Y1168645D02*
Y1171790D01*
X1116121Y1167607D02*
Y1171799D01*
X1116221Y1167559D02*
Y1171809D01*
X1116321Y1167568D02*
Y1171818D01*
X1116421Y1167578D02*
Y1171828D01*
X1116521Y1167587D02*
Y1171838D01*
X1116621Y1167597D02*
Y1171847D01*
X1116721Y1167607D02*
Y1171857D01*
X1116821Y1167616D02*
Y1171867D01*
X1116921Y1167626D02*
Y1171876D01*
X1117021Y1167636D02*
Y1171886D01*
X1117121Y1167645D02*
Y1171896D01*
X1117221Y1167655D02*
Y1171905D01*
X1117321Y1167665D02*
Y1171915D01*
X1117421Y1167674D02*
Y1171924D01*
X1117521Y1167684D02*
Y1171934D01*
X1117621Y1167693D02*
Y1171944D01*
X1117721Y1167703D02*
Y1171953D01*
X1117821Y1167713D02*
Y1171963D01*
X1117921Y1167722D02*
Y1171973D01*
X1118021Y1167732D02*
Y1171982D01*
X1118121Y1167742D02*
Y1171992D01*
X1118221Y1167751D02*
Y1172001D01*
X1118321Y1167761D02*
Y1172011D01*
X1118421Y1167770D02*
Y1172021D01*
X1118521Y1167780D02*
Y1172030D01*
X1118621Y1167790D02*
Y1172040D01*
X1118721Y1167799D02*
Y1172050D01*
X1118821Y1167809D02*
Y1172059D01*
X1118921Y1167819D02*
Y1172069D01*
X1119021Y1167828D02*
Y1172078D01*
X1119121Y1167838D02*
Y1172088D01*
X1119221Y1167847D02*
Y1172098D01*
X1119321Y1167857D02*
Y1172107D01*
X1119421Y1167867D02*
Y1172117D01*
X1119521Y1167876D02*
Y1172127D01*
X1119621Y1167886D02*
Y1172136D01*
X1119721Y1167896D02*
Y1172146D01*
X1119821Y1167905D02*
Y1172156D01*
X1119921Y1167915D02*
Y1172165D01*
X1120021Y1167924D02*
Y1172175D01*
X1120121Y1167934D02*
Y1172184D01*
X1120221Y1167944D02*
Y1172194D01*
X1120321Y1167953D02*
Y1172204D01*
X1120421Y1167963D02*
Y1172213D01*
X1120521Y1167973D02*
Y1172223D01*
X1120621Y1167982D02*
Y1172233D01*
X1120721Y1167992D02*
Y1172242D01*
X1120821Y1168002D02*
Y1172252D01*
X1120921Y1168011D02*
Y1172261D01*
X1121021Y1168021D02*
Y1172271D01*
X1121121Y1168030D02*
Y1172281D01*
X1121221Y1168040D02*
Y1172290D01*
X1121321Y1168050D02*
Y1172300D01*
X1121421Y1168059D02*
Y1172310D01*
X1121521Y1168069D02*
Y1172319D01*
X1121621Y1168079D02*
Y1172329D01*
X1121721Y1168088D02*
Y1172338D01*
X1121821Y1168098D02*
Y1172348D01*
X1121921Y1168107D02*
Y1172358D01*
X1122021Y1168117D02*
Y1172367D01*
X1122121Y1168127D02*
Y1172377D01*
X1122221Y1168136D02*
Y1172387D01*
X1122321Y1168146D02*
Y1172396D01*
X1122421Y1168156D02*
Y1172406D01*
X1122521Y1168165D02*
Y1172415D01*
X1122621Y1168175D02*
Y1172425D01*
X1122721Y1168184D02*
Y1172435D01*
X1122821Y1168194D02*
Y1172444D01*
X1122921Y1168204D02*
Y1172454D01*
X1123021Y1168213D02*
Y1172464D01*
X1123121Y1168223D02*
Y1172473D01*
X1123221Y1168233D02*
Y1172483D01*
X1123321Y1168242D02*
Y1172493D01*
X1123421Y1168252D02*
Y1172502D01*
X1123521Y1168261D02*
Y1172512D01*
X1123621Y1168271D02*
Y1172521D01*
X1123721Y1168281D02*
Y1172531D01*
X1123821Y1168290D02*
Y1172541D01*
X1123921Y1168300D02*
Y1172550D01*
X1124021Y1168310D02*
Y1172560D01*
X1124121Y1168319D02*
Y1172570D01*
X1124221Y1168329D02*
Y1172579D01*
X1124321Y1168339D02*
Y1172589D01*
X1124421Y1168348D02*
Y1172598D01*
X1124521Y1168358D02*
Y1172608D01*
X1124621Y1168367D02*
Y1172618D01*
X1124721Y1168377D02*
Y1172627D01*
X1124821Y1168387D02*
Y1172637D01*
X1124921Y1168396D02*
Y1172647D01*
X1125021Y1168406D02*
Y1172656D01*
X1125121Y1168416D02*
Y1172666D01*
X1125221Y1168425D02*
Y1172675D01*
X1125321Y1168435D02*
Y1172685D01*
X1125421Y1168444D02*
Y1172695D01*
X1125521Y1168454D02*
Y1172704D01*
X1125621Y1168464D02*
Y1172714D01*
X1125721Y1168473D02*
Y1172724D01*
X1125821Y1168483D02*
Y1172733D01*
X1125921Y1168493D02*
Y1172743D01*
X1126021Y1168502D02*
Y1172752D01*
X1126121Y1168512D02*
Y1172762D01*
X1126221Y1168521D02*
Y1172772D01*
X1126321Y1168531D02*
Y1172781D01*
X1126421Y1168541D02*
Y1172791D01*
X1126521Y1168550D02*
Y1172801D01*
X1126621Y1168560D02*
Y1172810D01*
X1126721Y1168570D02*
Y1172820D01*
X1126821Y1168579D02*
Y1172830D01*
X1126921Y1168589D02*
Y1172839D01*
X1127021Y1168599D02*
Y1172849D01*
X1127121Y1168608D02*
Y1172858D01*
X1127221Y1168618D02*
Y1172868D01*
X1127321Y1168627D02*
Y1172878D01*
X1127421Y1168637D02*
Y1172887D01*
X1127521Y1168647D02*
Y1172897D01*
X1127621Y1168656D02*
Y1172907D01*
X1127721Y1168666D02*
Y1172916D01*
X1127821Y1168676D02*
Y1172926D01*
X1127921Y1168685D02*
Y1172935D01*
X1128021Y1168695D02*
Y1172945D01*
X1128121Y1168704D02*
Y1172955D01*
X1128221Y1168714D02*
Y1172964D01*
X1128321Y1168724D02*
Y1172974D01*
X1128421Y1168733D02*
Y1172984D01*
X1128521Y1168743D02*
Y1172993D01*
X1128621Y1168753D02*
Y1173003D01*
X1128721Y1168762D02*
Y1173012D01*
X1128821Y1168772D02*
Y1173022D01*
X1128921Y1168781D02*
Y1173032D01*
X1129021Y1168791D02*
Y1173041D01*
X1129121Y1168801D02*
Y1173051D01*
X1129221Y1168810D02*
Y1173061D01*
X1129321Y1168820D02*
Y1173070D01*
X1129421Y1168830D02*
Y1173080D01*
X1129521Y1168839D02*
Y1173090D01*
X1129621Y1168849D02*
Y1173099D01*
X1129721Y1168858D02*
Y1173109D01*
X1129821Y1168868D02*
Y1173118D01*
X1129921Y1168878D02*
Y1173128D01*
X1130021Y1168887D02*
Y1173138D01*
X1130121Y1168897D02*
Y1173147D01*
X1130221Y1168907D02*
Y1173157D01*
X1130321Y1168916D02*
Y1173167D01*
X1130421Y1168926D02*
Y1173176D01*
X1130521Y1168936D02*
Y1173186D01*
X1130621Y1168945D02*
Y1173195D01*
X1130721Y1168955D02*
Y1173205D01*
X1130821Y1168964D02*
Y1173215D01*
X1130921Y1168974D02*
Y1173224D01*
X1131021Y1168984D02*
Y1173234D01*
X1131121Y1168993D02*
Y1173244D01*
X1131221Y1169003D02*
Y1173253D01*
X1131321Y1169013D02*
Y1173263D01*
X1131421Y1169022D02*
Y1173272D01*
X1131521Y1169032D02*
Y1173282D01*
X1131621Y1169041D02*
Y1173292D01*
X1131721Y1169051D02*
Y1173301D01*
X1131821Y1169061D02*
Y1173311D01*
X1131921Y1169070D02*
Y1173321D01*
X1132021Y1169080D02*
Y1173330D01*
X1132121Y1169090D02*
Y1173340D01*
X1132221Y1169099D02*
Y1173349D01*
X1132321Y1169109D02*
Y1173359D01*
X1132421Y1169118D02*
Y1173369D01*
X1132521Y1169128D02*
Y1173378D01*
X1132621Y1169138D02*
Y1173388D01*
X1132721Y1169147D02*
Y1173398D01*
X1132821Y1169157D02*
Y1173407D01*
X1132921Y1169167D02*
Y1173417D01*
X1133021Y1169176D02*
Y1173427D01*
X1133121Y1169186D02*
Y1173436D01*
X1133221Y1169196D02*
Y1173446D01*
X1133321Y1169205D02*
Y1173455D01*
X1133421Y1169215D02*
Y1173465D01*
X1133521Y1169224D02*
Y1173475D01*
X1133621Y1169234D02*
Y1173484D01*
X1133721Y1169244D02*
Y1173494D01*
X1133821Y1169253D02*
Y1173504D01*
X1133921Y1169263D02*
Y1173513D01*
X1134021Y1169273D02*
Y1173523D01*
X1134121Y1169282D02*
Y1173532D01*
X1134221Y1169292D02*
Y1173542D01*
X1134321Y1169301D02*
Y1173552D01*
X1134421Y1169311D02*
Y1173561D01*
X1134521Y1169321D02*
Y1173571D01*
X1134621Y1169330D02*
Y1173581D01*
X1134721Y1169340D02*
Y1173590D01*
X1134821Y1169350D02*
Y1173600D01*
X1134921Y1169359D02*
Y1173609D01*
X1135021Y1169369D02*
Y1173619D01*
X1135121Y1169378D02*
Y1173629D01*
X1135221Y1169388D02*
Y1173638D01*
X1135321Y1169398D02*
Y1173648D01*
X1135421Y1169407D02*
Y1173658D01*
X1135521Y1169417D02*
Y1173667D01*
X1135621Y1169427D02*
Y1173677D01*
X1135721Y1169436D02*
Y1173686D01*
X1135821Y1169446D02*
Y1173696D01*
X1135921Y1169455D02*
Y1173706D01*
X1136021Y1169465D02*
Y1173715D01*
X1136121Y1169475D02*
Y1173725D01*
X1136221Y1169484D02*
Y1173735D01*
X1136321Y1169494D02*
Y1173744D01*
X1136421Y1169504D02*
Y1173754D01*
X1136521Y1169513D02*
Y1173764D01*
X1136621Y1169523D02*
Y1173773D01*
X1136721Y1169533D02*
Y1173783D01*
X1136821Y1169542D02*
Y1173792D01*
X1136921Y1169552D02*
Y1173802D01*
X1137021Y1169561D02*
Y1173812D01*
X1137121Y1169571D02*
Y1173821D01*
X1137221Y1169581D02*
Y1173831D01*
X1137321Y1169590D02*
Y1173841D01*
X1137421Y1169600D02*
Y1173850D01*
X1137521Y1169610D02*
Y1173860D01*
X1137621Y1169619D02*
Y1173869D01*
X1137721Y1169629D02*
Y1173879D01*
X1137821Y1169638D02*
Y1173889D01*
X1137921Y1169648D02*
Y1173898D01*
X1138021Y1169658D02*
Y1173908D01*
X1138121Y1169667D02*
Y1173918D01*
X1138221Y1169677D02*
Y1173927D01*
X1138321Y1169687D02*
Y1173937D01*
X1138421Y1169696D02*
Y1173946D01*
X1138521Y1169706D02*
Y1173956D01*
X1138621Y1169715D02*
Y1173966D01*
X1138721Y1169725D02*
Y1173975D01*
X1138821Y1169735D02*
Y1173985D01*
X1138921Y1169744D02*
Y1173995D01*
X1139021Y1169754D02*
Y1174004D01*
X1139121Y1169764D02*
Y1174014D01*
X1139221Y1169773D02*
Y1174024D01*
X1139321Y1169783D02*
Y1174033D01*
X1139421Y1169792D02*
Y1174043D01*
X1139521Y1169802D02*
Y1174052D01*
X1139621Y1169812D02*
Y1174062D01*
X1139721Y1169821D02*
Y1174072D01*
X1139821Y1169831D02*
Y1174081D01*
X1139921Y1169841D02*
Y1174091D01*
X1140021Y1169850D02*
Y1174101D01*
X1140121Y1169860D02*
Y1174110D01*
X1140221Y1169870D02*
Y1174120D01*
X1140321Y1169879D02*
Y1174129D01*
X1140421Y1169889D02*
Y1174139D01*
X1140521Y1169898D02*
Y1174149D01*
X1140621Y1169908D02*
Y1174158D01*
X1140721Y1169918D02*
Y1174168D01*
X1140821Y1169927D02*
Y1174178D01*
X1140921Y1169937D02*
Y1174187D01*
X1141021Y1169947D02*
Y1174197D01*
X1141121Y1169956D02*
Y1174206D01*
X1141221Y1169966D02*
Y1174216D01*
X1141321Y1169975D02*
Y1174226D01*
X1141421Y1169985D02*
Y1174235D01*
X1141521Y1169995D02*
Y1174245D01*
X1141621Y1170004D02*
Y1174255D01*
X1141721Y1170014D02*
Y1174264D01*
X1141821Y1170024D02*
Y1174274D01*
X1141921Y1170033D02*
Y1174283D01*
X1142021Y1170043D02*
Y1174293D01*
X1142121Y1170052D02*
Y1174303D01*
X1142221Y1170062D02*
Y1174312D01*
X1142321Y1170072D02*
Y1174322D01*
X1142421Y1170081D02*
Y1174332D01*
X1142521Y1170091D02*
Y1174341D01*
X1142621Y1170101D02*
Y1174351D01*
X1142721Y1170110D02*
Y1174361D01*
X1142821Y1170120D02*
Y1174370D01*
X1142921Y1170130D02*
Y1174380D01*
X1143021Y1170139D02*
Y1174389D01*
X1143121Y1170149D02*
Y1174399D01*
X1143221Y1170158D02*
Y1174409D01*
X1143321Y1170168D02*
Y1174418D01*
X1143421Y1170178D02*
Y1174428D01*
X1143521Y1170187D02*
Y1174438D01*
X1143621Y1170197D02*
Y1174447D01*
X1143721Y1170207D02*
Y1174457D01*
X1143821Y1170216D02*
Y1174466D01*
X1143921Y1170226D02*
Y1174476D01*
X1144021Y1170235D02*
Y1174486D01*
X1144121Y1170245D02*
Y1174495D01*
X1144221Y1170255D02*
Y1174505D01*
X1144321Y1170264D02*
Y1174515D01*
X1144421Y1170274D02*
Y1174524D01*
X1144521Y1170284D02*
Y1174534D01*
X1144621Y1170293D02*
Y1174543D01*
X1144721Y1170303D02*
Y1174553D01*
X1144821Y1170312D02*
Y1174563D01*
X1144921Y1170322D02*
Y1174572D01*
X1145021Y1170332D02*
Y1174499D01*
X1145121Y1170341D02*
Y1173460D01*
X1145221Y1170351D02*
Y1172422D01*
X1145321Y1170361D02*
Y1171383D01*
X1051433Y1336707D02*
G75*
G03X1050724Y1335195I1260J-1512D01*
G01Y1319427*
X1055449*
Y1305961*
X1050724*
Y1249091*
G03X1052693Y1247122I1969J-0*
G01X1062535*
X1064504Y1245154D02*
G03X1062535Y1247122I-1969J-0D01*
G01X1064504Y1245154D02*
Y1208146D01*
X1062535Y1206177D02*
G03X1064504Y1208146I0J1969D01*
G01X1062535Y1206177D02*
X1052693D01*
G03X1050724Y1204209I-0J-1968*
G01Y1120222*
X1055449*
Y1106756*
X1050724*
Y1023894*
G03X1070409Y1004209I19685J-0*
G01X1220832*
G03X1222224Y1004785I-0J1968*
G01X1238345Y1020907*
G03Y1023691I-1392J1392*
G01X1234726Y1027310*
Y1030094D02*
G03Y1027310I1392J-1392D01*
G01Y1030094D02*
X1331106Y1126508D01*
X1333224Y1126155D02*
G03X1331105Y1126508I-1264J-1053D01*
G01X1333225Y1126153D02*
X1336415Y1122887D01*
X1336414Y1122888D02*
G03X1338696Y1123392I868J1490D01*
G01X1338698Y1123393D02*
X1365502Y1150204D01*
X1359984Y1155780*
X1363580Y1159376*
X1369134Y1153817*
X1382617Y1167297*
X1382618D02*
G03X1383638Y1168899I-1643J2173D01*
G01X1383645Y1169009D02*
G03X1354680Y1286053I-198968J12866D01*
G01X1354826Y1285814D02*
G03X1353229Y1286764I-1686J-1017D01*
G01X1300008Y1289168*
G03X1298594Y1288657I-86J-1975*
G01X1195067Y1339604D02*
G03X1298598Y1288661I61799J-5080D01*
G01X1195068Y1339624D02*
G03X1194612Y1341054I-1963J161D01*
G01X1194611Y1341055D02*
X1162307Y1379332D01*
X1162303Y1379336D02*
G03X1155275Y1382062I-6014J-5082D01*
G01X1155162Y1382047D02*
G03X1051218Y1336528I26114J-201067D01*
G01X1051432Y1336707D02*
X1051432D01*
X1181149Y1338317D02*
G03X1181149I-8465J0D01*
G01X1345043Y1207097D02*
G03X1345043I-8464J0D01*
G01X1134610Y1033551D02*
G03X1134610I-8464J0D01*
G01X1254020Y1131760D02*
X1261445Y1125531D01*
X1249860Y1111678D02*
G03X1261450Y1125539I-58002J60273D01*
G01X1249831Y1111650D02*
X1242378Y1117886D01*
X1242397Y1117904D02*
G03X1254005Y1131738I-53976J57078D01*
G01X1096150Y1159559D02*
G03X1102345Y1142586I78167J18911D01*
G01X1102339Y1142598D02*
X1093201Y1139224D01*
X1087008Y1156267D02*
G03X1093174Y1139281I92101J23819D01*
G01X1087004Y1156283D02*
X1096142Y1159594D01*
X1207021Y1274985D02*
G03X1189231Y1278122I-24608J-87546D01*
G01X1207094Y1274965D02*
X1205382Y1265386D01*
X1205336Y1265399D02*
G03X1187545Y1268536I-24073J-84511D01*
G01X1187551Y1268535D02*
X1189232Y1278122D01*
X1170802Y1107477D02*
G03X1170802I-2461J0D01*
G01X1196731Y1254491D02*
G03X1196731I-2461J0D01*
G74*
G01X0Y0D02*
M02*
