*
*
G04 PADS VX.2.4 Build Number: 11282995 generated Gerber (RS-274-X) file*
G04 PC Version=2.1*
*
%IN "XP01_V0.4_-2021-3-9.pcb"*%
*
%MOIN*%
*
%FSLAX35Y35*%
*
*
*
*
G04 PC Standard Apertures*
*
*
G04 Thermal Relief Aperture macro.*
%AMTER*
1,1,$1,0,0*
1,0,$1-$2,0,0*
21,0,$3,$4,0,0,45*
21,0,$3,$4,0,0,135*
%
*
*
G04 Annular Aperture macro.*
%AMANN*
1,1,$1,0,0*
1,0,$2,0,0*
%
*
*
G04 Odd Aperture macro.*
%AMODD*
1,1,$1,0,0*
1,0,$1-0.005,0,0*
%
*
*
G04 PC Custom Aperture Macros*
*
*
*
*
*
*
G04 PC Aperture Table*
*
%ADD013C,0.01*%
%ADD109C,0.001*%
%ADD478C,0.06197*%
%ADD479R,0.03397X0.03397*%
%ADD480R,0.06197X0.06197*%
%ADD481C,0.00697*%
%ADD483O,0.08197X0.03197*%
%ADD484R,0.11197X0.11197*%
%ADD485R,0.05197X0.05197*%
%ADD486O,0.04921X0.10433*%
%ADD488O,0.03197X0.08197*%
%ADD489R,0.09197X0.11197*%
%ADD528C,0.06496*%
%ADD550C,0.00866*%
%ADD582C,0.05315*%
%ADD583R,0.10039X0.04134*%
%ADD584R,0.06102X0.14961*%
%ADD585R,0.06102X0.12008*%
%ADD587R,0.04134X0.05315*%
%ADD588R,0.02126X0.02323*%
%ADD589R,0.0374X0.0315*%
%ADD590R,0.02047X0.02244*%
%ADD591R,0.0315X0.0374*%
%ADD593R,0.05512X0.03937*%
%ADD597R,0.05315X0.04134*%
%ADD598R,0.05315X0.03543*%
%ADD599R,0.19882X0.09252*%
%ADD601R,0.02362X0.02362*%
%ADD603R,0.0689X0.04134*%
%ADD605R,0.02756X0.04921*%
%ADD606R,0.02559X0.04528*%
%ADD607R,0.03937X0.05512*%
%ADD608R,0.03543X0.05315*%
%ADD609R,0.13976X0.06496*%
%ADD610R,0.11197X0.09197*%
%ADD612R,0.0399X0.10433*%
%ADD616C,0.04646*%
%ADD622R,0.04134X0.12008*%
%ADD627R,0.01397X0.06197*%
*
*
*
*
G04 PC Circuitry*
G04 Layer Name XP01_V0.4_-2021-3-9.pcb - circuitry*
%LPD*%
*
*
G04 PC Custom Flashes*
G04 Layer Name XP01_V0.4_-2021-3-9.pcb - flashes*
%LPD*%
*
*
G04 PC Circuitry*
G04 Layer Name XP01_V0.4_-2021-3-9.pcb - circuitry*
%LPD*%
*
G54D13*
G01X1299233Y1201174D02*
Y1190128D01*
X1296487*
Y1201174*
X1299233*
X1296854Y1190128D02*
Y1201174D01*
X1297354Y1190128D02*
Y1201174D01*
X1297854Y1190128D02*
Y1201174D01*
X1298354Y1190128D02*
Y1201174D01*
X1298854Y1190128D02*
Y1201174D01*
G54D109*
X1335795Y1158546D02*
X1332154Y1162280D01*
X1329689Y1159875*
X1333330Y1156142*
X1335795Y1158546*
X1333330Y1156142D02*
X1333330D01*
X1333232Y1156242D02*
X1333433D01*
X1333135Y1156342D02*
X1333535D01*
X1333037Y1156442D02*
X1333638D01*
X1332940Y1156542D02*
X1333740D01*
X1332842Y1156642D02*
X1333843D01*
X1332745Y1156742D02*
X1333945D01*
X1332647Y1156842D02*
X1334048D01*
X1332550Y1156942D02*
X1334150D01*
X1332452Y1157042D02*
X1334253D01*
X1332355Y1157142D02*
X1334355D01*
X1332257Y1157242D02*
X1334458D01*
X1332160Y1157342D02*
X1334560D01*
X1332062Y1157442D02*
X1334663D01*
X1331965Y1157542D02*
X1334766D01*
X1331867Y1157642D02*
X1334868D01*
X1331770Y1157742D02*
X1334971D01*
X1331672Y1157842D02*
X1335073D01*
X1331575Y1157942D02*
X1335176D01*
X1331477Y1158042D02*
X1335278D01*
X1331379Y1158142D02*
X1335381D01*
X1331282Y1158242D02*
X1335483D01*
X1331184Y1158342D02*
X1335586D01*
X1331087Y1158442D02*
X1335688D01*
X1330989Y1158542D02*
X1335791D01*
X1330892Y1158642D02*
X1335702D01*
X1330794Y1158742D02*
X1335604D01*
X1330697Y1158842D02*
X1335507D01*
X1330599Y1158942D02*
X1335409D01*
X1330502Y1159042D02*
X1335311D01*
X1330404Y1159142D02*
X1335214D01*
X1330307Y1159242D02*
X1335116D01*
X1330209Y1159342D02*
X1335019D01*
X1330112Y1159442D02*
X1334921D01*
X1330014Y1159542D02*
X1334824D01*
X1329917Y1159642D02*
X1334726D01*
X1329819Y1159742D02*
X1334629D01*
X1329722Y1159842D02*
X1334531D01*
X1329757Y1159942D02*
X1334434D01*
X1329860Y1160042D02*
X1334336D01*
X1329962Y1160142D02*
X1334239D01*
X1330065Y1160242D02*
X1334141D01*
X1330167Y1160342D02*
X1334044D01*
X1330270Y1160442D02*
X1333946D01*
X1330372Y1160542D02*
X1333849D01*
X1330475Y1160642D02*
X1333751D01*
X1330578Y1160742D02*
X1333654D01*
X1330680Y1160842D02*
X1333556D01*
X1330783Y1160942D02*
X1333458D01*
X1330885Y1161042D02*
X1333361D01*
X1330988Y1161142D02*
X1333263D01*
X1331090Y1161242D02*
X1333166D01*
X1331193Y1161342D02*
X1333068D01*
X1331295Y1161442D02*
X1332971D01*
X1331398Y1161542D02*
X1332873D01*
X1331500Y1161642D02*
X1332776D01*
X1331603Y1161742D02*
X1332678D01*
X1331705Y1161842D02*
X1332581D01*
X1331808Y1161942D02*
X1332483D01*
X1331911Y1162042D02*
X1332386D01*
X1332013Y1162142D02*
X1332288D01*
X1332116Y1162242D02*
X1332191D01*
X1329702Y1159862D02*
Y1159889D01*
X1329802Y1159759D02*
Y1159986D01*
X1329902Y1159657D02*
Y1160084D01*
X1330002Y1159554D02*
Y1160181D01*
X1330102Y1159452D02*
Y1160279D01*
X1330202Y1159349D02*
Y1160376D01*
X1330302Y1159246D02*
Y1160474D01*
X1330402Y1159144D02*
Y1160571D01*
X1330502Y1159041D02*
Y1160669D01*
X1330602Y1158939D02*
Y1160766D01*
X1330702Y1158836D02*
Y1160864D01*
X1330802Y1158734D02*
Y1160961D01*
X1330902Y1158631D02*
Y1161059D01*
X1331002Y1158529D02*
Y1161156D01*
X1331102Y1158426D02*
Y1161254D01*
X1331202Y1158324D02*
Y1161351D01*
X1331302Y1158221D02*
Y1161449D01*
X1331402Y1158119D02*
Y1161546D01*
X1331502Y1158016D02*
Y1161644D01*
X1331602Y1157913D02*
Y1161742D01*
X1331702Y1157811D02*
Y1161839D01*
X1331802Y1157708D02*
Y1161937D01*
X1331902Y1157606D02*
Y1162034D01*
X1332002Y1157503D02*
Y1162132D01*
X1332102Y1157401D02*
Y1162229D01*
X1332202Y1157298D02*
Y1162230D01*
X1332302Y1157196D02*
Y1162127D01*
X1332402Y1157093D02*
Y1162025D01*
X1332502Y1156991D02*
Y1161922D01*
X1332602Y1156888D02*
Y1161820D01*
X1332702Y1156786D02*
Y1161717D01*
X1332802Y1156683D02*
Y1161615D01*
X1332902Y1156580D02*
Y1161512D01*
X1333002Y1156478D02*
Y1161410D01*
X1333102Y1156375D02*
Y1161307D01*
X1333202Y1156273D02*
Y1161205D01*
X1333302Y1156170D02*
Y1161102D01*
X1333402Y1156213D02*
Y1161000D01*
X1333502Y1156310D02*
Y1160897D01*
X1333602Y1156408D02*
Y1160794D01*
X1333702Y1156505D02*
Y1160692D01*
X1333802Y1156603D02*
Y1160589D01*
X1333902Y1156700D02*
Y1160487D01*
X1334002Y1156798D02*
Y1160384D01*
X1334102Y1156895D02*
Y1160282D01*
X1334202Y1156993D02*
Y1160179D01*
X1334302Y1157090D02*
Y1160077D01*
X1334402Y1157188D02*
Y1159974D01*
X1334502Y1157285D02*
Y1159872D01*
X1334602Y1157383D02*
Y1159769D01*
X1334702Y1157480D02*
Y1159667D01*
X1334802Y1157578D02*
Y1159564D01*
X1334902Y1157675D02*
Y1159461D01*
X1335002Y1157773D02*
Y1159359D01*
X1335102Y1157871D02*
Y1159256D01*
X1335202Y1157968D02*
Y1159154D01*
X1335302Y1158066D02*
Y1159051D01*
X1335402Y1158163D02*
Y1158949D01*
X1335502Y1158261D02*
Y1158846D01*
X1335602Y1158358D02*
Y1158744D01*
X1335702Y1158456D02*
Y1158641D01*
X1340587Y1163219D02*
X1336946Y1166952D01*
X1334480Y1164548*
X1338122Y1160815*
X1340587Y1163219*
X1338122Y1160815D02*
X1338122D01*
X1338024Y1160915D02*
X1338224D01*
X1337926Y1161015D02*
X1338327D01*
X1337829Y1161115D02*
X1338429D01*
X1337731Y1161215D02*
X1338532D01*
X1337634Y1161315D02*
X1338634D01*
X1337536Y1161415D02*
X1338737D01*
X1337439Y1161515D02*
X1338839D01*
X1337341Y1161615D02*
X1338942D01*
X1337244Y1161715D02*
X1339044D01*
X1337146Y1161815D02*
X1339147D01*
X1337049Y1161915D02*
X1339249D01*
X1336951Y1162015D02*
X1339352D01*
X1336854Y1162115D02*
X1339455D01*
X1336756Y1162215D02*
X1339557D01*
X1336659Y1162315D02*
X1339660D01*
X1336561Y1162415D02*
X1339762D01*
X1336464Y1162515D02*
X1339865D01*
X1336366Y1162615D02*
X1339967D01*
X1336269Y1162715D02*
X1340070D01*
X1336171Y1162815D02*
X1340172D01*
X1336074Y1162915D02*
X1340275D01*
X1335976Y1163015D02*
X1340377D01*
X1335878Y1163115D02*
X1340480D01*
X1335781Y1163215D02*
X1340582D01*
X1335683Y1163315D02*
X1340493D01*
X1335586Y1163415D02*
X1340396D01*
X1335488Y1163515D02*
X1340298D01*
X1335391Y1163615D02*
X1340201D01*
X1335293Y1163715D02*
X1340103D01*
X1335196Y1163815D02*
X1340005D01*
X1335098Y1163915D02*
X1339908D01*
X1335001Y1164015D02*
X1339810D01*
X1334903Y1164115D02*
X1339713D01*
X1334806Y1164215D02*
X1339615D01*
X1334708Y1164315D02*
X1339518D01*
X1334611Y1164415D02*
X1339420D01*
X1334513Y1164515D02*
X1339323D01*
X1334549Y1164615D02*
X1339225D01*
X1334651Y1164715D02*
X1339128D01*
X1334754Y1164815D02*
X1339030D01*
X1334856Y1164915D02*
X1338933D01*
X1334959Y1165015D02*
X1338835D01*
X1335061Y1165115D02*
X1338738D01*
X1335164Y1165215D02*
X1338640D01*
X1335267Y1165315D02*
X1338543D01*
X1335369Y1165415D02*
X1338445D01*
X1335472Y1165515D02*
X1338348D01*
X1335574Y1165615D02*
X1338250D01*
X1335677Y1165715D02*
X1338152D01*
X1335779Y1165815D02*
X1338055D01*
X1335882Y1165915D02*
X1337957D01*
X1335984Y1166015D02*
X1337860D01*
X1336087Y1166115D02*
X1337762D01*
X1336189Y1166215D02*
X1337665D01*
X1336292Y1166315D02*
X1337567D01*
X1336394Y1166415D02*
X1337470D01*
X1336497Y1166515D02*
X1337372D01*
X1336599Y1166615D02*
X1337275D01*
X1336702Y1166715D02*
X1337177D01*
X1336805Y1166815D02*
X1337080D01*
X1336907Y1166915D02*
X1336982D01*
X1334502Y1164526D02*
Y1164570D01*
X1334602Y1164423D02*
Y1164667D01*
X1334702Y1164321D02*
Y1164765D01*
X1334802Y1164218D02*
Y1164862D01*
X1334902Y1164116D02*
Y1164960D01*
X1335002Y1164013D02*
Y1165057D01*
X1335102Y1163911D02*
Y1165155D01*
X1335202Y1163808D02*
Y1165252D01*
X1335302Y1163706D02*
Y1165350D01*
X1335402Y1163603D02*
Y1165447D01*
X1335502Y1163501D02*
Y1165545D01*
X1335602Y1163398D02*
Y1165642D01*
X1335702Y1163296D02*
Y1165740D01*
X1335802Y1163193D02*
Y1165838D01*
X1335902Y1163090D02*
Y1165935D01*
X1336002Y1162988D02*
Y1166033D01*
X1336102Y1162885D02*
Y1166130D01*
X1336202Y1162783D02*
Y1166228D01*
X1336302Y1162680D02*
Y1166325D01*
X1336402Y1162578D02*
Y1166423D01*
X1336502Y1162475D02*
Y1166520D01*
X1336602Y1162373D02*
Y1166618D01*
X1336702Y1162270D02*
Y1166715D01*
X1336802Y1162168D02*
Y1166813D01*
X1336902Y1162065D02*
Y1166910D01*
X1337002Y1161963D02*
Y1166894D01*
X1337102Y1161860D02*
Y1166792D01*
X1337202Y1161757D02*
Y1166689D01*
X1337302Y1161655D02*
Y1166587D01*
X1337402Y1161552D02*
Y1166484D01*
X1337502Y1161450D02*
Y1166382D01*
X1337602Y1161347D02*
Y1166279D01*
X1337702Y1161245D02*
Y1166176D01*
X1337802Y1161142D02*
Y1166074D01*
X1337902Y1161040D02*
Y1165971D01*
X1338002Y1160937D02*
Y1165869D01*
X1338102Y1160835D02*
Y1165766D01*
X1338202Y1160894D02*
Y1165664D01*
X1338302Y1160991D02*
Y1165561D01*
X1338402Y1161089D02*
Y1165459D01*
X1338502Y1161186D02*
Y1165356D01*
X1338602Y1161284D02*
Y1165254D01*
X1338702Y1161381D02*
Y1165151D01*
X1338802Y1161479D02*
Y1165049D01*
X1338902Y1161576D02*
Y1164946D01*
X1339002Y1161674D02*
Y1164844D01*
X1339102Y1161771D02*
Y1164741D01*
X1339202Y1161869D02*
Y1164638D01*
X1339302Y1161967D02*
Y1164536D01*
X1339402Y1162064D02*
Y1164433D01*
X1339502Y1162162D02*
Y1164331D01*
X1339602Y1162259D02*
Y1164228D01*
X1339702Y1162357D02*
Y1164126D01*
X1339802Y1162454D02*
Y1164023D01*
X1339902Y1162552D02*
Y1163921D01*
X1340002Y1162649D02*
Y1163818D01*
X1340102Y1162747D02*
Y1163716D01*
X1340202Y1162844D02*
Y1163613D01*
X1340302Y1162942D02*
Y1163511D01*
X1340402Y1163039D02*
Y1163408D01*
X1340502Y1163137D02*
Y1163305D01*
X1348810Y1165938D02*
X1355560Y1159188D01*
X1359804Y1163432*
X1353054Y1170182*
X1348810Y1165938*
X1355560Y1159188D02*
X1355560D01*
X1355460Y1159288D02*
X1355660D01*
X1355360Y1159388D02*
X1355760D01*
X1355260Y1159488D02*
X1355860D01*
X1355160Y1159588D02*
X1355960D01*
X1355060Y1159688D02*
X1356060D01*
X1354960Y1159788D02*
X1356160D01*
X1354860Y1159888D02*
X1356260D01*
X1354760Y1159988D02*
X1356360D01*
X1354660Y1160088D02*
X1356460D01*
X1354560Y1160188D02*
X1356560D01*
X1354460Y1160288D02*
X1356660D01*
X1354360Y1160388D02*
X1356760D01*
X1354260Y1160488D02*
X1356860D01*
X1354160Y1160588D02*
X1356960D01*
X1354060Y1160688D02*
X1357060D01*
X1353960Y1160788D02*
X1357160D01*
X1353860Y1160888D02*
X1357260D01*
X1353760Y1160988D02*
X1357360D01*
X1353660Y1161088D02*
X1357460D01*
X1353560Y1161188D02*
X1357560D01*
X1353460Y1161288D02*
X1357660D01*
X1353360Y1161388D02*
X1357760D01*
X1353260Y1161488D02*
X1357860D01*
X1353160Y1161588D02*
X1357960D01*
X1353060Y1161688D02*
X1358060D01*
X1352960Y1161788D02*
X1358160D01*
X1352860Y1161888D02*
X1358260D01*
X1352760Y1161988D02*
X1358360D01*
X1352660Y1162088D02*
X1358460D01*
X1352560Y1162188D02*
X1358560D01*
X1352460Y1162288D02*
X1358660D01*
X1352360Y1162388D02*
X1358760D01*
X1352260Y1162488D02*
X1358860D01*
X1352160Y1162588D02*
X1358960D01*
X1352060Y1162688D02*
X1359060D01*
X1351960Y1162788D02*
X1359160D01*
X1351860Y1162888D02*
X1359260D01*
X1351760Y1162988D02*
X1359360D01*
X1351660Y1163088D02*
X1359460D01*
X1351560Y1163188D02*
X1359560D01*
X1351460Y1163288D02*
X1359660D01*
X1351360Y1163388D02*
X1359760D01*
X1351260Y1163488D02*
X1359748D01*
X1351160Y1163588D02*
X1359648D01*
X1351060Y1163688D02*
X1359548D01*
X1350960Y1163788D02*
X1359448D01*
X1350860Y1163888D02*
X1359348D01*
X1350760Y1163988D02*
X1359248D01*
X1350660Y1164088D02*
X1359148D01*
X1350560Y1164188D02*
X1359048D01*
X1350460Y1164288D02*
X1358948D01*
X1350360Y1164388D02*
X1358848D01*
X1350260Y1164488D02*
X1358748D01*
X1350160Y1164588D02*
X1358648D01*
X1350060Y1164688D02*
X1358548D01*
X1349960Y1164788D02*
X1358448D01*
X1349860Y1164888D02*
X1358348D01*
X1349760Y1164988D02*
X1358248D01*
X1349660Y1165088D02*
X1358148D01*
X1349560Y1165188D02*
X1358048D01*
X1349460Y1165288D02*
X1357948D01*
X1349360Y1165388D02*
X1357848D01*
X1349260Y1165488D02*
X1357748D01*
X1349160Y1165588D02*
X1357648D01*
X1349060Y1165688D02*
X1357548D01*
X1348960Y1165788D02*
X1357448D01*
X1348860Y1165888D02*
X1357348D01*
X1348860Y1165988D02*
X1357248D01*
X1348960Y1166088D02*
X1357148D01*
X1349060Y1166188D02*
X1357048D01*
X1349160Y1166288D02*
X1356948D01*
X1349260Y1166388D02*
X1356848D01*
X1349360Y1166488D02*
X1356748D01*
X1349460Y1166588D02*
X1356648D01*
X1349560Y1166688D02*
X1356548D01*
X1349660Y1166788D02*
X1356448D01*
X1349760Y1166888D02*
X1356348D01*
X1349860Y1166988D02*
X1356248D01*
X1349960Y1167088D02*
X1356148D01*
X1350060Y1167188D02*
X1356048D01*
X1350160Y1167288D02*
X1355948D01*
X1350260Y1167388D02*
X1355848D01*
X1350360Y1167488D02*
X1355748D01*
X1350460Y1167588D02*
X1355648D01*
X1350560Y1167688D02*
X1355548D01*
X1350660Y1167788D02*
X1355448D01*
X1350760Y1167888D02*
X1355348D01*
X1350860Y1167988D02*
X1355248D01*
X1350960Y1168088D02*
X1355148D01*
X1351060Y1168188D02*
X1355048D01*
X1351160Y1168288D02*
X1354948D01*
X1351260Y1168388D02*
X1354848D01*
X1351360Y1168488D02*
X1354748D01*
X1351460Y1168588D02*
X1354648D01*
X1351560Y1168688D02*
X1354548D01*
X1351660Y1168788D02*
X1354448D01*
X1351760Y1168888D02*
X1354348D01*
X1351860Y1168988D02*
X1354248D01*
X1351960Y1169088D02*
X1354148D01*
X1352060Y1169188D02*
X1354048D01*
X1352160Y1169288D02*
X1353948D01*
X1352260Y1169388D02*
X1353848D01*
X1352360Y1169488D02*
X1353748D01*
X1352460Y1169588D02*
X1353648D01*
X1352560Y1169688D02*
X1353548D01*
X1352660Y1169788D02*
X1353448D01*
X1352760Y1169888D02*
X1353348D01*
X1352860Y1169988D02*
X1353248D01*
X1352960Y1170088D02*
X1353148D01*
X1348902Y1165845D02*
Y1166030D01*
X1349002Y1165745D02*
Y1166130D01*
X1349102Y1165645D02*
Y1166230D01*
X1349202Y1165545D02*
Y1166330D01*
X1349302Y1165445D02*
Y1166430D01*
X1349402Y1165345D02*
Y1166530D01*
X1349502Y1165245D02*
Y1166630D01*
X1349602Y1165145D02*
Y1166730D01*
X1349702Y1165045D02*
Y1166830D01*
X1349802Y1164945D02*
Y1166930D01*
X1349902Y1164845D02*
Y1167030D01*
X1350002Y1164745D02*
Y1167130D01*
X1350102Y1164645D02*
Y1167230D01*
X1350202Y1164545D02*
Y1167330D01*
X1350302Y1164445D02*
Y1167430D01*
X1350402Y1164345D02*
Y1167530D01*
X1350502Y1164245D02*
Y1167630D01*
X1350602Y1164145D02*
Y1167730D01*
X1350702Y1164045D02*
Y1167830D01*
X1350802Y1163945D02*
Y1167930D01*
X1350902Y1163845D02*
Y1168030D01*
X1351002Y1163745D02*
Y1168130D01*
X1351102Y1163645D02*
Y1168230D01*
X1351202Y1163545D02*
Y1168330D01*
X1351302Y1163445D02*
Y1168430D01*
X1351402Y1163345D02*
Y1168530D01*
X1351502Y1163245D02*
Y1168630D01*
X1351602Y1163145D02*
Y1168730D01*
X1351702Y1163045D02*
Y1168830D01*
X1351802Y1162945D02*
Y1168930D01*
X1351902Y1162845D02*
Y1169030D01*
X1352002Y1162745D02*
Y1169130D01*
X1352102Y1162645D02*
Y1169230D01*
X1352202Y1162545D02*
Y1169330D01*
X1352302Y1162445D02*
Y1169430D01*
X1352402Y1162345D02*
Y1169530D01*
X1352502Y1162245D02*
Y1169630D01*
X1352602Y1162145D02*
Y1169730D01*
X1352702Y1162045D02*
Y1169830D01*
X1352802Y1161945D02*
Y1169930D01*
X1352902Y1161845D02*
Y1170030D01*
X1353002Y1161745D02*
Y1170130D01*
X1353102Y1161645D02*
Y1170134D01*
X1353202Y1161545D02*
Y1170034D01*
X1353302Y1161445D02*
Y1169934D01*
X1353402Y1161345D02*
Y1169834D01*
X1353502Y1161245D02*
Y1169734D01*
X1353602Y1161145D02*
Y1169634D01*
X1353702Y1161045D02*
Y1169534D01*
X1353802Y1160945D02*
Y1169434D01*
X1353902Y1160845D02*
Y1169334D01*
X1354002Y1160745D02*
Y1169234D01*
X1354102Y1160645D02*
Y1169134D01*
X1354202Y1160545D02*
Y1169034D01*
X1354302Y1160445D02*
Y1168934D01*
X1354402Y1160345D02*
Y1168834D01*
X1354502Y1160245D02*
Y1168734D01*
X1354602Y1160145D02*
Y1168634D01*
X1354702Y1160045D02*
Y1168534D01*
X1354802Y1159945D02*
Y1168434D01*
X1354902Y1159845D02*
Y1168334D01*
X1355002Y1159745D02*
Y1168234D01*
X1355102Y1159645D02*
Y1168134D01*
X1355202Y1159545D02*
Y1168034D01*
X1355302Y1159445D02*
Y1167934D01*
X1355402Y1159345D02*
Y1167834D01*
X1355502Y1159245D02*
Y1167734D01*
X1355602Y1159231D02*
Y1167634D01*
X1355702Y1159331D02*
Y1167534D01*
X1355802Y1159431D02*
Y1167434D01*
X1355902Y1159531D02*
Y1167334D01*
X1356002Y1159631D02*
Y1167234D01*
X1356102Y1159731D02*
Y1167134D01*
X1356202Y1159831D02*
Y1167034D01*
X1356302Y1159931D02*
Y1166934D01*
X1356402Y1160031D02*
Y1166834D01*
X1356502Y1160131D02*
Y1166734D01*
X1356602Y1160231D02*
Y1166634D01*
X1356702Y1160331D02*
Y1166534D01*
X1356802Y1160431D02*
Y1166434D01*
X1356902Y1160531D02*
Y1166334D01*
X1357002Y1160631D02*
Y1166234D01*
X1357102Y1160731D02*
Y1166134D01*
X1357202Y1160831D02*
Y1166034D01*
X1357302Y1160931D02*
Y1165934D01*
X1357402Y1161031D02*
Y1165834D01*
X1357502Y1161131D02*
Y1165734D01*
X1357602Y1161231D02*
Y1165634D01*
X1357702Y1161331D02*
Y1165534D01*
X1357802Y1161431D02*
Y1165434D01*
X1357902Y1161531D02*
Y1165334D01*
X1358002Y1161631D02*
Y1165234D01*
X1358102Y1161731D02*
Y1165134D01*
X1358202Y1161831D02*
Y1165034D01*
X1358302Y1161931D02*
Y1164934D01*
X1358402Y1162031D02*
Y1164834D01*
X1358502Y1162131D02*
Y1164734D01*
X1358602Y1162231D02*
Y1164634D01*
X1358702Y1162331D02*
Y1164534D01*
X1358802Y1162431D02*
Y1164434D01*
X1358902Y1162531D02*
Y1164334D01*
X1359002Y1162631D02*
Y1164234D01*
X1359102Y1162731D02*
Y1164134D01*
X1359202Y1162831D02*
Y1164034D01*
X1359302Y1162931D02*
Y1163934D01*
X1359402Y1163031D02*
Y1163834D01*
X1359502Y1163131D02*
Y1163734D01*
X1359602Y1163231D02*
Y1163634D01*
X1359702Y1163331D02*
Y1163534D01*
X1359802Y1163431D02*
Y1163434D01*
X1222700Y1039828D02*
X1229450Y1033078D01*
X1233694Y1037322*
X1226944Y1044072*
X1222700Y1039828*
X1229450Y1033078D02*
X1229450D01*
X1229350Y1033178D02*
X1229550D01*
X1229250Y1033278D02*
X1229650D01*
X1229150Y1033378D02*
X1229750D01*
X1229050Y1033478D02*
X1229850D01*
X1228950Y1033578D02*
X1229950D01*
X1228850Y1033678D02*
X1230050D01*
X1228750Y1033778D02*
X1230150D01*
X1228650Y1033878D02*
X1230250D01*
X1228550Y1033978D02*
X1230350D01*
X1228450Y1034078D02*
X1230450D01*
X1228350Y1034178D02*
X1230550D01*
X1228250Y1034278D02*
X1230650D01*
X1228150Y1034378D02*
X1230750D01*
X1228050Y1034478D02*
X1230850D01*
X1227950Y1034578D02*
X1230950D01*
X1227850Y1034678D02*
X1231050D01*
X1227750Y1034778D02*
X1231150D01*
X1227650Y1034878D02*
X1231250D01*
X1227550Y1034978D02*
X1231350D01*
X1227450Y1035078D02*
X1231450D01*
X1227350Y1035178D02*
X1231550D01*
X1227250Y1035278D02*
X1231650D01*
X1227150Y1035378D02*
X1231750D01*
X1227050Y1035478D02*
X1231850D01*
X1226950Y1035578D02*
X1231950D01*
X1226850Y1035678D02*
X1232050D01*
X1226750Y1035778D02*
X1232150D01*
X1226650Y1035878D02*
X1232250D01*
X1226550Y1035978D02*
X1232350D01*
X1226450Y1036078D02*
X1232450D01*
X1226350Y1036178D02*
X1232550D01*
X1226250Y1036278D02*
X1232650D01*
X1226150Y1036378D02*
X1232750D01*
X1226050Y1036478D02*
X1232850D01*
X1225950Y1036578D02*
X1232950D01*
X1225850Y1036678D02*
X1233050D01*
X1225750Y1036778D02*
X1233150D01*
X1225650Y1036878D02*
X1233250D01*
X1225550Y1036978D02*
X1233350D01*
X1225450Y1037078D02*
X1233450D01*
X1225350Y1037178D02*
X1233550D01*
X1225250Y1037278D02*
X1233650D01*
X1225150Y1037378D02*
X1233638D01*
X1225050Y1037478D02*
X1233538D01*
X1224950Y1037578D02*
X1233438D01*
X1224850Y1037678D02*
X1233338D01*
X1224750Y1037778D02*
X1233238D01*
X1224650Y1037878D02*
X1233138D01*
X1224550Y1037978D02*
X1233038D01*
X1224450Y1038078D02*
X1232938D01*
X1224350Y1038178D02*
X1232838D01*
X1224250Y1038278D02*
X1232738D01*
X1224150Y1038378D02*
X1232638D01*
X1224050Y1038478D02*
X1232538D01*
X1223950Y1038578D02*
X1232438D01*
X1223850Y1038678D02*
X1232338D01*
X1223750Y1038778D02*
X1232238D01*
X1223650Y1038878D02*
X1232138D01*
X1223550Y1038978D02*
X1232038D01*
X1223450Y1039078D02*
X1231938D01*
X1223350Y1039178D02*
X1231838D01*
X1223250Y1039278D02*
X1231738D01*
X1223150Y1039378D02*
X1231638D01*
X1223050Y1039478D02*
X1231538D01*
X1222950Y1039578D02*
X1231438D01*
X1222850Y1039678D02*
X1231338D01*
X1222750Y1039778D02*
X1231238D01*
X1222750Y1039878D02*
X1231138D01*
X1222850Y1039978D02*
X1231038D01*
X1222950Y1040078D02*
X1230938D01*
X1223050Y1040178D02*
X1230838D01*
X1223150Y1040278D02*
X1230738D01*
X1223250Y1040378D02*
X1230638D01*
X1223350Y1040478D02*
X1230538D01*
X1223450Y1040578D02*
X1230438D01*
X1223550Y1040678D02*
X1230338D01*
X1223650Y1040778D02*
X1230238D01*
X1223750Y1040878D02*
X1230138D01*
X1223850Y1040978D02*
X1230038D01*
X1223950Y1041078D02*
X1229938D01*
X1224050Y1041178D02*
X1229838D01*
X1224150Y1041278D02*
X1229738D01*
X1224250Y1041378D02*
X1229638D01*
X1224350Y1041478D02*
X1229538D01*
X1224450Y1041578D02*
X1229438D01*
X1224550Y1041678D02*
X1229338D01*
X1224650Y1041778D02*
X1229238D01*
X1224750Y1041878D02*
X1229138D01*
X1224850Y1041978D02*
X1229038D01*
X1224950Y1042078D02*
X1228938D01*
X1225050Y1042178D02*
X1228838D01*
X1225150Y1042278D02*
X1228738D01*
X1225250Y1042378D02*
X1228638D01*
X1225350Y1042478D02*
X1228538D01*
X1225450Y1042578D02*
X1228438D01*
X1225550Y1042678D02*
X1228338D01*
X1225650Y1042778D02*
X1228238D01*
X1225750Y1042878D02*
X1228138D01*
X1225850Y1042978D02*
X1228038D01*
X1225950Y1043078D02*
X1227938D01*
X1226050Y1043178D02*
X1227838D01*
X1226150Y1043278D02*
X1227738D01*
X1226250Y1043378D02*
X1227638D01*
X1226350Y1043478D02*
X1227538D01*
X1226450Y1043578D02*
X1227438D01*
X1226550Y1043678D02*
X1227338D01*
X1226650Y1043778D02*
X1227238D01*
X1226750Y1043878D02*
X1227138D01*
X1226850Y1043978D02*
X1227038D01*
X1222702Y1039825D02*
Y1039830D01*
X1222802Y1039725D02*
Y1039930D01*
X1222902Y1039625D02*
Y1040030D01*
X1223002Y1039525D02*
Y1040130D01*
X1223102Y1039425D02*
Y1040230D01*
X1223202Y1039325D02*
Y1040330D01*
X1223302Y1039225D02*
Y1040430D01*
X1223402Y1039125D02*
Y1040530D01*
X1223502Y1039025D02*
Y1040630D01*
X1223602Y1038925D02*
Y1040730D01*
X1223702Y1038825D02*
Y1040830D01*
X1223802Y1038725D02*
Y1040930D01*
X1223902Y1038625D02*
Y1041030D01*
X1224002Y1038525D02*
Y1041130D01*
X1224102Y1038425D02*
Y1041230D01*
X1224202Y1038325D02*
Y1041330D01*
X1224302Y1038225D02*
Y1041430D01*
X1224402Y1038125D02*
Y1041530D01*
X1224502Y1038025D02*
Y1041630D01*
X1224602Y1037925D02*
Y1041730D01*
X1224702Y1037825D02*
Y1041830D01*
X1224802Y1037725D02*
Y1041930D01*
X1224902Y1037625D02*
Y1042030D01*
X1225002Y1037525D02*
Y1042130D01*
X1225102Y1037425D02*
Y1042230D01*
X1225202Y1037325D02*
Y1042330D01*
X1225302Y1037225D02*
Y1042430D01*
X1225402Y1037125D02*
Y1042530D01*
X1225502Y1037025D02*
Y1042630D01*
X1225602Y1036925D02*
Y1042730D01*
X1225702Y1036825D02*
Y1042830D01*
X1225802Y1036725D02*
Y1042930D01*
X1225902Y1036625D02*
Y1043030D01*
X1226002Y1036525D02*
Y1043130D01*
X1226102Y1036425D02*
Y1043230D01*
X1226202Y1036325D02*
Y1043330D01*
X1226302Y1036225D02*
Y1043430D01*
X1226402Y1036125D02*
Y1043530D01*
X1226502Y1036025D02*
Y1043630D01*
X1226602Y1035925D02*
Y1043730D01*
X1226702Y1035825D02*
Y1043830D01*
X1226802Y1035725D02*
Y1043930D01*
X1226902Y1035625D02*
Y1044030D01*
X1227002Y1035525D02*
Y1044014D01*
X1227102Y1035425D02*
Y1043914D01*
X1227202Y1035325D02*
Y1043814D01*
X1227302Y1035225D02*
Y1043714D01*
X1227402Y1035125D02*
Y1043614D01*
X1227502Y1035025D02*
Y1043514D01*
X1227602Y1034925D02*
Y1043414D01*
X1227702Y1034825D02*
Y1043314D01*
X1227802Y1034725D02*
Y1043214D01*
X1227902Y1034625D02*
Y1043114D01*
X1228002Y1034525D02*
Y1043014D01*
X1228102Y1034425D02*
Y1042914D01*
X1228202Y1034325D02*
Y1042814D01*
X1228302Y1034225D02*
Y1042714D01*
X1228402Y1034125D02*
Y1042614D01*
X1228502Y1034025D02*
Y1042514D01*
X1228602Y1033925D02*
Y1042414D01*
X1228702Y1033825D02*
Y1042314D01*
X1228802Y1033725D02*
Y1042214D01*
X1228902Y1033625D02*
Y1042114D01*
X1229002Y1033525D02*
Y1042014D01*
X1229102Y1033425D02*
Y1041914D01*
X1229202Y1033325D02*
Y1041814D01*
X1229302Y1033225D02*
Y1041714D01*
X1229402Y1033125D02*
Y1041614D01*
X1229502Y1033131D02*
Y1041514D01*
X1229602Y1033231D02*
Y1041414D01*
X1229702Y1033331D02*
Y1041314D01*
X1229802Y1033431D02*
Y1041214D01*
X1229902Y1033531D02*
Y1041114D01*
X1230002Y1033631D02*
Y1041014D01*
X1230102Y1033731D02*
Y1040914D01*
X1230202Y1033831D02*
Y1040814D01*
X1230302Y1033931D02*
Y1040714D01*
X1230402Y1034031D02*
Y1040614D01*
X1230502Y1034131D02*
Y1040514D01*
X1230602Y1034231D02*
Y1040414D01*
X1230702Y1034331D02*
Y1040314D01*
X1230802Y1034431D02*
Y1040214D01*
X1230902Y1034531D02*
Y1040114D01*
X1231002Y1034631D02*
Y1040014D01*
X1231102Y1034731D02*
Y1039914D01*
X1231202Y1034831D02*
Y1039814D01*
X1231302Y1034931D02*
Y1039714D01*
X1231402Y1035031D02*
Y1039614D01*
X1231502Y1035131D02*
Y1039514D01*
X1231602Y1035231D02*
Y1039414D01*
X1231702Y1035331D02*
Y1039314D01*
X1231802Y1035431D02*
Y1039214D01*
X1231902Y1035531D02*
Y1039114D01*
X1232002Y1035631D02*
Y1039014D01*
X1232102Y1035731D02*
Y1038914D01*
X1232202Y1035831D02*
Y1038814D01*
X1232302Y1035931D02*
Y1038714D01*
X1232402Y1036031D02*
Y1038614D01*
X1232502Y1036131D02*
Y1038514D01*
X1232602Y1036231D02*
Y1038414D01*
X1232702Y1036331D02*
Y1038314D01*
X1232802Y1036431D02*
Y1038214D01*
X1232902Y1036531D02*
Y1038114D01*
X1233002Y1036631D02*
Y1038014D01*
X1233102Y1036731D02*
Y1037914D01*
X1233202Y1036831D02*
Y1037814D01*
X1233302Y1036931D02*
Y1037714D01*
X1233402Y1037031D02*
Y1037614D01*
X1233502Y1037131D02*
Y1037514D01*
X1233602Y1037231D02*
Y1037414D01*
X1363648Y1167450D02*
X1372068Y1159030D01*
X1376312Y1163274*
X1367892Y1171694*
X1363648Y1167450*
X1372068Y1159030D02*
X1372068D01*
X1371968Y1159130D02*
X1372168D01*
X1371868Y1159230D02*
X1372268D01*
X1371768Y1159330D02*
X1372368D01*
X1371668Y1159430D02*
X1372468D01*
X1371568Y1159530D02*
X1372568D01*
X1371468Y1159630D02*
X1372668D01*
X1371368Y1159730D02*
X1372768D01*
X1371268Y1159830D02*
X1372868D01*
X1371168Y1159930D02*
X1372968D01*
X1371068Y1160030D02*
X1373068D01*
X1370968Y1160130D02*
X1373168D01*
X1370868Y1160230D02*
X1373268D01*
X1370768Y1160330D02*
X1373368D01*
X1370668Y1160430D02*
X1373468D01*
X1370568Y1160530D02*
X1373568D01*
X1370468Y1160630D02*
X1373668D01*
X1370368Y1160730D02*
X1373768D01*
X1370268Y1160830D02*
X1373868D01*
X1370168Y1160930D02*
X1373968D01*
X1370068Y1161030D02*
X1374068D01*
X1369968Y1161130D02*
X1374168D01*
X1369868Y1161230D02*
X1374268D01*
X1369768Y1161330D02*
X1374368D01*
X1369668Y1161430D02*
X1374468D01*
X1369568Y1161530D02*
X1374568D01*
X1369468Y1161630D02*
X1374668D01*
X1369368Y1161730D02*
X1374768D01*
X1369268Y1161830D02*
X1374868D01*
X1369168Y1161930D02*
X1374968D01*
X1369068Y1162030D02*
X1375068D01*
X1368968Y1162130D02*
X1375168D01*
X1368868Y1162230D02*
X1375268D01*
X1368768Y1162330D02*
X1375368D01*
X1368668Y1162430D02*
X1375468D01*
X1368568Y1162530D02*
X1375568D01*
X1368468Y1162630D02*
X1375668D01*
X1368368Y1162730D02*
X1375768D01*
X1368268Y1162830D02*
X1375868D01*
X1368168Y1162930D02*
X1375968D01*
X1368068Y1163030D02*
X1376068D01*
X1367968Y1163130D02*
X1376168D01*
X1367868Y1163230D02*
X1376268D01*
X1367768Y1163330D02*
X1376256D01*
X1367668Y1163430D02*
X1376156D01*
X1367568Y1163530D02*
X1376056D01*
X1367468Y1163630D02*
X1375956D01*
X1367368Y1163730D02*
X1375856D01*
X1367268Y1163830D02*
X1375756D01*
X1367168Y1163930D02*
X1375656D01*
X1367068Y1164030D02*
X1375556D01*
X1366968Y1164130D02*
X1375456D01*
X1366868Y1164230D02*
X1375356D01*
X1366768Y1164330D02*
X1375256D01*
X1366668Y1164430D02*
X1375156D01*
X1366568Y1164530D02*
X1375056D01*
X1366468Y1164630D02*
X1374956D01*
X1366368Y1164730D02*
X1374856D01*
X1366268Y1164830D02*
X1374756D01*
X1366168Y1164930D02*
X1374656D01*
X1366068Y1165030D02*
X1374556D01*
X1365968Y1165130D02*
X1374456D01*
X1365868Y1165230D02*
X1374356D01*
X1365768Y1165330D02*
X1374256D01*
X1365668Y1165430D02*
X1374156D01*
X1365568Y1165530D02*
X1374056D01*
X1365468Y1165630D02*
X1373956D01*
X1365368Y1165730D02*
X1373856D01*
X1365268Y1165830D02*
X1373756D01*
X1365168Y1165930D02*
X1373656D01*
X1365068Y1166030D02*
X1373556D01*
X1364968Y1166130D02*
X1373456D01*
X1364868Y1166230D02*
X1373356D01*
X1364768Y1166330D02*
X1373256D01*
X1364668Y1166430D02*
X1373156D01*
X1364568Y1166530D02*
X1373056D01*
X1364468Y1166630D02*
X1372956D01*
X1364368Y1166730D02*
X1372856D01*
X1364268Y1166830D02*
X1372756D01*
X1364168Y1166930D02*
X1372656D01*
X1364068Y1167030D02*
X1372556D01*
X1363968Y1167130D02*
X1372456D01*
X1363868Y1167230D02*
X1372356D01*
X1363768Y1167330D02*
X1372256D01*
X1363668Y1167430D02*
X1372156D01*
X1363728Y1167530D02*
X1372056D01*
X1363828Y1167630D02*
X1371956D01*
X1363928Y1167730D02*
X1371856D01*
X1364028Y1167830D02*
X1371756D01*
X1364128Y1167930D02*
X1371656D01*
X1364228Y1168030D02*
X1371556D01*
X1364328Y1168130D02*
X1371456D01*
X1364428Y1168230D02*
X1371356D01*
X1364528Y1168330D02*
X1371256D01*
X1364628Y1168430D02*
X1371156D01*
X1364728Y1168530D02*
X1371056D01*
X1364828Y1168630D02*
X1370956D01*
X1364928Y1168730D02*
X1370856D01*
X1365028Y1168830D02*
X1370756D01*
X1365128Y1168930D02*
X1370656D01*
X1365228Y1169030D02*
X1370556D01*
X1365328Y1169130D02*
X1370456D01*
X1365428Y1169230D02*
X1370356D01*
X1365528Y1169330D02*
X1370256D01*
X1365628Y1169430D02*
X1370156D01*
X1365728Y1169530D02*
X1370056D01*
X1365828Y1169630D02*
X1369956D01*
X1365928Y1169730D02*
X1369856D01*
X1366028Y1169830D02*
X1369756D01*
X1366128Y1169930D02*
X1369656D01*
X1366228Y1170030D02*
X1369556D01*
X1366328Y1170130D02*
X1369456D01*
X1366428Y1170230D02*
X1369356D01*
X1366528Y1170330D02*
X1369256D01*
X1366628Y1170430D02*
X1369156D01*
X1366728Y1170530D02*
X1369056D01*
X1366828Y1170630D02*
X1368956D01*
X1366928Y1170730D02*
X1368856D01*
X1367028Y1170830D02*
X1368756D01*
X1367128Y1170930D02*
X1368656D01*
X1367228Y1171030D02*
X1368556D01*
X1367328Y1171130D02*
X1368456D01*
X1367428Y1171230D02*
X1368356D01*
X1367528Y1171330D02*
X1368256D01*
X1367628Y1171430D02*
X1368156D01*
X1367728Y1171530D02*
X1368056D01*
X1367828Y1171630D02*
X1367956D01*
X1363702Y1167395D02*
Y1167504D01*
X1363802Y1167295D02*
Y1167604D01*
X1363902Y1167195D02*
Y1167704D01*
X1364002Y1167095D02*
Y1167804D01*
X1364102Y1166995D02*
Y1167904D01*
X1364202Y1166895D02*
Y1168004D01*
X1364302Y1166795D02*
Y1168104D01*
X1364402Y1166695D02*
Y1168204D01*
X1364502Y1166595D02*
Y1168304D01*
X1364602Y1166495D02*
Y1168404D01*
X1364702Y1166395D02*
Y1168504D01*
X1364802Y1166295D02*
Y1168604D01*
X1364902Y1166195D02*
Y1168704D01*
X1365002Y1166095D02*
Y1168804D01*
X1365102Y1165995D02*
Y1168904D01*
X1365202Y1165895D02*
Y1169004D01*
X1365302Y1165795D02*
Y1169104D01*
X1365402Y1165695D02*
Y1169204D01*
X1365502Y1165595D02*
Y1169304D01*
X1365602Y1165495D02*
Y1169404D01*
X1365702Y1165395D02*
Y1169504D01*
X1365802Y1165295D02*
Y1169604D01*
X1365902Y1165195D02*
Y1169704D01*
X1366002Y1165095D02*
Y1169804D01*
X1366102Y1164995D02*
Y1169904D01*
X1366202Y1164895D02*
Y1170004D01*
X1366302Y1164795D02*
Y1170104D01*
X1366402Y1164695D02*
Y1170204D01*
X1366502Y1164595D02*
Y1170304D01*
X1366602Y1164495D02*
Y1170404D01*
X1366702Y1164395D02*
Y1170504D01*
X1366802Y1164295D02*
Y1170604D01*
X1366902Y1164195D02*
Y1170704D01*
X1367002Y1164095D02*
Y1170804D01*
X1367102Y1163995D02*
Y1170904D01*
X1367202Y1163895D02*
Y1171004D01*
X1367302Y1163795D02*
Y1171104D01*
X1367402Y1163695D02*
Y1171204D01*
X1367502Y1163595D02*
Y1171304D01*
X1367602Y1163495D02*
Y1171404D01*
X1367702Y1163395D02*
Y1171504D01*
X1367802Y1163295D02*
Y1171604D01*
X1367902Y1163195D02*
Y1171684D01*
X1368002Y1163095D02*
Y1171584D01*
X1368102Y1162995D02*
Y1171484D01*
X1368202Y1162895D02*
Y1171384D01*
X1368302Y1162795D02*
Y1171284D01*
X1368402Y1162695D02*
Y1171184D01*
X1368502Y1162595D02*
Y1171084D01*
X1368602Y1162495D02*
Y1170984D01*
X1368702Y1162395D02*
Y1170884D01*
X1368802Y1162295D02*
Y1170784D01*
X1368902Y1162195D02*
Y1170684D01*
X1369002Y1162095D02*
Y1170584D01*
X1369102Y1161995D02*
Y1170484D01*
X1369202Y1161895D02*
Y1170384D01*
X1369302Y1161795D02*
Y1170284D01*
X1369402Y1161695D02*
Y1170184D01*
X1369502Y1161595D02*
Y1170084D01*
X1369602Y1161495D02*
Y1169984D01*
X1369702Y1161395D02*
Y1169884D01*
X1369802Y1161295D02*
Y1169784D01*
X1369902Y1161195D02*
Y1169684D01*
X1370002Y1161095D02*
Y1169584D01*
X1370102Y1160995D02*
Y1169484D01*
X1370202Y1160895D02*
Y1169384D01*
X1370302Y1160795D02*
Y1169284D01*
X1370402Y1160695D02*
Y1169184D01*
X1370502Y1160595D02*
Y1169084D01*
X1370602Y1160495D02*
Y1168984D01*
X1370702Y1160395D02*
Y1168884D01*
X1370802Y1160295D02*
Y1168784D01*
X1370902Y1160195D02*
Y1168684D01*
X1371002Y1160095D02*
Y1168584D01*
X1371102Y1159995D02*
Y1168484D01*
X1371202Y1159895D02*
Y1168384D01*
X1371302Y1159795D02*
Y1168284D01*
X1371402Y1159695D02*
Y1168184D01*
X1371502Y1159595D02*
Y1168084D01*
X1371602Y1159495D02*
Y1167984D01*
X1371702Y1159395D02*
Y1167884D01*
X1371802Y1159295D02*
Y1167784D01*
X1371902Y1159195D02*
Y1167684D01*
X1372002Y1159095D02*
Y1167584D01*
X1372102Y1159064D02*
Y1167484D01*
X1372202Y1159164D02*
Y1167384D01*
X1372302Y1159264D02*
Y1167284D01*
X1372402Y1159364D02*
Y1167184D01*
X1372502Y1159464D02*
Y1167084D01*
X1372602Y1159564D02*
Y1166984D01*
X1372702Y1159664D02*
Y1166884D01*
X1372802Y1159764D02*
Y1166784D01*
X1372902Y1159864D02*
Y1166684D01*
X1373002Y1159964D02*
Y1166584D01*
X1373102Y1160064D02*
Y1166484D01*
X1373202Y1160164D02*
Y1166384D01*
X1373302Y1160264D02*
Y1166284D01*
X1373402Y1160364D02*
Y1166184D01*
X1373502Y1160464D02*
Y1166084D01*
X1373602Y1160564D02*
Y1165984D01*
X1373702Y1160664D02*
Y1165884D01*
X1373802Y1160764D02*
Y1165784D01*
X1373902Y1160864D02*
Y1165684D01*
X1374002Y1160964D02*
Y1165584D01*
X1374102Y1161064D02*
Y1165484D01*
X1374202Y1161164D02*
Y1165384D01*
X1374302Y1161264D02*
Y1165284D01*
X1374402Y1161364D02*
Y1165184D01*
X1374502Y1161464D02*
Y1165084D01*
X1374602Y1161564D02*
Y1164984D01*
X1374702Y1161664D02*
Y1164884D01*
X1374802Y1161764D02*
Y1164784D01*
X1374902Y1161864D02*
Y1164684D01*
X1375002Y1161964D02*
Y1164584D01*
X1375102Y1162064D02*
Y1164484D01*
X1375202Y1162164D02*
Y1164384D01*
X1375302Y1162264D02*
Y1164284D01*
X1375402Y1162364D02*
Y1164184D01*
X1375502Y1162464D02*
Y1164084D01*
X1375602Y1162564D02*
Y1163984D01*
X1375702Y1162664D02*
Y1163884D01*
X1375802Y1162764D02*
Y1163784D01*
X1375902Y1162864D02*
Y1163684D01*
X1376002Y1162964D02*
Y1163584D01*
X1376102Y1163064D02*
Y1163484D01*
X1376202Y1163164D02*
Y1163384D01*
X1376302Y1163264D02*
Y1163284D01*
X1221530Y1025332D02*
X1229951Y1016912D01*
X1234195Y1021157*
X1225775Y1029577*
X1221530Y1025332*
X1229951Y1016912D02*
X1229951D01*
X1229851Y1017012D02*
X1230051D01*
X1229751Y1017112D02*
X1230151D01*
X1229651Y1017212D02*
X1230251D01*
X1229551Y1017312D02*
X1230351D01*
X1229451Y1017412D02*
X1230451D01*
X1229351Y1017512D02*
X1230551D01*
X1229251Y1017612D02*
X1230651D01*
X1229151Y1017712D02*
X1230751D01*
X1229051Y1017812D02*
X1230851D01*
X1228951Y1017912D02*
X1230951D01*
X1228851Y1018012D02*
X1231051D01*
X1228751Y1018112D02*
X1231151D01*
X1228651Y1018212D02*
X1231251D01*
X1228551Y1018312D02*
X1231351D01*
X1228451Y1018412D02*
X1231451D01*
X1228351Y1018512D02*
X1231551D01*
X1228251Y1018612D02*
X1231651D01*
X1228151Y1018712D02*
X1231751D01*
X1228051Y1018812D02*
X1231851D01*
X1227951Y1018912D02*
X1231951D01*
X1227851Y1019012D02*
X1232051D01*
X1227751Y1019112D02*
X1232151D01*
X1227651Y1019212D02*
X1232251D01*
X1227551Y1019312D02*
X1232351D01*
X1227451Y1019412D02*
X1232451D01*
X1227351Y1019512D02*
X1232551D01*
X1227251Y1019612D02*
X1232651D01*
X1227151Y1019712D02*
X1232751D01*
X1227051Y1019812D02*
X1232851D01*
X1226951Y1019912D02*
X1232951D01*
X1226851Y1020012D02*
X1233051D01*
X1226751Y1020112D02*
X1233151D01*
X1226651Y1020212D02*
X1233251D01*
X1226551Y1020312D02*
X1233351D01*
X1226451Y1020412D02*
X1233451D01*
X1226351Y1020512D02*
X1233551D01*
X1226251Y1020612D02*
X1233651D01*
X1226151Y1020712D02*
X1233751D01*
X1226051Y1020812D02*
X1233851D01*
X1225951Y1020912D02*
X1233951D01*
X1225851Y1021012D02*
X1234051D01*
X1225751Y1021112D02*
X1234151D01*
X1225651Y1021212D02*
X1234139D01*
X1225551Y1021312D02*
X1234039D01*
X1225451Y1021412D02*
X1233939D01*
X1225351Y1021512D02*
X1233839D01*
X1225251Y1021612D02*
X1233739D01*
X1225151Y1021712D02*
X1233639D01*
X1225051Y1021812D02*
X1233539D01*
X1224951Y1021912D02*
X1233439D01*
X1224851Y1022012D02*
X1233339D01*
X1224751Y1022112D02*
X1233239D01*
X1224651Y1022212D02*
X1233139D01*
X1224551Y1022312D02*
X1233039D01*
X1224451Y1022412D02*
X1232939D01*
X1224351Y1022512D02*
X1232839D01*
X1224251Y1022612D02*
X1232739D01*
X1224151Y1022712D02*
X1232639D01*
X1224051Y1022812D02*
X1232539D01*
X1223951Y1022912D02*
X1232439D01*
X1223851Y1023012D02*
X1232339D01*
X1223751Y1023112D02*
X1232239D01*
X1223651Y1023212D02*
X1232139D01*
X1223551Y1023312D02*
X1232039D01*
X1223451Y1023412D02*
X1231939D01*
X1223351Y1023512D02*
X1231839D01*
X1223251Y1023612D02*
X1231739D01*
X1223151Y1023712D02*
X1231639D01*
X1223051Y1023812D02*
X1231539D01*
X1222951Y1023912D02*
X1231439D01*
X1222851Y1024012D02*
X1231339D01*
X1222751Y1024112D02*
X1231239D01*
X1222651Y1024212D02*
X1231139D01*
X1222551Y1024312D02*
X1231039D01*
X1222451Y1024412D02*
X1230939D01*
X1222351Y1024512D02*
X1230839D01*
X1222251Y1024612D02*
X1230739D01*
X1222151Y1024712D02*
X1230639D01*
X1222051Y1024812D02*
X1230539D01*
X1221951Y1024912D02*
X1230439D01*
X1221851Y1025012D02*
X1230339D01*
X1221751Y1025112D02*
X1230239D01*
X1221651Y1025212D02*
X1230139D01*
X1221551Y1025312D02*
X1230039D01*
X1221610Y1025412D02*
X1229939D01*
X1221710Y1025512D02*
X1229839D01*
X1221810Y1025612D02*
X1229739D01*
X1221910Y1025712D02*
X1229639D01*
X1222010Y1025812D02*
X1229539D01*
X1222110Y1025912D02*
X1229439D01*
X1222210Y1026012D02*
X1229339D01*
X1222310Y1026112D02*
X1229239D01*
X1222410Y1026212D02*
X1229139D01*
X1222510Y1026312D02*
X1229039D01*
X1222610Y1026412D02*
X1228939D01*
X1222710Y1026512D02*
X1228839D01*
X1222810Y1026612D02*
X1228739D01*
X1222910Y1026712D02*
X1228639D01*
X1223010Y1026812D02*
X1228539D01*
X1223110Y1026912D02*
X1228439D01*
X1223210Y1027012D02*
X1228339D01*
X1223310Y1027112D02*
X1228239D01*
X1223410Y1027212D02*
X1228139D01*
X1223510Y1027312D02*
X1228039D01*
X1223610Y1027412D02*
X1227939D01*
X1223710Y1027512D02*
X1227839D01*
X1223810Y1027612D02*
X1227739D01*
X1223910Y1027712D02*
X1227639D01*
X1224010Y1027812D02*
X1227539D01*
X1224110Y1027912D02*
X1227439D01*
X1224210Y1028012D02*
X1227339D01*
X1224310Y1028112D02*
X1227239D01*
X1224410Y1028212D02*
X1227139D01*
X1224510Y1028312D02*
X1227039D01*
X1224610Y1028412D02*
X1226939D01*
X1224710Y1028512D02*
X1226839D01*
X1224810Y1028612D02*
X1226739D01*
X1224910Y1028712D02*
X1226639D01*
X1225010Y1028812D02*
X1226539D01*
X1225110Y1028912D02*
X1226439D01*
X1225210Y1029012D02*
X1226339D01*
X1225310Y1029112D02*
X1226239D01*
X1225410Y1029212D02*
X1226139D01*
X1225510Y1029312D02*
X1226039D01*
X1225610Y1029412D02*
X1225939D01*
X1225710Y1029512D02*
X1225839D01*
X1221602Y1025260D02*
Y1025404D01*
X1221702Y1025160D02*
Y1025504D01*
X1221802Y1025060D02*
Y1025604D01*
X1221902Y1024960D02*
Y1025704D01*
X1222002Y1024860D02*
Y1025804D01*
X1222102Y1024760D02*
Y1025904D01*
X1222202Y1024660D02*
Y1026004D01*
X1222302Y1024560D02*
Y1026104D01*
X1222402Y1024460D02*
Y1026204D01*
X1222502Y1024360D02*
Y1026304D01*
X1222602Y1024260D02*
Y1026404D01*
X1222702Y1024160D02*
Y1026504D01*
X1222802Y1024060D02*
Y1026604D01*
X1222902Y1023960D02*
Y1026704D01*
X1223002Y1023860D02*
Y1026804D01*
X1223102Y1023760D02*
Y1026904D01*
X1223202Y1023660D02*
Y1027004D01*
X1223302Y1023560D02*
Y1027104D01*
X1223402Y1023460D02*
Y1027204D01*
X1223502Y1023360D02*
Y1027304D01*
X1223602Y1023260D02*
Y1027404D01*
X1223702Y1023160D02*
Y1027504D01*
X1223802Y1023060D02*
Y1027604D01*
X1223902Y1022960D02*
Y1027704D01*
X1224002Y1022860D02*
Y1027804D01*
X1224102Y1022760D02*
Y1027904D01*
X1224202Y1022660D02*
Y1028004D01*
X1224302Y1022560D02*
Y1028104D01*
X1224402Y1022460D02*
Y1028204D01*
X1224502Y1022360D02*
Y1028304D01*
X1224602Y1022260D02*
Y1028404D01*
X1224702Y1022160D02*
Y1028504D01*
X1224802Y1022060D02*
Y1028604D01*
X1224902Y1021960D02*
Y1028704D01*
X1225002Y1021860D02*
Y1028804D01*
X1225102Y1021760D02*
Y1028904D01*
X1225202Y1021660D02*
Y1029004D01*
X1225302Y1021560D02*
Y1029104D01*
X1225402Y1021460D02*
Y1029204D01*
X1225502Y1021360D02*
Y1029304D01*
X1225602Y1021260D02*
Y1029404D01*
X1225702Y1021160D02*
Y1029504D01*
X1225802Y1021060D02*
Y1029549D01*
X1225902Y1020960D02*
Y1029449D01*
X1226002Y1020860D02*
Y1029349D01*
X1226102Y1020760D02*
Y1029249D01*
X1226202Y1020660D02*
Y1029149D01*
X1226302Y1020560D02*
Y1029049D01*
X1226402Y1020460D02*
Y1028949D01*
X1226502Y1020360D02*
Y1028849D01*
X1226602Y1020260D02*
Y1028749D01*
X1226702Y1020160D02*
Y1028649D01*
X1226802Y1020060D02*
Y1028549D01*
X1226902Y1019960D02*
Y1028449D01*
X1227002Y1019860D02*
Y1028349D01*
X1227102Y1019760D02*
Y1028249D01*
X1227202Y1019660D02*
Y1028149D01*
X1227302Y1019560D02*
Y1028049D01*
X1227402Y1019460D02*
Y1027949D01*
X1227502Y1019360D02*
Y1027849D01*
X1227602Y1019260D02*
Y1027749D01*
X1227702Y1019160D02*
Y1027649D01*
X1227802Y1019060D02*
Y1027549D01*
X1227902Y1018960D02*
Y1027449D01*
X1228002Y1018860D02*
Y1027349D01*
X1228102Y1018760D02*
Y1027249D01*
X1228202Y1018660D02*
Y1027149D01*
X1228302Y1018560D02*
Y1027049D01*
X1228402Y1018460D02*
Y1026949D01*
X1228502Y1018360D02*
Y1026849D01*
X1228602Y1018260D02*
Y1026749D01*
X1228702Y1018160D02*
Y1026649D01*
X1228802Y1018060D02*
Y1026549D01*
X1228902Y1017960D02*
Y1026449D01*
X1229002Y1017860D02*
Y1026349D01*
X1229102Y1017760D02*
Y1026249D01*
X1229202Y1017660D02*
Y1026149D01*
X1229302Y1017560D02*
Y1026049D01*
X1229402Y1017460D02*
Y1025949D01*
X1229502Y1017360D02*
Y1025849D01*
X1229602Y1017260D02*
Y1025749D01*
X1229702Y1017160D02*
Y1025649D01*
X1229802Y1017060D02*
Y1025549D01*
X1229902Y1016960D02*
Y1025449D01*
X1230002Y1016964D02*
Y1025349D01*
X1230102Y1017064D02*
Y1025249D01*
X1230202Y1017164D02*
Y1025149D01*
X1230302Y1017264D02*
Y1025049D01*
X1230402Y1017364D02*
Y1024949D01*
X1230502Y1017464D02*
Y1024849D01*
X1230602Y1017564D02*
Y1024749D01*
X1230702Y1017664D02*
Y1024649D01*
X1230802Y1017764D02*
Y1024549D01*
X1230902Y1017864D02*
Y1024449D01*
X1231002Y1017964D02*
Y1024349D01*
X1231102Y1018064D02*
Y1024249D01*
X1231202Y1018164D02*
Y1024149D01*
X1231302Y1018264D02*
Y1024049D01*
X1231402Y1018364D02*
Y1023949D01*
X1231502Y1018464D02*
Y1023849D01*
X1231602Y1018564D02*
Y1023749D01*
X1231702Y1018664D02*
Y1023649D01*
X1231802Y1018764D02*
Y1023549D01*
X1231902Y1018864D02*
Y1023449D01*
X1232002Y1018964D02*
Y1023349D01*
X1232102Y1019064D02*
Y1023249D01*
X1232202Y1019164D02*
Y1023149D01*
X1232302Y1019264D02*
Y1023049D01*
X1232402Y1019364D02*
Y1022949D01*
X1232502Y1019464D02*
Y1022849D01*
X1232602Y1019564D02*
Y1022749D01*
X1232702Y1019664D02*
Y1022649D01*
X1232802Y1019764D02*
Y1022549D01*
X1232902Y1019864D02*
Y1022449D01*
X1233002Y1019964D02*
Y1022349D01*
X1233102Y1020064D02*
Y1022249D01*
X1233202Y1020164D02*
Y1022149D01*
X1233302Y1020264D02*
Y1022049D01*
X1233402Y1020364D02*
Y1021949D01*
X1233502Y1020464D02*
Y1021849D01*
X1233602Y1020564D02*
Y1021749D01*
X1233702Y1020664D02*
Y1021649D01*
X1233802Y1020764D02*
Y1021549D01*
X1233902Y1020864D02*
Y1021449D01*
X1234002Y1020964D02*
Y1021349D01*
X1234102Y1021064D02*
Y1021249D01*
X1195057Y1269847D02*
X1199030Y1269147D01*
X1199388Y1271181*
X1195416Y1271881*
X1195057Y1269847*
X1198716Y1269202D02*
X1199040D01*
X1198148Y1269302D02*
X1199057D01*
X1197581Y1269402D02*
X1199075D01*
X1197014Y1269502D02*
X1199092D01*
X1196447Y1269602D02*
X1199110D01*
X1195880Y1269702D02*
X1199128D01*
X1195313Y1269802D02*
X1199145D01*
X1195067Y1269902D02*
X1199163D01*
X1195085Y1270002D02*
X1199181D01*
X1195102Y1270102D02*
X1199198D01*
X1195120Y1270202D02*
X1199216D01*
X1195137Y1270302D02*
X1199234D01*
X1195155Y1270402D02*
X1199251D01*
X1195173Y1270502D02*
X1199269D01*
X1195190Y1270602D02*
X1199286D01*
X1195208Y1270702D02*
X1199304D01*
X1195226Y1270802D02*
X1199322D01*
X1195243Y1270902D02*
X1199339D01*
X1195261Y1271002D02*
X1199357D01*
X1195279Y1271102D02*
X1199375D01*
X1195296Y1271202D02*
X1199267D01*
X1195314Y1271302D02*
X1198700D01*
X1195331Y1271402D02*
X1198133D01*
X1195349Y1271502D02*
X1197565D01*
X1195367Y1271602D02*
X1196998D01*
X1195384Y1271702D02*
X1196431D01*
X1195402Y1271802D02*
X1195864D01*
X1195102Y1269839D02*
Y1270103D01*
X1195202Y1269822D02*
Y1270671D01*
X1195302Y1269804D02*
Y1271238D01*
X1195402Y1269787D02*
Y1271805D01*
X1195502Y1269769D02*
Y1271866D01*
X1195602Y1269751D02*
Y1271849D01*
X1195702Y1269734D02*
Y1271831D01*
X1195802Y1269716D02*
Y1271813D01*
X1195902Y1269698D02*
Y1271796D01*
X1196002Y1269681D02*
Y1271778D01*
X1196102Y1269663D02*
Y1271760D01*
X1196202Y1269646D02*
Y1271743D01*
X1196302Y1269628D02*
Y1271725D01*
X1196402Y1269610D02*
Y1271707D01*
X1196502Y1269593D02*
Y1271690D01*
X1196602Y1269575D02*
Y1271672D01*
X1196702Y1269557D02*
Y1271655D01*
X1196802Y1269540D02*
Y1271637D01*
X1196902Y1269522D02*
Y1271619D01*
X1197002Y1269504D02*
Y1271602D01*
X1197102Y1269487D02*
Y1271584D01*
X1197202Y1269469D02*
Y1271566D01*
X1197302Y1269452D02*
Y1271549D01*
X1197402Y1269434D02*
Y1271531D01*
X1197502Y1269416D02*
Y1271513D01*
X1197602Y1269399D02*
Y1271496D01*
X1197702Y1269381D02*
Y1271478D01*
X1197802Y1269363D02*
Y1271461D01*
X1197902Y1269346D02*
Y1271443D01*
X1198002Y1269328D02*
Y1271425D01*
X1198102Y1269310D02*
Y1271408D01*
X1198202Y1269293D02*
Y1271390D01*
X1198302Y1269275D02*
Y1271372D01*
X1198402Y1269258D02*
Y1271355D01*
X1198502Y1269240D02*
Y1271337D01*
X1198602Y1269222D02*
Y1271320D01*
X1198702Y1269205D02*
Y1271302D01*
X1198802Y1269187D02*
Y1271284D01*
X1198902Y1269169D02*
Y1271267D01*
X1199002Y1269152D02*
Y1271249D01*
X1199102Y1269558D02*
Y1271231D01*
X1199202Y1270126D02*
Y1271214D01*
X1199302Y1270693D02*
Y1271196D01*
X1094079Y1151397D02*
X1095525Y1147631D01*
X1097453Y1148371*
X1096007Y1152137*
X1094079Y1151397*
X1095525Y1147631D02*
X1095525D01*
X1095486Y1147731D02*
X1095785D01*
X1095448Y1147831D02*
X1096046D01*
X1095410Y1147931D02*
X1096306D01*
X1095371Y1148031D02*
X1096567D01*
X1095333Y1148131D02*
X1096827D01*
X1095295Y1148231D02*
X1097088D01*
X1095256Y1148331D02*
X1097348D01*
X1095218Y1148431D02*
X1097430D01*
X1095179Y1148531D02*
X1097392D01*
X1095141Y1148631D02*
X1097353D01*
X1095103Y1148731D02*
X1097315D01*
X1095064Y1148831D02*
X1097277D01*
X1095026Y1148931D02*
X1097238D01*
X1094987Y1149031D02*
X1097200D01*
X1094949Y1149131D02*
X1097161D01*
X1094911Y1149231D02*
X1097123D01*
X1094872Y1149331D02*
X1097085D01*
X1094834Y1149431D02*
X1097046D01*
X1094796Y1149531D02*
X1097008D01*
X1094757Y1149631D02*
X1096969D01*
X1094719Y1149731D02*
X1096931D01*
X1094680Y1149831D02*
X1096893D01*
X1094642Y1149931D02*
X1096854D01*
X1094604Y1150031D02*
X1096816D01*
X1094565Y1150131D02*
X1096777D01*
X1094527Y1150231D02*
X1096739D01*
X1094488Y1150331D02*
X1096701D01*
X1094450Y1150431D02*
X1096662D01*
X1094412Y1150531D02*
X1096624D01*
X1094373Y1150631D02*
X1096586D01*
X1094335Y1150731D02*
X1096547D01*
X1094296Y1150831D02*
X1096509D01*
X1094258Y1150931D02*
X1096470D01*
X1094220Y1151031D02*
X1096432D01*
X1094181Y1151131D02*
X1096394D01*
X1094143Y1151231D02*
X1096355D01*
X1094105Y1151331D02*
X1096317D01*
X1094168Y1151431D02*
X1096278D01*
X1094429Y1151531D02*
X1096240D01*
X1094689Y1151631D02*
X1096202D01*
X1094950Y1151731D02*
X1096163D01*
X1095210Y1151831D02*
X1096125D01*
X1095471Y1151931D02*
X1096087D01*
X1095731Y1152031D02*
X1096048D01*
X1095992Y1152131D02*
X1096010D01*
X1094079Y1151397D02*
X1094079D01*
X1094179Y1151137D02*
Y1151436D01*
X1094279Y1150876D02*
Y1151474D01*
X1094379Y1150616D02*
Y1151512D01*
X1094479Y1150355D02*
Y1151551D01*
X1094579Y1150095D02*
Y1151589D01*
X1094679Y1149834D02*
Y1151627D01*
X1094779Y1149574D02*
Y1151666D01*
X1094879Y1149313D02*
Y1151704D01*
X1094979Y1149053D02*
Y1151743D01*
X1095079Y1148792D02*
Y1151781D01*
X1095179Y1148532D02*
Y1151819D01*
X1095279Y1148271D02*
Y1151858D01*
X1095379Y1148011D02*
Y1151896D01*
X1095479Y1147750D02*
Y1151935D01*
X1095579Y1147652D02*
Y1151973D01*
X1095679Y1147690D02*
Y1152011D01*
X1095779Y1147729D02*
Y1152050D01*
X1095879Y1147767D02*
Y1152088D01*
X1095979Y1147806D02*
Y1152126D01*
X1096079Y1147844D02*
Y1151950D01*
X1096179Y1147882D02*
Y1151690D01*
X1096279Y1147921D02*
Y1151429D01*
X1096379Y1147959D02*
Y1151169D01*
X1096479Y1147998D02*
Y1150908D01*
X1096579Y1148036D02*
Y1150648D01*
X1096679Y1148074D02*
Y1150387D01*
X1096779Y1148113D02*
Y1150127D01*
X1096879Y1148151D02*
Y1149866D01*
X1096979Y1148189D02*
Y1149606D01*
X1097079Y1148228D02*
Y1149345D01*
X1097179Y1148266D02*
Y1149085D01*
X1097279Y1148305D02*
Y1148824D01*
X1097379Y1148343D02*
Y1148564D01*
X1251476Y1124690D02*
X1248872Y1121609D01*
X1250450Y1120276*
X1253054Y1123357*
X1251476Y1124690*
X1250450Y1120276D02*
X1250450D01*
X1250332Y1120376D02*
X1250534D01*
X1250213Y1120476D02*
X1250619D01*
X1250095Y1120576D02*
X1250703D01*
X1249977Y1120676D02*
X1250788D01*
X1249858Y1120776D02*
X1250872D01*
X1249740Y1120876D02*
X1250957D01*
X1249622Y1120976D02*
X1251041D01*
X1249503Y1121076D02*
X1251126D01*
X1249385Y1121176D02*
X1251210D01*
X1249267Y1121276D02*
X1251295D01*
X1249148Y1121376D02*
X1251379D01*
X1249030Y1121476D02*
X1251464D01*
X1248912Y1121576D02*
X1251548D01*
X1248929Y1121676D02*
X1251633D01*
X1249013Y1121776D02*
X1251718D01*
X1249098Y1121876D02*
X1251802D01*
X1249182Y1121976D02*
X1251887D01*
X1249267Y1122076D02*
X1251971D01*
X1249351Y1122176D02*
X1252056D01*
X1249436Y1122276D02*
X1252140D01*
X1249520Y1122376D02*
X1252225D01*
X1249605Y1122476D02*
X1252309D01*
X1249689Y1122576D02*
X1252394D01*
X1249774Y1122676D02*
X1252478D01*
X1249859Y1122776D02*
X1252563D01*
X1249943Y1122876D02*
X1252647D01*
X1250028Y1122976D02*
X1252732D01*
X1250112Y1123076D02*
X1252816D01*
X1250197Y1123176D02*
X1252901D01*
X1250281Y1123276D02*
X1252985D01*
X1250366Y1123376D02*
X1253031D01*
X1250450Y1123476D02*
X1252913D01*
X1250535Y1123576D02*
X1252794D01*
X1250619Y1123676D02*
X1252676D01*
X1250704Y1123776D02*
X1252558D01*
X1250788Y1123876D02*
X1252439D01*
X1250873Y1123976D02*
X1252321D01*
X1250957Y1124076D02*
X1252203D01*
X1251042Y1124176D02*
X1252084D01*
X1251126Y1124276D02*
X1251966D01*
X1251211Y1124376D02*
X1251848D01*
X1251295Y1124476D02*
X1251729D01*
X1251380Y1124576D02*
X1251611D01*
X1251464Y1124676D02*
X1251493D01*
X1248902Y1121583D02*
Y1121644D01*
X1249002Y1121499D02*
Y1121763D01*
X1249102Y1121414D02*
Y1121881D01*
X1249202Y1121330D02*
Y1121999D01*
X1249302Y1121245D02*
Y1122118D01*
X1249402Y1121161D02*
Y1122236D01*
X1249502Y1121076D02*
Y1122354D01*
X1249602Y1120992D02*
Y1122473D01*
X1249702Y1120907D02*
Y1122591D01*
X1249802Y1120823D02*
Y1122709D01*
X1249902Y1120738D02*
Y1122828D01*
X1250002Y1120654D02*
Y1122946D01*
X1250102Y1120569D02*
Y1123064D01*
X1250202Y1120485D02*
Y1123183D01*
X1250302Y1120400D02*
Y1123301D01*
X1250402Y1120316D02*
Y1123419D01*
X1250502Y1120338D02*
Y1123538D01*
X1250602Y1120456D02*
Y1123656D01*
X1250702Y1120574D02*
Y1123774D01*
X1250802Y1120693D02*
Y1123893D01*
X1250902Y1120811D02*
Y1124011D01*
X1251002Y1120929D02*
Y1124129D01*
X1251102Y1121048D02*
Y1124248D01*
X1251202Y1121166D02*
Y1124366D01*
X1251302Y1121284D02*
Y1124484D01*
X1251402Y1121403D02*
Y1124603D01*
X1251502Y1121521D02*
Y1124668D01*
X1251602Y1121639D02*
Y1124583D01*
X1251702Y1121758D02*
Y1124499D01*
X1251802Y1121876D02*
Y1124414D01*
X1251902Y1121994D02*
Y1124330D01*
X1252002Y1122113D02*
Y1124245D01*
X1252102Y1122231D02*
Y1124160D01*
X1252202Y1122349D02*
Y1124076D01*
X1252302Y1122468D02*
Y1123991D01*
X1252402Y1122586D02*
Y1123907D01*
X1252502Y1122704D02*
Y1123822D01*
X1252602Y1122823D02*
Y1123738D01*
X1252702Y1122941D02*
Y1123653D01*
X1252802Y1123059D02*
Y1123569D01*
X1252902Y1123178D02*
Y1123484D01*
X1253002Y1123296D02*
Y1123400D01*
X1344069Y1131977D02*
X1335678Y1140426D01*
X1329743Y1134532*
X1338134Y1126083*
X1344069Y1131977*
X1338134Y1126083D02*
X1338134D01*
X1338035Y1126183D02*
X1338235D01*
X1337936Y1126283D02*
X1338336D01*
X1337836Y1126383D02*
X1338437D01*
X1337737Y1126483D02*
X1338537D01*
X1337638Y1126583D02*
X1338638D01*
X1337539Y1126683D02*
X1338739D01*
X1337439Y1126783D02*
X1338839D01*
X1337340Y1126883D02*
X1338940D01*
X1337241Y1126983D02*
X1339041D01*
X1337141Y1127083D02*
X1339141D01*
X1337042Y1127183D02*
X1339242D01*
X1336943Y1127283D02*
X1339343D01*
X1336843Y1127383D02*
X1339443D01*
X1336744Y1127483D02*
X1339544D01*
X1336645Y1127583D02*
X1339645D01*
X1336545Y1127683D02*
X1339746D01*
X1336446Y1127783D02*
X1339846D01*
X1336347Y1127883D02*
X1339947D01*
X1336248Y1127983D02*
X1340048D01*
X1336148Y1128083D02*
X1340148D01*
X1336049Y1128183D02*
X1340249D01*
X1335950Y1128283D02*
X1340350D01*
X1335850Y1128383D02*
X1340450D01*
X1335751Y1128483D02*
X1340551D01*
X1335652Y1128583D02*
X1340652D01*
X1335552Y1128683D02*
X1340752D01*
X1335453Y1128783D02*
X1340853D01*
X1335354Y1128883D02*
X1340954D01*
X1335254Y1128983D02*
X1341055D01*
X1335155Y1129083D02*
X1341155D01*
X1335056Y1129183D02*
X1341256D01*
X1334956Y1129283D02*
X1341357D01*
X1334857Y1129383D02*
X1341457D01*
X1334758Y1129483D02*
X1341558D01*
X1334659Y1129583D02*
X1341659D01*
X1334559Y1129683D02*
X1341759D01*
X1334460Y1129783D02*
X1341860D01*
X1334361Y1129883D02*
X1341961D01*
X1334261Y1129983D02*
X1342061D01*
X1334162Y1130083D02*
X1342162D01*
X1334063Y1130183D02*
X1342263D01*
X1333963Y1130283D02*
X1342364D01*
X1333864Y1130383D02*
X1342464D01*
X1333765Y1130483D02*
X1342565D01*
X1333665Y1130583D02*
X1342666D01*
X1333566Y1130683D02*
X1342766D01*
X1333467Y1130783D02*
X1342867D01*
X1333367Y1130883D02*
X1342968D01*
X1333268Y1130983D02*
X1343068D01*
X1333169Y1131083D02*
X1343169D01*
X1333070Y1131183D02*
X1343270D01*
X1332970Y1131283D02*
X1343370D01*
X1332871Y1131383D02*
X1343471D01*
X1332772Y1131483D02*
X1343572D01*
X1332672Y1131583D02*
X1343673D01*
X1332573Y1131683D02*
X1343773D01*
X1332474Y1131783D02*
X1343874D01*
X1332374Y1131883D02*
X1343975D01*
X1332275Y1131983D02*
X1344064D01*
X1332176Y1132083D02*
X1343964D01*
X1332076Y1132183D02*
X1343865D01*
X1331977Y1132283D02*
X1343766D01*
X1331878Y1132383D02*
X1343666D01*
X1331779Y1132483D02*
X1343567D01*
X1331679Y1132583D02*
X1343468D01*
X1331580Y1132683D02*
X1343369D01*
X1331481Y1132783D02*
X1343269D01*
X1331381Y1132883D02*
X1343170D01*
X1331282Y1132983D02*
X1343071D01*
X1331183Y1133083D02*
X1342971D01*
X1331083Y1133183D02*
X1342872D01*
X1330984Y1133283D02*
X1342773D01*
X1330885Y1133383D02*
X1342673D01*
X1330785Y1133483D02*
X1342574D01*
X1330686Y1133583D02*
X1342475D01*
X1330587Y1133683D02*
X1342375D01*
X1330487Y1133783D02*
X1342276D01*
X1330388Y1133883D02*
X1342177D01*
X1330289Y1133983D02*
X1342077D01*
X1330190Y1134083D02*
X1341978D01*
X1330090Y1134183D02*
X1341879D01*
X1329991Y1134283D02*
X1341780D01*
X1329892Y1134383D02*
X1341680D01*
X1329792Y1134483D02*
X1341581D01*
X1329795Y1134583D02*
X1341482D01*
X1329895Y1134683D02*
X1341382D01*
X1329996Y1134783D02*
X1341283D01*
X1330097Y1134883D02*
X1341184D01*
X1330197Y1134983D02*
X1341084D01*
X1330298Y1135083D02*
X1340985D01*
X1330399Y1135183D02*
X1340886D01*
X1330499Y1135283D02*
X1340786D01*
X1330600Y1135383D02*
X1340687D01*
X1330701Y1135483D02*
X1340588D01*
X1330802Y1135583D02*
X1340488D01*
X1330902Y1135683D02*
X1340389D01*
X1331003Y1135783D02*
X1340290D01*
X1331104Y1135883D02*
X1340191D01*
X1331204Y1135983D02*
X1340091D01*
X1331305Y1136083D02*
X1339992D01*
X1331406Y1136183D02*
X1339893D01*
X1331506Y1136283D02*
X1339793D01*
X1331607Y1136383D02*
X1339694D01*
X1331708Y1136483D02*
X1339595D01*
X1331808Y1136583D02*
X1339495D01*
X1331909Y1136683D02*
X1339396D01*
X1332010Y1136783D02*
X1339297D01*
X1332111Y1136883D02*
X1339197D01*
X1332211Y1136983D02*
X1339098D01*
X1332312Y1137083D02*
X1338999D01*
X1332413Y1137183D02*
X1338899D01*
X1332513Y1137283D02*
X1338800D01*
X1332614Y1137383D02*
X1338701D01*
X1332715Y1137483D02*
X1338602D01*
X1332815Y1137583D02*
X1338502D01*
X1332916Y1137683D02*
X1338403D01*
X1333017Y1137783D02*
X1338304D01*
X1333117Y1137883D02*
X1338204D01*
X1333218Y1137983D02*
X1338105D01*
X1333319Y1138083D02*
X1338006D01*
X1333420Y1138183D02*
X1337906D01*
X1333520Y1138283D02*
X1337807D01*
X1333621Y1138383D02*
X1337708D01*
X1333722Y1138483D02*
X1337608D01*
X1333822Y1138583D02*
X1337509D01*
X1333923Y1138683D02*
X1337410D01*
X1334024Y1138783D02*
X1337311D01*
X1334124Y1138883D02*
X1337211D01*
X1334225Y1138983D02*
X1337112D01*
X1334326Y1139083D02*
X1337013D01*
X1334427Y1139183D02*
X1336913D01*
X1334527Y1139283D02*
X1336814D01*
X1334628Y1139383D02*
X1336715D01*
X1334729Y1139483D02*
X1336615D01*
X1334829Y1139583D02*
X1336516D01*
X1334930Y1139683D02*
X1336417D01*
X1335031Y1139783D02*
X1336317D01*
X1335131Y1139883D02*
X1336218D01*
X1335232Y1139983D02*
X1336119D01*
X1335333Y1140083D02*
X1336019D01*
X1335433Y1140183D02*
X1335920D01*
X1335534Y1140283D02*
X1335821D01*
X1335635Y1140383D02*
X1335722D01*
X1329802Y1134473D02*
Y1134590D01*
X1329902Y1134372D02*
Y1134690D01*
X1330002Y1134271D02*
Y1134789D01*
X1330102Y1134170D02*
Y1134888D01*
X1330202Y1134070D02*
Y1134988D01*
X1330302Y1133969D02*
Y1135087D01*
X1330402Y1133868D02*
Y1135186D01*
X1330502Y1133768D02*
Y1135286D01*
X1330602Y1133667D02*
Y1135385D01*
X1330702Y1133566D02*
Y1135484D01*
X1330802Y1133466D02*
Y1135584D01*
X1330902Y1133365D02*
Y1135683D01*
X1331002Y1133264D02*
Y1135782D01*
X1331102Y1133164D02*
Y1135881D01*
X1331202Y1133063D02*
Y1135981D01*
X1331302Y1132962D02*
Y1136080D01*
X1331402Y1132861D02*
Y1136179D01*
X1331502Y1132761D02*
Y1136279D01*
X1331602Y1132660D02*
Y1136378D01*
X1331702Y1132559D02*
Y1136477D01*
X1331802Y1132459D02*
Y1136577D01*
X1331902Y1132358D02*
Y1136676D01*
X1332002Y1132257D02*
Y1136775D01*
X1332102Y1132157D02*
Y1136875D01*
X1332202Y1132056D02*
Y1136974D01*
X1332302Y1131955D02*
Y1137073D01*
X1332402Y1131855D02*
Y1137172D01*
X1332502Y1131754D02*
Y1137272D01*
X1332602Y1131653D02*
Y1137371D01*
X1332702Y1131552D02*
Y1137470D01*
X1332802Y1131452D02*
Y1137570D01*
X1332902Y1131351D02*
Y1137669D01*
X1333002Y1131250D02*
Y1137768D01*
X1333102Y1131150D02*
Y1137868D01*
X1333202Y1131049D02*
Y1137967D01*
X1333302Y1130948D02*
Y1138066D01*
X1333402Y1130848D02*
Y1138166D01*
X1333502Y1130747D02*
Y1138265D01*
X1333602Y1130646D02*
Y1138364D01*
X1333702Y1130545D02*
Y1138464D01*
X1333802Y1130445D02*
Y1138563D01*
X1333902Y1130344D02*
Y1138662D01*
X1334002Y1130243D02*
Y1138761D01*
X1334102Y1130143D02*
Y1138861D01*
X1334202Y1130042D02*
Y1138960D01*
X1334302Y1129941D02*
Y1139059D01*
X1334402Y1129841D02*
Y1139159D01*
X1334502Y1129740D02*
Y1139258D01*
X1334602Y1129639D02*
Y1139357D01*
X1334702Y1129539D02*
Y1139457D01*
X1334802Y1129438D02*
Y1139556D01*
X1334902Y1129337D02*
Y1139655D01*
X1335002Y1129236D02*
Y1139755D01*
X1335102Y1129136D02*
Y1139854D01*
X1335202Y1129035D02*
Y1139953D01*
X1335302Y1128934D02*
Y1140053D01*
X1335402Y1128834D02*
Y1140152D01*
X1335502Y1128733D02*
Y1140251D01*
X1335602Y1128632D02*
Y1140350D01*
X1335702Y1128532D02*
Y1140402D01*
X1335802Y1128431D02*
Y1140301D01*
X1335902Y1128330D02*
Y1140201D01*
X1336002Y1128230D02*
Y1140100D01*
X1336102Y1128129D02*
Y1139999D01*
X1336202Y1128028D02*
Y1139899D01*
X1336302Y1127927D02*
Y1139798D01*
X1336402Y1127827D02*
Y1139697D01*
X1336502Y1127726D02*
Y1139596D01*
X1336602Y1127625D02*
Y1139496D01*
X1336702Y1127525D02*
Y1139395D01*
X1336802Y1127424D02*
Y1139294D01*
X1336902Y1127323D02*
Y1139194D01*
X1337002Y1127223D02*
Y1139093D01*
X1337102Y1127122D02*
Y1138992D01*
X1337202Y1127021D02*
Y1138892D01*
X1337302Y1126921D02*
Y1138791D01*
X1337402Y1126820D02*
Y1138690D01*
X1337502Y1126719D02*
Y1138590D01*
X1337602Y1126618D02*
Y1138489D01*
X1337702Y1126518D02*
Y1138388D01*
X1337802Y1126417D02*
Y1138287D01*
X1337902Y1126316D02*
Y1138187D01*
X1338002Y1126216D02*
Y1138086D01*
X1338102Y1126115D02*
Y1137985D01*
X1338202Y1126150D02*
Y1137885D01*
X1338302Y1126249D02*
Y1137784D01*
X1338402Y1126349D02*
Y1137683D01*
X1338502Y1126448D02*
Y1137583D01*
X1338602Y1126547D02*
Y1137482D01*
X1338702Y1126647D02*
Y1137381D01*
X1338802Y1126746D02*
Y1137281D01*
X1338902Y1126845D02*
Y1137180D01*
X1339002Y1126945D02*
Y1137079D01*
X1339102Y1127044D02*
Y1136978D01*
X1339202Y1127143D02*
Y1136878D01*
X1339302Y1127243D02*
Y1136777D01*
X1339402Y1127342D02*
Y1136676D01*
X1339502Y1127441D02*
Y1136576D01*
X1339602Y1127541D02*
Y1136475D01*
X1339702Y1127640D02*
Y1136374D01*
X1339802Y1127739D02*
Y1136274D01*
X1339902Y1127838D02*
Y1136173D01*
X1340002Y1127938D02*
Y1136072D01*
X1340102Y1128037D02*
Y1135971D01*
X1340202Y1128136D02*
Y1135871D01*
X1340302Y1128236D02*
Y1135770D01*
X1340402Y1128335D02*
Y1135669D01*
X1340502Y1128434D02*
Y1135569D01*
X1340602Y1128534D02*
Y1135468D01*
X1340702Y1128633D02*
Y1135367D01*
X1340802Y1128732D02*
Y1135267D01*
X1340902Y1128832D02*
Y1135166D01*
X1341002Y1128931D02*
Y1135065D01*
X1341102Y1129030D02*
Y1134965D01*
X1341202Y1129129D02*
Y1134864D01*
X1341302Y1129229D02*
Y1134763D01*
X1341402Y1129328D02*
Y1134662D01*
X1341502Y1129427D02*
Y1134562D01*
X1341602Y1129527D02*
Y1134461D01*
X1341702Y1129626D02*
Y1134360D01*
X1341802Y1129725D02*
Y1134260D01*
X1341902Y1129825D02*
Y1134159D01*
X1342002Y1129924D02*
Y1134058D01*
X1342102Y1130023D02*
Y1133958D01*
X1342202Y1130123D02*
Y1133857D01*
X1342302Y1130222D02*
Y1133756D01*
X1342402Y1130321D02*
Y1133656D01*
X1342502Y1130421D02*
Y1133555D01*
X1342602Y1130520D02*
Y1133454D01*
X1342702Y1130619D02*
Y1133353D01*
X1342802Y1130718D02*
Y1133253D01*
X1342902Y1130818D02*
Y1133152D01*
X1343002Y1130917D02*
Y1133051D01*
X1343102Y1131016D02*
Y1132951D01*
X1343202Y1131116D02*
Y1132850D01*
X1343302Y1131215D02*
Y1132749D01*
X1343402Y1131314D02*
Y1132649D01*
X1343502Y1131414D02*
Y1132548D01*
X1343602Y1131513D02*
Y1132447D01*
X1343702Y1131612D02*
Y1132347D01*
X1343802Y1131712D02*
Y1132246D01*
X1343902Y1131811D02*
Y1132145D01*
X1344002Y1131910D02*
Y1132044D01*
X1324461Y1173431D02*
Y1173427D01*
Y1173177*
X1324459Y1173162*
X1324452Y1173149*
X1324441Y1173138*
X1324428Y1173131*
X1324413Y1173129*
X1318413*
X1318398Y1173131*
X1318384Y1173138*
X1318374Y1173149*
X1318367Y1173162*
X1318364Y1173177*
Y1173427*
X1318365Y1173431*
X1318380Y1173568*
X1318402Y1173703*
X1318430Y1173837*
X1318464Y1173970*
X1318504Y1174101*
X1318549Y1174231*
X1318601Y1174358*
X1318658Y1174482*
X1318720Y1174604*
X1318788Y1174724*
X1318861Y1174839*
X1318940Y1174952*
X1319023Y1175061*
X1319111Y1175166*
X1319204Y1175267*
X1319301Y1175364*
X1319402Y1175456*
X1319507Y1175544*
X1319617Y1175627*
X1319729Y1175705*
X1319846Y1175778*
X1319965Y1175845*
X1320087Y1175907*
X1320212Y1175964*
X1320339Y1176015*
X1320469Y1176060*
X1320600Y1176099*
X1320733Y1176133*
X1320867Y1176160*
X1321003Y1176182*
X1321139Y1176197*
X1321276Y1176206*
X1321413Y1176209*
X1321550Y1176206*
X1321687Y1176197*
X1321823Y1176182*
X1321958Y1176160*
X1322093Y1176133*
X1322226Y1176099*
X1322357Y1176060*
X1322487Y1176015*
X1322614Y1175964*
X1322739Y1175907*
X1322861Y1175845*
X1322980Y1175778*
X1323096Y1175705*
X1323209Y1175627*
X1323318Y1175544*
X1323424Y1175456*
X1323525Y1175364*
X1323622Y1175267*
X1323715Y1175166*
X1323803Y1175061*
X1323886Y1174952*
X1323964Y1174839*
X1324038Y1174724*
X1324106Y1174604*
X1324168Y1174482*
X1324225Y1174358*
X1324276Y1174231*
X1324322Y1174101*
X1324362Y1173970*
X1324396Y1173837*
X1324424Y1173703*
X1324445Y1173568*
X1324461Y1173431*
X1318413Y1173129D02*
Y1173754D01*
X1318463Y1173129D02*
Y1173966D01*
X1318513Y1173129D02*
Y1174127D01*
X1318563Y1173129D02*
Y1174264D01*
X1318613Y1173129D02*
Y1174384D01*
X1318663Y1173129D02*
Y1174492D01*
X1318713Y1173129D02*
Y1174590D01*
X1318763Y1173129D02*
Y1174679D01*
X1318813Y1173129D02*
Y1174763D01*
X1318863Y1173129D02*
Y1174842D01*
X1318913Y1173129D02*
Y1174914D01*
X1318963Y1173129D02*
Y1174982D01*
X1319013Y1173129D02*
Y1175048D01*
X1319063Y1173129D02*
Y1175109D01*
X1319113Y1173129D02*
Y1175168D01*
X1319163Y1173129D02*
Y1175223D01*
X1319213Y1173129D02*
Y1175276D01*
X1319263Y1173129D02*
Y1175326D01*
X1319313Y1173129D02*
Y1175375D01*
X1319363Y1173129D02*
Y1175420D01*
X1319413Y1173129D02*
Y1175465D01*
X1319463Y1173129D02*
Y1175507D01*
X1319513Y1173129D02*
Y1175548D01*
X1319563Y1173129D02*
Y1175586D01*
X1319613Y1173129D02*
Y1175624D01*
X1319663Y1173129D02*
Y1175659D01*
X1319713Y1173129D02*
Y1175693D01*
X1319763Y1173129D02*
Y1175726D01*
X1319813Y1173129D02*
Y1175757D01*
X1319863Y1173129D02*
Y1175787D01*
X1319913Y1173129D02*
Y1175816D01*
X1319963Y1173129D02*
Y1175844D01*
X1320013Y1173129D02*
Y1175869D01*
X1320063Y1173129D02*
Y1175895D01*
X1320113Y1173129D02*
Y1175919D01*
X1320163Y1173129D02*
Y1175942D01*
X1320213Y1173129D02*
Y1175964D01*
X1320263Y1173129D02*
Y1175984D01*
X1320313Y1173129D02*
Y1176004D01*
X1320363Y1173129D02*
Y1176023D01*
X1320413Y1173129D02*
Y1176040D01*
X1320463Y1173129D02*
Y1176058D01*
X1320513Y1173129D02*
Y1176073D01*
X1320563Y1173129D02*
Y1176088D01*
X1320613Y1173129D02*
Y1176103D01*
X1320663Y1173129D02*
Y1176115D01*
X1320713Y1173129D02*
Y1176128D01*
X1320763Y1173129D02*
Y1176139D01*
X1320813Y1173129D02*
Y1176149D01*
X1320863Y1173129D02*
Y1176159D01*
X1320913Y1173129D02*
Y1176167D01*
X1320963Y1173129D02*
Y1176175D01*
X1321013Y1173129D02*
Y1176183D01*
X1321063Y1173129D02*
Y1176188D01*
X1321113Y1173129D02*
Y1176194D01*
X1321163Y1173129D02*
Y1176199D01*
X1321213Y1173129D02*
Y1176202D01*
X1321263Y1173129D02*
Y1176205D01*
X1321313Y1173129D02*
Y1176207D01*
X1321363Y1173129D02*
Y1176208D01*
X1321413Y1173129D02*
Y1176209D01*
X1321463Y1173129D02*
Y1176208D01*
X1321513Y1173129D02*
Y1176207D01*
X1321563Y1173129D02*
Y1176205D01*
X1321613Y1173129D02*
Y1176202D01*
X1321663Y1173129D02*
Y1176199D01*
X1321713Y1173129D02*
Y1176194D01*
X1321763Y1173129D02*
Y1176188D01*
X1321813Y1173129D02*
Y1176183D01*
X1321863Y1173129D02*
Y1176175D01*
X1321913Y1173129D02*
Y1176167D01*
X1321963Y1173129D02*
Y1176159D01*
X1322013Y1173129D02*
Y1176149D01*
X1322063Y1173129D02*
Y1176139D01*
X1322113Y1173129D02*
Y1176128D01*
X1322163Y1173129D02*
Y1176115D01*
X1322213Y1173129D02*
Y1176103D01*
X1322263Y1173129D02*
Y1176088D01*
X1322313Y1173129D02*
Y1176073D01*
X1322363Y1173129D02*
Y1176058D01*
X1322413Y1173129D02*
Y1176040D01*
X1322463Y1173129D02*
Y1176023D01*
X1322513Y1173129D02*
Y1176004D01*
X1322563Y1173129D02*
Y1175984D01*
X1322613Y1173129D02*
Y1175964D01*
X1322663Y1173129D02*
Y1175942D01*
X1322713Y1173129D02*
Y1175919D01*
X1322763Y1173129D02*
Y1175895D01*
X1322813Y1173129D02*
Y1175869D01*
X1322863Y1173129D02*
Y1175844D01*
X1322913Y1173129D02*
Y1175816D01*
X1322963Y1173129D02*
Y1175787D01*
X1323013Y1173129D02*
Y1175757D01*
X1323063Y1173129D02*
Y1175726D01*
X1323113Y1173129D02*
Y1175693D01*
X1323163Y1173129D02*
Y1175659D01*
X1323213Y1173129D02*
Y1175624D01*
X1323263Y1173129D02*
Y1175586D01*
X1323313Y1173129D02*
Y1175548D01*
X1323363Y1173129D02*
Y1175507D01*
X1323413Y1173129D02*
Y1175465D01*
X1323463Y1173129D02*
Y1175420D01*
X1323513Y1173129D02*
Y1175375D01*
X1323563Y1173129D02*
Y1175326D01*
X1323613Y1173129D02*
Y1175276D01*
X1323663Y1173129D02*
Y1175223D01*
X1323713Y1173129D02*
Y1175168D01*
X1323763Y1173129D02*
Y1175109D01*
X1323813Y1173129D02*
Y1175048D01*
X1323863Y1173129D02*
Y1174982D01*
X1323913Y1173129D02*
Y1174914D01*
X1323963Y1173129D02*
Y1174842D01*
X1324013Y1173129D02*
Y1174763D01*
X1324063Y1173129D02*
Y1174679D01*
X1324113Y1173129D02*
Y1174590D01*
X1324163Y1173129D02*
Y1174492D01*
X1324213Y1173129D02*
Y1174384D01*
X1324263Y1173129D02*
Y1174264D01*
X1324313Y1173129D02*
Y1174127D01*
X1324363Y1173129D02*
Y1173966D01*
X1324413Y1173129D02*
Y1173754D01*
Y1171825D02*
X1324428Y1171823D01*
X1324441Y1171816*
X1324452Y1171805*
X1324459Y1171792*
X1324461Y1171777*
Y1171527*
Y1171522*
X1324445Y1171387*
X1324422Y1171252*
X1324394Y1171118*
X1324360Y1170986*
X1324319Y1170855*
X1324273Y1170726*
X1324222Y1170600*
X1324165Y1170475*
X1324102Y1170354*
X1324034Y1170235*
X1323960Y1170120*
X1323882Y1170008*
X1323798Y1169900*
X1323710Y1169795*
X1323618Y1169695*
X1323521Y1169598*
X1323419Y1169506*
X1323314Y1169419*
X1323205Y1169337*
X1323092Y1169259*
X1322976Y1169187*
X1322857Y1169120*
X1322735Y1169058*
X1322611Y1169002*
X1322484Y1168951*
X1322355Y1168906*
X1322224Y1168867*
X1322091Y1168834*
X1321957Y1168806*
X1321822Y1168785*
X1321686Y1168770*
X1321550Y1168761*
X1321413Y1168758*
X1321276Y1168761*
X1321140Y1168770*
X1321004Y1168785*
X1320869Y1168806*
X1320735Y1168834*
X1320602Y1168867*
X1320471Y1168906*
X1320342Y1168951*
X1320215Y1169002*
X1320091Y1169058*
X1319969Y1169120*
X1319849Y1169187*
X1319733Y1169259*
X1319621Y1169337*
X1319512Y1169419*
X1319406Y1169506*
X1319305Y1169598*
X1319208Y1169695*
X1319115Y1169795*
X1319027Y1169900*
X1318944Y1170008*
X1318866Y1170120*
X1318792Y1170235*
X1318724Y1170354*
X1318661Y1170475*
X1318604Y1170600*
X1318552Y1170726*
X1318506Y1170855*
X1318466Y1170986*
X1318432Y1171118*
X1318403Y1171252*
X1318381Y1171387*
X1318365Y1171522*
X1318364Y1171527*
Y1171777*
X1318367Y1171792*
X1318374Y1171805*
X1318384Y1171816*
X1318398Y1171823*
X1318413Y1171825*
X1324413*
X1318413Y1171207D02*
Y1171825D01*
X1318463Y1170998D02*
Y1171825D01*
X1318513Y1170836D02*
Y1171825D01*
X1318563Y1170700D02*
Y1171825D01*
X1318613Y1170580D02*
Y1171825D01*
X1318663Y1170472D02*
Y1171825D01*
X1318713Y1170375D02*
Y1171825D01*
X1318763Y1170286D02*
Y1171825D01*
X1318813Y1170203D02*
Y1171825D01*
X1318863Y1170124D02*
Y1171825D01*
X1318913Y1170052D02*
Y1171825D01*
X1318963Y1169983D02*
Y1171825D01*
X1319013Y1169918D02*
Y1171825D01*
X1319063Y1169857D02*
Y1171825D01*
X1319113Y1169798D02*
Y1171825D01*
X1319163Y1169744D02*
Y1171825D01*
X1319213Y1169690D02*
Y1171825D01*
X1319263Y1169640D02*
Y1171825D01*
X1319313Y1169591D02*
Y1171825D01*
X1319363Y1169546D02*
Y1171825D01*
X1319413Y1169501D02*
Y1171825D01*
X1319463Y1169460D02*
Y1171825D01*
X1319513Y1169418D02*
Y1171825D01*
X1319563Y1169380D02*
Y1171825D01*
X1319613Y1169343D02*
Y1171825D01*
X1319663Y1169308D02*
Y1171825D01*
X1319713Y1169273D02*
Y1171825D01*
X1319763Y1169241D02*
Y1171825D01*
X1319813Y1169210D02*
Y1171825D01*
X1319863Y1169179D02*
Y1171825D01*
X1319913Y1169151D02*
Y1171825D01*
X1319963Y1169123D02*
Y1171825D01*
X1320013Y1169097D02*
Y1171825D01*
X1320063Y1169072D02*
Y1171825D01*
X1320113Y1169048D02*
Y1171825D01*
X1320163Y1169025D02*
Y1171825D01*
X1320213Y1169003D02*
Y1171825D01*
X1320263Y1168982D02*
Y1171825D01*
X1320313Y1168963D02*
Y1171825D01*
X1320363Y1168944D02*
Y1171825D01*
X1320413Y1168926D02*
Y1171825D01*
X1320463Y1168909D02*
Y1171825D01*
X1320513Y1168894D02*
Y1171825D01*
X1320563Y1168879D02*
Y1171825D01*
X1320613Y1168864D02*
Y1171825D01*
X1320663Y1168852D02*
Y1171825D01*
X1320713Y1168839D02*
Y1171825D01*
X1320763Y1168828D02*
Y1171825D01*
X1320813Y1168818D02*
Y1171825D01*
X1320863Y1168808D02*
Y1171825D01*
X1320913Y1168799D02*
Y1171825D01*
X1320963Y1168792D02*
Y1171825D01*
X1321013Y1168784D02*
Y1171825D01*
X1321063Y1168778D02*
Y1171825D01*
X1321113Y1168773D02*
Y1171825D01*
X1321163Y1168768D02*
Y1171825D01*
X1321213Y1168765D02*
Y1171825D01*
X1321263Y1168762D02*
Y1171825D01*
X1321313Y1168760D02*
Y1171825D01*
X1321363Y1168759D02*
Y1171825D01*
X1321413Y1168758D02*
Y1171825D01*
X1321463Y1168759D02*
Y1171825D01*
X1321513Y1168760D02*
Y1171825D01*
X1321563Y1168762D02*
Y1171825D01*
X1321613Y1168765D02*
Y1171825D01*
X1321663Y1168768D02*
Y1171825D01*
X1321713Y1168773D02*
Y1171825D01*
X1321763Y1168778D02*
Y1171825D01*
X1321813Y1168784D02*
Y1171825D01*
X1321863Y1168792D02*
Y1171825D01*
X1321913Y1168799D02*
Y1171825D01*
X1321963Y1168808D02*
Y1171825D01*
X1322013Y1168818D02*
Y1171825D01*
X1322063Y1168828D02*
Y1171825D01*
X1322113Y1168839D02*
Y1171825D01*
X1322163Y1168852D02*
Y1171825D01*
X1322213Y1168864D02*
Y1171825D01*
X1322263Y1168879D02*
Y1171825D01*
X1322313Y1168894D02*
Y1171825D01*
X1322363Y1168909D02*
Y1171825D01*
X1322413Y1168926D02*
Y1171825D01*
X1322463Y1168944D02*
Y1171825D01*
X1322513Y1168963D02*
Y1171825D01*
X1322563Y1168982D02*
Y1171825D01*
X1322613Y1169003D02*
Y1171825D01*
X1322663Y1169025D02*
Y1171825D01*
X1322713Y1169048D02*
Y1171825D01*
X1322763Y1169072D02*
Y1171825D01*
X1322813Y1169097D02*
Y1171825D01*
X1322863Y1169123D02*
Y1171825D01*
X1322913Y1169151D02*
Y1171825D01*
X1322963Y1169179D02*
Y1171825D01*
X1323013Y1169210D02*
Y1171825D01*
X1323063Y1169241D02*
Y1171825D01*
X1323113Y1169273D02*
Y1171825D01*
X1323163Y1169308D02*
Y1171825D01*
X1323213Y1169343D02*
Y1171825D01*
X1323263Y1169380D02*
Y1171825D01*
X1323313Y1169418D02*
Y1171825D01*
X1323363Y1169460D02*
Y1171825D01*
X1323413Y1169501D02*
Y1171825D01*
X1323463Y1169546D02*
Y1171825D01*
X1323513Y1169591D02*
Y1171825D01*
X1323563Y1169640D02*
Y1171825D01*
X1323613Y1169690D02*
Y1171825D01*
X1323663Y1169744D02*
Y1171825D01*
X1323713Y1169798D02*
Y1171825D01*
X1323763Y1169857D02*
Y1171825D01*
X1323813Y1169918D02*
Y1171825D01*
X1323863Y1169983D02*
Y1171825D01*
X1323913Y1170052D02*
Y1171825D01*
X1323963Y1170124D02*
Y1171825D01*
X1324013Y1170203D02*
Y1171825D01*
X1324063Y1170286D02*
Y1171825D01*
X1324113Y1170376D02*
Y1171825D01*
X1324163Y1170472D02*
Y1171825D01*
X1324213Y1170580D02*
Y1171825D01*
X1324263Y1170700D02*
Y1171825D01*
X1324313Y1170836D02*
Y1171825D01*
X1324363Y1170998D02*
Y1171825D01*
X1324413Y1171207D02*
Y1171825D01*
X1051433Y1336707D02*
G75*
G03X1050724Y1335195I1260J-1512D01*
G01Y1319427*
X1055449*
Y1305961*
X1050724*
Y1249091*
G03X1052693Y1247122I1969J-0*
G01X1062535*
X1064504Y1245154D02*
G03X1062535Y1247122I-1969J-0D01*
G01X1064504Y1245154D02*
Y1208146D01*
X1062535Y1206177D02*
G03X1064504Y1208146I0J1969D01*
G01X1062535Y1206177D02*
X1052693D01*
G03X1050724Y1204209I-0J-1968*
G01Y1120222*
X1055449*
Y1106756*
X1050724*
Y1023894*
G03X1070409Y1004209I19685J-0*
G01X1220832*
G03X1222224Y1004785I-0J1968*
G01X1238345Y1020907*
G03Y1023691I-1392J1392*
G01X1234726Y1027310*
Y1030094D02*
G03Y1027310I1392J-1392D01*
G01Y1030094D02*
X1331106Y1126508D01*
X1333224Y1126155D02*
G03X1331105Y1126508I-1264J-1053D01*
G01X1333225Y1126153D02*
X1336415Y1122887D01*
X1336414Y1122888D02*
G03X1338696Y1123392I868J1490D01*
G01X1338698Y1123393D02*
X1365502Y1150204D01*
X1359984Y1155780*
X1363580Y1159376*
X1369134Y1153817*
X1382617Y1167297*
X1382618D02*
G03X1383638Y1168899I-1643J2173D01*
G01X1383645Y1169009D02*
G03X1354680Y1286053I-198968J12866D01*
G01X1354826Y1285814D02*
G03X1353229Y1286764I-1686J-1017D01*
G01X1300008Y1289168*
G03X1298594Y1288657I-86J-1975*
G01X1195067Y1339604D02*
G03X1298598Y1288661I61799J-5080D01*
G01X1195068Y1339624D02*
G03X1194612Y1341054I-1963J161D01*
G01X1194611Y1341055D02*
X1162307Y1379332D01*
X1162303Y1379336D02*
G03X1155275Y1382062I-6014J-5082D01*
G01X1155162Y1382047D02*
G03X1051218Y1336528I26114J-201067D01*
G01X1051432Y1336707D02*
X1051432D01*
X1181149Y1338317D02*
G03X1181149I-8465J0D01*
G01X1345043Y1207097D02*
G03X1345043I-8464J0D01*
G01X1134610Y1033551D02*
G03X1134610I-8464J0D01*
G01X1254020Y1131760D02*
X1261445Y1125531D01*
X1249860Y1111678D02*
G03X1261450Y1125539I-58002J60273D01*
G01X1249831Y1111650D02*
X1242378Y1117886D01*
X1242397Y1117904D02*
G03X1254005Y1131738I-53976J57078D01*
G01X1096150Y1159559D02*
G03X1102345Y1142586I78167J18911D01*
G01X1102339Y1142598D02*
X1093201Y1139224D01*
X1087008Y1156267D02*
G03X1093174Y1139281I92101J23819D01*
G01X1087004Y1156283D02*
X1096142Y1159594D01*
X1207021Y1274985D02*
G03X1189231Y1278122I-24608J-87546D01*
G01X1207094Y1274965D02*
X1205382Y1265386D01*
X1205336Y1265399D02*
G03X1187545Y1268536I-24073J-84511D01*
G01X1187551Y1268535D02*
X1189232Y1278122D01*
X1170802Y1107477D02*
G03X1170802I-2461J0D01*
G01X1196731Y1254491D02*
G03X1196731I-2461J0D01*
G54D478*
G01X1059031Y1198142D03*
X1105476Y1352949D03*
X1359110Y1232118D03*
X1204236Y1228630D03*
X1217717Y1228429D03*
X1287008Y1122441D03*
X1359122Y1259953D03*
X1360197Y1180551D03*
X1216535Y1050000D03*
X1170114Y1085063D03*
X1146902Y1235421D03*
Y1249197D03*
X1366992Y1246075D03*
X1233976Y1228429D03*
X1248850D03*
X1280445Y1222929D03*
X1223513Y1148571D03*
X1175657Y1258382D03*
X1187102Y1264327D03*
X1070709Y1241142D03*
Y1230189D03*
Y1219500D03*
Y1208724D03*
X1106756Y1050118D03*
X1161508Y1060339D03*
X1181102Y1280795D03*
X1164866Y1272516D03*
X1165398Y1293205D03*
X1097571Y1352949D03*
X1089717D03*
X1122047D03*
X1110606Y1215071D03*
X1150106Y1174272D03*
X1257594Y1076441D03*
G54D479*
X1161247Y1203359D03*
Y1209359D03*
X1179134Y1083469D03*
Y1077469D03*
X1162379Y1083469D03*
Y1077469D03*
X1172047Y1157724D03*
Y1151724D03*
X1169142Y1215748D03*
X1163142D03*
X1097350Y1251189D03*
X1091350D03*
X1225197Y1091976D03*
Y1085976D03*
X1179139Y1151616D03*
Y1157616D03*
X1131740Y1153937D03*
X1125740D03*
X1169323Y1209437D03*
Y1203437D03*
X1097350Y1244329D03*
X1091350D03*
G54D480*
X1068027Y1094482D03*
Y1079482D03*
G54D481*
X1321413Y1174677D03*
Y1170277D03*
G54D483*
X1093701Y1233992D03*
Y1229092D03*
Y1224192D03*
Y1219292D03*
X1357480Y1250963D03*
Y1246063D03*
Y1241163D03*
G54D484*
X1081701Y1243965D03*
Y1209319D03*
X1237795Y1252157D03*
X1203150D03*
G54D485*
X1214501Y1092003D03*
Y1082803D03*
X1100393Y1259280D03*
X1091193D03*
X1273773Y1136220D03*
X1264573D03*
G54D486*
X1144449Y1270748D03*
X1136575D03*
X1128701D03*
X1120827D03*
X1112953D03*
X1105079D03*
X1097205D03*
X1089331D03*
X1089724Y1343189D03*
X1097598D03*
X1105472D03*
X1113346D03*
X1137598D03*
X1145472D03*
G54D488*
X1174990Y1246846D03*
X1179890D03*
X1184790D03*
X1227822Y1240157D03*
X1222922D03*
X1218022D03*
X1213122D03*
G54D489*
X1194890Y1234846D03*
X1164890D03*
G54D528*
X1314920Y1275855D03*
X1318673Y1266587D03*
X1322427Y1257318D03*
G54D550*
X1219038Y1041339D02*
X1225512Y1047813D01*
X1234742Y1038583*
X1228268Y1032109*
X1219038Y1041339*
X1217425Y1026372D02*
X1223899Y1032846D01*
X1234323Y1022526*
X1227849Y1016052*
X1217425Y1026372*
X1352579Y1173195D02*
X1361415Y1164358D01*
X1355335Y1158278*
X1346498Y1167114*
X1352579Y1173195*
X1361022Y1168311D02*
X1367102Y1174391D01*
X1376923Y1164571*
X1370843Y1158490*
X1361022Y1168311*
X1222033Y1038343D02*
X1234503D01*
X1221253Y1039123D02*
X1234202D01*
X1222812Y1037564D02*
X1233723D01*
X1220474Y1039902D02*
X1233422D01*
X1223592Y1036784D02*
X1232944D01*
X1219694Y1040682D02*
X1232643D01*
X1224371Y1036005D02*
X1232164D01*
X1219161Y1041462D02*
X1231863D01*
X1225151Y1035225D02*
X1231385D01*
X1219940Y1042241D02*
X1231083D01*
X1225930Y1034446D02*
X1230605D01*
X1220720Y1043021D02*
X1230304D01*
X1226710Y1033666D02*
X1229825D01*
X1221499Y1043800D02*
X1229524D01*
X1227490Y1032887D02*
X1229046D01*
X1222279Y1044580D02*
X1228745D01*
X1223058Y1045359D02*
X1227965D01*
X1223838Y1046139D02*
X1227186D01*
X1224617Y1046918D02*
X1226406D01*
X1225397Y1047698D02*
X1225627D01*
X1221551Y1022287D02*
X1234084D01*
X1220764Y1023066D02*
X1233777D01*
X1222338Y1021507D02*
X1233304D01*
X1219976Y1023846D02*
X1232990D01*
X1223126Y1020728D02*
X1232525D01*
X1219189Y1024625D02*
X1232203D01*
X1223913Y1019948D02*
X1231745D01*
X1218402Y1025405D02*
X1231415D01*
X1224701Y1019169D02*
X1230966D01*
X1217614Y1026184D02*
X1230628D01*
X1225488Y1018389D02*
X1230186D01*
X1218017Y1026964D02*
X1229840D01*
X1226275Y1017610D02*
X1229407D01*
X1218797Y1027743D02*
X1229053D01*
X1227063Y1016830D02*
X1228627D01*
X1219576Y1028523D02*
X1228266D01*
X1220356Y1029303D02*
X1227478D01*
X1221135Y1030082D02*
X1226691D01*
X1221915Y1030862D02*
X1225903D01*
X1222694Y1031641D02*
X1225116D01*
X1223474Y1032421D02*
X1224329D01*
X1349100Y1164513D02*
X1361261D01*
X1349879Y1163733D02*
X1360790D01*
X1348320Y1165292D02*
X1360481D01*
X1350659Y1162954D02*
X1360010D01*
X1347541Y1166072D02*
X1359702D01*
X1351438Y1162174D02*
X1359231D01*
X1346761Y1166851D02*
X1358922D01*
X1352218Y1161395D02*
X1358451D01*
X1347015Y1167631D02*
X1358143D01*
X1352997Y1160615D02*
X1357672D01*
X1347794Y1168410D02*
X1357363D01*
X1353777Y1159836D02*
X1356892D01*
X1348574Y1169190D02*
X1356583D01*
X1354556Y1159056D02*
X1356113D01*
X1349354Y1169969D02*
X1355804D01*
X1350133Y1170749D02*
X1355024D01*
X1350913Y1171528D02*
X1354245D01*
X1351692Y1172308D02*
X1353465D01*
X1352472Y1173088D02*
X1352686D01*
X1364608Y1164725D02*
X1376769D01*
X1365387Y1163946D02*
X1376298D01*
X1363828Y1165505D02*
X1375989D01*
X1366167Y1163166D02*
X1375518D01*
X1363049Y1166284D02*
X1375209D01*
X1366946Y1162387D02*
X1374739D01*
X1362269Y1167064D02*
X1374430D01*
X1367726Y1161607D02*
X1373959D01*
X1361490Y1167843D02*
X1373650D01*
X1368505Y1160828D02*
X1373180D01*
X1361334Y1168623D02*
X1372871D01*
X1369285Y1160048D02*
X1372400D01*
X1362113Y1169402D02*
X1372091D01*
X1370064Y1159269D02*
X1371621D01*
X1362893Y1170182D02*
X1371312D01*
X1363672Y1170962D02*
X1370532D01*
X1364452Y1171741D02*
X1369753D01*
X1365231Y1172521D02*
X1368973D01*
X1366011Y1173300D02*
X1368194D01*
X1366791Y1174080D02*
X1367414D01*
G54D582*
X1146755Y1368789D02*
X1143969Y1375305D01*
G54D583*
X1302665Y1139795D03*
G54D584*
X1307685Y1147851D03*
X1297646D03*
X1297646D03*
G54D585*
X1308669Y1195665D03*
G54D587*
X1307092Y1223095D03*
X1299092D03*
X1303092Y1231095D03*
X1199573Y1083341D03*
X1191573D03*
X1195573Y1091341D03*
G54D588*
X1145787Y1350394D03*
X1142402D03*
X1145787Y1362205D03*
X1142402D03*
G54D589*
X1301385Y1214398D03*
Y1208887D03*
X1105740Y1063361D03*
Y1057849D03*
X1336042Y1236493D03*
Y1230982D03*
X1150071Y1083471D03*
Y1077959D03*
X1156101Y1083367D03*
Y1077855D03*
X1149157Y1059361D03*
Y1064873D03*
X1283465Y1153543D03*
Y1159055D03*
X1141439Y1059361D03*
Y1064873D03*
X1164173Y1158268D03*
Y1152756D03*
G54D590*
X1291877Y1226871D03*
X1288491D03*
X1288564Y1222406D03*
X1291950D03*
G54D591*
X1323038Y1247008D03*
X1328550D03*
X1212598Y1172441D03*
X1207087D03*
X1212598Y1178346D03*
X1207087D03*
X1136614Y1174409D03*
X1142126D03*
G54D593*
X1127488Y1066446D03*
Y1060147D03*
X1068679Y1057455D03*
Y1063754D03*
X1092227Y1092126D03*
Y1085827D03*
X1123824Y1092156D03*
Y1085857D03*
G54D597*
X1328573Y1239002D03*
Y1231002D03*
X1320573Y1235002D03*
X1096390Y1064594D03*
Y1056594D03*
X1088390Y1060594D03*
G54D598*
X1101354Y1092414D03*
Y1085722D03*
X1077725Y1057258D03*
Y1063951D03*
X1289125Y1142712D03*
Y1136019D03*
X1125591Y1169488D03*
Y1162795D03*
X1117924Y1066643D03*
Y1059950D03*
X1152659Y1210060D03*
Y1203367D03*
G54D599*
X1068898Y1312598D03*
Y1113386D03*
G54D601*
X1145669Y1358299D03*
Y1354299D03*
G54D603*
X1074606Y1171260D03*
X1096654Y1181102D03*
X1074606Y1190945D03*
G54D605*
X1080571Y1199409D03*
Y1181299D03*
X1089626Y1199409D03*
Y1181299D03*
G54D606*
X1141504Y1072420D03*
X1137764D03*
X1134024D03*
Y1083444D03*
X1141504D03*
G54D607*
X1134258Y1099703D03*
X1140557D03*
G54D608*
X1140556Y1092138D03*
X1133863D03*
X1083965Y1079422D03*
X1077272D03*
X1339145Y1181267D03*
X1345837D03*
X1116072Y1093516D03*
X1109380D03*
X1117406Y1074300D03*
X1124099D03*
X1077201Y1094365D03*
X1083894D03*
G54D609*
X1125591Y1191929D03*
X1103543D03*
G54D610*
X1345480Y1231063D03*
Y1261063D03*
G54D612*
X1074802Y1141422D03*
X1064028D03*
X1074693Y1154306D03*
X1063919D03*
G54D616*
X1156711Y1170120D03*
X1207959Y1184963D03*
G54D622*
X1296661Y1195665D03*
X1296661D03*
G54D627*
X1196850Y1169291D03*
X1194350D03*
X1191850D03*
X1189350D03*
X1186850D03*
X1184350D03*
X1181850D03*
X1179350D03*
X1176850D03*
X1174350D03*
X1171850D03*
X1169350D03*
X1166850D03*
X1164350D03*
Y1193307D03*
X1166850D03*
X1169350D03*
X1171850D03*
X1174350D03*
X1176850D03*
X1179350D03*
X1181850D03*
X1184350D03*
X1186850D03*
X1189350D03*
X1191850D03*
X1194350D03*
X1196850D03*
G74*
X0Y0D02*
M02*
