*
*
G04 PADS VX.2.4 Build Number: 11282995 generated Gerber (RS-274-X) file*
G04 PC Version=2.1*
*
%IN "XP02-主板-210422-1(1).p"*%
*
%MOIN*%
*
%FSLAX35Y35*%
*
*
*
*
G04 PC Standard Apertures*
*
*
G04 Thermal Relief Aperture macro.*
%AMTER*
1,1,$1,0,0*
1,0,$1-$2,0,0*
21,0,$3,$4,0,0,45*
21,0,$3,$4,0,0,135*
%
*
*
G04 Annular Aperture macro.*
%AMANN*
1,1,$1,0,0*
1,0,$2,0,0*
%
*
*
G04 Odd Aperture macro.*
%AMODD*
1,1,$1,0,0*
1,0,$1-0.005,0,0*
%
*
*
G04 PC Custom Aperture Macros*
*
*
*
*
*
*
G04 PC Aperture Table*
*
%ADD013C,0.01*%
%ADD109C,0.001*%
%ADD496C,0.07283*%
%ADD497C,0.0689*%
%ADD498C,0.06197*%
%ADD502O,0.07283X0.03197*%
%ADD503R,0.09197X0.08197*%
%ADD504O,0.0689X0.05315*%
%ADD505C,0.08071*%
%ADD506C,0.06496*%
%ADD508R,0.08697X0.12197*%
%ADD509C,0.12008*%
%ADD510C,0.04921*%
%ADD511R,0.10827X0.06102*%
%ADD512R,0.04134X0.06496*%
%ADD513C,0.05134*%
%ADD514C,0.04134*%
%ADD515O,0.06496X0.04528*%
%ADD516R,0.13976X0.06496*%
%ADD517C,0.07283*%
%ADD518R,0.03397X0.03397*%
%ADD519R,0.05197X0.05197*%
%ADD521O,0.03197X0.07283*%
%ADD522R,0.08197X0.09197*%
%ADD529R,0.04697X0.04197*%
%ADD538R,0.03597X0.05197*%
%ADD539C,0.01697*%
%ADD545R,0.08071X0.19882*%
%ADD558O,0.10039X0.13976*%
%ADD573R,0.05709X0.05709*%
*
*
*
*
G04 PC Circuitry*
G04 Layer Name XP02-主板-210422-1(1).p - circuitry*
%LPD*%
*
*
G04 PC Custom Flashes*
G04 Layer Name XP02-主板-210422-1(1).p - flashes*
%LPD*%
*
*
G04 PC Circuitry*
G04 Layer Name XP02-主板-210422-1(1).p - circuitry*
%LPD*%
*
G54D13*
G01X220542Y550157D02*
X217496Y553213D01*
X215694Y551418*
X218741Y548362*
X220542Y550157*
X218105Y549000D02*
X219381D01*
X217108Y550000D02*
X220384D01*
X216111Y551000D02*
X219702D01*
X216278Y552000D02*
X218705D01*
X217282Y553000D02*
X217708D01*
X215694Y551418D02*
X215694D01*
X216694Y550415D02*
Y552415D01*
X217694Y549412D02*
Y553014D01*
X218694Y548408D02*
Y552011D01*
X219694Y549313D02*
Y551008D01*
X215802Y545432D02*
X212755Y548488D01*
X210954Y546693*
X214000Y543637*
X215802Y545432*
X213639Y544000D02*
X214365D01*
X212642Y545000D02*
X215368D01*
X211645Y546000D02*
X215236D01*
X211262Y547000D02*
X214239D01*
X212265Y548000D02*
X213242D01*
X210954Y546693D02*
X210954D01*
X211954Y545690D02*
Y547690D01*
X212954Y544687D02*
Y548289D01*
X213954Y543683D02*
Y547286D01*
X214954Y544588D02*
Y546283D01*
X294296Y279322D02*
X300193D01*
Y289019*
X298880*
X298760Y289058*
X298657Y289133*
X298582Y289236*
X298543Y289357*
Y296319*
X295946*
Y289357*
X295906Y289236*
X295832Y289133*
X295729Y289058*
X295608Y289019*
X294296*
Y279322*
X294744D02*
Y289019D01*
X295244Y279322D02*
Y289019D01*
X295744Y279322D02*
Y289069D01*
X296244Y279322D02*
Y296319D01*
X296744Y279322D02*
Y296319D01*
X297244Y279322D02*
Y296319D01*
X297744Y279322D02*
Y296319D01*
X298244Y279322D02*
Y296319D01*
X298744Y279322D02*
Y289069D01*
X299244Y279322D02*
Y289019D01*
X299744Y279322D02*
Y289019D01*
G54D109*
X485400Y296063D02*
G75*
G03X487336Y297673I-0J1969D01*
G01X508477Y313699D02*
G03X487338Y297682I-1784J-19605D01*
G01X508483Y313698D02*
X508482D01*
X508483D02*
G03X510630Y315658I178J1960D01*
G01Y573622*
G03X508661Y575591I-1969J0*
G01X449208*
G03X446424Y574437I-0J-3937*
G01X417673Y545687*
X413869*
X385118Y574437*
G03X382334Y575591I-2784J-2783*
G01X366136*
Y571285*
X348112*
Y575591*
X237351*
G03X234567Y574437I-0J-3937*
G01X205816Y545687*
X202012*
X173261Y574437*
G03X170477Y575591I-2784J-2783*
G01X111024*
G03X109055Y573622I-0J-1969*
G01Y384646*
G03X111024Y382677I1969J-0*
G01X154331*
Y322646*
X133531*
Y318833*
X125528*
Y334646*
X123559Y336614*
X113319*
X111350Y334646*
Y314848*
X113319Y312879*
X133528*
Y308857*
X154331*
Y270472*
G03X156299Y268504I1968J0*
G01X445669*
G03X447517Y269793I0J1968*
G01X485197Y296063D02*
G03X447509Y269772I-0J-40157D01*
G01X485197Y296063D02*
X485400D01*
X125394Y553937D02*
G03X125394I-4528J0D01*
G01X123228Y565748D02*
G03X123228I-2362J0D01*
G01X503346Y561811D02*
G03X503346I-4527J0D01*
G01X489370D02*
G03X489370I-2362J0D01*
G01X275000Y292126D02*
G03X275000I-4528J0D01*
G01X272835Y280315D02*
G03X272835I-2363J0D01*
G01X127699Y539764D02*
X161811D01*
Y517717*
X127699*
Y539764*
X464173Y547955D02*
X488798D01*
Y532896*
X464173*
Y547955*
X196510Y477041D02*
X205583Y469360D01*
X195970Y458051*
X186919Y465717*
X196510Y477043*
X196531Y477025*
X196510Y477041*
X337690Y357948D02*
X346103Y350824D01*
X336578Y339443*
X328165Y346567*
X337690Y357948*
X361909Y488510D02*
X381890D01*
X381890D02*
Y422129D01*
X391908Y400746*
Y338976*
X396281*
Y400875*
X385869Y424456*
Y504331*
X381890*
Y492913*
X361909*
Y488510*
X273597Y342591D02*
X276555Y342740D01*
X277064Y335478*
X274109Y335329*
X273597Y342591*
G54D496*
X432787Y371323D03*
X409252Y358472D03*
G54D497*
X442630Y371323D03*
X419094Y358472D03*
G54D498*
X458071Y446457D03*
X498228D03*
X373930Y566907D03*
X285761Y567302D03*
X351969Y519685D03*
X389764Y541732D03*
X329921Y500787D03*
G54D502*
X122866Y487269D03*
Y482369D03*
Y477469D03*
G54D503*
X134166Y466969D03*
X134266Y497769D03*
G54D504*
X252734Y544264D03*
Y536390D03*
Y528516D03*
Y520642D03*
Y512768D03*
X229112D03*
Y520642D03*
Y528516D03*
Y536390D03*
Y544264D03*
G54D505*
X457988Y328980D03*
X438303D03*
X448303Y288862D03*
X370472Y500787D03*
Y481102D03*
X478829Y425394D03*
X498514D03*
G54D506*
X195419Y531508D03*
X203556Y525696D03*
X211694Y519884D03*
X480906Y398425D03*
X494685D03*
X480906Y362992D03*
X494685D03*
X402370Y313976D03*
Y300197D03*
G54D508*
X168011Y564961D03*
X161811D03*
X145811D03*
X139611D03*
X452331Y568898D03*
X458531D03*
X474531D03*
X480731D03*
G54D509*
X397047Y483465D03*
X426575D03*
X397047Y455512D03*
X426575D03*
G54D510*
X479134Y513583D03*
X471260D03*
X463386D03*
X479134Y523425D03*
X471260D03*
X463386D03*
G54D511*
X168249Y537154D03*
Y520618D03*
G54D512*
X290343Y419913D03*
G54D513*
X280099Y339403D03*
X270623Y338217D03*
X197260Y436651D03*
X201288Y446061D03*
X193375Y427598D03*
X280099Y339403D03*
X270623Y338217D03*
G54D514*
X273079Y325626D02*
X280886Y326654D01*
X273079Y325626D02*
X280886Y326654D01*
G54D515*
X191716Y320294D03*
X176961Y273999D03*
X206488Y274018D03*
G54D516*
X161417Y436614D03*
X139370D03*
G54D517*
X116535Y387402D03*
X396927Y424001D03*
X424486D03*
X451639Y398652D03*
X470454Y378515D03*
G54D518*
X315354Y286858D03*
Y280858D03*
X291339Y300150D03*
Y306150D03*
X293108Y571150D03*
X299108D03*
X299080Y563329D03*
X293080D03*
X328324Y571150D03*
X322324D03*
X328223Y563329D03*
X322223D03*
X360148Y567016D03*
X354148D03*
X285039Y300150D03*
Y306150D03*
G54D519*
X352756Y336069D03*
Y345269D03*
X325197Y280951D03*
Y290151D03*
G54D521*
X249824Y559055D03*
X254724D03*
X259624D03*
X264524D03*
G54D522*
X275024Y570455D03*
X239324D03*
G54D529*
X314919Y563327D03*
Y570807D03*
X306819Y567067D03*
X344069Y563327D03*
Y570807D03*
X335969Y567067D03*
G54D538*
X303144Y294220D03*
X291344D03*
G54D539*
X297244Y282570D03*
G54D545*
X479886Y471260D03*
X496886D03*
G54D558*
X329951Y541801D03*
X309951D03*
X289951D03*
G54D573*
X354798Y469689D03*
Y482287D03*
G74*
X0Y0D02*
M02*
